<svg viewBox="0 0 330 200" xmlns="http://www.w3.org/2000/svg"><g><g><g><g><g><line x1="48.875" y1="177.828125" x2="43.875" y2="177.828125" style="visibility: inherit;" fill="rgb(0, 0, 0)" stroke="rgb(204, 204, 204)" stroke-width="1px"></line><line x1="48.875" y1="160.0453125" x2="43.875" y2="160.0453125" style="visibility: inherit;" fill="rgb(0, 0, 0)" stroke="rgb(204, 204, 204)" stroke-width="1px"></line><line x1="48.875" y1="142.2625" x2="43.875" y2="142.2625" style="visibility: inherit;" fill="rgb(0, 0, 0)" stroke="rgb(204, 204, 204)" stroke-width="1px"></line><line x1="48.875" y1="124.47968750000001" x2="43.875" y2="124.47968750000001" style="visibility: inherit;" fill="rgb(0, 0, 0)" stroke="rgb(204, 204, 204)" stroke-width="1px"></line><line x1="48.875" y1="106.69687499999999" x2="43.875" y2="106.69687499999999" style="visibility: inherit;" fill="rgb(0, 0, 0)" stroke="rgb(204, 204, 204)" stroke-width="1px"></line><line x1="48.875" y1="88.9140625" x2="43.875" y2="88.9140625" style="visibility: inherit;" fill="rgb(0, 0, 0)" stroke="rgb(204, 204, 204)" stroke-width="1px"></line><line x1="48.875" y1="71.13125000000001" x2="43.875" y2="71.13125000000001" style="visibility: inherit;" fill="rgb(0, 0, 0)" stroke="rgb(204, 204, 204)" stroke-width="1px"></line><line x1="48.875" y1="53.3484375" x2="43.875" y2="53.3484375" style="visibility: inherit;" fill="rgb(0, 0, 0)" stroke="rgb(204, 204, 204)" stroke-width="1px"></line><line x1="48.875" y1="35.56562499999998" x2="43.875" y2="35.56562499999998" style="visibility: inherit;" fill="rgb(0, 0, 0)" stroke="rgb(204, 204, 204)" stroke-width="1px"></line><line x1="48.875" y1="17.782812500000006" x2="43.875" y2="17.782812500000006" style="visibility: inherit;" fill="rgb(0, 0, 0)" stroke="rgb(204, 204, 204)" stroke-width="1px"></line><line x1="48.875" y1="0" x2="43.875" y2="0" style="visibility: inherit;" fill="rgb(0, 0, 0)" stroke="rgb(204, 204, 204)" stroke-width="1px"></line></g><g transform="translate(38.875, 0)"><text x="0" y="177.828125" dx="0em" dy="0.3em" style="text-anchor: end; visibility: hidden; font-family: &quot;Helvetica Neue&quot;, sans-serif; font-size: 12px; font-weight: 200;" fill="rgb(50, 49, 63)" stroke="none" stroke-width="1px">-0.5</text><text x="0" y="160.0453125" dx="0em" dy="0.3em" style="text-anchor: end; visibility: inherit; font-family: &quot;Helvetica Neue&quot;, sans-serif; font-size: 12px; font-weight: 200;" fill="rgb(50, 49, 63)" stroke="none" stroke-width="1px">0</text><text x="0" y="142.2625" dx="0em" dy="0.3em" style="text-anchor: end; visibility: hidden; font-family: &quot;Helvetica Neue&quot;, sans-serif; font-size: 12px; font-weight: 200;" fill="rgb(50, 49, 63)" stroke="none" stroke-width="1px">0.5</text><text x="0" y="124.47968750000001" dx="0em" dy="0.3em" style="text-anchor: end; visibility: inherit; font-family: &quot;Helvetica Neue&quot;, sans-serif; font-size: 12px; font-weight: 200;" fill="rgb(50, 49, 63)" stroke="none" stroke-width="1px">1</text><text x="0" y="106.69687499999999" dx="0em" dy="0.3em" style="text-anchor: end; visibility: hidden; font-family: &quot;Helvetica Neue&quot;, sans-serif; font-size: 12px; font-weight: 200;" fill="rgb(50, 49, 63)" stroke="none" stroke-width="1px">1.5</text><text x="0" y="88.9140625" dx="0em" dy="0.3em" style="text-anchor: end; visibility: inherit; font-family: &quot;Helvetica Neue&quot;, sans-serif; font-size: 12px; font-weight: 200;" fill="rgb(50, 49, 63)" stroke="none" stroke-width="1px">2</text><text x="0" y="71.13125000000001" dx="0em" dy="0.3em" style="text-anchor: end; visibility: hidden; font-family: &quot;Helvetica Neue&quot;, sans-serif; font-size: 12px; font-weight: 200;" fill="rgb(50, 49, 63)" stroke="none" stroke-width="1px">2.5</text><text x="0" y="53.3484375" dx="0em" dy="0.3em" style="text-anchor: end; visibility: inherit; font-family: &quot;Helvetica Neue&quot;, sans-serif; font-size: 12px; font-weight: 200;" fill="rgb(50, 49, 63)" stroke="none" stroke-width="1px">3</text><text x="0" y="35.56562499999998" dx="0em" dy="0.3em" style="text-anchor: end; visibility: hidden; font-family: &quot;Helvetica Neue&quot;, sans-serif; font-size: 12px; font-weight: 200;" fill="rgb(50, 49, 63)" stroke="none" stroke-width="1px">3.5</text><text x="0" y="17.782812500000006" dx="0em" dy="0.3em" style="text-anchor: end; visibility: inherit; font-family: &quot;Helvetica Neue&quot;, sans-serif; font-size: 12px; font-weight: 200;" fill="rgb(50, 49, 63)" stroke="none" stroke-width="1px">4</text><text x="0" y="0" dx="0em" dy="0.3em" style="text-anchor: end; visibility: hidden; font-family: &quot;Helvetica Neue&quot;, sans-serif; font-size: 12px; font-weight: 200;" fill="rgb(50, 49, 63)" stroke="none" stroke-width="1px">4.5</text></g><line x1="48.875" y1="0" x2="48.875" y2="177.828125" fill="rgb(0, 0, 0)" stroke="rgb(204, 204, 204)" stroke-width="1px"></line></g></g><g transform="translate(48, 0)" clip-path="url(#clip_0)"><clipPath id="clip_0"><rect width="281" height="177"></rect></clipPath><g><g><g><line x1="0" y1="0" x2="0" y2="177.828125" fill="rgb(0, 0, 0)" stroke="rgb(60, 60, 60)" stroke-width="1px" opacity="0.25"></line><line x1="21.625" y1="0" x2="21.625" y2="177.828125" fill="rgb(0, 0, 0)" stroke="rgb(60, 60, 60)" stroke-width="1px" opacity="0.25"></line><line x1="43.25" y1="0" x2="43.25" y2="177.828125" fill="rgb(0, 0, 0)" stroke="rgb(60, 60, 60)" stroke-width="1px" opacity="0.25"></line><line x1="64.875" y1="0" x2="64.875" y2="177.828125" fill="rgb(0, 0, 0)" stroke="rgb(60, 60, 60)" stroke-width="1px" opacity="0.25"></line><line x1="86.5" y1="0" x2="86.5" y2="177.828125" fill="rgb(0, 0, 0)" stroke="rgb(60, 60, 60)" stroke-width="1px" opacity="0.25"></line><line x1="108.125" y1="0" x2="108.125" y2="177.828125" fill="rgb(0, 0, 0)" stroke="rgb(60, 60, 60)" stroke-width="1px" opacity="0.25"></line><line x1="129.75" y1="0" x2="129.75" y2="177.828125" fill="rgb(0, 0, 0)" stroke="rgb(60, 60, 60)" stroke-width="1px" opacity="0.25"></line><line x1="151.375" y1="0" x2="151.375" y2="177.828125" fill="rgb(0, 0, 0)" stroke="rgb(60, 60, 60)" stroke-width="1px" opacity="0.25"></line><line x1="173" y1="0" x2="173" y2="177.828125" fill="rgb(0, 0, 0)" stroke="rgb(60, 60, 60)" stroke-width="1px" opacity="0.25"></line><line x1="194.625" y1="0" x2="194.625" y2="177.828125" fill="rgb(0, 0, 0)" stroke="rgb(60, 60, 60)" stroke-width="1px" opacity="0.25"></line><line x1="216.25" y1="0" x2="216.25" y2="177.828125" fill="rgb(0, 0, 0)" stroke="rgb(60, 60, 60)" stroke-width="1px" opacity="0.25"></line><line x1="237.875" y1="0" x2="237.875" y2="177.828125" fill="rgb(0, 0, 0)" stroke="rgb(60, 60, 60)" stroke-width="1px" opacity="0.25"></line><line x1="259.5" y1="0" x2="259.5" y2="177.828125" fill="rgb(0, 0, 0)" stroke="rgb(60, 60, 60)" stroke-width="1px" opacity="0.25"></line><line x1="281.125" y1="0" x2="281.125" y2="177.828125" fill="rgb(0, 0, 0)" stroke="rgb(60, 60, 60)" stroke-width="1px" opacity="0.25"></line></g><g><line x1="0" y1="177.828125" x2="281.125" y2="177.828125" fill="rgb(0, 0, 0)" stroke="rgb(60, 60, 60)" stroke-width="1px" opacity="0.25"></line><line x1="0" y1="160.0453125" x2="281.125" y2="160.0453125" fill="rgb(0, 0, 0)" stroke="rgb(60, 60, 60)" stroke-width="1px" opacity="0.25"></line><line x1="0" y1="142.2625" x2="281.125" y2="142.2625" fill="rgb(0, 0, 0)" stroke="rgb(60, 60, 60)" stroke-width="1px" opacity="0.25"></line><line x1="0" y1="124.47968750000001" x2="281.125" y2="124.47968750000001" fill="rgb(0, 0, 0)" stroke="rgb(60, 60, 60)" stroke-width="1px" opacity="0.25"></line><line x1="0" y1="106.69687499999999" x2="281.125" y2="106.69687499999999" fill="rgb(0, 0, 0)" stroke="rgb(60, 60, 60)" stroke-width="1px" opacity="0.25"></line><line x1="0" y1="88.9140625" x2="281.125" y2="88.9140625" fill="rgb(0, 0, 0)" stroke="rgb(60, 60, 60)" stroke-width="1px" opacity="0.25"></line><line x1="0" y1="71.13125000000001" x2="281.125" y2="71.13125000000001" fill="rgb(0, 0, 0)" stroke="rgb(60, 60, 60)" stroke-width="1px" opacity="0.25"></line><line x1="0" y1="53.3484375" x2="281.125" y2="53.3484375" fill="rgb(0, 0, 0)" stroke="rgb(60, 60, 60)" stroke-width="1px" opacity="0.25"></line><line x1="0" y1="35.56562499999998" x2="281.125" y2="35.56562499999998" fill="rgb(0, 0, 0)" stroke="rgb(60, 60, 60)" stroke-width="1px" opacity="0.25"></line><line x1="0" y1="17.782812500000006" x2="281.125" y2="17.782812500000006" fill="rgb(0, 0, 0)" stroke="rgb(60, 60, 60)" stroke-width="1px" opacity="0.25"></line><line x1="0" y1="0" x2="281.125" y2="0" fill="rgb(0, 0, 0)" stroke="rgb(60, 60, 60)" stroke-width="1px" opacity="0.25"></line></g></g></g><g><g><line x1="0" y1="160.0453125" x2="281.125" y2="160.0453125" fill="rgb(0, 0, 0)" stroke="rgb(153, 153, 153)" stroke-width="1.5px"></line></g></g><g><g><line x1="21.625" y1="0" x2="21.625" y2="177.828125" fill="rgb(0, 0, 0)" stroke="rgb(153, 153, 153)" stroke-width="1.5px"></line></g></g><g><g><g><g><g><path stroke="rgb(255, 112, 67)" stroke-width="2px" d="M21.7115,31.83396409749983L22.01425,40.87302186172454L22.144000000000002,32.709049958978994L22.490000000000002,35.16768927578539L22.533250000000002,31.198191644143805L22.5765,36.66530737047634L22.836,41.326774769259174L23.138749999999998,42.598362884111026L23.22525,51.638569383102535L23.65775,54.08105848071541L23.83075,55.81590983404989L23.91725,53.70153683524738L24.34975,66.92805510346031L24.95525,64.85274757210277L25.04175,59.174040820251506L25.214750000000002,53.65780221575122L25.474249999999998,52.68108336493195L25.560750000000002,50.736209584416144L25.604000000000003,54.425622135440975L25.73375,57.064547960861034L26.5555,53.11710179848447L26.685250000000003,60.85907979126584L26.988,59.35219672426541L27.11775,61.80962429572581L27.2475,65.38245516152487L27.37725,65.32055952082561L27.507,66.88515499944786L27.939500000000002,68.72052118604928L28.285500000000003,75.51610011074627L28.32875,81.28210080623587L28.501749999999998,77.28132000164071L28.76125,70.66912170533566L28.93425,65.90430211610264L29.10725,58.975227267619985L29.45325,64.45228191050408L29.53975,54.15478378303632L30.7075,58.68083348493046L30.75075,59.97008491440671L31.09675,61.56436713504776L31.18325,62.09337943247927L31.226499999999998,66.42287514766788L31.572499999999998,49.722550394310986L31.61575,48.92134545909542L31.659,52.058569836964395L31.87525,63.84402429128019L32.22125,66.5516584947268L32.264500000000005,59.30009926855605L32.74025,67.98241849829404L33.08625,69.6556017416324L33.216,65.29894450885148L33.77825,61.05010145532269L33.9945,62.52731607602776L34.124249999999996,68.26904038279307L34.29725,65.30029890172798L34.29725,63.51905401309092L34.64325,67.47455670869356L35.0325,62.41034135303384L35.07575,65.02657746721236L35.335249999999995,68.17953105121238L35.464999999999996,71.09425042777899L35.508250000000004,68.96838545596383L35.5515,67.87178404477702L35.59475,68.102658560857L35.638,68.0615296775012L35.8975,68.01906912797146L36.11375,70.165485922834L36.37325,70.22093819727941L36.50299999999999,70.93498837918308L37.06525,66.81673462492385L37.15175,64.24611765326357L37.23825,54.40483481515227L37.23825,48.50006511228548L37.411249999999995,46.65667601387062L37.58425,51.67056304311967L37.670750000000005,54.72973837731011L37.75725,54.947672704921544L37.887,55.72568415288113L37.973499999999994,63.84576053967467L38.1465,59.44477487653725L38.233000000000004,56.634118510784106L38.27625,53.1242239329227L38.3195,50.522666857123866L38.4925,53.305142370748825L38.579,52.201476542287054L38.62225,50.746355068166835L38.751999999999995,48.80225276796807L38.79525,52.313195312313965L38.88175,56.0021587218599L38.96825,57.423316893622655L39.098,57.71631014653765L39.098,57.892106098286646L39.617000000000004,59.4794010465457L39.703500000000005,48.66859040946446L40.395500000000006,52.93245876157691L40.5685,54.87041573837047L40.698249999999994,50.507255424050385L41.001,46.13717451243869L41.087500000000006,46.37046386390489L41.21725,44.16305589043833L41.2605,49.75689402260625L41.390249999999995,43.274311027158774L41.4335,47.19091623707382L41.73625,44.703297574423374L41.7795,46.420928200246465L41.99575,52.70786741206739L42.039,57.8115304215532L42.255250000000004,53.51865918480047L42.341750000000005,54.0458318164509L42.42825,52.05991565886505L42.60125,51.29392861666301L42.644499999999994,55.88675154651415L42.77425,56.09130797985323L42.77425,56.21404183985668L42.904,64.22349219818042L43.29325,65.5143563914247L43.336499999999994,70.83003013300583L43.552749999999996,77.71352767805865L44.2015,79.01735605246192L44.461,78.33970943299751L44.59075,75.72278564934624L44.67725,71.48535874345714L44.7205,73.38709298109302L44.806999999999995,68.09325366458468L44.93675,63.80064009810192L45.02325,58.4217812662405L45.2395,61.970798564856196L45.36925,64.61903259271678L45.498999999999995,63.13101813980519L45.71525,68.89276957922327L45.80175,71.06041322715967L46.6235,79.32643347199495L46.71,77.5807153148397L46.71,76.53328442054654L46.753249999999994,73.74727329956093L47.1425,70.1562219565904L47.402,66.47044679259035L47.402,64.25898169419034L47.531749999999995,59.27468150163213L47.704750000000004,62.53286287697864L48.267,60.589522429184385L48.5265,56.12218878440635L48.74275,48.84347811116322L48.82925,56.63109750970331L48.8725,54.871092323506645L49.305,68.89479807647751L49.43475,65.11375900943689L49.60775,68.63653626107936L49.737500000000004,67.0505840659962L50.0835,68.84433075581946L50.12675,64.42450230506036L50.38625,54.438344899338304L50.429500000000004,49.919754292977956L50.516,58.55927653814143L50.516,63.74298988523951L51.554,62.92996086205764L51.640499999999996,63.137310290787966L51.68375,67.58045773712058L51.727,67.58674582604921L52.202749999999995,68.9615190915129L52.462250000000004,75.6453280938781L52.5055,75.23627824146251L52.592,72.08434509371935L52.6785,70.68348718813193L52.765,80.9954558693238L53.284,77.41756021337915L53.32725,71.67834791694408L53.5435,70.91941171738102L53.7165,75.50747348488923L53.803,78.2592353440616L53.846250000000005,75.69411938055119L54.2355,75.56067034073926L54.538250000000005,76.49281648050699L54.624750000000006,75.86558048815102L55.187,68.10268714124305L55.533,71.200527584221L55.533,73.05923185000779L55.879000000000005,72.42203226029851L55.9655,72.68272021317469L56.311499999999995,61.751934971237105L56.311499999999995,55.19346382607456L56.61425,48.84102667295596L56.78725,45.178111755094875L56.917,37.08058385326976L57.003499999999995,27.874658418145827L57.089999999999996,27.822019232181958L57.1765,27.98456891767279L57.263000000000005,25.980185269666293L57.5225,24.032810263843857L57.6955,34.893083151287755L57.825250000000004,38.60822530752833L57.99825,42.33483880678665L58.17125,51.45285519850164L58.257749999999994,51.908234090756835L58.301,47.84907841631858L58.344249999999995,40.64336441695147L58.43075,44.13403123372467L58.5605,48.02784689398811L58.77675,45.848928352190285L58.993,56.65557894616916L59.0795,58.98044294661041L59.122749999999996,56.82208550331448L59.166,59.28540168140802L59.295750000000005,59.781512104478324L59.339,56.64518202662876L59.38225,62.250814715745506L59.38225,65.61419432921558L59.81475,66.46093778886407L59.987750000000005,62.30396680222755L60.1175,58.30501450679783L60.290499999999994,52.05134483088304L60.290499999999994,48.29914302533419L60.50675,51.694399458799055L60.6365,56.15216730691988L61.11225,55.05329192196129L61.19875,53.4223645682025L61.415,54.48175900726841L61.5015,58.42138421982126L61.674499999999995,59.74711181729789L61.97725,61.33169188505266L62.0205,64.99104167256267L62.15025,69.916089133522L62.1935,71.43823037302559L62.928749999999994,67.66913541827239L63.0585,70.02219835504076L63.44775,77.04824905624498L63.491,74.68823643017119L63.664,66.64469801597778L63.707249999999995,65.50855061956038L63.7505,65.41685262648934L64.13974999999999,68.53426115172311L64.4425,75.73960089389803L64.48575,78.54613659324838L64.875,64.09110963727589L64.9615,63.915145034405924L65.1345,54.89446828354201L65.52374999999999,46.16768459343197L65.6535,39.42297123767901L66.1725,36.640339173364424L66.432,46.671321302943085L66.5185,59.122870679672175L66.5185,66.59380030570959L66.56175,61.43273148202023L66.605,59.60170391030981L66.69149999999999,67.11684068010969L66.77799999999999,68.01528134594393L66.95100000000001,70.94919560313245L67.25375,59.22982984608424L67.989,58.52778157279498L68.0755,60.37449818304542L68.24849999999999,65.52945707649806L68.42150000000001,70.03023727155221L68.681,71.83663647482686L68.89725,65.77992488330541L68.9405,64.71438771358692L68.98375,69.15092470450142L69.027,73.56313899638019L69.1135,63.04442713786223L69.15675,58.03308112400208L69.32975,47.2337399865832L69.41624999999999,44.506062225439905L69.84875,32.54203483995127L69.9785,25.896423066474938L69.9785,21.90905600238918L70.02175,18.796040579373113L70.10825,20.716921992119836L70.19475,25.41137771279614L70.19475,28.22805114520193L70.36775,27.75195188660976L70.411,29.736751231190908L70.54075,30.00339862623059L70.92999999999999,39.51394837569143L71.14625000000001,42.7456565691289L71.276,49.05013795931677L71.40575,56.13077793442929L71.49225,63.265446622215066L71.75174999999999,54.49683452370304L71.795,57.549307125345095L72.314,59.0058472916694L72.53025,56.34360379875966L72.87625,64.75224071861071L73.2655,64.57549900305725L73.30874999999999,59.08559189672742L73.352,65.46818149826211L73.56824999999999,64.8168693196254L73.65475,61.173289327411496L74.3035,51.60246185546434L74.4765,48.5771076773722L74.60625,47.705949074931084L74.60625,47.183253913466416L74.6495,48.27962260445611L74.69274999999999,46.83286440313253L74.82249999999999,45.44808535927771L75.34150000000001,58.296638172592154L75.38475,63.8615741936716L75.601,68.06568960537628L75.64425000000001,68.66717430377074L75.73075,66.68053090735715L76.0335,67.66445727982784L76.16325,68.28608552061714L76.3795,69.85838341142652L76.68225,73.09092005178879L76.76875,72.39918694904776L76.812,72.37168085224229L77.11475,73.73617663947822L77.37425,76.32559842627096L77.63374999999999,67.99413535810022L77.85000000000001,63.2640069733054L77.97975000000001,57.365279466509264L78.32575,62.794843357562684L78.4555,65.2461806927679L78.49875,59.96232750472771L78.67175,64.29845059607833L78.8015,66.43947699543482L78.93125,62.46203037903693L79.01774999999999,69.66664999071352L79.53675000000001,79.18567816119547L79.6665,79.21525467396472L79.79625,86.45708330652532L80.05575,85.55382260728727L80.22875,79.12733338802367L80.5315,74.25584605770891L80.79100000000001,70.48776740066758L80.8775,76.33289697070451L81.18025,72.30238939612822L81.18025,69.88408485138247L81.2235,68.51964396049875L81.91550000000001,60.52157860881269L81.95875,47.645080791033365L81.95875,39.919182100365816L82.13175,34.7732580414237L82.348,38.7215769166244L82.694,41.098193013339795L82.78049999999999,47.34050160209512L83.42925000000001,55.7135600743304L83.73200000000001,65.4035247312552L83.905,70.68140203574696L84.12125,63.16191266578076L84.251,52.895059759626605L84.33749999999999,48.31170533162941L84.68350000000001,38.80458142079465L84.72675,32.434930431351376L84.77,28.602923729124853L85.0295,32.78056972867441L85.41874999999999,38.260974273360915L85.76475,52.65264139609168L85.93775000000001,68.06800881631153L86.45675,71.89698163215503L86.62975,74.46650997188203L86.67299999999999,78.2078345169813L86.71625,76.53686809570735L86.80275,84.69301939207998L86.846,81.4116390007656L87.06225,89.55495041030176L87.14874999999999,89.26112261424974L87.32175000000001,90.56293268210004L87.365,93.13561618868297L87.884,87.20701118197314L87.9705,92.89212959340972L88.01375,87.02488471705773L88.35974999999999,79.7741861244384L88.61925,74.26872939350267L89.13825,71.24619483221805L89.441,70.96760709684632L89.61399999999999,73.43581023157563L89.74374999999999,78.48952777827337L89.83025,75.01180429485176L89.91675,80.10070097551784L89.96000000000001,76.64551970485475L90.306,75.99073717220797L90.69525,77.68345975920067L90.7385,79.75862112548651L90.86824999999999,82.20006088916482L90.95475,83.85931572141659L91.47375,69.38012671633012L91.51700000000001,68.03930799581677L91.69,69.38319113086503L91.73325,67.75219900566842L91.7765,62.78136761551205L91.81975000000001,63.10570644447269L91.81975000000001,63.30030974184908L92.382,58.09209133139515L92.55499999999999,45.26012733341017L93.07400000000001,52.18677698946452L93.247,44.98497078106675L93.54975,40.10460938117427L93.593,35.06469373227074L93.67949999999999,27.18480272841998L93.939,31.55439420254558L94.58775,51.61711879111249L94.631,63.372911731224775L94.67425,69.74918024588914L94.84725,68.7166085195499L95.19324999999999,57.91511576425776L95.323,43.64070635111182L95.79875,36.56525185865789L95.842,26.12308850504533L95.97175,15.213843306407796L96.188,2.2815188685092096L96.23125,14.00652930551962L96.40425,19.634697372401916L96.534,30.140898717752208L96.66375000000001,35.49401605028575L96.79350000000001,35.53360836803117L96.88,29.128327974970347L97.226,41.458470463928705L97.4855,41.56928904305525L97.57199999999999,41.2270781874694L97.70174999999999,45.178483417632435L98.04775000000001,51.61475776463881L98.09100000000001,51.79835697639069L98.22075000000001,54.17557003365805L98.30725,66.86522200028209L98.65325000000001,61.33080684316221L99.0425,51.3721903346304L99.47500000000001,46.84763322546027L99.86425,33.04386937304699L99.90750000000001,30.289733274485855L99.95075,21.299372227016818L99.994,16.81818807901365L100.0805,13.694282219299225L100.4265,-8.221861620850234L100.686,-10.632172454659269L100.98875000000001,4.044569938323434L101.6375,22.267089580858652L101.68075,39.31827308974556L102.19975,43.77313730860885L102.28625,41.79354774442396L102.3295,44.618384326619406L102.45925,48.7063384783998L102.5025,43.91437725619883L102.54575000000001,48.18183420298345L102.762,48.04123981712965L102.89175,53.394250944070265L103.1945,61.84237968850867L103.3675,65.57962178068598L103.627,55.37388635651614L103.67025000000001,55.64464029238431L103.75675,51.90410842487698L104.01625,47.65332455390384L104.10274999999999,47.581739383063876L104.18925,52.2164296311868L104.2325,50.92263096229631L104.44875,59.64343214962719L104.53524999999999,64.56019711931849L105.184,61.04573867345037L105.2705,60.81646126642336L105.4435,54.389686088767704L106.00575,50.95268494129601L106.395,48.98302279526246L106.568,52.40220195063503L106.69775,50.871552403620186L106.78425,53.060124820084155L107.04374999999999,49.738858831590846L107.17349999999999,55.434528179267915L107.30325,62.99156684774154L107.779,69.5238499131679L107.99525000000001,73.12792120140074L108.125,73.83357131458091L108.29799999999999,78.72703799889543L108.34125,81.72365150532757L108.60074999999999,74.1633690809109L108.81700000000001,62.62625509589304L108.9035,56.8142931913697L109.11975,54.72669239523192L110.11449999999999,43.66246864814866L110.24425,30.72053097378796L110.24425,22.955368369171538L110.4605,26.477806750744293L112.06075,13.584864546543201L112.277,8.902922001889834L112.32025,-1.5639495203426748L112.3635,4.443335178522375L112.40675,2.8558742004800592L112.45,-0.654916764606952L112.49324999999999,2.923974824363029L113.01225000000001,-0.9372069636499418L113.14200000000001,15.570549479453831L113.18525,27.00608992655819L113.35825,37.58780074643934L113.61775,29.139221355485006L113.79075,39.593491380314305L113.87724999999999,50.76559323662538L113.87724999999999,57.468854350412L114.22325000000001,64.51942252997407L114.56925,64.28657557179837L114.699,64.16280208414976L114.7855,60.809092523969326L114.9585,56.54680618722267L115.00175,49.70374970960037L115.218,47.90413110272536L115.3045,39.01627499590188L115.43424999999999,43.97820368307751L115.52075,40.65275793461754L116.08300000000001,37.823805828325476L116.29925,32.74080194201022L116.602,44.399526589011856L116.775,56.710455011365255L116.90475,58.355562445543654L116.99125,62.68737135173227L116.99125,65.28645669544547L117.42375,67.43880851283555L117.46700000000001,69.12721649655631L117.59675,70.5388184091385L118.24549999999999,58.95156117325638L118.37525,50.843962356422026L118.46175,43.15486273287158L118.72125000000001,50.967358911743275L118.7645,52.095119392103285L119.1105,58.933961417213865L119.15375,55.82776017781245L119.543,55.89402243433085L119.58624999999999,54.834238882289455L119.6295,51.38136161054739L119.84575000000001,52.16416250518303L120.062,60.85609078944529L120.62425,64.46554819518806L120.6675,67.98953771009732L120.927,72.6790657449644L120.97025,83.15304258846528L121.0135,78.44420056392723L121.05675000000001,82.96090595275149L121.31625,79.29606387704601L121.7055,72.1943490927815L122.13799999999999,68.93545195760724L122.311,62.29522404433726L122.48400000000001,63.892406536706915L122.5705,57.012901942174835L122.70025,49.06637235536647L122.7435,52.91532837423367L122.7435,55.22470198555399L122.95975,45.21514231344227L123.52199999999999,58.392059917331736L123.65174999999999,67.63491977040827L123.99775,74.60868620923078L124.214,72.22876392573664L124.3005,66.78088037473292L124.34375,64.204708790793L124.51675,50.23458298207163L124.56,54.42127528614306L124.60324999999999,54.50633740202488L124.6465,59.53409836635532L124.68975,51.488568081531184L124.90599999999999,55.375549811168455L124.9925,56.02222000035282L125.12225000000001,52.71892026706122L125.1655,55.26188962127915L125.29525,53.28180261114926L125.42500000000001,55.10056958651357L125.46825,56.26660883728154L125.5115,58.82357315780813L126.28999999999999,61.618681393635825L126.5495,59.85751703415664L126.93875,67.3982300277612L126.982,61.699121216300796L127.41449999999999,68.05405346683483L127.45775,68.57256540794266L127.45775,68.88367257260735L127.89025000000001,66.1481906428543L128.40925,68.76202602175518L128.45250000000001,67.16461569659498L128.75525000000002,69.68411680753582L128.92825,64.33980804828138L129.10125,57.36926854042609L129.18775,60.409791248669606L129.231,57.87279318191433L129.231,56.35059434186114L129.53375,46.8205233717602L129.70675,60.854743301549036L130.1825,62.37979543011099L130.31225,60.816792897884284L130.39875,68.58909561962142L130.5285,72.04988321709786L130.83125,79.09519183411093L130.87449999999998,80.00660702987845L130.87449999999998,80.55345614733896L131.04749999999999,81.66264342118859L131.43675,87.00651619821524L131.9125,88.2921453149005L132.04225,89.16623503839278L132.47475,82.8114829106647L132.518,76.69684265634527L132.64775,67.60470567244951L133.21,67.45759070693651L133.2965,71.26281908559324L133.59925,66.88553496722889L133.68574999999998,68.54314648702449L134.07500000000002,73.50148890074912L134.248,72.04230300102725L134.72375,73.6035232938176L134.81025,69.41514042358669L134.81025,66.90211070144815L134.89675,65.41386695930152L134.94,64.24122930365075L135.0265,60.13906757829946L135.50225,50.21659574895121L135.978,42.26364179723868L136.28075,49.802792403837486L136.62675,59.828793481433664L136.84300000000002,66.63189600494161L137.189,58.68565319351349L137.49175,45.93357773227686L137.535,43.03946069331883L137.57825,39.58300412626218L137.9675,32.54416247803658L138.4865,35.29449801086599L138.52975,33.241461731429155L138.83249999999998,39.791034814080774L139.22175000000001,54.71938619277549L139.265,60.23301217950386L139.30825,65.33769656715991L139.39475,64.52805258332609L140.00025,73.22204686730456L140.2165,79.45874844985812L140.34625,86.10514258383282L140.43275,87.25011282288175L140.5625,91.26604548453176L140.69225,86.43440053855707L140.822,83.08013194677432L140.86525,79.11332622961523L140.9085,83.75914421109151L141.2545,67.77985047416563L141.4275,64.70331362018987L141.60049999999998,60.48648777443172L141.98975000000002,60.156457701551915L142.07625000000002,64.89820627464533L142.1195,64.29880894388963L142.379,56.64049700001601L142.42225,64.3790629163368L142.552,59.92154914796254L142.8115,47.63867885625302L142.94125,46.74999896976914L143.1575,46.80568932231404L143.37375,45.121006424046385L143.97925,53.977044578085454L144.0225,58.322355395966824L144.10899999999998,63.55450178856496L144.41174999999998,63.25218547984865L145.32,70.75059589031284L145.36325,74.9938731079277L145.7525,79.23848117023569L146.01199999999997,66.87233241337454L146.14175,64.42031074188897L146.531,60.895391965942096L146.57424999999998,54.899350555262885L146.704,54.67084025414104L146.7905,49.39882011068647L146.92024999999998,47.326353987173974L147.17974999999998,31.99325289375588L147.22299999999998,25.848795595449246L147.56900000000002,19.40033261757017L147.65550000000002,14.389947271233325L147.78525,13.324166165522058L148.39075,22.299887230832184L148.434,27.562679082059162L148.56375,48.22594112271267L148.953,46.403119324232335L148.99625,46.07396222864699L149.16925,46.10690702030129L149.34225,44.68917719888131L149.5585,44.59353754143382L149.60175,45.973898044946566L149.818,47.18714835359023L149.9045,53.34928139485936L149.9045,57.04656121962081L150.337,57.19331462522035L150.42350000000002,57.41035012686066L150.46675,58.98625593503601L150.55325,59.081104874135775L150.7695,57.79045457126003L151.15875,54.258271333761826L151.59124999999997,55.06420433532466L151.67775,64.09094761020701L151.89399999999998,58.259773720245136L152.02375,50.705094522202344L152.02375,46.17228700337668L152.067,41.400297533380154L152.11025,39.9337157627387L152.19674999999998,36.497762139466005L152.6725,44.27042907108461L153.0185,37.243928180215335L153.06175,39.435684899435984L153.14825,43.44271745469962L153.23475000000002,43.62182987682098L153.40775,39.942146541786656L153.58075,43.639810327954564L153.624,41.288684223155656L153.84025,48.30667800459889L153.97,55.333151827476215L154.01325,57.9746361081134L154.143,54.24386356856408L154.18625,62.152593966042886L154.2295,62.23109889013524L154.489,64.07830595065924L154.53225,66.60418308579786L154.5755,69.29490442337911L155.0945,63.15856017507505L155.26749999999998,61.45531741075155L155.354,53.22908528144619L155.70000000000002,55.70786316541111L155.91625,48.082391585989456L155.91625,43.50710863833646L155.95950000000002,46.94215881952658L156.08925,44.576300130659405L156.219,39.44700792334919L156.392,40.212113974705005L156.4785,44.50036299986519L156.6515,44.40423534043359L156.78125,46.33462296770648L157.04075,50.87043263612172L157.603,47.232557056534176L158.03549999999998,51.35905207585566L158.12199999999999,57.45110555405185L158.20850000000002,59.7758353484557L158.20850000000002,61.170673225098L158.3815,58.04721260236093L158.7275,65.72233505169385L158.987,64.39360300940174L159.20325,63.890409301769125L159.37625000000003,67.51272016409122L159.506,75.74387239243437L160.025,71.57032401457934L162.05775,80.96351480809157L162.40375,89.28208543927852L162.57675,97.86179027689329L163.139,104.72579392095106L163.61475,109.93829995423376L163.78775000000002,112.2444888200153L164.13375,114.342788746255L164.177,113.51515057521901L164.35000000000002,107.60801211141253L164.73925,116.24806994851056L164.7825,111.20592413324489L165.215,109.89658504711613L165.25824999999998,111.24621951244488L165.3015,112.91176039419898L165.6475,106.82326785619455L166.5125,110.44113824573395L167.5505,114.22145552922629L167.81,115.0860010858735L167.85325,120.78824860566024L167.983,118.65594311274984L168.4155,117.666424938398L168.80475,119.36164468890868L168.93449999999999,121.35086877743268L169.36700000000002,117.61159320026556L169.58325,119.20676456361961L171.14024999999998,114.09053329807492L171.5295,109.99005803857429L171.616,108.17772414144386L171.789,102.87091833654945L172.0485,107.90350478219334L172.17825000000002,106.18175964908208L172.48100000000002,106.61030462924484L172.827,99.84305990841294L172.95675,100.20522305671159L173.30275,106.69646996053328L173.47575,108.93539617936176L173.64874999999998,111.20759866941191L174.64350000000002,116.54086704959403L174.8165,114.85495550370175L175.11925,121.86400774060762L175.29225,123.68646816470668L175.768,126.43807361615268L176.287,130.3836564425681L176.97899999999998,133.97432408610308L178.06025000000002,134.80819003875152L178.709,135.957791303367L179.3145,137.52905434833204L179.48749999999998,132.73307430202505L179.6605,132.579086570917L180.00650000000002,135.97430109127072L180.26600000000002,139.89935191113477L180.30925,137.4209632038398L181.0445,139.7143972213163L181.43374999999997,134.4302857837137L181.69325,132.27960498756505L182.03924999999998,133.731149000906L182.169,135.41011125705126L183.1205,137.9322454760908L183.85575,138.24847926462823L184.02875,134.08902421185454L184.37475,135.59529887319553L184.50449999999998,138.47890362027852L184.764,138.69345656489475L185.54250000000002,137.15546515557253L185.629,139.6660908832287L186.4075,139.35945047030657L186.5805,138.53199807868785L186.71025,138.1514152012252L187.48875,140.3362675267895L187.66174999999998,142.7693058396691L187.9645,143.26208019921563L188.52675,144.64343275230755L188.78625,144.81233268269378L189.39175,143.4035549131839L189.91075,143.8904720299875L190.2135,144.5001814873329L190.5595,146.478413167674L190.9055,145.08515007332932L190.94875,147.3155646631403L191.16500000000002,146.73055000122088L191.338,145.65601083857982L191.90025,145.58795266642076L192.07325,146.76194857347846L192.67875,142.79506863617206L193.19774999999998,142.34069070466342L193.24099999999999,140.38588093473305L193.54375,142.18125454964513L194.14925,143.24531852562592L194.40875,144.5234677860699L194.7115,144.57067794439564L194.798,145.37349920242949L195.18725,146.54817490317626L195.27375,147.52178786434652L195.317,148.09290949743493L196.13875000000002,146.60291537313316L196.2685,144.4625464465836L196.65775,146.86210180005395L197.22,148.14954478427597L197.8255,146.58157116184282L198.258,145.64711905932216L198.95000000000002,145.1401786101433L199.42575,144.59759395681752L200.20425,146.33152899299074L200.63675,147.50605190715348L200.67999999999998,146.46355458674523L200.89625,145.4063586197209L200.9395,145.32308935400317L201.24224999999998,146.28544087254386L201.41525000000001,145.91987392853724L201.45850000000002,143.90389268622417L201.50175,144.4898189383782L202.45325,144.6677194990538L202.4965,145.90999751536233L202.6695,146.06797920851818L202.756,147.00747454323715L203.14525,142.99427370568122L203.31825,142.44859597550337L203.448,142.39926709780994L204.5725,142.98738396011237L204.61575,143.38493852908874L205.005,142.53050367740073L205.13475,143.23851892404872L205.30775,142.61454421574246L205.4375,141.65802690398317L205.87,143.97623003191723L205.91325,146.33719210649713L205.9565,147.91337400078882L205.99974999999998,148.2665844547755L206.216,147.14717489923578L206.4755,148.5516165944668L206.6485,150.05806940715283L206.735,150.53472197096136L207.427,151.09037218036107L207.6865,150.84879500160724L207.72975,151.2645191280327L208.07575,151.59478279680948L208.8975,150.99118761576528L209.20025,149.0337887167994L209.63275,149.05874027967835L210.75725,148.3619249674179L211.752,145.9245186426862L212.05475,146.95076612404728L212.31425000000002,148.28293872853664L212.444,148.44853321056394L213.78474999999997,148.32665832212317L213.828,148.64651778021155L214.52,149.86501923716037L214.56325,148.8127108802108L214.99575,148.17233377413947L215.12550000000002,149.01376834562868L215.212,149.2125040908244L215.68775000000002,150.57679730688554L215.94725,151.15409610720738L216.077,151.07234810852864L216.25,151.92720402580562L217.0285,151.7370592814807L217.07175,151.943817854613L217.24475,150.72539043624099L217.3745,150.43235981515883L217.46099999999998,148.69864000381133L218.0665,148.03320396826328L218.2395,146.70642263083553L218.71525,149.36679901565327L218.845,149.15138076907525L219.70999999999998,144.9109169125773L220.056,140.70220064939366L220.4885,143.0593164150569L220.53175,145.28158992444892L221.00750000000002,147.61495528964204L222.00225,149.58810663611368L222.2185,150.6453206232752L222.95375,150.35305907728167L223.9485,149.10187587754066L224.035,147.51552083874427L224.85675,148.22501767507006L224.9,148.6696801915366L225.073,148.39467628796984L225.24599999999998,150.1029097614629L226.02450000000002,149.72419803651826L226.28400000000002,150.02113080322837L226.32725,150.85977612726447L228.14375,152.11890151030605L228.48975000000002,152.56837469526698L228.83575,152.614958781476L228.879,152.88993398351977L229.61425,152.72506611801913L229.96024999999997,151.29051152129608L230.1765,151.58671108419233L230.3495,150.08551623640676L230.82524999999998,150.5584334743364L231.34425,151.9432374668773L231.474,152.6644588659238L231.56050000000002,153.17729505257867L231.7335,153.49401069120057L232.0795,151.73284940628997L234.67450000000002,152.7883339281904L234.93400000000003,153.53283187568724L234.97725,154.2928992596934L235.06375,153.8400314292413L235.7125,154.3588860047893L236.01525,153.13913070745235L237.01,153.00835068788064L237.18300000000002,154.23936766563165L237.65875,154.32656462349107L237.7885,153.15924262416428L238.52375,153.53656874637792L238.78325,152.6244741758912L239.34550000000002,152.36266600440945L240.2105,153.8516713081919L240.59975,154.31110907186184L241.20525,154.4539084739148L241.29175,154.90478855766932L241.37825,154.72769430930512L241.76749999999998,154.05107249566598L242.15675000000002,154.41094123487508L242.50275,154.19519436990373L243.36775,154.30066565879153L243.45425,154.88546665576376L243.584,154.6887869841518L243.6705,154.44318424197505L243.92999999999998,155.12656995308382L244.449,154.66399960679252L244.49224999999998,155.0143342756104L244.795,155.24987120420093L244.92475000000002,155.63134377633992L245.141,155.41152197613098L245.44375,154.74856126494723L245.53025000000002,154.74724243495623L247.73600000000002,154.4326337436103L248.21175,154.3509814337947L248.34150000000002,153.703541296113L248.55775,154.43585164987354L249.24974999999998,153.88376147370522L249.42275,154.89885340507544L249.466,154.8305081937505L249.55249999999998,155.05604712348688L249.68225,154.7559052501448L249.985,155.56714950113277L250.158,154.96521728668006L250.331,154.39347430774356L250.72025,154.48763777391633L250.7635,154.80391865634334L250.97975,154.67754174413705L251.15275,154.70040156896366L251.196,155.02059372508424L251.84475,155.7640566598074L253.1855,154.6821599136708L253.7045,153.18487286781775L254.00725,153.02671422142464L254.22349999999997,153.3819794602725L254.82899999999998,154.50535355627736L255.21825,154.68263245438158L255.86700000000002,154.76434181441886L256.34275,154.83156317791355L256.6455,154.69760357053437L256.68875,155.11182847461913L256.8185,155.2054975393299L257.078,154.02205882979982L258.7215,154.0918167446989L258.85125,154.77333594319973L258.93775,155.15436875519308L259.0675,154.54167880159036L259.11075,154.8057193258452L259.28375,154.98601482964963L259.4135,155.4700036159972L260.66775,155.1038963795234L261.27325,154.78641648675676L262.441,154.69165623566911L262.7005,155.53726614735183L262.8735,155.40853232303505L263.652,155.51179410199558L263.86825,155.71851965163228L264.2575,156.2254764250797L264.517,156.65012147757267L264.64675,156.00354499447184L264.7765,156.29175659119912L265.68475,156.36567535586553L266.1605,154.43544395796894L266.54975,152.97250250045917" style="fill: none;" fill="none"></path></g></g></g></g><g opacity="0.20000000298023224"><g><g><g><path stroke="rgb(255, 112, 67)" stroke-width="2px" d="M21.7115,31.83396409749983L22.01425,46.2964565202594L22.144000000000002,24.87163693234325L22.490000000000002,38.059049112349754L22.533250000000002,26.01561553627252L22.5765,44.22829658165574L22.836,47.992747732996946L23.138749999999998,44.45235056281089L23.22525,64.97111799940467L23.65775,57.70787013322115L23.83075,58.40245188996197L23.91725,50.54148366153241L24.34975,86.72464562878012L24.95525,61.74385201856494L25.04175,50.66265579909087L25.214750000000002,45.38733478784562L25.474249999999998,51.21641840338707L25.560750000000002,47.81939271688461L25.604000000000003,59.959178917109966L25.73375,61.02269549071788L26.5555,47.19614904224872L26.685250000000003,72.47179202735424L26.988,57.091901874542245L27.11775,65.49573654234409L27.2475,70.7416760660708L27.37725,65.22771632373333L27.507,69.23204421401023L27.939500000000002,71.47356764823199L28.285500000000003,85.70946223810314L28.32875,89.93109866268934L28.501749999999998,71.28015012145043L28.76125,60.7508255764842L28.93425,58.757073301076886L29.10725,48.58161549121141L29.45325,72.66786363944412L29.53975,38.70853685736657L30.7075,65.46990796774627L30.75075,61.903962046653035L31.09675,63.95579045712948L31.18325,62.88689787685871L31.226499999999998,72.91711871176959L31.572499999999998,24.67206328436734L31.61575,47.71953805685044L31.659,56.76440640240908L31.87525,81.52220596969129L32.22125,70.61310979947449L32.264500000000005,48.422760429978354L32.74025,81.00589734241366L33.08625,72.16537660658359L33.216,58.76395865976811L33.77825,54.676836875081065L33.9945,64.74313800707459L34.124249999999996,76.88162684291602L34.29725,60.84718668013811L34.29725,60.84718668013811L34.64325,73.4078107520938L35.0325,54.81401831954717L35.07575,68.95093163847923L35.335249999999995,72.90896142721176L35.464999999999996,75.46632949262857L35.508250000000004,65.77958799824118L35.5515,66.22688192799687L35.59475,68.44897033497692L35.638,67.99983635246754L35.8975,67.95537830367685L36.11375,73.3851111151278L36.37325,70.30411660894752L36.50299999999999,72.00606365203858L37.06525,60.63935399353504L37.15175,60.390192195773125L37.23825,39.64291055798529L37.23825,39.64291055798529L37.411249999999995,43.891592366248375L37.58425,59.191393586993215L37.670750000000005,59.318501378595826L37.75725,55.27457419633866L37.887,56.89270132482052L37.973499999999994,76.02587511986495L38.1465,52.843296381831166L38.233000000000004,52.418133962154386L38.27625,47.85938206613062L38.3195,46.620331243425625L38.4925,57.47885564118623L38.579,50.54597779959441L38.62225,48.56367285698653L38.751999999999995,45.886099317669874L38.79525,57.579609128832814L38.88175,61.53560383617878L38.96825,59.555054151266816L39.098,58.15580002591014L39.098,58.15580002591014L39.617000000000004,61.86034346893429L39.703500000000005,32.45237445384262L40.395500000000006,59.32826128974557L40.5685,57.777351203560826L40.698249999999994,43.96251495257022L41.001,39.582053145021206L41.087500000000006,46.72039789110423L41.21725,40.85194393023849L41.2605,58.147651220858094L41.390249999999995,33.55043653398752L41.4335,53.06582405194639L41.73625,40.971869580447674L41.7795,48.99737413898109L41.99575,62.13827622979879L42.039,65.46702493578196L42.255250000000004,47.079352329671366L42.341750000000005,54.83659076392651L42.42825,49.08104142248632L42.60125,50.14494805335998L42.644499999999994,62.775985941290855L42.77425,56.39814262986182L42.77425,56.39814262986182L42.904,76.23766773566604L43.29325,67.4506526812911L43.336499999999994,78.80354074537753L43.552749999999996,88.0387739956379L44.2015,80.97309861406684L44.461,77.32323950380088L44.59075,71.79739997386933L44.67725,65.12921838462353L44.7205,76.23969433754682L44.806999999999995,60.152494689822205L44.93675,57.36171974837781L45.02325,50.35349301844836L45.2395,67.29432451277971L45.36925,68.59138363450766L45.498999999999995,60.89899646043777L45.71525,77.5353967383504L45.80175,74.31187869906425L46.6235,91.72546383924782L46.71,74.96213807910681L46.71,74.96213807910681L46.753249999999994,69.56825661808251L47.1425,64.76964494213462L47.402,60.94178404659033L47.402,60.94178404659033L47.531749999999995,51.79823121279479L47.704750000000004,67.42013493999839L48.267,57.67451175749302L48.5265,49.421188317239285L48.74275,37.925412101298576L48.82925,68.31252660751342L48.8725,52.231084544211626L49.305,89.93035670593382L49.43475,59.442200408875934L49.60775,73.92070213854312L49.737500000000004,64.67165577337146L50.0835,71.53495079055428L50.12675,57.79475962892174L50.38625,39.459108790755266L50.429500000000004,43.14186838343741L50.516,71.51855990588665L50.516,71.51855990588665L51.554,61.710417327284816L51.640499999999996,63.44833443388343L51.68375,74.24517890661956L51.727,67.59617795944213L52.202749999999995,71.02367898970842L52.462250000000004,85.67104159742594L52.5055,74.62270346283913L52.592,67.35644537210464L52.6785,68.58220032975078L52.765,96.46340889111161L53.284,72.05071672946214L53.32725,63.06952947229148L53.5435,69.78100741803645L53.7165,82.38956613615154L53.803,82.38687813282013L53.846250000000005,71.84644543528556L54.2355,75.36049678102135L54.538250000000005,77.8910356901586L54.624750000000006,74.92472649961711L55.187,56.45834712088107L55.533,75.84728824868797L55.533,75.84728824868797L55.879000000000005,71.46623287573458L55.9655,73.07375214248896L56.311499999999995,45.35575710833072L56.311499999999995,45.35575710833072L56.61425,39.31237094327807L56.78725,39.68373937830327L56.917,24.934292000532167L57.003499999999995,14.065770265460031L57.089999999999996,27.743060453236097L57.1765,28.228393445909006L57.263000000000005,22.973609797656536L57.5225,21.111747755110258L57.6955,51.18349248245359L57.825250000000004,44.18093854188919L57.99825,47.92475905567406L58.17125,65.12987978607417L58.257749999999994,52.59130242913962L58.301,41.760344904661196L58.344249999999995,29.834793417900784L58.43075,49.37003145888448L58.5605,53.868570384383204L58.77675,42.580550539493544L58.993,72.86555483713745L59.0795,62.46773894727231L59.122749999999996,53.584549338370564L59.166,62.980375948548314L59.295750000000005,60.525677739083775L59.339,51.94068690985442L59.38225,70.65926374942065L59.38225,70.65926374942065L59.81475,67.73105297833682L59.987750000000005,56.068510322272786L60.1175,52.30658606365323L60.290499999999994,42.670840317010885L60.290499999999994,42.670840317010885L60.50675,56.78728410899639L60.6365,62.838819079101086L61.11225,53.40497884452343L61.19875,50.975973537564286L61.415,56.070850665867326L61.5015,64.33082203865051L61.674499999999995,61.735703213512906L61.97725,63.7085619866848L62.0205,70.48006635382772L62.15025,77.30366032496094L62.1935,73.72144223228098L62.928749999999994,62.01549298614263L63.0585,73.55179276019335L63.44775,87.5873251080513L63.491,71.14821749106049L63.664,54.57939039468765L63.707249999999995,63.80432952493429L63.7505,65.27930563688278L64.13974999999999,73.21037393957376L64.4425,86.54761050716043L64.48575,82.7559401422739L64.875,42.40856920331717L64.9615,63.651198130100965L65.1345,41.36345315724611L65.52374999999999,33.077509058266884L65.6535,29.305901204049604L66.1725,32.46639107689262L66.432,61.71779449731112L66.5185,77.80019474476576L66.5185,77.80019474476576L66.56175,53.69112824648619L66.605,56.85516255274415L66.69149999999999,78.38954583480954L66.77799999999999,69.36294234469533L66.95100000000001,75.3500669889152L67.25375,41.65078121051192L67.989,57.47470916286112L68.0755,63.144573098421105L68.24849999999999,73.261895416677L68.42150000000001,76.7814075641334L68.681,74.5462352797389L68.89725,56.694857496023175L68.9405,63.11608195900918L68.98375,75.80573019087315L69.027,80.18146043419837L69.1135,47.26635935008525L69.15675,50.51606210321188L69.32975,31.034728280454857L69.41624999999999,40.41454558372496L69.84875,14.59599376171829L69.9785,15.928005406260496L69.9785,15.928005406260496L70.02175,14.126517444849014L70.10825,23.598244111239893L70.19475,32.453061293810606L70.19475,32.453061293810606L70.36775,27.037802998721617L70.411,32.713950248062616L70.54075,30.40336971879006L70.92999999999999,53.779772999882695L71.14625000000001,47.593218859285116L71.276,58.50686004459858L71.40575,66.75173789709807L71.49225,73.96744965389371L71.75174999999999,41.343916375935095L71.795,62.12801602780819L72.314,61.190657541155815L72.53025,52.350238559395066L72.87625,77.36519609838724L73.2655,64.31038642972707L73.30874999999999,50.850731237232694L73.352,75.0420659005642L73.56824999999999,63.83990105167031L73.65475,55.707919339090594L74.3035,37.24622064754365L74.4765,44.039076410233974L74.60625,46.3992111712694L74.60625,46.3992111712694L74.6495,49.924175640940675L74.69274999999999,44.66272710114717L74.82249999999999,43.37091679349541L75.34150000000001,77.56946739256382L75.38475,72.20897822529078L75.601,74.3718627229333L75.64425000000001,69.56940135136246L75.73075,63.70056581273674L76.0335,69.14034683853389L76.16325,69.21852788180114L76.3795,72.2168302476406L76.68225,77.9397250123322L76.76875,71.36158729493617L76.812,72.33042170703412L77.11475,75.78292032033205L77.37425,80.2097311064601L77.63374999999999,55.49694075584411L77.85000000000001,56.16881439611315L77.97975000000001,48.51718820631504L78.32575,70.93918919414283L78.4555,68.92318669557572L78.49875,52.036547722667464L78.67175,70.80263523310423L78.8015,69.65101659446954L78.93125,56.49586045444012L79.01774999999999,80.47357940822839L79.53675000000001,93.4642204169184L79.6665,79.25961944311858L79.79625,97.31982625536621L80.05575,84.1989315584302L80.22875,69.48759955912828L80.5315,66.94861506223678L80.79100000000001,64.83564941510558L80.8775,85.10059132575988L81.18025,66.25662803426384L81.18025,66.25662803426384L81.2235,66.47298262417316L81.91550000000001,48.52448058128357L81.95875,28.33033406436445L81.95875,28.33033406436445L82.13175,27.05437195301056L82.348,44.64405522942545L82.694,44.663117158412916L82.78049999999999,56.70396448522807L83.42925000000001,68.27314778268338L83.73200000000001,79.93847171664238L83.905,78.59821799248458L84.12125,51.88267861083149L84.251,37.4947804003954L84.33749999999999,41.43667368963361L84.68350000000001,24.54389555454256L84.72675,22.880453947186453L84.77,22.85491367578507L85.0295,39.04703872799874L85.41874999999999,46.48158109039068L85.76475,74.2401420801878L85.93775000000001,91.19105994664132L86.45675,77.64044085592032L86.62975,78.32080248147248L86.67299999999999,83.81982133463025L86.71625,74.03041846379638L86.80275,96.92724633663893L86.846,76.48956841379403L87.06225,101.76991752460599L87.14874999999999,88.82038092017173L87.32175000000001,92.51564778387547L87.365,96.99464144855737L87.884,78.31410367190837L87.9705,101.41980721056461L88.01375,78.22401740252973L88.35974999999999,68.89813823550939L88.61925,66.01054429709912L89.13825,66.71239299029112L89.441,70.54972549378873L89.61399999999999,77.13811493366957L89.74374999999999,86.07010409832002L89.83025,69.79521906971932L89.91675,87.73404599651694L89.96000000000001,71.46274779886006L90.306,75.00856337323785L90.69525,80.22254363968968L90.7385,82.87136317491532L90.86824999999999,85.86222053468227L90.95475,86.34819796979427L91.47375,47.6613432087004L91.51700000000001,66.02807991504669L91.69,71.39901583343745L91.73325,65.30571081787348L91.7765,55.32512053027749L91.81975000000001,63.59221468791365L91.81975000000001,63.59221468791365L92.382,50.279763715714225L92.55499999999999,26.01218133643269L93.07400000000001,62.576751473546025L93.247,34.1822614684701L93.54975,32.78406728133561L93.593,27.50482025891543L93.67949999999999,15.364966222643858L93.939,38.108781413733965L94.58775,81.71120567396282L94.631,81.00660114139318L94.67425,79.31358301788568L94.84725,67.16775093004107L95.19324999999999,41.71287663131952L95.323,22.229092231392855L95.79875,25.95207011997698L95.842,10.459843474626524L95.97175,-1.1500244915485212L96.188,-17.116967788338656L96.23125,31.59404496103525L96.40425,28.076949472725374L96.534,45.90020073577762L96.66375000000001,43.523692049086094L96.79350000000001,35.59299684464932L96.88,19.52040738537906L97.226,59.95368419736623L97.4855,41.735516911745066L97.57199999999999,40.71376190409066L97.70174999999999,51.105591262876985L98.04775000000001,61.26916928514838L98.09100000000001,52.07375579401851L98.22075000000001,57.74138961955906L98.30725,85.89969995021819L98.65325000000001,53.029184107482436L99.0425,36.43426557183264L99.47500000000001,40.06079756170513L99.86425,12.338223594427092L99.90750000000001,26.15852912664414L99.95075,7.813830655813234L99.994,10.096411857008917L100.0805,9.008423429727571L100.4265,-41.09607738107442L100.686,-14.247638705372793L100.98875000000001,26.05968352779746L101.6375,49.60086904466152L101.68075,64.89504835307598L102.19975,50.45543363690376L102.28625,38.824163398146624L102.3295,48.85563919991253L102.45925,54.83826970607042L102.5025,36.72643542289734L102.54575000000001,54.583019623160354L102.762,47.83034823834896L102.89175,61.423767634481194L103.1945,74.51457280516625L103.3675,71.18548491895199L103.627,40.065283220261335L103.67025000000001,56.050771196186545L103.75675,46.29331062361598L104.01625,41.27714874744416L104.10274999999999,47.47436162680387L104.18925,59.16846500337124L104.2325,48.98193295896053L104.44875,72.72463393062354L104.53524999999999,71.9353445738554L105.184,55.7740510046482L105.2705,60.47254515588283L105.4435,44.749523322284205L106.00575,45.7971832200885L106.395,46.02852957621215L106.568,57.530970683693894L106.69775,48.57557808309795L106.78425,56.3429834447801L107.04374999999999,44.75695984885098L107.17349999999999,63.97803220078349L107.30325,74.32712485045194L107.779,79.32227451130747L107.99525000000001,78.53402813374997L108.125,74.89204648435116L108.29799999999999,86.06723802536726L108.34125,86.21857176497578L108.60074999999999,62.82294544428588L108.81700000000001,45.32058411836624L108.9035,48.09635033458471L109.11975,51.59529120102525L110.11449999999999,27.06613302752376L110.24425,11.307624462246878L110.24425,11.307624462246878L110.4605,31.76146432310341L112.06075,-5.754548759758478L112.277,1.8800081849098262L112.32025,-17.26425680369138L112.3635,13.454262226819992L112.40675,0.4746827334165573L112.45,-5.921103212237341L112.49324999999999,8.292312207818014L113.01225000000001,-6.728979645669455L113.14200000000001,40.332184144109505L113.18525,44.1594005972147L113.35825,53.46036697626114L113.61775,16.46635226905346L113.79075,55.274896417558196L113.87724999999999,67.52374602109194L113.87724999999999,67.52374602109194L114.22325000000001,75.09527479931712L114.56925,63.93730513453484L114.699,63.977141852676866L114.7855,55.778528183698654L114.9585,50.15337668210269L115.00175,39.43916499316694L115.218,45.204703192412836L115.3045,25.68449083566665L115.43424999999999,51.42109671384095L115.52075,35.66458931192756L116.08300000000001,33.580377668887394L116.29925,25.116296112537384L116.602,61.88761355951429L116.775,75.17684764489532L116.90475,60.8232235968113L116.99125,69.18508471101522L116.99125,69.18508471101522L117.42375,70.6673362389207L117.46700000000001,71.65982847213745L117.59675,72.6562212780118L118.24549999999999,41.57067531943321L118.37525,38.682564131170494L118.46175,31.621213297545893L118.72125000000001,62.68610318005085L118.7645,53.78676011264325L119.1105,69.19222445487976L119.15375,51.168458318710336L119.543,55.99341581910848L119.58624999999999,53.244563554227355L119.6295,46.20204570293427L119.84575000000001,53.338363847136506L120.062,73.89398321583867L120.62425,69.87973430380225L120.6675,73.27552198246121L120.927,79.71335779726506L120.97025,98.86400785371661L121.0135,71.38093752712011L121.05675000000001,89.73596403598786L121.31625,73.79880076348782L121.7055,61.541776916384705L122.13799999999999,64.04710625484586L122.311,52.33488217443228L122.48400000000001,66.28818027526141L122.5705,46.69364505037666L122.70025,37.14657797515392L122.7435,58.68876240253449L122.7435,58.68876240253449L122.95975,30.20080280527472L123.52199999999999,78.1574363231659L123.65174999999999,81.49920955002308L123.99775,85.06933586746455L124.214,68.65888050049544L124.3005,58.60905504822732L124.34375,60.340451414883134L124.51675,29.279394268989563L124.56,60.70131374225021L124.60324999999999,54.63393057584763L124.6465,67.07573981285095L124.68975,39.42027265429496L124.90599999999999,61.20602240562438L124.9925,56.99222528412939L125.12225000000001,47.7639706671238L125.1655,59.07634365260601L125.29525,50.31167209595442L125.42500000000001,57.82872004956006L125.46825,58.0156677134335L125.5115,62.65901963859797L126.28999999999999,65.81134374737739L126.5495,57.2157704949379L126.93875,78.70929951816798L126.982,53.15045799911023L127.41449999999999,77.58645184263587L127.45775,69.35033331960439L127.45775,69.35033331960439L127.89025000000001,62.044967748224735L128.40925,72.68277909010648L128.45250000000001,64.76850020885468L128.75525000000002,73.46336847394706L128.92825,56.32334490939975L129.10125,46.91345927864313L129.18775,64.97057531103492L129.231,54.06729608178138L129.231,54.06729608178138L129.53375,32.525416916608805L129.70675,81.90607319623233L130.1825,64.66737362295389L130.31225,58.472289099544284L130.39875,80.24754970222712L130.5285,77.24106461331247L130.83125,89.66315475963056L130.87449999999998,81.37372982352973L130.87449999999998,81.37372982352973L131.04749999999999,83.32642433196305L131.43675,95.02232536375523L131.9125,90.22058898992837L132.04225,90.47736962363125L132.47475,73.27935471907257L132.518,67.5248822748661L132.64775,53.96650019660592L133.21,67.23691825866699L133.2965,76.97066165357829L133.59925,60.31960878968239L133.68574999999998,71.02956376671791L134.07500000000002,80.93900252133608L134.248,69.85352415144443L134.72375,75.94535373300313L134.81025,63.13256611824035L134.81025,63.13256611824035L134.89675,63.181501346081504L134.94,62.482272820174686L135.0265,53.98582499027252L135.50225,35.33288800492883L135.978,30.33421086966993L136.28075,61.111518313735715L136.62675,74.86779509782791L136.84300000000002,76.83654979020356L137.189,46.76628897637127L137.49175,26.80546454042198L137.535,38.69828513488173L137.57825,34.39831927567721L137.9675,21.9859000056982L138.4865,39.42000131011011L138.52975,30.161907312273996L138.83249999999998,49.61539443805813L139.22175000000001,77.11191326081753L139.265,68.50345115959645L139.30825,72.99472314864397L139.39475,63.31358660757542L140.00025,86.26303829327226L140.2165,88.81380082368851L140.34625,96.07473378479482L140.43275,88.96756818145514L140.5625,97.28994447700678L140.69225,79.18693311959505L140.822,78.04872905910015L140.86525,73.16311765387654L140.9085,90.72787118330598L141.2545,43.810909868776804L141.4275,60.08850833922624L141.60049999999998,54.16124900579452L141.98975000000002,59.661412592232224L142.07625000000002,72.01082913428546L142.1195,63.39971294775604L142.379,45.15302908420563L142.42225,75.98691179081798L142.552,53.23527849540115L142.8115,29.21437341868878L142.94125,45.41697914004325L143.1575,46.889224851131445L143.37375,42.59398207664489L143.97925,67.26110180914402L144.0225,64.8403216227889L144.10899999999998,71.40272137746216L144.41174999999998,62.79871101677418L145.32,81.9982115060091L145.36325,81.35878893435002L145.7525,85.60539326369762L146.01199999999997,48.32310927808285L146.14175,60.74227823466062L146.531,55.608013802021745L146.57424999999998,45.90528843924403L146.704,54.32807480245829L146.7905,41.49078989550472L146.92024999999998,44.217654801905155L147.17974999999998,8.993601253628725L147.22299999999998,16.632109647989267L147.56900000000002,9.727638150751574L147.65550000000002,6.874369251728041L147.78525,11.72549450695513L148.39075,35.76346882879736L148.434,35.45686685889959L148.56375,79.22083418369293L148.953,43.66888662651181L148.99625,45.580226585268974L149.16925,46.156324207782745L149.34225,42.56258246675134L149.5585,44.450078055262566L149.60175,48.044438800215715L149.818,49.007023816555744L149.9045,62.592480956763026L149.9045,62.592480956763026L150.337,57.4134447336197L150.42350000000002,57.7359033793211L150.46675,61.35011464729905L150.55325,59.22337828278542L150.7695,55.85447911694645L151.15875,48.95999647751452L151.59124999999997,56.2731038376689L151.67775,77.63106252253056L151.89399999999998,49.51301288530229L152.02375,39.37307572513819L152.02375,39.37307572513819L152.067,34.242313328385336L152.11025,37.733843106776476L152.19674999999998,31.343831704556948L152.6725,55.92942946851254L153.0185,26.704176843911426L153.06175,42.72331997826697L153.14825,49.45326628759503L153.23475000000002,43.890498510003084L153.40775,34.42262153923511L153.58075,49.18630600720644L153.624,37.76199506595731L153.84025,58.833668676763764L153.97,65.87286256179213L154.01325,61.93686252906919L154.143,48.647704759240156L154.18625,74.0156895622611L154.2295,62.348856276273736L154.489,66.84911654144526L154.53225,70.39299878850579L154.5755,73.33098642975092L155.0945,53.95404380261898L155.26749999999998,58.90045326426626L155.354,40.88973708748816L155.70000000000002,59.42602999135852L155.91625,36.64418421685696L155.91625,36.64418421685696L155.95950000000002,52.09473409131169L156.08925,41.02751209735871L156.219,31.753069612383825L156.392,41.359773051738756L156.4785,50.93273653760552L156.6515,44.260043851286156L156.78125,49.23020440861583L157.04075,57.6741471387446L157.603,41.77574368715287L158.03549999999998,57.548794604837894L158.12199999999999,66.5891857713461L158.20850000000002,63.26293004006148L158.20850000000002,63.26293004006148L158.3815,53.36202166825534L158.7275,77.23501872569322L158.987,62.40050494596362L159.20325,63.1356187403202L159.37625000000003,72.94618645757437L159.506,88.09060073494912L160.025,65.31000144779682L162.05775,95.05330099835992L162.40375,101.75994138605893L162.57675,110.73134753331543L163.139,115.02179938703776L163.61475,117.75705900415778L163.78775000000002,115.70377211868762L164.13375,117.4902386356145L164.177,112.27369331866502L164.35000000000002,98.74730441570283L164.73925,129.2081567041576L164.7825,103.64270541034638L165.215,107.93257641792297L165.25824999999998,113.27067121043801L165.3015,115.41007171683015L165.6475,97.6905290491879L166.5125,115.86794383004309L167.5505,119.89193145446478L167.81,116.38281942084433L167.85325,129.34161988534032L167.983,115.45748487338423L168.4155,116.18214767687022L168.80475,121.90447431467473L168.93449999999999,124.3347049102187L169.36700000000002,112.00267983451486L169.58325,121.59952160865069L171.14024999999998,106.41618639975786L171.5295,103.83934514932334L171.616,105.45922329574823L171.789,94.91070962920786L172.0485,115.45238445065917L172.17825000000002,103.5991419494152L172.48100000000002,107.25312209948898L172.827,89.69219282716513L172.95675,100.74846777915955L173.30275,116.43334031626583L173.47575,112.29378550760448L173.64874999999998,114.61590240448714L174.64350000000002,124.5407696198672L174.8165,112.32608818486334L175.11925,132.3775860959664L175.29225,126.42015880085529L175.768,130.56548179332168L176.287,136.30203068219126L176.97899999999998,139.36032555140554L178.06025000000002,136.05898896772413L178.709,137.68219320029021L179.3145,139.88594891577958L179.48749999999998,125.53910423256457L179.6605,132.34810497425497L180.00650000000002,141.06712287180125L180.26600000000002,145.78692814093083L180.30925,133.70338014289737L181.0445,143.15454824753107L181.43374999999997,126.5041186273098L181.69325,129.0535837933421L182.03924999999998,135.90846502091736L182.169,137.92855464126916L183.1205,141.71544680465013L183.85575,138.72282994743438L184.02875,127.849841632694L184.37475,137.854710865207L184.50449999999998,142.80431074090302L184.764,139.01528598181903L185.54250000000002,134.84847804158926L185.629,143.43202947471292L186.4075,138.89948985092343L186.5805,137.29081949125975L186.71025,137.5805408850312L187.48875,143.61354601513594L187.66174999999998,146.4188633089885L187.9645,144.00124173853547L188.52675,146.71546158194542L188.78625,145.0656825782731L189.39175,141.2903882589191L189.91075,144.62084770519286L190.2135,145.41474567335098L190.5595,149.4457606881857L190.9055,142.99525543181227L190.94875,150.66118654785677L191.16500000000002,145.8530280083418L191.338,144.04420209461824L191.90025,145.48586540818215L192.07325,148.52294243406504L192.67875,136.84474873021244L193.19774999999998,141.65912380740048L193.24099999999999,137.45366627983748L193.54375,144.87431497201322L194.14925,144.84141448959707L194.40875,146.44069167673587L194.7115,144.6414931818843L194.798,146.5777310894802L195.18725,148.31018845429645L195.27375,148.9822073061019L195.317,148.94959194706752L196.13875000000002,144.36792418668045L196.2685,141.25199305675923L196.65775,150.46143483025952L197.22,150.080709260609L197.8255,144.22961072819308L198.258,144.2454409055412L198.95000000000002,144.379767936375L199.42575,143.78371697682888L200.20425,148.9324315472506L200.63675,149.2678362783976L200.67999999999998,144.89980860613286L200.89625,143.8205646691844L200.9395,145.19818545542657L201.24224999999998,147.72896815035492L201.41525000000001,145.37152351252735L201.45850000000002,140.8799208227545L201.50175,145.36870831660926L202.45325,144.93457034006715L202.4965,147.77341453982518L202.6695,146.3049517482519L202.756,148.41671754531563L203.14525,136.9744724493474L203.31825,141.63007938023657L203.448,142.3252737812698L204.5725,143.86955925356597L204.61575,143.98127038255333L205.005,141.24885139986873L205.13475,144.3005417940207L205.30775,141.67858215328306L205.4375,140.22325093634427L205.87,147.4535347238183L205.91325,149.87863521836698L205.9565,150.27764684222637L205.99974999999998,148.79640013575553L206.216,145.46806056592612L206.4755,150.65827913731337L206.6485,152.31774862618187L206.735,151.24970081667416L207.427,151.92384749446063L207.6865,150.4864292334765L207.72975,151.88810531767086L208.07575,152.09017829997464L208.8975,150.08579484419897L209.20025,146.09769036835058L209.63275,149.09616762399673L210.75725,147.3167019990273L211.752,142.26840915558859L212.05475,148.4901373460889L212.31425000000002,150.28119763527064L212.444,148.6969249336049L213.78474999999997,148.143845989462L213.828,149.12630696734414L214.52,151.6927714225836L214.56325,147.23424834478647L214.99575,147.21176811503247L215.12550000000002,150.27592020286247L215.212,149.51060770861804L215.68775000000002,152.6232371309772L215.94725,152.0200443076901L216.077,150.94972611051054L216.25,153.20948790172116L217.0285,151.45184216499328L217.07175,152.25395571431145L217.24475,148.897749308683L217.3745,149.99281388353558L217.46099999999998,146.09806028679014L218.0665,147.0350499149412L218.2395,144.71625062469394L218.71525,153.35736359287984L218.845,148.8282533992082L219.70999999999998,138.55022112783044L220.056,134.38912625461816L220.4885,146.59499006355182L220.53175,148.61500018853695L221.00750000000002,151.1150033374317L222.00225,152.54783365582117L222.2185,152.23114160401747L222.95375,149.91466675829142L223.9485,147.22510107792914L224.035,145.13598828054964L224.85675,149.28926292955876L224.9,149.33667396623642L225.073,147.98217043261974L225.24599999999998,152.66525997170248L226.02450000000002,149.15613044910134L226.28400000000002,150.4665299532935L226.32725,152.11774411331862L228.14375,154.0075895848684L228.48975000000002,153.24258447270842L228.83575,152.6848349107895L228.879,153.30239678658546L229.61425,152.47776431976817L229.96024999999997,149.1386796262115L230.1765,152.0310104285367L230.3495,147.83372396472842L230.82524999999998,151.2678093312308L231.34425,154.02044345568865L231.474,153.74629096449354L231.56050000000002,153.94654933256098L231.7335,153.9690841491334L232.0795,149.0911074789241L234.67450000000002,154.3715607110411L234.93400000000003,154.64957879693247L234.97725,155.43300033570267L235.06375,153.16072968356312L235.7125,155.13716786811128L236.01525,151.30949776144698L237.01,152.812180658523L237.18300000000002,156.0858931322582L237.65875,154.4573600602802L237.7885,151.4082596251741L238.52375,154.10255792969838L238.78325,151.25633232016116L239.34550000000002,151.96995374718682L240.2105,156.08517926386557L240.59975,155.00026571736672L241.20525,154.66810757699423L241.29175,155.58110868330112L241.37825,154.46205293675885L241.76749999999998,153.03613977520726L242.15675000000002,154.9507443436887L242.50275,153.87157407244666L243.36775,154.4588725921232L243.45425,155.76266815122216L243.584,154.39376747673379L243.6705,154.07478012870996L243.92999999999998,156.15164851974697L244.449,153.97014408735558L244.49224999999998,155.53983627883719L244.795,155.6031765970867L244.92475000000002,156.2035526345484L245.141,155.08178927581758L245.44375,153.7541201981716L245.53025000000002,154.74526418996976L247.73600000000002,153.9607207065914L248.21175,154.22850296907126L248.34150000000002,152.7323810895905L248.55775,155.53431718051434L249.24974999999998,153.05562620945275L249.42275,156.42149130213073L249.466,154.72799037676305L249.55249999999998,155.39435551809146L249.68225,154.30569244013168L249.985,156.78401587761473L250.158,154.06231896500103L250.331,153.5358598393388L250.72025,154.6288829731755L250.7635,155.27833997998385L250.97975,154.48797637582757L251.15275,154.73469130620362L251.196,155.5008819592651L251.84475,156.87925106189215L253.1855,153.0593147944659L253.7045,150.93894229903816L254.00725,152.789476251835L254.22349999999997,153.9148773185443L254.82899999999998,156.1904147002846L255.21825,154.94855080153792L255.86700000000002,154.88690585447475L256.34275,154.93239522315562L256.6455,154.49666415946558L256.68875,155.7331658307463L256.8185,155.34600113639607L257.078,152.24690076550468L258.7215,154.19645361704752L258.85125,155.79561474095098L258.93775,155.7259179731831L259.0675,153.6226438711863L259.11075,155.20178011222742L259.28375,155.2564580853563L259.4135,156.19598679551854L260.66775,154.5547355248127L261.27325,154.3101966476068L262.441,154.54951585903763L262.7005,156.8056810148759L262.8735,155.21543158655987L263.652,155.66668677043634L263.86825,156.02860797608736L264.2575,156.98591158525088L264.517,157.2870890563121L264.64675,155.03368026982062L264.7765,156.72407398629002L265.68475,156.47655350286513L266.1605,151.54009686112403L266.54975,150.77809031419457" style="fill: none;" fill="none"></path></g></g></g></g></g></g><g transform="translate(48, 177)" clip-path="url(#clip_1)"><clipPath id="clip_1"><rect width="281" height="22"></rect></clipPath><g><g><line x1="0" y1="0" x2="0" y2="5" style="visibility: inherit;" fill="rgb(0, 0, 0)" stroke="rgb(204, 204, 204)" stroke-width="1px"></line><line x1="21.625" y1="0" x2="21.625" y2="5" style="visibility: inherit;" fill="rgb(0, 0, 0)" stroke="rgb(204, 204, 204)" stroke-width="1px"></line><line x1="43.25" y1="0" x2="43.25" y2="5" style="visibility: inherit;" fill="rgb(0, 0, 0)" stroke="rgb(204, 204, 204)" stroke-width="1px"></line><line x1="64.875" y1="0" x2="64.875" y2="5" style="visibility: inherit;" fill="rgb(0, 0, 0)" stroke="rgb(204, 204, 204)" stroke-width="1px"></line><line x1="86.5" y1="0" x2="86.5" y2="5" style="visibility: inherit;" fill="rgb(0, 0, 0)" stroke="rgb(204, 204, 204)" stroke-width="1px"></line><line x1="108.125" y1="0" x2="108.125" y2="5" style="visibility: inherit;" fill="rgb(0, 0, 0)" stroke="rgb(204, 204, 204)" stroke-width="1px"></line><line x1="129.75" y1="0" x2="129.75" y2="5" style="visibility: inherit;" fill="rgb(0, 0, 0)" stroke="rgb(204, 204, 204)" stroke-width="1px"></line><line x1="151.375" y1="0" x2="151.375" y2="5" style="visibility: inherit;" fill="rgb(0, 0, 0)" stroke="rgb(204, 204, 204)" stroke-width="1px"></line><line x1="173" y1="0" x2="173" y2="5" style="visibility: inherit;" fill="rgb(0, 0, 0)" stroke="rgb(204, 204, 204)" stroke-width="1px"></line><line x1="194.625" y1="0" x2="194.625" y2="5" style="visibility: inherit;" fill="rgb(0, 0, 0)" stroke="rgb(204, 204, 204)" stroke-width="1px"></line><line x1="216.25" y1="0" x2="216.25" y2="5" style="visibility: inherit;" fill="rgb(0, 0, 0)" stroke="rgb(204, 204, 204)" stroke-width="1px"></line><line x1="237.875" y1="0" x2="237.875" y2="5" style="visibility: inherit;" fill="rgb(0, 0, 0)" stroke="rgb(204, 204, 204)" stroke-width="1px"></line><line x1="259.5" y1="0" x2="259.5" y2="5" style="visibility: inherit;" fill="rgb(0, 0, 0)" stroke="rgb(204, 204, 204)" stroke-width="1px"></line><line x1="281.125" y1="0" x2="281.125" y2="5" style="visibility: inherit;" fill="rgb(0, 0, 0)" stroke="rgb(204, 204, 204)" stroke-width="1px"></line></g><g transform="translate(0, 8)"><text x="0" y="0" dx="0em" dy="0.95em" style="text-anchor: middle; visibility: hidden; font-family: &quot;Helvetica Neue&quot;, sans-serif; font-size: 12px; font-weight: 200;" fill="rgb(50, 49, 63)" stroke="none" stroke-width="1px">-500</text><text x="21.625" y="0" dx="0em" dy="0.95em" style="text-anchor: middle; visibility: inherit; font-family: &quot;Helvetica Neue&quot;, sans-serif; font-size: 12px; font-weight: 200;" fill="rgb(50, 49, 63)" stroke="none" stroke-width="1px">0</text><text x="43.25" y="0" dx="0em" dy="0.95em" style="text-anchor: middle; visibility: hidden; font-family: &quot;Helvetica Neue&quot;, sans-serif; font-size: 12px; font-weight: 200;" fill="rgb(50, 49, 63)" stroke="none" stroke-width="1px">500</text><text x="64.875" y="0" dx="0em" dy="0.95em" style="text-anchor: middle; visibility: inherit; font-family: &quot;Helvetica Neue&quot;, sans-serif; font-size: 12px; font-weight: 200;" fill="rgb(50, 49, 63)" stroke="none" stroke-width="1px">1k</text><text x="86.5" y="0" dx="0em" dy="0.95em" style="text-anchor: middle; visibility: hidden; font-family: &quot;Helvetica Neue&quot;, sans-serif; font-size: 12px; font-weight: 200;" fill="rgb(50, 49, 63)" stroke="none" stroke-width="1px">1.5k</text><text x="108.125" y="0" dx="0em" dy="0.95em" style="text-anchor: middle; visibility: inherit; font-family: &quot;Helvetica Neue&quot;, sans-serif; font-size: 12px; font-weight: 200;" fill="rgb(50, 49, 63)" stroke="none" stroke-width="1px">2k</text><text x="129.75" y="0" dx="0em" dy="0.95em" style="text-anchor: middle; visibility: hidden; font-family: &quot;Helvetica Neue&quot;, sans-serif; font-size: 12px; font-weight: 200;" fill="rgb(50, 49, 63)" stroke="none" stroke-width="1px">2.5k</text><text x="151.375" y="0" dx="0em" dy="0.95em" style="text-anchor: middle; visibility: inherit; font-family: &quot;Helvetica Neue&quot;, sans-serif; font-size: 12px; font-weight: 200;" fill="rgb(50, 49, 63)" stroke="none" stroke-width="1px">3k</text><text x="173" y="0" dx="0em" dy="0.95em" style="text-anchor: middle; visibility: hidden; font-family: &quot;Helvetica Neue&quot;, sans-serif; font-size: 12px; font-weight: 200;" fill="rgb(50, 49, 63)" stroke="none" stroke-width="1px">3.5k</text><text x="194.625" y="0" dx="0em" dy="0.95em" style="text-anchor: middle; visibility: inherit; font-family: &quot;Helvetica Neue&quot;, sans-serif; font-size: 12px; font-weight: 200;" fill="rgb(50, 49, 63)" stroke="none" stroke-width="1px">4k</text><text x="216.25" y="0" dx="0em" dy="0.95em" style="text-anchor: middle; visibility: hidden; font-family: &quot;Helvetica Neue&quot;, sans-serif; font-size: 12px; font-weight: 200;" fill="rgb(50, 49, 63)" stroke="none" stroke-width="1px">4.5k</text><text x="237.875" y="0" dx="0em" dy="0.95em" style="text-anchor: middle; visibility: inherit; font-family: &quot;Helvetica Neue&quot;, sans-serif; font-size: 12px; font-weight: 200;" fill="rgb(50, 49, 63)" stroke="none" stroke-width="1px">5k</text><text x="259.5" y="0" dx="0em" dy="0.95em" style="text-anchor: middle; visibility: hidden; font-family: &quot;Helvetica Neue&quot;, sans-serif; font-size: 12px; font-weight: 200;" fill="rgb(50, 49, 63)" stroke="none" stroke-width="1px">5.5k</text><text x="281.125" y="0" dx="0em" dy="0.95em" style="text-anchor: middle; visibility: hidden; font-family: &quot;Helvetica Neue&quot;, sans-serif; font-size: 12px; font-weight: 200;" fill="rgb(50, 49, 63)" stroke="none" stroke-width="1px">6k</text></g><line x1="0" y1="0" x2="281.125" y2="0" fill="rgb(0, 0, 0)" stroke="rgb(204, 204, 204)" stroke-width="1px"></line></g></g></g></g></svg>