<svg viewBox="0 0 330 200" xmlns="http://www.w3.org/2000/svg"><g><g><g><g><g><line x1="29.4375" y1="177.828125" x2="24.4375" y2="177.828125" style="visibility: inherit;" fill="rgb(0, 0, 0)" stroke="rgb(204, 204, 204)" stroke-width="1px"></line><line x1="29.4375" y1="158.06944444444446" x2="24.4375" y2="158.06944444444446" style="visibility: inherit;" fill="rgb(0, 0, 0)" stroke="rgb(204, 204, 204)" stroke-width="1px"></line><line x1="29.4375" y1="138.31076388888889" x2="24.4375" y2="138.31076388888889" style="visibility: inherit;" fill="rgb(0, 0, 0)" stroke="rgb(204, 204, 204)" stroke-width="1px"></line><line x1="29.4375" y1="118.55208333333334" x2="24.4375" y2="118.55208333333334" style="visibility: inherit;" fill="rgb(0, 0, 0)" stroke="rgb(204, 204, 204)" stroke-width="1px"></line><line x1="29.4375" y1="98.79340277777779" x2="24.4375" y2="98.79340277777779" style="visibility: inherit;" fill="rgb(0, 0, 0)" stroke="rgb(204, 204, 204)" stroke-width="1px"></line><line x1="29.4375" y1="79.03472222222221" x2="24.4375" y2="79.03472222222221" style="visibility: inherit;" fill="rgb(0, 0, 0)" stroke="rgb(204, 204, 204)" stroke-width="1px"></line><line x1="29.4375" y1="59.27604166666667" x2="24.4375" y2="59.27604166666667" style="visibility: inherit;" fill="rgb(0, 0, 0)" stroke="rgb(204, 204, 204)" stroke-width="1px"></line><line x1="29.4375" y1="39.517361111111114" x2="24.4375" y2="39.517361111111114" style="visibility: inherit;" fill="rgb(0, 0, 0)" stroke="rgb(204, 204, 204)" stroke-width="1px"></line><line x1="29.4375" y1="19.75868055555557" x2="24.4375" y2="19.75868055555557" style="visibility: inherit;" fill="rgb(0, 0, 0)" stroke="rgb(204, 204, 204)" stroke-width="1px"></line><line x1="29.4375" y1="0" x2="24.4375" y2="0" style="visibility: inherit;" fill="rgb(0, 0, 0)" stroke="rgb(204, 204, 204)" stroke-width="1px"></line></g><g transform="translate(19.4375, 0)"><text x="0" y="177.828125" dx="0em" dy="0.3em" style="text-anchor: end; visibility: hidden; font-family: &quot;Helvetica Neue&quot;, sans-serif; font-size: 12px; font-weight: 200;" fill="rgb(50, 49, 63)" stroke="none" stroke-width="1px">-2</text><text x="0" y="158.06944444444446" dx="0em" dy="0.3em" style="text-anchor: end; visibility: inherit; font-family: &quot;Helvetica Neue&quot;, sans-serif; font-size: 12px; font-weight: 200;" fill="rgb(50, 49, 63)" stroke="none" stroke-width="1px">0</text><text x="0" y="138.31076388888889" dx="0em" dy="0.3em" style="text-anchor: end; visibility: hidden; font-family: &quot;Helvetica Neue&quot;, sans-serif; font-size: 12px; font-weight: 200;" fill="rgb(50, 49, 63)" stroke="none" stroke-width="1px">2</text><text x="0" y="118.55208333333334" dx="0em" dy="0.3em" style="text-anchor: end; visibility: inherit; font-family: &quot;Helvetica Neue&quot;, sans-serif; font-size: 12px; font-weight: 200;" fill="rgb(50, 49, 63)" stroke="none" stroke-width="1px">4</text><text x="0" y="98.79340277777779" dx="0em" dy="0.3em" style="text-anchor: end; visibility: hidden; font-family: &quot;Helvetica Neue&quot;, sans-serif; font-size: 12px; font-weight: 200;" fill="rgb(50, 49, 63)" stroke="none" stroke-width="1px">6</text><text x="0" y="79.03472222222221" dx="0em" dy="0.3em" style="text-anchor: end; visibility: inherit; font-family: &quot;Helvetica Neue&quot;, sans-serif; font-size: 12px; font-weight: 200;" fill="rgb(50, 49, 63)" stroke="none" stroke-width="1px">8</text><text x="0" y="59.27604166666667" dx="0em" dy="0.3em" style="text-anchor: end; visibility: hidden; font-family: &quot;Helvetica Neue&quot;, sans-serif; font-size: 12px; font-weight: 200;" fill="rgb(50, 49, 63)" stroke="none" stroke-width="1px">10</text><text x="0" y="39.517361111111114" dx="0em" dy="0.3em" style="text-anchor: end; visibility: inherit; font-family: &quot;Helvetica Neue&quot;, sans-serif; font-size: 12px; font-weight: 200;" fill="rgb(50, 49, 63)" stroke="none" stroke-width="1px">12</text><text x="0" y="19.75868055555557" dx="0em" dy="0.3em" style="text-anchor: end; visibility: hidden; font-family: &quot;Helvetica Neue&quot;, sans-serif; font-size: 12px; font-weight: 200;" fill="rgb(50, 49, 63)" stroke="none" stroke-width="1px">14</text><text x="0" y="0" dx="0em" dy="0.3em" style="text-anchor: end; visibility: hidden; font-family: &quot;Helvetica Neue&quot;, sans-serif; font-size: 12px; font-weight: 200;" fill="rgb(50, 49, 63)" stroke="none" stroke-width="1px">16</text></g><line x1="29.4375" y1="0" x2="29.4375" y2="177.828125" fill="rgb(0, 0, 0)" stroke="rgb(204, 204, 204)" stroke-width="1px"></line></g></g><g transform="translate(29, 0)" clip-path="url(#clip_0)"><clipPath id="clip_0"><rect width="300" height="177"></rect></clipPath><g><g><g><line x1="0" y1="0" x2="0" y2="177.828125" fill="rgb(0, 0, 0)" stroke="rgb(60, 60, 60)" stroke-width="1px" opacity="0.25"></line><line x1="37.5703125" y1="0" x2="37.5703125" y2="177.828125" fill="rgb(0, 0, 0)" stroke="rgb(60, 60, 60)" stroke-width="1px" opacity="0.25"></line><line x1="75.140625" y1="0" x2="75.140625" y2="177.828125" fill="rgb(0, 0, 0)" stroke="rgb(60, 60, 60)" stroke-width="1px" opacity="0.25"></line><line x1="112.7109375" y1="0" x2="112.7109375" y2="177.828125" fill="rgb(0, 0, 0)" stroke="rgb(60, 60, 60)" stroke-width="1px" opacity="0.25"></line><line x1="150.28125" y1="0" x2="150.28125" y2="177.828125" fill="rgb(0, 0, 0)" stroke="rgb(60, 60, 60)" stroke-width="1px" opacity="0.25"></line><line x1="187.8515625" y1="0" x2="187.8515625" y2="177.828125" fill="rgb(0, 0, 0)" stroke="rgb(60, 60, 60)" stroke-width="1px" opacity="0.25"></line><line x1="225.421875" y1="0" x2="225.421875" y2="177.828125" fill="rgb(0, 0, 0)" stroke="rgb(60, 60, 60)" stroke-width="1px" opacity="0.25"></line><line x1="262.9921875" y1="0" x2="262.9921875" y2="177.828125" fill="rgb(0, 0, 0)" stroke="rgb(60, 60, 60)" stroke-width="1px" opacity="0.25"></line><line x1="300.5625" y1="0" x2="300.5625" y2="177.828125" fill="rgb(0, 0, 0)" stroke="rgb(60, 60, 60)" stroke-width="1px" opacity="0.25"></line></g><g><line x1="0" y1="177.828125" x2="300.5625" y2="177.828125" fill="rgb(0, 0, 0)" stroke="rgb(60, 60, 60)" stroke-width="1px" opacity="0.25"></line><line x1="0" y1="158.06944444444446" x2="300.5625" y2="158.06944444444446" fill="rgb(0, 0, 0)" stroke="rgb(60, 60, 60)" stroke-width="1px" opacity="0.25"></line><line x1="0" y1="138.31076388888889" x2="300.5625" y2="138.31076388888889" fill="rgb(0, 0, 0)" stroke="rgb(60, 60, 60)" stroke-width="1px" opacity="0.25"></line><line x1="0" y1="118.55208333333334" x2="300.5625" y2="118.55208333333334" fill="rgb(0, 0, 0)" stroke="rgb(60, 60, 60)" stroke-width="1px" opacity="0.25"></line><line x1="0" y1="98.79340277777779" x2="300.5625" y2="98.79340277777779" fill="rgb(0, 0, 0)" stroke="rgb(60, 60, 60)" stroke-width="1px" opacity="0.25"></line><line x1="0" y1="79.03472222222221" x2="300.5625" y2="79.03472222222221" fill="rgb(0, 0, 0)" stroke="rgb(60, 60, 60)" stroke-width="1px" opacity="0.25"></line><line x1="0" y1="59.27604166666667" x2="300.5625" y2="59.27604166666667" fill="rgb(0, 0, 0)" stroke="rgb(60, 60, 60)" stroke-width="1px" opacity="0.25"></line><line x1="0" y1="39.517361111111114" x2="300.5625" y2="39.517361111111114" fill="rgb(0, 0, 0)" stroke="rgb(60, 60, 60)" stroke-width="1px" opacity="0.25"></line><line x1="0" y1="19.75868055555557" x2="300.5625" y2="19.75868055555557" fill="rgb(0, 0, 0)" stroke="rgb(60, 60, 60)" stroke-width="1px" opacity="0.25"></line><line x1="0" y1="0" x2="300.5625" y2="0" fill="rgb(0, 0, 0)" stroke="rgb(60, 60, 60)" stroke-width="1px" opacity="0.25"></line></g></g></g><g><g><line x1="0" y1="158.06944444444446" x2="300.5625" y2="158.06944444444446" fill="rgb(0, 0, 0)" stroke="rgb(153, 153, 153)" stroke-width="1.5px"></line></g></g><g><g><line x1="37.5703125" y1="0" x2="37.5703125" y2="177.828125" fill="rgb(0, 0, 0)" stroke="rgb(153, 153, 153)" stroke-width="1.5px"></line></g></g><g><g><g><g><g><path stroke="rgb(255, 112, 67)" stroke-width="2px" d="M37.9084453125,138.84633182920516L38.02115625,138.77366864766617L38.32171875,137.47109154884254L38.3592890625,136.4987318577508L38.396859375,135.10198161012912L38.62228125,133.0483318237665L38.8852734375,133.47857721288887L38.9604140625,132.10943634307608L39.336117187499994,130.35608002008766L39.4863984375,129.1279341213737L39.561539062499996,128.05589118210062L39.9372421875,126.5012978865793L40.4632265625,123.62303969492712L40.5383671875,122.90358531741279L40.6886484375,119.86089569596149L40.9892109375,118.8508238288959L41.026781250000006,118.29292942848858L41.853328125000004,117.2620094436154L41.9660390625,116.5594949795622L42.229031250000006,114.53598616770574L42.3417421875,113.74776893066333L42.45445312499999,112.33919548182065L42.5671640625,109.4766824737731L42.679874999999996,107.42758047538038L43.055578125,107.11573122170074L43.356140624999995,106.61516829165464L43.3937109375,106.22454686318513L43.5439921875,103.31668431833252L43.919695312500004,100.51469942469558L44.0699765625,98.77074571795099L44.3705390625,98.22409557874666L44.445679687500004,97.52210277704482L45.460078124999995,95.09889195347618L45.497648437500004,92.83300195491086L45.7982109375,91.72979780837296L45.873351562500005,92.96625203092657L45.910921875,90.51554727166699L46.211484375,89.03287625076064L46.249054687500006,89.98242380324304L46.286625,89.05429097550203L46.4744765625,88.52451931747609L46.812609375,85.97990795537258L47.2258828125,83.28087019251657L47.526445312499995,81.790217310059L47.63915625,80.38448311730261L48.1275703125,80.64094190820752L48.315421875,80.54898123556845L48.428132812499996,77.35212909805898L48.578414062499995,78.74435657241708L48.578414062499995,79.50825416301237L49.217109375,74.42851820273779L49.2546796875,71.87072422447537L49.480101562499996,73.07029650912534L49.5928125,69.98359350512277L49.630382812499995,69.65931106828872L49.667953125000004,71.29787885183089L49.7055234375,72.78278391249077L49.74309375,71.39204269096824L49.968515625,70.368557740589L50.156367187499995,67.94297299213265L50.9829140625,64.9973094316611L51.0580546875,64.33966378748813L51.1331953125,64.25271287058698L51.2834765625,64.35567582081038L51.4337578125,60.8179373064786L51.696749999999994,64.84561917895974L51.771890625,62.72387998165959L51.922171875,62.871583309279856L51.9973125,60.337456482222535L52.0348828125,58.825026494803524L52.072453124999996,59.436025635592316L52.222734374999995,59.06979608143233L52.297875,59.2505661344818L52.3354453125,57.53893051622063L52.44815625,59.246608601808376L52.4857265625,59.274293149259265L52.5608671875,58.28959861150841L52.636007812500004,59.61414772852471L52.748718749999995,58.76463696112758L52.748718749999995,58.20126841946096L53.1995625,59.13643566525833L53.274703124999995,58.30293996255378L53.875828125,57.18189398585889L54.026109375,56.42197648303521L54.1388203125,55.631805318959096L54.4018125,54.189312911385144L54.476953125,57.21377755186191L54.589664062500006,54.316330908292585L54.627234375,52.766107950408355L54.739945312500005,54.380715314824826L54.777515625,50.39129412263732L55.0405078125,49.262734676606726L55.078078125,48.78274186530811L55.265929687500005,48.991306036851086L55.3035,49.56520636619936L55.4913515625,51.387400054717276L55.5664921875,51.06615380804128L55.641632812500006,48.517034315230745L55.791914062500005,50.38193139423666L55.829484375,50.37237932609695L55.942195312500004,52.76975509719358L55.942195312500004,54.180458228963445L56.05490625,51.021274638878L56.393039062499994,49.23546667757037L56.430609375,47.01880768654189L56.6184609375,51.69267924921843L57.182015625,49.086632797899625L57.4074375,51.19947743734022L57.5201484375,48.925584845332764L57.595289062499994,47.50848038350847L57.632859375,43.09346362696604L57.708,47.19946153277732L57.820710937499996,48.26795168706522L57.8958515625,49.35366960724107L58.083703125,47.73685894458774L58.1964140625,49.03341227732997L58.309125,46.79449440549885L58.496976562499995,48.58577954212805L59.285953125000006,45.5713711460165L59.36109375,44.09553351976865L59.36109375,43.19437966068952L59.398664062499996,41.210113669689036L59.736796875,43.36334353998632L59.962218750000005,40.88607707675163L60.2252109375,42.93075299461864L60.713625,40.481285774576435L60.939046875,42.21184629631108L61.1268984375,41.366202247069026L61.2020390625,41.437721098617146L61.23960937499999,42.834383622566776L61.615312499999995,44.01882736231482L61.7280234375,43.12789962961301L61.8783046875,43.757790178700446L61.991015624999996,46.60263885894068L62.291578124999994,49.71457956237782L62.3291484375,45.132424092311794L62.554570312500005,43.97106712951742L62.592140625,46.38462235036846L62.667281249999995,46.923096715099405L62.667281249999995,47.277683640068204L63.568968749999996,43.872912808981795L63.644109375,42.32965525339347L63.6816796875,43.78430877669169L63.719249999999995,43.92371785765994L64.1325234375,46.87241871829494L64.35794531250001,45.954841877408114L64.395515625,48.44593595057631L64.545796875,46.77408866770344L64.6209375,45.750878216283525L65.07178125,45.30540392286997L65.10935156250001,46.881420693388776L65.297203125,48.73767691481913L65.447484375,50.89615852081725L65.522625,54.70769345495141L65.5601953125,54.642934663823794L66.1613203125,53.80001873331493L66.2364609375,51.512751391871134L66.724875,50.093968519375736L67.0254375,48.63643297614348L67.0254375,47.75554259919804L67.32600000000001,44.114660423155044L67.401140625,49.59765072765609L67.70170312500001,50.82069916488328L67.70170312500001,51.52793272843252L68.1149765625,53.39182914071122L68.2276875,55.25781066547208L68.302828125,48.72584028440937L68.37796875000001,50.86719449234276L68.453109375,51.2462714339961L68.52825,49.252607161674376L68.75367187500001,46.48300426760389L68.903953125,44.632703546703965L69.0166640625,42.809694403157636L69.1669453125,44.57726233924191L69.3172265625,45.00402222707726L69.3923671875,48.09822150482978L69.42993750000001,55.4008525194249L69.4675078125,51.34681150405736L69.5426484375,45.68686841315835L69.655359375,48.3094371765728L69.8432109375,45.82489047771611L70.0310625,41.09869585330836L70.10620312500001,39.30502742797796L70.1437734375,38.188102133033L70.18134375000001,39.67796726509039L70.2940546875,43.07411689450802L70.331625,43.43512572978216L70.3691953125,42.09600929631691L70.7448984375,40.983625387764704L70.8951796875,42.25713884039391L71.007890625,46.686100614953716L71.158171875,40.34194337732248L71.158171875,36.4734318138228L71.3460234375,36.21547531074677L71.45873437499999,39.72371223262783L71.8720078125,40.63327019130293L71.9471484375,42.14846497769881L72.13499999999999,37.68225731582217L72.210140625,34.98619176889588L72.360421875,34.59676928156358L72.6234140625,35.83534265690625L72.660984375,37.71559217552493L72.7736953125,40.36339368808359L72.811265625,39.88533638748382L73.44996093750001,33.03881663646678L73.56267187499999,31.453618053328597L73.9008046875,28.36068880416184L74.08865625,30.800792090902775L74.12622656250001,27.537269553892514L74.163796875,32.20194776867325L74.50192968750001,33.956848394294866L74.764921875,30.1644182723617L74.80249218750001,29.974259103316086L75.140625,31.869045199937403L75.21576562499999,29.95659236364105L75.366046875,27.252973067610014L75.7041796875,29.37546053268096L75.816890625,32.68893366829437L76.26773437499999,32.37044123145142L76.49315625,33.698518949740304L76.56829687499999,28.02985171688522L76.56829687499999,24.5447834120302L76.60586718750001,29.266863268448077L76.6434375,24.955581107834888L76.718578125,28.633470679779776L76.79371875,22.861856280375832L76.944,22.457539591357687L77.2069921875,34.01110286437739L77.8456875,32.2689438441127L77.920828125,25.21262854045341L78.07110937499999,26.59887112269891L78.221390625,27.43794296503785L78.44681250000001,24.639941373061134L78.6346640625,23.453901457608993L78.67223437499999,20.38617333904847L78.70980468750001,23.815764122687114L78.822515625,24.743765773133504L78.8600859375,26.878810065375717L79.01036718750001,32.62885652227419L79.0855078125,30.451379360880424L79.46121093750001,27.201051159642418L79.573921875,28.579425817428728L79.573921875,29.453212259960736L79.6114921875,31.998760876640546L79.6866328125,27.885929819826544L79.76177343750001,21.307412008905317L79.76177343750001,17.416390426567858L79.91205468749999,21.669226634072288L79.949625,23.98805098057477L80.0623359375,27.277692117880605L80.40046875,26.120692520493748L80.5883203125,26.784351824547883L80.70103125,22.660027496975914L80.8137421875,26.502487577111225L80.8888828125,33.09738757438106L81.1143046875,40.04529422391772L81.151875,40.469171894142306L81.60271875000001,35.89004453108993L81.79057031250001,31.654022907731672L82.429265625,42.95104627308976L82.4668359375,32.91316044362358L82.50440625,35.729103976016404L82.76739843749999,41.04016525889281L83.330953125,54.058724910089424L83.481234375,47.90243762768779L83.5939453125,38.372176207659805L83.631515625,42.12104083849482L83.6690859375,36.656771794147886L83.781796875,34.569758056712715L84.232640625,29.93010408494294L84.2702109375,25.181240883682023L84.45806250000001,36.22435705561932L84.4956328125,36.88106924513676L84.5707734375,34.900427924909394L84.833765625,33.0384914925273L84.94647656250001,42.76571304172401L85.134328125,39.909610382140414L85.3973203125,37.435981560600226L85.4724609375,44.55800139868737L85.51003125,42.01322711022718L85.99844531250001,40.065552930439964L86.22386718749999,37.483682384997536L86.41171874999999,36.2592233749356L86.5244296875,37.261278886855564L86.8249921875,38.65004346657781L86.937703125,39.95605162051049L86.9752734375,42.58203830414382L87.238265625,37.04064921196323L87.35097656250001,40.44789136410037L87.4261171875,38.47938403529756L87.8769609375,39.428007383734325L87.989671875,38.29007598369074L88.10238281250001,39.10145128566609L88.3278046875,45.953875371937784L88.4780859375,47.147396213619146L88.741078125,51.98286016260744L88.9665,51.28152440142395L89.041640625,53.13912092305944L89.30463281249999,54.94043966195288L89.30463281249999,56.12854376173796L89.342203125,60.43456476107639L89.94332812500001,64.02299125795804L89.9808984375,60.76118174476568L89.9808984375,58.932309932873196L90.31903125,61.398278681522584L90.61959374999999,65.636996893934L90.69473437500001,68.05574867656922L91.52128125,71.23392081809037L91.6715625,73.38307416138908L91.8594140625,73.44457921536814L91.97212499999999,78.96812761764954L92.04726562500001,80.61125698551275L92.347828125,82.29973703326957L92.3853984375,77.00440252212655L92.42296875,79.96572709314806L93.28708593750001,88.20200206014518L93.4373671875,89.2441591620823L93.8882109375,88.90999169153254L94.0384921875,88.63501476779284L94.1136328125,87.10520881898688L94.1887734375,86.33253584397328L94.22634375,86.0927910114874L94.4141953125,87.23917628940572L94.4893359375,94.31974266406542L94.63961718750001,99.23878501516569L94.6771875,98.88120200929237L95.12803125,97.56916296334713L95.203171875,100.36620966885808L95.2407421875,100.26578598197891L95.7667265625,105.46461170103109L96.2175703125,109.42632530376223L96.4805625,113.20217984679948L96.63084375,110.38401216061412L96.74355468750001,117.16094198897382L96.8186953125,112.53106521776921L96.93140625000001,110.46461868246692L97.23196875000001,112.39352699560767L97.5701015625,112.27648517587821L97.607671875,116.08795359309605L97.7203828125,114.7365971669123L97.79552343750001,120.5558693074921L98.24636718750001,116.72018801122012L98.28393750000001,118.95739418759408L98.43421875,118.55681672175737L98.4717890625,116.48056490906086L98.509359375,116.65995305143598L98.54692968750001,119.74464902506287L98.54692968750001,121.64113816952317L99.03534375000001,120.35135668947994L99.185625,125.12015349734975L99.63646875,120.46467664249894L99.78675000000001,119.5773328118347L100.04974218749999,120.02008286817475L100.08731250000001,119.39572020691794L100.38787500000001,117.91776816176008L100.9514296875,119.65025408624919L100.989,123.40585288101356L101.1768515625,124.81004429997355L101.4774140625,124.33913364130402L101.590125,122.1956880985454L102.0033984375,122.66513379614418L102.04096875,125.91477992571578L102.15367968749999,127.69513200335018L102.34153125,127.63319095125517L102.3791015625,128.2789261442797L102.5293828125,128.34915271763265L102.64209375,127.75832464688575L102.7548046875,129.52984058445824L102.867515625,129.22678656132697L102.94265625000001,124.0432177949383L103.24321875000001,126.53686345081135L103.468640625,131.97628954849006L103.54378125,129.46024058019933L103.65649218749999,127.7380723869154L103.95705468749999,130.53398437657717L103.994625,131.73514728279832L104.1073359375,129.74576671506782L104.1824765625,130.48037798820098L104.48303906250001,130.8071180113908L104.821171875,128.97811283624043L105.19687499999999,130.17835995627962L105.53500781250001,131.97556939913943L105.572578125,129.4215828785446L105.6101484375,131.77224308050222L105.64771875,129.08138961819736L105.722859375,130.12557193160148L106.023421875,128.48394165895436L106.24884374999999,130.99535485706957L106.5118359375,131.838478882889L107.075390625,133.619040657366L107.1129609375,133.1827374723926L107.5638046875,130.92966988001515L107.63894531250001,129.94400924424545L107.67651562500001,131.78973494110633L107.7892265625,132.98254202338933L107.826796875,131.66035041795564L107.8643671875,133.334568809405L108.05221875,133.5120192145914L108.1649296875,133.02250456763963L108.42792187500001,131.6646272260831L108.578203125,132.23458903991497L108.803625,132.40028285610668L108.84119531249999,129.68595604972833L108.9163359375,131.95364199356314L109.14175781249999,132.37600472510502L109.2168984375,131.4196682337859L109.2920390625,132.2852501965261L109.329609375,130.33512986564153L109.5174609375,130.75069886679228L109.5926015625,131.08444715232517L110.15615625,129.98657706369477L110.23129687500001,128.65084655841568L110.381578125,128.67096401583382L111.208125,129.1791110167775L111.35840625,129.4194767735492L111.4711171875,128.1030099672332L111.54625781249999,127.73104138351341L111.7716796875,129.6081367711006L111.88439062500001,129.13071877951757L111.99710156249999,128.28027532763483L112.410375,128.50554043097947L112.5982265625,128.8382813992718L112.7109375,128.06665606565656L112.86121875,127.1916890026175L112.8987890625,128.73662772976283L113.12421093750001,129.07579539423276L113.3120625,127.98022534398291L113.387203125,127.70839650666215L113.5750546875,128.23291080726153L114.439171875,128.2192787914122L114.5518828125,128.65403881435793L114.5518828125,128.91850050241538L114.739734375,129.60634013111863L116.1298359375,129.60625026109102L116.3176875,130.3227145772613L116.3552578125,131.0612198544074L116.392828125,131.0447780894257L116.4303984375,131.31404799678694L116.46796875,131.06517359656024L116.5055390625,131.37993984495756L116.9563828125,131.31934007136454L117.06909375000001,131.19514477553025L117.1066640625,131.60392833581798L117.2569453125,130.98201449081705L117.48236718749999,132.08079626885632L117.6326484375,131.58321389981325L117.7077890625,131.844632196578L117.7077890625,132.01193840526034L118.0083515625,130.6958932372447L118.3089140625,130.37355002997748L118.421625,130.08657181719667L118.496765625,130.1922752528638L118.647046875,131.31256595534254L118.6846171875,130.42092542501922L118.87246875000001,131.11894415757638L118.947609375,130.79324913685468L119.0603203125,132.4039932356838L119.1354609375,131.5546477494907L119.62387500000001,131.3867004732254L119.8117265625,132.35617858215946L120.07471875,131.19781715846923L120.22500000000001,131.83041391180078L120.33771093749999,131.54756804714935L120.41285156250001,131.96321588684657L120.41285156250001,132.21680571469386L120.7885546875,132.54118873758085L120.826125,132.6518243357517L120.93883593749999,130.38107017978894L121.502390625,132.42711049102667L121.6151015625,132.9906423973019L121.9156640625,132.55161106790288L121.953234375,132.99488935642552L122.253796875,133.04681570253967L122.2913671875,132.72700947691985L122.6295,133.81945806727137L122.6670703125,133.5515203483356L122.704640625,133.18334335265607L122.8924921875,133.10467238515778L123.08034375,131.18027304699783L123.56875781250001,132.24302608921587L123.606328125,132.73975041286158L123.83175,132.68670520284712L123.86932031250001,134.4180895491709L123.906890625,133.9613737061681L123.9444609375,133.75270705740024L124.1698828125,132.4853119869254L124.508015625,133.22072571547827L124.88371875,133.84946713135508L125.03399999999999,133.18067732168424L125.18428125,133.1598439999214L125.259421875,134.51143833259823L125.37213281250001,135.10234045127413L125.40970312500001,135.04663569563257L125.40970312500001,135.0143245996718L125.5975546875,135.04970989641322L126.08596874999999,135.4990355187992L126.1986796875,133.8930980020368L126.4992421875,133.3018385569747L126.68709375,133.30231953630488L126.762234375,134.70418186517344L126.7998046875,135.34193621760346L126.9500859375,136.15613631658863L127.062796875,135.25514614492852L127.1003671875,136.81982206648706L127.28821875,135.69256965608403L127.363359375,135.56524642341273L127.4760703125,134.66997342054805L127.51364062500001,135.31884845574885L127.62635156249999,134.78719739537883L127.7390625,135.41078862136803L127.7766328125,135.0232858830199L127.814203125,135.79656291661362L128.49046875,136.1351172463227L128.71589062500001,135.12500215752362L129.0540234375,134.5089951234731L129.09159375,135.464102635278L129.46729687500002,136.54759758780025L129.5048671875,136.09108890601436L129.8805703125,135.35842359104154L130.3314140625,134.72766430814767L130.368984375,134.36555157254625L130.6319765625,134.00521394104058L130.7822578125,133.42446421842618L130.93253906249998,134.39209963321525L131.0076796875,135.52829107647707L131.04525,136.11043675909448L131.04525,136.466831878841L131.871796875,135.53699560896757L131.9845078125,136.4490029832064L132.05964843750002,136.8577116398881L132.17235937499998,136.1639955061663L132.4353515625,137.43667562889158L132.472921875,137.04249433910442L132.472921875,136.81208421422068L132.623203125,135.2863978498162L132.9613359375,136.83626148192803L133.374609375,136.06440267930327L133.4873203125,137.23885049561932L133.8630234375,136.40501555834376L133.90059375,136.25107037329508L134.0133046875,135.93679459607236L134.50171875,136.49193643211703L134.576859375,136.2708867733607L134.8398515625,135.83045374489072L134.91499218750002,135.9134202677185L135.253125,136.89647767037036L135.40340625000002,136.58035747495552L135.8166796875,137.73727939676766L135.8918203125,137.25703277678207L135.9669609375,137.999505606819L136.00453125,136.64145872470468L136.4929453125,137.06793790884518L136.90621875,136.72758425975795L137.1692109375,135.8824099972643L137.46977343749998,136.25105277960947L137.657625,136.4567869051556L137.9581875,136.96904663839834L138.22117968749998,136.39536110039558L138.25875,137.10725808965435L138.634453125,137.17757020059256L139.085296875,137.28909721239887L139.1228671875,137.3166779343488L139.385859375,137.68017005723596L139.7239921875,137.41601134105983L139.7991328125,137.04884018500988L139.8742734375,136.94157307206132L140.588109375,137.54703440416313L140.7008203125,137.42203299574462L140.7759609375,137.92798287701385L140.888671875,137.85557434610922L141.0013828125,137.4110080911031L141.11409375,137.37893960265515L141.1516640625,139.40785717839583L141.189234375,138.6357347723486L141.640078125,138.06598605900854L141.790359375,138.2989182457882L142.1284921875,138.36352369815125L142.20363281250002,138.28649366517539L142.241203125,137.6228234731999L142.466625,137.81903659734212L142.5041953125,138.7618665501626L142.61690625,138.85574220838723L142.842328125,139.3724571875835L142.9550390625,139.17972073180107L143.142890625,138.70863399298895L143.3307421875,139.19385961221468L143.8567265625,138.99031333595767L143.894296875,138.1770780554131L143.9694375,138.8345555937468L144.2324296875,138.46380770461832L145.02140624999998,139.45505984024118L145.05897656250002,139.29998491365095L145.397109375,139.44335564502438L145.7352421875,138.95422828164715L146.073375,139.13230707265646L146.11094531249998,140.1871206956419L146.22365625,139.69306700586156L146.298796875,139.81703267159057L146.63692968750001,139.60093293919857L146.6745,139.55004346868213L146.9750625,139.98047644811032L147.050203125,140.56551942941508L147.1629140625,140.01504656147802L147.6888984375,139.14496315593294L147.72646875,139.17122245251997L147.8391796875,139.92455229475516L148.1773125,139.62352863170523L148.2148828125,139.6330150606469L148.36516406249999,139.71214414888038L148.5154453125,139.88312654563504L148.703296875,138.66943476452988L148.74086718750002,139.94607918167515L148.92871875,141.23217704649744L149.00385937500002,140.34644664082512L149.00385937500002,139.8153777270067L149.3795625,140.02413431521546L149.454703125,140.05661635084888L149.49227343750002,140.16792307403716L149.5674140625,139.1009943590153L149.75526562500002,138.60658758613994L150.0933984375,140.03459868197757L150.4691015625,140.16895144724916L150.54424218749998,141.13240261066898L150.73209375,140.54866041980716L150.8448046875,139.82031912459783L150.8448046875,139.38481804649675L150.9199453125,139.5717968363966L150.9950859375,140.33621497547227L151.408359375,140.44590451790916L151.7464921875,140.51720542577652L151.8216328125,140.78509894770698L151.8967734375,140.78431555048348L152.19733593750001,141.0952968171845L152.23490625,141.09237898692152L152.4227578125,141.47603878535625L152.53546874999998,140.99788690113039L152.5730390625,140.55764202427673L152.68575,140.83086964429503L152.72332031250002,140.57857931138392L152.760890625,140.53661617468254L152.9863125,140.21725832764415L153.0238828125,140.675585017997L153.06145312499999,140.72883583204327L153.512296875,141.83389509944777L153.66257812499998,141.63956217773784L153.73771875,142.14492428072444L154.03828124999998,142.3077849942203L154.22613281250003,141.66894846739737L154.22613281250003,141.2838799876L154.263703125,141.14414763118313L154.3764140625,140.70850765514L154.63940624999998,140.91331464897831L154.71454687500002,141.16392893839125L154.864828125,141.73467042420253L154.9775390625,141.32929827951097L155.2029609375,141.1797622255281L155.691375,141.7858697793958L156.14221874999998,141.6160301888896L156.217359375,141.740911287685L156.217359375,141.81637792449547L156.367640625,142.1651540219467L156.668203125,141.7548820208899L156.89362500000001,141.7857777209416L157.0814765625,142.23384874587765L157.23175781249998,142.10168092903467L157.34446874999998,142.02455193457521L157.7953125,141.67178845458074L159.8616796875,142.0734143906008L160.01196093750002,142.50671173841448L160.50037500000002,141.33894394016679L160.9136484375,140.8604604450946L161.0639296875,140.86589586727496L161.3644921875,140.9404363172313L161.4020625,141.91056391287873L161.55234375,141.7624918976269L161.92804687499998,142.29835272244L162.30375,142.54899845020802L162.3413203125,142.36217148786383L162.378890625,142.815842539516L162.679453125,143.07442048905773L163.43085937499998,142.22864545465598L164.332546875,141.9584219309885L164.55796875,141.51864948320747L164.5955390625,141.18805183298736L164.70825000000002,141.33099994556517L165.083953125,142.14360095682588L165.4220859375,141.84199987048447L165.53479687499998,141.8344856250209L165.9105,141.94045702959963L166.0983515625,141.330585275334L167.4508828125,140.47580458220023L167.78901562500002,141.20724239827237L167.86415625,140.85811497986606L168.0144375,141.1512400350108L168.23985937499998,141.32028105752474L168.3525703125,141.81867891592034L168.6155625,142.29967887435043L168.91612500000002,142.14227286236363L169.0288359375,141.7392675772719L169.32939843749998,141.2960846235104L169.4796796875,141.36325360685737L169.6299609375,141.77054706474235L170.49407812500002,142.1772774100905L170.644359375,142.44542662089367L170.90735156250003,142.3897085855439L171.0576328125,142.92765512863173L171.47090625,142.7341572958194L171.92174999999997,142.21205138000622L172.522875,142.10042953573662L173.4621328125,142.31532886264026L174.02568749999998,141.96903549965765L174.55167187499998,141.74095153661497L174.852234375,142.02572574022236L175.152796875,141.42952474809383L175.37821875,141.4184496465807L175.41578906249998,141.52634527862975L176.054484375,142.27213394988127L176.3926171875,142.43279634921876L176.9186015625,142.36809307180818L177.03131249999998,141.54171015452133L177.857859375,142.21745179096166L178.4965546875,142.82132191885262L178.9473984375,142.58318993489527L179.060109375,142.05829016590465L179.28553125000002,142.20534157319642L179.961796875,141.76010174168414L180.0369375,142.04128225736775L180.71320312499998,142.39094981523795L180.863484375,141.94447805815403L180.9761953125,142.19811852723439L181.6524609375,142.3890051573851L181.8027421875,142.44622933784652L182.065734375,142.2517613417329L182.5541484375,141.90438993638784L182.7795703125,141.45089477262184L183.30555468749998,141.63918820079107L183.7563984375,141.28407999302178L184.31995312499998,141.11039719077584L184.620515625,141.4043690838888L184.6580859375,141.49208626759565L185.48463281250002,141.35924717445351L185.6349140625,141.70662203546703L186.1608984375,141.56437887498709L186.6117421875,141.62723259875557L186.6493125,141.99794868631955L186.91230468749998,142.60608797357094L187.4382890625,142.43621716707648L187.6637109375,142.10094386610706L187.926703125,141.93413931401892L188.00184374999998,141.66887957889236L188.3399765625,141.8894279981044L188.4151171875,141.70194919165294L188.4526875,141.83215525588685L189.16652343750002,141.97877681318033L189.27923437500002,142.50762139385307L189.61736718749998,142.16439113012837L190.10578124999998,141.6203011164165L190.63176562499999,141.19112684628612L191.00746875,141.545075677144L191.60859374999998,141.92033392622352L192.0218671875,141.72101518029706L192.69813281249998,142.24995019601957L193.0738359375,142.1914491034495L193.11140625,142.55879003185382L193.33682812499998,141.77224856699848L193.5998203125,141.7189371028L193.7501015625,142.04120890098204L193.787671875,141.78864325056574L193.82524218749998,142.226229772373L194.6517890625,142.58082907608883L194.689359375,142.04849213024352L194.839640625,142.30914986986642L194.91478124999998,142.50628900998402L195.2529140625,141.82433044232403L195.40319531249997,141.7149011201211L196.49273437500003,142.08439763078383L196.5303046875,141.39806954534757L196.8684375,141.1307884399657L196.98114843750002,141.77786846621058L197.244140625,142.92354645118547L197.61984375,143.09108887547015L197.6574140625,143.11248593754493L197.694984375,142.60821564746718L197.7325546875,142.61449638826178L197.92040624999998,142.16114409795418L198.145828125,141.8612455136025L198.296109375,141.70010118754703L198.37125,142.09483681190213L198.972375,141.90580537268772L199.197796875,141.77203192662415L199.2353671875,142.62857894643213L199.5359296875,142.00538093722304L200.249765625,141.70094131770264L200.8884609375,141.77089427127294L201.8652890625,142.4257176126372L202.72940624999998,142.47826404106604L203.21782031249998,142.47500142808616L203.33053125,141.86499546001536L204.4952109375,142.34066102746237L204.53278125,141.81902293448678L205.13390625,141.36502165787107L205.1714765625,140.99596206337822L205.5471796875,142.087420434366L205.659890625,142.0471361516577L205.73503125,142.52496080355814L206.1483046875,141.49803882468922L206.37372656250002,141.46774976620253L206.48643750000002,142.54188553766912L206.63671875,142.9452809898728L207.31298437499998,141.84523531920752L207.3505546875,142.11400398696026L207.5008359375,141.3923960050848L207.613546875,141.89995350043418L207.6886875,141.03069498031766L208.214671875,140.89309518743215L208.364953125,141.6823415656904L208.7782265625,141.14530754710353L208.89093749999998,141.252840736923L209.64234375,142.04959942162907L209.94290625,143.068083213914L210.318609375,143.13477885453815L210.3561796875,142.00891601372774L210.769453125,141.5819736078538L211.6335703125,142.37408423955355L211.821421875,142.28071920089656L212.4601171875,142.69701807117437L214.11321093749999,142.14396438151186L214.15078125,142.1736624917032L214.3010625,141.3727615208313L214.45134375,141.47871726140687L215.127609375,141.6792384927258L215.35303125000002,141.15405592047054L215.3906015625,141.4844911519477L216.96855468750002,142.12964768381818L217.2691171875,142.0139403572825L217.5696796875,142.19140242507277L217.60725,141.1706494989789L218.2459453125,141.09764364428102L218.734359375,141.38044478440517L218.88464062499997,141.04157417573737L219.29791406249998,141.33222447742943L219.7487578125,142.53959511849735L219.86146875,142.03053630247786L219.93660937500002,141.66851915514843L220.086890625,142.09996043828122L220.38745312499998,142.1204903260257L222.64167187500001,142.16281534528386L222.86709375,142.55194912099896L222.9046640625,141.97842210233807L222.97980468749998,141.60332224811475L223.543359375,142.2745234842322L223.8063515625,141.87230311472047L224.67046875000003,141.8926159365306L224.82075,141.3348762608069L225.2340234375,142.05036931103123L225.346734375,141.92620261715743L225.9854296875,141.5581962854412L226.21085156249998,142.79810371422417L226.69926562499998,141.35389427555126L227.450671875,141.79143180584754L227.78880468749998,141.5674996811715L228.3899296875,141.6079534263883L228.46507031250002,142.02086686181204L228.80320312499998,141.97006094631857L229.1413359375,141.38538422226625L229.44189843750002,141.88868771326705L230.1933046875,142.31061807009212L230.26844531249998,141.95380162284187L230.38115624999998,141.51063790591638L230.45629687500002,141.7056352038673L230.68171875,142.3698556614778L231.1325625,142.41082413642442L231.1701328125,142.09582551135918L231.43312500000002,141.87372328793253L231.54583593750002,142.10335370962633L231.7336875,141.94402374162993L231.9966796875,141.93842299540012L232.0718203125,142.42881757390666L233.98790624999998,142.30618391581675L234.4011796875,142.48403614193842L234.513890625,143.04365578235905L234.7017421875,142.83973246239987L235.3028671875,142.4205637345283L235.4531484375,142.0387306096727L235.49071874999998,142.16596783254326L235.56585937499997,142.07158144152595L235.9415625,142.40770759526418L236.09184374999998,142.091671773107L236.24212500000002,141.89783690760868L236.58025781249998,141.8716255552739L236.617828125,141.4718751175588L236.8056796875,141.58316542892302L236.9559609375,142.1958902397986L236.99353125,142.02968512085158L237.5570859375,141.81828413189365L238.72176562500002,141.98489379495595L239.17260937499998,141.60905662244687L239.4356015625,141.55517103636936L239.623453125,141.93497758352564L240.1494375,141.71166700940614L240.4875703125,141.98309714215765L241.051125,141.90655616169832L241.4643984375,141.85626980986757L241.727390625,141.9274978131894L241.76496093749998,142.5233099084271L241.87767187499998,142.54455649647815L242.10309375,142.6407875391052L243.53076562500002,141.72240361736783L243.6434765625,141.66365615415017L243.7186171875,141.8902180700994L243.831328125,141.62259339879267L243.86889843749998,141.77448273090044L244.0191796875,142.31004136046613L245.2214296875,142.5145642798676L245.7474140625,142.6907738202069L246.7618125,142.50666721043842L246.98723437499999,141.7622056722811L247.13751562500002,142.0131932775613L247.81378125,141.73662319985647L248.0016328125,141.3308458696594L248.56518749999998,141.2073720156293L248.6778984375,140.87629555294757L248.790609375,141.1334292349591L249.57958593749998,142.21914311169826L249.992859375,141.41574828452414L250.4812734375,141.55361790624852L250.51884375,141.740928730043L250.894546875,141.89010591555305L251.0072578125,142.36569543090994L251.15753906249998,142.07344028124731L251.796234375,142.54103346884295L251.871375,141.9931671054697L251.9840859375,141.24267949658184L252.77306249999998,141.85315991365442L252.84820312500003,142.20526713265264L253.0360546875,141.90845973446937L253.44932812500002,142.31089733575433L253.74989062499998,142.34757512116553L253.900171875,142.75413868542321L254.53886718750002,142.6127002454084L254.76428906249998,142.30104243554365L255.1399921875,142.27329192595627L255.2151328125,141.9084278889547L255.44055468750003,141.85166117139957L255.62840625,141.92688359807414L255.8162578125,141.3540179537663L255.92896875000002,142.06739427058142L256.4925234375,142.28311631910447L256.53009375,142.8836440374401L257.5444921875,142.45986406679464L257.8450546875,141.8693125467033L258.2207578125,142.5521561524754L258.63403125,142.15035194319728L259.42300781250003,142.53807282155435L259.64842968749997,142.67193041227003L260.061703125,142.13010975190213L260.0992734375,141.56101156851577L261.3015234375,141.65592121612917L261.33909375,142.7117867032932L261.564515625,142.26207928188788L263.518171875,142.01992910940007L263.5933125,141.34083621604375L263.85630468749997,141.11006275999262L263.969015625,142.17372361682482L264.2320078125,142.0299071322803L265.24640625,141.3683496684387L266.0353828125,140.9959393340928L266.4110859375,141.30421750226614L267.0122109375,141.55566043087904L267.0873515625,141.52456824223967L267.1624921875,141.96864332799578L267.35034375,142.06302319038255L268.55259374999997,142.94627808393875L268.74044531249996,142.89139997769166L269.15371875,142.18152920030317L269.1912890625,142.26499514226606L269.228859375,142.33587729053392L269.3415703125,142.20712810013046L269.9426953125,141.72043245908628L270.95709375,141.9113318790698L271.0698046875,141.9986678632752L271.8212109375,141.43447371169196L272.0466328125,140.98190786803656L272.084203125,141.18041563210159L273.06103125,140.99153192144826L273.3240234375,141.7837427206137L273.3991640625,141.94722783781214L273.587015625,141.30684817165408L274.8268359375,141.34530583378174L274.93954687499996,140.9506875138041L275.6533828125,141.17371254067461L275.690953125,141.36219069079064L276.02908593750004,141.61387981362776L276.292078125,140.8961062084809L276.4047890625,140.98309279000145L276.66778125,141.21277398517626L276.7804921875,141.74807885002465L277.494328125,141.74133242875493L277.6070390625,141.69594227449193L277.9827421875,141.69432853755677" style="fill: none;" fill="none"></path></g></g></g></g><g opacity="0.20000000298023224"><g><g><g><path stroke="rgb(255, 112, 67)" stroke-width="2px" d="M37.9084453125,138.84633182920516L38.02115625,138.73007073874277L38.32171875,136.22061753397185L38.3592890625,135.35523686102695L38.396859375,133.2783844868342L38.62228125,130.2073948553039L38.8852734375,134.0938350032601L38.9604140625,130.11321581113668L39.336117187499994,127.77022001561191L39.4863984375,127.30428059481912L39.561539062499996,126.45755012374785L39.9372421875,124.17786797136068L40.4632265625,119.31505041983392L40.5383671875,121.82581323716376L40.6886484375,115.30043783121639L40.9892109375,117.33642840923535L41.026781250000006,117.45632391009066L41.853328125000004,115.71589121677809L41.9660390625,115.5058303044902L42.229031250000006,111.50090790664157L42.3417421875,112.56548630280626L42.45445312499999,110.22638165826598L42.5671640625,105.18296947702765L42.679874999999996,104.35395175135798L43.055578125,106.64795955767235L43.356140624999995,105.86432603125772L43.3937109375,105.63861571997404L43.5439921875,98.95489496530759L43.919695312500004,96.31172466526428L44.0699765625,96.1548161216908L44.3705390625,97.40412055121529L44.445679687500004,96.46911371416516L45.460078124999995,91.46407600740591L45.497648437500004,89.43416711936393L45.7982109375,90.07499163597822L45.873351562500005,94.82093333287371L45.910921875,86.83949017069406L46.211484375,86.80886973316471L46.249054687500006,91.40674512667788L46.286625,87.6620917369922L46.4744765625,87.72986183149946L46.812609375,82.1629909152786L47.2258828125,79.23231355018086L47.526445312499995,79.5542379870183L47.63915625,78.27588182853329L48.1275703125,81.02563009452487L48.315421875,80.41104022661845L48.428132812499996,72.55685089197422L48.578414062499995,80.83269778390725L48.578414062499995,80.65410054888989L49.217109375,66.8089142623875L49.2546796875,68.03403325710033L49.480101562499996,74.86965493609507L49.5928125,65.35353899912703L49.630382812499995,69.17288741303814L49.667953125000004,73.75573052714269L49.7055234375,75.01014150347973L49.74309375,69.3059308586849L49.968515625,68.83333031502033L50.156367187499995,64.30459586944843L50.9829140625,60.57881409095394L51.0580546875,63.35319532122875L51.1331953125,64.12228649523522L51.2834765625,64.51012024614548L51.4337578125,55.511329534981L51.696749999999994,70.88714198768139L51.771890625,59.54127118570936L51.922171875,63.09313830071025L51.9973125,56.536266241636525L52.0348828125,56.55638151367505L52.072453124999996,60.35252434677548L52.222734374999995,58.52045175019239L52.297875,59.521721214056015L52.3354453125,54.97147708882888L52.44815625,61.80812573019003L52.4857265625,59.31581997043557L52.5608671875,56.81255680488216L52.636007812500004,61.60097140404915L52.748718749999995,57.49037081003189L52.748718749999995,57.356215606961L53.1995625,60.53918653395439L53.274703124999995,57.05269640849697L53.875828125,55.500325020816575L54.026109375,55.282100228799706L54.1388203125,54.44654857284493L54.4018125,52.02557430002426L54.476953125,61.75047451257706L54.589664062500006,49.97016094293858L54.627234375,50.440773513582L54.739945312500005,56.802626361449555L54.777515625,44.40716233435606L55.0405078125,47.56989550756083L55.078078125,48.0627526483602L55.265929687500005,49.30415229416556L55.3035,50.42605686022175L55.4913515625,54.120690587494124L55.5664921875,50.58428443802727L55.641632812500006,44.693355076014996L55.791914062500005,53.179277012745544L55.829484375,50.35805122388733L55.942195312500004,56.36581875383854L55.942195312500004,56.29651292661826L56.05490625,46.28249925374985L56.393039062499994,46.55675473560888L56.430609375,43.693819199999155L56.6184609375,58.70348659323322L57.182015625,45.177563120921434L57.4074375,54.368744396501114L57.5201484375,45.514745957321594L57.595289062499994,45.38282369077206L57.632859375,36.47093849215244L57.708,53.358458391494224L57.820710937499996,49.870686918497086L57.8958515625,50.98224648750491L58.083703125,45.31164295060768L58.1964140625,50.97824227644337L58.309125,43.436117597752144L58.496976562499995,51.27270724707179L59.285953125000006,41.049758551849266L59.36109375,41.88177708039683L59.36109375,41.84264887207084L59.398664062499996,38.23371468318834L59.736796875,46.59318834543228L59.962218750000005,37.170177381899606L60.2252109375,45.9977668714192L60.713625,36.80708494451309L60.939046875,44.807687078913034L61.1268984375,40.0977361732059L61.2020390625,41.54499937593937L61.23960937499999,44.929377408491234L61.615312499999995,45.79549297193688L61.7280234375,41.791508030560266L61.8783046875,44.702626002331556L61.991015624999996,50.86991187930107L62.291578124999994,54.38249061753352L62.3291484375,38.25919088721275L62.554570312500005,42.22903168532585L62.592140625,50.00495518164503L62.667281249999995,47.730808262195836L62.667281249999995,47.80956402752136L63.568968749999996,38.76575656235218L63.644109375,40.014768920010994L63.6816796875,45.96628906163906L63.719249999999995,44.132831479112326L64.1325234375,51.29547000924747L64.35794531250001,44.57847661607795L64.395515625,52.1825770603286L64.545796875,44.266317743394126L64.6209375,44.216062539153626L65.07178125,44.63719248274964L65.10935156250001,49.24544584916697L65.297203125,51.52206124696468L65.447484375,54.13388092981445L65.522625,60.42499585615265L65.5601953125,54.54579647713237L66.1613203125,52.535644837551644L66.2364609375,48.08185037970543L66.724875,47.96579421063262L67.0254375,46.450129661295165L67.0254375,46.43420703377987L67.32600000000001,38.65333715909057L67.401140625,57.8221361844076L67.70170312500001,52.65527182072401L67.70170312500001,52.588783073756446L68.1149765625,56.1876737591293L68.2276875,58.056782952613304L68.302828125,38.927884712815285L68.37796875000001,54.07922580424284L68.453109375,51.81488684647613L68.52825,46.26211075319185L68.75367187500001,42.328599926498185L68.903953125,41.857252465354065L69.0166640625,40.07518068783813L69.1669453125,47.22861424336833L69.3172265625,45.64416205883026L69.3923671875,52.73952042145861L69.42993750000001,66.35479904131758L69.4675078125,45.26574998100597L69.5426484375,37.19695377680992L69.655359375,52.24329032169449L69.8432109375,42.09807042943106L70.0310625,34.009403916696726L70.10620312500001,36.61452478998237L70.1437734375,36.512714190615554L70.18134375000001,41.9127649631765L70.2940546875,48.16834133863449L70.331625,43.97663898269337L70.3691953125,40.08733464611902L70.7448984375,39.31504952493643L70.8951796875,44.167409019337754L71.007890625,53.32954327679343L71.158171875,30.82570752087568L71.158171875,30.670664468573193L71.3460234375,35.82854055613279L71.45873437499999,44.98606761544943L71.8720078125,41.997607129315554L71.9471484375,44.421257157292615L72.13499999999999,30.982945823007157L72.210140625,30.942093448506455L72.360421875,34.01263555056519L72.6234140625,37.69320271992021L72.660984375,40.535966453452886L72.7736953125,44.33509595692158L72.811265625,39.168250436584174L73.44996093750001,22.7690370099412L73.56267187499999,29.075820178621342L73.9008046875,23.721294930411716L74.08865625,34.460947021014164L74.12622656250001,22.641985748377095L74.163796875,39.19896509084438L74.50192968750001,36.58919933272733L74.764921875,24.475773089461853L74.80249218750001,29.689020349747608L75.140625,34.711224344869436L75.21576562499999,27.087913109196563L75.366046875,23.197544123563517L75.7041796875,32.559191730287324L75.816890625,37.65914337171449L76.26773437499999,31.892702576186906L76.49315625,35.6906355271737L76.56829687499999,19.526850867602576L76.56829687499999,19.317180954747727L76.60586718750001,36.349983053074936L76.6434375,18.488657866915048L76.718578125,34.15030503769714L76.79371875,14.204434681269873L76.944,21.85106455783051L77.2069921875,51.341447773906935L77.8456875,29.655705313715686L77.920828125,14.628155584964503L78.07110937499999,28.678234996067147L78.221390625,28.696550728546242L78.44681250000001,20.442938985096077L78.6346640625,21.674841584430794L78.67223437499999,15.784581161207626L78.70980468750001,28.960150298145066L78.822515625,26.13576824880309L78.8600859375,30.081376503739108L79.01036718750001,41.25392620762187L79.0855078125,27.185163618789772L79.46121093750001,22.325558857785325L79.573921875,30.646987804108193L79.573921875,30.763891923758734L79.6114921875,35.81708380166029L79.6866328125,21.71668323460554L79.76177343750001,11.439635292523434L79.76177343750001,11.579858053061713L79.91205468749999,28.04848094532889L79.949625,27.46628750032849L80.0623359375,32.21215382383929L80.40046875,24.38519312441349L80.5883203125,27.77984078062906L80.70103125,16.473541005618046L80.8137421875,32.26617769731416L80.8888828125,42.9897375702858L81.1143046875,50.46715419822269L81.151875,41.10498839947914L81.60271875000001,29.021353486511458L81.79057031250001,25.29999047269422L82.429265625,59.89658132112689L82.4668359375,17.856331699424317L82.50440625,39.95301927460565L82.76739843749999,49.00675718320741L83.330953125,73.58656438688438L83.481234375,38.6680067040854L83.5939453125,24.076784077617873L83.631515625,47.7443377847473L83.6690859375,28.460368227627526L83.781796875,31.439237450559915L84.232640625,22.97062312728829L84.2702109375,18.057946081790675L84.45806250000001,52.789031313525314L84.4956328125,37.866137529412924L84.5707734375,31.929465944568335L84.833765625,30.245586843954186L84.94647656250001,57.356545365519L85.134328125,35.625456392765045L85.3973203125,33.725538328289986L85.4724609375,55.241031155818035L85.51003125,38.196065677536865L85.99844531250001,37.1440416607592L86.22386718749999,33.61087656683392L86.41171874999999,34.42253485984273L86.5244296875,38.764362154735466L86.8249921875,40.73319033616119L86.937703125,41.915063851409485L86.9752734375,46.521018329593886L87.238265625,28.728565573692322L87.35097656250001,45.55875459230609L87.4261171875,35.52662304209338L87.8769609375,40.850942406389464L87.989671875,36.58317888362541L88.10238281250001,40.31851423862909L88.3278046875,56.232511501345385L88.4780859375,48.937677476141204L88.741078125,59.23605608608986L88.9665,50.22952075964875L89.041640625,55.92551570551264L89.30463281249999,57.64241777029301L89.30463281249999,57.91069991141558L89.342203125,66.89359626008404L89.94332812500001,69.40563100328048L89.9808984375,55.86846747497718L89.9808984375,56.189002215034435L90.31903125,65.09723180449672L90.61959374999999,71.99507421255112L90.69473437500001,71.68387635052204L91.52128125,76.00117903037203L91.6715625,76.60680417633719L91.8594140625,73.5368367963367L91.97212499999999,87.25345022107165L92.04726562500001,83.07595103730758L92.347828125,84.83245710490478L92.3853984375,69.06140075541205L92.42296875,84.40771394968033L93.28708593750001,100.55641451064083L93.4373671875,90.80739481498799L93.8882109375,88.40874048570792L94.0384921875,88.2225493821833L94.1136328125,84.81049989577795L94.1887734375,85.17352638145287L94.22634375,85.73317376275857L94.4141953125,88.95875420628322L94.4893359375,104.94059222605493L94.63961718750001,106.61734854181609L94.6771875,98.34482750048241L95.12803125,95.60110439442926L95.203171875,104.5617797271245L95.2407421875,100.11515045166016L95.7667265625,113.26285027960935L96.2175703125,115.36889570785893L96.4805625,118.86596166135537L96.63084375,106.1567606313361L96.74355468750001,127.32633673151335L96.8186953125,105.58625006096231L96.93140625000001,107.36494887951348L97.23196875000001,115.2868894653188L97.5701015625,112.10092244628403L97.607671875,121.8051562189228L97.7203828125,112.70956252763668L97.79552343750001,129.2847775183618L98.24636718750001,110.96666606681215L98.28393750000001,122.313203452155L98.43421875,117.95595052300227L98.4717890625,113.36618719001612L98.509359375,116.92903526499867L98.54692968750001,124.3716929855032L98.54692968750001,124.48587188621363L99.03534375000001,118.41668446941507L99.185625,132.27334870915445L99.63646875,113.48146136022277L99.78675000000001,118.24631706583831L100.04974218749999,120.68420795268483L100.08731250000001,118.45917621503273L100.38787500000001,115.70084009402328L100.9514296875,122.24898297298286L100.989,129.0392510731601L101.1768515625,126.9163314284136L101.4774140625,123.6327676532997L101.590125,118.98051978440749L102.0033984375,123.36930234254234L102.04096875,130.78924912007318L102.15367968749999,130.36566011980176L102.34153125,127.54027937311265L102.3791015625,129.24752893381648L102.5293828125,128.45449257766208L102.64209375,126.8720825407654L102.7548046875,132.18711449081698L102.867515625,128.77220552663007L102.94265625000001,116.26786464535527L103.24321875000001,130.27733193462095L103.468640625,140.13542869500816L103.54378125,125.68616712776324L103.65649218749999,125.15482009698948L103.95705468749999,134.72785236106978L103.994625,133.5368916421301L104.1073359375,126.7616958634721L104.1824765625,131.58229489790068L104.48303906250001,131.29722804617552L104.821171875,126.23460507351491L105.19687499999999,131.97873063633838L105.53500781250001,134.67138356342912L105.572578125,125.5906030976524L105.6101484375,135.29823338343866L105.64771875,125.04510942474008L105.722859375,131.6918454017076L106.023421875,126.0214962499837L106.24884374999999,134.7624746542424L106.5118359375,133.10316492161817L107.075390625,136.28988331908153L107.1129609375,132.5282826949325L107.5638046875,127.55006849144897L107.63894531250001,128.46551829059092L107.67651562500001,134.55832348639768L107.7892265625,134.7717526468138L107.826796875,129.67706300980515L107.8643671875,135.845896396579L108.05221875,133.778194822371L108.1649296875,132.288232597212L108.42792187500001,129.62781121374832L108.578203125,133.0895317606628L108.803625,132.64882358039418L108.84119531249999,125.61446584016085L108.9163359375,135.35517090931535L109.14175781249999,133.00954882241786L109.2168984375,129.98516349680722L109.2920390625,133.5836231406364L109.329609375,127.40994936931465L109.5174609375,131.3740523685184L109.5926015625,131.5850695806245L110.15615625,128.3397719307492L110.23129687500001,126.647250800497L110.381578125,128.701140201961L111.208125,129.9413315181931L111.35840625,129.78002540870673L111.4711171875,126.12830975775918L111.54625781249999,127.17308850793374L111.7716796875,132.42377985248135L111.88439062500001,128.41459179214306L111.99710156249999,127.0046101498107L112.410375,128.84343808599644L112.5982265625,129.33739285171032L112.7109375,126.9092180652337L112.86121875,125.87923840805888L112.8987890625,131.05403582048086L113.12421093750001,129.58454689093762L113.3120625,126.33687026860812L113.387203125,127.30065325068104L113.5750546875,129.01968225816057L114.439171875,128.19883076763816L114.5518828125,129.30617884877654L114.5518828125,129.31519303450153L114.739734375,130.63809957417348L116.1298359375,129.60611545604965L116.3176875,131.39741105151674L116.3552578125,132.16897777012653L116.392828125,131.02011544195315L116.4303984375,131.7179528578288L116.46796875,130.6918619962202L116.5055390625,131.85208921755353L116.9563828125,131.22844041097494L117.06909375000001,131.00885183177888L117.1066640625,132.2171036762496L117.2569453125,130.04914372331567L117.48236718749999,133.72896893591516L117.6326484375,130.8368403462486L117.7077890625,132.23675964172514L117.7077890625,132.26289771828385L118.0083515625,128.72182548522122L118.3089140625,129.8900352190766L118.421625,129.65610449802546L118.496765625,130.35083040636448L118.647046875,132.99300200906066L118.6846171875,129.0834646295342L118.87246875000001,132.16597225641212L118.947609375,130.30470660577217L119.0603203125,134.82010938392744L119.1354609375,130.28062952020102L119.62387500000001,131.1347795588275L119.8117265625,133.81039574556053L120.07471875,129.46027502293387L120.22500000000001,132.77930904179811L120.33771093749999,131.12329925017224L120.41285156250001,132.5866876463923L120.41285156250001,132.5971904564649L120.7885546875,133.02776327191128L120.826125,132.81777773300806L120.93883593749999,126.97493894584477L121.502390625,135.49617095788318L121.6151015625,133.83594025671482L121.9156640625,131.89306407380434L121.953234375,133.65980678920943L122.253796875,133.12470522171094L122.2913671875,132.24730013849006L122.6295,135.45813095279865L122.6670703125,133.14961376993193L122.704640625,132.63107785913678L122.8924921875,132.98666593391033L123.08034375,128.29367403975792L123.56875781250001,133.8371556525429L123.606328125,133.48483689833017L123.83175,132.6071373878254L123.86932031250001,137.01516606865658L123.906890625,133.27629994166395L123.9444609375,133.43970708424848L124.1698828125,130.5842193812132L124.508015625,134.3238463083075L124.88371875,134.7925792551703L125.03399999999999,132.17749260717795L125.18428125,133.12859401727715L125.259421875,136.53882983161344L125.37213281250001,135.988693629288L125.40970312500001,134.96307856217027L125.40970312500001,134.96585795573063L125.5975546875,135.10278784152536L126.08596874999999,136.17302395237817L126.1986796875,131.4841917268932L126.4992421875,132.41494938938155L126.68709375,133.30304100530014L126.762234375,136.80697535847622L126.7998046875,136.29856774624852L126.9500859375,137.37743646506635L127.062796875,133.90366088743838L127.1003671875,139.16683594882488L127.28821875,134.00169104047947L127.363359375,135.37426157440575L127.4760703125,133.32706391625106L127.51364062500001,136.29216100855007L127.62635156249999,133.98972080482378L127.7390625,136.34617546035184L127.7766328125,134.44203177549772L127.814203125,136.95647846700416L128.49046875,136.6429487408863L128.71589062500001,133.609829524325L129.0540234375,133.58498457239733L129.09159375,136.89676390298538L129.46729687500002,138.17284001658362L129.5048671875,135.40632588333554L129.8805703125,134.2594256185823L130.3314140625,133.7815253838069L130.368984375,133.82238246914415L130.6319765625,133.46470749378204L130.7822578125,132.5533396345046L130.93253906249998,135.8435527553989L131.0076796875,137.2325782413698L131.04525,136.9836552830206L131.04525,137.0014245584607L131.871796875,134.14224120415747L131.9845078125,137.81701404456464L132.05964843750002,137.47077462491063L132.17235937499998,135.12342130558358L132.4353515625,139.3456958129795L132.472921875,136.45122240442367L132.472921875,136.46646902689503L132.623203125,132.99786830320954L132.9613359375,139.16105693009578L133.374609375,134.90661447536615L133.4873203125,139.00052222009333L133.8630234375,135.15426315243047L133.90059375,136.020152595722L134.0133046875,135.4653809302383L134.50171875,137.324649186184L134.576859375,135.93931228522626L134.8398515625,135.16980420218573L134.91499218750002,136.03787005196017L135.253125,138.37106377434813L135.40340625000002,136.10617718183332L135.8166796875,139.47266227948583L135.8918203125,136.53666284680367L135.9669609375,139.11321485187443L136.00453125,134.60438840153319L136.4929453125,137.70765668505595L136.90621875,136.2170537861271L137.1692109375,134.6146486035238L137.46977343749998,136.80401695312725L137.657625,136.76538809347483L137.9581875,137.73743623826238L138.22117968749998,135.53483279339142L138.25875,138.17510357354251L138.634453125,137.2830383669999L139.085296875,137.45638773010836L139.1228671875,137.35804901727371L139.385859375,138.2254082415667L139.7239921875,137.0197732667956L139.7991328125,136.49808345093496L139.8742734375,136.78067240263852L140.588109375,138.45522640231582L140.7008203125,137.23453088311686L140.7759609375,138.6869076989177L140.888671875,137.74696154975229L141.0013828125,136.74415870859391L141.11409375,137.33083686998322L141.1516640625,142.4512335420069L141.189234375,137.4775511632777L141.640078125,137.21136298899847L141.790359375,138.64831652595765L142.1284921875,138.46043187669582L142.20363281250002,138.1709486157116L142.241203125,136.62731818523673L142.466625,138.11335628355545L142.5041953125,140.1761114793933L142.61690625,138.99655569572417L142.842328125,140.1475296563779L142.9550390625,138.8906160481274L143.142890625,138.0020038847708L143.3307421875,139.92169804105328L143.8567265625,138.68499392157213L143.894296875,136.95722513459623L143.9694375,139.82077190124738L144.2324296875,137.9076858709256L145.02140624999998,140.9419380436755L145.05897656250002,139.06737252376558L145.397109375,139.65841174208455L145.7352421875,138.22053723658127L146.073375,139.3994252591704L146.11094531249998,141.76934113012004L146.22365625,138.95198647119105L146.298796875,140.00298117018409L146.63692968750001,139.27678334061056L146.6745,139.4737092629075L146.9750625,140.62612591725258L147.050203125,141.44308390137223L147.1629140625,139.18933725957243L147.6888984375,137.83983804761536L147.72646875,139.2106113974005L147.8391796875,141.05454705810797L148.1773125,139.1719931371303L148.2148828125,139.64724470405943L148.36516406249999,139.83083778123063L148.5154453125,140.13960014076696L148.703296875,136.8488970928722L148.74086718750002,141.86104580739305L148.92871875,143.16132384373083L149.00385937500002,139.01785103231668L149.00385937500002,139.0187743562791L149.3795625,140.33726919752854L149.454703125,140.10533940429903L149.49227343750002,140.33488315881954L149.5674140625,137.5006012864825L149.75526562500002,137.86497742682695L150.0933984375,142.17661532573402L150.4691015625,140.37048059515655L150.54424218749998,142.57757935579866L150.73209375,139.67304713351444L150.8448046875,138.72780718178385L150.8448046875,138.73156642934515L150.9199453125,139.85226502124635L150.9950859375,141.48284218408583L151.408359375,140.61043883156447L151.7464921875,140.6241567875776L151.8216328125,141.18693923060266L151.8967734375,140.78314045464828L152.19733593750001,141.561768717236L152.23490625,141.08800224152702L152.4227578125,142.05152848300833L152.53546874999998,140.2806590747916L152.5730390625,139.89727470899624L152.68575,141.24071107432246L152.72332031250002,140.2001438120173L152.760890625,140.47367146963046L152.9863125,139.73822155708655L153.0238828125,141.3630750535263L153.06145312499999,140.80871205311269L153.512296875,143.49148400055452L153.66257812499998,141.34806279517295L153.73771875,142.90296743520432L154.03828124999998,142.55207606446413L154.22613281250003,140.71069367716296L154.22613281250003,140.7062772679039L154.263703125,140.93454909655782L154.3764140625,140.05504769107534L154.63940624999998,141.2205251397358L154.71454687500002,141.53985037251067L154.864828125,142.59078265291947L154.9775390625,140.72124006247356L155.2029609375,140.95545814455383L155.691375,142.6950311101973L156.14221874999998,141.36127080313034L156.217359375,141.92823293587816L156.217359375,141.92957787971116L156.367640625,142.68831816812354L156.668203125,141.13947401930474L156.89362500000001,141.83212127101916L157.0814765625,142.90595528328168L157.23175781249998,141.90342920377023L157.34446874999998,141.90885844288601L157.7953125,141.14264323458903L159.8616796875,142.67585329463083L160.01196093750002,143.156657760135L160.50037500000002,139.58729224279523L160.9136484375,140.14273520248634L161.0639296875,140.8740490005455L161.3644921875,141.05224699216586L161.4020625,143.36575530634985L161.55234375,141.54038387474912L161.92804687499998,143.10214395965966L162.30375,142.92496704186004L162.3413203125,142.08193104434758L162.378890625,143.49634911699428L162.679453125,143.4622874133703L163.43085937499998,140.95998290305334L164.332546875,141.55308664548727L164.55796875,140.85899081153588L164.5955390625,140.6921553576572L164.70825000000002,141.54542211443186L165.083953125,143.36250247371692L165.4220859375,141.3895982409724L165.53479687499998,141.82321425682557L165.9105,142.09941413646771L166.0983515625,140.41577764393554L167.4508828125,139.1936335424996L167.78901562500002,142.30439912238054L167.86415625,140.3344238522566L168.0144375,141.59092761772789L168.23985937499998,141.57384259129566L168.3525703125,142.56627570351378L168.6155625,143.02117881199553L168.91612500000002,141.90616384438343L169.0288359375,141.13475964963436L169.32939843749998,140.6313101928681L169.4796796875,141.46400708187787L169.6299609375,142.3814872515698L170.49407812500002,142.78737292811275L170.644359375,142.84765043709842L170.90735156250003,142.30613153251923L171.0576328125,143.7345749432635L171.47090625,142.44391054660082L171.92174999999997,141.4288925062865L172.522875,141.93299676933222L173.4621328125,142.6376778529957L174.02568749999998,141.44959545518375L174.55167187499998,141.39882559205097L174.852234375,142.45288704563347L175.152796875,140.535223259901L175.37821875,141.40183699431105L175.41578906249998,141.68818872670334L176.054484375,143.3908169567585L176.3926171875,142.67378994822502L176.9186015625,142.27103815569234L177.03131249999998,140.30213577859104L177.857859375,143.23106424562218L178.4965546875,143.72712711068905L178.9473984375,142.22599195895924L179.060109375,141.27094051241875L179.28553125000002,142.42591868413405L179.961796875,141.0922419944157L180.0369375,142.4630530308932L180.71320312499998,142.9154511520432L180.863484375,141.2747704225282L180.9761953125,142.57857923085493L181.6524609375,142.67533510261111L181.8027421875,142.5320656085387L182.065734375,141.9600593475625L182.5541484375,141.38333282837021L182.7795703125,140.77065202697284L183.30555468749998,141.9216283430449L183.7563984375,140.75141768136785L184.31995312499998,140.84987298740697L184.620515625,141.84532692355828L184.6580859375,141.6236620431559L185.48463281250002,141.15998853474028L185.6349140625,142.2276843269873L186.1608984375,141.35101413426713L186.6117421875,141.72151318440837L186.6493125,142.5540228176655L186.91230468749998,143.518296904448L187.4382890625,142.18141095733478L187.6637109375,141.59803391465294L187.926703125,141.68393248588674L188.00184374999998,141.27098997620243L188.3399765625,142.22025062692248L188.4151171875,141.4207309819758L188.4526875,142.0274643522377L189.16652343750002,142.1987091491206L189.27923437500002,143.30088826486218L189.61736718749998,141.64954573454128L190.10578124999998,140.8041660958487L190.63176562499999,140.54736544109053L191.00746875,142.07599892343086L191.60859374999998,142.48322129984282L192.0218671875,141.42203706140734L192.69813281249998,143.04335271960332L193.0738359375,142.1036974645944L193.11140625,143.10980142446027L193.33682812499998,140.59243636971547L193.5998203125,141.6389699065023L193.7501015625,142.5246165982551L193.787671875,141.40979477494128L193.82524218749998,142.88260955508383L194.6517890625,143.11272803166258L194.689359375,141.24998671147557L194.839640625,142.70013647930074L194.91478124999998,142.80199772016041L195.2529140625,140.80139259083404L195.40319531249997,141.5507571368168L196.49273437500003,142.63864239677787L196.5303046875,140.3685774171932L196.8684375,140.7298667818929L196.98114843750002,142.74848850557788L197.244140625,144.64206342864782L197.61984375,143.3424025118972L197.6574140625,143.1445815306571L197.694984375,141.85181021235056L197.7325546875,142.62391749945365L197.92040624999998,141.4811156624928L198.145828125,141.41139763707503L198.296109375,141.45838469846382L198.37125,142.68694024843472L198.972375,141.62225821386608L199.197796875,141.57137175752885L199.2353671875,143.91339947614404L199.5359296875,141.0705839234094L200.249765625,141.24428188842205L200.8884609375,141.87582370162838L201.8652890625,143.40795262468356L202.72940624999998,142.55708368370932L203.21782031249998,142.4701075086163L203.33053125,140.94998650790916L204.4952109375,143.0541593786329L204.53278125,141.03656579502342L205.13390625,140.6840197429475L205.1714765625,140.4423726716389L205.5471796875,143.7246079908477L205.659890625,141.98670972759527L205.73503125,143.24169778140885L206.1483046875,139.95765585638583L206.37372656250002,141.4223161784725L206.48643750000002,144.15308919486898L206.63671875,143.55037416817828L207.31298437499998,140.19516681320965L207.3505546875,142.5171569885893L207.5008359375,140.30998403227164L207.613546875,142.6612897434582L207.6886875,139.7268072001429L208.214671875,140.68669549810392L208.364953125,142.86621113307774L208.7782265625,140.33975651922327L208.89093749999998,141.41414052165217L209.64234375,143.24473744868817L209.94290625,144.59580890234145L210.318609375,143.23482231547433L210.3561796875,140.32012175251214L210.769453125,140.9415599990429L211.6335703125,143.56225018710313L211.821421875,142.14067164291112L212.4601171875,143.32146637659105L214.11321093749999,141.31438384701806L214.15078125,142.21820965699024L214.3010625,140.1714100645234L214.45134375,141.63765087227029L215.127609375,141.98002033970423L215.35303125000002,140.36628206208763L215.3906015625,141.9801439991635L216.96855468750002,143.09738248162387L217.2691171875,141.84037936747902L217.5696796875,142.45759552675815L217.60725,139.6395201098381L218.2459453125,140.98813486223418L218.734359375,141.8046464945914L218.88464062499997,140.53326826273567L219.29791406249998,141.76819992996752L219.7487578125,144.35065108009923L219.86146875,141.2669480784486L219.93660937500002,141.12549343415432L220.086890625,142.7471223629804L220.38745312499998,142.15128515764243L222.64167187500001,142.22630287417107L222.86709375,143.1356497845716L222.9046640625,141.1181315743468L222.97980468749998,141.04067246677977L223.543359375,143.28132533840835L223.8063515625,141.26897256045294L224.67046875000003,141.92308516924578L224.82075,140.49826674722135L225.2340234375,143.12360888636775L225.346734375,141.7399525763467L225.9854296875,141.00618678786688L226.21085156249998,144.65796485739864L226.69926562499998,139.18758011754187L227.450671875,142.44773810129197L227.78880468749998,141.23160149415747L228.3899296875,141.66863404421343L228.46507031250002,142.64023701494767L228.80320312499998,141.89385207307834L229.1413359375,140.50836913618775L229.44189843750002,142.64364294976824L230.1933046875,142.9435136053297L230.26844531249998,141.41857695196651L230.38115624999998,140.84589233052813L230.45629687500002,141.9981311507937L230.68171875,143.36618634789355L231.1325625,142.47227684884436L231.1701328125,141.62332757376134L231.43312500000002,141.5405699527926L231.54583593750002,142.44779934216706L231.7336875,141.70502878963532L231.9966796875,141.93002187605532L232.0718203125,143.16440944166646L233.98790624999998,142.1222334286819L234.4011796875,142.75081448112098L234.513890625,143.88308524298998L234.7017421875,142.53384748246106L235.3028671875,141.79181064272092L235.4531484375,141.46598092238935L235.49071874999998,142.35682366684907L235.56585937499997,141.93000185500003L235.9415625,142.91189682587154L236.09184374999998,141.61761803987127L236.24212500000002,141.60708460936115L236.58025781249998,141.83230852677178L236.617828125,140.8722494609861L236.8056796875,141.7501008959694L236.9559609375,143.1149774561119L236.99353125,141.78037744243113L237.5570859375,141.50118264845676L238.72176562500002,142.23480828954942L239.17260937499998,141.04530086368322L239.4356015625,141.47434265725315L239.623453125,142.50468740426004L240.1494375,141.37670114822686L240.4875703125,142.39024234128493L241.051125,141.79174469100934L241.4643984375,141.78084028212146L241.727390625,142.03433981817216L241.76496093749998,143.41702805128364L241.87767187499998,142.57642637855477L242.10309375,142.7851341030457L243.53076562500002,140.34482773476176L243.6434765625,141.5755349593237L243.7186171875,142.23006094402325L243.831328125,141.22115639183255L243.86889843749998,142.00231672906213L244.0191796875,143.11337930481466L245.2214296875,142.82134865896984L245.7474140625,142.9550881307158L246.7618125,142.23050729578569L246.98723437499999,140.6455133650452L247.13751562500002,142.3896746854815L247.81378125,141.32176808329922L248.0016328125,140.72217987436386L248.56518749999998,141.02216123458413L248.6778984375,140.37968085892498L248.790609375,141.51912975797637L249.57958593749998,143.84771392680705L249.992859375,140.21065604376298L250.4812734375,141.76042233883507L250.51884375,142.02189496573476L250.894546875,142.1138716938181L251.0072578125,143.07907970394524L251.15753906249998,141.63505755675334L251.796234375,143.24242325023644L251.871375,141.17136756040983L251.9840859375,140.11694808325007L252.77306249999998,142.7688805392633L252.84820312500003,142.73342796114997L253.0360546875,141.46324863719445L253.44932812500002,142.91455373768179L253.74989062499998,142.40259179928236L253.900171875,143.3639840318097L254.53886718750002,142.40054258538618L254.76428906249998,141.83355572074652L255.1399921875,142.23166616157525L255.2151328125,141.3611318334523L255.44055468750003,141.76651109506685L255.62840625,142.03971723808598L255.8162578125,140.4947194873045L255.92896875000002,143.1374587458041L256.4925234375,142.6066993918891L256.53009375,143.7844356149435L257.5444921875,141.82419411082648L257.8450546875,140.98348526656628L258.2207578125,143.57642156113354L258.63403125,141.54764562928014L259.42300781250003,143.1196541390899L259.64842968749997,142.8727167983436L260.061703125,141.31737876135028L260.0992734375,140.70736429343623L261.3015234375,141.79828568754925L261.33909375,144.29558493403925L261.564515625,141.5875181497799L263.518171875,141.65670385066835L263.5933125,140.3221968760093L263.85630468749997,140.7639025759159L263.969015625,143.76921490207314L264.2320078125,141.81418240546353L265.24640625,140.37601347267628L266.0353828125,140.437323832574L266.4110859375,141.76663475452614L267.0122109375,141.9328248237984L267.0873515625,141.47792995928063L267.1624921875,142.63475595662993L267.35034375,142.20459298396275L268.55259374999997,144.27116042427303L268.74044531249996,142.80908281832106L269.15371875,141.11672303422046L269.1912890625,142.39019405521037L269.228859375,142.4422005129357L269.3415703125,142.01400431452527L269.9426953125,140.99038899752003L270.95709375,142.19768100904508L271.0698046875,142.12967183958324L271.8212109375,140.58818248431714L272.0466328125,140.30305910255345L272.084203125,141.47817727819913L273.06103125,140.70820635546826L273.3240234375,142.9720589193619L273.3991640625,142.1924555136098L273.587015625,140.346278672417L274.8268359375,141.40299232697322L274.93954687499996,140.35876003383763L275.6533828125,141.50825008098036L275.690953125,141.64490791596472L276.02908593750004,141.9914134978834L276.292078125,139.81944580076055L276.4047890625,141.1135726622823L276.66778125,141.55729577793844L276.7804921875,142.55103614729725L277.494328125,141.73121279685034L277.6070390625,141.62785704309744L277.9827421875,141.691907932154" style="fill: none;" fill="none"></path></g></g></g></g></g></g><g transform="translate(29, 177)" clip-path="url(#clip_1)"><clipPath id="clip_1"><rect width="300" height="22"></rect></clipPath><g><g><line x1="0" y1="0" x2="0" y2="5" style="visibility: inherit;" fill="rgb(0, 0, 0)" stroke="rgb(204, 204, 204)" stroke-width="1px"></line><line x1="37.5703125" y1="0" x2="37.5703125" y2="5" style="visibility: inherit;" fill="rgb(0, 0, 0)" stroke="rgb(204, 204, 204)" stroke-width="1px"></line><line x1="75.140625" y1="0" x2="75.140625" y2="5" style="visibility: inherit;" fill="rgb(0, 0, 0)" stroke="rgb(204, 204, 204)" stroke-width="1px"></line><line x1="112.7109375" y1="0" x2="112.7109375" y2="5" style="visibility: inherit;" fill="rgb(0, 0, 0)" stroke="rgb(204, 204, 204)" stroke-width="1px"></line><line x1="150.28125" y1="0" x2="150.28125" y2="5" style="visibility: inherit;" fill="rgb(0, 0, 0)" stroke="rgb(204, 204, 204)" stroke-width="1px"></line><line x1="187.8515625" y1="0" x2="187.8515625" y2="5" style="visibility: inherit;" fill="rgb(0, 0, 0)" stroke="rgb(204, 204, 204)" stroke-width="1px"></line><line x1="225.421875" y1="0" x2="225.421875" y2="5" style="visibility: inherit;" fill="rgb(0, 0, 0)" stroke="rgb(204, 204, 204)" stroke-width="1px"></line><line x1="262.9921875" y1="0" x2="262.9921875" y2="5" style="visibility: inherit;" fill="rgb(0, 0, 0)" stroke="rgb(204, 204, 204)" stroke-width="1px"></line><line x1="300.5625" y1="0" x2="300.5625" y2="5" style="visibility: inherit;" fill="rgb(0, 0, 0)" stroke="rgb(204, 204, 204)" stroke-width="1px"></line></g><g transform="translate(0, 8)"><text x="0" y="0" dx="0em" dy="0.95em" style="text-anchor: middle; visibility: hidden; font-family: &quot;Helvetica Neue&quot;, sans-serif; font-size: 12px; font-weight: 200;" fill="rgb(50, 49, 63)" stroke="none" stroke-width="1px">-1k</text><text x="37.5703125" y="0" dx="0em" dy="0.95em" style="text-anchor: middle; visibility: inherit; font-family: &quot;Helvetica Neue&quot;, sans-serif; font-size: 12px; font-weight: 200;" fill="rgb(50, 49, 63)" stroke="none" stroke-width="1px">0</text><text x="75.140625" y="0" dx="0em" dy="0.95em" style="text-anchor: middle; visibility: inherit; font-family: &quot;Helvetica Neue&quot;, sans-serif; font-size: 12px; font-weight: 200;" fill="rgb(50, 49, 63)" stroke="none" stroke-width="1px">1k</text><text x="112.7109375" y="0" dx="0em" dy="0.95em" style="text-anchor: middle; visibility: inherit; font-family: &quot;Helvetica Neue&quot;, sans-serif; font-size: 12px; font-weight: 200;" fill="rgb(50, 49, 63)" stroke="none" stroke-width="1px">2k</text><text x="150.28125" y="0" dx="0em" dy="0.95em" style="text-anchor: middle; visibility: inherit; font-family: &quot;Helvetica Neue&quot;, sans-serif; font-size: 12px; font-weight: 200;" fill="rgb(50, 49, 63)" stroke="none" stroke-width="1px">3k</text><text x="187.8515625" y="0" dx="0em" dy="0.95em" style="text-anchor: middle; visibility: inherit; font-family: &quot;Helvetica Neue&quot;, sans-serif; font-size: 12px; font-weight: 200;" fill="rgb(50, 49, 63)" stroke="none" stroke-width="1px">4k</text><text x="225.421875" y="0" dx="0em" dy="0.95em" style="text-anchor: middle; visibility: inherit; font-family: &quot;Helvetica Neue&quot;, sans-serif; font-size: 12px; font-weight: 200;" fill="rgb(50, 49, 63)" stroke="none" stroke-width="1px">5k</text><text x="262.9921875" y="0" dx="0em" dy="0.95em" style="text-anchor: middle; visibility: inherit; font-family: &quot;Helvetica Neue&quot;, sans-serif; font-size: 12px; font-weight: 200;" fill="rgb(50, 49, 63)" stroke="none" stroke-width="1px">6k</text><text x="300.5625" y="0" dx="0em" dy="0.95em" style="text-anchor: middle; visibility: hidden; font-family: &quot;Helvetica Neue&quot;, sans-serif; font-size: 12px; font-weight: 200;" fill="rgb(50, 49, 63)" stroke="none" stroke-width="1px">7k</text></g><line x1="0" y1="0" x2="300.5625" y2="0" fill="rgb(0, 0, 0)" stroke="rgb(204, 204, 204)" stroke-width="1px"></line></g></g></g></g></svg>