<svg viewBox="0 0 330 200" xmlns="http://www.w3.org/2000/svg"><g><g><g><g><g><line x1="39.15625" y1="177.828125" x2="34.15625" y2="177.828125" style="visibility: inherit;" fill="rgb(0, 0, 0)" stroke="rgb(204, 204, 204)" stroke-width="1px"></line><line x1="39.15625" y1="155.599609375" x2="34.15625" y2="155.599609375" style="visibility: inherit;" fill="rgb(0, 0, 0)" stroke="rgb(204, 204, 204)" stroke-width="1px"></line><line x1="39.15625" y1="133.37109375" x2="34.15625" y2="133.37109375" style="visibility: inherit;" fill="rgb(0, 0, 0)" stroke="rgb(204, 204, 204)" stroke-width="1px"></line><line x1="39.15625" y1="111.142578125" x2="34.15625" y2="111.142578125" style="visibility: inherit;" fill="rgb(0, 0, 0)" stroke="rgb(204, 204, 204)" stroke-width="1px"></line><line x1="39.15625" y1="88.9140625" x2="34.15625" y2="88.9140625" style="visibility: inherit;" fill="rgb(0, 0, 0)" stroke="rgb(204, 204, 204)" stroke-width="1px"></line><line x1="39.15625" y1="66.685546875" x2="34.15625" y2="66.685546875" style="visibility: inherit;" fill="rgb(0, 0, 0)" stroke="rgb(204, 204, 204)" stroke-width="1px"></line><line x1="39.15625" y1="44.45703125" x2="34.15625" y2="44.45703125" style="visibility: inherit;" fill="rgb(0, 0, 0)" stroke="rgb(204, 204, 204)" stroke-width="1px"></line><line x1="39.15625" y1="22.228515625" x2="34.15625" y2="22.228515625" style="visibility: inherit;" fill="rgb(0, 0, 0)" stroke="rgb(204, 204, 204)" stroke-width="1px"></line><line x1="39.15625" y1="0" x2="34.15625" y2="0" style="visibility: inherit;" fill="rgb(0, 0, 0)" stroke="rgb(204, 204, 204)" stroke-width="1px"></line></g><g transform="translate(29.15625, 0)"><text x="0" y="177.828125" dx="0em" dy="0.3em" style="text-anchor: end; visibility: hidden; font-family: &quot;Helvetica Neue&quot;, sans-serif; font-size: 12px; font-weight: 200;" fill="rgb(50, 49, 63)" stroke="none" stroke-width="1px">-12</text><text x="0" y="155.599609375" dx="0em" dy="0.3em" style="text-anchor: end; visibility: inherit; font-family: &quot;Helvetica Neue&quot;, sans-serif; font-size: 12px; font-weight: 200;" fill="rgb(50, 49, 63)" stroke="none" stroke-width="1px">-10</text><text x="0" y="133.37109375" dx="0em" dy="0.3em" style="text-anchor: end; visibility: hidden; font-family: &quot;Helvetica Neue&quot;, sans-serif; font-size: 12px; font-weight: 200;" fill="rgb(50, 49, 63)" stroke="none" stroke-width="1px">-8</text><text x="0" y="111.142578125" dx="0em" dy="0.3em" style="text-anchor: end; visibility: inherit; font-family: &quot;Helvetica Neue&quot;, sans-serif; font-size: 12px; font-weight: 200;" fill="rgb(50, 49, 63)" stroke="none" stroke-width="1px">-6</text><text x="0" y="88.9140625" dx="0em" dy="0.3em" style="text-anchor: end; visibility: hidden; font-family: &quot;Helvetica Neue&quot;, sans-serif; font-size: 12px; font-weight: 200;" fill="rgb(50, 49, 63)" stroke="none" stroke-width="1px">-4</text><text x="0" y="66.685546875" dx="0em" dy="0.3em" style="text-anchor: end; visibility: inherit; font-family: &quot;Helvetica Neue&quot;, sans-serif; font-size: 12px; font-weight: 200;" fill="rgb(50, 49, 63)" stroke="none" stroke-width="1px">-2</text><text x="0" y="44.45703125" dx="0em" dy="0.3em" style="text-anchor: end; visibility: hidden; font-family: &quot;Helvetica Neue&quot;, sans-serif; font-size: 12px; font-weight: 200;" fill="rgb(50, 49, 63)" stroke="none" stroke-width="1px">0</text><text x="0" y="22.228515625" dx="0em" dy="0.3em" style="text-anchor: end; visibility: inherit; font-family: &quot;Helvetica Neue&quot;, sans-serif; font-size: 12px; font-weight: 200;" fill="rgb(50, 49, 63)" stroke="none" stroke-width="1px">2</text><text x="0" y="0" dx="0em" dy="0.3em" style="text-anchor: end; visibility: hidden; font-family: &quot;Helvetica Neue&quot;, sans-serif; font-size: 12px; font-weight: 200;" fill="rgb(50, 49, 63)" stroke="none" stroke-width="1px">4</text></g><line x1="39.15625" y1="0" x2="39.15625" y2="177.828125" fill="rgb(0, 0, 0)" stroke="rgb(204, 204, 204)" stroke-width="1px"></line></g></g><g transform="translate(39, 0)" clip-path="url(#clip_0)"><clipPath id="clip_0"><rect width="290" height="177"></rect></clipPath><g><g><g><line x1="0" y1="0" x2="0" y2="177.828125" fill="rgb(0, 0, 0)" stroke="rgb(60, 60, 60)" stroke-width="1px" opacity="0.25"></line><line x1="36.35546875" y1="0" x2="36.35546875" y2="177.828125" fill="rgb(0, 0, 0)" stroke="rgb(60, 60, 60)" stroke-width="1px" opacity="0.25"></line><line x1="72.7109375" y1="0" x2="72.7109375" y2="177.828125" fill="rgb(0, 0, 0)" stroke="rgb(60, 60, 60)" stroke-width="1px" opacity="0.25"></line><line x1="109.06640625" y1="0" x2="109.06640625" y2="177.828125" fill="rgb(0, 0, 0)" stroke="rgb(60, 60, 60)" stroke-width="1px" opacity="0.25"></line><line x1="145.421875" y1="0" x2="145.421875" y2="177.828125" fill="rgb(0, 0, 0)" stroke="rgb(60, 60, 60)" stroke-width="1px" opacity="0.25"></line><line x1="181.77734375" y1="0" x2="181.77734375" y2="177.828125" fill="rgb(0, 0, 0)" stroke="rgb(60, 60, 60)" stroke-width="1px" opacity="0.25"></line><line x1="218.1328125" y1="0" x2="218.1328125" y2="177.828125" fill="rgb(0, 0, 0)" stroke="rgb(60, 60, 60)" stroke-width="1px" opacity="0.25"></line><line x1="254.48828125" y1="0" x2="254.48828125" y2="177.828125" fill="rgb(0, 0, 0)" stroke="rgb(60, 60, 60)" stroke-width="1px" opacity="0.25"></line><line x1="290.84375" y1="0" x2="290.84375" y2="177.828125" fill="rgb(0, 0, 0)" stroke="rgb(60, 60, 60)" stroke-width="1px" opacity="0.25"></line></g><g><line x1="0" y1="177.828125" x2="290.84375" y2="177.828125" fill="rgb(0, 0, 0)" stroke="rgb(60, 60, 60)" stroke-width="1px" opacity="0.25"></line><line x1="0" y1="155.599609375" x2="290.84375" y2="155.599609375" fill="rgb(0, 0, 0)" stroke="rgb(60, 60, 60)" stroke-width="1px" opacity="0.25"></line><line x1="0" y1="133.37109375" x2="290.84375" y2="133.37109375" fill="rgb(0, 0, 0)" stroke="rgb(60, 60, 60)" stroke-width="1px" opacity="0.25"></line><line x1="0" y1="111.142578125" x2="290.84375" y2="111.142578125" fill="rgb(0, 0, 0)" stroke="rgb(60, 60, 60)" stroke-width="1px" opacity="0.25"></line><line x1="0" y1="88.9140625" x2="290.84375" y2="88.9140625" fill="rgb(0, 0, 0)" stroke="rgb(60, 60, 60)" stroke-width="1px" opacity="0.25"></line><line x1="0" y1="66.685546875" x2="290.84375" y2="66.685546875" fill="rgb(0, 0, 0)" stroke="rgb(60, 60, 60)" stroke-width="1px" opacity="0.25"></line><line x1="0" y1="44.45703125" x2="290.84375" y2="44.45703125" fill="rgb(0, 0, 0)" stroke="rgb(60, 60, 60)" stroke-width="1px" opacity="0.25"></line><line x1="0" y1="22.228515625" x2="290.84375" y2="22.228515625" fill="rgb(0, 0, 0)" stroke="rgb(60, 60, 60)" stroke-width="1px" opacity="0.25"></line><line x1="0" y1="0" x2="290.84375" y2="0" fill="rgb(0, 0, 0)" stroke="rgb(60, 60, 60)" stroke-width="1px" opacity="0.25"></line></g></g></g><g><g><line x1="0" y1="44.45703125" x2="290.84375" y2="44.45703125" fill="rgb(0, 0, 0)" stroke="rgb(153, 153, 153)" stroke-width="1.5px"></line></g></g><g><g><line x1="36.35546875" y1="0" x2="36.35546875" y2="177.828125" fill="rgb(0, 0, 0)" stroke="rgb(153, 153, 153)" stroke-width="1.5px"></line></g></g><g><g><g><g><g><path stroke="rgb(255, 112, 67)" stroke-width="2px" d="M36.682667968749996,38.76565321837552L36.791734375,34.75679793447489L37.082578125,31.244654442387997L37.11893359374999,30.90660327354442L37.1552890625,30.334961476212754L37.373421875,29.694798049997473L37.627910156249996,26.464180747917226L37.700621093749994,26.305281884555768L38.06417578125,25.9193184225295L38.20959765625,25.413504818398337L38.282308593749995,24.622517262391597L38.64586328125,25.843734094600734L39.15483984375,24.549605129202746L39.227550781249995,21.46096062240167L39.37297265625,24.05340445828162L39.66381640625,24.6216625806112L39.700171875,24.577770573477267L40.499992187500006,24.672478283242185L40.60905859375,24.67444584724126L40.863546875000004,25.66129677949823L40.97261328125,27.46841384497708L41.0816796875,30.875009684842695L41.19074609375,32.33244036374094L41.299812499999994,31.232134464556594L41.66336718749999,30.047522896894236L41.954210937499994,31.94682651811678L41.990566406250004,31.972363768340188L42.13598828125,35.01160691151162L42.49954296875,36.89019633496511L42.64496484375,39.64506947528176L42.935808593750004,39.04937189086783L43.00851953125,40.253967514105284L43.9901171875,45.24906677996222L44.02647265625,46.20718444683044L44.31731640625,45.74184435952182L44.390027343750006,42.76455906038797L44.4263828125,45.795668626554146L44.7172265625,47.080782649991335L44.753582031250005,46.41213485074229L44.7899375,48.541527482195164L44.97171484375001,49.02342079794224L45.2989140625,51.77542712148579L45.69882421875,53.3513307835632L45.98966796875,52.98928443226494L46.098734375,55.52325558991711L46.57135546875,56.12166798073943L46.7531328125,59.93407257859606L46.86219921875,61.976326187908L47.00762109375,59.53345263363667L47.00762109375,58.222875898428086L47.6256640625,62.24813001625543L47.662019531249996,64.5718903736707L47.88015234375,62.56825175226494L47.98921875,68.95278415250414L48.025574218749995,68.92732114780027L48.061929687500005,66.87501591183512L48.09828515625,65.28303118769203L48.134640625,69.14104101884493L48.352773437500005,70.44079283932236L48.53455078125,71.82109893446803L49.33437109375,73.05412599551316L49.40708203125,71.81062822834483L49.47979296875,72.11932285008331L49.62521484375,74.08220653293283L49.77063671875,78.19895040408673L50.025124999999996,73.10414767922998L50.097835937499994,75.2455804238441L50.2432578125,75.54850906184153L50.315968749999996,79.1653670319592L50.35232421875,80.90052344530373L50.388679687499994,78.57782278994948L50.5341015625,79.88584077344973L50.6068125,80.99282190605484L50.64316796875,82.45874361711432L50.75223437499999,81.60166842202955L50.78858984375,81.79568462441483L50.86130078125,82.34870621819866L50.93401171875,78.64906534521025L51.043078124999994,79.91928640864485L51.043078124999994,80.83124555416224L51.47934375,80.32889565239738L51.5520546875,80.62646104043955L52.1337421875,83.98138497968753L52.2791640625,83.70862920440877L52.38823046875,83.9165773606756L52.64271875,86.56044843015574L52.7154296875,81.83889640233667L52.82449609375,85.12694094843717L52.860851562499995,85.01738972618165L52.96991796875,84.36931409443308L53.0062734375,90.09763718008183L53.260761718750004,92.4378684355866L53.2971171875,90.79008042851395L53.478894531250006,88.88526486107293L53.51525,89.37084552626213L53.69702734375,89.3347323712656L53.76973828125001,89.85388523687119L53.842449218750005,93.44999619427588L53.98787109375,88.65808242062192L54.0242265625,89.37331377342022L54.133292968750006,85.48064139913576L54.133292968750006,83.29654554404203L54.242359375,88.82947528847984L54.569558593749996,90.78195522607226L54.6059140625,93.18168264146661L54.78769140625,88.37752265809335L55.3330234375,91.89164148541307L55.55115625,92.24620332731017L55.66022265625,92.95295219928448L55.73293359375,95.46523669100061L55.7692890625,99.29859093754742L55.842,94.24534566546531L55.95106640625,95.31360840407045L56.02377734375,92.92728073064704L56.205554687500005,94.01998562761676L56.31462109375,95.14527779142429L56.4236875,97.18480132953297L56.60546484375,93.43970949611646L57.3689296875,97.46674247480382L57.441640625000005,99.81982810175091L57.441640625000005,101.39934898540777L57.47799609375,104.22956691496314L57.805195312500004,101.4459333295017L58.023328125000006,102.75858680564997L58.27781640625,101.09461173938267L58.750437500000004,102.42338890244247L58.968570312500006,100.48893365694393L59.15034765625,102.26516489402687L59.22305859375,103.16131988035879L59.2594140625,102.08290598592754L59.62296875,102.87759621844647L59.73203515625,103.02409968990659L59.87745703125,102.52516061644897L59.9865234375,98.40741000465985L60.2773671875,93.06564773853086L60.31372265625,99.13279215442664L60.53185546875,100.89516293710486L60.5682109375,96.92557188302139L60.640921875,97.81857058364069L60.640921875,98.53125441440443L61.513453125,103.05750802602469L61.586164062499996,107.7211976986891L61.62251953125,106.78911156046485L61.658874999999995,107.73467961006222L62.05878515625,103.36305598424588L62.276917968750006,103.63580123357751L62.3132734375,102.29427887103128L62.4586953125,105.03358476091871L62.531406249999996,106.97707781481415L62.967671875,110.327269628496L63.00402734375,111.6003672733015L63.1858046875,110.10493998123594L63.3312265625,108.0087132872247L63.4039375,101.57498943000157L63.44029296875,104.94691287391854L64.02198046875,105.2170669127686L64.09469140624999,107.82502826015254L64.5673125,115.42775163067938L64.85815625000001,115.23820833236611L64.85815625000001,115.3373433869072L65.149,119.9415681721114L65.2217109375,113.79556183193432L65.5125546875,113.33462196375761L65.5125546875,113.27202565188458L65.91246484375,114.05502327920645L66.02153125,112.37748877155273L66.0942421875,120.63023223659391L66.166953125,120.041129694654L66.2396640625,123.94212452118751L66.312375,123.73153703127895L66.5305078125,127.06434592229631L66.6759296875,129.9118228439093L66.78499609375,131.78379810801746L66.93041796874999,128.23133926344127L67.07583984375,130.40194757246798L67.14855078125,128.26928808611677L67.18490625,120.12572537629036L67.22126171875,123.83761793963299L67.29397265625,130.25552238131874L67.4030390625,128.48905460189468L67.58481640625,132.4869786632847L67.76659375,137.77225438104816L67.8393046875,141.33000471984892L67.87566015625,142.51302118850083L67.91201562500001,145.3995922785391L68.02108203125,139.61877548900333L68.0574375,140.7060249668782L68.09379296875,140.53889401651475L68.45734765625,140.48491778759393L68.60276953125,141.27554440148612L68.7118359375,134.3128171966847L68.8572578125,143.50129015856245L68.8572578125,149.26223412931418L69.03903515625,147.44634133371983L69.1481015625,142.5453610840039L69.54801171875,142.93291535549443L69.62072265625,140.79958949095357L69.8025,145.4148219725868L69.8752109375,148.02719235875492L70.0206328125,148.162040247147L70.27512109375,149.04063728742284L70.3114765625,146.96775857309987L70.42054296875,145.29570606917434L70.4568984375,146.43868835610328L71.07494140625,156.2243441482912L71.1840078125,158.72323466780963L71.51120703125001,163.4619860921394L71.692984375,158.59500465275892L71.72933984375,165.67012225900322L71.7656953125,164.3277624026044L72.09289453125001,161.015490839264L72.3473828125,166.73844075054302L72.38373828125,164.45353448674305L72.7109375,162.6143608989431L72.78364843749999,162.67066234772582L72.92907031249999,165.893212241606L73.25626953125,163.99339504215186L73.36533593749999,162.74076545341651L73.8016015625,165.33564585397448L74.019734375,161.85113057166222L74.09244531249999,168.83078762170604L74.09244531249999,173.2925546833988L74.12880078125,166.71682485344206L74.16515625,170.98689603970763L74.23786718749999,165.96873967858443L74.310578125,173.66200509674724L74.456,173.4238458268784L74.71048828125001,163.5394608415182L75.32853125,163.48229943883513L75.40124218749999,170.82635551458355L75.5466640625,167.7277439468548L75.6920859375,165.80726169994148L75.91021875,166.32155985579294L76.09199609375,166.30126959723475L76.1283515625,171.66455941657566L76.16470703125,169.514700888904L76.2737734375,168.9163361057264L76.31012890625001,163.65948686277105L76.45555078125001,152.79940597467265L76.52826171875,152.14628700466537L76.89181640625,155.23523578525536L77.0008828125,151.801175308114L77.0008828125,149.99962681271774L77.03723828125001,147.124807391245L77.10994921875,150.70657700295976L77.18266015625001,154.05157978532154L77.18266015625001,156.3513491109606L77.32808203124999,152.49209294501523L77.36443750000001,151.91371863504398L77.47350390624999,148.29229049560516L77.800703125,144.66221782484408L77.98248046875,140.9769887077436L78.091546875,142.94953763396293L78.20061328124999,133.9149127483636L78.27332421875,124.62148605206728L78.49145703125,110.38583651323093L78.52781250000001,105.241531832972L78.964078125,102.00802462821235L79.14585546875,96.66810062170046L79.7638984375,76.03301698015639L79.80025390624999,77.09403125298924L79.83660937500001,69.16435477720442L80.09109765625,64.45508558280316L80.6364296875,40.322747678172846L80.7818515625,45.176851294182114L80.89091796875,45.013843355621304L80.9272734375,35.20392217705873L80.96362890625,44.355287589327844L81.0726953125,41.22575222861548L81.5089609375,43.829602446626325L81.54531640625,41.16945364078623L81.72709375000001,33.200074540455574L81.76344921875,34.797850620749244L81.83616015625,36.15436196074049L82.0906484375,42.56310603317712L82.19971484375,24.68285809336362L82.3814921875,27.245274697263568L82.63598046875,29.264229155418008L82.70869140625,19.419835648662882L82.74504687499999,19.25909496872248L83.21766796875,18.82700204382016L83.43580078125,18.959028843222086L83.617578125,22.497997753353758L83.72664453125,22.248084145430823L84.01748828125,25.76275791050142L84.1265546875,26.21230943804173L84.16291015624999,23.924803721488644L84.4173984375,28.974296389568536L84.52646484375,27.446719768150842L84.59917578125,31.962369903179507L85.03544140625,35.97141807444544L85.14450781250001,40.707010925070364L85.25357421875,40.896405443329144L85.47170703125,34.93850826980386L85.61712890625,37.453386396239495L85.87161718750001,35.485970288556956L86.08975,37.46307234803865L86.1624609375,36.58624014982598L86.41694921874999,39.29413105981956L86.41694921874999,41.11352961994655L86.45330468750001,38.03230220891501L87.03499218750001,35.48205200958233L87.07134765625,41.29322480561126L87.07134765625,44.97253197745553L87.398546875,43.90890526103121L87.689390625,42.684969211829554L87.7621015625,40.440704386063146L88.561921875,38.79082084968849L88.70734374999999,41.51078473903337L88.88912109374999,42.088913135618554L88.9981875,38.9760564219672L89.0708984375,35.96175422194412L89.36174218750001,37.67989474917388L89.39809765625,46.05243268186561L89.434453125,42.89023698091336L90.27062890625001,34.558808368450855L90.41605078125001,35.03597999409226L90.85231640625,37.03332640239083L90.99773828125001,38.0041231135412L91.07044921875,42.96805293007995L91.14316015625,44.07861312341274L91.179515625,44.375115594932936L91.36129296874999,43.324440564651496L91.43400390625,34.33658165540646L91.57942578125001,28.232482412420836L91.61578125,27.5715092868883L92.052046875,33.611860278883796L92.1247578125,28.582162861646253L92.16111328125001,30.188695883897566L92.67008984374999,19.5523634906248L93.10635546875,20.636370354854222L93.36084375,17.09917690487245L93.506265625,20.17837834771896L93.61533203125,13.386578070805513L93.68804296875,21.038330053648963L93.797109375,27.078208679362604L94.087953125,25.4672896444973L94.41515234375,28.584116306464495L94.4515078125,23.614954565464302L94.56057421875,27.15847325444153L94.63328515625001,19.245608543201854L95.06955078125,23.00501324413395L95.10590625,22.313087641857862L95.251328125,23.64081519766171L95.28768359375,28.153487024372907L95.32403906249999,26.556543208198917L95.36039453125001,23.66829831190759L95.36039453125001,22.07928356513591L95.833015625,24.428837245987125L95.9784375,18.455034499171376L96.414703125,26.7970303955245L96.560125,27.20903440472145L96.81461328124999,25.93483116440717L96.85096875,28.697563156449775L97.1418125,29.241947117053854L97.68714453125,32.34504114898496L97.7235,27.460601711738576L97.90527734375,29.547685593142916L98.19612109375001,28.978113045781754L98.3051875,33.76648323192592L98.70509765624999,33.6338501863257L98.741453125,30.351144471135797L98.85051953125,30.507691399524845L99.03229687500001,27.262303266500084L99.06865234375,28.21323826879987L99.21407421875,28.867341480974716L99.32314062500001,29.537005871709056L99.43220703125,29.25656573000603L99.5412734375,28.831677882138194L99.613984375,35.7494827949335L99.90482812500001,33.76560581156343L100.1229609375,26.888004080805814L100.19567187499999,26.819181219643298L100.30473828125,29.0020608084088L100.59558203124999,27.86402658792946L100.63193749999999,26.139248625472874L100.74100390625,28.61462589564067L100.81371484375,31.178144370166308L101.10455859375,32.170433907745974L101.4317578125,32.441489852950696L101.7953125,31.287502078517207L102.12251171875,28.521630705254637L102.15886718750001,31.048763164736982L102.19522265625,30.08446391939114L102.231578125,30.917552493998357L102.3042890625,31.98712031330254L102.5951328125,34.31138573999306L102.813265625,31.418806509167553L103.06775390625,27.50525339435228L103.6130859375,24.573690190390124L103.64944140625,25.551278511308368L104.08570703125,28.685732201075695L104.15841796875,29.60960772122735L104.1947734375,27.546418773484476L104.30383984375001,27.808375225873135L104.3401953125,28.634454910553302L104.37655078125,26.211307381505122L104.558328125,26.0292270775374L104.66739453125,29.880626731298037L104.9218828125,30.302135122042387L105.0673046875,27.463242759948372L105.2854375,25.17393745557689L105.32179296874999,29.1628870011194L105.39450390625,27.176583514933185L105.61263671875,25.431741557966546L105.68534765625,26.049333689611927L105.75805859375,26.22635590855137L105.79441406250001,28.369007347405585L105.97619140625,26.941716009344532L106.04890234374999,26.75487874293529L106.594234375,28.696509502551436L106.6669453125,29.8960684428194L106.8123671875,29.176455398493488L107.6121875,28.91661273134858L107.757609375,28.385326829865477L107.86667578125001,29.64811984848373L107.93938671875,31.32084880635972L108.15751953125,28.41111688934393L108.26658593750001,30.01096319796966L108.37565234374999,28.66602683953093L108.7755625,29.97270479230818L108.95733984374999,30.086353635363196L109.06640625,31.25510753548366L109.211828125,32.49092169895752L109.24818359375,30.569538000866658L109.46631640625,31.78052158861678L109.64809375,34.567218269258404L109.72080468749999,34.21128509549777L109.90258203125,32.896083699720236L110.7387578125,32.96589545990952L110.84782421874999,32.973226410103905L110.84782421874999,33.04863130166194L111.02960156249999,33.826858615064964L112.37475390625,34.38794719550572L112.55653125,35.08826620773485L112.59288671875,33.892500180131265L112.6292421875,34.22028698204147L112.66559765625001,35.87225742204154L112.701953125,34.822819062326346L112.73830859375,33.680144887028774L113.17457421875,34.1472433372862L113.283640625,33.87034482101882L113.31999609375,34.96448921642994L113.46541796875,36.16878796479355L113.68355078124999,35.43755170853066L113.82897265624999,35.54975100352169L113.90168359375,34.536042767539925L113.90168359375,33.97592630197869L114.19252734375,37.46041858358842L114.48337109375,37.577004452280164L114.5924375,37.88278480836047L114.6651484375,39.35359145030105L114.81057031249999,36.29852577306167L114.84692578125,37.59312981399421L115.028703125,37.09347965345546L115.1014140625,37.02453138266216L115.21048046875,37.06313793886355L115.28319140625,38.032289316303434L115.7558125,36.9024908041861L115.93758984375,35.974800157023594L116.19207812500001,38.01872829774655L116.3375,36.365425941301226L116.44656640625,37.14586262316425L116.51927734375,36.15505183341901L116.51927734375,35.61130672214361L116.88283203124999,35.53465920762602L116.9191875,35.73971600689819L117.02825390625,37.114398274937L117.5735859375,33.982202807288616L117.68265234375001,33.97148029683305L117.97349609375,34.10902243902996L118.0098515625,34.30975521469915L118.3006953125,33.98108103641749L118.33705078125,34.26357171071774L118.66425,33.316365021516106L118.70060546875,33.429897146440595L118.7369609375,35.11032236916097L118.91873828125,34.367283975830816L119.10051562499999,37.31934199648046L119.57313671875,36.51619779492583L119.6094921875,36.80841913560505L119.827625,37.85832922582762L119.86398046875,34.7828584478419L119.9003359375,35.235603661957896L119.93669140624999,35.700660897641484L120.15482421875001,37.284235404751655L120.4820234375,35.70822404442919L120.84557812499999,35.49363118154892L120.991,35.92128367391953L121.136421875,36.32164942954992L121.2091328125,33.941639061369074L121.31819921875001,34.3635832972661L121.3545546875,34.545502911386535L121.3545546875,34.70030197933474L121.53633203125,34.732662127432434L122.00895312499999,34.35498826042843L122.11801953125,36.063754818356216L122.40886328125,36.77720424679143L122.59064062499999,36.62543257953806L122.6633515625,35.375442666509485L122.69970703125,34.4644939198412L122.84512890625,33.677379111886324L122.9541953125,34.845599932206596L122.99055078125,32.50989315300163L123.17232812499999,34.05791783872007L123.2450390625,35.688140409042745L123.35410546874999,36.8321627625117L123.39046093750001,36.53162211858714L123.49952734374999,36.48071830903581L123.60859375,36.180477922488535L123.64494921874999,36.612883648472604L123.6813046875,35.44974159855997L124.335703125,34.61354079024855L124.55383593750001,35.253698111634634L124.88103515625001,36.035710272080394L124.917390625,35.641486592877186L125.28094531250001,35.39795891296538L125.31730078125,36.55331924925625L125.68085546875,36.561865176605465L126.11712109375,38.35013740355359L126.1534765625,38.29516006103282L126.40796484375,39.13923755640462L126.55338671874999,41.738447278244365L126.69880859375,40.62734852701607L126.77151953125001,38.44282700392341L126.807875,37.37899914052849L126.807875,36.77701060629198L127.6076953125,38.73655964275858L127.71676171874999,37.32963511299363L127.78947265625,37.27983943641945L127.89853906249999,38.87048249946244L128.15302734374998,37.76802694899004L128.18938281249999,37.58979058354518L128.18938281249999,37.518236921701856L128.3348046875,39.06584166115465L128.66200390625,37.64763715467976L129.0619140625,38.640153177132476L129.17098046875,36.97103164320083L129.53453515625,39.12377270147138L129.570890625,40.257193998381126L129.67995703125,39.40433656123108L130.152578125,39.53671051865416L130.2252890625,39.457206696137604L130.47977734375,39.58826404373488L130.55248828125002,39.40024873380372L130.87968750000002,38.03596465926884L131.025109375,38.36903776173082L131.42501953125,37.687330473860186L131.49773046875,37.61134875995671L131.57044140625,37.815864874394265L131.60679687500001,39.63767035233022L132.07941796875,39.51044994372228L132.479328125,39.34325661433846L132.73381640624999,40.168302722562004L133.02466015624998,40.85679455155949L133.2064375,39.75636358386916L133.49728125000001,39.379365013624096L133.75176953125,39.44941754463531L133.788125,38.370254891336515L134.1516796875,38.42984102742852L134.5879453125,39.13050043535668L134.62430078124999,39.08120777559989L134.8787890625,39.46211233516908L135.20598828125,40.302533027990194L135.27869921875,40.59283585359961L135.35141015624998,40.40475610314493L136.0421640625,39.38465837135874L136.15123046875001,40.29811051885389L136.22394140625,39.62904414745108L136.3330078125,39.59597737421876L136.44207421875,39.84429108110612L136.551140625,40.02199939130648L136.58749609375,38.05759200624095L136.6238515625,39.47159038465227L137.0601171875,40.38920019779209L137.2055390625,40.124375750186914L137.53273828125,39.81830123990795L137.60544921875,40.251439884912344L137.6418046875,40.89513518166848L137.8599375,40.523751975982236L137.89629296875,39.21781040104932L138.00535937499998,39.15237586031233L138.2234921875,39.35330190673582L138.33255859375,39.58708384526588L138.5143359375,39.528486339202175L138.69611328125,39.10224666948284L139.20508984375002,39.482498129068915L139.2414453125,40.61761005316845L139.31415625,40.08174888552716L139.56864453125,40.42504610668266L140.332109375,39.7606529884265L140.36846484375002,39.77458164140998L140.69566406250001,39.871607435206585L141.02286328125,40.666986626362814L141.3500625,40.93612865918749L141.38641796874998,39.4866847908672L141.495484375,40.15295427882603L141.5681953125,39.621011195426036L141.89539453125,40.588483684482696L141.93175,40.49711632631943L142.22259375,40.658173529130835L142.2953046875,40.01404776555157L142.40437109375,40.244765854667776L142.91334765625,41.192016486587306L142.94970312499998,40.77026055346036L143.05876953125,40.05636864325652L143.38596875,40.46061497064866L143.42232421875,41.05130318593942L143.56774609375,41.06571549183556L143.71316796874999,41.54987660035596L143.8949453125,42.86554763382736L143.93130078125,40.79108515247964L144.113078125,39.55590365020342L144.18578906250002,40.432773485968454L144.18578906250002,40.98235394016055L144.54934375,41.16411151821998L144.6220546875,41.519791960621035L144.65841015625,41.3557005783903L144.73112109375,42.722941041927044L144.91289843750002,42.58827144243003L145.24009765625001,41.13594036145244L145.60365234374999,41.176688508965725L145.67636328125,40.60990067733266L145.85814062499998,41.41982544147672L145.96720703124998,42.26562031691492L145.96720703124998,42.797640111712184L146.03991796875002,42.74522916839203L146.11262890625,41.92323350905474L146.5125390625,41.64246522215589L146.83973828125,41.395669515707084L146.91244921875003,41.10902742799178L146.98516015625,41.27108700577054L147.27600390625,40.84981369341094L147.31235937499997,40.65258092939288L147.49413671875,40.412399252467196L147.603203125,41.46518626598288L147.63955859375,41.767886508015664L147.748625,41.446047657025076L147.78498046875,41.33334384039699L147.82133593749998,41.6741645045804L148.03946875,41.80600820737382L148.07582421875003,41.25718529750287L148.1121796875,41.6265985878818L148.5484453125,40.07748779966573L148.6938671875,40.16205468444198L148.766578125,39.466498142738175L149.057421875,39.35912089208679L149.23919921875,40.10655369299786L149.23919921875,40.57610720410392L149.2755546875,40.6262136609223L149.38462109375,40.698138735159745L149.63910937499998,40.98525022085502L149.7118203125,40.43718362645467L149.8572421875,39.86922319680025L149.96630859375,40.451400865220705L150.18444140625002,40.78482959170486L150.6570625,40.05999215449748L151.093328125,39.912541758210835L151.1660390625,40.51481259103164L151.1660390625,40.894886180160086L151.3114609375,39.80632330124686L151.6023046875,40.467020337869144L151.8204375,39.9504088352036L152.00221484375,38.98478375822708L152.14763671875,39.878932178656214L152.256703125,40.04466756005729L152.69296875,39.89142375648555L154.69251953124999,39.456144405293685L154.83794140625002,39.09335203771337L155.3105625,40.99482488394628L155.71047265625,41.20523864353956L155.85589453125,41.620003673277495L156.14673828125,41.00279511932192L156.18309375,39.967233679826734L156.328515625,39.86973206472288L156.6920703125,39.40914565095687L157.05562500000002,39.36960520029447L157.09198046875,39.17555680713099L157.1283359375,38.415061080253366L157.4191796875,37.69078264323025L158.1462890625,38.65295765278651L159.0188203125,39.06802957417318L159.23695312499999,39.90480264153814L159.27330859375002,40.43424733608134L159.38237500000002,40.55723635947953L159.7459296875,39.31553514629229L160.07312890625,40.116304472982506L160.1821953125,39.8029009589234L160.54575000000003,40.03124975140713L160.72752734375,40.24229147196306L162.03632421875,41.51765105102879L162.36352343750002,40.44197987340047L162.436234375,41.141628171374805L162.58165625,40.644507521658255L162.7997890625,40.884892026551285L162.90885546875,40.37892111607766L163.16334375000002,39.871234215886886L163.45418750000002,39.85922226175532L163.56325390625,40.47559529429782L163.85409765625,40.36076077182878L163.99951953125,40.43960272725917L164.14494140624998,39.43275906091702L164.98111718750002,39.00435352050974L165.1265390625,39.151964931219595L165.38102734375002,39.126066399187835L165.52644921875,39.10835016686045L165.926359375,38.94263185670343L166.36262499999998,40.002479152806444L166.9443125,40.42413373811527L167.85319921875,40.22885953625692L168.39853125,40.40102211189472L168.9075078125,40.62335336947265L169.1983515625,40.31910946174568L169.4891953125,40.960643356113025L169.707328125,40.60253692957923L169.74368359374998,40.71174759518007L170.3617265625,40.199635221851764L170.68892578125002,40.6978694397001L171.19790234374997,39.93778541498676L171.30696874999998,41.412033543926725L172.1067890625,40.61673244028634L172.72483203125,39.617026613151495L173.16109765625,39.92288746962984L173.2701640625,40.469451373528926L173.488296875,39.81549421502777L174.1426953125,40.66770097030624L174.21540625,40.29742564693646L174.8698046875,39.875502375688L175.0152265625,40.560107556239274L175.12429296875,39.691593066457216L175.77869140625,39.10114321409364L175.92411328125002,39.56516150926396L176.1786015625,39.537497835733916L176.65122265625,39.729314224302954L176.86935546875,39.77492033725915L177.37833203124998,39.697206499408935L177.81459765625,40.113650896798816L178.3599296875,40.878844659716634L178.6507734375,40.76077155858471L178.68712890625,40.29331895399582L179.48694921875,40.52816285640594L179.63237109374998,40.368595260785725L180.14134765625,40.38503114528049L180.57761328125,40.43502988660538L180.61396875,39.93590956080044L180.86845703125,40.011260668977854L181.37743359375,39.88046223246366L181.59556640625001,39.84773699382245L181.8500546875,40.247413941297225L181.92276562499998,40.669457408196195L182.24996484375,39.998188941916595L182.32267578124998,40.66754000476942L182.35903125,40.27035734964389L183.04978515625,39.692256471089166L183.15885156250002,39.082658987413936L183.48605078125,39.512507615750195L183.958671875,40.21174168040949L184.4676484375,40.65798355292884L184.83120312499997,40.37477702830944L185.412890625,40.42813015997612L185.81280078125,40.035318269561344L186.46719921874998,39.43479774939601L186.83075390625,39.253396119600666L186.86710937499998,38.66037377192893L187.0852421875,40.130221275832184L187.33973046875,40.13359998272861L187.48515234375,39.52257589817498L187.5215078125,40.51212060456248L187.55786328124998,40.394037435791034L188.35768359375,39.655090984113826L188.3940390625,40.06340096360165L188.5394609375,39.82189703605195L188.612171875,39.72657540974055L188.93937109375,40.51932092582527L189.08479296874998,41.033952763287544L190.1391015625,40.75844251070109L190.17545703125,40.87333791777826L190.50265625,40.88930739921719L190.61172265625,40.66740070023508L190.8662109375,38.81391440990902L191.229765625,38.49386677192089L191.26612109375,39.10636627771632L191.30247656249998,40.09799258436851L191.33883203125,40.03642461459805L191.520609375,40.21361997194606L191.7387421875,40.02410206891793L191.8841640625,40.44542800282619L191.956875,39.78402949639516L192.5385625,40.21585804416566L192.75669531249997,40.66460673910612L192.79305078125,39.3050843979924L193.08389453125,39.887305495594234L193.7746484375,40.18171109554427L194.39269140625,39.73551249746461L195.33793359375,39.93536653640817L196.174109375,39.76181863392412L196.64673046874998,40.11682333213102L196.755796875,41.19194386306859L197.88281640625,40.57527632134233L197.919171875,41.01271447525292L198.500859375,41.28304846883711L198.53721484375,41.349443168962125L198.90076953125,40.44110695270399L199.00983593750001,40.497355709444065L199.082546875,39.71394506113711L199.48245703125,40.33520788588439L199.70058984375,40.61758464852835L199.80965625000002,39.44188338601134L199.955078125,39.10542818357672L200.6094765625,40.35349013356566L200.64583203125,39.76974329237686L200.79125390624998,40.354095715061845L200.90032031249999,40.527640248906465L200.97303125,40.934082018971424L201.4820078125,41.21011885589883L201.6274296875,40.80510731707676L202.02733984375,41.226365797493855L202.13640625,41.03623947880729L202.863515625,40.484027094110104L203.154359375,39.16996893113213L203.51791406249998,39.259386528266845L203.55426953125001,41.18401618771196L203.95417968750002,41.16824378815815L204.79035546875,40.37024036798084L204.9721328125,40.345885238722445L205.59017578125,40.2983170919328L207.18981640625,40.17215218381338L207.226171875,39.88010924841467L207.37159375,40.78481744390655L207.517015625,40.92152650140815L208.1714140625,39.78444650069977L208.389546875,40.03616465464708L208.42590234374998,40.109735261739274L209.95283203125,39.41895992020912L210.24367578125,39.40510101620569L210.53451953125003,39.53910675870901L210.570875,40.555111843260164L211.18891796875002,40.82107179301207L211.6615390625,40.70386927472262L211.80696093749998,41.270561095829066L212.20687109374998,41.02043332459718L212.64313671875001,39.62591552332418L212.75220312500002,40.404951349795255L212.8249140625,40.93042831195169L212.97033593749998,40.58291657000382L213.26117968749998,40.11401397182553L215.4425078125,40.33816649051539L215.660640625,39.49076939048712L215.69699609375,40.14489416121785L215.76970703125,40.16295485614967L216.3150390625,39.541052671878674L216.56952734375,40.37524459266089L217.405703125,40.00961532781079L217.551125,40.74038653008003L217.95103515625001,39.49335456943501L218.0601015625,40.603513948627125L218.67814453124998,40.912151240375835L218.89627734375,39.13650779092032L219.36889843749998,40.67678958154079L220.0960078125,40.21553248460282L220.42320703125,40.09926612250433L221.00489453125,40.31117905812667L221.07760546875002,39.6883791897242L221.4048046875,39.4860722003196L221.73200390625001,40.2678709052318L222.02284765625,40.1050753766001L222.74995703125,39.57917983784978L222.82266796874998,40.4144593099692L222.931734375,40.93858684504036L223.00444531250002,40.15679258153369L223.22257812499998,39.651595448694536L223.65884375000002,39.90179141941928L223.69519921875,40.27430099987694L223.9496875,40.82783600260478L224.05875390625002,40.65126880281218L224.24053125,40.52410375000676L224.49501953125,39.915986545010014L224.56773046874997,38.93770771413958L226.421859375,39.74869664662094L226.82176953125,39.70135301629014L226.9308359375,38.702873358212L227.11261328125,38.66368944972061L227.69430078125,39.00779429840625L227.83972265625002,39.33164854553763L227.876078125,39.12629018838285L227.9487890625,39.31667326622318L228.31234375,39.58866219803869L228.45776562499998,39.66670912983375L228.60318750000002,39.405575418274L228.93038671875,39.02848686769815L228.9667421875,39.87875893276126L229.14851953125,39.99322974448242L229.29394140625,39.88456283821256L229.330296875,39.88622836722712L229.87562890625003,40.03346524127218L231.0026484375,40.07460407691312L231.43891406249998,40.331311034945315L231.69340234375,40.27579496268564L231.8751796875,40.19509336154019L232.38415625000002,40.38087635042356L232.71135546874999,39.35807869381583L233.25668750000003,39.834502043947595L233.65659765624997,40.58918050888926L233.91108593750002,40.41550951173343L233.94744140625,39.65989485058077L234.0565078125,39.54253600976102L234.274640625,39.62083374762338L235.6561484375,40.134440123237965L235.76521484375002,40.35246203247141L235.83792578125,40.090940105013516L235.9469921875,40.20757951470014L235.98334765624998,40.00488239353851L236.12876953125001,39.81839272183004L237.29214453125002,39.48266699470736L237.80112109375003,38.9156805943409L238.78271875,39.54026148295159L239.0008515625,40.57924150180523L239.1462734375,40.66648414201188L239.800671875,40.250465284461654L239.98244921875,40.35304494270301L240.52778124999998,40.878664429522246L240.63684765624998,41.12198576102358L240.7459140625,40.27892953602233L241.50937890625,39.419493520507274L241.9092890625,40.909373879450726L242.38191015625,41.04845013088698L242.418265625,40.53261317056322L242.7818203125,39.98768917578104L242.89088671875,39.552804449562814L243.03630859375,39.98189763621738L243.6543515625,38.98231557387487L243.7270625,39.62871662538649L243.83612890625,40.41377864449561L244.59959375,39.693770695276356L244.6723046875,39.29803224198545L244.85408203125002,40.26067613369986L245.25399218750002,39.53450135762179L245.54483593749998,39.89527805954961L245.6902578125,39.23419737796186L246.30830078125,38.83593150328218L246.52643359375,39.120233800489416L246.88998828125003,39.34371351566759L246.96269921875,40.6119553813225L247.18083203125002,40.402318250489145L247.362609375,39.72478036071661L247.54438671875002,40.56301568691538L247.653453125,39.154297882472605L248.19878515625,39.36787552783201L248.235140625,38.66571314908154L249.21673828125,38.876173350236684L249.50758203125002,39.23408572015725L249.87113671875,39.15419893467836L250.27104687500002,39.35729097260929L251.03451171875,38.94624847497508L251.25264453124998,38.452399805640965L251.6525546875,38.92279850695439L251.68891015625,39.73217733374332L252.85228515625,39.59367484682707L252.88864062500002,38.42734510995169L253.10677343749998,38.95884782225099L254.9972578125,39.469605687410876L255.06996875,40.49187484571411L255.32445703124998,40.73082005331301L255.43352343749999,39.24009366998081L255.68801171875,39.97365299331176L256.669609375,40.53155302348452L257.43307421875,40.87619339455236L257.79662890625,40.02366793838891L258.37831640625,40.0132548882641L258.45102734375,40.44119273195133L258.52373828125,39.76604927372614L258.705515625,39.22927859394508L259.868890625,38.06543497876268L260.05066796874996,38.77787743506025L260.450578125,39.24386265373977L260.48693359375,38.90495227391759L260.5232890625,39.21110933994646L260.63235546875,39.500207016190984L261.21404296875,40.47235027110716L262.195640625,39.829473720164316L262.30470703125,39.898336744168404L263.03181640625,40.77624524841062L263.24994921875,41.04882511481628L263.2863046875,41.06276434450774L264.231546875,41.1135868876263L264.48603515625,40.38323608882857L264.55874609375,40.31348345421705L264.7405234375,40.798146645869025L265.94025390625,40.90902693724533L266.04932031249996,41.84015519940087L266.74007421875,41.62454622546085L266.7764296875,40.623434120304125L267.10362890625004,40.182529225561325L267.3581171875,41.31698549892988L267.46718359375,41.19032074816664L267.72167187499997,41.32430201914991L267.83073828125,40.32852967511056L268.52149218750003,40.07528385618218L268.63055859375,40.34723109838822L268.99411328125,40.33286615112772" style="fill: none;" fill="none"></path></g></g></g></g><g opacity="0.20000000298023224"><g><g><g><path stroke="rgb(255, 112, 67)" stroke-width="2px" d="M36.682667968749996,38.76565321837552L36.791734375,32.35148476413451L37.082578125,27.872996689984575L37.11893359374999,30.50905509898439L37.1552890625,29.588625945616513L37.373421875,28.80922157270834L37.627910156249996,21.84434631606564L37.700621093749994,26.073605816345662L38.06417578125,25.350097285583615L38.20959765625,24.662430565804243L38.282308593749995,23.44321012729779L38.64586328125,27.66891353484243L39.15483984375,22.612637236714363L39.227550781249995,16.83404483832419L39.37297265625,27.939022891689092L39.66381640625,25.473648984450847L39.700171875,24.511951136402786L40.499992187500006,24.814515801612288L40.60905859375,24.67739689350128L40.863546875000004,27.14148297579959L40.97261328125,30.17899033660069L41.0816796875,35.984791349153966L41.19074609375,34.51855760766193L41.299812499999994,29.58168864995241L41.66336718749999,28.270613965112716L41.954210937499994,34.79577385028824L41.990566406250004,32.010669578332454L42.13598828125,39.57046696031466L42.49954296875,39.708078739698976L42.64496484375,43.77737766318023L42.935808593750004,38.15582571178675L43.00851953125,42.060860709287226L43.9901171875,52.741715082433075L44.02647265625,47.64436087850481L44.31731640625,45.04383424855769L44.390027343750006,38.298631188459694L44.4263828125,50.342332928907126L44.7172265625,49.008453673217446L44.753582031250005,45.40916315559298L44.7899375,51.73561642225832L44.97171484375001,49.746260770596564L45.2989140625,55.90343660349026L45.69882421875,55.71518627554178L45.98966796875,52.446214905474335L46.098734375,59.32421232573688L46.57135546875,57.0192865668796L46.7531328125,65.65267947502434L46.86219921875,65.03970660176128L47.00762109375,55.86914230231196L47.00762109375,56.25701079564169L47.6256640625,68.28601119294763L47.662019531249996,68.05753090977669L47.88015234375,59.5627938201651L47.98921875,78.52958275284618L48.025574218749995,68.88912664074451L48.061929687500005,63.79655805788934L48.09828515625,62.89505410147831L48.134640625,74.92805576557294L48.352773437500005,72.39042057003826L48.53455078125,73.89155807718635L49.33437109375,74.9036665870808L49.40708203125,69.94538157759234L49.47979296875,72.582364782691L49.62521484375,77.02653205720708L49.77063671875,84.37406621081755L50.025124999999996,65.46194359194487L50.097835937499994,78.45772954076529L50.2432578125,76.00290201883763L50.315968749999996,84.59065398713574L50.35232421875,83.50325806532055L50.388679687499994,75.09377180691808L50.5341015625,81.84786774870008L50.6068125,82.65329360496253L50.64316796875,84.65762618370354L50.75223437499999,80.3160556294024L50.78858984375,82.08670892799273L50.86130078125,83.17823860887438L50.93401171875,73.09960403572768L51.043078124999994,81.82461800379679L51.043078124999994,82.19918427243829L51.47934375,79.57537079975009L51.5520546875,81.0728091225028L52.1337421875,89.01377088855952L52.2791640625,83.29949554149061L52.38823046875,84.22849959507585L52.64271875,90.52625503437594L52.7154296875,74.75656836060807L52.82449609375,90.0590077675879L52.860851562499995,84.85306289279833L52.96991796875,83.39720064681023L53.0062734375,98.69012180855498L53.260761718750004,95.94821531884372L53.2971171875,88.31839841790497L53.478894531250006,86.02804150991142L53.51525,90.09921652404591L53.69702734375,89.28056263877079L53.76973828125001,90.63261453527957L53.842449218750005,98.84416263038293L53.98787109375,81.47021176014096L54.0242265625,90.44616080261767L54.133292968750006,79.64163283770904L54.133292968750006,80.02040176140144L54.242359375,97.12886990513653L54.569558593749996,93.71067513246089L54.6059140625,96.78127376455814L54.78769140625,81.1712826830335L55.3330234375,97.16281972639263L55.55115625,92.77804609015584L55.66022265625,94.01307550724596L55.73293359375,99.2336634285748L55.7692890625,105.04862230736762L55.842,86.66547775734216L55.95106640625,96.91600251197815L56.02377734375,89.34778922051191L56.205554687500005,95.65904297307134L56.31462109375,96.83321603713557L56.4236875,100.24408663669601L56.60546484375,87.8220717459917L57.3689296875,103.50729194283485L57.441640625000005,103.34945654217154L57.441640625000005,103.76863031089306L57.47799609375,108.47489380929619L57.805195312500004,97.27048295130953L58.023328125000006,104.72756701987237L58.27781640625,98.59864913998172L58.750437500000004,104.41655464703217L58.968570312500006,97.58725078869611L59.15034765625,104.92951174965128L59.22305859375,104.50555235985667L59.2594140625,100.46528514428064L59.62296875,104.06963156722486L59.73203515625,103.24385489709675L59.87745703125,101.77675200626254L59.9865234375,92.2307840869762L60.2773671875,85.05300433933735L60.31372265625,108.23350877827033L60.53185546875,103.53871911112219L60.5682109375,90.97118530189618L60.640921875,99.15806863456964L60.640921875,99.60028016055003L61.513453125,109.8468884434551L61.586164062499996,114.71673220768571L61.62251953125,105.39098235312849L61.658874999999995,109.15303168445826L62.05878515625,96.80562054552138L62.276917968750006,104.04491910757497L62.3132734375,100.28199532721192L62.4586953125,109.14254359574988L62.531406249999996,109.8923173956573L62.967671875,115.35255734901875L63.00402734375,113.51001374050975L63.1858046875,107.86179904313758L63.3312265625,104.86437324620783L63.4039375,91.92440364416689L63.44029296875,110.00479803979397L64.02198046875,105.62229797104374L64.09469140624999,111.73697028122842L64.5673125,126.83183668646961L64.85815625000001,114.95389338489622L64.85815625000001,115.48604596871883L65.149,126.84790534991771L65.2217109375,104.57655232166871L65.5125546875,112.64321216149256L65.5125546875,113.17813118407503L65.91246484375,115.22951972018927L66.02153125,109.86118701007217L66.0942421875,133.00934743415564L66.166953125,119.15747588174418L66.2396640625,129.7936167609878L66.312375,123.4156557964161L66.5305078125,132.06355925882235L66.6759296875,134.1830382263288L66.78499609375,134.59176100417972L66.93041796874999,122.902650996577L67.07583984375,133.65786003600806L67.14855078125,125.07029885658994L67.18490625,107.91038131155074L67.22126171875,129.40545678464696L67.29397265625,139.88237904384732L67.4030390625,125.83935293275863L67.58481640625,138.48386475536972L67.76659375,145.70016795769334L67.8393046875,146.66663022805005L67.87566015625,144.28754589147866L67.91201562500001,149.72944891359657L68.02108203125,130.9475503046997L68.0574375,142.33689918369055L68.09379296875,140.2881975909695L68.45734765625,140.40395344421268L68.60276953125,142.4614843223244L68.7118359375,123.86872638948262L68.8572578125,157.28399960137904L68.8572578125,157.90365008544177L69.03903515625,144.7225021403283L69.1481015625,135.19389070942998L69.54801171875,143.51424676273018L69.62072265625,137.59960069414228L69.8025,152.33767069503665L69.8752109375,151.94574793800712L70.0206328125,148.3643120797351L70.27512109375,150.3585328478366L70.3114765625,143.8584405016154L70.42054296875,142.78762731328607L70.4568984375,148.15316178649664L71.07494140625,170.90282783657312L71.1840078125,162.4715704470873L71.51120703125001,170.570113228634L71.692984375,151.29453249368817L71.72933984375,176.28279866836965L71.7656953125,162.31422261800617L72.09289453125001,156.04708349425346L72.3473828125,175.3228656174615L72.38373828125,161.02617509104311L72.7109375,159.85560051724315L72.78364843749999,162.75511452089995L72.92907031249999,170.72703708242625L73.25626953125,161.14366924297065L73.36533593749999,160.86182107031345L73.8016015625,169.2279664548114L74.019734375,156.62435764819384L74.09244531249999,179.30027319677174L74.09244531249999,179.98520527593791L74.12880078125,156.85323010850698L74.16515625,177.39200281910598L74.23786718749999,158.44150513689965L74.310578125,185.2019032239914L74.456,173.06660692207515L74.71048828125001,148.71288336347789L75.32853125,163.3965573348105L75.40124218749999,181.8424396282062L75.5466640625,163.0798265952617L75.6920859375,162.92653832957149L75.91021875,167.09300708957016L76.09199609375,166.27083420939744L76.1283515625,179.7094941455871L76.16470703125,166.2899130973965L76.2737734375,168.01878893096L76.31012890625001,155.77421299833804L76.45555078125001,136.50928464252502L76.52826171875,151.16660854965448L76.89181640625,159.86865895614028L77.0008828125,146.65008459240198L77.0008828125,147.29730406962335L77.03723828125001,142.81257825903594L77.10994921875,156.07923142053187L77.18266015625001,159.0690839588642L77.18266015625001,159.80100309941918L77.32808203124999,146.70320869609714L77.36443750000001,151.0461571700871L77.47350390624999,142.86014828644693L77.800703125,139.2171088187024L77.98248046875,135.44914503209293L78.091546875,145.90836102329195L78.20061328124999,120.36297541996464L78.27332421875,110.68134600762278L78.49145703125,89.03236220497638L78.52781250000001,97.52507481258363L78.964078125,97.15776382107288L79.14585546875,88.65821461193264L79.7638984375,45.080391517840326L79.80025390624999,78.68555266223848L79.83660937500001,57.26984006352723L80.09109765625,57.391181791201234L80.6364296875,4.124240821227431L80.7818515625,52.458006718195975L80.89091796875,44.76933144778013L80.9272734375,20.489040409214795L80.96362890625,58.082335707731545L81.0726953125,36.53144918754697L81.5089609375,47.73537777364254L81.54531640625,37.17923043202609L81.72709375000001,21.246005889959633L81.76344921875,37.19451474118978L81.83616015625,38.189128970727324L82.0906484375,52.17622214183211L82.19971484375,-2.137513816356659L82.3814921875,31.088899603113532L82.63598046875,32.29266084264964L82.70869140625,4.653245388530195L82.74504687499999,19.01798394881189L83.21766796875,18.178862656466663L83.43580078125,19.15706904232502L83.617578125,27.806451118551195L83.72664453125,21.873213733546436L84.01748828125,31.034768558107316L84.1265546875,26.886636729352176L84.16291015624999,20.493545146659017L84.4173984375,36.54853539168835L84.52646484375,25.155354836024344L84.59917578125,38.73584510572255L85.03544140625,41.98499033134431L85.14450781250001,47.810400201007724L85.25357421875,41.18049722071737L85.47170703125,26.00166250951588L85.61712890625,41.225703585892916L85.87161718750001,32.534846127033234L86.08975,40.428725437261164L86.1624609375,35.270991852506995L86.41694921874999,43.35596742480993L86.41694921874999,43.84262746013701L86.45330468750001,33.41046109236777L87.03499218750001,31.65667671058327L87.07134765625,50.00998399965465L87.07134765625,50.49149273522198L87.398546875,42.31346518639475L87.689390625,40.84906513802707L87.7621015625,37.07430714741349L88.561921875,36.3159955451265L88.70734374999999,45.59073057305068L88.88912109374999,42.95610573049635L88.9981875,34.30677135149017L89.0708984375,31.44030092190951L89.36174218750001,40.25710554001853L89.39809765625,58.6112395809032L89.434453125,38.14694342948496L90.27062890625001,22.06166544975713L90.41605078125001,35.751737432554364L90.85231640625,40.029346014838666L90.99773828125001,39.46031818026677L91.07044921875,50.413947654888034L91.14316015625,45.744453413411975L91.179515625,44.81986930221319L91.36129296874999,41.74842801922932L91.43400390625,20.854793291538954L91.57942578125001,19.07633354794234L91.61578125,26.58004959858954L92.052046875,42.672386766877025L92.1247578125,21.037616735789925L92.16111328125001,32.598495417274535L92.67008984374999,3.597864900715649L93.10635546875,22.262380651198328L93.36084375,11.793386729899794L93.506265625,24.7971805119887L93.61533203125,3.1988776554353535L93.68804296875,32.51595802791417L93.797109375,36.138026617933065L94.087953125,23.050911092199385L94.41515234375,33.25935629941523L94.4515078125,16.161211953964084L94.56057421875,32.47375128790736L94.63328515625001,7.37631147634238L95.06955078125,28.644120295532048L95.10590625,21.275199238443747L95.251328125,25.63240653136745L95.28768359375,34.92249476443976L95.32403906249999,24.16112748393789L95.36039453125001,19.33593096747063L95.36039453125001,19.695761444978416L95.833015625,27.95316776726395L95.9784375,9.49433037894778L96.414703125,39.31002424005419L96.560125,27.827040418516845L96.81461328124999,24.023526303935796L96.85096875,32.84166114451364L97.1418125,30.058523057959974L97.68714453125,36.99968219688162L97.7235,20.133942555868998L97.90527734375,32.67831141524948L98.19612109375001,28.12375422473997L98.3051875,40.949038511142135L98.70509765624999,33.43490061792545L98.741453125,25.427085898350924L98.85051953125,30.742511792108417L99.03229687500001,22.394221066962928L99.06865234375,29.63964077224955L99.21407421875,29.848496299237013L99.32314062500001,30.541502457810566L99.43220703125,28.835905517451465L99.5412734375,28.194346110336483L99.613984375,46.126190164126456L99.90482812500001,30.789790336508304L100.1229609375,16.571601484669372L100.19567187499999,26.715946927899495L100.30473828125,32.27638019155711L100.59558203124999,26.156975257210433L100.63193749999999,23.552081681787968L100.74100390625,32.32769180089235L100.81371484375,35.02342208195478L101.10455859375,33.6588682141155L101.4317578125,32.848073770757765L101.7953125,29.556520416866988L102.12251171875,24.372823645360768L102.15886718750001,34.83946185396053L102.19522265625,28.63801505137235L102.231578125,32.16718535590917L102.3042890625,33.59147204225883L102.5951328125,37.797783880028874L102.813265625,27.079937662929296L103.06775390625,21.634923722129315L103.6130859375,20.176345384446904L103.64944140625,27.017660992685705L104.08570703125,33.387412735726684L104.15841796875,30.995421001454815L104.1947734375,24.45163535187021L104.30383984375001,28.20130990445614L104.3401953125,29.873574437573552L104.37655078125,22.57658608793281L104.558328125,25.756106621585786L104.66739453125,35.65772621193901L104.9218828125,30.93439770815894L105.0673046875,23.204904216807336L105.2854375,21.739979499019682L105.32179296874999,35.14631131943315L105.39450390625,24.19712828565389L105.61263671875,22.814478622516617L105.68534765625,26.97572188708L105.75805859375,26.49188923696056L105.79441406250001,31.58298450568691L105.97619140625,24.800779002252966L106.04890234374999,26.474622843321413L106.594234375,31.608955641975626L106.6669453125,31.695406853221357L106.8123671875,28.09703583200462L107.6121875,28.526848730631173L107.757609375,27.588397977640852L107.86667578125001,31.54230937641114L107.93938671875,33.82994224317372L108.15751953125,24.046519013820216L108.26658593750001,32.41073266090825L108.37565234374999,26.64862230187282L108.7755625,31.93272172147408L108.95733984374999,30.256826899945736L109.06640625,33.0082383856643L109.211828125,34.3446429441683L109.24818359375,27.687462453730404L109.46631640625,33.59699697024189L109.64809375,38.74726329022087L109.72080468749999,33.67738533485681L109.90258203125,30.923281606053934L110.7387578125,33.07061310019344L110.84782421874999,32.984222835395485L110.84782421874999,33.16173863899894L111.02960156249999,34.994199585169554L112.37475390625,35.22958006616682L112.55653125,36.138744726078585L112.59288671875,32.09885113872588L112.6292421875,34.711967184906825L112.66559765625001,38.35021308204159L112.701953125,33.24866152275354L112.73830859375,31.96613362408243L113.17457421875,34.847891012672335L113.283640625,33.45499704661779L113.31999609375,36.605705809546635L113.46541796875,37.975236087339L113.68355078124999,34.34069732413627L113.82897265624999,35.71804994600825L113.90168359375,33.015480413567275L113.90168359375,33.13575160363689L114.19252734375,42.68715700600296L114.48337109375,37.75188325531781L114.5924375,38.34145534248091L114.6651484375,41.55980141321197L114.81057031249999,31.715927257202566L114.84692578125,39.53503587539308L115.028703125,36.34400441264734L115.1014140625,36.92110897647217L115.21048046875,37.12104777316563L115.28319140625,39.486016382463276L115.7558125,35.207793036010116L115.93758984375,34.58326418627985L116.19207812500001,41.084620508830994L116.3375,33.8854724066332L116.44656640625,38.31651764595881L116.51927734375,34.66883564880118L116.51927734375,34.79568905523047L116.88283203124999,35.41968793584965L116.9191875,36.047301205806434L117.02825390625,39.17642167699523L117.5735859375,29.283909605816007L117.68265234375001,33.955396531149745L117.97349609375,34.3153356523253L118.0098515625,34.61085437820293L118.3006953125,33.48806976899505L118.33705078125,34.68730772216804L118.66425,31.895554987713695L118.70060546875,33.60019533382729L118.7369609375,37.63096020324156L118.91873828125,33.25272638583556L119.10051562499999,41.74742902745493L119.57313671875,35.311481492593884L119.6094921875,37.246751146623865L119.827625,39.43319436116144L119.86398046875,30.169652280863374L119.9003359375,35.91472148313187L119.93669140624999,36.39824675116688L120.15482421875001,39.659597165416926L120.4820234375,33.344207003945485L120.84557812499999,35.17174188722856L120.991,36.56276241247542L121.136421875,36.92219806299545L121.2091328125,30.371623509097844L121.31819921875001,34.99649965111166L121.3545546875,34.818382332567126L121.3545546875,34.932500581257045L121.53633203125,34.78120234957896L122.00895312499999,33.78847745992243L122.11801953125,38.62690465524793L122.40886328125,37.8473783894442L122.59064062499999,36.397775078658015L122.6633515625,33.50045779696666L122.69970703125,33.09807079983875L122.84512890625,32.496706899954006L122.9541953125,36.59793116268702L122.99055078125,29.00633298419416L123.17232812499999,36.37995486729778L123.2450390625,38.13347426452674L123.35410546874999,38.54819629271515L123.39046093750001,36.080811152700335L123.49952734374999,36.4043625947088L123.60859375,35.730117342667654L123.64494921874999,37.26149223744869L123.6813046875,33.705028523691L124.335703125,33.35923957778141L124.55383593750001,36.21393409371376L124.88103515625001,37.208728512749076L124.917390625,35.050151074072346L125.28094531250001,35.032667393097654L125.31730078125,38.28635975369252L125.68085546875,36.57468406762928L126.11712109375,41.03254574397579L126.1534765625,38.212694047251716L126.40796484375,40.40535379946232L126.55338671874999,45.637261861003935L126.69880859375,38.960700400173664L126.77151953125001,35.1660447192844L126.807875,35.78325734543614L126.807875,35.874027804937214L127.6076953125,41.67588319745846L127.71676171874999,35.21924831834622L127.78947265625,37.20514592155814L127.89853906249999,41.25644709402695L128.15302734374998,36.11434362328146L128.18938281249999,37.322436035377905L128.18938281249999,37.41090642893687L128.3348046875,41.38724877033383L128.66200390625,35.52033039496746L129.0619140625,40.128927210811526L129.17098046875,34.46734934230335L129.53453515625,42.35288428887725L129.570890625,41.95732594374567L129.67995703125,38.125050405506045L130.152578125,39.735271454788744L130.2252890625,39.33795096236281L130.47977734375,39.78485006513074L130.55248828125002,39.118225768906996L130.87968750000002,35.98953854746651L131.025109375,38.868647415423766L131.42501953125,36.66476954205427L131.49773046875,37.49737618910149L131.57044140625,38.12263904605061L131.60679687500001,42.37037856923416L132.07941796875,39.31961933081038L132.479328125,39.09246662026271L132.73381640624999,41.40587188489735L133.02466015624998,41.88953229505569L133.2064375,38.105717132333666L133.49728125000001,38.81386715825647L133.75176953125,39.55449634115212L133.788125,36.75151091138832L134.1516796875,38.51922023156658L134.5879453125,40.18148954724893L134.62430078124999,39.0072687859647L134.8787890625,40.03346917452291L135.20598828125,41.563164067221805L135.27869921875,41.028290092013776L135.35141015624998,40.12263647746295L136.0421640625,37.854511773679405L136.15123046875001,41.668288740096614L136.22394140625,38.62544459034689L136.3330078125,39.546377214370295L136.44207421875,40.21676164143719L136.551140625,40.288561856606975L136.58749609375,35.110980928642675L136.6238515625,41.59258795226924L137.0601171875,41.76561491750181L137.2055390625,39.727139078779146L137.53273828125,39.35918947448954L137.60544921875,40.901147852418944L137.6418046875,41.86067812680267L137.8599375,39.96667716745287L137.89629296875,37.25889803864993L138.00535937499998,39.05422404920682L138.2234921875,39.65469097637106L138.33255859375,39.93775675306097L138.5143359375,39.44059008010663L138.69611328125,38.462887164903805L139.20508984375002,40.05287531844806L139.2414453125,42.32027793931775L139.31415625,39.27795713406522L139.56864453125,40.939991938415915L140.332109375,38.764063311042264L140.36846484375002,39.795474620885216L140.69566406250001,40.01714612590149L141.02286328125,41.86005541309714L141.3500625,41.3398417084245L141.38641796874998,37.31251898838673L141.495484375,41.152358510764316L141.5681953125,38.823096570326015L141.89539453125,42.039692418067716L141.93175,40.360065289074555L142.22259375,40.8997593333479L142.2953046875,39.04785912018269L142.40437109375,40.59084298834205L142.91334765625,42.61289243446663L142.94970312499998,40.137626653769985L143.05876953125,38.98553077795077L143.38596875,41.066984461736865L143.42232421875,41.93733550887555L143.56774609375,41.08733395067975L143.71316796874999,42.276118263136595L143.8949453125,44.83905418403447L143.93130078125,37.679391430458054L144.113078125,37.703131396789104L144.18578906250002,41.74807823961601L144.18578906250002,41.806724621448666L144.54934375,41.43674788530916L144.6220546875,42.0533126242226L144.65841015625,41.10956350504421L144.73112109375,44.773801737232134L144.91289843750002,42.38626704318449L145.24009765625001,38.95744373998605L145.60365234374999,41.23781073023565L145.67636328125,39.75971892988309L145.85814062499998,42.634712587692775L145.96720703124998,43.534312630072236L145.96720703124998,43.595669803908095L146.03991796875002,42.666612753411755L146.11262890625,40.690240020048805L146.5125390625,41.22131279180758L146.83973828125,41.025475956033915L146.91244921875003,40.6790642964188L146.98516015625,41.51417637243867L147.27600390625,40.217903724871576L147.31235937499997,40.35673178336583L147.49413671875,40.05212673707865L147.603203125,43.04436678625643L147.63955859375,42.22193687106483L147.748625,40.96328938053921L147.78498046875,41.16428811545484L147.82133593749998,42.18539550085552L148.03946875,42.003773761563934L148.07582421875003,40.43395093269646L148.1121796875,42.180718523450196L148.5484453125,37.7538216173416L148.6938671875,40.2889050116064L148.766578125,38.42316333018243L149.057421875,39.19805501610972L149.23919921875,41.227702894364484L149.23919921875,41.28043747076299L149.2755546875,40.70137334614992L149.38462109375,40.806026346515864L149.63910937499998,41.415917449397966L149.7118203125,39.615083734854124L149.8572421875,39.01728255231865L149.96630859375,41.32466736785136L150.18444140625002,41.2849726814311L150.6570625,38.9727359986864L151.093328125,39.69136616378091L151.1660390625,41.41821884026285L151.1660390625,41.464996563852765L151.3114609375,38.173478982876986L151.6023046875,41.45806589280255L151.8204375,39.17549158120528L152.00221484375,37.53634614276234L152.14763671875,41.220154809299856L152.256703125,40.293270632158965L152.69296875,39.66155805112794L154.69251953124999,38.803225378505886L154.83794140625002,38.54916348634288L155.3105625,43.84703415329568L155.71047265625,41.52085928292945L155.85589453125,42.242151217884384L156.14673828125,40.076982288388535L156.18309375,38.413891520584L156.328515625,39.723479642067105L156.6920703125,38.71826603030786L157.05562500000002,39.31029452430084L157.09198046875,38.88448421738576L157.1283359375,37.27431748993695L157.4191796875,36.60436498769559L158.1462890625,40.09622016712092L159.0188203125,39.69063745625317L159.23695312499999,41.15996224258561L159.27330859375002,41.228414377896115L159.38237500000002,40.74171989457682L159.7459296875,37.45298332651146L160.07312890625,41.31745846301783L160.1821953125,39.33279568783473L160.54575000000003,40.37377294013277L160.72752734375,40.55885405279696L162.03632421875,43.43069041962735L162.36352343750002,38.82847310695797L162.436234375,42.19110061833635L162.58165625,39.898826547083445L162.7997890625,41.24546878389083L162.90885546875,39.61996475036722L163.16334375000002,39.10970386560075L163.45418750000002,39.84120433055796L163.56325390625,41.40015484311152L163.85409765625,40.18850898812525L163.99951953125,40.55786566040479L164.14494140624998,37.922493561403826L164.98111718750002,38.3617452098988L165.1265390625,39.373382047284395L165.38102734375002,39.087218601140194L165.52644921875,39.08177581836935L165.926359375,38.694054391467944L166.36262499999998,41.592250096960925L166.9443125,41.05661561607849L167.85319921875,39.93594823346939L168.39853125,40.659265975351445L168.9075078125,40.95685025583953L169.1983515625,39.86274360015523L169.4891953125,41.92294419766404L169.707328125,40.06537728977855L169.74368359374998,40.87556359358132L170.3617265625,39.431466661859304L170.68892578125002,41.44522076647263L171.19790234374997,38.797659377916716L171.30696874999998,43.623405737336725L172.1067890625,39.423780784825794L172.72483203125,38.1174678724492L173.16109765625,40.38167875434738L173.2701640625,41.28929722937755L173.488296875,38.834558477276005L174.1426953125,41.94601110322401L174.21540625,39.742012661881745L174.8698046875,39.2426174688153L175.0152265625,41.58701532706618L175.12429296875,38.38882133178413L175.77869140625,38.215468435548246L175.92411328125002,40.26118895201944L176.1786015625,39.496002325438894L176.65122265625,40.017038807156496L176.86935546875,39.84332950669341L177.37833203124998,39.5806357426336L177.81459765625,40.73831749288365L178.3599296875,42.02663530409336L178.6507734375,40.583661906886846L178.68712890625,39.59214004711248L179.48694921875,40.88042871002108L179.63237109374998,40.1292438673554L180.14134765625,40.40968497202266L180.57761328125,40.510027998592705L180.61396875,39.18722907209303L180.86845703125,40.12428733124398L181.37743359375,39.684264577692375L181.59556640625001,39.798649135860614L181.8500546875,40.8469293625094L181.92276562499998,41.30252260854468L182.24996484375,38.991286242497154L182.32267578124998,41.671566599048674L182.35903125,39.67458336695563L183.04978515625,38.82510515325703L183.15885156250002,38.16826276190113L183.48605078125,40.15728055825457L183.958671875,41.260592777398415L184.4676484375,41.327346361707896L184.83120312499997,39.949967241380364L185.412890625,40.50815985747613L185.81280078125,39.44610043393914L186.46719921874998,38.53401696914807L186.83075390625,38.98129367490765L186.86710937499998,37.770840250421315L187.0852421875,42.33499253168702L187.33973046875,40.13866804307327L187.48515234375,38.60603977134451L187.5215078125,41.99643766414374L187.55786328124998,40.21691268263385L188.35768359375,38.546671306598L188.3940390625,40.6758659328334L188.5394609375,39.45964114472736L188.612171875,39.58359297027346L188.93937109375,41.70843919995241L189.08479296874998,41.80590051948093L190.1391015625,40.3451771318214L190.17545703125,41.04568102839403L190.50265625,40.91326162137557L190.61172265625,40.33454065176193L190.8662109375,36.033684974419884L191.229765625,38.01379531493876L191.26612109375,40.02511553640943L191.30247656249998,41.58543204434682L191.33883203125,39.94407265994232L191.520609375,40.479413007968105L191.7387421875,39.73982521437574L191.8841640625,41.07741690368857L191.956875,38.791931736748666L192.5385625,40.863600865821354L192.75669531249997,41.33772978151683L192.79305078125,37.26580088632181L193.08389453125,40.760637141996995L193.7746484375,40.62331949546933L194.39269140625,39.06621460034512L195.33793359375,40.2351475948235L196.174109375,39.50149678019807L196.64673046874998,40.64933037944138L196.755796875,42.80462465947494L197.88281640625,39.65027500875294L197.919171875,41.66887170611881L198.500859375,41.68854945921339L198.53721484375,41.449035219149664L198.90076953125,39.07860262831673L199.00983593750001,40.58172884455416L199.082546875,38.53882908867672L199.48245703125,41.267102123005316L199.70058984375,41.04114979249425L199.80965625000002,37.678331492235884L199.955078125,38.600745379924774L200.6094765625,42.22558305854909L200.64583203125,38.89412303059362L200.79125390624998,41.23062434908934L200.90032031249999,40.78795704967342L200.97303125,41.543744674068876L201.4820078125,41.6241741112899L201.6274296875,40.19759000884369L202.02733984375,41.858253518119454L202.13640625,40.75105000077747L202.863515625,39.65570851706434L203.154359375,37.19888168666512L203.51791406249998,39.393512923968956L203.55426953125001,44.07096067687962L203.95417968750002,41.14458518882748L204.79035546875,39.173235237714835L204.9721328125,40.30935254483484L205.59017578125,40.22696487174835L207.18981640625,39.98290482163429L207.226171875,39.44204484531656L207.37159375,42.141879737144336L207.517015625,41.12659008766059L208.1714140625,38.078826499637216L208.389546875,40.413741885568015L208.42590234374998,40.22009117237758L209.95283203125,38.38279690791387L210.24367578125,39.38431266020052L210.53451953125003,39.74011537246406L210.570875,42.07911947008688L211.18891796875002,41.22001171763986L211.6615390625,40.52806549728848L211.80696093749998,42.12059882748872L212.20687109374998,40.64524166774936L212.64313671875001,37.53413882141467L212.75220312500002,41.57350508950185L212.8249140625,41.71864375518635L212.97033593749998,40.06164895708207L213.26117968749998,39.41066007455811L215.4425078125,40.67439526855014L215.660640625,38.219673740444705L215.69699609375,41.12608131731395L215.76970703125,40.190045898547396L216.3150390625,38.608199395472184L216.56952734375,41.62653247383423L217.405703125,39.461171430535614L217.551125,41.83654333348386L217.95103515625001,37.622806628467515L218.0601015625,42.26875301741529L218.67814453124998,41.37510717799887L218.89627734375,36.473042616737075L219.36889843749998,42.98721226747148L220.0960078125,39.52364683919586L220.42320703125,39.9248665793566L221.00489453125,40.62904846156016L221.07760546875002,38.75417938712053L221.4048046875,39.182611716212705L221.73200390625001,41.44056896260008L222.02284765625,39.86088208365254L222.74995703125,38.7903365297243L222.82266796874998,41.667378518148325L222.931734375,41.72477814764716L223.00444531250002,38.98410118627362L223.22257812499998,38.89379974943586L223.65884375000002,40.27708537550643L223.69519921875,40.83306537056342L223.9496875,41.65813850669656L224.05875390625002,40.386418003123254L224.24053125,40.33335617079865L224.49501953125,39.00381073751487L224.56773046874997,37.470289467833936L226.421859375,40.965180045343004L226.82176953125,39.63033757079393L226.9308359375,37.20515387109481L227.11261328125,38.60491358698346L227.69430078125,39.523951571434736L227.83972265625002,39.81742991623469L227.876078125,38.8182526526507L227.9487890625,39.60224788298365L228.31234375,39.99664559576195L228.45776562499998,39.78377952752635L228.60318750000002,39.01387485093437L228.93038671875,38.46285404183436L228.9667421875,41.15416703035589L229.14851953125,40.16493596206419L229.29394140625,39.721562478807755L229.330296875,39.888726660748944L229.87562890625003,40.25432055233978L231.0026484375,40.136312330374494L231.43891406249998,40.716371471993625L231.69340234375,40.19252085429616L231.8751796875,40.074040959822014L232.38415625000002,40.65955083374865L232.71135546874999,37.82388220890425L233.25668750000003,40.54913706914522L233.65659765624997,41.72119820630178L233.91108593750002,40.15500301599968L233.94744140625,38.526472858851776L234.0565078125,39.3664977485314L234.274640625,39.73828035441693L235.6561484375,40.90484968665987L235.76521484375002,40.67949489632156L235.83792578125,39.698657213826664L235.9469921875,40.38253862923011L235.98334765624998,39.700836711796L236.12876953125001,39.53865821426734L237.29214453125002,38.97907840402331L237.80112109375003,38.06520099379122L238.78271875,40.47713281586766L239.0008515625,42.13771153008565L239.1462734375,40.79734810232185L239.800671875,39.62643699813634L239.98244921875,40.50691443006508L240.52778124999998,41.66709365975112L240.63684765624998,41.48696775827557L240.7459140625,39.01434519852046L241.50937890625,38.13033949723467L241.9092890625,43.14419441786595L242.38191015625,41.25706450804137L242.418265625,39.75885773007758L242.7818203125,39.17030318360776L242.89088671875,38.90047736023553L243.03630859375,40.62553741619922L243.6543515625,37.48294248036109L243.7270625,40.5983182026539L243.83612890625,41.5913716731593L244.59959375,38.613758771447465L244.6723046875,38.7044245620491L244.85408203125002,41.704641971271485L245.25399218750002,38.445239193504676L245.54483593749998,40.43644311244134L245.6902578125,38.24257635558024L246.30830078125,38.23853269126266L246.52643359375,39.54668724630028L246.88998828125003,39.67893308843486L246.96269921875,42.51431817980483L247.18083203125002,40.08786255423911L247.362609375,38.70847352605779L247.54438671875002,41.82036867621355L247.653453125,37.04122117580846L248.19878515625,39.68824199587107L248.235140625,37.6124695809558L249.21673828125,39.19186365196947L249.50758203125002,39.77095427503809L249.87113671875,39.034368756460026L250.27104687500002,39.6619290295057L251.03451171875,38.329684728523716L251.25264453124998,37.711626801639795L251.6525546875,39.62839655892458L251.68891015625,40.94624557392672L252.85228515625,39.385921116452664L252.88864062500002,36.67785050463863L253.10677343749998,39.75610189069994L254.9972578125,40.235742485150695L255.06996875,42.02527858316898L255.32445703124998,41.08923786471132L255.43352343749999,37.00400409498252L255.68801171875,41.073991978308186L256.669609375,41.368403068743646L257.43307421875,41.39315395115409L257.79662890625,38.74487975414377L258.37831640625,39.9976353130769L258.45102734375,41.08309949748218L258.52373828125,38.75333408638835L258.705515625,38.4241225742735L259.868890625,36.319669555989094L260.05066796874996,39.84654111950658L260.450578125,39.94284048175905L260.48693359375,38.3965867041843L260.5232890625,39.67034493898973L260.63235546875,39.933853530557826L261.21404296875,41.93056515348144L262.195640625,38.86515889375005L262.30470703125,40.00163128017448L263.03181640625,42.09310800477397L263.24994921875,41.45769491442479L263.2863046875,41.08367318904493L264.231546875,41.18982070230413L264.48603515625,39.28770989063196L264.55874609375,40.2088545022998L264.7405234375,41.52514143334702L265.94025390625,41.075347374309786L266.04932031249996,43.23684759263415L266.74007421875,41.30113276455086L266.7764296875,39.12176596256904L267.10362890625004,39.521171883447096L267.3581171875,43.0186699089827L267.46718359375,41.000323622021824L267.72167187499997,41.52527392562479L267.83073828125,38.834871159051545L268.52149218750003,39.6954151277896L268.63055859375,40.755151961697266L268.99411328125,40.31131873023696" style="fill: none;" fill="none"></path></g></g></g></g></g></g><g transform="translate(39, 177)" clip-path="url(#clip_1)"><clipPath id="clip_1"><rect width="290" height="22"></rect></clipPath><g><g><line x1="0" y1="0" x2="0" y2="5" style="visibility: inherit;" fill="rgb(0, 0, 0)" stroke="rgb(204, 204, 204)" stroke-width="1px"></line><line x1="36.35546875" y1="0" x2="36.35546875" y2="5" style="visibility: inherit;" fill="rgb(0, 0, 0)" stroke="rgb(204, 204, 204)" stroke-width="1px"></line><line x1="72.7109375" y1="0" x2="72.7109375" y2="5" style="visibility: inherit;" fill="rgb(0, 0, 0)" stroke="rgb(204, 204, 204)" stroke-width="1px"></line><line x1="109.06640625" y1="0" x2="109.06640625" y2="5" style="visibility: inherit;" fill="rgb(0, 0, 0)" stroke="rgb(204, 204, 204)" stroke-width="1px"></line><line x1="145.421875" y1="0" x2="145.421875" y2="5" style="visibility: inherit;" fill="rgb(0, 0, 0)" stroke="rgb(204, 204, 204)" stroke-width="1px"></line><line x1="181.77734375" y1="0" x2="181.77734375" y2="5" style="visibility: inherit;" fill="rgb(0, 0, 0)" stroke="rgb(204, 204, 204)" stroke-width="1px"></line><line x1="218.1328125" y1="0" x2="218.1328125" y2="5" style="visibility: inherit;" fill="rgb(0, 0, 0)" stroke="rgb(204, 204, 204)" stroke-width="1px"></line><line x1="254.48828125" y1="0" x2="254.48828125" y2="5" style="visibility: inherit;" fill="rgb(0, 0, 0)" stroke="rgb(204, 204, 204)" stroke-width="1px"></line><line x1="290.84375" y1="0" x2="290.84375" y2="5" style="visibility: inherit;" fill="rgb(0, 0, 0)" stroke="rgb(204, 204, 204)" stroke-width="1px"></line></g><g transform="translate(0, 8)"><text x="0" y="0" dx="0em" dy="0.95em" style="text-anchor: middle; visibility: hidden; font-family: &quot;Helvetica Neue&quot;, sans-serif; font-size: 12px; font-weight: 200;" fill="rgb(50, 49, 63)" stroke="none" stroke-width="1px">-1k</text><text x="36.35546875" y="0" dx="0em" dy="0.95em" style="text-anchor: middle; visibility: inherit; font-family: &quot;Helvetica Neue&quot;, sans-serif; font-size: 12px; font-weight: 200;" fill="rgb(50, 49, 63)" stroke="none" stroke-width="1px">0</text><text x="72.7109375" y="0" dx="0em" dy="0.95em" style="text-anchor: middle; visibility: inherit; font-family: &quot;Helvetica Neue&quot;, sans-serif; font-size: 12px; font-weight: 200;" fill="rgb(50, 49, 63)" stroke="none" stroke-width="1px">1k</text><text x="109.06640625" y="0" dx="0em" dy="0.95em" style="text-anchor: middle; visibility: inherit; font-family: &quot;Helvetica Neue&quot;, sans-serif; font-size: 12px; font-weight: 200;" fill="rgb(50, 49, 63)" stroke="none" stroke-width="1px">2k</text><text x="145.421875" y="0" dx="0em" dy="0.95em" style="text-anchor: middle; visibility: inherit; font-family: &quot;Helvetica Neue&quot;, sans-serif; font-size: 12px; font-weight: 200;" fill="rgb(50, 49, 63)" stroke="none" stroke-width="1px">3k</text><text x="181.77734375" y="0" dx="0em" dy="0.95em" style="text-anchor: middle; visibility: inherit; font-family: &quot;Helvetica Neue&quot;, sans-serif; font-size: 12px; font-weight: 200;" fill="rgb(50, 49, 63)" stroke="none" stroke-width="1px">4k</text><text x="218.1328125" y="0" dx="0em" dy="0.95em" style="text-anchor: middle; visibility: inherit; font-family: &quot;Helvetica Neue&quot;, sans-serif; font-size: 12px; font-weight: 200;" fill="rgb(50, 49, 63)" stroke="none" stroke-width="1px">5k</text><text x="254.48828125" y="0" dx="0em" dy="0.95em" style="text-anchor: middle; visibility: inherit; font-family: &quot;Helvetica Neue&quot;, sans-serif; font-size: 12px; font-weight: 200;" fill="rgb(50, 49, 63)" stroke="none" stroke-width="1px">6k</text><text x="290.84375" y="0" dx="0em" dy="0.95em" style="text-anchor: middle; visibility: hidden; font-family: &quot;Helvetica Neue&quot;, sans-serif; font-size: 12px; font-weight: 200;" fill="rgb(50, 49, 63)" stroke="none" stroke-width="1px">7k</text></g><line x1="0" y1="0" x2="290.84375" y2="0" fill="rgb(0, 0, 0)" stroke="rgb(204, 204, 204)" stroke-width="1px"></line></g></g></g></g></svg>