<svg viewBox="0 0 330 200" xmlns="http://www.w3.org/2000/svg"><g><g><g><g><g><line x1="48.875" y1="177.828125" x2="43.875" y2="177.828125" style="visibility: inherit;" fill="rgb(0, 0, 0)" stroke="rgb(204, 204, 204)" stroke-width="1px"></line><line x1="48.875" y1="163.00911458333334" x2="43.875" y2="163.00911458333334" style="visibility: inherit;" fill="rgb(0, 0, 0)" stroke="rgb(204, 204, 204)" stroke-width="1px"></line><line x1="48.875" y1="148.19010416666666" x2="43.875" y2="148.19010416666666" style="visibility: inherit;" fill="rgb(0, 0, 0)" stroke="rgb(204, 204, 204)" stroke-width="1px"></line><line x1="48.875" y1="133.37109375" x2="43.875" y2="133.37109375" style="visibility: inherit;" fill="rgb(0, 0, 0)" stroke="rgb(204, 204, 204)" stroke-width="1px"></line><line x1="48.875" y1="118.55208333333334" x2="43.875" y2="118.55208333333334" style="visibility: inherit;" fill="rgb(0, 0, 0)" stroke="rgb(204, 204, 204)" stroke-width="1px"></line><line x1="48.875" y1="103.73307291666666" x2="43.875" y2="103.73307291666666" style="visibility: inherit;" fill="rgb(0, 0, 0)" stroke="rgb(204, 204, 204)" stroke-width="1px"></line><line x1="48.875" y1="88.9140625" x2="43.875" y2="88.9140625" style="visibility: inherit;" fill="rgb(0, 0, 0)" stroke="rgb(204, 204, 204)" stroke-width="1px"></line><line x1="48.875" y1="74.09505208333333" x2="43.875" y2="74.09505208333333" style="visibility: inherit;" fill="rgb(0, 0, 0)" stroke="rgb(204, 204, 204)" stroke-width="1px"></line><line x1="48.875" y1="59.27604166666667" x2="43.875" y2="59.27604166666667" style="visibility: inherit;" fill="rgb(0, 0, 0)" stroke="rgb(204, 204, 204)" stroke-width="1px"></line><line x1="48.875" y1="44.45703125" x2="43.875" y2="44.45703125" style="visibility: inherit;" fill="rgb(0, 0, 0)" stroke="rgb(204, 204, 204)" stroke-width="1px"></line><line x1="48.875" y1="29.638020833333314" x2="43.875" y2="29.638020833333314" style="visibility: inherit;" fill="rgb(0, 0, 0)" stroke="rgb(204, 204, 204)" stroke-width="1px"></line><line x1="48.875" y1="14.819010416666686" x2="43.875" y2="14.819010416666686" style="visibility: inherit;" fill="rgb(0, 0, 0)" stroke="rgb(204, 204, 204)" stroke-width="1px"></line><line x1="48.875" y1="0" x2="43.875" y2="0" style="visibility: inherit;" fill="rgb(0, 0, 0)" stroke="rgb(204, 204, 204)" stroke-width="1px"></line></g><g transform="translate(38.875, 0)"><text x="0" y="177.828125" dx="0em" dy="0.3em" style="text-anchor: end; visibility: hidden; font-family: &quot;Helvetica Neue&quot;, sans-serif; font-size: 12px; font-weight: 200;" fill="rgb(50, 49, 63)" stroke="none" stroke-width="1px">-0.5</text><text x="0" y="163.00911458333334" dx="0em" dy="0.3em" style="text-anchor: end; visibility: inherit; font-family: &quot;Helvetica Neue&quot;, sans-serif; font-size: 12px; font-weight: 200;" fill="rgb(50, 49, 63)" stroke="none" stroke-width="1px">0</text><text x="0" y="148.19010416666666" dx="0em" dy="0.3em" style="text-anchor: end; visibility: hidden; font-family: &quot;Helvetica Neue&quot;, sans-serif; font-size: 12px; font-weight: 200;" fill="rgb(50, 49, 63)" stroke="none" stroke-width="1px">0.5</text><text x="0" y="133.37109375" dx="0em" dy="0.3em" style="text-anchor: end; visibility: inherit; font-family: &quot;Helvetica Neue&quot;, sans-serif; font-size: 12px; font-weight: 200;" fill="rgb(50, 49, 63)" stroke="none" stroke-width="1px">1</text><text x="0" y="118.55208333333334" dx="0em" dy="0.3em" style="text-anchor: end; visibility: hidden; font-family: &quot;Helvetica Neue&quot;, sans-serif; font-size: 12px; font-weight: 200;" fill="rgb(50, 49, 63)" stroke="none" stroke-width="1px">1.5</text><text x="0" y="103.73307291666666" dx="0em" dy="0.3em" style="text-anchor: end; visibility: inherit; font-family: &quot;Helvetica Neue&quot;, sans-serif; font-size: 12px; font-weight: 200;" fill="rgb(50, 49, 63)" stroke="none" stroke-width="1px">2</text><text x="0" y="88.9140625" dx="0em" dy="0.3em" style="text-anchor: end; visibility: hidden; font-family: &quot;Helvetica Neue&quot;, sans-serif; font-size: 12px; font-weight: 200;" fill="rgb(50, 49, 63)" stroke="none" stroke-width="1px">2.5</text><text x="0" y="74.09505208333333" dx="0em" dy="0.3em" style="text-anchor: end; visibility: inherit; font-family: &quot;Helvetica Neue&quot;, sans-serif; font-size: 12px; font-weight: 200;" fill="rgb(50, 49, 63)" stroke="none" stroke-width="1px">3</text><text x="0" y="59.27604166666667" dx="0em" dy="0.3em" style="text-anchor: end; visibility: hidden; font-family: &quot;Helvetica Neue&quot;, sans-serif; font-size: 12px; font-weight: 200;" fill="rgb(50, 49, 63)" stroke="none" stroke-width="1px">3.5</text><text x="0" y="44.45703125" dx="0em" dy="0.3em" style="text-anchor: end; visibility: inherit; font-family: &quot;Helvetica Neue&quot;, sans-serif; font-size: 12px; font-weight: 200;" fill="rgb(50, 49, 63)" stroke="none" stroke-width="1px">4</text><text x="0" y="29.638020833333314" dx="0em" dy="0.3em" style="text-anchor: end; visibility: hidden; font-family: &quot;Helvetica Neue&quot;, sans-serif; font-size: 12px; font-weight: 200;" fill="rgb(50, 49, 63)" stroke="none" stroke-width="1px">4.5</text><text x="0" y="14.819010416666686" dx="0em" dy="0.3em" style="text-anchor: end; visibility: inherit; font-family: &quot;Helvetica Neue&quot;, sans-serif; font-size: 12px; font-weight: 200;" fill="rgb(50, 49, 63)" stroke="none" stroke-width="1px">5</text><text x="0" y="0" dx="0em" dy="0.3em" style="text-anchor: end; visibility: hidden; font-family: &quot;Helvetica Neue&quot;, sans-serif; font-size: 12px; font-weight: 200;" fill="rgb(50, 49, 63)" stroke="none" stroke-width="1px">5.5</text></g><line x1="48.875" y1="0" x2="48.875" y2="177.828125" fill="rgb(0, 0, 0)" stroke="rgb(204, 204, 204)" stroke-width="1px"></line></g></g><g transform="translate(48, 0)" clip-path="url(#clip_0)"><clipPath id="clip_0"><rect width="281" height="177"></rect></clipPath><g><g><g><line x1="0" y1="0" x2="0" y2="177.828125" fill="rgb(0, 0, 0)" stroke="rgb(60, 60, 60)" stroke-width="1px" opacity="0.25"></line><line x1="35.140625" y1="0" x2="35.140625" y2="177.828125" fill="rgb(0, 0, 0)" stroke="rgb(60, 60, 60)" stroke-width="1px" opacity="0.25"></line><line x1="70.28125" y1="0" x2="70.28125" y2="177.828125" fill="rgb(0, 0, 0)" stroke="rgb(60, 60, 60)" stroke-width="1px" opacity="0.25"></line><line x1="105.421875" y1="0" x2="105.421875" y2="177.828125" fill="rgb(0, 0, 0)" stroke="rgb(60, 60, 60)" stroke-width="1px" opacity="0.25"></line><line x1="140.5625" y1="0" x2="140.5625" y2="177.828125" fill="rgb(0, 0, 0)" stroke="rgb(60, 60, 60)" stroke-width="1px" opacity="0.25"></line><line x1="175.703125" y1="0" x2="175.703125" y2="177.828125" fill="rgb(0, 0, 0)" stroke="rgb(60, 60, 60)" stroke-width="1px" opacity="0.25"></line><line x1="210.84375" y1="0" x2="210.84375" y2="177.828125" fill="rgb(0, 0, 0)" stroke="rgb(60, 60, 60)" stroke-width="1px" opacity="0.25"></line><line x1="245.984375" y1="0" x2="245.984375" y2="177.828125" fill="rgb(0, 0, 0)" stroke="rgb(60, 60, 60)" stroke-width="1px" opacity="0.25"></line><line x1="281.125" y1="0" x2="281.125" y2="177.828125" fill="rgb(0, 0, 0)" stroke="rgb(60, 60, 60)" stroke-width="1px" opacity="0.25"></line></g><g><line x1="0" y1="177.828125" x2="281.125" y2="177.828125" fill="rgb(0, 0, 0)" stroke="rgb(60, 60, 60)" stroke-width="1px" opacity="0.25"></line><line x1="0" y1="163.00911458333334" x2="281.125" y2="163.00911458333334" fill="rgb(0, 0, 0)" stroke="rgb(60, 60, 60)" stroke-width="1px" opacity="0.25"></line><line x1="0" y1="148.19010416666666" x2="281.125" y2="148.19010416666666" fill="rgb(0, 0, 0)" stroke="rgb(60, 60, 60)" stroke-width="1px" opacity="0.25"></line><line x1="0" y1="133.37109375" x2="281.125" y2="133.37109375" fill="rgb(0, 0, 0)" stroke="rgb(60, 60, 60)" stroke-width="1px" opacity="0.25"></line><line x1="0" y1="118.55208333333334" x2="281.125" y2="118.55208333333334" fill="rgb(0, 0, 0)" stroke="rgb(60, 60, 60)" stroke-width="1px" opacity="0.25"></line><line x1="0" y1="103.73307291666666" x2="281.125" y2="103.73307291666666" fill="rgb(0, 0, 0)" stroke="rgb(60, 60, 60)" stroke-width="1px" opacity="0.25"></line><line x1="0" y1="88.9140625" x2="281.125" y2="88.9140625" fill="rgb(0, 0, 0)" stroke="rgb(60, 60, 60)" stroke-width="1px" opacity="0.25"></line><line x1="0" y1="74.09505208333333" x2="281.125" y2="74.09505208333333" fill="rgb(0, 0, 0)" stroke="rgb(60, 60, 60)" stroke-width="1px" opacity="0.25"></line><line x1="0" y1="59.27604166666667" x2="281.125" y2="59.27604166666667" fill="rgb(0, 0, 0)" stroke="rgb(60, 60, 60)" stroke-width="1px" opacity="0.25"></line><line x1="0" y1="44.45703125" x2="281.125" y2="44.45703125" fill="rgb(0, 0, 0)" stroke="rgb(60, 60, 60)" stroke-width="1px" opacity="0.25"></line><line x1="0" y1="29.638020833333314" x2="281.125" y2="29.638020833333314" fill="rgb(0, 0, 0)" stroke="rgb(60, 60, 60)" stroke-width="1px" opacity="0.25"></line><line x1="0" y1="14.819010416666686" x2="281.125" y2="14.819010416666686" fill="rgb(0, 0, 0)" stroke="rgb(60, 60, 60)" stroke-width="1px" opacity="0.25"></line><line x1="0" y1="0" x2="281.125" y2="0" fill="rgb(0, 0, 0)" stroke="rgb(60, 60, 60)" stroke-width="1px" opacity="0.25"></line></g></g></g><g><g><line x1="0" y1="163.00911458333334" x2="281.125" y2="163.00911458333334" fill="rgb(0, 0, 0)" stroke="rgb(153, 153, 153)" stroke-width="1.5px"></line></g></g><g><g><line x1="35.140625" y1="0" x2="35.140625" y2="177.828125" fill="rgb(0, 0, 0)" stroke="rgb(153, 153, 153)" stroke-width="1.5px"></line></g></g><g><g><g><g><g><path stroke="rgb(255, 112, 67)" stroke-width="2px" d="M35.456890625,25.318249675134837L35.5623125,27.82465025782585L35.8434375,19.720607766894233L35.878578125,31.549223810662596L35.91371875,39.38031423572821L36.1245625,38.52598459942925L36.370546874999995,44.88500784469235L36.440828124999996,40.88056637224278L36.792234375,40.97423948194387L36.932796875,38.43729981188545L37.003078124999995,46.48601108505156L37.354484375,45.482752238795115L37.846453125,38.733341442315776L37.916734375,40.103525541630916L38.057296875,43.43671328827446L38.338421875,34.97735682545709L38.373562500000006,35.95442218187054L39.14665625000001,34.69985229712731L39.252078125,42.21285642288754L39.4980625,43.02884766999475L39.603484375,36.02784800428506L39.70890625,40.12736558898686L39.814328125,46.345239123245705L39.91974999999999,48.890044702654706L40.27115625,51.27773394180831L40.55228125,44.658168107065904L40.587421875000004,42.33658891717732L40.727984375,41.55530396931954L41.079390625,41.859938008577075L41.219953125,37.70617943397721L41.501078125,31.699141000970684L41.571359375,37.0038949461246L42.52015625,40.135022055305114L42.555296875,38.684717650601954L42.836421875000006,41.82758840508299L42.906703125,36.542913471313625L42.94184375,39.698159075228006L43.22296875,39.25315053433698L43.258109375000004,34.54519645220503L43.29325,38.324964090352125L43.468953125000006,44.77238437702695L43.78521875,49.878917878862566L44.171765625,45.61344148552223L44.452890624999995,54.168568922337656L44.5583125,52.79185813497506L45.015140624999994,55.43210664654947L45.19084375,49.160315871591166L45.296265625,52.07349548566218L45.436828125,43.843919291948936L45.436828125,38.90617357579194L46.03421875,43.25006188933568L46.069359375,49.623429451560725L46.280203125,55.318048748886056L46.385625000000005,55.58074378729813L46.420765625,44.802438310343916L46.455906250000005,47.029011792377844L46.491046874999995,49.16659987828356L46.5261875,36.02891933735762L46.73703125,42.160282803972365L46.912734375,41.16823296252872L47.685828125,46.581931337738126L47.756109375,45.86240871351407L47.826390625,47.17668473507828L47.966953124999996,57.67953893017297L48.107515625,58.204085019061154L48.3535,51.70155571857836L48.42378125,50.90250275309728L48.56434375,47.08736342008419L48.634625,45.82277936130072L48.669765625000004,44.39886257483144L48.70490624999999,46.88045182983228L48.845468749999995,45.717445603967604L48.915749999999996,45.44641822072521L48.950890625,45.97333541508115L49.0563125,46.17997574108199L49.091453125,46.56434012058787L49.161734375,48.906663775563686L49.232015625,51.65563565897175L49.3374375,50.05180552049812L49.3374375,49.08950743741394L49.759125,51.06756332566303L49.82940625,46.64565602719762L50.39165625,50.16070765870798L50.53221875,48.974936219759684L50.637640625,46.582846617325885L50.883624999999995,44.126230731978836L50.953906249999996,41.788097807988436L51.059328125,45.22368623319758L51.09446875,47.561827315907635L51.199890625,44.28591287971793L51.23503125,37.85662235771372L51.481015625000005,46.005539240418415L51.51615625,47.97728928718681L51.691859375,43.64244508222967L51.727,46.95118595918751L51.902703125,47.4499307250623L51.972984375,43.10284935289485L52.043265625000004,48.13975968298632L52.183828125000005,45.54878114513943L52.21896875,38.4698921095474L52.32439062500001,47.08416564421714L52.32439062500001,52.252729765019L52.4298125,52.01492433907062L52.746078125,49.856730396269555L52.78121875,47.0859532235377L52.956921875,40.89396105378745L53.48403125,38.5076625913573L53.694875,43.630603662840116L53.800296874999994,44.78589708261384L53.870578124999994,48.4129369094135L53.90571875,46.6672537113723L53.976,47.01102260190231L54.081421875,52.55540699375459L54.151703125,46.96436186996769L54.32740625,42.69879279604163L54.432828125,44.79480177752538L54.538250000000005,48.257344359710004L54.713953124999996,43.618502114944164L55.45190625,42.095952299077794L55.5221875,40.53266614685822L55.5221875,39.59469445552648L55.557328125,36.58907888634732L55.873593750000005,36.75667456172147L56.0844375,38.35091386863928L56.330421875,42.279394208665764L56.78725,31.256421514417383L56.99809375,36.524341860254026L57.173796875,40.45477315416298L57.244078125,43.26241181868534L57.27921875,44.55793268031806L57.630624999999995,37.5311150960938L57.736046875,44.59775883184767L57.876609375,42.83969882563886L57.98203125,44.369291816767884L58.263156249999994,45.17319611387464L58.298296875,34.88361548688218L58.509140625,40.47248206743325L58.54428125,40.46692562575376L58.6145625,36.93822592780134L58.6145625,34.821006109029895L59.4579375,41.1537043599551L59.52821875,38.048834854260974L59.563359375000005,36.804380037225826L59.5985,38.78108132352682L59.985046875,39.331760992429196L60.195890625000004,32.424746675683L60.23103125,33.04447706245955L60.37159375,43.056702157329966L60.441874999999996,48.148993960303926L60.8635625,47.31583728270698L60.898703125000004,43.617055374644025L61.07440625,44.484230231699456L61.21496875,46.31296245840613L61.28525,49.137926535084404L61.320390625,47.79731257534496L61.88264062499999,54.54522167310998L61.952921874999994,59.183058183635595L62.40975,50.230980524169595L62.690875,51.03694648022285L62.690875,51.52052605385481L62.972,49.85240542780299L63.04228125,50.87664819294773L63.323406250000005,51.18070261548695L63.323406250000005,51.363135269010485L63.709953125,47.19614832444455L63.815375,45.14471421545824L63.885656250000004,40.9987070708836L63.955937500000005,48.080021545749815L64.02621875,47.46381533049262L64.0965,45.61280391058952L64.30734375,42.97574469362672L64.44790625,44.42804728397712L64.553328125,41.694112571769864L64.693890625,42.87834012842808L64.834453125,41.78113930525362L64.904734375,38.52507133942038L64.939875,43.59390285955581L64.975015625,44.64850444503654L65.045296875,40.38411338373837L65.15071875000001,39.50509925133875L65.326421875,41.87480436879528L65.502125,34.50909513504186L65.57240625,30.915754353627847L65.607546875,33.23878877349213L65.64268750000001,34.71935476951313L65.748109375,37.082789192155076L65.78325000000001,40.368706898871096L65.818390625,35.181997244248606L66.169796875,38.293391656690744L66.310359375,41.86869043418602L66.41578125,45.26076971923612L66.55634375,49.66570562781078L66.55634375,52.30866717295554L66.732046875,49.94475814499482L66.83746875,45.758696389484555L67.224015625,46.00610114050198L67.294296875,50.32687350285424L67.47,58.1591485878172L67.54028124999999,57.744860058198924L67.68084375,56.994517839056584L67.926828125,56.91468036091467L67.96196875,59.83120461428845L68.067390625,60.00882941956134L68.10253125,67.21262061928597L68.699921875,68.50028938254647L68.80534374999999,73.49173872093915L69.121609375,72.5112549049391L69.2973125,76.61540439944866L69.332453125,72.17603146019421L69.36759375,71.37674010187095L69.683859375,70.9689527827881L69.92984375,70.43783703317537L69.964984375,69.60241236882582L70.28125,70.61928023406175L70.35153125,73.7663277566928L70.49209375,74.43836902164412L70.80835937500001,67.08203196177676L70.91378125,60.15334398438412L71.33546874999999,64.84462549571123L71.5463125,66.35266864419337L71.61659374999999,67.3079108481329L71.61659374999999,67.88105617049662L71.651734375,67.67428708523508L71.686875,68.06867957631744L71.75715625,66.60280555399257L71.8274375,63.953184309573956L71.968,67.60844377953131L72.21398437500001,72.4830226964453L72.811375,65.11537419905459L72.88165624999999,67.15573887467498L73.02221875,64.55361461603712L73.16278125,60.48432837206565L73.373625,62.35924904164736L73.549328125,64.23226061657309L73.58446875,66.66437333441915L73.61960937500001,70.11325524171478L73.72503125,73.0594896495558L73.76017187500001,69.71014251382452L73.90073437500001,76.80141254010579L73.97101562499999,72.42067413723137L74.322421875,70.64002056263288L74.42784375,66.28173563386441L74.42784375,63.66676467660331L74.462984375,67.71132516043345L74.533265625,69.47757296021952L74.603546875,68.42001165950005L74.603546875,67.78547487906836L74.744109375,71.59708830318186L74.77925,67.98246166170439L74.884671875,61.981251501157686L75.20093750000001,62.956420035033304L75.37664062500001,66.80537055062385L75.4820625,63.97965674178083L75.58748437499999,68.93939683085448L75.657765625,62.35486946451127L75.86860937499999,63.4699172031728L75.90375,64.99119836003666L76.3254375,65.40410584158352L76.501140625,60.92972662317743L77.09853125,61.37899440835709L77.13367187499999,64.08659388657884L77.1688125,62.81872631680852L77.414796875,60.91369647029174L77.94190625,60.981388050276834L78.08246875,54.67623483069269L78.18789062500001,51.88901562846219L78.22303125,57.97073142070482L78.258171875,53.84928312677488L78.36359374999999,51.87840937194234L78.78528125,54.68515623356109L78.820421875,58.31779760467134L78.996125,58.69407985168968L79.031265625,59.840175185948254L79.101546875,65.42428060011046L79.34753125,64.95610865534927L79.45295312500001,60.899858172227454L79.62865625,51.527622260941754L79.874640625,60.36948375227672L79.94492187499999,58.95490606023445L79.98006249999999,60.0715788651123L80.436890625,60.63416416885143L80.647734375,56.09340197384371L80.8234375,62.757569340109896L80.928859375,58.05263436744019L81.209984375,55.56650479183237L81.31540625,58.10097553161171L81.35054687499999,61.8510217984163L81.59653125,66.50024374964694L81.701953125,68.68468504111684L81.772234375,72.25249532636433L82.193921875,69.72465674619731L82.29934375,63.392710784817865L82.40476562500001,62.43987587128787L82.615609375,65.83414152930999L82.75617187499999,69.29854511645927L83.00215625,71.67258215851085L83.213,67.34923074909942L83.28328125,73.27733519734281L83.529265625,73.97036915607059L83.529265625,74.38618953130725L83.56440625,69.18103898352634L84.12665625000001,70.65101145775864L84.16179687500001,69.35594967000732L84.16179687500001,68.57891259735653L84.4780625,66.50458600111303L84.7591875,70.13877544643977L84.82946875,71.74064198638499L85.6025625,68.76926108701326L85.74312499999999,70.4670265898305L85.91882812499999,64.59872174721148L86.02425,61.53644053316826L86.09453125,55.60680578655034L86.37565625,59.948035056428296L86.410796875,60.98721559919089L86.4459375,66.92825308935149L87.254171875,62.288430840996725L87.394734375,62.99493101660083L87.816421875,55.135908553542706L87.956984375,63.05189758238714L88.027265625,61.89586853850396L88.097546875,55.544538308393044L88.1326875,57.73842304450935L88.308390625,53.72007633449235L88.37867187500001,58.225767253050805L88.51923437500001,54.12800481982606L88.55437500000001,56.78783425878035L88.9760625,57.28889770720728L89.04634374999999,65.71802958546677L89.081484375,64.64017361322205L89.573453125,57.37269583693639L89.995140625,59.8323887279719L90.241125,53.509410797025154L90.3816875,57.165746079463986L90.487109375,62.32361502344165L90.557390625,64.61320166326415L90.6628125,63.977486021042964L90.9439375,63.63605729096399L91.260203125,68.81447082571148L91.29534375,61.891747525455315L91.400765625,59.688854940904235L91.47104687500001,57.235221255475125L91.892734375,56.49548096775244L91.927875,53.40065498591997L92.0684375,51.80173988059087L92.103578125,58.721816103398325L92.13871875,62.577002819323255L92.173859375,59.07351306584103L92.173859375,56.97141921375169L92.63068750000001,57.727363837881725L92.77125000000001,57.62536187333296L93.1929375,57.31219218042949L93.3335,59.34492312317566L93.57948437499999,52.92393059151655L93.614625,51.90696942602965L93.89575,56.69239552743457L94.42285937499999,58.93970654116407L94.45800000000001,47.669797132152326L94.633703125,49.65910846525708L94.914828125,46.4846248420136L95.02025,49.56413163396064L95.406796875,50.288668638879116L95.44193750000001,45.99243148947599L95.547359375,50.574800837247636L95.72306250000001,49.89271060941164L95.75820312500001,48.31795123011395L95.89876562500001,44.35064360424195L96.0041875,37.49753454530824L96.10960937499999,37.79997545155638L96.21503125,33.469240585999216L96.2853125,40.47168051205273L96.5664375,51.056751016540474L96.77728125,40.41357768302947L96.8475625,35.99195119624807L96.952984375,38.77392583818519L97.234109375,41.22526871575684L97.26925,40.12428839055957L97.37467187499999,35.22473307429712L97.444953125,36.67899498330928L97.726078125,39.91811152862934L98.04234375,46.934601244732335L98.39375,46.87712443539775L98.71001562500001,45.90817137461468L98.74515625000001,48.3960923263524L98.780296875,46.215268609469774L98.81543749999999,43.781645716753985L98.88571875,45.356569749033895L99.16684375,43.72263511732203L99.3776875,45.831313068956035L99.623671875,48.42981188985101L100.15078125000001,54.45971929749285L100.185921875,53.38798545034986L100.607609375,60.05849343651887L100.677890625,55.25257875639811L100.71303125,55.259179044476866L100.818453125,52.85099682085418L100.85359375,53.757397908703695L100.888734375,57.104014830034714L101.0644375,49.8557338642528L101.169859375,52.78812820180953L101.41584375000001,60.82416846979481L101.55640625000001,59.62953240451509L101.76724999999999,58.96133833345151L101.80239062499999,61.235745534597086L101.872671875,58.72233311204009L102.08351562499999,61.246799425986765L102.153796875,62.61396690534991L102.22407812499999,69.92442458491986L102.25921875,68.12116591903447L102.434921875,69.18509098156021L102.505203125,69.99846584482229L103.0323125,70.30065108766101L103.10259375000001,62.91835614003705L103.24315625000001,64.37406992266357L104.01625,68.70685389920939L104.1568125,66.29975770136636L104.262234375,67.62999992601625L104.332515625,64.31195007731051L104.54335937500001,63.546793157177376L104.64878125000001,64.72907693842085L104.75420312499999,63.84410791889249L105.14075,53.40337683734545L105.316453125,51.489956325405316L105.421875,53.1012228197536L105.5624375,50.84777733733341L105.597578125,52.16036647339715L105.80842187500001,39.890221601407035L105.984125,41.86977724647343L106.05440625,46.61550277818728L106.230109375,49.61957718093885L107.03834375,44.258156590618825L107.143765625,44.56164737544944L107.143765625,44.7437418463478L107.31946875,39.62973885661262L108.61967187500001,38.771938565925154L108.795375,41.60454895012899L108.830515625,38.53001775590573L108.86565625,39.09079915631605L108.90079687500001,36.57036986906604L108.93593750000001,37.42244158660935L108.971078125,38.53964140599314L109.392765625,37.862726113708874L109.4981875,36.02945350399338L109.533328125,36.511731798196166L109.673890625,39.62934182569049L109.884734375,41.69601337230003L110.025296875,39.56828730622411L110.095578125,38.035056168751794L110.095578125,37.11511748626842L110.376703125,38.33400295731431L110.657828125,29.67596618666454L110.76325,38.975349898641525L110.83353125,26.05966867337935L110.97409375,33.48252373907155L111.00923437499999,36.792874351977446L111.1849375,35.67556299319216L111.25521875,40.01422092224365L111.360640625,42.45784833995626L111.430921875,42.42788100571312L111.88775000000001,45.42485106734958L112.063453125,46.268667555591634L112.3094375,38.92153032724531L112.45,42.20605066009048L112.555421875,39.62276796651494L112.625703125,43.12660075268715L112.625703125,45.228900424390446L112.977109375,42.06590588594443L113.01225000000001,47.47859070274214L113.117671875,48.08960385192222L113.64478125,47.84492699644241L113.750203125,39.88812296395267L114.031328125,44.72216854078431L114.06646875,48.51203668638783L114.34759375,43.47989950939842L114.382734375,44.0357351230472L114.699,44.34404953257578L114.73414062500001,48.5165455556095L114.76928125,49.53544281842392L114.94498437499999,47.86186811082811L115.12068749999999,49.840242465356496L115.577515625,50.48279518560736L115.61265625,48.5117280106316L115.8235,49.063056189054436L115.858640625,49.70273322655808L115.89378125,50.485890253150785L115.928921875,47.72820757305482L116.13976562500001,53.05470158244685L116.45603125,57.122975195460626L116.80743749999999,56.26400967092101L116.948,51.34440332045625L117.0885625,50.9897510191727L117.15884375,59.53976570378313L117.26426562500001,54.34937085942768L117.29940625,55.354856610713455L117.29940625,55.95814806148492L117.475109375,52.96086496417769L117.93193749999999,55.62164107395242L118.037359375,54.56203157414812L118.318484375,55.45819034701478L118.4941875,61.71294082244769L118.56446875,59.02651377692145L118.599609375,58.224535146401266L118.740171875,57.78498799445984L118.84559375,64.78690444311155L118.880734375,61.26620085565638L119.0564375,59.05154695502952L119.12671875000001,55.229505745423054L119.232140625,60.44541476787262L119.26728125000001,57.90981650399843L119.37270312499999,56.598924532071834L119.47812499999999,55.9361222972191L119.51326562499999,56.840839340173204L119.54840625,56.54661515313367L120.1809375,51.25446546797741L120.39178125000001,51.93851247787347L120.70804687500001,54.256849269230386L120.7431875,57.520389084364496L121.09459375,59.938314174222285L121.129734375,60.34635005569895L121.481140625,63.177567824779615L121.902828125,62.25116221063851L121.93796875000001,65.96485175512346L122.183953125,60.86004541559288L122.32451562499999,60.76558219935457L122.46507812499999,62.171356151526936L122.535359375,63.12448597104894L122.5705,63.73384893130191L122.5705,64.0994667074537L123.34359375,67.85930803238088L123.449015625,67.74539164420206L123.51929687500001,65.94890440135939L123.62471875,59.79162698440598L123.87070312499999,62.14624599960156L123.90584374999999,65.2713151018622L123.90584374999999,67.14635656321857L124.04640624999999,66.24944894042501L124.362671875,64.99609197245174L124.74921875,64.25289082467239L124.854640625,67.96297942562707L125.20604687500001,69.94835029421533L125.2411875,69.87352607277006L125.346609375,63.8793085324385L125.8034375,61.77689801773141L125.87371875,61.29173633031472L126.119703125,64.9493699152614L126.18998437500001,62.21086190815838L126.50625000000001,63.47292623128138L126.64681250000001,66.0564383819539L127.033359375,67.49870331788095L127.103640625,67.35302536708534L127.173921875,66.6136689684138L127.2090625,61.75207433509898L127.665890625,62.7257352729126L128.0524375,63.61344726539558L128.298421875,67.99385088899874L128.579546875,69.32363764948134L128.75525000000002,66.42606477244587L129.036375,64.8847826156252L129.282359375,69.8725804979543L129.3175,67.6163660091126L129.66890625,65.57541859658345L130.09059375,63.06079509911011L130.125734375,63.45769664952401L130.37171874999999,67.17333660260384L130.68798437499998,62.30794635555473L130.758265625,63.89698277895445L130.828546875,65.59366157939907L131.49621875,66.03062203228002L131.60164062500002,67.42905490467663L131.671921875,67.34746924734938L131.77734375,62.61740103555816L131.882765625,63.5169651445335L131.98818749999998,59.75262236391022L132.023328125,57.221652143465576L132.05846875,59.32081440658396L132.48015625,57.616116797353996L132.62071875,56.82646202867795L132.936984375,57.50103167588853L133.007265625,65.28356249443893L133.04240625,65.1018341907593L133.25324999999998,64.81602777811284L133.288390625,62.5152495817685L133.3938125,60.0432667622771L133.60465625,56.9115311283751L133.710078125,55.615885398520035L133.88578125,58.02120131208481L134.061484375,53.770527096811804L134.553453125,59.47491578890316L134.58859375,59.86033701280813L134.658875,59.489999903768634L134.904859375,62.782199470319554L135.6428125,63.79802921351883L135.67795312500002,63.67706568725163L135.99421875000002,54.53396872095618L136.310484375,55.74297430860413L136.62675,57.84568682559775L136.66189062499998,56.00204017807114L136.7673125,55.00457358613053L136.83759375,59.2366447786755L137.153859375,56.81935915566088L137.189,54.021311663637164L137.470125,48.02507213933245L137.54040625000002,51.61395265022702L137.64582812499998,48.72701184566688L138.137796875,50.68202195162101L138.1729375,48.73341384983772L138.278359375,48.69680287191301L138.594625,49.52983615869698L138.629765625,43.62498083655686L138.770328125,46.18897661260556L138.910890625,46.96986873562213L139.08659375000002,41.030803285728354L139.12173437500002,43.12704406491346L139.2974375,47.17031183329081L139.36771875,48.51792809160665L139.36771875,49.32649784659611L139.719125,47.931272548935425L139.78940625,43.26721487343406L139.824546875,43.03986252089399L139.894828125,43.76516392498249L140.07053125000002,42.75573376567584L140.38679687500002,43.24717108657808L140.73820312499998,40.76942729205402L140.80848437499998,35.52334125191277L140.9841875,35.998801550370274L141.08960937499998,38.558235954901676L141.08960937499998,40.09389659762053L141.159890625,37.33557188013992L141.230171875,37.22045529881996L141.61671875000002,41.331809963285224L141.932984375,34.987178251444874L142.003265625,32.9037852845388L142.073546875,38.213461255737L142.354671875,34.35767607979446L142.38981249999998,40.23041312625489L142.56551562500002,39.07929533956735L142.67093749999998,34.90492712600005L142.706078125,24.690049878614985L142.8115,27.94845650207472L142.84664062500002,29.369415978261657L142.88178125,29.265627778372448L143.092625,19.749141197980208L143.12776562500002,18.027194734859933L143.16290625,17.31486309058377L143.58459375,23.438289333305192L143.72515625,22.27362251416133L143.7954375,15.77878626764982L144.0765625,21.184546799944854L144.252265625,19.602700785688768L144.252265625,18.65359317713512L144.28740625,16.515126086991216L144.392828125,12.39455446763111L144.6388125,19.01719372071787L144.70909375000002,8.927663918920132L144.84965625,17.904780161830445L144.955078125,22.937686289818686L145.165921875,23.631026679558488L145.62275,24.3283752620913L146.0444375,32.22762487554735L146.11471875,29.27635900462181L146.11471875,27.505599482066515L146.25528125,28.09547722332104L146.53640625,26.471163435235184L146.74725,29.752586090140284L146.922953125,29.330761742237826L147.06351562499998,32.89450749803203L147.1689375,33.8306945595063L147.59062500000002,34.1445678015302L149.52335937499998,63.768135092169075L149.663921875,86.4536603295863L150.12075000000002,99.14383262693246L150.507296875,110.63191269305463L150.647859375,116.69299611827006L150.928984375,122.30597447768511L150.964125,122.46889412700531L151.10468749999998,124.28472380617895L151.45609374999998,129.56448951989694L151.8075,126.21288093120526L151.842640625,124.79032988264562L151.87778125,128.8091974688559L152.15890625,130.3572089380069L152.86171875,129.9450088325765L153.70509374999997,130.66661504272875L153.91593749999998,132.18388991709605L153.951078125,131.74583111374213L154.0565,132.8067307720078L154.40790625,132.9450268201228L154.724171875,133.43008212081517L154.82959375,137.2513073862136L155.181,136.22524736600116L155.356703125,134.87561190790132L156.621765625,136.75836060729839L156.93803125,138.1298990352435L157.0083125,138.82975195840893L157.148875,136.99385089760062L157.35971874999998,133.7347099088234L157.465140625,133.09313462851557L157.711125,132.63583242428172L157.99225,134.2452496257337L158.09767187499997,135.21670134180755L158.37879687499998,135.683996001081L158.519359375,138.09346858364125L158.65992187499998,140.34391941449115L159.46815625000002,139.8689805341774L159.60871874999998,140.2347168137067L159.85470312500001,141.13380086223634L159.995265625,142.1743830165412L160.3818125,141.56810516878343L160.80349999999999,140.75020439571267L161.36575,142.37599662443176L162.244265625,142.59789404347643L162.77137499999998,143.75989544827553L163.26334375,142.27589252790597L163.54446875,141.0040995648302L163.82559375,142.14433577364716L164.0364375,141.506620769189L164.07157812499997,143.6760283426734L164.66896875,144.72748930855596L164.985234375,143.9363591288517L165.477203125,144.58557591552477L165.58262499999998,145.789521533166L166.35571875,145.19847422862927L166.95310937500003,144.56392040118502L167.374796875,144.29927819181438L167.48021875,141.48231902284297L167.69106250000002,141.139555361745L168.32359375000001,143.17087982396419L168.39387499999998,144.2266015925639L169.02640624999998,143.47412232408226L169.16696875,140.91931596693476L169.272390625,142.21222321319826L169.90492187499999,144.26354032166995L170.045484375,145.36501317726987L170.29146875,145.12648984533502L170.748296875,143.99960761115125L170.959140625,143.7538654791276L171.451109375,144.96239846090984L171.872796875,144.96403339117077L172.39990625,144.5234765907435L172.68103125,144.80727048319432L172.71617187500001,145.85811946837714L173.489265625,142.25569914645618L173.629828125,143.10903842475267L174.121796875,142.96082555202892L174.543484375,142.61338596226224L174.578625,143.13346014602848L174.824609375,144.55485861162663L175.316578125,145.1147576181461L175.52742187500002,144.96897064584212L175.77340625,144.25905044811597L175.8436875,146.12548537248202L176.159953125,146.8586236269901L176.23023437499998,146.13338291485883L176.265375,146.83803104215727L176.933046875,147.20433793055335L177.03846875000002,144.2865325093507L177.354734375,143.1996398080159L177.81156249999998,142.64737085988236L178.30353125,144.2074226111826L178.6549375,143.85212527288934L179.2171875,145.08249510694904L179.603734375,146.1495310426664L180.236265625,146.35444798888486L180.587671875,144.67195309250835L180.62281249999998,146.40607232474605L180.83365625,147.69944371064744L181.079640625,145.55209332915044L181.220203125,145.0129456566238L181.25534375,147.2672971186604L181.290484375,145.8454705888817L182.063578125,145.25052474490045L182.09871875000002,144.1247437683194L182.23928125,143.08510726100153L182.3095625,144.38846758100954L182.625828125,145.85067722170194L182.76639062499999,148.10982538747226L183.78546875,148.58833906754813L183.820609375,148.11556625811235L184.136875,147.03731917757577L184.24229687500002,149.2480025339998L184.48828125,146.52975330159825L184.8396875,147.10025446532626L184.874828125,145.87331238588766L184.90996875,146.66437396477306L184.945109375,145.82240652955957L185.1208125,145.55313510528885L185.33165625,143.86965712792187L185.47221875,144.97272183113452L185.54250000000002,144.32098345407985L186.10475,143.80304533051435L186.31559374999998,144.73566913303426L186.350734375,146.67678561889767L186.631859375,147.19492817285342L187.29953125,146.23133197425665L187.896921875,147.47091071614315L188.810578125,145.04980856252428L189.6188125,145.0381898134314L190.075640625,146.08705694510218L190.1810625,146.17855114429153L191.27042187499998,145.51040656579906L191.3055625,146.60130301772827L191.86781249999999,147.75199231767968L191.902953125,146.1890245812246L192.254359375,146.72340626863294L192.35978125,145.64421302883417L192.4300625,145.83843571808345L192.816609375,144.82424348860823L193.02745312500002,146.25604881212146L193.132875,146.92342839955307L193.2734375,146.53131702465475L193.90596875,146.19653542653816L193.941109375,146.29828589635252L194.08167187499998,144.6045399087672L194.18709375,143.83393723895676L194.257375,145.1806188381296L194.74934374999998,143.87724781808248L194.88990625,144.60800578126006L195.27645312500002,145.83965896809812L195.38187499999998,145.5281348022007L196.0846875,144.83604809297222L196.3658125,144.7231879627144L196.71721875,145.8476833306016L196.752359375,145.01214382786122L197.13890625000002,147.57538700320464L197.947140625,146.01328848587607L198.12284375,146.4203264106416L198.72023437500002,147.826234744057L200.266421875,148.17342445386097L200.30156250000002,147.50352434588808L200.442125,147.50895175128184L200.58268750000002,149.52777965154152L201.21521875,147.7038019674176L201.4260625,149.34540986456398L201.461203125,148.00537255412843L202.937109375,144.39190406132641L203.218234375,146.0635883806754L203.499359375,145.86004444222058L203.53449999999998,145.00918793939047L204.131890625,147.75769011466448L204.58871875,148.24617955869186L204.72928124999999,146.21520604189683L205.11582812499998,148.72932122046495L205.537515625,148.64394461723015L205.64293750000002,148.6851081704247L205.71321875,149.92375390150536L205.85378125,148.90469935798183L206.13490625,150.23382308109348L208.24334375,149.96955401799823L208.45418750000002,150.6150942202513L208.489328125,149.41942745856076L208.55960937499998,149.73388715358553L209.08671875000002,148.90642987527636L209.332703125,147.70149421384346L210.1409375,146.608858869863L210.2815,147.59560459481972L210.66804687500002,147.89790449087945L210.77346875,149.10883846160846L211.37085937499998,149.56486480528486L211.581703125,149.72143869987127L212.03853125,148.24995497660933L212.74134375,148.2724434798907L213.057609375,147.46079940779214L213.619859375,148.19729824113273L213.69014062500003,148.12590196491234L214.00640625,149.55511558826092L214.322671875,151.0550108423103L214.603796875,149.95127116444573L215.306609375,148.03336306332767L215.376890625,150.55077184663745L215.48231249999998,150.64451570150425L215.55259375,149.486650124836L215.76343749999998,150.3780951169146L216.185125,150.61513784399457L216.220265625,150.7541953248965L216.46625,150.15960111191245L216.57167187500002,149.17965531964822L216.747375,149.49830070293157L216.99335937499998,148.11262101959412L217.06364062499998,146.73844145803386L218.85581249999998,149.19833001879965L219.242359375,149.01924911670756L219.34778125,149.04237436504138L219.523484375,148.61288795509023L220.085734375,148.7906314500456L220.226296875,148.9489216236431L220.2614375,149.8733659293212L220.33171875,150.67322908160088L220.68312500000002,150.2902837710723L220.8236875,150.79100339545926L220.96425000000002,151.76713165421506L221.280515625,150.21152635941937L221.31565625,150.34818035726641L221.491359375,151.13519702408027L221.63192187500002,148.00912132797873L221.6670625,146.480452340349L222.19417187500002,148.81903703966753L223.28353125,149.79313829280844L223.70521875,148.37157621780034L223.951203125,147.60565919421015L224.12690625,146.8488754507913L224.618875,149.2822076476448L224.935140625,148.7848381297638L225.46225,148.84755892340564L225.84879687499998,145.9479962388231L226.09478125,148.17440259720954L226.12992187499998,147.88262718366724L226.23534375,148.73714564690525L226.4461875,147.56348582724453L227.78153125,148.77166368728462L227.88695312500002,149.51246170376092L227.957234375,149.85889092840486L228.06265625,151.09147059124228L228.097796875,150.85255019834548L228.23835937500002,151.84639508179123L229.362859375,150.65713962223532L229.854828125,150.90794817261488L230.80362499999998,148.92826768486754L231.01446875,147.89952290796919L231.15503125,147.62862074868093L231.7875625,146.96279252020247L231.963265625,148.8016547484312L232.490375,148.81956637422175L232.595796875,149.6897352854978L232.70121875,147.45528709601288L233.439171875,149.90774419570025L233.82571875,150.27301181006862L234.28254687499998,150.65162171195257L234.3176875,150.13197496725556L234.66909375,149.68541860199036L234.774515625,148.51001372754212L234.91507812499998,149.96097874965426L235.51246875,152.33590882610287L235.58275,151.67931055083477L235.688171875,152.1665916431535L236.42612499999998,152.89647559157544L236.49640625,150.99403692756016L236.67210937500002,151.66320683754336L237.05865625,152.39660653241586L237.33978125,151.96270891289777L237.48034375,149.05795096283427L238.077734375,146.71034420038424L238.288578125,146.50437262390403L238.639984375,149.65100788874534L238.710265625,150.25315255181854L238.92110937500001,149.76465295892575L239.0968125,149.75909359741306L239.272515625,147.20820246983675L239.3779375,147.51484952764673L239.905046875,149.60658594376773L239.9401875,147.11846797448055L240.888984375,148.66955392447852L241.170109375,150.40708099291496L241.521515625,151.5911537501113L241.9080625,150.59172308337443L242.64601562500002,151.04111239358213L242.856859375,148.9595715830888L243.24340625,150.72198458288852L243.278546875,151.46578606344607L244.403046875,152.17902617223098L244.43818750000003,151.20114096204037L244.64903124999998,150.92360653459164L246.47634375,149.67092301777234L246.546625,150.2253507660887L246.79260937499998,150.19268027460691L246.89803125,146.16500285451284L247.144015625,147.6469004139446L248.09281249999998,149.67427940131086L248.83076562500003,149.27302342605108L249.182171875,149.17040240325935L249.744421875,149.64564044858062L249.814703125,151.88618663298988L249.884984375,153.1727144991295L250.0606875,153.1810255784193L251.18518749999998,151.20807882192628L251.360890625,152.75319167692948L251.7474375,152.31513598195406L251.78257812500001,152.80210286333178L251.81771875,153.80563650470137L251.92314062499997,152.63200650133513L252.48539062499998,152.5332514326219L253.43418749999998,151.05982245574558L253.539609375,151.18879219264016L254.24242187500002,151.00596909399093L254.453265625,150.7115492014416L254.48840625,150.72069631006536L255.4020625,151.70386063867417L255.648046875,151.69023253201235L255.718328125,151.55909506136325L255.89403125,152.68863545179977L257.053671875,149.87388267621267L257.15909375,151.66089808214252L257.826765625,152.7005739352219L257.86190625,150.87386728695708L258.17817187500003,150.65445566519978L258.42415625,151.2731159942913L258.529578125,151.76468513588514L258.7755625,151.65795455204443L258.880984375,151.49652766463603L259.54865625,151.08585562275317L259.654078125,152.59933778381478L260.005484375,148.788312891043" style="fill: none;" fill="none"></path></g></g></g></g><g opacity="0.20000000298023224"><g><g><g><path stroke="rgb(255, 112, 67)" stroke-width="2px" d="M35.456890625,25.318249675134837L35.5623125,29.32849060744047L35.8434375,11.940726975599944L35.878578125,45.45967627813417L35.91371875,49.60458589469391L36.1245625,37.344139153758704L36.370546874999995,53.97851282979052L36.440828124999996,35.0420522627731L36.792234375,41.11238912368816L36.932796875,34.67024006694555L37.003078124999995,58.48607677593827L37.354484375,43.98332365974784L37.846453125,28.631263244897127L37.916734375,42.15611735731363L38.057296875,48.432576871166646L38.338421875,22.294288324813067L38.373562500000006,37.4196067551772L39.14665625000001,32.818316005170345L39.252078125,53.481218080967665L39.4980625,44.25275995582342L39.603484375,25.5267324571808L39.70890625,46.27650706966716L39.814328125,55.67192666356762L39.91974999999999,52.70722292611997L40.27115625,54.85925082986553L40.55228125,34.72884758437675L40.587421875000004,38.854226072629274L40.727984375,40.38337774698931L41.079390625,42.31688878685236L41.219953125,31.47554386779666L41.501078125,22.68858534346026L41.571359375,44.96102480838698L42.52015625,44.831712345282256L42.555296875,36.50926114742953L42.836421875000006,46.541894401734055L42.906703125,28.61590120693046L42.94184375,44.43102743228275L43.22296875,38.58563772713143L43.258109375000004,27.483265355229378L43.29325,43.994615534941374L43.468953125000006,54.44351479411125L43.78521875,57.53871812547247L44.171765625,39.21522689859074L44.452890624999995,67.00126007385552L44.5583125,50.726791954288885L45.015140624999994,59.39247941349943L45.19084375,39.75262970974046L45.296265625,56.44326490660508L45.436828125,31.499555001656233L45.436828125,31.499555001656233L46.03421875,49.765894359598576L46.069359375,59.183480794851974L46.280203125,63.85997769484918L46.385625000000005,55.97478634491563L46.420765625,28.634980094929517L46.455906250000005,50.36887201542656L46.491046874999995,52.37298200714092L46.5261875,16.322398525973142L46.73703125,51.3573280038933L46.912734375,39.68015820036334L47.685828125,54.702478900551796L47.756109375,44.78312477717799L47.826390625,49.14809876742464L47.966953124999996,73.43382022281487L48.107515625,58.99090415239334L48.3535,41.947761767854274L48.42378125,49.70392330487567L48.56434375,41.36465442056459L48.634625,43.92590327312547L48.669765625000004,42.262987395127595L48.70490624999999,50.602835712333516L48.845468749999995,43.972936265170574L48.915749999999996,45.03987714586157L48.950890625,46.76371120661497L49.0563125,46.48993623008329L49.091453125,47.140886689846695L49.161734375,52.42014925802748L49.232015625,55.779093484083816L49.3374375,47.64606031278771L49.3374375,47.64606031278771L49.759125,54.034647158036634L49.82940625,40.01279507949948L50.39165625,55.43328510597348L50.53221875,47.19627906133729L50.637640625,42.9947122136752L50.883624999999995,40.44130690395832L50.953906249999996,38.28089842200279L51.059328125,50.37706887101133L51.09446875,51.069038939972714L51.199890625,39.37204122543335L51.23503125,28.212686574707448L51.481015625000005,58.22891456447542L51.51615625,50.93491435733934L51.691859375,37.140178774793924L51.727,51.9142972746243L51.902703125,48.198047873874486L51.972984375,36.5822272946437L52.043265625000004,55.69512517812352L52.183828125000005,41.66231333836913L52.21896875,27.85155855615932L52.32439062500001,60.005575946221754L52.32439062500001,60.005575946221754L52.4298125,51.65821620014806L52.746078125,46.619439482068L52.78121875,42.92978746443987L52.956921875,31.60597279916209L53.48403125,34.92821489771205L53.694875,51.31501527006428L53.800296874999994,46.51883721227449L53.870578124999994,53.85349664961298L53.90571875,44.048728914310516L53.976,47.52667593769729L54.081421875,60.87198358153303L54.151703125,38.57779418428737L54.32740625,36.30043918515247L54.432828125,47.93881524975103L54.538250000000005,53.45115823298693L54.713953124999996,36.660238747795404L55.45190625,39.81212757527828L55.5221875,38.187736918528856L55.5221875,38.187736918528856L55.557328125,32.080655532578646L55.873593750000005,37.00806807478267L56.0844375,40.74227282901603L56.330421875,48.172114718705416L56.78725,14.721962473044812L56.99809375,44.42622237900895L57.173796875,46.35042009502649L57.244078125,47.47386981546879L57.27921875,46.501213972767175L57.630624999999995,26.99088871975738L57.736046875,55.19772443547845L57.876609375,40.202608816325665L57.98203125,46.663681303461374L58.263156249999994,46.37905255953473L58.298296875,19.449244546393572L58.509140625,48.85578193825978L58.54428125,40.458590963234485L58.6145625,31.645176380872726L58.6145625,31.645176380872726L59.4579375,50.65275173634291L59.52821875,33.391530595719814L59.563359375000005,34.937697811673104L59.5985,41.746133252978325L59.985046875,40.157780495782674L60.195890625000004,22.06422520056367L60.23103125,33.97407264262438L60.37159375,58.075039799635604L60.441874999999996,55.78743166476488L60.8635625,46.066102266311646L60.898703125000004,38.06888251254958L61.07440625,45.78499251728255L61.21496875,49.056060798466206L61.28525,53.37537265010178L61.320390625,45.78639163573581L61.88264062499999,64.66708531975746L61.952921874999994,66.13981294942398L62.40975,36.80286403497058L62.690875,52.24589541430275L62.690875,52.24589541430275L62.972,47.350224488725246L63.04228125,52.413012340664864L63.323406250000005,51.636784249295786L63.323406250000005,51.636784249295786L63.709953125,40.945667907595634L63.815375,42.067563051978766L63.885656250000004,34.77969635402161L63.955937500000005,58.701993258049086L64.02621875,46.5395060076068L64.0965,42.83628678073484L64.30734375,39.0201558681826L64.44790625,46.606501169502735L64.553328125,37.59321050345898L64.693890625,44.65468146341544L64.834453125,40.13533807049197L64.904734375,33.64096939067048L64.939875,51.19715013975899L64.975015625,46.230406823257624L65.045296875,33.98752679179114L65.15071875000001,38.18657805273932L65.326421875,45.42936204498011L65.502125,23.46053128441173L65.57240625,25.52574318150681L65.607546875,36.7233404032886L65.64268750000001,36.94020376354456L65.748109375,40.62794082611799L65.78325000000001,45.297583458945155L65.818390625,27.401932762314857L66.169796875,42.96048327535391L66.310359375,47.23163860042888L66.41578125,50.34888864681125L66.55634375,56.27310949067275L66.55634375,56.27310949067275L66.732046875,46.39889460305375L66.83746875,39.47960375621915L67.224015625,46.37720826702815L67.294296875,56.80803204638262L67.47,69.90756121526162L67.54028124999999,57.12342726377149L67.68084375,55.869004510343075L67.926828125,56.79492414370179L67.96196875,64.20599099434912L68.067390625,60.27526662747066L68.10253125,78.01830741887291L68.699921875,70.43179252743721L68.80534374999999,80.97891272852819L69.121609375,71.040529180939L69.2973125,82.77162864121298L69.332453125,65.51697205131252L69.36759375,70.17780306438605L69.683859375,70.35727180416386L69.92984375,69.64116340875626L69.964984375,68.34927537230153L70.28125,72.14458203191559L70.35153125,78.4868990406394L70.49209375,75.44643091907103L70.80835937500001,56.047526371975735L70.91378125,49.76031201829511L71.33546874999999,71.88154776270191L71.5463125,68.61473336691658L71.61659374999999,68.7407741540422L71.61659374999999,68.7407741540422L71.651734375,67.36413345734279L71.686875,68.660268312941L71.75715625,64.40399452050526L71.8274375,59.97875244294603L71.968,73.09133298446734L72.21398437500001,79.79489107181628L72.811375,54.06390145296852L72.88165624999999,70.21628588810563L73.02221875,60.65042822808027L73.16278125,54.38039900610845L73.373625,65.17163004601996L73.549328125,67.04177797896166L73.58446875,70.31254241118829L73.61960937500001,75.2865781026582L73.72503125,77.47884126131733L73.76017187500001,64.68612181022763L73.90073437500001,87.43831757952769L73.97101562499999,65.84956653291981L74.322421875,67.96904020073514L74.42784375,59.74430824071169L74.42784375,59.74430824071169L74.462984375,73.77816588617861L74.533265625,72.12694465989868L74.603546875,66.83366970842083L74.603546875,66.83366970842083L74.744109375,77.31450843935211L74.77925,62.56052169948816L74.884671875,52.979436260337636L75.20093750000001,64.41917283584674L75.37664062500001,72.5787963240097L75.4820625,59.74108602851629L75.58748437499999,76.37900696446498L75.657765625,52.47807841499646L75.86860937499999,65.1424888111651L75.90375,67.27312009533246L76.3254375,66.02346706390381L76.501140625,54.2181577955683L77.09853125,62.052896086126566L77.13367187499999,68.14799310391147L77.1688125,60.91692496215303L77.414796875,58.05615170051654L77.94190625,61.08292542025447L78.08246875,45.21850500131649L78.18789062500001,47.70818682511646L78.22303125,67.09330510906875L78.258171875,47.667110685880004L78.36359374999999,48.92209873969358L78.78528125,58.895276525989175L78.820421875,63.766759661336735L78.996125,59.25850322221716L79.031265625,61.55931818733613L79.101546875,73.80043872135381L79.34753125,64.2538507382075L79.45295312500001,54.81548244754474L79.62865625,37.46926839401323L79.874640625,73.63227598927915L79.94492187499999,56.83303952217102L79.98006249999999,61.746588072429105L80.436890625,61.478042124460146L80.647734375,49.28225868133205L80.8234375,72.7538203895092L80.928859375,50.99523190843563L81.209984375,51.83731042842071L81.31540625,61.90268164128065L81.35054687499999,67.47609119862318L81.59653125,73.47407667649288L81.701953125,71.96134697832167L81.772234375,77.60421075423558L82.193921875,65.9328988759468L82.29934375,53.89479184274872L82.40476562500001,61.01062350099285L82.615609375,70.92554001634319L82.75617187499999,74.4951504971832L83.00215625,75.23363772158821L83.213,60.8642036349823L83.28328125,82.1694918697079L83.529265625,75.00992009416223L83.529265625,75.00992009416223L83.56440625,61.37331316185494L84.12665625000001,72.85597016910712L84.16179687500001,67.41335698838036L84.16179687500001,67.41335698838036L84.4780625,63.39309610674779L84.7591875,75.59005961442988L84.82946875,74.1434417963028L85.6025625,64.31218973795573L85.74312499999999,73.01367484405637L85.91882812499999,55.79626448328297L86.02425,56.94301871210337L86.09453125,46.712353666623414L86.37565625,66.45987896124522L86.410796875,62.5459864133348L86.4459375,75.83980932459235L87.254171875,55.32869746846457L87.394734375,64.05468128000696L87.816421875,43.34737485895556L87.956984375,74.92588112565379L88.027265625,60.16182497267921L88.097546875,46.01754296322662L88.1326875,61.029250148683786L88.308390625,47.69255626946688L88.37867187500001,64.98430363088846L88.51923437500001,47.98136116998893L88.55437500000001,60.77757841721177L88.9760625,58.04049287984769L89.04634374999999,78.36172740285595L89.081484375,63.02338965485494L89.573453125,46.47147917250794L89.995140625,63.52192806452513L90.241125,44.024943900605024L90.3816875,62.650249003122255L90.487109375,70.06041843940814L90.557390625,68.04758162299792L90.6628125,63.0239125577112L90.9439375,63.12391419584553L91.260203125,76.58209112783273L91.29534375,51.50766257507105L91.400765625,56.384516064077616L91.47104687500001,53.554770727331444L91.892734375,55.38587053616841L91.927875,48.75841601317126L92.0684375,49.40336722259718L92.103578125,69.10193043760955L92.13871875,68.35978289321065L92.173859375,53.818278435617685L92.173859375,53.818278435617685L92.63068750000001,58.861280774076775L92.77125000000001,57.47235892650981L93.1929375,56.842437641074255L93.3335,62.39401953729491L93.57948437499999,43.292441794027866L93.614625,50.38152767779927L93.89575,63.87053467954199L94.42285937499999,62.31067306175828L94.45800000000001,30.764933018634736L94.633703125,52.64307546491425L94.914828125,41.72289940714836L95.02025,54.18339182188113L95.406796875,51.37547414625685L95.44193750000001,39.54807576537132L95.547359375,57.44835485890508L95.72306250000001,48.86957526765764L95.75820312500001,45.955812161167444L95.89876562500001,38.399682165433944L96.0041875,27.21787095690769L96.10960937499999,38.25363681092858L96.21503125,26.97313828766346L96.2853125,50.9753404011329L96.5664375,66.93435677327216L96.77728125,24.448817682762922L96.8475625,29.359511466075958L96.952984375,42.946887801090895L97.234109375,44.902283032114326L97.26925,38.472817902763666L97.37467187499999,27.875400099903345L97.444953125,38.86038784682751L97.726078125,44.77678634660941L98.04234375,57.45933581888676L98.39375,46.79090922139585L98.71001562500001,44.45474178344011L98.74515625000001,52.12797375395894L98.780296875,42.94403303414583L98.81543749999999,40.1312113776803L98.88571875,47.7189557974537L99.16684375,41.27173316975433L99.3776875,48.99432999640703L99.623671875,52.32756012119353L100.15078125000001,63.50458040895562L100.185921875,51.78038467963536L100.607609375,70.0642554157724L100.677890625,48.04370673621696L100.71303125,55.269079476594925L100.818453125,49.23872348542017L100.85359375,55.11699954047799L100.888734375,62.1239402120312L101.0644375,38.983312415579974L101.169859375,57.186719708144665L101.41584375000001,72.87822887177269L101.55640625000001,57.83757830659549L101.76724999999999,57.95904722685616L101.80239062499999,64.64735633631547L101.872671875,54.95221447820465L102.08351562499999,65.03349889690678L102.153796875,64.66471812439461L102.22407812499999,80.8901111042748L102.25921875,65.41627792020638L102.434921875,70.78097857534885L102.505203125,71.21852813971539L103.0323125,70.75392895191908L103.10259375000001,51.84491371860106L103.24315625000001,66.55764059660335L104.01625,75.2060298640281L104.1568125,62.68911340460181L104.262234375,69.62536326299112L104.332515625,59.33487530425191L104.54335937500001,62.399057776977614L104.64878125000001,66.50250261028607L104.75420312499999,62.516654389599964L105.14075,37.74228021502495L105.316453125,48.619825557495176L105.421875,55.51812256127596L105.5624375,47.46760911370319L105.597578125,54.12925017749269L105.80842187500001,21.485004293421923L105.984125,44.839110714073L106.05440625,53.734091075758144L106.230109375,54.1256887850662L107.03834375,36.21602570513886L107.143765625,45.01688355269533L107.143765625,45.01688355269533L107.31946875,31.958734372009815L108.61967187500001,37.48523812989396L108.795375,45.85346452643472L108.830515625,33.91822096457082L108.86565625,39.931971256931604L108.90079687500001,32.789725938191L108.93593750000001,38.70054916292429L108.971078125,40.215441135068716L109.392765625,36.84735317528248L109.4981875,33.27954458942014L109.533328125,37.235149239500345L109.673890625,44.305756866931915L109.884734375,44.79602069221437L110.025296875,36.37669820711017L110.095578125,35.73520946254331L110.095578125,35.73520946254331L110.376703125,40.16233116388321L110.657828125,16.688911030689894L110.76325,52.92442546660702L110.83353125,6.686146835486113L110.97409375,44.61680633760989L111.00923437499999,41.75840027133626L111.1849375,33.99959595501423L111.25521875,46.52220781582099L111.360640625,46.12328946652514L111.430921875,42.38293000434834L111.88775000000001,49.92030615980427L112.063453125,47.53439228795469L112.3094375,27.900824484725774L112.45,47.132831159358204L112.555421875,35.747843926151575L112.625703125,48.382349931945384L112.625703125,48.382349931945384L112.977109375,37.32141407827538L113.01225000000001,55.5976179279387L113.117671875,49.00612357569236L113.64478125,47.47791171322268L113.750203125,27.952916915218054L114.031328125,51.97323690603177L114.06646875,54.19683890479307L114.34759375,35.931693743914366L114.382734375,44.86948854352039L114.699,44.80652114686865L114.73414062500001,54.77528959016006L114.76928125,51.063788712645575L114.94498437499999,45.35150604943436L115.12068749999999,52.807803997149065L115.577515625,51.4466242659837L115.61265625,45.55512724816799L115.8235,49.89004845668872L115.858640625,50.66224878281355L115.89378125,51.6606257930398L115.928921875,43.591683552910865L116.13976562500001,61.04444259653489L116.45603125,63.22538561498125L116.80743749999999,54.97556138411164L116.948,43.964993794759096L117.0885625,50.457772567247346L117.15884375,72.36478773069878L117.26426562500001,46.563778592894494L117.29940625,56.863085237642125L117.29940625,56.863085237642125L117.475109375,48.46494031821686L117.93193749999999,59.612805238614484L118.037359375,52.97261732444167L118.318484375,56.802428506314754L118.4941875,71.09506653559704L118.56446875,54.99687320863207L118.599609375,57.021567200620964L118.740171875,57.12566726654768L118.84559375,75.28977911608915L118.880734375,55.98514547447364L119.0564375,55.729566104089216L119.12671875000001,49.496443931013346L119.232140625,68.26927830154698L119.26728125000001,54.106419108187154L119.37270312499999,54.632586574181914L119.47812499999999,54.94191894493997L119.51326562499999,58.19791490460436L119.54840625,56.105278872574374L120.1809375,43.316240940243006L120.39178125000001,52.964582992717624L120.70804687500001,57.73435445626576L120.7431875,62.41569880706568L121.09459375,63.56520180900891L121.129734375,60.95840387791395L121.481140625,67.42439447840054L121.902828125,60.86155378942688L121.93796875000001,71.53538607185085L122.183953125,53.20283590629697L122.32451562499999,60.62388737499714L122.46507812499999,64.28001707978547L122.535359375,64.55418070033193L122.5705,64.64789337168138L122.5705,64.64789337168138L123.34359375,73.49907001977165L123.449015625,67.57451706193388L123.51929687500001,63.25417353709538L123.62471875,50.55571085897584L123.87070312499999,65.67817452239494L123.90584374999999,69.95891875525315L123.90584374999999,69.95891875525315L124.04640624999999,64.90408750623465L124.362671875,63.11605652049184L124.74921875,63.13808910300334L124.854640625,73.5281123270591L125.20604687500001,72.92640659709771L125.2411875,69.76128974060218L125.346609375,54.88798222194116L125.8034375,58.62328224567075L125.87371875,60.56399379918973L126.119703125,70.43582029268146L126.18998437500001,58.10309989750385L126.50625000000001,65.36602271596591L126.64681250000001,69.93170660796265L127.033359375,69.66210072177152L127.103640625,67.1345084408919L127.173921875,65.50463437040646L127.2090625,54.459682385126754L127.665890625,64.18622667963307L128.0524375,64.94501525412004L128.298421875,74.56445632440348L128.579546875,71.31831779020528L128.75525000000002,62.079705456892654L129.036375,62.57285938039422L129.282359375,77.35427732144792L129.3175,64.23204427585006L129.66890625,62.513997477789715L130.09059375,59.2888598529001L130.125734375,64.05304897514482L130.37171874999999,72.74679653222363L130.68798437499998,55.00986098498106L130.758265625,66.28053741405408L130.828546875,68.13867978006601L131.49621875,66.68606271160145L131.60164062500002,69.52670421327154L131.671921875,67.22509076135854L131.77734375,55.52229871787131L131.882765625,64.86631130799651L131.98818749999998,54.10610819297533L132.023328125,53.425196812798575L132.05846875,62.469557801261544L132.48015625,55.059070383508995L132.62071875,55.64197987566392L132.936984375,58.51288614670436L133.007265625,76.95735872226457L133.04240625,64.82924173523982L133.25324999999998,64.38731815914313L133.288390625,59.06408228725195L133.3938125,56.33529253304005L133.60465625,52.21392767752211L133.710078125,53.67241680373748L133.88578125,61.629175182431936L134.061484375,47.394515773902356L134.553453125,68.0314988270402L134.58859375,60.43846884866555L134.658875,58.93449424020946L134.904859375,67.72049882014592L135.6428125,65.32177382831772L135.67795312500002,63.49562039785087L135.99421875000002,40.819323271512985L136.310484375,57.55648269007604L136.62675,60.99975560108821L136.66189062499998,53.236570206781224L136.7673125,53.50837369821966L136.83759375,65.58475156749289L137.153859375,53.19343072113891L137.189,49.8242404256016L137.470125,39.03071285287541L137.54040625000002,56.99727341656883L137.64582812499998,44.39660063882667L138.137796875,53.61453711055219L138.1729375,45.810501697162806L138.278359375,48.6418864050259L138.594625,50.779386088872954L138.629765625,34.76769785334665L138.770328125,50.03497027667861L138.910890625,48.14120692014694L139.08659375000002,32.122205110887705L139.12173437500002,46.271405233691155L139.2974375,53.235213485856846L139.36771875,50.539352479080364L139.36771875,50.539352479080364L139.719125,45.83843460244435L139.78940625,36.27112836018205L139.824546875,42.69883399208385L139.894828125,44.853116031115235L140.07053125000002,41.241588526715816L140.38679687500002,43.984327067931474L140.73820312499998,37.05281160026789L140.80848437499998,27.654212191700935L140.9841875,36.71199199805659L141.08960937499998,42.397387561698736L141.08960937499998,42.397387561698736L141.159890625,33.198084803919016L141.230171875,37.047780426840006L141.61671875000002,47.49884195998311L141.932984375,25.47023068368435L142.003265625,29.7786958341797L142.073546875,46.17797521253425L142.354671875,28.573998315880715L142.38981249999998,49.03951869594556L142.56551562500002,37.35261865953606L142.67093749999998,28.643374805649103L142.706078125,9.367734007537365L142.8115,32.836066437264265L142.84664062500002,31.500855192542076L142.88178125,29.10994547853869L143.092625,5.474411327391863L143.12776562500002,15.444275040179491L143.16290625,16.246365624169528L143.58459375,32.623428697387396L143.72515625,20.526622285445512L143.7954375,6.036531897882639L144.0765625,29.29318759838742L144.252265625,17.229931764304638L144.252265625,17.229931764304638L144.28740625,13.307425451775373L144.392828125,6.213697038590908L144.6388125,28.951152600347996L144.70909375000002,-6.206630783776433L144.84965625,31.370454526195942L144.955078125,30.487045481801033L145.165921875,24.671037264168262L145.62275,25.374398135890544L146.0444375,44.07649929573137L146.11471875,24.849460198233544L146.11471875,24.849460198233544L146.25528125,28.980293835202872L146.53640625,24.034692753106356L146.74725,34.674720072497905L146.922953125,28.69802522038418L147.06351562499998,38.24012613172334L147.1689375,35.23497515171766L147.59062500000002,34.61537766456604L149.52335937499998,108.20348602812737L149.663921875,120.4819481857121L150.12075000000002,118.17909107295176L150.507296875,127.86403279223791L150.647859375,125.78462125609317L150.928984375,130.7254420168077L150.964125,122.71327360098562L151.10468749999998,127.0084683249394L151.45609374999998,137.4841380904739L151.8075,121.18546804816773L151.842640625,122.6565033098062L151.87778125,134.83749884817126L152.15890625,132.67922614173344L152.86171875,129.32670867443085L153.70509374999997,131.74902435795715L153.91593749999998,134.459802228647L153.951078125,131.08874290871123L154.0565,134.3980802594063L154.40790625,133.15247089229524L154.724171875,134.15766507185373L154.82959375,142.9831452843112L155.181,134.68615733568248L155.356703125,132.8511587207516L156.621765625,139.582483656394L156.93803125,140.18720667716116L157.0083125,139.8795313431571L157.148875,134.2399993063882L157.35971874999998,128.84599842565754L157.465140625,132.13077170805386L157.711125,131.94987911793092L157.99225,136.6593754279117L158.09767187499997,136.67387891591835L158.37879687499998,136.38493798999116L158.519359375,141.70767745748162L158.65992187499998,143.71959566076595L159.46815625000002,139.15657221370685L159.60871874999998,140.7833212330006L159.85470312500001,142.4824269350308L159.995265625,143.7352562479985L160.3818125,140.65868839714676L160.80349999999999,139.52335323610652L161.36575,144.8146849675104L162.244265625,142.93074017204344L162.77137499999998,145.5028975554742L163.26334375,140.04988814735162L163.54446875,139.0964101202165L163.82559375,143.8546900868726L164.0364375,140.55004826250178L164.07157812499997,146.9301397029L164.66896875,146.30468075737977L164.985234375,142.74966385929537L165.477203125,145.55940109553438L165.58262499999998,147.5954399596279L166.35571875,144.31190327182412L166.95310937500003,143.61208966001868L167.374796875,143.90231487775844L167.48021875,137.25688026938587L167.69106250000002,140.62540987009805L168.32359375000001,146.21786651729295L168.39387499999998,145.81018424546346L169.02640624999998,142.34540342135978L169.16696875,137.0871064312135L169.272390625,144.1515840825935L169.90492187499999,147.3405159843775L170.045484375,147.01722246066979L170.29146875,144.76870484743267L170.748296875,142.3092842598756L170.959140625,143.3852522810921L171.451109375,146.7751979335832L171.872796875,144.96648578656215L172.39990625,143.86264139010262L172.68103125,145.2329613218705L172.71617187500001,147.4343929461514L173.489265625,136.85206866357476L173.629828125,144.38904734219733L174.121796875,142.7385062429433L174.543484375,142.09222657761228L174.578625,143.9135714216779L174.824609375,146.68695631002387L175.316578125,145.95460612792522L175.52742187500002,144.75029018738616L175.77340625,143.19417015152675L175.8436875,148.92513775903112L176.159953125,147.9583310087522L176.23023437499998,145.04552184666198L176.265375,147.89500323310494L176.933046875,147.75379826314747L177.03846875000002,139.90982437754673L177.354734375,141.56930075601366L177.81156249999998,141.81896743768203L178.30353125,146.54750023813298L178.6549375,143.31917926544946L179.2171875,146.92804985803863L179.603734375,147.75008494624248L180.236265625,146.6618234082125L180.587671875,142.14821074794355L180.62281249999998,149.00725117310262L180.83365625,149.63950078949952L181.079640625,142.33106775690493L181.220203125,144.20422414783388L181.25534375,150.64882431171523L181.290484375,143.7127307942137L182.063578125,144.3581059789285L182.09871875000002,142.43607230344787L182.23928125,141.5256525000247L182.3095625,146.34350806102157L182.625828125,148.04399168274054L182.76639062499999,151.4985476361277L183.78546875,149.30610958766192L183.820609375,147.4064070439587L184.136875,145.41994855677086L184.24229687500002,152.56402756863585L184.48828125,142.45237945299596L184.8396875,147.95600621091822L184.874828125,144.03289926672977L184.90996875,147.85096633310118L184.945109375,144.55945537673932L185.1208125,145.14922796888277L185.33165625,141.34444016187143L185.47221875,146.62731888595349L185.54250000000002,143.34337588849786L186.10475,143.02613814516616L186.31559374999998,146.1346048368141L186.350734375,149.5884603476928L186.631859375,147.97214200378707L187.29953125,144.78593767636147L187.896921875,149.33027882897295L188.810578125,141.41815533209592L189.6188125,145.0207616897921L190.075640625,147.66035764260837L190.1810625,146.31579244307554L191.27042187499998,144.50818969806033L191.3055625,148.2376476956221L191.86781249999999,149.47802626760677L191.902953125,143.844572976542L192.254359375,147.52497879974544L192.35978125,144.02542316913605L192.4300625,146.1297697519573L192.816609375,143.3029551443954L193.02745312500002,148.4037567973913L193.132875,147.92449778070053L193.2734375,145.94314996230727L193.90596875,145.69436302936327L193.941109375,146.45091160107404L194.08167187499998,142.06392092738923L194.18709375,142.67803323424113L194.257375,147.20064123688886L194.74934374999998,141.9221912880118L194.88990625,145.70414272602648L195.27645312500002,147.6871387483552L195.38187499999998,145.06084855335456L196.0846875,143.7979180291295L196.3658125,144.55389776732773L196.71721875,147.53442638243237L196.752359375,143.75883457375068L197.13890625000002,151.42025176621974L197.947140625,143.67014070988324L198.12284375,147.03088329778984L198.72023437500002,149.93509724418013L200.266421875,148.69420901856697L200.30156250000002,146.49867418392873L200.442125,147.5170928593725L200.58268750000002,152.55602150193104L201.21521875,144.96783544123173L201.4260625,151.80782171028355L201.461203125,145.99531658847505L202.937109375,138.9717013221234L203.218234375,148.57111485969895L203.499359375,145.5547285345383L203.53449999999998,143.7329031851453L204.131890625,151.88044337757552L204.58871875,148.9789137247329L204.72928124999999,143.16874576670426L205.11582812499998,152.50049398831712L205.537515625,148.515879712378L205.64293750000002,148.7468535002166L205.71321875,151.78172249812633L205.85378125,147.3761175426965L206.13490625,152.22750866576098L208.24334375,149.5731504233554L208.45418750000002,151.58340452363095L208.489328125,147.6259273160249L208.55960937499998,150.20557669612268L209.08671875000002,147.66524395781258L209.332703125,145.89409072169414L210.1409375,144.96990585389239L210.2815,149.0757231822548L210.66804687500002,148.35135433496907L210.77346875,150.92523941770196L211.37085937499998,150.24890432079943L211.581703125,149.95629954175092L212.03853125,146.04272939171642L212.74134375,148.3061762348128L213.057609375,146.2433332996443L213.619859375,149.3020464911436L213.69014062500003,148.01880755058178L214.00640625,151.69893602328375L214.322671875,153.30485372338444L214.603796875,148.29566164764887L215.306609375,145.15650091165054L215.376890625,154.32688502160212L215.48231249999998,150.78513148380443L215.55259375,147.7498517598336L215.76343749999998,151.71526260503256L216.185125,150.97070193461454L216.220265625,150.96278154624937L216.46625,149.26770979243642L216.57167187500002,147.70973663125187L216.747375,149.9762687778566L216.99335937499998,146.03410149458796L217.06364062499998,144.6771721156935L218.85581249999998,152.88816285994835L219.242359375,148.75062776356936L219.34778125,149.07706223754212L219.523484375,147.96865834016353L220.085734375,149.05724669247866L220.226296875,149.18635688403933L220.2614375,151.26003238783838L220.33171875,151.87302381002033L220.68312500000002,149.71586580527946L220.8236875,151.54208283203965L220.96425000000002,153.2313240423488L221.280515625,147.87811841722578L221.31565625,150.553161354037L221.491359375,152.31572202430107L221.63192187500002,143.32000778382644L221.6670625,144.18744885890436L222.19417187500002,152.32691408864534L223.28353125,151.25429017251977L223.70521875,146.2392331052882L223.951203125,146.45678365882486L224.12690625,145.71369983566302L224.618875,152.93220594292507L224.935140625,148.0387838529423L225.46225,148.94164011386843L225.84879687499998,141.59865221194923L226.09478125,151.51401213478917L226.12992187499998,147.44496406335384L226.23534375,150.01892334176227L226.4461875,145.80299609775346L227.78153125,150.58393047734475L227.88695312500002,150.62365872847536L227.957234375,150.3785347653708L228.06265625,152.94034008549838L228.097796875,150.4941696090003L228.23835937500002,153.3371624069599L229.362859375,148.87325643290146L229.854828125,151.28416099818423L230.80362499999998,145.9587469532465L231.01446875,146.35640574262166L231.15503125,147.22226750974855L231.7875625,145.96405017748475L231.963265625,151.55994809077433L232.490375,148.84643381290758L232.595796875,150.99498865241185L232.70121875,144.10361481178552L233.439171875,153.58642984523127L233.82571875,150.82091323162118L234.28254687499998,151.21953656477854L234.3176875,149.35250485021L234.66909375,149.01558405409256L234.774515625,146.7469064158698L234.91507812499998,152.13742628282247L235.51246875,155.8983039407758L235.58275,150.69441313793263L235.688171875,152.8975132816316L236.42612499999998,153.99130151420832L236.49640625,148.14037893153727L236.67210937500002,152.66696170251817L237.05865625,153.49670607472459L237.33978125,151.31186248362064L237.48034375,144.700814037739L238.077734375,143.18893405670923L238.288578125,146.1954152591837L238.639984375,154.37096078600734L238.710265625,151.15636954642832L238.92110937500001,149.03190356958658L239.0968125,149.75075455514403L239.272515625,143.38186577847227L239.3779375,147.97482011436173L239.905046875,152.74419056794918L239.9401875,143.38629102054983L240.888984375,150.9961828494755L241.170109375,153.01337159556957L241.521515625,153.3672628859058L241.9080625,149.09257708326913L242.64601562500002,151.71519635889368L242.856859375,145.8372603673488L243.24340625,153.3656040825881L243.278546875,152.5814882842824L244.403046875,153.24888633540832L244.43818750000003,149.7343131467545L244.64903124999998,150.50730489341854L246.47634375,147.79189774254337L246.546625,151.05699238856323L246.79260937499998,150.14367453738427L246.89803125,140.12348672437173L247.144015625,149.86974675309224L248.09281249999998,152.71534788236022L248.83076562500003,148.67113946316144L249.182171875,149.01647086907178L249.744421875,150.35849751656255L249.814703125,155.2470059096037L249.884984375,155.102506298339L250.0606875,153.193492197354L251.18518749999998,148.24865868718675L251.360890625,155.07086095943427L251.7474375,151.65805243949094L251.78257812500001,153.53255318539837L251.81771875,155.31093696675575L251.92314062499997,150.87156149628572L252.48539062499998,152.38511882955208L253.43418749999998,148.84967899043113L253.539609375,151.382246797982L254.24242187500002,150.73173444601707L254.453265625,150.26991936261766L254.48840625,150.734416973001L255.4020625,153.17860713158734L255.648046875,151.66979037201963L255.718328125,151.36238885538964L255.89403125,154.38294603745453L257.053671875,145.65175351283204L257.15909375,154.3414211910373L257.826765625,154.26008771484098L257.86190625,148.13380731455982L258.17817187500003,150.3253382325638L258.42415625,152.20110648792857L258.529578125,152.50203884827593L258.7755625,151.4978586762833L258.880984375,151.25438733352348L259.54865625,150.4698475599289L259.654078125,154.86956102540717L260.005484375,143.07177555188537" style="fill: none;" fill="none"></path></g></g></g></g></g></g><g transform="translate(48, 177)" clip-path="url(#clip_1)"><clipPath id="clip_1"><rect width="281" height="22"></rect></clipPath><g><g><line x1="0" y1="0" x2="0" y2="5" style="visibility: inherit;" fill="rgb(0, 0, 0)" stroke="rgb(204, 204, 204)" stroke-width="1px"></line><line x1="35.140625" y1="0" x2="35.140625" y2="5" style="visibility: inherit;" fill="rgb(0, 0, 0)" stroke="rgb(204, 204, 204)" stroke-width="1px"></line><line x1="70.28125" y1="0" x2="70.28125" y2="5" style="visibility: inherit;" fill="rgb(0, 0, 0)" stroke="rgb(204, 204, 204)" stroke-width="1px"></line><line x1="105.421875" y1="0" x2="105.421875" y2="5" style="visibility: inherit;" fill="rgb(0, 0, 0)" stroke="rgb(204, 204, 204)" stroke-width="1px"></line><line x1="140.5625" y1="0" x2="140.5625" y2="5" style="visibility: inherit;" fill="rgb(0, 0, 0)" stroke="rgb(204, 204, 204)" stroke-width="1px"></line><line x1="175.703125" y1="0" x2="175.703125" y2="5" style="visibility: inherit;" fill="rgb(0, 0, 0)" stroke="rgb(204, 204, 204)" stroke-width="1px"></line><line x1="210.84375" y1="0" x2="210.84375" y2="5" style="visibility: inherit;" fill="rgb(0, 0, 0)" stroke="rgb(204, 204, 204)" stroke-width="1px"></line><line x1="245.984375" y1="0" x2="245.984375" y2="5" style="visibility: inherit;" fill="rgb(0, 0, 0)" stroke="rgb(204, 204, 204)" stroke-width="1px"></line><line x1="281.125" y1="0" x2="281.125" y2="5" style="visibility: inherit;" fill="rgb(0, 0, 0)" stroke="rgb(204, 204, 204)" stroke-width="1px"></line></g><g transform="translate(0, 8)"><text x="0" y="0" dx="0em" dy="0.95em" style="text-anchor: middle; visibility: hidden; font-family: &quot;Helvetica Neue&quot;, sans-serif; font-size: 12px; font-weight: 200;" fill="rgb(50, 49, 63)" stroke="none" stroke-width="1px">-1k</text><text x="35.140625" y="0" dx="0em" dy="0.95em" style="text-anchor: middle; visibility: inherit; font-family: &quot;Helvetica Neue&quot;, sans-serif; font-size: 12px; font-weight: 200;" fill="rgb(50, 49, 63)" stroke="none" stroke-width="1px">0</text><text x="70.28125" y="0" dx="0em" dy="0.95em" style="text-anchor: middle; visibility: inherit; font-family: &quot;Helvetica Neue&quot;, sans-serif; font-size: 12px; font-weight: 200;" fill="rgb(50, 49, 63)" stroke="none" stroke-width="1px">1k</text><text x="105.421875" y="0" dx="0em" dy="0.95em" style="text-anchor: middle; visibility: inherit; font-family: &quot;Helvetica Neue&quot;, sans-serif; font-size: 12px; font-weight: 200;" fill="rgb(50, 49, 63)" stroke="none" stroke-width="1px">2k</text><text x="140.5625" y="0" dx="0em" dy="0.95em" style="text-anchor: middle; visibility: inherit; font-family: &quot;Helvetica Neue&quot;, sans-serif; font-size: 12px; font-weight: 200;" fill="rgb(50, 49, 63)" stroke="none" stroke-width="1px">3k</text><text x="175.703125" y="0" dx="0em" dy="0.95em" style="text-anchor: middle; visibility: inherit; font-family: &quot;Helvetica Neue&quot;, sans-serif; font-size: 12px; font-weight: 200;" fill="rgb(50, 49, 63)" stroke="none" stroke-width="1px">4k</text><text x="210.84375" y="0" dx="0em" dy="0.95em" style="text-anchor: middle; visibility: inherit; font-family: &quot;Helvetica Neue&quot;, sans-serif; font-size: 12px; font-weight: 200;" fill="rgb(50, 49, 63)" stroke="none" stroke-width="1px">5k</text><text x="245.984375" y="0" dx="0em" dy="0.95em" style="text-anchor: middle; visibility: inherit; font-family: &quot;Helvetica Neue&quot;, sans-serif; font-size: 12px; font-weight: 200;" fill="rgb(50, 49, 63)" stroke="none" stroke-width="1px">6k</text><text x="281.125" y="0" dx="0em" dy="0.95em" style="text-anchor: middle; visibility: hidden; font-family: &quot;Helvetica Neue&quot;, sans-serif; font-size: 12px; font-weight: 200;" fill="rgb(50, 49, 63)" stroke="none" stroke-width="1px">7k</text></g><line x1="0" y1="0" x2="281.125" y2="0" fill="rgb(0, 0, 0)" stroke="rgb(204, 204, 204)" stroke-width="1px"></line></g></g></g></g></svg>