<svg viewBox="0 0 330 200" xmlns="http://www.w3.org/2000/svg"><g><g><g><g><g><line x1="39.15625" y1="177.828125" x2="34.15625" y2="177.828125" style="visibility: inherit;" fill="rgb(0, 0, 0)" stroke="rgb(204, 204, 204)" stroke-width="1px"></line><line x1="39.15625" y1="158.06944444444446" x2="34.15625" y2="158.06944444444446" style="visibility: inherit;" fill="rgb(0, 0, 0)" stroke="rgb(204, 204, 204)" stroke-width="1px"></line><line x1="39.15625" y1="138.31076388888889" x2="34.15625" y2="138.31076388888889" style="visibility: inherit;" fill="rgb(0, 0, 0)" stroke="rgb(204, 204, 204)" stroke-width="1px"></line><line x1="39.15625" y1="118.55208333333334" x2="34.15625" y2="118.55208333333334" style="visibility: inherit;" fill="rgb(0, 0, 0)" stroke="rgb(204, 204, 204)" stroke-width="1px"></line><line x1="39.15625" y1="98.79340277777779" x2="34.15625" y2="98.79340277777779" style="visibility: inherit;" fill="rgb(0, 0, 0)" stroke="rgb(204, 204, 204)" stroke-width="1px"></line><line x1="39.15625" y1="79.03472222222221" x2="34.15625" y2="79.03472222222221" style="visibility: inherit;" fill="rgb(0, 0, 0)" stroke="rgb(204, 204, 204)" stroke-width="1px"></line><line x1="39.15625" y1="59.27604166666667" x2="34.15625" y2="59.27604166666667" style="visibility: inherit;" fill="rgb(0, 0, 0)" stroke="rgb(204, 204, 204)" stroke-width="1px"></line><line x1="39.15625" y1="39.517361111111114" x2="34.15625" y2="39.517361111111114" style="visibility: inherit;" fill="rgb(0, 0, 0)" stroke="rgb(204, 204, 204)" stroke-width="1px"></line><line x1="39.15625" y1="19.75868055555557" x2="34.15625" y2="19.75868055555557" style="visibility: inherit;" fill="rgb(0, 0, 0)" stroke="rgb(204, 204, 204)" stroke-width="1px"></line><line x1="39.15625" y1="0" x2="34.15625" y2="0" style="visibility: inherit;" fill="rgb(0, 0, 0)" stroke="rgb(204, 204, 204)" stroke-width="1px"></line></g><g transform="translate(29.15625, 0)"><text x="0" y="177.828125" dx="0em" dy="0.3em" style="text-anchor: end; visibility: hidden; font-family: &quot;Helvetica Neue&quot;, sans-serif; font-size: 12px; font-weight: 200;" fill="rgb(50, 49, 63)" stroke="none" stroke-width="1px">-80</text><text x="0" y="158.06944444444446" dx="0em" dy="0.3em" style="text-anchor: end; visibility: inherit; font-family: &quot;Helvetica Neue&quot;, sans-serif; font-size: 12px; font-weight: 200;" fill="rgb(50, 49, 63)" stroke="none" stroke-width="1px">-60</text><text x="0" y="138.31076388888889" dx="0em" dy="0.3em" style="text-anchor: end; visibility: hidden; font-family: &quot;Helvetica Neue&quot;, sans-serif; font-size: 12px; font-weight: 200;" fill="rgb(50, 49, 63)" stroke="none" stroke-width="1px">-40</text><text x="0" y="118.55208333333334" dx="0em" dy="0.3em" style="text-anchor: end; visibility: inherit; font-family: &quot;Helvetica Neue&quot;, sans-serif; font-size: 12px; font-weight: 200;" fill="rgb(50, 49, 63)" stroke="none" stroke-width="1px">-20</text><text x="0" y="98.79340277777779" dx="0em" dy="0.3em" style="text-anchor: end; visibility: hidden; font-family: &quot;Helvetica Neue&quot;, sans-serif; font-size: 12px; font-weight: 200;" fill="rgb(50, 49, 63)" stroke="none" stroke-width="1px">0</text><text x="0" y="79.03472222222221" dx="0em" dy="0.3em" style="text-anchor: end; visibility: inherit; font-family: &quot;Helvetica Neue&quot;, sans-serif; font-size: 12px; font-weight: 200;" fill="rgb(50, 49, 63)" stroke="none" stroke-width="1px">20</text><text x="0" y="59.27604166666667" dx="0em" dy="0.3em" style="text-anchor: end; visibility: hidden; font-family: &quot;Helvetica Neue&quot;, sans-serif; font-size: 12px; font-weight: 200;" fill="rgb(50, 49, 63)" stroke="none" stroke-width="1px">40</text><text x="0" y="39.517361111111114" dx="0em" dy="0.3em" style="text-anchor: end; visibility: inherit; font-family: &quot;Helvetica Neue&quot;, sans-serif; font-size: 12px; font-weight: 200;" fill="rgb(50, 49, 63)" stroke="none" stroke-width="1px">60</text><text x="0" y="19.75868055555557" dx="0em" dy="0.3em" style="text-anchor: end; visibility: hidden; font-family: &quot;Helvetica Neue&quot;, sans-serif; font-size: 12px; font-weight: 200;" fill="rgb(50, 49, 63)" stroke="none" stroke-width="1px">80</text><text x="0" y="0" dx="0em" dy="0.3em" style="text-anchor: end; visibility: hidden; font-family: &quot;Helvetica Neue&quot;, sans-serif; font-size: 12px; font-weight: 200;" fill="rgb(50, 49, 63)" stroke="none" stroke-width="1px">100</text></g><line x1="39.15625" y1="0" x2="39.15625" y2="177.828125" fill="rgb(0, 0, 0)" stroke="rgb(204, 204, 204)" stroke-width="1px"></line></g></g><g transform="translate(39, 0)" clip-path="url(#clip_0)"><clipPath id="clip_0"><rect width="290" height="177"></rect></clipPath><g><g><g><line x1="0" y1="0" x2="0" y2="177.828125" fill="rgb(0, 0, 0)" stroke="rgb(60, 60, 60)" stroke-width="1px" opacity="0.25"></line><line x1="24.236979166666664" y1="0" x2="24.236979166666664" y2="177.828125" fill="rgb(0, 0, 0)" stroke="rgb(60, 60, 60)" stroke-width="1px" opacity="0.25"></line><line x1="48.47395833333333" y1="0" x2="48.47395833333333" y2="177.828125" fill="rgb(0, 0, 0)" stroke="rgb(60, 60, 60)" stroke-width="1px" opacity="0.25"></line><line x1="72.7109375" y1="0" x2="72.7109375" y2="177.828125" fill="rgb(0, 0, 0)" stroke="rgb(60, 60, 60)" stroke-width="1px" opacity="0.25"></line><line x1="96.94791666666666" y1="0" x2="96.94791666666666" y2="177.828125" fill="rgb(0, 0, 0)" stroke="rgb(60, 60, 60)" stroke-width="1px" opacity="0.25"></line><line x1="121.18489583333334" y1="0" x2="121.18489583333334" y2="177.828125" fill="rgb(0, 0, 0)" stroke="rgb(60, 60, 60)" stroke-width="1px" opacity="0.25"></line><line x1="145.421875" y1="0" x2="145.421875" y2="177.828125" fill="rgb(0, 0, 0)" stroke="rgb(60, 60, 60)" stroke-width="1px" opacity="0.25"></line><line x1="169.65885416666669" y1="0" x2="169.65885416666669" y2="177.828125" fill="rgb(0, 0, 0)" stroke="rgb(60, 60, 60)" stroke-width="1px" opacity="0.25"></line><line x1="193.89583333333331" y1="0" x2="193.89583333333331" y2="177.828125" fill="rgb(0, 0, 0)" stroke="rgb(60, 60, 60)" stroke-width="1px" opacity="0.25"></line><line x1="218.1328125" y1="0" x2="218.1328125" y2="177.828125" fill="rgb(0, 0, 0)" stroke="rgb(60, 60, 60)" stroke-width="1px" opacity="0.25"></line><line x1="242.36979166666669" y1="0" x2="242.36979166666669" y2="177.828125" fill="rgb(0, 0, 0)" stroke="rgb(60, 60, 60)" stroke-width="1px" opacity="0.25"></line><line x1="266.6067708333333" y1="0" x2="266.6067708333333" y2="177.828125" fill="rgb(0, 0, 0)" stroke="rgb(60, 60, 60)" stroke-width="1px" opacity="0.25"></line><line x1="290.84375" y1="0" x2="290.84375" y2="177.828125" fill="rgb(0, 0, 0)" stroke="rgb(60, 60, 60)" stroke-width="1px" opacity="0.25"></line></g><g><line x1="0" y1="177.828125" x2="290.84375" y2="177.828125" fill="rgb(0, 0, 0)" stroke="rgb(60, 60, 60)" stroke-width="1px" opacity="0.25"></line><line x1="0" y1="158.06944444444446" x2="290.84375" y2="158.06944444444446" fill="rgb(0, 0, 0)" stroke="rgb(60, 60, 60)" stroke-width="1px" opacity="0.25"></line><line x1="0" y1="138.31076388888889" x2="290.84375" y2="138.31076388888889" fill="rgb(0, 0, 0)" stroke="rgb(60, 60, 60)" stroke-width="1px" opacity="0.25"></line><line x1="0" y1="118.55208333333334" x2="290.84375" y2="118.55208333333334" fill="rgb(0, 0, 0)" stroke="rgb(60, 60, 60)" stroke-width="1px" opacity="0.25"></line><line x1="0" y1="98.79340277777779" x2="290.84375" y2="98.79340277777779" fill="rgb(0, 0, 0)" stroke="rgb(60, 60, 60)" stroke-width="1px" opacity="0.25"></line><line x1="0" y1="79.03472222222221" x2="290.84375" y2="79.03472222222221" fill="rgb(0, 0, 0)" stroke="rgb(60, 60, 60)" stroke-width="1px" opacity="0.25"></line><line x1="0" y1="59.27604166666667" x2="290.84375" y2="59.27604166666667" fill="rgb(0, 0, 0)" stroke="rgb(60, 60, 60)" stroke-width="1px" opacity="0.25"></line><line x1="0" y1="39.517361111111114" x2="290.84375" y2="39.517361111111114" fill="rgb(0, 0, 0)" stroke="rgb(60, 60, 60)" stroke-width="1px" opacity="0.25"></line><line x1="0" y1="19.75868055555557" x2="290.84375" y2="19.75868055555557" fill="rgb(0, 0, 0)" stroke="rgb(60, 60, 60)" stroke-width="1px" opacity="0.25"></line><line x1="0" y1="0" x2="290.84375" y2="0" fill="rgb(0, 0, 0)" stroke="rgb(60, 60, 60)" stroke-width="1px" opacity="0.25"></line></g></g></g><g><g><line x1="0" y1="98.79340277777779" x2="290.84375" y2="98.79340277777779" fill="rgb(0, 0, 0)" stroke="rgb(153, 153, 153)" stroke-width="1.5px"></line></g></g><g><g><line x1="24.236979166666664" y1="0" x2="24.236979166666664" y2="177.828125" fill="rgb(0, 0, 0)" stroke="rgb(153, 153, 153)" stroke-width="1.5px"></line></g></g><g><g><g><g><g><path stroke="rgb(255, 112, 67)" stroke-width="2px" d="M24.333927083333332,98.03117281942525L24.673244791666665,98.09454048996946L24.818666666666665,98.50256228152274L25.206458333333334,99.5332645437515L25.254932291666666,100.06023976680214L25.30340625,100.4549154281801L25.497302083333334,100.58258780025295L25.59425,100.96761961239125L25.933567708333335,101.34152209277333L26.030515625,101.74974516287534L26.515255208333333,101.76160791333253L26.70915104166667,102.29793269190147L26.806098958333333,102.26089025648804L27.29083854166667,102.82168375413197L27.581682291666667,103.31277124062763L27.96947395833333,104.26610267625841L28.066421875,104.82443036345818L28.260317708333332,105.66221343006805L28.551161458333333,106.16724505326205L28.648109375,107.66885008999587L28.696583333333333,108.69976863481763L28.842005208333333,108.8178280940335L29.229796875,109.21723415900584L29.763010416666667,108.22892672534425L29.908432291666667,106.79611999738243L30.24775,103.33440318767938L30.393171875,102.2028689352262L30.53859375,100.50515849218027L30.684015625,99.54766270964433L30.829437499999997,100.10989500321998L31.31417708333333,100.26863911387771L31.70196875,100.68953978727586L31.75044270833333,100.3178092204134L31.944338541666667,99.55453986720151L32.23518229166667,99.27547021729703L32.429078125000004,99.14320763905624L32.62297395833333,99.30277279478251L33.010765625,100.4343837687387L33.10771354166666,100.9711136127292L34.41651041666667,101.70664350056961L34.464984375,101.07777125158971L34.852776041666665,101.40432343347793L34.94972395833334,101.20637321953244L34.99819791666667,101.43950889354409L35.385989583333334,100.0218838156009L35.434463541666666,99.54813725196479L35.4829375,99.05294841724002L35.72530729166667,98.94986128328428L36.11309895833333,100.21956520379548L36.16157291666667,101.03436543542057L36.69478645833334,102.98430361399747L37.082578125,104.65106719742523L37.228,105.70683532356921L37.858161458333335,101.36049086361491L38.10053125,98.19330475872177L38.245953125,96.00268345985644L38.29442708333333,95.29875369325232L38.43984895833333,95.72853453314612L38.43984895833333,96.2295979008455L38.827640625,96.5003010048695L39.263906250000005,96.26646501003403L39.31238020833333,97.00436849061535L39.60322395833333,97.4757355061339L39.74864583333333,98.34441494500969L39.79711979166667,98.10314092643195L39.845593750000006,98.697705754614L39.89406770833333,98.52077621471784L39.94254166666667,98.85079936869748L40.233385416666664,98.61692753549434L40.47575520833333,98.4380260760878L40.76659895833333,98.28942844773431L40.91202083333333,97.71737483017702L41.54218229166667,98.29582395336365L41.639130208333334,98.48889062189859L41.736078125,98.54447563183255L41.736078125,98.67501279735897L41.929973958333335,98.62673145879906L42.12386979166667,98.68860605069094L42.220817708333335,98.7445917234183L42.317765625,98.96035800688463L42.4631875,98.45611543279438L42.56013541666667,98.29517735217193L42.75403125,98.35745335975379L42.85097916666667,98.58837484835374L42.899453125,98.4051599870997L42.94792708333333,98.58479319073523L43.14182291666667,98.46037098622645L43.238770833333334,98.20406502703041L43.28724479166667,98.14583707278041L43.43266666666667,98.07001200560107L43.481140624999995,98.15822770093655L43.57808854166667,98.22791530673072L43.67503645833334,98.10568657836146L43.820458333333335,98.02296778102712L43.820458333333335,98.09409140139236L44.402145833333336,98.52549947116837L44.49909375,98.79519765645371L45.27467708333334,99.34562298994491L45.468572916666666,99.31409037172534L45.61399479166666,99.3393831323502L45.9533125,99.65154141883558L46.05026041666667,99.47036493174205L46.195682291666664,99.18892151982767L46.24415625,99.23367419715765L46.389578125,99.17485942945505L46.43805208333334,99.51733273964831L46.777369791666665,99.39260592744773L46.825843750000004,98.94462692719316L47.068213541666665,99.19826470448542L47.116687500000005,98.66525638411821L47.359057291666666,98.58975141791399L47.45600520833333,98.23047118260202L47.552953125,97.82428949876041L47.74684895833333,97.77662779262873L47.79532291666666,98.04981515474843L47.94074479166667,98.15343263293938L47.94074479166667,98.35001902061914L48.086166666666664,98.59702563357283L48.377010416666664,98.97876338730909L48.52243229166667,98.86268582044272L48.57090625,99.17716334167226L48.81327604166667,99.51600908825161L49.540385416666666,99.87328702523759L49.83122916666667,100.14918221195046L49.97665104166667,100.23144558375779L50.073598958333335,99.99055994617737L50.12207291666667,99.70433934322921L50.21902083333333,99.72063488726143L50.364442708333335,100.12601903332035L50.46139062499999,100.98111775015782L50.70376041666667,101.74455737721914L50.84918229166667,101.76313609478734L50.99460416666667,101.86459213462523L51.23697395833333,101.23863752054487L51.333921874999994,101.0433724447544L52.254927083333335,100.27771540102098L52.351875,99.61415219997406L52.351875,99.40431593185852L52.40034895833333,98.98295022036348L52.836614583333336,98.88480206654896L53.12745833333334,99.13552273064046L53.12745833333334,99.46070059572175L53.27288020833333,99.8699538413754L53.46677604166666,100.6161331717944L54.0969375,101.11503230015757L54.38778125,100.69920102667336L54.630151041666664,100.52727560793608L54.727098958333336,99.83741035004937L54.77557291666666,99.43528110015018L55.2603125,98.27846829649383L55.405734375,98.12903849059289L55.59963020833334,98.2018027137157L55.745052083333334,97.94991806069301L56.13284375,99.23100066789227L56.18131770833333,100.1796759813025L56.47216145833333,101.02463111699257L56.520635416666664,101.45872925298791L56.61758333333333,102.13838569303117L56.61758333333333,102.73379031828235L57.78095833333333,100.76706625103996L57.87790625,99.51927189159422L57.92638020833333,98.46485595441676L57.97485416666667,96.89747391418044L58.50806770833333,96.85053417090165L58.79891145833333,97.25380475238448L58.84738541666667,97.69892965296201L58.94433333333333,97.83917134925963L59.041281250000004,97.97630894417708L59.13822916666667,98.57382172370376L59.71991666666667,99.96317197963249L59.768390624999995,100.33468138466237L60.01076041666667,100.464157854474L60.20465625,102.18981476807646L60.30160416666667,103.0218485094153L60.350078124999996,103.47231178443225L60.78634375,101.79146621077942L61.12566145833333,100.42710717340125L61.222609375,100.92217484956207L61.85277083333334,101.23034386442403L62.240562499999996,101.8831853864138L62.240562499999996,102.51296146911316L62.62835416666666,101.32284835271862L62.72530208333333,101.04684305734796L63.11309375,97.93308644205416L63.11309375,96.33938059190298L63.45241145833334,95.92359499072992L63.646307291666666,97.79209067809825L63.79172916666666,99.43200947800888L63.888677083333334,102.18936798803443L63.985625,103.91153604111203L64.08257291666666,106.04266284597593L64.17952083333334,107.23600796635554L64.47036458333334,107.7571254695988L64.66426041666666,108.18132408453243L64.80968229166666,107.60931756035417L65.003578125,106.37033865552702L65.19747395833333,105.06118361248839L65.294421875,104.21551925993523L65.34289583333333,102.26867140446043L65.34289583333333,101.29235479091633L65.39136979166666,99.68770622587552L65.48831770833333,98.450902799823L65.63373958333332,98.02856971671336L65.876109375,97.75393492317953L66.11847916666666,99.0630202859182L66.21542708333332,99.28833796392446L66.26390104166667,100.09627371575773L66.312375,99.71057508151867L66.457796875,99.3097112560605L66.50627083333333,99.5790660200451L66.55474479166666,99.17958658934572L66.55474479166666,99.17250345727368L67.039484375,100.0159878341523L67.23338020833333,101.07391263652845L67.37880208333333,101.19735972631707L67.57269791666667,101.19614466669732L67.57269791666667,101.379569391862L67.81506770833333,100.49774515622848L67.96048958333333,99.6481641137573L68.493703125,99.3180329020537L68.59065104166667,98.99354886337422L68.83302083333334,98.86615330548335L68.92996875,99.07963592628059L69.12386458333333,100.05656661303489L69.46318229166667,99.23039361748751L69.51165625,100.26554022217651L69.657078125,101.02332912412867L69.70555208333333,101.23281925164875L70.52960937499999,102.43719050436479L70.67503125,103.47960029207559L71.111296875,103.16896827185553L71.15977083333334,103.0138471560873L71.35366666666667,103.30298010690197L71.402140625,103.80917005714355L71.45061458333333,103.8313923236325L71.88688020833334,103.92997675027682L72.22619791666666,102.14365832115286L72.274671875,101.36355095641194L72.7109375,99.59422308844155L72.80788541666668,98.79474485024906L73.00178125,98.33697347266533L73.438046875,97.16141328057151L73.58346875,97.91872859826653L74.16515625,101.29054526668702L74.456,102.25521054313397L74.456,103.15595280075227L74.55294791666667,103.02911343514748L74.55294791666667,103.24494902429213L74.601421875,103.78335438151164L74.64989583333333,102.46126752832187L74.74684375,101.59810966415398L74.84379166666668,101.00664199558395L74.98921354166667,99.13052745860152L75.0376875,98.32705593068532L75.37700520833333,98.82928252407723L76.2010625,102.7390804547398L76.29801041666666,105.56146221379413L76.346484375,106.95057047481653L76.49190625,107.84661305346611L76.68580208333333,108.07889649688317L76.97664583333334,107.06704740323757L77.219015625,106.13998471265583L77.26748958333333,104.58097054361632L77.31596354166666,103.20988315101727L77.36443750000001,101.49976300273099L77.46138541666666,100.4077723664468L77.509859375,99.06062770122838L77.70375520833333,97.91020113505323L77.800703125,97.83532139609032L78.14002083333334,97.56280795161787L78.28544270833333,100.0177573249067L78.43086458333333,100.94455001623548L78.43086458333333,101.99183576915998L78.47933854166666,102.41089193983477L78.57628645833333,101.76077855812007L78.62476041666666,102.97433412245807L78.673234375,104.95009935517912L78.673234375,106.59270071101074L78.86713020833334,105.59428611926367L78.91560416666667,106.09271548906244L79.06102604166666,105.54094176244305L79.49729166666665,103.2361448931208L79.73966145833333,102.97531407593088L79.88508333333334,104.26127976494735L80.03050520833334,106.54858214206784L80.127453125,107.99334048411951L80.41829687500001,109.04813073299684L80.46677083333333,108.06748306764577L81.04845833333333,104.6566076828511L81.290828125,101.58020012068248L81.67861979166666,102.1332356559485L82.11488541666667,102.622480320899L82.163359375,102.23680212495822L82.21183333333333,102.63648902004486L82.45420312499999,101.4880696355169L82.55115104166667,102.20667927748484L82.98741666666666,102.52484980674498L83.27826041666667,101.61335456706897L83.47215625,101.24681462681315L83.617578125,101.43934249160964L83.617578125,102.04403210024337L83.66605208333334,103.26310786628902L83.71452604166666,104.158308410888L83.85994791666667,104.35416518620026L84.44163541666667,105.50507586674051L84.49010937499999,106.54796872899625L84.73247916666666,104.13180065023651L84.780953125,101.61119644923988L84.87790104166666,101.22190202421585L85.21721875,102.2701470545893L85.362640625,103.26977020330023L85.60501041666667,102.88350174827119L85.944328125,100.94952624508055L86.04127604166666,99.20115919908868L86.08975,97.9301277974969L86.42906770833333,97.29985972078333L86.71991145833334,97.0891657220557L87.01075520833334,97.14578341212612L87.01075520833334,97.57108774019657L87.253125,97.2803378968109L87.398546875,98.68175024753164L87.78633854166667,101.19693674927827L87.93176041666666,103.87707480491723L87.980234375,105.84384864688829L88.17413020833332,107.00625899790938L88.31955208333332,106.4379878476149L88.46497395833333,105.93604908916008L88.561921875,106.21560083014691L89.143609375,102.87319598790427L89.28903125,103.01093573117771L89.434453125,102.90910246438494L89.725296875,102.75870087186522L89.91919270833333,101.79037204448397L90.25851041666667,101.08451722885248L90.54935416666667,101.51047142970938L90.64630208333332,101.54189330270252L90.98561979166668,101.40942455819795L90.98561979166668,101.52202258383166L91.03409375,101.97940048507476L91.80967708333333,102.02697481932549L91.85815104166667,101.69179573039266L91.85815104166667,101.73812063248322L92.052046875,102.42685668142455L92.29441666666668,101.59599162987297L92.68220833333334,101.70376517622856L92.77915625,100.95551397141L93.506265625,100.115026026352L93.84558333333334,101.0479620033472L94.03947916666665,102.03637089766212L94.28184895833333,103.42784612138028L94.42727083333332,104.34564009443297L94.52421875,104.43631723391901L94.91201041666666,103.57023057951598L94.96048437500001,104.70729010471146L95.00895833333333,103.78663843599688L95.29980208333333,102.53792097260526L95.73606770833334,99.95034645551426L96.12385937500001,101.09672517265601L96.31775520833334,100.32511036870976L96.89944270833334,98.70793641001178L97.09333854166667,99.5585086688146L97.1418125,99.889205968431L97.19028645833333,99.83761422299428L97.28723437500001,99.81716057255383L97.33570833333333,99.89528434206257L97.578078125,100.79284580066825L97.67502604166665,102.00586602532879L97.86892187500001,102.36690618253161L97.91739583333333,103.0976445964692L98.159765625,104.17864499555999L98.49908333333333,105.12736980466563L98.59603125000001,104.42207297718303L98.64450520833333,104.34762793456315L99.03229687500001,102.4259883871497L99.32314062500001,103.24761473246676L99.90482812500001,105.67540045137164L100.24414583333333,107.67866007138927L100.29261979166667,108.50827471484527L100.43804166666666,109.10293372573327L100.58346354166666,105.81735139573074L100.68041145833334,105.92595071056492L100.77735937499999,102.37241619943318L100.82583333333334,102.71972691310356L101.213625,102.006230329564L101.649890625,101.3922235492413L101.69836458333334,98.38239313269258L101.84378645833334,97.9459761443015L101.94073437499999,99.45731346792967L102.52242187499999,99.62485257448945L102.57089583333334,99.56864556447317L102.76479166666667,100.15986489135744L102.813265625,99.9889713329961L102.86173958333333,101.55823740959836L102.91021354166666,101.70848618461427L102.91021354166666,102.42908708103738L103.394953125,107.38272989791908L103.540375,110.51580460006694L103.73427083333334,112.83654678881985L104.31595833333334,109.75396383115806L104.50985416666667,107.22979965159126L104.849171875,104.64449068780705L104.89764583333334,102.05539722024314L104.99459374999999,102.8127459047968L105.2854375,104.99844784378088L106.012546875,109.45496443149227L106.06102083333333,112.77531723282802L106.10949479166666,110.61373107911388L106.30339062499999,108.60026416363395L106.69118229166666,103.73797906315241L106.83660416666667,101.4627372327667L107.36981770833333,98.11085825184314L107.41829166666668,99.08574472935595L107.56371354166667,100.99954368279668L107.70913541666667,102.32123177451003L107.80608333333333,103.58010679261153L107.85455729166667,104.44158146016225L107.99997916666668,107.52295070422478L108.048453125,107.23124538325277L108.193875,107.43961531862091L108.339296875,107.1362935380308L108.48471875,105.62169167949433L108.58166666666668,106.04733851724737L108.96945833333332,104.1545199583238L109.26030208333333,99.55583088561819L109.35725,96.90800404145277L109.502671875,96.67762507918518L109.89046354166668,98.19439051805759L109.9389375,99.46339639995955L110.084359375,101.67588842532379L110.18130729166667,103.67754637050436L110.22978125,105.47258045218405L110.56909895833333,109.8994451100814L111.00536458333333,114.45870568895796L111.49010416666667,118.88657767984611L111.92636979166667,112.6502303800451L111.97484375,109.57888710030718L112.02331770833334,106.45149102976535L112.07179166666667,106.04033610525101L112.16873958333333,103.09572671156548L112.55653125,107.48220074522018L112.847375,109.8674317938935L112.847375,112.2480934203046L113.18669270833333,111.62862907534438L113.91380208333334,114.80220658379818L113.96227604166666,116.23207963293275L114.54396354166666,115.32409513037692L114.64091145833333,115.09771816185554L114.68938541666667,115.7659202260196L114.83480729166666,116.48933402824255L114.88328125000001,118.58419187833908L114.93175520833333,117.75253874058882L115.174125,115.42010585755656L115.319546875,112.72036517068078L115.65886458333334,110.21586277717616L115.85276041666665,102.48148605433329L116.14360416666666,104.38500716803142L116.19207812500001,109.81812964145277L116.28902604166666,110.24541555263957L116.57986979166667,108.20468012789239L116.67681770833333,108.93207732826083L116.77376562500001,105.21899563041428L116.82223958333333,100.42338681774265L117.064609375,100.90604981390126L117.16155729166667,102.43937817932327L117.88866666666667,104.48118554790183L117.98561458333333,105.80746589846363L118.17951041666666,107.75746669641637L118.76119791666666,113.45529224087366L118.80967187499999,117.17370455562148L119.00356770833334,119.96689041613982L119.2459375,118.29893709416854L119.43983333333334,116.74493124098314L119.58525520833334,116.50476141644624L119.68220312499999,112.77757388138636L119.973046875,110.60917654862324L120.11846874999999,113.3699465361389L120.26389062499999,112.20286538507787L120.79710416666667,110.91947542912843L121.03947395833333,109.63709200374534L121.18489583333334,105.18516484364552L121.37879166666667,108.50626611930274L121.42726562499999,106.28495225888113L121.718109375,102.5746522246199L121.96047916666667,94.26793223649643L122.05742708333334,90.15079177606334L122.299796875,87.05237397683598L122.299796875,86.20367186221576L123.41469791666667,93.15763446514995L123.56011979166666,95.33774724524996L123.56011979166666,97.4163223532147L123.80248958333334,100.68903065354135L125.59602604166668,109.19687137092124L125.83839583333332,116.2251053323115L125.88686979166667,120.72111038981467L125.93534375,121.01393764559911L125.98381770833333,120.38254710184229L126.03229166666667,122.67681629632594L126.080765625,124.95935383721996L126.662453125,127.45614336726618L126.807875,124.26641690987876L126.85634895833333,123.4953915403464L127.05024479166667,119.17999302500226L127.34108854166668,113.56638931786593L127.534984375,118.2841424777774L127.63193229166667,120.31523200149013L127.63193229166667,123.25956011187505L128.01972395833332,128.71145646541862L128.407515625,130.13451727332404L128.5529375,126.24954238336323L128.64988541666668,119.64927628352201L128.84378125,114.5186388103999L128.89225520833332,109.5113685016469L129.134625,105.17137637252092L129.23157291666666,102.92994252693676L129.37699479166668,105.43782368098245L129.47394270833334,105.32137337658202L130.10410416666667,111.58373090982475L130.34647395833332,113.99209299355104L130.68579166666666,114.99126687481947L130.87968750000002,112.11294826362831L131.025109375,111.07122779101049L131.12205729166666,107.12517181965326L131.12205729166666,105.46040710879268L131.60679687500001,97.12093585501519L131.65527083333333,95.65872132873116L131.80069270833334,95.95206715071215L132.52780208333334,97.2269628163418L132.67322395833332,100.55453499639145L132.77017187500002,102.07128450178901L132.86711979166665,104.93160847407857L133.061015625,106.93321209277744L133.10948958333333,106.94093858787372L133.49728125000001,109.70670130550901L133.54575520833333,113.46674205515143L133.98202083333334,116.10073538725919L134.03049479166665,113.09998982657865L134.07896875,114.44073734183371L134.32133854166665,111.0014651189038L134.515234375,106.01742300429675L134.56370833333332,105.92704128432511L134.56370833333332,106.61439873610878L135.19386979166666,96.38241988447938L135.24234375,88.84747049705764L135.5331875,88.87112854207173L135.58166145833334,89.94485193690429L135.63013541666666,88.38875597864848L135.678609375,89.04339877638827L135.969453125,91.70615003596576L136.40571875,95.06800153971876L136.89045833333333,100.92905858310759L137.08435416666666,105.51722345787572L137.27824999999999,108.5001740125448L137.37519791666668,109.1499724021135L137.52061979166666,109.98995490852465L137.56909374999998,111.56436707235127L137.56909374999998,113.18578897682212L137.81146354166665,111.14031719088982L138.441625,115.67789659618262L138.587046875,115.30568165386407L138.97483854166666,105.89259936166617L139.07178645833335,99.75657051780178L139.21720833333333,100.60748873684484L139.31415625,101.44481117904392L139.36263020833334,97.32677338861549L139.55652604166667,100.61048308040574L139.605,102.42428311843531L139.65347395833334,100.3874733206959L139.70194791666665,101.07754275239827L139.750421875,103.9037460281027L139.99279166666668,106.29295551715397L140.08973958333334,106.86078886869413L140.1866875,106.5916722197306L140.23516145833335,106.68347413878139L140.28363541666667,108.10671450258259L140.42905729166668,109.34765017419966L140.57447916666666,110.87067769276382L140.622953125,111.40463533395895L140.67142708333333,110.5367941099732L141.54395833333334,114.38410666045189L141.83480208333333,111.90357722796317L142.27106770833333,112.98475747268455L142.31954166666668,114.36019695132939L142.70733333333334,119.09588535121395L142.80428125,116.40165391446605L142.85275520833332,115.904556039395L142.85275520833332,116.85241382657148L143.33749479166667,114.24371296720234L143.91918229166666,108.88740830319374L143.96765625,105.14227611859656L144.30697395833332,102.87112273720247L144.50086979166667,102.5192484726019L144.694765625,104.90830255429324L144.79171354166667,103.72997825723449L144.8401875,103.64827524849709L144.8401875,104.91559383051953L145.17950520833332,102.21968717097988L145.37340104166668,104.46033262489752L145.90661458333335,103.01425398668094L146.05203645833333,103.24852121758724L146.148984375,103.56075649949868L146.29440625,103.67112335326713L146.63372395833332,96.5933575869017L146.68219791666667,96.268641777295L146.68219791666667,96.78051540756378L146.87609375,97.87544484054868L147.31235937499997,99.39743231017883L147.84557291666667,105.22136549520191L147.99099479166668,110.85667097277727L147.99099479166668,115.0264829683738L148.47573437499997,115.69583666090126L148.52420833333335,116.1342469165561L148.66963020833333,116.59667903819704L149.29979166666666,119.55566028525513L149.39673958333336,124.49654577184435L149.73605729166667,125.55503491181695L149.83300520833333,128.11225372060608L150.26927083333334,132.48069059871318L150.46316666666667,137.00608842412905L150.99638020833333,147.8939908626096L151.093328125,145.19793068635298L151.093328125,144.6976808891101L151.19027604166666,149.19201693606794L151.23875,153.30913853635508L151.33569791666667,162.35188622309835L151.86891145833334,163.12554078612504L152.402125,175.75957146950827L152.74144270833332,187.67253946450975L153.75939583333331,201.06132068495745L154.09871354166668,153.36620287083727L154.1471875,119.57641658282829L154.19566145833335,97.8027214849452L154.63192708333332,90.13892603582897L154.72887500000002,80.3161848158312L155.2136145833333,84.27140237977802L155.26208854166669,86.06445331971929L155.60140625,83.67447696871875L155.69835416666666,87.0717020113772L156.037671875,92.87267037070825L156.08614583333332,93.7060717874986L156.1346197916667,97.30626818874147L156.23156770833333,96.27696728630066L156.91020312499998,92.24869586368985L157.15257291666666,97.40618231857172L157.2979947916667,98.2055395530854L157.39494270833333,99.3108705691811L157.54036458333331,104.61779627502527L157.68578645833333,108.17397060586686L157.83120833333334,109.26203682074484L157.87968229166665,112.34945345722691L157.92815625,116.20263717428014L158.31594791666666,121.8644873376002L158.50984375000002,129.6935268282744L158.70373958333332,139.76786920347925L159.14000520833335,145.67155202618707L159.23695312499999,144.27873156648425L159.28542708333333,134.40405496837957L159.57627083333333,129.96303589326828L159.62474479166664,125.26403122063756L159.77016666666668,118.43792400396302L160.06101041666668,117.89244483187989L160.20643229166666,121.6339611196364L160.44880208333333,119.97393939186867L160.691171875,125.59390056954996L161.07896354166667,129.0501417053041L161.36980729166666,128.82363088058548L161.41828125,123.91024269603626L161.51522916666667,130.2272012015756L161.854546875,135.21695879687988L162.8725,126.23389660153859L162.92097395833335,123.15908194403295L163.017921875,123.38771194735102L163.35723958333332,137.0744407165517L163.64808333333332,151.48764532205942L163.79350520833336,164.38796862799416L164.22977083333333,180.21238624012895L164.52061458333333,200.34696589703748L164.66603645833334,157.12890794976454L164.95688020833336,127.7115491379202L165.00535416666668,106.85643692255091L165.39314583333334,98.48359192752879L165.49009374999997,91.41666020346773L165.635515625,95.62236931227169L166.31415104166666,105.77585456922498L166.36262499999998,115.56912110672633L166.508046875,118.10783698905585L166.75041666666667,123.28808666556525L166.9443125,129.09771053420505L166.99278645833334,124.01983826123544L167.18668229166667,119.96099355052962L167.380578125,119.2980036781758L167.62294791666667,122.84043861123435L167.671421875,119.91693651691583L167.91379166666667,121.40797528560928L168.01073958333333,130.01681799863692L168.01073958333333,136.65700288360267L168.49547916666668,136.2761355845826L168.59242708333332,140.24424245806716L168.64090104166667,146.97924913437475L168.73784895833336,147.1632764482775L168.98021874999998,154.71092640571135L169.416484375,161.85964899361866L169.9012239583333,138.44079270555352L169.998171875,132.87245640817218L170.24054166666667,126.74328459247377L170.38596354166665,112.68524288886111L170.38596354166665,106.99667615654064L170.4344375,106.4651928940468L170.48291145833332,125.29564997561425L170.579859375,124.44368335900629L171.11307291666668,150.54851579645032L171.50086458333334,175.5845418552616L171.54933854166666,187.5165361236236L172.1795,235.57655818217663L172.42186979166667,157.01880366960035L172.56729166666668,90.02817090420577L172.615765625,63.61644777153457L172.7611875,34.76219271716192L172.80966145833332,21.12659156949681L172.85813541666667,22.11852152988797L173.1489791666667,38.91621060782629L173.197453125,55.23897533239631L173.24592708333333,62.36259532822197L173.82761458333334,78.58428092087455L174.02151041666667,87.7269317483679L174.11845833333334,93.71230808405068L174.50625,96.62982848350994L174.74861979166667,99.39340122248274L174.74861979166667,101.75402481115519L174.79709375,106.79536431843037L174.942515625,110.97809616746237L175.08793749999998,113.39971122330796L175.28183333333334,118.8498876234408L175.37878125,125.2721807696067L175.57267708333333,130.44396378277926L175.71809895833331,139.5439089128128L176.00894270833334,157.5840375978335L176.63910416666664,197.1750544801504L178.77195833333334,207.60258455346255L179.35364583333333,139.45440143878727L181.63192187500002,91.27382963367252L182.01971354166668,68.83095519040128L182.21360937499998,58.61958494600118L182.84377083333334,53.314531678191926L183.37698437499998,39.25129133913842L183.57088020833334,25.240525490764327L183.958671875,12.655045951506281L184.00714583333334,19.224560862773444L184.20104166666667,23.820034428831207L184.63730729166667,36.955727130808214L184.68578125,33.36891645032432L185.17052083333334,35.141187524891166L185.2189947916667,27.498909163532403L185.26746875,56.235631619991196L185.65526041666666,51.822341447400504L186.62473958333334,46.71812812553159L187.78811458333334,50.528327751819845L187.98201041666667,35.50797974414169L188.0789583333333,46.05065090770117L188.12743229166668,42.038726059881384L188.27285416666666,23.450363180014023L188.70911979166667,34.08911753685956L188.75759375,12.976225745495924L189.193859375,18.68289379241409L189.33928125,28.43225619796982L189.82402083333332,30.488385458811564L190.066390625,30.92344582532641L191.81145312499999,28.206714781187088L192.24771875000002,34.11950783574309L192.34466666666665,39.016802912548854L192.5385625,30.82874029969912L192.82940625,40.57229356372471L192.974828125,34.62573187406662L193.31414583333333,23.147641541230797L193.7019375,21.3903652455418L193.847359375,18.850359906581218L194.23515104166665,20.125314179290967L194.42904687499998,29.33297262185593L194.62294270833334,36.341876154968475L195.10768229166666,48.806335290303764L195.15615625,35.806035017455855L195.73784375000002,33.281105390877656L195.93173958333333,38.91947074845237L196.27105729166666,35.7905822734258L196.464953125,28.408770098831866L196.99816666666666,25.50435069421397L197.57985416666668,30.32038647848711L198.35543750000002,22.534492578946953L199.56728645833334,29.44779119687547L200.29439583333334,26.432684873326252L200.97303125,30.030443396637992L201.16692708333332,10.928666578811544L201.36082291666668,30.02702778496601L201.74861458333334,32.758905505779296L202.03945833333333,28.943123108862892L202.08793229166665,40.85087587280219L202.91198958333334,36.78665501633503L203.34825520833334,26.266702763791216L203.63909895833334,27.156784946454763L204.026890625,41.75910465668301L204.17231249999998,28.080244960490802L205.23873958333334,27.24292663779096L205.38416145833335,28.000187708812376L206.062796875,37.099692186441445L206.2566927083333,31.838741397760828L206.64448437500002,33.91589977152631L206.78990625,28.22434004960286L207.08075,20.86511499574479L207.95328125,16.093651766257977L208.05022916666667,23.639738761060585L208.92276041666668,35.49554114977906L209.11665625,29.485446006830188L209.26207812500002,20.88109939343272L209.98918749999999,29.229577646930267L210.134609375,32.06741516315364L210.32850520833333,39.94388980647645L210.6678229166667,36.260866542144925L211.297984375,36.57965175862833L211.58882812500002,29.708572415379365L212.26746354166667,21.193754877170562L212.84915104166666,25.2628914667292L213.18846875,29.858448276904653L213.57626041666666,28.825227712650218L213.96405208333334,29.180117447875062L214.01252604166666,37.26480639095567L214.25489583333334,15.335872238370541L214.44879166666666,30.294422852690673L215.07895312500003,18.870634554045807L215.27284895833333,37.302608087722234L215.951484375,50.603983073471255L216.53317187500002,30.793061304446354L216.58164583333334,37.25842296171231L216.92096354166668,31.447517023213976L217.30875520833334,20.162276272479318L217.59959895833333,31.51126283053111L217.89044270833332,47.91283224602009L218.22976041666666,39.18330123425534L218.32670833333336,40.26671877265579L218.76297395833333,35.85527315513656L218.859921875,30.279607101140613L218.90839583333334,31.199611427699438L219.82940104166667,17.671160269103723L219.97482291666665,26.370340923130527L220.4110885416667,19.968286415003433L221.04125,27.92386123753684L221.5744635416667,24.285058532657786L221.71988541666667,31.833035621015426L222.204625,23.917130358796243L222.98020833333334,28.746516302296072L223.51342187499998,30.651812034952428L224.385953125,47.60296954929629L224.87069270833334,27.515282581897736L224.91916666666665,43.632597089732315L225.16153645833333,35.3897637717142L225.21001041666665,27.797007794445932L225.549328125,27.465281700915483L225.74322395833335,22.278698731954734L225.79169791666666,42.72572390526287L225.84017187499998,30.18229458027929L226.56728125,25.61202537036249L226.90659895833335,48.133163684041506L226.95507291666667,38.72658673795601L227.14896875,30.37601850539636L227.24591666666666,16.50559046466597L227.6821822916667,22.254046138521744L227.876078125,38.23844906062354L228.0215,29.17106970531026L229.28182291666667,35.30872962437772L229.330296875,46.22234359427577L229.76656250000002,41.39562807414174L229.911984375,35.47013138598811L230.10588020833333,23.45137609680461L230.25130208333331,29.11866665572569L230.73604166666667,33.0427744620481L230.78451562499998,37.1868233886093L230.83298958333333,25.75496331970274L230.88146354166665,25.967848559673257L231.12383333333332,27.217639162017292L231.41467708333332,26.67446501949496L231.60857291666667,28.682524525252717L231.7055208333333,29.187641964233563L232.48110416666668,18.602152678230738L232.77194791666668,16.87250180110229L232.820421875,20.044103764152567L233.20821354166665,27.259047944406944L233.49905729166665,22.653689089850758L234.12921875,14.067427569689073L234.46853645833335,27.569009571509582L234.95327604166664,18.239562070047413L235.82580729166665,26.52389221675398L236.21359895833334,33.67836629005592L237.3285,19.421080387347843L237.66781770833336,26.223010897797025L237.95866145833335,20.720274504651968L238.10408333333334,25.481414076862933L239.60677604166665,17.009143443809876L239.65525,15.92201460647334L240.43083333333334,11.201178476565246L240.47930729166666,18.88867275663077L240.964046875,26.409344342636217L241.10946875,26.360920368935297L241.20641666666668,20.138923384464505L241.73963020833335,27.60399418085484L242.03047395833335,40.12247342208161L242.17589583333333,28.423737338815954L242.36979166666669,26.000695343594657L243.145375,27.719495699540005L243.24232291666667,35.36495171849043L243.290796875,29.42184442690808L243.4846927083333,37.1053145071574L243.63011458333332,38.083823970333555L243.7270625,51.60817944880209L244.40569791666667,40.17220075957175L244.59959375,40.57485313752608L245.13280729166667,24.2770456869429L245.27822916666668,33.92114782062657L246.24770833333335,32.26531345522892L246.63549999999998,23.88174793103562L247.12023958333333,23.601992066974816L247.16871354166668,11.150939032400856L247.70192708333335,33.37898402258335L248.816828125,25.875909810067043L249.05919791666665,31.702242006408312L249.8832552083333,28.524367276425096L250.99815625,35.749153620293015L251.09510416666666,42.81190429347177L252.016109375,38.995368870070735L252.06458333333333,38.13314916423565L252.25847916666666,40.24731626059244L252.452375,32.05738835514299L253.32490625,50.63353941243649L253.61575,34.978768414799276L253.66422395833334,26.485634894297846L255.70013020833332,36.46523821474031L256.087921875,37.52926098670446L256.47571354166666,34.446238900749506L256.5241875,30.859587701013226L257.3482447916667,35.943153984854916L257.73603645833333,47.141272714905796L257.97840625,46.22126547525693L258.17230208333336,43.07039285730875L258.705515625,30.85713452106316L259.28720312499996,35.65662144346396L259.43262500000003,23.244371370547498L259.52957291666667,30.6436832233708L259.72346875,22.555132945643322L260.11126041666665,16.959041296270044L262.0017447916667,23.073698247369066L263.01969791666664,38.15023157848674L263.31054166666667,24.146323836037737L263.359015625,26.440170987559895L263.4559635416667,31.344951625467786L264.1830729166667,38.91324192419404L264.522390625,32.77355574608697L265.63729166666667,26.344509696806597L265.7342395833333,22.46774125672752L265.8311875,25.25224289920351L266.36440104166667,28.918632125482162L266.5098229166667,30.686627420890773L267.3338802083333,25.229004648127557L267.62472395833333,17.248774100488134L268.2548854166667,21.08566645054762L269.22436458333334,27.646657379878008L269.6606302083333,15.538869271524248L270.339265625,21.691756317392134L270.43621354166663,19.032475897231137L270.5331614583333,26.839399712153664L270.9694270833333,18.6658585468806L271.40569270833333,25.801967258313567L271.793484375,32.125191460419614L272.76296354166664,30.74369392536218L272.85991145833333,24.88904886012554L273.00533333333334,24.19180144170093L273.10228125,26.663533873884205L273.393125,32.35663966058061L273.9748125,30.907562689691986L274.02328645833336,28.177488326919843L274.3626041666667,34.78086908387044L274.50802604166665,30.353257939777166L274.75039583333336,15.67752168880915L275.08971354166664,15.532524047933123L275.18666145833333,18.1324660301062L276.64088020833333,32.03815295814587L277.028671875,33.01108372282454" style="fill: none;" fill="none"></path></g></g></g></g><g opacity="0.20000000298023224"><g><g><g><path stroke="rgb(255, 112, 67)" stroke-width="2px" d="M24.333927083333332,98.03117281942525L24.673244791666665,98.13256109229599L24.818666666666665,98.89426320141389L25.206458333333334,100.74537040413253L25.254932291666666,100.74825861801705L25.30340625,101.00089395110392L25.497302083333334,100.76516133507506L25.59425,101.52899969079428L25.933567708333335,101.89295562451913L26.030515625,102.35590884602732L26.515255208333333,101.77929444474478L26.70915104166667,103.09950120399395L26.806098958333333,102.20544755334654L27.29083854166667,103.661775347756L27.581682291666667,104.04882521546548L27.96947395833333,105.69542746651503L28.066421875,105.66168562869231L28.260317708333332,106.918675316953L28.551161458333333,106.92471555156841L28.648109375,109.92112039244837L28.696583333333333,110.2460899140272L28.842005208333333,108.99491339806053L29.229796875,109.81633537088831L29.763010416666667,106.74647728229561L29.908432291666667,104.64692008921669L30.24775,98.1418427357657L30.393171875,100.50557045183248L30.53859375,97.95859543399679L30.684015625,98.11141991782934L30.829437499999997,100.95324313284623L31.31417708333333,100.50675522722304L31.70196875,101.32089071362797L31.75044270833333,99.76021341449685L31.944338541666667,98.40963589205509L32.23518229166667,98.85686575443381L32.429078125000004,98.9448137751056L32.62297395833333,99.54212052590317L33.010765625,102.13180021916827L33.10771354166666,101.77620837572549L34.41651041666667,102.80993832987217L34.464984375,100.13446287938083L34.852776041666665,101.8941517059174L34.94972395833334,100.90944789875714L34.99819791666667,101.78921240446054L35.385989583333334,97.89544619905452L35.434463541666666,98.8375174065845L35.4829375,98.31016516519917L35.72530729166667,98.79523058235645L36.11309895833333,102.12412108451956L36.16157291666667,102.25656578284172L36.69478645833334,105.90921088183919L37.082578125,107.15121257255475L37.228,107.29048751278056L37.858161458333335,94.84097417369485L38.10053125,93.44252560138703L38.245953125,92.71675151156055L38.29442708333333,94.24285904334651L38.43984895833333,96.37320579298668L38.43984895833333,96.9811929523945L38.827640625,96.90635566090543L39.263906250000005,95.91571101778084L39.31238020833333,98.11122371148731L39.60322395833333,98.18278602941169L39.74864583333333,99.64743410332336L39.79711979166667,97.74122989856534L39.845593750000006,99.5895529968871L39.89406770833333,98.25538190487357L39.94254166666667,99.34583409966693L40.233385416666664,98.26611978568965L40.47575520833333,98.16967388697796L40.76659895833333,98.0665320052041L40.91202083333333,96.85929440384109L41.54218229166667,99.1634976381436L41.639130208333334,98.77849062470099L41.736078125,98.6278531467335L41.736078125,98.87081854564862L41.929973958333335,98.55430945095917L42.12386979166667,98.78141793852879L42.220817708333335,98.82857023250932L42.317765625,99.28400743208412L42.4631875,97.69975157165901L42.56013541666667,98.05377023123825L42.75403125,98.45086737112659L42.85097916666667,98.93475708125366L42.899453125,98.13033769521861L42.94792708333333,98.8542429961885L43.14182291666667,98.2737376794633L43.238770833333334,97.8196060882364L43.28724479166667,98.0584951414054L43.43266666666667,97.95627440483206L43.481140624999995,98.29055124393975L43.57808854166667,98.33244671542197L43.67503645833334,97.92234348580759L43.820458333333335,97.8988895850256L43.820458333333335,98.20077683194023L44.402145833333336,99.17261157583239L44.49909375,99.19974493438171L45.27467708333334,100.17126099018172L45.468572916666666,99.26679144439598L45.61399479166666,99.3773222732875L45.9533125,100.11977884856364L46.05026041666667,99.19860020110177L46.195682291666664,98.76675640195607L46.24415625,99.30080321315262L46.389578125,99.08663727790118L46.43805208333334,100.03104270493819L46.777369791666665,99.20551570914687L46.825843750000004,98.27265842681129L47.068213541666665,99.57872137042384L47.116687500000005,97.86574390356739L47.359057291666666,98.47649396860764L47.45600520833333,97.69155082963407L47.552953125,97.21501697299796L47.74684895833333,97.70513523343124L47.79532291666666,98.459596197928L47.94074479166667,98.3088588502258L47.94074479166667,98.64489860213878L48.086166666666664,98.96753555300336L48.377010416666664,99.55137001791348L48.52243229166667,98.68856947014315L48.57090625,99.64887962351656L48.81327604166667,100.02427770812064L49.540385416666666,100.40920393071654L49.83122916666667,100.56302499201976L49.97665104166667,100.35484064146875L50.073598958333335,99.62923148980676L50.12207291666667,99.27500843880698L50.21902083333333,99.74507820330975L50.364442708333335,100.73409525240875L50.46139062499999,102.263765825414L50.70376041666667,102.88971681781113L50.84918229166667,101.79100417113966L50.99460416666667,102.01677619438205L51.23697395833333,100.29970559942433L51.333921874999994,100.75047483106867L52.254927083333335,99.12922983542084L52.351875,98.61880739840367L52.351875,99.08956152968523L52.40034895833333,98.35090165312091L52.836614583333336,98.73757983582715L53.12745833333334,99.51160372677776L53.12745833333334,99.94846739334365L53.27288020833333,100.48383370985587L53.46677604166666,101.7354021674229L54.0969375,101.8633809927023L54.38778125,100.0754541164471L54.630151041666664,100.26938747983012L54.727098958333336,98.80261246321929L54.77557291666666,98.83208722530141L55.2603125,96.5432490910093L55.405734375,97.90489378174146L55.59963020833334,98.31094904839993L55.745052083333334,97.57209108115897L56.13284375,101.15262457869119L56.18131770833333,101.6026889514178L56.47216145833333,102.29206382052766L56.520635416666664,102.10987645698091L56.61758333333333,103.15787035309606L56.61758333333333,103.62689725615911L57.78095833333333,97.81698015017642L57.87790625,97.64758035242558L57.92638020833333,96.88323204865058L57.97485416666667,94.54640085382594L58.50806770833333,96.78012455598348L58.79891145833333,97.85871062460872L58.84738541666667,98.3666170038283L58.94433333333333,98.04953389370607L59.041281250000004,98.18201533655326L59.13822916666667,99.47009089299374L59.71991666666667,102.04719736352563L59.768390624999995,100.89194549220718L60.01076041666667,100.65837255919145L60.20465625,104.77830013848013L60.30160416666667,104.26989912142356L60.350078124999996,104.14800669695768L60.78634375,99.2701978503002L61.12566145833333,98.38056861733398L61.222609375,101.66477636380328L61.85277083333334,101.69259738671697L62.240562499999996,102.86244766939846L62.240562499999996,103.45762559316225L62.62835416666666,99.5376786781268L62.72530208333333,100.63283511429196L63.11309375,93.26245151911344L63.11309375,93.9488218166762L63.45241145833334,95.29991658897035L63.646307291666666,100.59483420915075L63.79172916666666,101.89188767787483L63.888677083333334,106.32540575307276L63.985625,106.4947881207284L64.08257291666666,109.23935305327177L64.17952083333334,109.02602564692496L64.47036458333334,108.53880172446371L64.66426041666666,108.8176220069329L64.80968229166666,106.7513077740868L65.003578125,104.51187029828628L65.19747395833333,103.09745104793045L65.294421875,102.94702273110548L65.34289583333333,99.34839962124825L65.34289583333333,99.82787987060017L65.39136979166666,97.28073337831431L65.48831770833333,96.5956976607442L65.63373958333332,97.39507009204891L65.876109375,97.34198273287879L66.11847916666666,101.0266483300262L66.21542708333332,99.62631448093389L66.26390104166667,101.30817734350761L66.312375,99.13202713016007L66.457796875,98.70841551787323L66.50627083333333,99.98309816602203L66.55474479166666,98.58036744329665L66.55474479166666,99.1618787591656L67.039484375,101.28121439947022L67.23338020833333,102.66079984009265L67.37880208333333,101.38253036100004L67.57269791666667,101.1943220772677L67.57269791666667,101.654706479609L67.81506770833333,99.1750088027782L67.96048958333333,98.37379255005055L68.493703125,98.82283608449829L68.59065104166667,98.506822805355L68.83302083333334,98.67505996864703L68.92996875,99.39985985747643L69.12386458333333,101.52196264316638L69.46318229166667,97.99113412416644L69.51165625,101.81826012921003L69.657078125,102.16001247705684L69.70555208333333,101.5470544429289L70.52960937499999,104.24374738343889L70.67503125,105.04321497364177L71.111296875,102.70302024152544L71.15977083333334,102.78116548243496L71.35366666666667,103.73667953312396L71.402140625,104.56845498250591L71.45061458333333,103.86472572336595L71.88688020833334,104.07785339024332L72.22619791666666,99.46418067746691L72.274671875,100.19338990930054L72.7109375,96.94023128648598L72.80788541666668,97.59552749296029L73.00178125,97.65031640628973L73.438046875,95.39807299243078L73.58346875,99.05470157480903L74.16515625,106.34827026931775L74.456,103.70220845780439L74.456,104.50706618717976L74.55294791666667,102.83885438674025L74.55294791666667,103.5687024080091L74.601421875,104.59096241734093L74.64989583333333,100.4781372485372L74.74684375,100.30337286790211L74.84379166666668,100.11944049272894L74.98921354166667,96.31635565312787L75.0376875,97.12184863881104L75.37700520833333,99.58262241416507L76.2010625,108.60377735073368L76.29801041666666,109.79503485237558L76.346484375,109.03423286635014L76.49190625,109.1906769214405L76.68580208333333,108.42732166200877L76.97664583333334,105.54927376276916L77.219015625,104.7493906767832L77.26748958333333,102.24244929005702L77.31596354166666,101.15325206211872L77.36443750000001,98.93458278030157L77.46138541666666,98.76978641202052L77.509859375,97.03991070340078L77.70375520833333,96.18456128579048L77.800703125,97.72300178764594L78.14002083333334,97.1540377849092L78.28544270833333,103.70018138483994L78.43086458333333,102.33473905322866L78.43086458333333,103.56276439854669L78.47933854166666,103.03947619584699L78.57628645833333,100.78560848554802L78.62476041666666,104.79466746896505L78.673234375,107.9137472042607L78.673234375,109.05660274475814L78.86713020833334,104.09666423164309L78.91560416666667,106.84035954376063L79.06102604166666,104.71328117251396L79.49729166666665,99.77894958913741L79.73966145833333,102.58406785014603L79.88508333333334,106.19022829847204L80.03050520833334,109.9795357077486L80.127453125,110.16047799719705L80.41829687500001,110.6303161063128L80.46677083333333,106.59651156961918L81.04845833333333,99.54029460565911L81.290828125,96.96558877742953L81.67861979166666,102.96278895884753L82.11488541666667,103.35634731832478L82.163359375,101.65828483104706L82.21183333333333,103.23601936267481L82.45420312499999,99.76544055872493L82.55115104166667,103.28459374043676L82.98741666666666,103.00210560063522L83.27826041666667,100.24611170755493L83.47215625,100.69700471642945L83.617578125,101.7281342888044L83.617578125,102.95106651319398L83.66605208333334,105.09172151535749L83.71452604166666,105.50110922778646L83.85994791666667,104.64795034916865L84.44163541666667,107.23144188755089L84.49010937499999,108.11230802237988L84.73247916666666,100.50754853209688L84.780953125,97.83029014774495L84.87790104166666,100.63796038667982L85.21721875,103.84251460014946L85.362640625,104.7692049263666L85.60501041666667,102.30409906572766L85.944328125,98.04856299029457L86.04127604166666,96.57860863010089L86.08975,96.02358069510923L86.42906770833333,96.35445760571295L86.71991145833334,96.77312472396426L87.01075520833334,97.23070994723174L87.01075520833334,98.20904423230223L87.253125,96.8442131317324L87.398546875,100.78386877361271L87.78633854166667,104.96971650189823L87.93176041666666,107.89728188837569L87.980234375,108.79400940984488L88.17413020833332,108.74987452444104L88.31955208333332,105.5855811221732L88.46497395833333,105.18314095147781L88.561921875,106.63492844162717L89.143609375,97.85958872454033L89.28903125,103.21754534608789L89.434453125,102.7563525641958L89.725296875,102.53309848308562L89.91919270833333,100.33787880341211L90.25851041666667,100.02573500540522L90.54935416666667,102.14940273099475L90.64630208333332,101.58902611219222L90.98561979166668,101.21072144144111L90.98561979166668,101.6909196222822L91.03409375,102.66546733693944L91.80967708333333,102.09833632070156L91.85815104166667,101.18902709699339L91.85815104166667,101.80760798561904L92.052046875,103.4599607548366L92.29441666666668,100.34969405254556L92.68220833333334,101.86542549576195L92.77915625,99.83313716418213L93.506265625,98.85429410876499L93.84558333333334,102.44736596883999L94.03947916666665,103.51898423913453L94.28184895833333,105.51505895695752L94.42727083333332,105.72233105401199L94.52421875,104.57233294314808L94.91201041666666,102.27110059791141L94.96048437500001,106.41287939250469L95.00895833333333,102.40566093292502L95.29980208333333,100.66484477751786L95.73606770833334,96.06898467987776L96.12385937500001,102.81629324836864L96.31775520833334,99.16768816279041L96.89944270833334,96.2821754719648L97.09333854166667,100.83436705701881L97.1418125,100.3852519178556L97.19028645833333,99.76022660483918L97.28723437500001,99.78648009689319L97.33570833333333,100.01246999632566L97.578078125,102.1391879885768L97.67502604166665,103.82539636231958L97.86892187500001,102.90846641833583L97.91739583333333,104.19375221737556L98.159765625,105.8001455941962L98.49908333333333,106.55045701832407L98.59603125000001,103.36412773595916L98.64450520833333,104.23596037063334L99.03229687500001,99.54352906602952L99.32314062500001,104.48005425044232L99.90482812500001,109.31707902972897L100.24414583333333,110.68354950141575L100.29261979166667,109.75269668002923L100.43804166666666,109.99492224206527L100.58346354166666,100.88897790072693L100.68041145833334,106.0888496828162L100.77735937499999,97.04211443273557L100.82583333333334,103.24069298360911L101.213625,100.93598545425468L101.649890625,100.47121337875724L101.69836458333334,93.86764750786953L101.84378645833334,97.29135066171487L101.94073437499999,101.7243194533719L102.52242187499999,99.87616123432915L102.57089583333334,99.48433504944875L102.76479166666667,101.04669388168388L102.813265625,99.73263099545406L102.86173958333333,103.91213652450178L102.91021354166666,101.93385934713814L102.91021354166666,103.50998842567206L103.394953125,114.81319412324164L103.540375,115.21541665328873L103.73427083333334,116.31766007194916L104.31595833333334,105.13008939466542L104.50985416666667,103.44355338224106L104.849171875,100.7665272421307L104.89764583333334,98.17175701889727L104.99459374999999,103.94876893162727L105.2854375,108.27700075225697L106.012546875,116.13973931305938L106.06102083333333,117.75584643483162L106.10949479166666,107.37135184854269L106.30339062499999,105.58006379041406L106.69118229166666,96.44455141243007L106.83660416666667,98.04987448718812L107.36981770833333,93.08303978045782L107.41829166666668,100.54807444562515L107.56371354166667,103.87024211295777L107.70913541666667,104.30376391208007L107.80608333333333,105.46841931976378L107.85455729166667,105.73379346148836L107.99997916666668,112.14500457031859L108.048453125,106.79368740179473L108.193875,107.75217022167313L108.339296875,106.68131086714565L108.48471875,103.34978889168964L108.58166666666668,106.6858087738769L108.96945833333332,101.31529211993846L109.26030208333333,92.6577972765598L109.35725,92.93626377520462L109.502671875,96.33205663578379L109.89046354166668,100.46953867636621L109.9389375,101.36690522281246L110.084359375,104.99462646337018L110.18130729166667,106.68003328827521L110.22978125,108.16513157470358L110.56909895833333,116.53974209692743L111.00536458333333,121.2975965572728L111.49010416666667,125.52838566617834L111.92636979166667,103.29570943034358L111.97484375,104.9718721807003L112.02331770833334,101.76039692395264L112.07179166666667,105.42360371847948L112.16873958333333,98.67881262103717L112.55653125,114.06191179570224L112.847375,113.44527836690347L112.847375,115.81908585992124L113.18669270833333,110.69943255790406L113.91380208333334,119.56257284647889L113.96227604166666,118.37688920663462L114.54396354166666,113.96211837654312L114.64091145833333,114.7581527090735L114.68938541666667,116.76822332226567L114.83480729166666,117.57445473157696L114.88328125000001,121.72647865348392L114.93175520833333,116.50505903396342L115.174125,111.92145653300815L115.319546875,108.67075414036711L115.65886458333334,106.4591091869192L115.85276041666665,90.87992097006904L116.14360416666666,107.24028883857859L116.19207812500001,117.9678133515848L116.28902604166666,110.88634441941976L116.57986979166667,105.14357699077162L116.67681770833333,110.0231731288135L116.77376562500001,99.64937308364443L116.82223958333333,93.2299735987352L117.064609375,101.63004430813922L117.16155729166667,104.73937072745628L117.88866666666667,107.54389660076963L117.98561458333333,107.79688642430636L118.17951041666666,110.68246789334549L118.76119791666666,122.0020305575596L118.80967187499999,122.75132302774323L119.00356770833334,124.15666920691729L119.2459375,115.79700711121163L119.43983333333334,114.41392246120506L119.58525520833334,116.14450667964088L119.68220312499999,107.18679257879654L119.973046875,107.35658054947852L120.11846874999999,117.5111015174124L120.26389062499999,110.45224365848634L120.79710416666667,108.99439049520427L121.03947395833333,107.71351686567068L121.18489583333334,98.50727410349582L121.37879166666667,113.48791803278857L121.42726562499999,102.9529814682487L121.718109375,97.00920217322806L121.96047916666667,81.80785225431123L122.05742708333334,83.97508108541369L122.299796875,82.40474727799496L122.299796875,84.93061869028541L123.41469791666667,103.58857836955124L123.56011979166666,98.60791641539998L123.56011979166666,100.53418501516182L123.80248958333334,105.59809310403135L125.59602604166668,121.95863244699106L125.83839583333332,126.76745627439684L125.88686979166667,127.46511797606945L125.93534375,121.45317852927579L125.98381770833333,119.43546128620704L126.03229166666667,126.11822008805143L126.080765625,128.383160148561L126.662453125,131.2013276623355L126.807875,119.48182722379764L126.85634895833333,122.33885348604784L127.05024479166667,112.70689525198605L127.34108854166668,105.14598375716143L127.534984375,125.36077221764458L127.63193229166667,123.36186628705926L127.63193229166667,127.67605227745241L128.01972395833332,136.889300995734L128.407515625,132.26910848518213L128.5529375,120.42208004842202L128.64988541666668,109.74887713376019L128.84378125,106.82268260071675L128.89225520833332,102.00046303851737L129.134625,98.661388178832L129.23157291666666,99.56779175856047L129.37699479166668,109.19964541205101L129.47394270833334,105.14669791998135L130.10410416666667,120.97726720968882L130.34647395833332,117.60463611914051L130.68579166666666,116.49002769672208L130.87968750000002,107.79547034684155L131.025109375,109.50864708208375L131.12205729166666,101.20608786261744L131.12205729166666,102.96326004250183L131.60679687500001,84.61172897434896L131.65527083333333,93.4653995393051L131.80069270833334,96.39208588368362L132.52780208333334,99.13930631478627L132.67322395833332,105.54589326646594L132.77017187500002,104.34640875988536L132.86711979166665,109.22209443251292L133.061015625,109.93561752082573L133.10948958333333,106.95252833051815L133.49728125000001,113.85534538196194L133.54575520833333,119.10680317961507L133.98202083333334,120.05172538542085L134.03049479166665,108.59887148555782L134.07896875,116.45185861471627L134.32133854166665,105.84255678450896L134.515234375,98.54135983238618L134.56370833333332,105.79146870436767L134.56370833333332,107.64543491378426L135.19386979166666,81.03445160703527L135.24234375,77.54504641592503L135.5331875,88.90661560959288L135.58166145833334,91.55543702915311L135.63013541666666,86.05461204126478L135.678609375,90.02536297299795L135.969453125,95.70027692533202L136.40571875,100.11077879534828L136.89045833333333,109.72064414819081L137.08435416666666,112.3994707700279L137.27824999999999,112.97459984454844L137.37519791666668,110.12466998646656L137.52061979166666,111.24992866814137L137.56909374999998,113.92598531809118L137.56909374999998,115.61792183352841L137.81146354166665,108.07210951199134L138.441625,122.48426570412185L138.587046875,114.74735924038623L138.97483854166666,91.77297592336933L139.07178645833335,90.5525272520052L139.21720833333333,101.88386606540945L139.31415625,102.70079484234253L139.36263020833334,91.14971670297285L139.55652604166667,105.5360476180911L139.605,105.1449831754797L139.65347395833334,97.33225862408678L139.70194791666665,102.11264689995183L139.750421875,108.14305094165935L139.99279166666668,109.87676975073086L140.08973958333334,107.71253889600436L140.1866875,106.18799724628528L140.23516145833335,106.82117701735761L140.28363541666667,110.24157504828439L140.42905729166668,111.20905368162526L140.57447916666666,113.15521897061004L140.622953125,112.20557179575165L140.67142708333333,109.23503227399455L141.54395833333334,120.15507548616992L141.83480208333333,108.18278307923012L142.27106770833333,114.60652783976661L142.31954166666668,116.42335616929662L142.70733333333334,126.1994179510408L142.80428125,112.3603067593442L142.85275520833332,115.15890922678841L142.85275520833332,118.27420050733619L143.33749479166667,110.33066167814864L143.91918229166666,100.85295130718085L143.96765625,99.52457784170078L144.30697395833332,99.46439266511135L144.50086979166667,101.99143707570103L144.694765625,108.49188367683026L144.79171354166667,101.96249181164636L144.8401875,103.52572073539099L144.8401875,106.81657170355321L145.17950520833332,98.1758271816704L145.37340104166668,107.821300805774L145.90661458333335,100.84513602935606L146.05203645833333,103.59992206394672L146.148984375,104.02910942236582L146.29440625,103.83667363391983L146.63372395833332,85.97670893735356L146.68219791666667,95.78156806288494L146.68219791666667,97.54832585296697L146.87609375,99.51783899002605L147.31235937499997,101.68041351462404L147.84557291666667,113.95726527273655L147.99099479166668,119.30962918914027L147.99099479166668,121.28120096176863L148.47573437499997,116.69986719969246L148.52420833333335,116.79186230003833L148.66963020833333,117.29032722065847L149.29979166666666,123.99413215584225L149.39673958333336,131.90787400172817L149.73605729166667,127.14276862177584L149.83300520833333,131.94808193378978L150.26927083333334,139.03334591587384L150.46316666666667,143.79418516225286L150.99638020833333,164.22584452033044L151.093328125,141.15384042196803L151.093328125,143.9473061932458L151.19027604166666,155.9335210065047L151.23875,159.4848209367858L151.33569791666667,175.91600775321325L151.86891145833334,164.28602263066503L152.402125,194.71061749458312L153.75939583333331,187.10499073929256L154.09871354166668,81.82352614965704L154.1471875,68.89173715081479L154.19566145833335,65.14217883812056L154.63192708333332,78.64323286215465L154.72887500000002,65.58207298583454L155.2136145833333,90.20422872569826L155.26208854166669,88.75402972963121L155.60140625,80.08951244221792L155.69835416666666,92.16753957536486L156.037671875,101.57412290970484L156.08614583333332,94.95617391268412L156.1346197916667,102.70656279060576L156.23156770833333,94.73301593263943L156.91020312499998,86.20628872977362L157.15257291666666,105.14241200089454L157.2979947916667,99.40457540485595L157.39494270833333,100.96886709332466L157.54036458333331,112.57818483379152L157.68578645833333,113.50823210212918L157.83120833333334,110.89413614306186L157.87968229166665,116.98057841195L157.92815625,121.98241274986003L158.31594791666666,130.35726258258023L158.50984375000002,141.4370860642857L158.70373958333332,154.87938276628654L159.14000520833335,154.5270762602488L159.23695312499999,142.18950087693003L159.28542708333333,119.59204007122253L159.57627083333333,123.30150728060138L159.62474479166664,118.21552421169147L159.77016666666668,108.19876317895121L160.06101041666668,117.07422607375517L160.20643229166666,127.24623555127118L160.44880208333333,117.4839068002171L160.691171875,134.02384233607185L161.07896354166667,134.23450340893532L161.36980729166666,128.48386464350753L161.41828125,116.54016041921246L161.51522916666667,139.70263895988464L161.854546875,142.7015951898363L162.8725,112.75930330852668L162.92097395833335,118.54685995777447L163.017921875,123.73065695232816L163.35723958333332,157.60453387035264L163.64808333333332,173.10745223032103L163.79350520833336,183.73845358689627L164.52061458333333,198.54882621367773L164.66603645833334,92.30182102885512L164.95688020833336,83.58551092015372L165.00535416666668,75.57376859949694L165.39314583333334,85.92432443499565L165.49009374999997,80.81626261737613L165.635515625,101.93093297547765L166.31415104166666,121.00608245465492L166.36262499999998,130.25902091297837L166.508046875,121.91591081255012L166.75041666666667,131.05846118032932L166.9443125,137.81214633716476L166.99278645833334,116.40302985178099L167.18668229166667,113.87272648447089L167.380578125,118.30351886964507L167.62294791666667,128.15409101082219L167.671421875,115.53168337543806L167.91379166666667,123.64453343864943L168.01073958333333,142.9300820681784L168.01073958333333,146.6172802110513L168.49547916666668,135.70483463605245L168.59242708333332,146.196402768294L168.64090104166667,157.08175914883614L168.73784895833336,147.4393174191316L168.98021874999998,166.03240134186214L169.416484375,172.5827328754796L169.9012239583333,103.31250827345583L169.998171875,124.51995196210012L170.24054166666667,117.54952686892616L170.38596354166665,91.59818033344216L170.38596354166665,98.46382605805992L170.4344375,105.66796800030603L170.48291145833332,153.54133559796546L170.579859375,123.16573343409434L171.11307291666668,189.70576445261636L172.1795,237.63930262327193L172.42186979166667,39.182171900735966L172.56729166666668,-10.45777824388611L172.615765625,23.998863072527797L172.7611875,-8.519189864397049L172.80966145833332,0.6731898479991685L172.85813541666667,23.60641647047467L173.1489791666667,64.11274422473377L173.197453125,79.72312241925134L173.24592708333333,73.04802532196045L173.82761458333334,102.91680930985345L174.02151041666667,101.44090798960791L174.11845833333334,102.69037258757486L174.50625,101.00610908269881L174.74861979166667,103.53876033094194L174.74861979166667,105.29496019416385L174.79709375,114.35737357934316L174.942515625,117.25219394101036L175.08793749999998,117.03213380707635L175.28183333333334,127.02515222364002L175.37878125,134.90562048885556L175.57267708333333,138.20163830253813L175.71809895833331,153.19382660786312L176.00894270833334,184.64423062536451L178.62653645833333,206.1293988558981L178.77195833333334,167.24464656247034L179.35364583333333,37.23212676677437L181.63192187500002,19.002971926000384L182.01971354166668,35.166643525494464L182.21360937499998,43.30252957940101L182.84377083333334,45.35695177647804L183.37698437499998,18.156430830558122L183.57088020833334,4.224376718203246L183.958671875,-6.223173357380773L184.00714583333334,29.078833229674217L184.20104166666667,30.71324477791788L184.63730729166667,56.65926618377368L184.68578125,27.98870042959851L185.17052083333334,37.79959413674143L185.2189947916667,16.035491621494288L185.26746875,99.34071530467935L185.65526041666666,45.202406188514516L186.62473958333334,39.06180814272827L187.78811458333334,56.24362719125217L187.98201041666667,12.977457732624458L188.0789583333333,61.864657653040354L188.12743229166668,36.020838788151735L188.27285416666666,-4.432181139787048L188.70911979166667,50.04724907212787L188.75759375,-18.693111941549517L189.193859375,27.242895862791272L189.33928125,43.05629980630343L189.82402083333332,33.572579350074136L190.066390625,31.576036375098766L191.81145312499999,24.13161821497812L192.24771875000002,42.9886974175771L192.34466666666665,46.36274552775754L192.5385625,18.546646380424505L192.82940625,55.187623459763L192.974828125,25.70588933957947L193.31414583333333,5.930506041977139L193.7019375,18.754450802008307L193.847359375,15.040351898140358L194.23515104166665,22.03774558835559L194.42904687499998,43.14446028570336L194.62294270833334,46.855231454637334L195.10768229166666,67.50302399330668L195.15615625,16.30558460818395L195.73784375000002,29.49371095101037L195.93173958333333,47.377018784814396L196.27105729166666,31.097249560885956L196.464953125,17.33605183694098L196.99816666666666,21.147721587287037L197.57985416666668,37.54444015489685L198.35543750000002,10.855651729636719L199.56728645833334,39.81773912376829L200.29439583333334,21.910025388002396L200.97303125,35.42708118160567L201.16692708333332,-17.723998647928255L201.36082291666668,58.674569594197806L201.74861458333334,36.856722086999156L202.03945833333333,23.219449513488343L202.08793229166665,58.7125050187111L202.91198958333334,30.69032373163435L203.34825520833334,10.486774384975433L203.63909895833334,28.491908220450085L204.026890625,63.662584222025345L204.17231249999998,7.561955416202551L205.23873958333334,25.986949153741193L205.38416145833335,29.13607931534449L206.062796875,50.748948902885104L206.2566927083333,23.947315214739888L206.64448437500002,37.03163733217451L206.78990625,19.68700046671762L207.08075,9.826277414957701L207.95328125,8.936456922027816L208.05022916666667,34.95886925326454L208.92276041666668,53.27924473285675L209.11665625,20.470303292406925L209.26207812500002,7.974579473336519L209.98918749999999,41.75229502717656L210.134609375,36.324171437488644L210.32850520833333,51.75860177146065L210.6678229166667,30.73633164564768L211.297984375,37.05782958335348L211.58882812500002,19.40195340050593L212.26746354166667,8.421528569857287L212.84915104166666,31.366596351067244L213.18846875,36.75178349216779L213.57626041666666,27.27539686626858L213.96405208333334,29.712452050712358L214.01252604166666,49.39183980557655L214.25489583333334,-17.55752899050711L214.44879166666666,52.732248774170884L215.07895312500003,1.734952106078481L215.27284895833333,64.9505683882369L215.951484375,70.55604555209477L216.53317187500002,1.0766786509090025L216.58164583333334,46.95646544761129L216.92096354166668,22.731158115466428L217.30875520833334,3.2344151463773585L217.59959895833333,48.53474266760881L217.89044270833332,72.51518636925353L218.22976041666666,26.089004716608258L218.32670833333336,41.891845080256445L218.76297395833333,29.238104728857678L218.859921875,21.91610802014668L218.90839583333334,32.57961791753769L219.82940104166667,-2.6215164687898493L219.97482291666665,39.41911190417076L220.4110885416667,10.365204652812764L221.04125,39.85722347133688L221.5744635416667,18.826854475339246L221.71988541666667,43.15500125355189L222.204625,12.043272465467453L222.98020833333334,35.99059521754583L223.51342187499998,33.509755633937004L224.385953125,73.02970582081211L224.87069270833334,-2.6162478692002082L224.91916666666665,67.8085688514842L225.16153645833333,23.025513794687043L225.21001041666665,16.407873828543558L225.549328125,26.96769256061978L225.74322395833335,14.49882427851361L225.79169791666666,73.39626166522503L225.84017187499998,11.367150592803938L226.56728125,18.7566215554873L226.90659895833335,81.91487115455998L226.95507291666667,24.61672131882773L227.14896875,17.850166156556867L227.24591666666666,-4.300051596429597L227.6821822916667,30.87672964930536L227.876078125,62.21505344377623L228.0215,15.570000672340399L229.28182291666667,44.51521950297885L229.330296875,62.59276454912292L229.76656250000002,34.15555479394067L229.911984375,26.581886353757653L230.10588020833333,5.423243163029355L230.25130208333331,37.61960249410737L230.73604166666667,38.92893617153166L230.78451562499998,43.402896778451066L230.83298958333333,8.607173216342943L230.88146354166665,26.28717641962899L231.12383333333332,29.092325065533316L231.41467708333332,25.85970380571152L231.60857291666667,31.694613783889366L231.7055208333333,29.945318122704805L232.48110416666668,2.7239187492264705L232.77194791666668,14.278025485409614L232.820421875,24.801506708727942L233.20821354166665,38.081464214788525L233.49905729166665,15.745650808016478L234.12921875,1.1880352894465318L234.46853645833335,47.821382574240374L234.95327604166664,4.245390817854144L235.82580729166665,38.95038743681377L236.21359895833334,44.410077400008845L237.3285,-1.9648484667142156L237.66781770833336,36.42590666347078L237.95866145833335,12.466169914934369L238.10408333333334,32.623123435179394L239.60677604166665,4.300737494230276L239.65525,14.291321350468536L240.43083333333334,4.119924281703106L240.47930729166666,30.41991417672901L240.964046875,37.69035172164442L241.10946875,26.288284408383902L241.20641666666668,10.805927907758274L241.73963020833335,38.80160037544039L242.03047395833335,58.90019228392177L242.17589583333333,10.87563321391741L242.36979166666669,22.366132350762683L243.145375,30.29769623345797L243.24232291666667,46.83313574691613L243.290796875,20.507183489534583L243.4846927083333,48.630519627531385L243.63011458333332,39.55158816509777L243.7270625,71.89471266650492L244.40569791666667,23.01823272572625L244.59959375,41.17883170445759L245.13280729166667,-0.1696654889318836L245.27822916666668,48.38730102115207L246.24770833333335,29.78156190713247L246.63549999999998,11.306399644745738L247.12023958333333,23.182358270883554L247.16871354166668,-7.525640519460012L247.70192708333335,66.72105150785711L248.816828125,14.62129849129255L249.05919791666665,40.44174030092026L249.8832552083333,23.75755518145033L250.99815625,46.586333136094936L251.09510416666666,53.40603030323983L252.016109375,33.27056573496924L252.06458333333333,36.839819605482944L252.25847916666666,43.41856690512765L252.452375,19.772496496968785L253.32490625,78.49776599837675L253.61575,11.496611918343433L253.66422395833334,13.745934613545728L255.70013020833332,51.43464319540395L256.087921875,39.125295144650664L256.47571354166666,29.821705771817108L256.5241875,25.479610901408734L257.3482447916667,43.568503410617495L257.73603645833333,63.93845080998207L257.97840625,44.8412546157837L258.17230208333336,38.34408393038643L258.705515625,12.537247016694806L259.28720312499996,42.85585182706515L259.43262500000003,4.625996261172844L259.52957291666667,41.742651002605754L259.72346875,10.422307529052091L260.11126041666665,8.564903822210084L262.0017447916667,32.245683674017585L263.01969791666664,60.76503157516322L263.31054166666667,3.1404622223642207L263.359015625,29.880941714843118L263.4559635416667,38.70212258232965L264.1830729166667,50.26567737228342L264.522390625,23.564026478926337L265.63729166666667,16.700940622886037L265.7342395833333,16.652588596608922L265.8311875,29.42899536291759L266.36440104166667,34.41821596490013L266.5098229166667,33.33862036400373L267.3338802083333,17.042570488982733L267.62472395833333,5.278428279029015L268.2548854166667,26.841004975636793L269.22436458333334,37.488143773873645L269.6606302083333,-2.6228128910064754L270.339265625,30.92108688619402L270.43621354166663,15.043555266989586L270.5331614583333,38.54978543453748L270.9694270833333,6.40554679897096L271.40569270833333,36.50613032546309L271.793484375,41.61002776357864L272.76296354166664,28.671447622776014L272.85991145833333,16.10708126227061L273.00533333333334,23.14593031406403L273.10228125,30.371132522159172L273.393125,40.896298340625236L273.9748125,28.733947233359004L274.02328645833336,24.082376782761685L274.3626041666667,44.685940219296356L274.50802604166665,23.711841223637265L274.75039583333336,-6.3360826876428575L275.08971354166664,15.315027586619067L275.18666145833333,22.032379003365833L276.64088020833333,52.89668335020542L277.028671875,34.470479869842535" style="fill: none;" fill="none"></path></g></g></g></g></g><g><g opacity="0.4775448143482208"><span style="white-space: normal;" fill="rgb(0, 0, 0)" stroke="none" stroke-width="1px">Alt + Scroll to Zoom</span></g></g></g><g transform="translate(39, 177)" clip-path="url(#clip_1)"><clipPath id="clip_1"><rect width="290" height="22"></rect></clipPath><g><g><line x1="0" y1="0" x2="0" y2="5" style="visibility: inherit;" fill="rgb(0, 0, 0)" stroke="rgb(204, 204, 204)" stroke-width="1px"></line><line x1="24.236979166666664" y1="0" x2="24.236979166666664" y2="5" style="visibility: inherit;" fill="rgb(0, 0, 0)" stroke="rgb(204, 204, 204)" stroke-width="1px"></line><line x1="48.47395833333333" y1="0" x2="48.47395833333333" y2="5" style="visibility: inherit;" fill="rgb(0, 0, 0)" stroke="rgb(204, 204, 204)" stroke-width="1px"></line><line x1="72.7109375" y1="0" x2="72.7109375" y2="5" style="visibility: inherit;" fill="rgb(0, 0, 0)" stroke="rgb(204, 204, 204)" stroke-width="1px"></line><line x1="96.94791666666666" y1="0" x2="96.94791666666666" y2="5" style="visibility: inherit;" fill="rgb(0, 0, 0)" stroke="rgb(204, 204, 204)" stroke-width="1px"></line><line x1="121.18489583333334" y1="0" x2="121.18489583333334" y2="5" style="visibility: inherit;" fill="rgb(0, 0, 0)" stroke="rgb(204, 204, 204)" stroke-width="1px"></line><line x1="145.421875" y1="0" x2="145.421875" y2="5" style="visibility: inherit;" fill="rgb(0, 0, 0)" stroke="rgb(204, 204, 204)" stroke-width="1px"></line><line x1="169.65885416666669" y1="0" x2="169.65885416666669" y2="5" style="visibility: inherit;" fill="rgb(0, 0, 0)" stroke="rgb(204, 204, 204)" stroke-width="1px"></line><line x1="193.89583333333331" y1="0" x2="193.89583333333331" y2="5" style="visibility: inherit;" fill="rgb(0, 0, 0)" stroke="rgb(204, 204, 204)" stroke-width="1px"></line><line x1="218.1328125" y1="0" x2="218.1328125" y2="5" style="visibility: inherit;" fill="rgb(0, 0, 0)" stroke="rgb(204, 204, 204)" stroke-width="1px"></line><line x1="242.36979166666669" y1="0" x2="242.36979166666669" y2="5" style="visibility: inherit;" fill="rgb(0, 0, 0)" stroke="rgb(204, 204, 204)" stroke-width="1px"></line><line x1="266.6067708333333" y1="0" x2="266.6067708333333" y2="5" style="visibility: inherit;" fill="rgb(0, 0, 0)" stroke="rgb(204, 204, 204)" stroke-width="1px"></line><line x1="290.84375" y1="0" x2="290.84375" y2="5" style="visibility: inherit;" fill="rgb(0, 0, 0)" stroke="rgb(204, 204, 204)" stroke-width="1px"></line></g><g transform="translate(0, 8)"><text x="0" y="0" dx="0em" dy="0.95em" style="text-anchor: middle; visibility: hidden; font-family: &quot;Helvetica Neue&quot;, sans-serif; font-size: 12px; font-weight: 200;" fill="rgb(50, 49, 63)" stroke="none" stroke-width="1px">-500</text><text x="24.236979166666664" y="0" dx="0em" dy="0.95em" style="text-anchor: middle; visibility: inherit; font-family: &quot;Helvetica Neue&quot;, sans-serif; font-size: 12px; font-weight: 200;" fill="rgb(50, 49, 63)" stroke="none" stroke-width="1px">0</text><text x="48.47395833333333" y="0" dx="0em" dy="0.95em" style="text-anchor: middle; visibility: inherit; font-family: &quot;Helvetica Neue&quot;, sans-serif; font-size: 12px; font-weight: 200;" fill="rgb(50, 49, 63)" stroke="none" stroke-width="1px">500</text><text x="72.7109375" y="0" dx="0em" dy="0.95em" style="text-anchor: middle; visibility: inherit; font-family: &quot;Helvetica Neue&quot;, sans-serif; font-size: 12px; font-weight: 200;" fill="rgb(50, 49, 63)" stroke="none" stroke-width="1px">1k</text><text x="96.94791666666666" y="0" dx="0em" dy="0.95em" style="text-anchor: middle; visibility: inherit; font-family: &quot;Helvetica Neue&quot;, sans-serif; font-size: 12px; font-weight: 200;" fill="rgb(50, 49, 63)" stroke="none" stroke-width="1px">1.5k</text><text x="121.18489583333334" y="0" dx="0em" dy="0.95em" style="text-anchor: middle; visibility: inherit; font-family: &quot;Helvetica Neue&quot;, sans-serif; font-size: 12px; font-weight: 200;" fill="rgb(50, 49, 63)" stroke="none" stroke-width="1px">2k</text><text x="145.421875" y="0" dx="0em" dy="0.95em" style="text-anchor: middle; visibility: inherit; font-family: &quot;Helvetica Neue&quot;, sans-serif; font-size: 12px; font-weight: 200;" fill="rgb(50, 49, 63)" stroke="none" stroke-width="1px">2.5k</text><text x="169.65885416666669" y="0" dx="0em" dy="0.95em" style="text-anchor: middle; visibility: inherit; font-family: &quot;Helvetica Neue&quot;, sans-serif; font-size: 12px; font-weight: 200;" fill="rgb(50, 49, 63)" stroke="none" stroke-width="1px">3k</text><text x="193.89583333333331" y="0" dx="0em" dy="0.95em" style="text-anchor: middle; visibility: inherit; font-family: &quot;Helvetica Neue&quot;, sans-serif; font-size: 12px; font-weight: 200;" fill="rgb(50, 49, 63)" stroke="none" stroke-width="1px">3.5k</text><text x="218.1328125" y="0" dx="0em" dy="0.95em" style="text-anchor: middle; visibility: inherit; font-family: &quot;Helvetica Neue&quot;, sans-serif; font-size: 12px; font-weight: 200;" fill="rgb(50, 49, 63)" stroke="none" stroke-width="1px">4k</text><text x="242.36979166666669" y="0" dx="0em" dy="0.95em" style="text-anchor: middle; visibility: inherit; font-family: &quot;Helvetica Neue&quot;, sans-serif; font-size: 12px; font-weight: 200;" fill="rgb(50, 49, 63)" stroke="none" stroke-width="1px">4.5k</text><text x="266.6067708333333" y="0" dx="0em" dy="0.95em" style="text-anchor: middle; visibility: inherit; font-family: &quot;Helvetica Neue&quot;, sans-serif; font-size: 12px; font-weight: 200;" fill="rgb(50, 49, 63)" stroke="none" stroke-width="1px">5k</text><text x="290.84375" y="0" dx="0em" dy="0.95em" style="text-anchor: middle; visibility: hidden; font-family: &quot;Helvetica Neue&quot;, sans-serif; font-size: 12px; font-weight: 200;" fill="rgb(50, 49, 63)" stroke="none" stroke-width="1px">5.5k</text></g><line x1="0" y1="0" x2="290.84375" y2="0" fill="rgb(0, 0, 0)" stroke="rgb(204, 204, 204)" stroke-width="1px"></line></g></g></g></g></svg>