<svg viewBox="0 0 330 200" xmlns="http://www.w3.org/2000/svg"><g><g><g><g><g><line x1="29.4375" y1="177.828125" x2="24.4375" y2="177.828125" style="visibility: inherit;" fill="rgb(0, 0, 0)" stroke="rgb(204, 204, 204)" stroke-width="1px"></line><line x1="29.4375" y1="158.06944444444446" x2="24.4375" y2="158.06944444444446" style="visibility: inherit;" fill="rgb(0, 0, 0)" stroke="rgb(204, 204, 204)" stroke-width="1px"></line><line x1="29.4375" y1="138.31076388888889" x2="24.4375" y2="138.31076388888889" style="visibility: inherit;" fill="rgb(0, 0, 0)" stroke="rgb(204, 204, 204)" stroke-width="1px"></line><line x1="29.4375" y1="118.55208333333334" x2="24.4375" y2="118.55208333333334" style="visibility: inherit;" fill="rgb(0, 0, 0)" stroke="rgb(204, 204, 204)" stroke-width="1px"></line><line x1="29.4375" y1="98.79340277777779" x2="24.4375" y2="98.79340277777779" style="visibility: inherit;" fill="rgb(0, 0, 0)" stroke="rgb(204, 204, 204)" stroke-width="1px"></line><line x1="29.4375" y1="79.03472222222221" x2="24.4375" y2="79.03472222222221" style="visibility: inherit;" fill="rgb(0, 0, 0)" stroke="rgb(204, 204, 204)" stroke-width="1px"></line><line x1="29.4375" y1="59.27604166666667" x2="24.4375" y2="59.27604166666667" style="visibility: inherit;" fill="rgb(0, 0, 0)" stroke="rgb(204, 204, 204)" stroke-width="1px"></line><line x1="29.4375" y1="39.517361111111114" x2="24.4375" y2="39.517361111111114" style="visibility: inherit;" fill="rgb(0, 0, 0)" stroke="rgb(204, 204, 204)" stroke-width="1px"></line><line x1="29.4375" y1="19.75868055555557" x2="24.4375" y2="19.75868055555557" style="visibility: inherit;" fill="rgb(0, 0, 0)" stroke="rgb(204, 204, 204)" stroke-width="1px"></line><line x1="29.4375" y1="0" x2="24.4375" y2="0" style="visibility: inherit;" fill="rgb(0, 0, 0)" stroke="rgb(204, 204, 204)" stroke-width="1px"></line></g><g transform="translate(19.4375, 0)"><text x="0" y="177.828125" dx="0em" dy="0.3em" style="text-anchor: end; visibility: hidden; font-family: &quot;Helvetica Neue&quot;, sans-serif; font-size: 12px; font-weight: 200;" fill="rgb(50, 49, 63)" stroke="none" stroke-width="1px">-6</text><text x="0" y="158.06944444444446" dx="0em" dy="0.3em" style="text-anchor: end; visibility: inherit; font-family: &quot;Helvetica Neue&quot;, sans-serif; font-size: 12px; font-weight: 200;" fill="rgb(50, 49, 63)" stroke="none" stroke-width="1px">-4</text><text x="0" y="138.31076388888889" dx="0em" dy="0.3em" style="text-anchor: end; visibility: hidden; font-family: &quot;Helvetica Neue&quot;, sans-serif; font-size: 12px; font-weight: 200;" fill="rgb(50, 49, 63)" stroke="none" stroke-width="1px">-2</text><text x="0" y="118.55208333333334" dx="0em" dy="0.3em" style="text-anchor: end; visibility: inherit; font-family: &quot;Helvetica Neue&quot;, sans-serif; font-size: 12px; font-weight: 200;" fill="rgb(50, 49, 63)" stroke="none" stroke-width="1px">0</text><text x="0" y="98.79340277777779" dx="0em" dy="0.3em" style="text-anchor: end; visibility: hidden; font-family: &quot;Helvetica Neue&quot;, sans-serif; font-size: 12px; font-weight: 200;" fill="rgb(50, 49, 63)" stroke="none" stroke-width="1px">2</text><text x="0" y="79.03472222222221" dx="0em" dy="0.3em" style="text-anchor: end; visibility: inherit; font-family: &quot;Helvetica Neue&quot;, sans-serif; font-size: 12px; font-weight: 200;" fill="rgb(50, 49, 63)" stroke="none" stroke-width="1px">4</text><text x="0" y="59.27604166666667" dx="0em" dy="0.3em" style="text-anchor: end; visibility: hidden; font-family: &quot;Helvetica Neue&quot;, sans-serif; font-size: 12px; font-weight: 200;" fill="rgb(50, 49, 63)" stroke="none" stroke-width="1px">6</text><text x="0" y="39.517361111111114" dx="0em" dy="0.3em" style="text-anchor: end; visibility: inherit; font-family: &quot;Helvetica Neue&quot;, sans-serif; font-size: 12px; font-weight: 200;" fill="rgb(50, 49, 63)" stroke="none" stroke-width="1px">8</text><text x="0" y="19.75868055555557" dx="0em" dy="0.3em" style="text-anchor: end; visibility: hidden; font-family: &quot;Helvetica Neue&quot;, sans-serif; font-size: 12px; font-weight: 200;" fill="rgb(50, 49, 63)" stroke="none" stroke-width="1px">10</text><text x="0" y="0" dx="0em" dy="0.3em" style="text-anchor: end; visibility: hidden; font-family: &quot;Helvetica Neue&quot;, sans-serif; font-size: 12px; font-weight: 200;" fill="rgb(50, 49, 63)" stroke="none" stroke-width="1px">12</text></g><line x1="29.4375" y1="0" x2="29.4375" y2="177.828125" fill="rgb(0, 0, 0)" stroke="rgb(204, 204, 204)" stroke-width="1px"></line></g></g><g transform="translate(29, 0)" clip-path="url(#clip_0)"><clipPath id="clip_0"><rect width="300" height="177"></rect></clipPath><g><g><g><line x1="0" y1="0" x2="0" y2="177.828125" fill="rgb(0, 0, 0)" stroke="rgb(60, 60, 60)" stroke-width="1px" opacity="0.25"></line><line x1="37.5703125" y1="0" x2="37.5703125" y2="177.828125" fill="rgb(0, 0, 0)" stroke="rgb(60, 60, 60)" stroke-width="1px" opacity="0.25"></line><line x1="75.140625" y1="0" x2="75.140625" y2="177.828125" fill="rgb(0, 0, 0)" stroke="rgb(60, 60, 60)" stroke-width="1px" opacity="0.25"></line><line x1="112.7109375" y1="0" x2="112.7109375" y2="177.828125" fill="rgb(0, 0, 0)" stroke="rgb(60, 60, 60)" stroke-width="1px" opacity="0.25"></line><line x1="150.28125" y1="0" x2="150.28125" y2="177.828125" fill="rgb(0, 0, 0)" stroke="rgb(60, 60, 60)" stroke-width="1px" opacity="0.25"></line><line x1="187.8515625" y1="0" x2="187.8515625" y2="177.828125" fill="rgb(0, 0, 0)" stroke="rgb(60, 60, 60)" stroke-width="1px" opacity="0.25"></line><line x1="225.421875" y1="0" x2="225.421875" y2="177.828125" fill="rgb(0, 0, 0)" stroke="rgb(60, 60, 60)" stroke-width="1px" opacity="0.25"></line><line x1="262.9921875" y1="0" x2="262.9921875" y2="177.828125" fill="rgb(0, 0, 0)" stroke="rgb(60, 60, 60)" stroke-width="1px" opacity="0.25"></line><line x1="300.5625" y1="0" x2="300.5625" y2="177.828125" fill="rgb(0, 0, 0)" stroke="rgb(60, 60, 60)" stroke-width="1px" opacity="0.25"></line></g><g><line x1="0" y1="177.828125" x2="300.5625" y2="177.828125" fill="rgb(0, 0, 0)" stroke="rgb(60, 60, 60)" stroke-width="1px" opacity="0.25"></line><line x1="0" y1="158.06944444444446" x2="300.5625" y2="158.06944444444446" fill="rgb(0, 0, 0)" stroke="rgb(60, 60, 60)" stroke-width="1px" opacity="0.25"></line><line x1="0" y1="138.31076388888889" x2="300.5625" y2="138.31076388888889" fill="rgb(0, 0, 0)" stroke="rgb(60, 60, 60)" stroke-width="1px" opacity="0.25"></line><line x1="0" y1="118.55208333333334" x2="300.5625" y2="118.55208333333334" fill="rgb(0, 0, 0)" stroke="rgb(60, 60, 60)" stroke-width="1px" opacity="0.25"></line><line x1="0" y1="98.79340277777779" x2="300.5625" y2="98.79340277777779" fill="rgb(0, 0, 0)" stroke="rgb(60, 60, 60)" stroke-width="1px" opacity="0.25"></line><line x1="0" y1="79.03472222222221" x2="300.5625" y2="79.03472222222221" fill="rgb(0, 0, 0)" stroke="rgb(60, 60, 60)" stroke-width="1px" opacity="0.25"></line><line x1="0" y1="59.27604166666667" x2="300.5625" y2="59.27604166666667" fill="rgb(0, 0, 0)" stroke="rgb(60, 60, 60)" stroke-width="1px" opacity="0.25"></line><line x1="0" y1="39.517361111111114" x2="300.5625" y2="39.517361111111114" fill="rgb(0, 0, 0)" stroke="rgb(60, 60, 60)" stroke-width="1px" opacity="0.25"></line><line x1="0" y1="19.75868055555557" x2="300.5625" y2="19.75868055555557" fill="rgb(0, 0, 0)" stroke="rgb(60, 60, 60)" stroke-width="1px" opacity="0.25"></line><line x1="0" y1="0" x2="300.5625" y2="0" fill="rgb(0, 0, 0)" stroke="rgb(60, 60, 60)" stroke-width="1px" opacity="0.25"></line></g></g></g><g><g><line x1="0" y1="118.55208333333334" x2="300.5625" y2="118.55208333333334" fill="rgb(0, 0, 0)" stroke="rgb(153, 153, 153)" stroke-width="1.5px"></line></g></g><g><g><line x1="37.5703125" y1="0" x2="37.5703125" y2="177.828125" fill="rgb(0, 0, 0)" stroke="rgb(153, 153, 153)" stroke-width="1.5px"></line></g></g><g><g><g><g><g><path stroke="rgb(255, 112, 67)" stroke-width="2px" d="M37.9084453125,104.53763668984175L38.02115625,101.55317452622371L38.32171875,100.0611690718537L38.3592890625,96.92285778366481L38.396859375,96.25175213799406L38.62228125,93.85121561197961L38.8852734375,91.52753286585539L38.9604140625,89.72688414823796L39.336117187499994,86.59607542091858L39.4863984375,84.47616161388919L39.561539062499996,82.9094745109455L39.9372421875,81.07138088742909L40.4632265625,80.17668194136132L40.5383671875,77.55788207409448L40.6886484375,77.92013575980079L40.9892109375,77.73087734355053L41.026781250000006,76.50400487938883L41.853328125000004,75.26386027058814L41.9660390625,73.02006037541312L42.229031250000006,74.04030564916143L42.3417421875,72.43238532753766L42.45445312499999,74.37547102915221L42.5671640625,73.2079311726902L42.679874999999996,72.87689901107952L43.055578125,72.49511156643838L43.356140624999995,73.5231701256215L43.3937109375,72.95022085340659L43.5439921875,74.02815662642573L43.919695312500004,74.61074474321842L44.0699765625,79.06984375105777L44.3705390625,76.50455270567586L44.445679687500004,74.94254015884243L45.460078124999995,76.34872338583277L45.497648437500004,75.36262560025285L45.7982109375,75.14404447992321L45.873351562500005,75.72876961326185L45.910921875,75.85532176020597L46.211484375,78.69866696117494L46.249054687500006,78.26442514217744L46.286625,79.30274907826212L46.4744765625,78.01906343824656L46.812609375,78.69359307643974L47.2258828125,77.77442540726004L47.526445312499995,79.92241504163896L47.63915625,80.45597127604877L48.1275703125,82.12297652407656L48.315421875,80.27595571914856L48.428132812499996,81.07027487286783L48.578414062499995,80.31595869441452L48.578414062499995,79.97741080271699L49.217109375,79.86267243592384L49.2546796875,82.6940917358984L49.480101562499996,83.79014278750283L49.5928125,83.7463618909027L49.630382812499995,87.27375247016674L49.667953125000004,85.9272772556645L49.7055234375,85.85977546307721L49.74309375,84.00699861042973L49.968515625,86.70120603590527L50.156367187499995,85.48755788156973L50.9829140625,86.81045779810768L51.0580546875,87.27434874196041L51.1331953125,88.12524026604011L51.2834765625,87.6414815233771L51.4337578125,89.52401106950056L51.696749999999994,89.2564369457912L51.771890625,89.63499401037271L51.922171875,90.45631831046236L51.9973125,91.61669024785799L52.0348828125,92.3332303061379L52.072453124999996,93.15003085003057L52.222734374999995,92.97949360893291L52.297875,92.61296776543067L52.3354453125,92.28622838771346L52.44815625,92.00112733840547L52.4857265625,93.12861916573273L52.5608671875,95.43186599015385L52.636007812500004,94.75927600115054L52.748718749999995,94.49652137467969L52.748718749999995,94.48230603419235L53.1995625,95.17211689203477L53.274703124999995,93.75178455302812L53.875828125,96.44755970038955L54.026109375,99.44395306773112L54.1388203125,99.87064499551497L54.4018125,99.35679687206942L54.476953125,100.10178723823195L54.589664062500006,100.80154233481022L54.627234375,101.40390780402541L54.739945312500005,100.67181755784476L54.777515625,103.17300539722041L55.0405078125,104.64831350153682L55.078078125,104.39433046647508L55.265929687500005,104.38506622345406L55.3035,104.27359770831494L55.4913515625,104.71647575046339L55.5664921875,106.14980414061014L55.641632812500006,107.9395554290029L55.791914062500005,107.25730102663114L55.829484375,107.49716243062176L55.942195312500004,106.93411037158556L55.942195312500004,106.76844089737985L56.05490625,107.88223154715156L56.393039062499994,109.17242775091651L56.430609375,109.15076623244391L56.6184609375,109.38195859560933L57.182015625,110.97720861364229L57.4074375,114.33573549339397L57.5201484375,116.78154594683141L57.595289062499994,114.7430148515694L57.632859375,113.78500864916683L57.708,114.57251467080638L57.820710937499996,115.63393703681018L57.8958515625,119.1478853534194L58.083703125,119.52504105161427L58.1964140625,116.79528848513857L58.309125,118.57787949358527L58.496976562499995,120.61987182962294L59.285953125000006,123.90282422951132L59.36109375,124.14733799388769L59.36109375,124.50822537810728L59.398664062499996,127.65703403165944L59.736796875,125.24934062380902L59.962218750000005,126.02733671333148L60.2252109375,130.54647274794962L60.713625,131.94866968399623L60.939046875,130.73993118077155L61.1268984375,131.43315629320128L61.2020390625,135.45032050529193L61.23960937499999,135.07399433809627L61.615312499999995,141.43139673578935L61.7280234375,137.90718112117634L61.8783046875,136.35652663842788L61.991015624999996,135.76427308499717L62.291578124999994,140.9365590802624L62.3291484375,140.41622330514025L62.554570312500005,140.16892963029073L62.592140625,137.89291870433863L62.667281249999995,140.1755954842097L62.667281249999995,141.78208125685944L63.568968749999996,142.31270860408586L63.644109375,143.68620404880812L63.6816796875,142.59948991274445L63.719249999999995,141.59003518791363L64.1325234375,143.2447743574396L64.35794531250001,142.6294079837636L64.395515625,142.85328813332268L64.545796875,144.95620132531823L64.6209375,146.76200846370057L65.07178125,150.57154173624116L65.10935156250001,149.98902741521223L65.297203125,151.93910614371075L65.447484375,152.00663956013187L65.522625,150.91568639274226L65.5601953125,149.89888508017663L66.1613203125,150.63670182016972L66.2364609375,152.7950945499621L66.724875,150.25218998642592L67.0254375,155.04211128603515L67.0254375,158.2188804074525L67.32600000000001,157.18435574162066L67.401140625,155.2222311786761L67.70170312500001,159.71888582840597L67.70170312500001,162.77286522978898L68.1149765625,158.58972470854667L68.2276875,157.79834131850436L68.302828125,156.23619839115787L68.37796875000001,155.79135427976624L68.453109375,155.23887501736135L68.52825,154.27942164273188L68.75367187500001,149.45295358625063L68.903953125,151.31603049062562L69.0166640625,154.22678710348464L69.1669453125,158.00850523822407L69.3172265625,150.23969315063033L69.3923671875,145.90822287045563L69.42993750000001,145.74030477514452L69.4675078125,143.8237506664596L69.5426484375,141.21312346136384L69.655359375,137.49869989143963L69.8432109375,135.95844877301613L70.0310625,135.24564507262616L70.10620312500001,133.18867716539097L70.1437734375,131.96171813347024L70.18134375000001,129.14977194819534L70.2940546875,125.85838585344165L70.331625,125.67958064965484L70.3691953125,126.64070135836215L70.7448984375,127.32418446486011L70.8951796875,124.37669153446345L71.007890625,117.43093224087323L71.158171875,115.75487723723184L71.158171875,115.43239679570905L71.3460234375,112.81542620859922L71.45873437499999,103.44309089322647L71.8720078125,91.52476371090138L71.9471484375,86.37200062463332L72.13499999999999,79.05857774244865L72.210140625,75.08053826682708L72.360421875,72.93606074090565L72.6234140625,68.98290130126601L72.660984375,67.00316205200428L72.7736953125,57.34734108427622L72.811265625,59.762922114077625L73.44996093750001,49.04290236257785L73.56267187499999,48.616866039408194L73.9008046875,40.81541308062319L74.08865625,35.59477742292708L74.12622656250001,33.48598920438292L74.163796875,36.2149026746236L74.50192968750001,31.323521235202037L74.764921875,30.336973768309008L74.80249218750001,28.177942172455573L75.140625,24.804494073782365L75.21576562499999,22.91334617847508L75.366046875,25.489598200340254L75.7041796875,29.36324132486004L75.816890625,24.234604907058582L76.26773437499999,22.184709528300885L76.49315625,21.04033239867448L76.56829687499999,19.292490319858274L76.56829687499999,18.656371443010187L76.60586718750001,19.748475907698747L76.6434375,20.33919258853456L76.718578125,20.699079630087425L76.79371875,19.18565622275375L76.944,21.294346527091506L77.2069921875,20.7468081959411L77.8456875,22.44482677933189L77.920828125,22.771578354510666L78.07110937499999,24.570248354200345L78.221390625,25.47948714021274L78.44681250000001,29.017010835018993L78.6346640625,27.564230004606316L78.67223437499999,26.96912152945461L78.70980468750001,27.50981375470107L78.822515625,27.99089643859142L78.8600859375,31.26912959849136L79.01036718750001,32.647203620551494L79.0855078125,29.30916352811829L79.46121093750001,30.13483502446968L79.573921875,30.20550136222721L79.573921875,30.61513913842606L79.6114921875,30.10943785280196L79.6866328125,31.604365741366735L79.76177343750001,32.31435502511869L79.76177343750001,33.09081599082117L79.91205468749999,33.887408370236614L79.949625,36.204775877802916L80.0623359375,37.945219074824394L80.40046875,39.96619780816968L80.5883203125,40.869978406776994L80.70103125,41.57725041103032L80.8137421875,40.773572015878244L80.8888828125,42.555268655257095L81.1143046875,45.54670931169258L81.151875,49.51197669831896L81.60271875000001,49.695442598297774L81.79057031250001,51.295009511120554L82.429265625,58.16546641864157L82.4668359375,61.08494716498586L82.50440625,62.1661215199497L82.76739843749999,65.09073678957887L83.330953125,72.57211002874187L83.481234375,75.73185435236182L83.5939453125,77.80085057017286L83.631515625,79.94572927759668L83.6690859375,82.82023762422085L83.781796875,82.64191353126732L84.232640625,81.87245391796979L84.2702109375,82.82077769350248L84.45806250000001,83.09647244915442L84.4956328125,82.25670230701279L84.5707734375,83.7012525797436L84.833765625,85.7200121669633L84.94647656250001,84.8125314973988L85.134328125,87.81462088339052L85.3973203125,88.25334041831407L85.4724609375,89.22489163753562L85.51003125,91.1131669101083L85.99844531250001,89.16041165625171L86.22386718749999,87.7868812568923L86.41171874999999,88.2678748429912L86.5244296875,89.6205980926744L86.8249921875,87.61558330241128L86.937703125,86.60936962483629L86.9752734375,88.55702201046198L87.238265625,89.80609714200685L87.35097656250001,88.93621288696613L87.4261171875,88.71089544603373L87.8769609375,88.51182980662074L87.989671875,89.89963011223699L88.10238281250001,88.36092228823743L88.3278046875,86.62718591844346L88.4780859375,83.32378755877266L88.741078125,84.65360889994679L88.9665,82.90237383451542L89.041640625,83.80273221443649L89.30463281249999,83.91289120571147L89.30463281249999,84.03681117687422L89.342203125,83.31357613531694L89.94332812500001,79.28190234863196L89.9808984375,82.2815594800286L89.9808984375,84.15396470900545L90.31903125,83.97891945685647L90.61959374999999,80.93924841610016L90.69473437500001,79.89181615027904L91.52128125,76.19081917836805L91.6715625,77.3275437513397L91.8594140625,74.7303538715485L91.97212499999999,72.40041245527259L92.04726562500001,73.55415701406845L92.347828125,70.84622180235972L92.3853984375,71.63678948164205L92.42296875,71.28395053196084L93.28708593750001,70.96349278972095L93.4373671875,71.1436267321109L93.8882109375,71.98137987569433L94.0384921875,70.79723194257363L94.1136328125,67.33178190499113L94.1887734375,68.72369367346903L94.22634375,66.25209351956292L94.4141953125,65.9818987241818L94.4893359375,64.32845913220049L94.63961718750001,65.83905932415685L94.6771875,62.85299841329949L95.12803125,64.94952241224678L95.203171875,65.26928313575432L95.2407421875,67.36225795548505L95.7667265625,67.45814067371165L96.2175703125,69.18963215217144L96.4805625,71.2884972951057L96.63084375,70.55033500725152L96.74355468750001,70.571097010445L96.8186953125,70.31863372419559L96.93140625000001,70.95055467920075L97.23196875000001,71.45465182766593L97.5701015625,69.60451031744314L97.607671875,70.42416683977079L97.7203828125,70.87514794969366L97.79552343750001,70.56059230263648L98.24636718750001,66.92907027738661L98.28393750000001,69.70297985675357L98.43421875,68.38270916085892L98.4717890625,69.65994374760196L98.509359375,67.70876683511592L98.54692968750001,67.34884088070149L98.54692968750001,67.1874594072359L99.03534375000001,68.88703643410547L99.185625,66.06919387722168L99.63646875,67.10304399741847L99.78675000000001,70.20551645604665L100.04974218749999,68.62744858108033L100.08731250000001,68.96553563156303L100.38787500000001,68.46513157070159L100.9514296875,67.36862585499837L100.989,66.85455180257202L101.1768515625,64.63977691593882L101.4774140625,64.65568245819414L101.590125,63.289439161513144L102.0033984375,60.49042201963033L102.04096875,59.239844838011734L102.15367968749999,61.315367318395516L102.34153125,59.414916066648814L102.3791015625,58.345833593103634L102.5293828125,59.358794100512426L102.64209375,59.13799832442497L102.7548046875,59.66320263287216L102.867515625,58.37042625776073L102.94265625000001,55.98518441470482L103.24321875000001,56.78684015815004L103.468640625,55.628782824146015L103.54378125,54.829175650358565L103.65649218749999,54.711277081636794L103.95705468749999,55.93082287918291L103.994625,55.49930160581856L104.1073359375,58.60079813802116L104.1824765625,58.68937005846689L104.48303906250001,56.68906709898903L104.821171875,55.866982717245506L105.19687499999999,56.0291564294277L105.53500781250001,55.8615740865946L105.572578125,54.55297398914445L105.6101484375,54.819894477490536L105.64771875,56.8598344882578L105.722859375,55.43655520539981L106.023421875,55.429281362231265L106.24884374999999,56.36997681856295L106.5118359375,55.912719168928774L107.075390625,58.206377250817596L107.1129609375,59.10143363613584L107.5638046875,60.96636184073043L107.63894531250001,60.80472118897502L107.67651562500001,60.18270841220311L107.7892265625,60.859372852784816L107.826796875,59.17036075240253L107.8643671875,59.967350587654735L108.05221875,60.55954484881144L108.1649296875,59.030347776525986L108.42792187500001,59.17194053242761L108.578203125,58.48225753084914L108.803625,59.29101910421241L108.84119531249999,60.02162206839253L108.9163359375,59.87157586633268L109.14175781249999,60.36782682754725L109.2168984375,59.95677363201192L109.2920390625,60.547928191501484L109.329609375,61.296335686445715L109.5174609375,60.92008119210962L109.5926015625,60.222713458848176L110.15615625,60.511935841031175L110.23129687500001,62.55676994498478L110.381578125,62.27644956143905L111.208125,64.27717169972915L111.35840625,63.93057945233181L111.4711171875,65.62263073209547L111.54625781249999,65.66838829842052L111.7716796875,67.15559729512637L111.88439062500001,66.83788591271305L111.99710156249999,67.03413559218973L112.410375,69.36494219103561L112.5982265625,69.91211391965015L112.7109375,69.12488709477265L112.86121875,70.04535504780816L112.8987890625,70.75620069333146L113.12421093750001,70.60489194496078L113.3120625,71.86478832786774L113.387203125,71.90710225739709L113.5750546875,70.20843561612743L114.439171875,71.37798639029836L114.5518828125,70.21604396668748L114.5518828125,69.59188517292942L114.739734375,69.99311015986433L116.1298359375,71.78745831621839L116.3176875,72.23238736931374L116.3552578125,70.70693933261435L116.392828125,70.89409294104378L116.4303984375,71.43876829603128L116.46796875,72.39515608531192L116.5055390625,72.98903054186873L116.9563828125,72.49055319739882L117.06909375000001,73.42719458932447L117.1066640625,73.84868720409136L117.2569453125,75.02159972812186L117.48236718749999,73.99520584273938L117.6326484375,72.31798788902324L117.7077890625,73.43147137809093L117.7077890625,74.20621104219533L118.0083515625,75.3984664172668L118.3089140625,74.81000706531373L118.421625,76.69711418428346L118.496765625,78.0494960618052L118.647046875,76.47975936862031L118.6846171875,77.16465212172255L118.87246875000001,77.08044870356312L118.947609375,77.64972764795776L119.0603203125,77.34676966479208L119.1354609375,77.9699468209989L119.62387500000001,78.07273128133235L119.8117265625,77.67897335523429L120.07471875,78.95872327131137L120.22500000000001,79.26345370691945L120.33771093749999,79.14013658569081L120.41285156250001,79.42532027650371L120.41285156250001,79.69370078609815L120.7885546875,79.817549285523L120.826125,79.66756415135909L120.93883593749999,81.73954931921774L121.502390625,82.3133314893432L121.6151015625,82.49239646469282L121.9156640625,82.81241571757367L121.953234375,83.06313277213343L122.253796875,83.8880624654274L122.2913671875,84.7936733245282L122.6295,85.04618525448679L122.6670703125,85.27322973426126L122.704640625,85.0629659148842L122.8924921875,85.14414567202402L123.08034375,86.24893263118179L123.56875781250001,86.98287154459648L123.606328125,86.50496565783237L123.83175,85.81529485458L123.86932031250001,87.27514092820536L123.906890625,88.67249295365734L123.9444609375,89.40631700250329L124.1698828125,89.06877788734792L124.508015625,88.53172660933019L124.88371875,88.87989499095065L125.03399999999999,88.01714854244182L125.18428125,88.91661640652954L125.259421875,89.04789963039455L125.37213281250001,88.92912157645111L125.40970312500001,88.22625027675267L125.40970312500001,87.84821014202936L125.5975546875,87.66310711395458L126.08596874999999,88.26647380820607L126.1986796875,88.65544075195012L126.4992421875,89.07492063149223L126.68709375,89.21670474266986L126.762234375,89.20170573519587L126.7998046875,89.69652276164445L126.9500859375,89.76139956693541L127.062796875,89.30162895633197L127.1003671875,89.68271441573616L127.28821875,89.31837312468717L127.363359375,90.30967605357333L127.4760703125,89.22169894722083L127.51364062500001,88.4556792475931L127.62635156249999,88.89745396662664L127.7390625,89.26499645186809L127.7766328125,88.59331211378846L127.814203125,88.57704894294415L128.49046875,89.29444352103647L128.71589062500001,89.36990083319968L129.0540234375,88.53385496102587L129.09159375,88.12804679517303L129.46729687500002,87.84044585360367L129.5048671875,87.39456914760969L129.8805703125,86.80479835029092L130.3314140625,86.73611389936728L130.368984375,87.03129276033937L130.6319765625,86.98085442372184L130.7822578125,86.57570116532656L130.93253906249998,86.82578386147175L131.0076796875,86.42126626398114L131.04525,86.80301383378341L131.04525,87.05581441351447L131.871796875,86.4805985502621L131.9845078125,87.0308737508786L132.05964843750002,87.4364395787881L132.17235937499998,87.1744806154244L132.4353515625,87.11911395243841L132.472921875,87.10826854389133L132.472921875,87.12621148258846L132.623203125,86.27370514329844L132.9613359375,86.612208668695L133.374609375,86.47891936807203L133.4873203125,86.98859554477885L133.8630234375,86.397891369982L133.90059375,85.74588626285137L134.0133046875,85.39372472750655L134.50171875,85.15101500606377L134.576859375,85.18711628801464L134.8398515625,84.65390081113016L134.91499218750002,85.27484994871678L135.253125,86.04443554476855L135.40340625000002,85.71635862593094L135.8166796875,86.10300799484926L135.8918203125,85.78448077828216L135.9669609375,85.21402433571866L136.00453125,85.74175435810872L136.4929453125,86.23697547405051L136.90621875,86.62812042416917L137.1692109375,85.49997557269936L137.46977343749998,85.76629235445237L137.657625,86.35439262415898L137.9581875,86.72155677006205L138.22117968749998,86.99861989577946L138.25875,87.04989922705161L138.634453125,87.5006567469675L139.085296875,88.91420422557624L139.1228671875,89.5861323513572L139.385859375,90.40939880322657L139.7239921875,91.0378775540002L139.7991328125,91.27452251894321L139.8742734375,90.97709868202436L140.588109375,91.82744397249385L140.7008203125,92.37702620293635L140.7759609375,92.73020724216663L140.888671875,92.98843281059534L141.0013828125,93.33340235562898L141.11409375,93.8944835330751L141.1516640625,94.18534479267969L141.189234375,94.85875609735525L141.640078125,95.3362419953637L141.790359375,95.2578830125844L142.1284921875,95.41066456454489L142.20363281250002,95.70110818581942L142.241203125,95.93694876087008L142.466625,96.07563885214971L142.5041953125,96.26376041022765L142.61690625,96.30777410515842L142.842328125,96.69402428228872L142.9550390625,96.82086029008559L143.142890625,97.70344297841177L143.3307421875,97.54246498059555L143.8567265625,97.53761418624184L143.894296875,97.36066939088778L143.9694375,96.86625891998588L144.2324296875,96.41869533578662L145.02140624999998,95.84771299970213L145.05897656250002,95.46915541887851L145.397109375,96.16508196812877L145.7352421875,96.88444140947401L146.073375,97.31881197149147L146.11094531249998,97.244999774341L146.22365625,96.79307529048111L146.298796875,96.39292658961075L146.63692968750001,96.20304358062897L146.6745,96.56526063665403L146.9750625,97.8005597785939L147.050203125,96.9250258573225L147.1629140625,97.07079714596256L147.6888984375,96.24919471677137L147.72646875,95.78844313303559L147.8391796875,95.75893235004236L148.1773125,95.24295221958994L148.2148828125,95.83637403440142L148.36516406249999,95.27606106643874L148.5154453125,95.2951231223709L148.703296875,95.80090988974636L148.74086718750002,95.37494659818398L148.92871875,95.36880459169525L149.00385937500002,94.83925624184795L149.00385937500002,94.52968545866469L149.3795625,93.87708495483605L149.454703125,93.75133454664369L149.49227343750002,93.5808111407852L149.5674140625,94.00493119661319L149.75526562500002,92.89164293137773L150.0933984375,92.69326782868853L150.4691015625,93.14812441207897L150.54424218749998,92.75902921356517L150.73209375,92.1561445240874L150.8448046875,92.67537311979328L150.8448046875,93.00564433198092L150.9199453125,92.59888853880979L150.9950859375,92.38699971265525L151.408359375,91.12341667199622L151.7464921875,90.73271586662229L151.8216328125,91.26832495604373L151.8967734375,90.54405805594044L152.19733593750001,90.52874729352651L152.23490625,91.46702500928252L152.4227578125,91.7821893884005L152.53546874999998,90.93800182252696L152.5730390625,90.55358286018911L152.68575,89.39669528121199L152.72332031250002,89.39613825588094L152.760890625,89.67843821641672L152.9863125,88.80906460250206L153.0238828125,89.1628749744482L153.06145312499999,89.15026209238493L153.512296875,87.77927462920543L153.66257812499998,88.1000078332821L153.73771875,87.97040931664638L154.03828124999998,87.13442316389387L154.22613281250003,87.94393453987225L154.22613281250003,88.44247368420234L154.263703125,87.92601569311857L154.3764140625,87.28202387449038L154.63940624999998,87.21579325161842L154.71454687500002,87.07214512976488L154.864828125,86.00380619398244L154.9775390625,86.90911420006445L155.2029609375,86.44464918283624L155.691375,85.9082063872099L156.14221874999998,85.4683314279306L156.217359375,85.85759879923724L156.217359375,86.09800218318354L156.367640625,85.76235035275091L156.668203125,85.7631681444294L156.89362500000001,84.47962327641527L157.0814765625,84.42305995711388L157.23175781249998,84.26509506102954L157.34446874999998,84.40232105445133L157.7953125,84.35308204369173L159.8616796875,84.32209617908654L160.01196093750002,84.18059516624787L160.50037500000002,84.46285339003512L160.9136484375,84.53469023919858L161.0639296875,84.32688188841001L161.3644921875,84.23401669445003L161.4020625,84.2252146835402L161.55234375,83.92771463322956L161.92804687499998,84.63377968672572L162.30375,84.89671889400013L162.3413203125,85.1851968264247L162.378890625,85.2304691687954L162.679453125,85.16867502127484L163.43085937499998,84.91280467169122L164.332546875,85.33694314001978L164.55796875,85.76804584685354L164.5955390625,85.40274209615953L164.70825000000002,84.57963248526805L165.083953125,84.29667746593343L165.4220859375,84.07564584190851L165.53479687499998,83.47044893584439L165.9105,84.3797720243276L166.0983515625,85.09487779307807L167.4508828125,84.9758420177241L167.78901562500002,85.35201786014082L167.86415625,85.05936646658431L168.0144375,84.88981869156775L168.23985937499998,85.7281902200782L168.3525703125,85.26314753361035L168.6155625,85.15009599914644L168.91612500000002,85.23376369735561L169.0288359375,85.15772331860241L169.32939843749998,85.09050084796826L169.4796796875,84.79039111092722L169.6299609375,84.263294899593L170.49407812500002,84.52164428662405L170.644359375,85.25565153233231L170.90735156250003,84.6478608309217L171.0576328125,85.62178945710852L171.47090625,85.05690225580358L171.92174999999997,86.0421531113957L172.522875,86.04537332300856L173.4621328125,85.5963832339152L174.02568749999998,85.33303883674768L174.55167187499998,84.94710308315173L174.852234375,85.32421751470456L175.152796875,84.85543239107383L175.37821875,84.55073715326911L175.41578906249998,84.34136879366274L176.054484375,84.06324763516236L176.3926171875,84.43286290675523L176.9186015625,84.4633089808564L177.03131249999998,84.09366184801834L177.857859375,83.9076514296921L178.4965546875,84.5732898685914L178.9473984375,84.39549652784889L179.060109375,84.34333715038063L179.28553125000002,84.74665011301242L179.961796875,85.19899652774892L180.0369375,84.86151556306869L180.71320312499998,85.04796401308914L180.863484375,84.94474665038949L180.9761953125,84.48385831244687L181.6524609375,84.92595306047205L181.8027421875,84.11584087093715L182.065734375,84.22680707949426L182.5541484375,84.36054825905445L182.7795703125,84.7396653960886L183.30555468749998,84.83900469300933L183.7563984375,84.87287862413133L184.31995312499998,84.4947896351861L184.620515625,84.67868538600884L184.6580859375,84.99006909198172L185.48463281250002,84.773396380146L185.6349140625,84.16598809827347L186.1608984375,83.61839051519553L186.6117421875,83.97865331116483L186.6493125,84.01185246125758L186.91230468749998,84.77933460231829L187.4382890625,84.84523668077645L187.6637109375,85.23317349739108L187.926703125,85.15783368710683L188.00184374999998,85.58243116552703L188.3399765625,84.7868690742954L188.4151171875,84.70023070125208L188.4526875,84.37396958355163L189.16652343750002,85.62233210335604L189.27923437500002,85.26781354303087L189.61736718749998,84.507544916434L190.10578124999998,84.20487786972298L190.63176562499999,84.67903079931536L191.00746875,84.54318214967937L191.60859374999998,85.03018048257351L192.0218671875,85.3163712813831L192.69813281249998,84.80541959387986L193.0738359375,84.06418534656125L193.11140625,84.15355379240897L193.33682812499998,84.24890721868455L193.5998203125,84.0728980053821L193.7501015625,84.40573757179398L193.787671875,84.53537703973744L193.82524218749998,84.61990098542917L194.6517890625,84.44280306629507L194.689359375,84.34391960050631L194.839640625,83.82593870653953L194.91478124999998,84.71835246893978L195.2529140625,84.50520357567002L195.40319531249997,84.32969239309521L196.49273437500003,84.38018623836889L196.5303046875,85.0428454575489L196.8684375,85.48388620799084L196.98114843750002,85.23114774576008L197.244140625,85.2509357788898L197.61984375,84.03813430702446L197.6574140625,83.77519629221612L197.694984375,84.00214206527875L197.7325546875,84.14054529213962L197.92040624999998,85.07109498735701L198.145828125,84.97703424199284L198.296109375,84.90538367707514L198.37125,84.52543756404575L198.972375,84.0866835151126L199.197796875,84.71225570783741L199.2353671875,84.78573521296948L199.5359296875,84.97625173264869L200.249765625,85.40293627345373L200.8884609375,84.42035312637641L201.8652890625,84.7903949889306L202.72940624999998,83.70555867605657L203.21782031249998,83.69441110288385L203.33053125,83.12138673195079L204.4952109375,83.23367624564933L204.53278125,83.57841081917664L205.13390625,84.24696159503752L205.1714765625,83.95772932902116L205.5471796875,83.98583355896422L205.659890625,84.2627898619736L205.73503125,84.26477685774687L206.1483046875,84.80236657384229L206.37372656250002,85.02568851605638L206.48643750000002,84.45283855928994L206.63671875,84.73711513009742L207.31298437499998,84.23253151658092L207.3505546875,83.77793130117735L207.5008359375,84.31383054640077L207.613546875,84.41279625722146L207.6886875,84.2840399468643L208.214671875,84.06839685769428L208.364953125,84.0864432289759L208.7782265625,83.6137752853237L208.89093749999998,83.57874652015911L209.64234375,84.56947185672634L209.94290625,84.60669706418834L210.318609375,84.39985281735163L210.3561796875,84.5270882421636L210.769453125,84.54096568882552L211.6335703125,84.68824676016357L211.821421875,85.31112481831146L212.4601171875,85.48569726967658L214.11321093749999,84.79260875274048L214.15078125,84.83954539805902L214.3010625,84.49342576890672L214.45134375,83.9916140685084L215.127609375,84.2639875444864L215.35303125000002,84.58487134152223L215.3906015625,84.60536658003072L216.96855468750002,84.98148916668845L217.2691171875,84.92085314827783L217.5696796875,84.83836563781806L217.60725,84.89302313233624L218.2459453125,85.4298083609322L218.734359375,85.56337820032446L218.88464062499997,84.70928207543352L219.29791406249998,84.59766100243509L219.7487578125,84.67316384120917L219.86146875,84.8735453413011L219.93660937500002,84.90237930158598L220.086890625,84.95987065080695L220.38745312499998,84.47541782243057L222.64167187500001,84.86323283801278L222.86709375,84.5250249883918L222.9046640625,85.2739059587816L222.97980468749998,84.89866384504235L223.543359375,84.73794680386251L223.8063515625,84.66001132342232L224.67046875000003,84.25285408060888L224.82075,83.7608206097949L225.2340234375,84.482617375566L225.346734375,84.3760106946575L225.9854296875,84.64419834908465L226.21085156249998,84.18003192518789L226.69926562499998,84.83166978724913L227.450671875,84.79853777485624L227.78880468749998,84.76433573999525L228.3899296875,84.37696848713472L228.46507031250002,84.57197175663579L228.80320312499998,85.42750475352129L229.1413359375,85.46065652016539L229.44189843750002,84.86288247815017L230.1933046875,84.89187938723377L230.26844531249998,84.64021716136448L230.38115624999998,84.36199143682482L230.45629687500002,84.21734579628776L230.68171875,84.75300878172757L231.1325625,84.92145324777947L231.1701328125,84.77395640588962L231.43312500000002,84.33146814173757L231.54583593750002,84.27261602820403L231.7336875,84.46235743858615L231.9966796875,83.75582894420215L232.0718203125,84.40991801221851L233.98790624999998,83.80164656186909L234.4011796875,84.50386812259973L234.513890625,84.44785481864014L234.7017421875,84.7969693295255L235.3028671875,84.94577188305625L235.4531484375,84.26199477463173L235.49071874999998,85.1899292511694L235.56585937499997,85.27904142480143L235.9415625,85.15612370280385L236.09184374999998,84.40000745418779L236.24212500000002,84.11650536912548L236.58025781249998,84.53653061182685L236.617828125,85.32279230811362L236.8056796875,85.48654070019622L236.9559609375,85.25617025771345L236.99353125,84.98720343481001L237.5570859375,84.5273334316972L238.72176562500002,84.62608687210792L239.17260937499998,85.21723949042189L239.4356015625,84.51931630573011L239.623453125,84.67935932676795L240.1494375,84.91119007741888L240.4875703125,85.25157692028704L241.051125,84.26142918190531L241.4643984375,84.52961771270668L241.727390625,84.65157692381365L241.76496093749998,84.76418780534638L241.87767187499998,84.66768908781644L242.10309375,84.20172683210541L243.53076562500002,84.40565560894034L243.6434765625,84.24368185598412L243.7186171875,84.58302538813078L243.831328125,83.61409958103519L243.86889843749998,83.63117673750916L244.0191796875,84.21295114246064L245.2214296875,84.5475440955715L245.7474140625,84.3672327621381L246.7618125,84.35261636616393L246.98723437499999,84.09823104856707L247.13751562500002,84.00698017382929L247.81378125,84.02306744025071L248.0016328125,84.63329304496001L248.56518749999998,84.76804248063496L248.6778984375,84.42055556070048L248.790609375,84.17969807735494L249.57958593749998,84.26219503168444L249.992859375,83.94901908918064L250.4812734375,84.39292526781861L250.51884375,84.18489150379284L250.894546875,84.07020613911591L251.0072578125,83.84750508079301L251.15753906249998,84.72536135028425L251.796234375,84.86407648178977L251.871375,85.19519731692299L251.9840859375,84.82885208303823L252.77306249999998,84.96576173391662L252.84820312500003,84.6294203601483L253.0360546875,85.1543562893724L253.44932812500002,84.8923930014961L253.74989062499998,84.72052475609473L253.900171875,84.65009513012755L254.53886718750002,85.72644621935798L254.76428906249998,85.42317594059031L255.1399921875,84.96611976256604L255.2151328125,84.6614983335473L255.44055468750003,84.59972990791363L255.62840625,84.95243687292819L255.8162578125,84.01261294558508L255.92896875000002,84.22255357558447L256.4925234375,84.4472118634941L256.53009375,84.04873260223638L257.5444921875,84.38896205368899L257.8450546875,83.54241264319377L258.2207578125,83.84761295524149L258.63403125,83.92642579973551L259.42300781250003,84.2428869378284L259.64842968749997,84.6269367656472L260.061703125,84.95913203767448L260.0992734375,84.79212889830507L261.3015234375,84.5343429371497L261.33909375,84.6308955624569L261.564515625,83.73064863780353L263.518171875,82.93173800037498L263.5933125,83.83564208937072L263.85630468749997,84.15726677605275L263.969015625,84.08303445983852L264.2320078125,84.11669589889071L265.24640625,84.17429774664056L266.0353828125,84.35729071958855L266.4110859375,83.87695624094933L267.0122109375,84.46496361342112L267.0873515625,84.55486378677908L267.1624921875,84.37301898447937L267.35034375,84.9190019749333L268.55259374999997,85.02799482110184L268.74044531249996,84.07945174114069L269.15371875,84.22925890616271L269.1912890625,84.34751751584162L269.228859375,84.72518300078721L269.3415703125,84.34829303907799L269.9426953125,84.33892820557755L270.95709375,84.23298073528686L271.0698046875,84.4429837215055L271.8212109375,85.47854064261239L272.0466328125,85.10235892597032L272.084203125,84.54982336264104L273.06103125,85.24614154877679L273.3240234375,84.56312396260881L273.3991640625,85.1010649451415L273.587015625,84.76312434566819L274.8268359375,85.0525444193252L274.93954687499996,85.0183581239125L275.6533828125,84.79829154203512L275.690953125,84.61668982380736L276.02908593750004,84.78373293725448L276.292078125,85.28125003167668L276.4047890625,84.94830468343237L276.66778125,84.79093877204184L276.7804921875,84.28872471769739L277.494328125,83.99506552698269L277.6070390625,84.36673936033479L277.9827421875,84.26243567950732" style="fill: none;" fill="none"></path></g></g></g></g><g opacity="0.20000000298023224"><g><g><g><path stroke="rgb(255, 112, 67)" stroke-width="2px" d="M37.9084453125,104.53763668984175L38.02115625,99.76249722805288L38.32171875,98.6288438356585L38.3592890625,93.23220370875465L38.396859375,95.37555660700632L38.62228125,90.53040940335227L38.8852734375,88.2046293599738L38.9604140625,87.10152103172409L39.336117187499994,81.97874067640967L39.4863984375,81.32833667368524L39.561539062499996,80.5736535932455L39.9372421875,78.32424327648349L40.4632265625,78.83755486955245L40.5383671875,73.63481277475755L40.6886484375,78.46309047275119L40.9892109375,77.44712319887347L41.026781250000006,74.66421535445583L41.853328125000004,73.40395822996895L41.9660390625,69.65470235298078L42.229031250000006,75.57058030532467L42.3417421875,70.02059302727382L42.45445312499999,77.29003564351135L42.5671640625,71.45664443903499L42.679874999999996,72.38035469005506L43.055578125,71.9224331130584L43.356140624999995,75.06525358019603L43.3937109375,72.09079841110443L43.5439921875,75.64505863106913L43.919695312500004,75.4846263817615L44.0699765625,85.75848979834055L44.3705390625,72.65661698828141L44.445679687500004,72.59952164938052L45.460078124999995,78.45799805844824L45.497648437500004,73.88347899251514L45.7982109375,74.81617280882264L45.873351562500005,76.60585729819203L45.910921875,76.04514997866417L46.211484375,82.9636847362336L46.249054687500006,77.61306241609984L46.286625,80.86023497891922L46.4744765625,76.0935349807971L46.812609375,79.70538753291798L47.2258828125,76.39567390415405L47.526445312499995,83.14439949227703L47.63915625,81.25630562752485L48.1275703125,84.6234843958583L48.315421875,77.50542451192935L48.428132812499996,82.26175360340213L48.578414062499995,79.18448442676001L48.578414062499995,79.46958896517754L49.217109375,79.69056488573551L49.2546796875,86.94122068583965L49.480101562499996,85.43421936490469L49.5928125,83.68069054600264L49.630382812499995,92.56483833905723L49.667953125000004,83.90756443391244L49.7055234375,85.75852277419634L49.74309375,81.2278333314591L49.968515625,90.74251717411809L50.156367187499995,83.66708565006654L50.9829140625,88.79480767291452L51.0580546875,87.97018515773945L51.1331953125,89.40157755215964L51.2834765625,86.91584340938263L51.4337578125,92.34780538868573L51.696749999999994,88.8550757602271L51.771890625,90.202829607245L51.922171875,91.68830476059682L51.9973125,93.35724815395143L52.0348828125,93.40804039355781L52.072453124999996,94.37523166586956L52.222734374999995,92.72368774728643L52.297875,92.06317900017731L52.3354453125,91.79611932113767L52.44815625,91.57347576444349L52.4857265625,94.81985690672364L52.5608671875,98.88673622678552L52.636007812500004,93.7503910176456L52.748718749999995,94.10238943497339L52.748718749999995,94.46098302346137L53.1995625,96.20683317879835L53.274703124999995,91.62128604451814L53.875828125,100.49122242143171L54.026109375,103.93854311874342L54.1388203125,100.51068288719075L54.4018125,98.5860246869011L54.476953125,101.21927278747576L54.589664062500006,101.85117497967762L54.627234375,102.30745600784817L54.739945312500005,99.57368218857381L54.777515625,106.92478715628386L55.0405078125,106.86127565801144L55.078078125,104.01335591388246L55.265929687500005,104.37116985892257L55.3035,104.10639493560625L55.4913515625,105.38079281368604L55.5664921875,108.29979672583026L55.641632812500006,110.62418236159202L55.791914062500005,106.23391942307353L55.829484375,107.85695453660769L55.942195312500004,106.08953228303128L55.942195312500004,106.51993668607125L56.05490625,109.55291752180912L56.393039062499994,111.10772205656394L56.430609375,109.11827395473503L56.6184609375,109.72874714035747L57.182015625,113.37008364069172L57.4074375,119.37352581302143L57.5201484375,120.45026162698761L57.595289062499994,111.6852182086764L57.632859375,112.34799934556294L57.708,115.75377370326574L57.820710937499996,117.22607058581585L57.8958515625,124.41880782833323L58.083703125,120.09077459890655L58.1964140625,112.70065963542503L58.309125,121.25176600625532L58.496976562499995,123.68286033367944L59.285953125000006,128.8272528293439L59.36109375,124.51410864045224L59.36109375,125.04955645443665L59.398664062499996,132.3802470119877L59.736796875,121.63780051203341L59.962218750000005,127.19433084761518L60.2252109375,137.32517679987683L60.713625,134.05196508806614L60.939046875,128.92682342593454L61.1268984375,132.47299396184584L61.2020390625,141.47606682342786L61.23960937499999,134.50950508730278L61.615312499999995,150.967500332329L61.7280234375,132.62085769925682L61.8783046875,134.0305449143052L61.991015624999996,134.87589275485112L62.291578124999994,148.69498807316026L62.3291484375,139.63571964245705L62.554570312500005,139.79798911801643L62.592140625,134.4789023154105L62.667281249999995,143.59961065401632L62.667281249999995,144.191809915834L63.568968749999996,143.10864962492553L63.644109375,145.74644721589155L63.6816796875,140.96941870864896L63.719249999999995,140.07585310066742L64.1325234375,145.72688311172857L64.35794531250001,141.70635842324958L64.395515625,143.1891083576613L64.545796875,148.11057111331158L64.6209375,149.47071917127403L65.07178125,156.28584164505205L65.10935156250001,149.1152559336689L65.297203125,154.86422423645854L65.447484375,152.10793968476355L65.522625,149.2792566416578L65.5601953125,148.3736831113282L66.1613203125,151.74342693015933L66.2364609375,156.03268364465072L66.724875,146.4378331411216L67.0254375,162.226993235449L67.0254375,162.98403408957853L67.32600000000001,155.63256874287293L67.401140625,152.2790443342593L67.70170312500001,166.46386780300074L67.70170312500001,167.35383433186345L68.1149765625,152.3150139266832L68.2276875,156.61126623344092L68.302828125,153.8929840001381L68.37796875000001,155.1240881126788L68.453109375,154.41015612375406L68.52825,152.84024158078762L68.75367187500001,142.21325150152876L68.903953125,154.1106458471881L69.0166640625,158.59292202277317L69.1669453125,163.68108244033323L69.3172265625,138.5864750192397L69.3923671875,139.41101745019358L69.42993750000001,145.4884276321779L69.4675078125,140.9489195034322L69.5426484375,137.2971826537202L69.655359375,131.9270645365533L69.8432109375,133.64807209538088L70.0310625,134.17643952204122L70.10620312500001,130.10322530453817L70.1437734375,130.12127958558915L70.18134375000001,124.93185267028295L70.2940546875,120.92130671131113L70.331625,125.41137284397459L70.3691953125,128.08238242142318L70.7448984375,128.349409124607L70.8951796875,119.95545213886848L71.007890625,107.01229330048793L71.158171875,113.24079473176971L71.158171875,114.94867613342487L71.3460234375,108.88997032793445L71.45873437499999,89.38458792016738L71.8720078125,73.6472729374137L71.9471484375,78.6428559952312L72.13499999999999,68.0884434191717L72.210140625,69.11347905339467L72.360421875,69.7193444520235L72.6234140625,63.05316214180655L72.660984375,64.03355317811172L72.7736953125,42.86360963268413L72.811265625,63.386293658779735L73.44996093750001,32.96287273532815L73.56267187499999,47.97781155465378L73.9008046875,29.113233642445664L74.08865625,27.76382393638295L74.12622656250001,30.32280687656666L74.163796875,40.30827287998463L74.50192968750001,23.986449076069732L74.764921875,28.857152567969422L74.80249218750001,24.939394778675506L75.140625,19.744321925772567L75.21576562499999,20.07662433551417L75.366046875,29.353976233137985L75.7041796875,35.173706011639695L75.816890625,16.541650280356407L76.26773437499999,19.10986646016437L76.49315625,19.323766704234828L76.56829687499999,16.67072720163398L76.56829687499999,17.7021931277381L76.60586718750001,21.38663260473146L76.6434375,21.225267609788318L76.718578125,21.238910192416768L76.79371875,16.915521111753236L76.944,24.457381983598054L77.2069921875,19.925500699215462L77.8456875,24.99185465441809L77.920828125,23.261705717278858L78.07110937499999,27.268253353734792L78.221390625,26.843345319231332L78.44681250000001,34.32329637722836L78.6346640625,25.385058758987327L78.67223437499999,26.076458816726984L78.70980468750001,28.320852092570732L78.822515625,28.712520464426944L78.8600859375,36.186479338341286L79.01036718750001,34.71431465364165L79.0855078125,24.302103389468442L79.46121093750001,31.373342268996765L79.573921875,30.311500868863533L79.573921875,31.22959580272436L79.6114921875,29.35088592436577L79.6866328125,33.84675757421388L79.76177343750001,33.379338950746586L79.76177343750001,34.255507439374924L79.91205468749999,35.082296939359765L79.949625,39.68082713915243L80.0623359375,40.55588387035661L80.40046875,42.99766590818763L80.5883203125,42.22564930468798L80.70103125,42.638158417410324L80.8137421875,39.56805442315007L80.8888828125,45.227813614325385L81.1143046875,50.033870296345825L81.151875,55.45987777825857L81.60271875000001,49.97064144826598L81.79057031250001,53.694359880354654L82.429265625,68.47115177992319L82.4668359375,65.46416828450228L82.50440625,63.78788305239546L82.76739843749999,69.4776596940226L83.330953125,83.79416988748645L83.481234375,80.47147083779176L83.5939453125,80.9043448968894L83.631515625,83.16304733873241L83.6690859375,87.13200014415716L83.781796875,82.37442739183705L84.232640625,80.71826449802352L84.2702109375,84.24326335680152L84.45806250000001,83.51001458263231L84.4956328125,80.99704709380038L84.5707734375,85.86807798883981L84.833765625,88.7481515477929L84.94647656250001,83.451310493052L85.134328125,92.31775496237807L85.3973203125,88.91141972069939L85.4724609375,90.68221846636798L85.51003125,93.94557981896732L85.99844531250001,86.2312787754668L86.22386718749999,85.72658565785324L86.41171874999999,88.98936522213948L86.5244296875,91.64968296719921L86.8249921875,84.6080611170166L86.937703125,85.10004910847378L86.9752734375,91.47850058890052L87.238265625,91.67970983932415L87.35097656250001,87.63138650440507L87.4261171875,88.37291928463512L87.8769609375,88.21323134750128L87.989671875,91.98133057066136L88.10238281250001,86.0528605522381L88.3278046875,84.02658136375248L88.4780859375,78.36869001926648L88.741078125,86.64834091170795L88.9665,80.27552123636835L89.041640625,85.15326978431808L89.30463281249999,84.07812969262402L89.30463281249999,84.22269113361835L89.342203125,82.22872357298101L89.94332812500001,73.23439166860449L89.9808984375,86.78104517712362L89.9808984375,86.96257255247069L90.31903125,83.716351578633L90.61959374999999,76.37974185496569L90.69473437500001,78.32066775154735L91.52128125,70.63932372050154L91.6715625,79.03263061079716L91.8594140625,70.83456905186176L91.97212499999999,68.90550033085876L92.04726562500001,75.28477385226225L92.347828125,66.7843189847966L92.3853984375,72.82264100056554L92.42296875,70.75469210743904L93.28708593750001,70.4828061763611L93.4373671875,71.41382764569587L93.8882109375,73.23800959106947L94.0384921875,69.02101004289257L94.1136328125,62.13360684861739L94.1887734375,70.81156132618587L94.22634375,62.544693288703755L94.4141953125,65.57660653111006L94.4893359375,61.84829974422853L94.63961718750001,68.10495961209138L94.6771875,58.37390704701345L95.12803125,68.09430841066771L95.203171875,65.74892422101564L95.2407421875,70.50172018508117L95.7667265625,67.60196475105154L96.2175703125,71.78686936986114L96.4805625,74.43679500950707L96.63084375,69.44309157547022L96.74355468750001,70.6022400152352L96.8186953125,69.9399387948215L96.93140625000001,71.89843611170848L97.23196875000001,72.21079755036367L97.5701015625,66.82929805210895L97.607671875,71.65365162326229L97.7203828125,71.55161961457796L97.79552343750001,70.08875883205069L98.24636718750001,61.4817872395118L98.28393750000001,73.86384422580402L98.43421875,66.40230311701696L98.4717890625,71.57579562771653L98.509359375,64.78200146638684L98.54692968750001,66.80895194907983L98.54692968750001,66.94538719703753L99.03534375000001,71.43640197440982L99.185625,61.84243004189598L99.63646875,68.65381917771364L99.78675000000001,74.85922514398892L100.04974218749999,66.26034676863087L100.08731250000001,69.47266620728706L100.38787500000001,67.71452547940945L100.9514296875,65.72386728144355L100.989,66.08344072393245L101.1768515625,61.31761458598905L101.4774140625,64.67954077157711L101.590125,61.24007421649165L102.0033984375,56.29189630680614L102.04096875,57.36397906558382L102.15367968749999,64.4286510389712L102.34153125,56.56423918902874L102.3791015625,56.74220988278587L102.5293828125,60.87823486162556L102.64209375,58.80680466029381L102.7548046875,60.45100909554296L102.867515625,56.43126169509358L102.94265625000001,52.40732165012096L103.24321875000001,57.989323773317864L103.468640625,53.89169682313998L103.54378125,53.62976488967736L103.65649218749999,54.534429228554174L103.95705468749999,57.76014157550203L103.994625,54.85201969577206L104.1073359375,63.25304293632507L104.1824765625,58.8222279391355L104.48303906250001,53.68861265977223L104.821171875,54.63385614463024L105.19687499999999,56.27241699770093L105.53500781250001,55.61020057234501L105.572578125,52.59007384296919L105.6101484375,55.22027521000969L105.64771875,59.91974450440871L105.722859375,53.301636281112835L106.023421875,55.4183705974784L106.24884374999999,57.781020003060505L106.5118359375,55.22683269447751L107.075390625,61.6468643736508L107.1129609375,60.444018214113186L107.5638046875,63.763754147622336L107.63894531250001,60.56226021134191L107.67651562500001,59.24968924704527L107.7892265625,61.87436951365734L107.826796875,56.6368426018291L107.8643671875,61.16283534053301L108.05221875,61.44783624054658L108.1649296875,56.736552168097745L108.42792187500001,59.38432966628008L108.578203125,57.44773302848141L108.803625,60.504161464257365L108.84119531249999,61.11752651466263L108.9163359375,59.64650656324292L109.14175781249999,61.112203269369076L109.2168984375,59.34019383870893L109.2920390625,61.434660030735856L109.329609375,62.418946928862084L109.5174609375,60.35569945060544L109.5926015625,59.176661858956024L110.15615625,60.94576941430569L110.23129687500001,65.62402110091514L110.381578125,61.85596898612047L111.208125,67.27825490716432L111.35840625,63.41069108123581L111.4711171875,68.16070765174098L111.54625781249999,65.73702464790809L111.7716796875,69.38641079018514L111.88439062500001,66.36131883909304L111.99710156249999,67.32851011140478L112.410375,72.8611520893044L112.5982265625,70.73287151257198L112.7109375,67.94404685745637L112.86121875,71.42605697736144L112.8987890625,71.82246916161644L113.12421093750001,70.37792882240481L113.3120625,73.75463290222817L113.387203125,71.97057315169108L113.5750546875,67.66043565422297L114.439171875,73.13231255155469L114.5518828125,68.47313033127122L114.5518828125,68.65564698229234L114.739734375,70.59494764026667L116.1298359375,74.47898055074943L116.3176875,72.8997809489568L116.3552578125,68.41876727756525L116.392828125,71.17482335368793L116.4303984375,72.25578132851255L116.46796875,73.82973776923286L116.5055390625,73.87984222670396L116.9563828125,71.74283718069394L117.06909375000001,74.83215667721296L117.1066640625,74.48092612624168L117.2569453125,76.7809685141676L117.48236718749999,72.45561501466565L117.6326484375,69.80216095844905L117.7077890625,75.1016966116925L117.7077890625,75.36832053835194L118.0083515625,77.18684947987397L118.3089140625,73.92731803738408L118.421625,79.52777486273813L118.496765625,80.07806887808775L118.647046875,74.12515432884295L118.6846171875,78.19199125137592L118.87246875000001,76.95414357632399L118.947609375,78.50364606454968L119.0603203125,76.89233269004357L119.1354609375,78.90471255530913L119.62387500000001,78.2269079718325L119.8117265625,77.08833646608723L120.07471875,80.87834814542698L120.22500000000001,79.72054936033155L120.33771093749999,78.95516090384788L120.41285156250001,79.85309581272304L120.41285156250001,80.09627155048979L120.7885546875,80.00332203466033L120.826125,79.44258645011318L120.93883593749999,84.84752707100577L121.502390625,83.17400474453139L121.6151015625,82.76099392771721L121.9156640625,83.29244459689491L121.953234375,83.4392083539731L122.253796875,85.12545700536835L122.2913671875,86.15208961317937L122.6295,85.42495314942467L122.6670703125,85.61379645392299L122.704640625,84.7475701858186L122.8924921875,85.26591530773376L123.08034375,87.9061130699184L123.56875781250001,88.08377991471852L123.606328125,85.78810682768624L123.83175,84.7807886497014L123.86932031250001,89.46491003864341L123.906890625,90.76852099183533L123.9444609375,90.50705307577219L124.1698828125,88.56246921461488L124.508015625,87.72614969230361L124.88371875,89.40214756338132L125.03399999999999,86.72302886967857L125.18428125,90.26581820266115L125.259421875,89.24482446619206L125.37213281250001,88.75095449553596L125.40970312500001,87.17194332720506L125.40970312500001,87.28114993994434L125.5975546875,87.38545257184242L126.08596874999999,89.17152384958334L126.1986796875,89.23889116756618L126.4992421875,89.70414045080543L126.68709375,89.42938090943628L126.762234375,89.17920722398493L126.7998046875,90.4387483013173L126.9500859375,89.85871477487186L127.062796875,88.61197304042678L127.1003671875,90.25434260484245L127.28821875,88.77186118811369L127.363359375,91.79663044690258L127.4760703125,87.58973328769207L127.51364062500001,87.30664969815147L127.62635156249999,89.56011604517698L127.7390625,89.81631017973027L127.7766328125,87.58578560666906L127.814203125,88.55265418667759L128.49046875,90.37053538817499L128.71589062500001,89.4830868014445L129.0540234375,87.27978615276515L129.09159375,87.51933454639382L129.46729687500002,87.40904444124962L129.5048671875,86.72575408861869L129.8805703125,85.9201421543128L130.3314140625,86.6330872229818L130.368984375,87.47406105179752L130.6319765625,86.90519691879551L130.7822578125,85.96797127773364L130.93253906249998,87.20090790568955L131.0076796875,85.81448986774517L131.04525,87.37563518848683L131.04525,87.43501528311108L131.871796875,85.61777475538354L131.9845078125,87.85628655180335L132.05964843750002,88.04478832065232L132.17235937499998,86.78154217037891L132.4353515625,87.03606395795941L132.472921875,87.09200043107073L132.472921875,87.15312589063413L132.623203125,84.99494563436342L132.9613359375,87.11996395678985L133.374609375,86.27898541713755L133.4873203125,87.75310980983906L133.8630234375,85.51183510778678L133.90059375,84.76787860215538L134.0133046875,84.86548242448933L134.50171875,84.78695042389964L134.576859375,85.24126821094089L134.8398515625,83.85407759580349L134.91499218750002,86.2062736550967L135.253125,87.19881393884619L135.40340625000002,85.22424324767458L135.8166796875,86.68298204822672L135.8918203125,85.30668995343149L135.9669609375,84.35833967187338L136.00453125,86.53334939169387L136.4929453125,86.97980714796317L136.90621875,87.21483784934712L137.1692109375,83.80775829549466L137.46977343749998,86.1657675270819L137.657625,87.2365430287189L137.9581875,87.27230298891664L138.22117968749998,87.41421458435555L138.25875,87.12681822395987L138.634453125,88.17679302684135L139.085296875,91.03452544348934L139.1228671875,90.59402454002864L139.385859375,91.64429848103059L139.7239921875,91.98059568016065L139.7991328125,91.62948996635774L139.8742734375,90.53096292664608L140.588109375,93.10296190819807L140.7008203125,93.20139954860011L140.7759609375,93.25997880101204L140.888671875,93.37577116323841L141.0013828125,93.8508566731794L141.11409375,94.73610529924431L141.1516640625,94.62163668208652L141.189234375,95.86887305436862L141.640078125,96.05247084237635L141.790359375,95.14034453841546L142.1284921875,95.63983689248562L142.20363281250002,96.13677361773121L142.241203125,96.29070962344608L142.466625,96.28367398906913L142.5041953125,96.54594274734458L142.61690625,96.37379464755455L142.842328125,97.27339954798421L142.9550390625,97.01111430178085L143.142890625,99.02731701090104L143.3307421875,97.30099798387123L143.8567265625,97.53033799471127L143.894296875,97.0952521978567L143.9694375,96.12464321363304L144.2324296875,95.7473499594877L145.02140624999998,94.99123949557543L145.05897656250002,94.90131904764307L145.397109375,97.20897179200418L145.7352421875,97.96348057149184L146.073375,97.97036781451769L146.11094531249998,97.13428147861528L146.22365625,96.11518856469128L146.298796875,95.79270353830523L146.63692968750001,95.91821906715631L146.6745,97.10858622069159L146.9750625,99.65350849150369L147.050203125,95.6117249754154L147.1629140625,97.28945407892266L147.6888984375,95.01679107298455L147.72646875,95.09731575743191L147.8391796875,95.71466617555254L148.1773125,94.46898202391135L148.2148828125,96.72650675661862L148.36516406249999,94.43559161449471L148.5154453125,95.32371620626914L148.703296875,96.55959004080958L148.74086718750002,94.73600166084039L148.92871875,95.35959158196218L149.00385937500002,94.04493371707699L149.00385937500002,94.0653292838898L149.3795625,92.89818419909311L149.454703125,93.56270893435511L149.49227343750002,93.32502603199747L149.5674140625,94.64111128035519L149.75526562500002,91.22171053352454L150.0933984375,92.39570517465472L150.4691015625,93.8304092871646L150.54424218749998,92.17538641579449L150.73209375,91.25181748987072L150.8448046875,93.45421601335207L150.8448046875,93.50105115026236L150.9199453125,91.9887548490531L150.9950859375,92.06916647342345L151.408359375,89.2280421110077L151.7464921875,90.14666465856135L151.8216328125,92.0717385901759L151.8967734375,89.45765770578551L152.19733593750001,90.50578114990559L152.23490625,92.8744415829165L152.4227578125,92.25493595707748L152.53546874999998,89.67172047371665L152.5730390625,89.97695441668233L152.68575,87.66136391274631L152.72332031250002,89.39530271788439L152.760890625,90.10188815722036L152.9863125,87.50500418163008L153.0238828125,89.69359053236744L153.06145312499999,89.13134276929L153.512296875,85.72279343443613L153.66257812499998,88.58110763939719L153.73771875,87.77601154169274L154.03828124999998,85.88044393476511L154.22613281250003,89.15820160383979L154.22613281250003,89.19028240069747L154.263703125,87.15132870649298L154.3764140625,86.31603614654804L154.63940624999998,87.1164473173105L154.71454687500002,86.85667294698457L154.864828125,84.40129779030879L154.9775390625,88.26707620918751L155.2029609375,85.74795165699388L155.691375,85.10354219377041L156.14221874999998,84.80851898901165L156.217359375,86.44149985619717L156.217359375,86.45860725910299L156.367640625,85.25887260710199L156.668203125,85.76439483194716L156.89362500000001,82.55430597439408L157.0814765625,84.3382149781618L157.23175781249998,84.02814771690302L157.34446874999998,84.60816004458403L157.7953125,84.27922352755236L159.8616796875,84.27561738217871L160.01196093750002,83.96834364698994L160.50037500000002,84.88624072571595L160.9136484375,84.6424455129438L161.0639296875,84.01516936222713L161.3644921875,84.0947189035101L161.4020625,84.21201166717542L161.55234375,83.48146455776359L161.92804687499998,85.69287726696993L162.30375,85.29112770491176L162.3413203125,85.61791372506154L162.378890625,85.2983776823514L162.679453125,85.07598379999399L163.43085937499998,84.52899914731582L164.332546875,85.97315084251265L164.55796875,86.41469990710418L164.5955390625,84.85478647011851L164.70825000000002,83.34496806893085L165.083953125,83.87224493693148L165.4220859375,83.74409840587114L165.53479687499998,82.56265357674825L165.9105,85.74375665705239L166.0983515625,86.16753644620378L167.4508828125,84.79728835469318L167.78901562500002,85.91628162376583L167.86415625,84.62038937624956L168.0144375,84.63549702904291L168.23985937499998,86.98574751284386L168.3525703125,84.56558350390858L168.6155625,84.98051869745056L168.91612500000002,85.35926524466939L169.0288359375,85.04366275047262L169.32939843749998,84.98966714201701L169.4796796875,84.34022650536562L169.6299609375,83.4726505825917L170.49407812500002,84.90916836717062L170.644359375,86.35666240089469L170.90735156250003,83.73617477880585L171.0576328125,87.08268239638872L171.47090625,84.20957145384617L171.92174999999997,87.5200293947839L172.522875,86.05020364042784L173.4621328125,84.92289810027515L174.02568749999998,84.93802224099636L174.55167187499998,84.36819945275784L174.852234375,85.8898891620338L175.152796875,84.15225470562775L175.37821875,84.093694296562L175.41578906249998,84.0273162542532L176.054484375,83.64606589741177L176.3926171875,84.98728581414454L176.9186015625,84.50897809200816L177.03131249999998,83.53919114876126L177.857859375,83.62863580220275L178.4965546875,85.57174752694036L178.9473984375,84.12880651673508L179.060109375,84.26509808417822L179.28553125000002,85.35161955696012L179.961796875,85.87751614985366L180.0369375,84.35529411604834L180.71320312499998,85.32763668811984L180.863484375,84.78992060633998L180.9761953125,83.79252580553293L181.6524609375,85.5890951825099L181.8027421875,82.90067258663476L182.065734375,84.39325639232993L182.5541484375,84.56116002839471L182.7795703125,85.3083411016398L183.30555468749998,84.98801363839043L183.7563984375,84.92368952081435L184.31995312499998,83.92765615176822L184.620515625,84.95452901224296L184.6580859375,85.45714465094109L185.48463281250002,84.4483873123924L185.6349140625,83.25487567546467L186.1608984375,82.79699414057863L186.6117421875,84.51904750511878L186.6493125,84.06165118639667L186.91230468749998,85.9305578139093L187.4382890625,84.94408979846371L187.6637109375,85.81507872231305L187.926703125,85.04482397168047L188.00184374999998,86.21932738315726L188.3399765625,83.59352593744795L188.4151171875,84.57027314168711L188.4526875,83.88457790700097L189.16652343750002,87.49487588306268L189.27923437500002,84.73603570254313L189.61736718749998,83.36714197653865L190.10578124999998,83.75087729965647L190.63176562499999,85.3902601937039L191.00746875,84.33940917522543L191.60859374999998,85.76067798191475L192.0218671875,85.74565747959745L192.69813281249998,84.03899206262494L193.0738359375,82.95233397558331L193.11140625,84.28760646118057L193.33682812499998,84.3919373580979L193.5998203125,83.80888418542843L193.7501015625,84.90499692141182L193.787671875,84.72983624165256L193.82524218749998,84.74668690396679L194.6517890625,84.17715618759394L194.689359375,84.19559440182316L194.839640625,83.04896736558939L194.91478124999998,86.05697311254012L195.2529140625,84.18548023576538L195.40319531249997,84.066425619233L196.49273437500003,84.45592700627942L196.5303046875,86.03683428631889L196.8684375,86.14544733365376L196.98114843750002,84.85204005241394L197.244140625,85.28061782858438L197.61984375,82.21893209922646L197.6574140625,83.38078927000363L197.694984375,84.3425607248727L197.7325546875,84.34815013243092L197.92040624999998,86.46691953018308L198.145828125,84.83594312394659L198.296109375,84.79790782969857L198.37125,83.95551839450168L198.972375,83.42855244171287L199.197796875,85.65061399692463L199.2353671875,84.89595447066759L199.5359296875,85.26202651216752L200.249765625,86.0429630846613L200.8884609375,82.9464784057604L201.8652890625,85.34545778276193L202.72940624999998,82.0783042067455L203.21782031249998,83.67768974312477L203.33053125,82.26185017555125L204.4952109375,83.40211051619715L204.53278125,84.0955126794676L205.13390625,85.24978775882887L205.1714765625,83.52388092999657L205.5471796875,84.02798990387882L205.659890625,84.67822431648771L205.73503125,84.26775735140674L206.1483046875,85.60875114798546L206.37372656250002,85.36067142937745L206.48643750000002,83.59356362414027L206.63671875,85.16352998630869L207.31298437499998,83.4756560963061L207.3505546875,83.09603097807204L207.5008359375,85.11767941423588L207.613546875,84.56124482345248L207.6886875,84.09090548132856L208.214671875,83.74493222393923L208.364953125,84.11351278589832L208.7782265625,82.9047733698454L208.89093749999998,83.52620337241225L209.64234375,86.05555986157722L209.94290625,84.66253487538134L210.318609375,84.08958644709654L210.3561796875,84.71794137938154L210.769453125,84.5617818588184L211.6335703125,84.90916836717062L211.821421875,86.24544190553327L212.4601171875,85.74755594672429L214.11321093749999,83.75297597733636L214.15078125,84.90995036603677L214.3010625,83.97424632517827L214.45134375,83.23889651791089L215.127609375,84.67254775845342L215.35303125000002,85.06619703707595L215.3906015625,84.6361094377935L216.96855468750002,85.54567304667498L217.2691171875,84.82989912066196L217.5696796875,84.71463437212837L217.60725,84.97500937411355L218.2459453125,86.23498620382614L218.734359375,85.76373295941286L218.88464062499997,83.4281378880971L219.29791406249998,84.43022939293749L219.7487578125,84.78641809937025L219.86146875,85.17411759143901L219.93660937500002,84.94563024201327L220.086890625,85.04610767463844L220.38745312499998,83.74873857986594L222.64167187500001,85.44495536138614L222.86709375,84.01771321396033L222.9046640625,86.39722741436626L222.97980468749998,84.33580067443351L223.543359375,84.49687124209272L223.8063515625,84.54310810276203L224.67046875000003,83.64211821638875L224.82075,83.02277040357392L225.2340234375,85.56531252422266L225.346734375,84.21610067329473L225.9854296875,85.04647983072532L226.21085156249998,83.48378228934276L226.69926562499998,85.80912658034099L227.450671875,84.74883975626695L227.78880468749998,84.71303268770377L228.3899296875,83.79591760784388L228.46507031250002,84.8644766608874L228.80320312499998,86.71080424884956L229.1413359375,85.51038417013156L229.44189843750002,83.96622141512732L230.1933046875,84.93537475085921L230.26844531249998,84.26272382256056L230.38115624999998,83.94465285001529L230.45629687500002,84.00037733548217L230.68171875,85.5565032598873L231.1325625,85.17411994685729L231.1701328125,84.55271114305489L231.43312500000002,83.66773574550946L231.54583593750002,84.18433785790371L231.7336875,84.74696955415939L231.9966796875,82.6960362026261L232.0718203125,85.39105161424314L233.98790624999998,82.88923938634495L234.4011796875,85.55720046369565L234.513890625,84.36383486270077L234.7017421875,85.32064109585352L235.3028671875,85.16897571335237L235.4531484375,83.23632911199498L235.49071874999998,86.58183096597593L235.56585937499997,85.41270968524945L235.9415625,84.97174711980753L236.09184374999998,83.26583308126365L236.24212500000002,83.69125224153201L236.58025781249998,85.1665684758789L236.617828125,86.50218485254382L236.8056796875,85.73216328832011L236.9559609375,84.91061459398932L236.99353125,84.58375320045484L237.5570859375,83.83752842702799L238.72176562500002,84.77421703272395L239.17260937499998,86.10396841789286L239.4356015625,83.47243152869244L239.623453125,84.91942385832469L240.1494375,85.25893620339532L240.4875703125,85.76215718458926L241.051125,82.77620757433276L241.4643984375,84.93190050890875L241.727390625,84.83451574047406L241.76496093749998,84.93310412764549L241.87767187499998,84.52294101152157L242.10309375,83.50278344853885L243.53076562500002,84.71154877419274L243.6434765625,84.00072122654981L243.7186171875,85.09204068635071L243.831328125,82.1607108703918L243.86889843749998,83.65679247222013L244.0191796875,85.08561274988783L245.2214296875,85.04943352523779L245.7474140625,84.09676576198804L246.7618125,84.33069177220266L246.98723437499999,83.71665307217174L247.13751562500002,83.8701038617227L247.81378125,84.04719833988284L248.0016328125,85.54863145202398L248.56518749999998,84.97016663414736L248.6778984375,83.89932518079877L248.790609375,83.8184118523366L249.57958593749998,84.38594046317868L249.992859375,83.47925517542494L250.4812734375,85.05878453577559L250.51884375,83.87284085775416L250.894546875,83.89817809210055L251.0072578125,83.51345349330867L251.15753906249998,86.04214575452109L251.796234375,85.07214917904801L251.871375,85.69187856962283L251.9840859375,84.27933423221111L252.77306249999998,85.17112621023423L252.84820312500003,84.12490829949577L253.0360546875,85.94176018320852L253.44932812500002,84.49944806968172L253.74989062499998,84.46272238799267L253.900171875,84.54445069117678L254.53886718750002,87.34097285320361L254.76428906249998,84.96827052243881L255.1399921875,84.28053549552958L255.2151328125,84.20456619001925L255.44055468750003,84.50707726946307L255.62840625,85.48149732045002L255.8162578125,82.60287705457044L255.92896875000002,84.53746452058355L256.4925234375,84.78419929535853L256.53009375,83.4510137103498L257.5444921875,84.89930623086791L257.8450546875,82.27258852745096L258.2207578125,84.30541342331303L258.63403125,84.04464506647653L259.42300781250003,84.71757864496774L259.64842968749997,85.20301150737536L260.061703125,85.45742494571542L260.0992734375,84.541624189251L261.3015234375,84.14766399541664L261.33909375,84.77572450041771L261.564515625,82.38027825082342L263.518171875,81.73337204423214L263.5933125,85.19149822286434L263.85630468749997,84.6397038060758L263.969015625,83.97168598551715L264.2320078125,84.167188057469L265.24640625,84.26070051826537L266.0353828125,84.6317801790105L266.4110859375,83.15645452299051L267.0122109375,85.34697467212875L267.0873515625,84.68971404681604L267.1624921875,84.10025178102983L267.35034375,85.73797646061414L268.55259374999997,85.19148409035469L268.74044531249996,82.6566371211989L269.15371875,84.45396965369582L269.1912890625,84.52490543035996L269.228859375,85.29168122820556L269.3415703125,83.78295809651415L269.9426953125,84.3248809553269L270.95709375,84.07405952985089L271.0698046875,84.7579882008334L271.8212109375,87.03187602427269L272.0466328125,84.53808635100722L272.084203125,83.72102001764708L273.06103125,86.29061882798041L273.3240234375,83.53859758335685L273.3991640625,85.90797641894055L273.587015625,84.25621344645818L274.8268359375,85.48667452981074L274.93954687499996,84.96707868079345L275.6533828125,84.46819166921907L275.690953125,84.34428724646568L276.02908593750004,85.0342976074252L276.292078125,86.02752567330997L276.4047890625,84.44888666106594L276.66778125,84.55488990495603L276.7804921875,83.53540363618069L277.494328125,83.5545767409106L277.6070390625,84.92425011036296L277.9827421875,84.10598015826608" style="fill: none;" fill="none"></path></g></g></g></g></g></g><g transform="translate(29, 177)" clip-path="url(#clip_1)"><clipPath id="clip_1"><rect width="300" height="22"></rect></clipPath><g><g><line x1="0" y1="0" x2="0" y2="5" style="visibility: inherit;" fill="rgb(0, 0, 0)" stroke="rgb(204, 204, 204)" stroke-width="1px"></line><line x1="37.5703125" y1="0" x2="37.5703125" y2="5" style="visibility: inherit;" fill="rgb(0, 0, 0)" stroke="rgb(204, 204, 204)" stroke-width="1px"></line><line x1="75.140625" y1="0" x2="75.140625" y2="5" style="visibility: inherit;" fill="rgb(0, 0, 0)" stroke="rgb(204, 204, 204)" stroke-width="1px"></line><line x1="112.7109375" y1="0" x2="112.7109375" y2="5" style="visibility: inherit;" fill="rgb(0, 0, 0)" stroke="rgb(204, 204, 204)" stroke-width="1px"></line><line x1="150.28125" y1="0" x2="150.28125" y2="5" style="visibility: inherit;" fill="rgb(0, 0, 0)" stroke="rgb(204, 204, 204)" stroke-width="1px"></line><line x1="187.8515625" y1="0" x2="187.8515625" y2="5" style="visibility: inherit;" fill="rgb(0, 0, 0)" stroke="rgb(204, 204, 204)" stroke-width="1px"></line><line x1="225.421875" y1="0" x2="225.421875" y2="5" style="visibility: inherit;" fill="rgb(0, 0, 0)" stroke="rgb(204, 204, 204)" stroke-width="1px"></line><line x1="262.9921875" y1="0" x2="262.9921875" y2="5" style="visibility: inherit;" fill="rgb(0, 0, 0)" stroke="rgb(204, 204, 204)" stroke-width="1px"></line><line x1="300.5625" y1="0" x2="300.5625" y2="5" style="visibility: inherit;" fill="rgb(0, 0, 0)" stroke="rgb(204, 204, 204)" stroke-width="1px"></line></g><g transform="translate(0, 8)"><text x="0" y="0" dx="0em" dy="0.95em" style="text-anchor: middle; visibility: hidden; font-family: &quot;Helvetica Neue&quot;, sans-serif; font-size: 12px; font-weight: 200;" fill="rgb(50, 49, 63)" stroke="none" stroke-width="1px">-1k</text><text x="37.5703125" y="0" dx="0em" dy="0.95em" style="text-anchor: middle; visibility: inherit; font-family: &quot;Helvetica Neue&quot;, sans-serif; font-size: 12px; font-weight: 200;" fill="rgb(50, 49, 63)" stroke="none" stroke-width="1px">0</text><text x="75.140625" y="0" dx="0em" dy="0.95em" style="text-anchor: middle; visibility: inherit; font-family: &quot;Helvetica Neue&quot;, sans-serif; font-size: 12px; font-weight: 200;" fill="rgb(50, 49, 63)" stroke="none" stroke-width="1px">1k</text><text x="112.7109375" y="0" dx="0em" dy="0.95em" style="text-anchor: middle; visibility: inherit; font-family: &quot;Helvetica Neue&quot;, sans-serif; font-size: 12px; font-weight: 200;" fill="rgb(50, 49, 63)" stroke="none" stroke-width="1px">2k</text><text x="150.28125" y="0" dx="0em" dy="0.95em" style="text-anchor: middle; visibility: inherit; font-family: &quot;Helvetica Neue&quot;, sans-serif; font-size: 12px; font-weight: 200;" fill="rgb(50, 49, 63)" stroke="none" stroke-width="1px">3k</text><text x="187.8515625" y="0" dx="0em" dy="0.95em" style="text-anchor: middle; visibility: inherit; font-family: &quot;Helvetica Neue&quot;, sans-serif; font-size: 12px; font-weight: 200;" fill="rgb(50, 49, 63)" stroke="none" stroke-width="1px">4k</text><text x="225.421875" y="0" dx="0em" dy="0.95em" style="text-anchor: middle; visibility: inherit; font-family: &quot;Helvetica Neue&quot;, sans-serif; font-size: 12px; font-weight: 200;" fill="rgb(50, 49, 63)" stroke="none" stroke-width="1px">5k</text><text x="262.9921875" y="0" dx="0em" dy="0.95em" style="text-anchor: middle; visibility: inherit; font-family: &quot;Helvetica Neue&quot;, sans-serif; font-size: 12px; font-weight: 200;" fill="rgb(50, 49, 63)" stroke="none" stroke-width="1px">6k</text><text x="300.5625" y="0" dx="0em" dy="0.95em" style="text-anchor: middle; visibility: hidden; font-family: &quot;Helvetica Neue&quot;, sans-serif; font-size: 12px; font-weight: 200;" fill="rgb(50, 49, 63)" stroke="none" stroke-width="1px">7k</text></g><line x1="0" y1="0" x2="300.5625" y2="0" fill="rgb(0, 0, 0)" stroke="rgb(204, 204, 204)" stroke-width="1px"></line></g></g></g></g></svg>