<svg viewBox="0 0 330 200" xmlns="http://www.w3.org/2000/svg"><g><g><g><g><g><line x1="58.59375" y1="177.828125" x2="53.59375" y2="177.828125" style="visibility: inherit;" fill="rgb(0, 0, 0)" stroke="rgb(204, 204, 204)" stroke-width="1px"></line><line x1="58.59375" y1="158.06944444444443" x2="53.59375" y2="158.06944444444443" style="visibility: inherit;" fill="rgb(0, 0, 0)" stroke="rgb(204, 204, 204)" stroke-width="1px"></line><line x1="58.59375" y1="138.3107638888889" x2="53.59375" y2="138.3107638888889" style="visibility: inherit;" fill="rgb(0, 0, 0)" stroke="rgb(204, 204, 204)" stroke-width="1px"></line><line x1="58.59375" y1="118.55208333333334" x2="53.59375" y2="118.55208333333334" style="visibility: inherit;" fill="rgb(0, 0, 0)" stroke="rgb(204, 204, 204)" stroke-width="1px"></line><line x1="58.59375" y1="98.79340277777776" x2="53.59375" y2="98.79340277777776" style="visibility: inherit;" fill="rgb(0, 0, 0)" stroke="rgb(204, 204, 204)" stroke-width="1px"></line><line x1="58.59375" y1="79.03472222222224" x2="53.59375" y2="79.03472222222224" style="visibility: inherit;" fill="rgb(0, 0, 0)" stroke="rgb(204, 204, 204)" stroke-width="1px"></line><line x1="58.59375" y1="59.27604166666667" x2="53.59375" y2="59.27604166666667" style="visibility: inherit;" fill="rgb(0, 0, 0)" stroke="rgb(204, 204, 204)" stroke-width="1px"></line><line x1="58.59375" y1="39.517361111111086" x2="53.59375" y2="39.517361111111086" style="visibility: inherit;" fill="rgb(0, 0, 0)" stroke="rgb(204, 204, 204)" stroke-width="1px"></line><line x1="58.59375" y1="19.75868055555557" x2="53.59375" y2="19.75868055555557" style="visibility: inherit;" fill="rgb(0, 0, 0)" stroke="rgb(204, 204, 204)" stroke-width="1px"></line><line x1="58.59375" y1="0" x2="53.59375" y2="0" style="visibility: inherit;" fill="rgb(0, 0, 0)" stroke="rgb(204, 204, 204)" stroke-width="1px"></line></g><g transform="translate(48.59375, 0)"><text x="0" y="177.828125" dx="0em" dy="0.3em" style="text-anchor: end; visibility: hidden; font-family: &quot;Helvetica Neue&quot;, sans-serif; font-size: 12px; font-weight: 200;" fill="rgb(50, 49, 63)" stroke="none" stroke-width="1px">0.065</text><text x="0" y="158.06944444444443" dx="0em" dy="0.3em" style="text-anchor: end; visibility: inherit; font-family: &quot;Helvetica Neue&quot;, sans-serif; font-size: 12px; font-weight: 200;" fill="rgb(50, 49, 63)" stroke="none" stroke-width="1px">0.07</text><text x="0" y="138.3107638888889" dx="0em" dy="0.3em" style="text-anchor: end; visibility: hidden; font-family: &quot;Helvetica Neue&quot;, sans-serif; font-size: 12px; font-weight: 200;" fill="rgb(50, 49, 63)" stroke="none" stroke-width="1px">0.075</text><text x="0" y="118.55208333333334" dx="0em" dy="0.3em" style="text-anchor: end; visibility: inherit; font-family: &quot;Helvetica Neue&quot;, sans-serif; font-size: 12px; font-weight: 200;" fill="rgb(50, 49, 63)" stroke="none" stroke-width="1px">0.08</text><text x="0" y="98.79340277777776" dx="0em" dy="0.3em" style="text-anchor: end; visibility: hidden; font-family: &quot;Helvetica Neue&quot;, sans-serif; font-size: 12px; font-weight: 200;" fill="rgb(50, 49, 63)" stroke="none" stroke-width="1px">0.085</text><text x="0" y="79.03472222222224" dx="0em" dy="0.3em" style="text-anchor: end; visibility: inherit; font-family: &quot;Helvetica Neue&quot;, sans-serif; font-size: 12px; font-weight: 200;" fill="rgb(50, 49, 63)" stroke="none" stroke-width="1px">0.09</text><text x="0" y="59.27604166666667" dx="0em" dy="0.3em" style="text-anchor: end; visibility: hidden; font-family: &quot;Helvetica Neue&quot;, sans-serif; font-size: 12px; font-weight: 200;" fill="rgb(50, 49, 63)" stroke="none" stroke-width="1px">0.095</text><text x="0" y="39.517361111111086" dx="0em" dy="0.3em" style="text-anchor: end; visibility: inherit; font-family: &quot;Helvetica Neue&quot;, sans-serif; font-size: 12px; font-weight: 200;" fill="rgb(50, 49, 63)" stroke="none" stroke-width="1px">0.1</text><text x="0" y="19.75868055555557" dx="0em" dy="0.3em" style="text-anchor: end; visibility: hidden; font-family: &quot;Helvetica Neue&quot;, sans-serif; font-size: 12px; font-weight: 200;" fill="rgb(50, 49, 63)" stroke="none" stroke-width="1px">0.105</text><text x="0" y="0" dx="0em" dy="0.3em" style="text-anchor: end; visibility: hidden; font-family: &quot;Helvetica Neue&quot;, sans-serif; font-size: 12px; font-weight: 200;" fill="rgb(50, 49, 63)" stroke="none" stroke-width="1px">0.11</text></g><line x1="58.59375" y1="0" x2="58.59375" y2="177.828125" fill="rgb(0, 0, 0)" stroke="rgb(204, 204, 204)" stroke-width="1px"></line></g></g><g transform="translate(58, 0)" clip-path="url(#clip_0)"><clipPath id="clip_0"><rect width="271" height="177"></rect></clipPath><g><g><g><line x1="0" y1="0" x2="0" y2="177.828125" fill="rgb(0, 0, 0)" stroke="rgb(60, 60, 60)" stroke-width="1px" opacity="0.25"></line><line x1="20.877403846153847" y1="0" x2="20.877403846153847" y2="177.828125" fill="rgb(0, 0, 0)" stroke="rgb(60, 60, 60)" stroke-width="1px" opacity="0.25"></line><line x1="41.75480769230769" y1="0" x2="41.75480769230769" y2="177.828125" fill="rgb(0, 0, 0)" stroke="rgb(60, 60, 60)" stroke-width="1px" opacity="0.25"></line><line x1="62.63221153846154" y1="0" x2="62.63221153846154" y2="177.828125" fill="rgb(0, 0, 0)" stroke="rgb(60, 60, 60)" stroke-width="1px" opacity="0.25"></line><line x1="83.50961538461539" y1="0" x2="83.50961538461539" y2="177.828125" fill="rgb(0, 0, 0)" stroke="rgb(60, 60, 60)" stroke-width="1px" opacity="0.25"></line><line x1="104.38701923076924" y1="0" x2="104.38701923076924" y2="177.828125" fill="rgb(0, 0, 0)" stroke="rgb(60, 60, 60)" stroke-width="1px" opacity="0.25"></line><line x1="125.26442307692308" y1="0" x2="125.26442307692308" y2="177.828125" fill="rgb(0, 0, 0)" stroke="rgb(60, 60, 60)" stroke-width="1px" opacity="0.25"></line><line x1="146.1418269230769" y1="0" x2="146.1418269230769" y2="177.828125" fill="rgb(0, 0, 0)" stroke="rgb(60, 60, 60)" stroke-width="1px" opacity="0.25"></line><line x1="167.01923076923077" y1="0" x2="167.01923076923077" y2="177.828125" fill="rgb(0, 0, 0)" stroke="rgb(60, 60, 60)" stroke-width="1px" opacity="0.25"></line><line x1="187.8966346153846" y1="0" x2="187.8966346153846" y2="177.828125" fill="rgb(0, 0, 0)" stroke="rgb(60, 60, 60)" stroke-width="1px" opacity="0.25"></line><line x1="208.77403846153848" y1="0" x2="208.77403846153848" y2="177.828125" fill="rgb(0, 0, 0)" stroke="rgb(60, 60, 60)" stroke-width="1px" opacity="0.25"></line><line x1="229.6514423076923" y1="0" x2="229.6514423076923" y2="177.828125" fill="rgb(0, 0, 0)" stroke="rgb(60, 60, 60)" stroke-width="1px" opacity="0.25"></line><line x1="250.52884615384616" y1="0" x2="250.52884615384616" y2="177.828125" fill="rgb(0, 0, 0)" stroke="rgb(60, 60, 60)" stroke-width="1px" opacity="0.25"></line><line x1="271.40625" y1="0" x2="271.40625" y2="177.828125" fill="rgb(0, 0, 0)" stroke="rgb(60, 60, 60)" stroke-width="1px" opacity="0.25"></line></g><g><line x1="0" y1="177.828125" x2="271.40625" y2="177.828125" fill="rgb(0, 0, 0)" stroke="rgb(60, 60, 60)" stroke-width="1px" opacity="0.25"></line><line x1="0" y1="158.06944444444443" x2="271.40625" y2="158.06944444444443" fill="rgb(0, 0, 0)" stroke="rgb(60, 60, 60)" stroke-width="1px" opacity="0.25"></line><line x1="0" y1="138.3107638888889" x2="271.40625" y2="138.3107638888889" fill="rgb(0, 0, 0)" stroke="rgb(60, 60, 60)" stroke-width="1px" opacity="0.25"></line><line x1="0" y1="118.55208333333334" x2="271.40625" y2="118.55208333333334" fill="rgb(0, 0, 0)" stroke="rgb(60, 60, 60)" stroke-width="1px" opacity="0.25"></line><line x1="0" y1="98.79340277777776" x2="271.40625" y2="98.79340277777776" fill="rgb(0, 0, 0)" stroke="rgb(60, 60, 60)" stroke-width="1px" opacity="0.25"></line><line x1="0" y1="79.03472222222224" x2="271.40625" y2="79.03472222222224" fill="rgb(0, 0, 0)" stroke="rgb(60, 60, 60)" stroke-width="1px" opacity="0.25"></line><line x1="0" y1="59.27604166666667" x2="271.40625" y2="59.27604166666667" fill="rgb(0, 0, 0)" stroke="rgb(60, 60, 60)" stroke-width="1px" opacity="0.25"></line><line x1="0" y1="39.517361111111086" x2="271.40625" y2="39.517361111111086" fill="rgb(0, 0, 0)" stroke="rgb(60, 60, 60)" stroke-width="1px" opacity="0.25"></line><line x1="0" y1="19.75868055555557" x2="271.40625" y2="19.75868055555557" fill="rgb(0, 0, 0)" stroke="rgb(60, 60, 60)" stroke-width="1px" opacity="0.25"></line><line x1="0" y1="0" x2="271.40625" y2="0" fill="rgb(0, 0, 0)" stroke="rgb(60, 60, 60)" stroke-width="1px" opacity="0.25"></line></g></g></g><g><g><line x1="0" y1="434.6909722222223" x2="271.40625" y2="434.6909722222223" fill="rgb(0, 0, 0)" stroke="rgb(153, 153, 153)" stroke-width="1.5px"></line></g></g><g><g><line x1="20.877403846153847" y1="0" x2="20.877403846153847" y2="177.828125" fill="rgb(0, 0, 0)" stroke="rgb(153, 153, 153)" stroke-width="1.5px"></line></g></g><g><g><g><g><g><path stroke="rgb(255, 112, 67)" stroke-width="2px" d="M24.59358173076923,-1.3259831967577043L24.677091346153848,8.042986107585449L24.718846153846155,10.126387959718642L24.84411057692308,23.24055234133911L25.637451923076924,26.889096356612043L25.762716346153848,36.76886652566213L26.055,56.915287194453256L26.180264423076924,73.16087713526103L26.305528846153845,89.77869736880936L26.43079326923077,114.61170882783803L26.556057692307693,117.61815694769618L26.973605769230772,119.46927356982644L27.30764423076923,107.22238443046906L27.349399038461538,118.0150063009747L27.51641826923077,128.01145759550488L27.766947115384614,117.10200427725357L27.933966346153845,124.0609121587862L28.100985576923076,144.5965213738794L28.43502403846154,134.25832661274427L28.518533653846156,121.0727841090462L29.64591346153846,115.07431743816474L29.68766826923077,117.82087563144344L30.021706730769232,125.00257135479094L30.10521634615385,114.34271720977779L30.146971153846152,116.28453789017507L30.481009615384615,116.23822690271567L30.52276442307692,116.04139194086075L30.564519230769232,123.07098436622512L30.77329326923077,115.07602562973132L31.107331730769232,100.29344305922982L31.14908653846154,91.28426432237991L31.608389423076925,80.29650999366321L31.942427884615384,81.81390404108504L32.067692307692305,76.15954242791466L32.61050480769231,96.4926532877555L32.81927884615385,125.74255649746618L32.94454326923077,126.47789756271568L33.1115625,132.4572205272512L33.1115625,136.0448143059685L33.44560096153846,143.3855797372592L33.82139423076923,127.5523794241279L33.863149038461536,121.35360149792592L34.113677884615385,130.7370555028432L34.238942307692305,135.11327987442286L34.28069711538462,137.1567079922931L34.32245192307692,142.43397829615347L34.364206730769226,146.55693472397795L34.40596153846154,143.43255064355148L34.65649038461538,144.25909031485608L34.86526442307692,144.96435191651736L35.115793269230764,155.52518200963573L35.24105769230769,142.54826306915683L35.78387019230769,144.02922224384886L35.86737980769231,148.0777209078709L35.95088942307692,134.83543328094953L35.95088942307692,126.89006070479664L36.11790865384615,128.40058037591587L36.284927884615385,121.47623347247549L36.3684375,117.60758488566123L36.45194711538461,124.14313352420199L36.57721153846154,127.65716377982059L36.660721153846154,141.44294488102L36.82774038461539,129.17335254228988L36.91125,130.41645827681944L36.95300480769231,121.7108996988138L36.99475961538461,118.47304082977912L37.161778846153844,127.96008688748763L37.245288461538465,115.69215598528119L37.28704326923077,104.4951041510011L37.41230769230769,119.07676737731697L37.454062500000006,121.99638774136467L37.53757211538461,127.64905059884512L37.62108173076923,141.69918686492062L37.746346153846154,157.42565958124752L37.746346153846154,166.86154321104368L38.247403846153844,161.91568274509956L38.330913461538465,150.25921689547332L38.99899038461539,153.12104339653925L39.16600961538462,136.8617990368221L39.29127403846154,130.65645661069306L39.58355769230769,120.02071093694713L39.66706730769231,121.8445279607091L39.792331730769234,119.87220491058443L39.834086538461534,119.77468245784866L39.95935096153846,122.34147108324292L40.00110576923077,134.19933622582175L40.29338942307692,127.62934602712143L40.33514423076923,117.71991149417619L40.54391826923077,133.30352750966188L40.58567307692308,145.66128360145171L40.794447115384614,130.01782918379763L40.877956730769235,115.3101011469742L40.96146634615384,120.85637761416055L41.128485576923076,131.89863297143458L41.17024038461538,123.56679751165372L41.29550480769231,116.7491720050997L41.29550480769231,112.65859670116723L41.42076923076923,132.53722052247525L41.7965625,141.5309097915827L41.83831730769231,146.45421424958906L42.04709134615384,149.83287883874223L42.67341346153846,152.72400968294212L42.92394230769231,152.94204614154188L43.04920673076923,160.84974074658436L43.13271634615384,160.28898984072612L43.174471153846156,153.62565027816564L43.25798076923077,162.20561544165264L43.3832451923077,171.1582192340409L43.466754807692304,161.9986762235495L43.675528846153846,152.86473602383924L43.800793269230766,153.4134653909944L43.92605769230769,146.5479365759292L44.13483173076923,130.28050244332218L44.21834134615384,121.25580396922281L45.01168269230769,89.34610956628897L45.09519230769231,79.8004360529138L45.09519230769231,74.07303194488865L45.136947115384615,83.40274452389743L45.512740384615384,86.23461617218501L45.76326923076923,81.76104759925504L45.76326923076923,79.076906455497L45.88853365384615,80.65989786172648L46.05555288461539,76.14747773388206L46.598365384615384,88.1880767429952L46.84889423076923,102.89788475270574L47.05766826923077,128.51024672486352L47.14117788461539,135.77396511601518L47.182932692307695,131.3854917246295L47.60048076923077,137.4509673664056L47.72574519230769,123.69661941729812L47.892764423076926,125.99587230590512L48.01802884615385,118.15081702279895L48.35206730769231,114.19094608283416L48.393822115384616,102.44048235251336L48.64435096153846,96.65149526742893L48.68610576923077,102.18120649839783L48.76961538461538,108.44579104261636L48.76961538461538,112.20454176914753L49.77173076923077,98.11967857827318L49.855240384615385,97.7418390183622L49.89699519230769,116.50795629783318L49.93875,106.53864220569507L50.39805288461538,122.75777779522691L50.64858173076924,137.6769854522602L50.69033653846154,124.87109927454233L50.77384615384616,129.61547277085833L50.857355769230765,140.61507101103044L50.940865384615385,129.94063988150782L51.441923076923075,118.13060247510319L51.48367788461538,127.97788219554513L51.69245192307692,129.98677263972135L51.85947115384616,136.7884747254618L51.942980769230765,126.78066757981922L51.98473557692308,128.82246897476216L52.36052884615385,138.92573368571908L52.6528125,130.81070080930456L52.73632211538462,115.86143304879315L53.27913461538461,102.01350672494941L53.61317307692308,94.33864109586617L53.61317307692308,89.73372171841623L53.947211538461545,98.35487168788289L54.03072115384615,114.92415875942964L54.364759615384614,100.62772325489297L54.364759615384614,92.04986195217096L54.65704326923077,47.71538009357428L54.824062500000004,32.73084838245995L54.949326923076924,17.290181509151836L55.03283653846154,15.581480339356801L55.11634615384615,3.5458451503149035L55.19985576923077,2.323019525981124L55.28336538461539,17.54212457470169L55.53389423076923,26.971795334195832L55.70091346153846,47.28662373661044L55.82617788461539,76.53691058794746L55.99319711538461,77.49407958923832L56.160216346153845,90.9684180083881L56.24372596153846,110.45564802051976L56.28548076923077,101.44447183016447L56.32723557692307,102.49363783954357L56.410745192307694,107.42205844083027L56.536009615384614,115.60594882531458L56.744783653846156,108.44806200020608L56.95355769230769,127.36819106383646L57.03706730769231,136.60728165611903L57.07882211538462,143.5811697506723L57.12057692307692,144.44040574190916L57.24584134615385,136.67033959140124L57.28759615384615,140.37442761995737L57.32935096153846,143.145233587785L57.32935096153846,144.80771716848153L57.746899038461535,144.9190047464346L57.91391826923077,147.12658162888835L58.03918269230769,151.7249824993594L58.20620192307692,143.26026652453712L58.20620192307692,138.18143693964373L58.41497596153846,139.74994638152168L58.54024038461538,124.95136986853197L58.99954326923077,112.04344588663587L59.083052884615384,114.08738585851604L59.29182692307692,119.50904421044928L59.37533653846154,113.98622182569699L59.54235576923077,109.94396219220008L59.83463942307692,103.4204377157216L59.87639423076923,97.02699798017423L60.00165865384616,108.3772343482588L60.043413461538464,105.60501644867414L60.75324519230769,95.51131395670757L60.878509615384615,95.08442435947187L61.254302884615385,110.95138776547986L61.29605769230769,102.50707330263357L61.463076923076926,102.10469566321889L61.504831730769226,101.34028378366013L61.54658653846154,86.40449400260032L61.92237980769231,94.15314641702561L62.214663461538464,101.42269358434643L62.25641826923077,117.07403587671473L62.63221153846154,115.28774559098895L62.715721153846154,121.21411931469919L62.88274038461539,114.91051597721471L63.25853365384615,108.67821255744754L63.38379807692307,114.73755894844155L63.88485576923077,111.08254660112145L64.13538461538461,119.56567271880465L64.13538461538461,124.65554838941453L64.21889423076924,138.30114201864015L64.21889423076924,146.4884981961755L64.26064903846154,126.19359065105766L64.30240384615385,113.61712007677703L64.38591346153846,116.24143919065949L64.46942307692308,99.12314860626279L64.6364423076923,80.82263580775954L64.92872596153846,69.83197606535437L65.6385576923077,90.57077245539102L65.72206730769231,100.85893678773185L65.76382211538461,106.77913433787967L65.88908653846154,110.26027233835705L66.05610576923077,115.45489211106792L66.30663461538461,126.86487972096137L66.51540865384615,135.91689815451684L66.55716346153847,128.7790791259672L66.59891826923077,121.4002846076965L66.64067307692308,132.23764931785675L66.72418269230769,123.88158327247436L66.76593749999999,106.97405887281009L66.93295673076923,95.33910621336165L67.01646634615385,85.83270225536798L67.30875,70.63153075973709L67.43401442307692,64.77874694931319L67.55927884615384,59.61702372424156L67.55927884615384,56.51998978919862L67.60103365384616,59.65568013901759L67.68454326923077,60.19007774781002L67.76805288461539,62.57004673075669L67.76805288461539,63.99802812052461L67.93507211538461,60.9445517506131L67.97682692307693,63.014828704137656L68.10209134615384,64.43133115961662L68.47788461538461,85.76655265895894L68.68665865384615,85.99266093038045L68.81192307692308,83.91718876796479L68.93718750000001,92.99890712329925L69.0206971153846,108.42222768021965L69.27122596153845,105.91586390374775L69.31298076923076,117.15323324801066L69.81403846153846,99.05486024015568L70.0228125,87.53959335082325L70.35685096153846,97.29787932120561L70.73264423076924,108.52318100824634L70.77439903846154,98.27788082820813L70.81615384615385,120.97492910809899L71.02492788461538,124.82099875128152L71.10843750000001,122.88403548687228L71.48423076923076,113.05826403585955L71.73475961538462,111.0625376493507L71.90177884615385,106.52730924746695L72.02704326923077,111.62216843370875L72.02704326923077,114.67908394545384L72.06879807692309,110.21087591475292L72.11055288461537,94.39927152081286L72.2358173076923,100.76054051360691L72.736875,99.1445885515517L72.7786298076923,111.60375157791213L72.98740384615385,106.20826645973197L73.02915865384617,114.99732888484718L73.11266826923077,113.23607413028843L73.40495192307692,111.13736667388613L73.53021634615385,115.24676462660923L73.73899038461538,114.78362921110875L74.03127403846153,119.41387433920553L74.11478365384615,110.21368312150457L74.15653846153846,111.26082784453494L74.44882211538462,108.85664320181654L74.69935096153846,99.77750129018729L74.9498798076923,68.77544735289649L75.15865384615385,44.568036854186516L75.28391826923077,46.22587938047246L75.61795673076922,42.94310998394664L75.74322115384615,54.462422371918066L75.78497596153846,51.89207334227049L75.95199519230769,79.23161412546048L76.07725961538462,71.38835670429542L76.20252403846153,78.34678684474869L76.28603365384615,85.96430050989262L76.78709134615386,108.36122659635537L76.91235576923077,104.54031395991007L77.0376201923077,112.8182829488246L77.28814903846154,128.04643226482207L77.45516826923077,119.84029468181042L77.74745192307691,138.45887643043588L77.99798076923078,136.6393048577835L78.08149038461538,136.287210359805L78.37377403846155,145.17089490144275L78.37377403846155,150.5011056264254L78.41552884615385,134.3023508186149L79.08360576923077,125.47886350257576L79.12536057692307,134.41984743051586L79.12536057692307,139.78443778727996L79.29237980769231,122.74141294633907L79.50115384615384,116.2449906764792L79.83519230769231,102.26677150898708L79.91870192307692,90.74614443173793L80.54502403846155,84.23824061096848L80.8373076923077,38.957055029493375L81.00432692307692,22.19759653943254L81.21310096153846,11.946786818694562L81.33836538461539,10.09345541820744L81.421875,14.015904037212238L81.75591346153847,14.16194586712416L81.79766826923077,30.648157850454027L81.83942307692307,49.946872093483634L82.08995192307692,78.82256119268429L82.46574519230768,99.6158569733173L82.79978365384615,120.30859331087163L82.96680288461539,124.56523110024662L83.46786057692307,122.61174404445477L83.63487980769231,130.20157223909015L83.67663461538461,139.58592561576612L83.71838942307691,151.8864108924201L83.80189903846154,147.15194971466016L83.84365384615384,145.30768559939207L84.05242788461538,148.39891824240414L84.1359375,147.22136300804502L84.30295673076924,141.52661926880188L84.34471153846152,128.8600454731202L84.84576923076924,131.57105067297482L84.92927884615385,127.06255470659795L84.97103365384616,121.14619762633784L85.3050721153846,110.5224970085163L85.55560096153846,96.4031313920577L86.05665865384616,91.86066768049223L86.34894230769231,94.24983890499419L86.39069711538461,84.08366038646085L86.51596153846154,81.84902977957466L86.64122596153845,97.60036765668275L86.72473557692308,106.3589600613225L86.8082451923077,107.8156502285903L86.85000000000001,101.56209797687828L87.18403846153845,104.82640434387493L87.55983173076923,101.99939064515863L87.60158653846153,124.3488702715265L87.72685096153846,111.16227019519407L87.81036057692307,110.592490437274L88.31141826923077,86.92614025747133L88.35317307692308,84.67011445810607L88.5201923076923,75.34307837093996L88.56194711538461,69.31183451807907L88.60370192307693,62.18376230076299L88.64545673076924,60.48788031844836L88.64545673076924,59.470351129059594L89.18826923076924,42.86620201636924L89.35528846153846,41.31719595196424L89.85634615384616,19.544166059807395L90.02336538461537,4.947394805063112L90.31564903846153,11.7956033394359L90.35740384615384,24.62640677755479L90.44091346153846,33.23786073954639L90.6914423076923,41.9570807370697L91.31776442307692,75.7849215733319L91.35951923076922,86.54810595251313L91.40127403846154,74.55065490579258L91.56829326923078,88.3362405686202L91.90233173076922,105.10342079229721L92.02759615384615,106.79216019143537L92.48689903846154,92.51307446801421L92.52865384615384,96.29095904940118L92.65391826923077,97.90831275787536L92.8626923076923,107.86803749099991L92.90444711538461,117.31372142624397L93.02971153846154,120.34875165844886L93.07146634615385,119.73546856837098L93.19673076923077,112.57600344122757L93.3219951923077,92.53261021051924L93.44725961538462,96.42618685196972L93.53076923076922,97.94125758158184L93.86480769230769,91.13380843685611L94.11533653846153,98.34279227377898L94.19884615384615,92.16769259036238L94.32411057692308,87.37069620092441L94.65814903846154,88.86175215250753L94.69990384615386,79.21007107541527L94.82516826923077,86.53776470276881L94.90867788461539,90.58398885711432L95.24271634615386,104.42504390931599L95.61850961538462,109.06543517532167L96.0360576923077,113.96061934401592L96.41185096153846,96.72831851774954L96.45360576923078,86.18213229775297L96.49536057692308,63.51838181257165L96.53711538461539,55.61686371324576L96.62062499999999,53.35420618799695L96.95466346153846,61.87230340772294L97.20519230769231,77.13409587654859L97.20519230769231,86.29117135784392L97.49747596153847,103.6402014757493L98.12379807692308,121.23810879215725L98.1655528846154,120.9108401108458L98.66661057692308,131.9024448185286L98.75012019230769,126.47050062382117L98.79187499999999,131.3318034772327L98.91713942307692,119.23365343620878L98.95889423076923,111.0581877225187L99.00064903846155,101.60003787770484L99.20942307692307,94.75747291690875L99.3346875,97.63736257691076L99.62697115384616,81.67065236073405L99.79399038461538,46.537258704033206L100.04451923076924,39.531718186917544L100.08627403846154,42.16581980603891L100.16978365384615,39.436571966169L100.4203125,58.693502996242344L100.50382211538461,75.19922190460971L100.58733173076924,92.68923173735914L100.62908653846155,82.40765941735833L100.83786057692308,91.53570911643938L100.92137019230769,109.5381233345534L101.54769230769232,102.42629792928425L101.63120192307692,89.67950847530203L101.79822115384616,92.87163498868846L102.34103365384615,83.7603500173044L102.5080528846154,80.1897378513877L102.71682692307692,73.78272089202858L102.88384615384615,80.33267712120842L103.00911057692308,86.45480331271666L103.09262019230769,96.82288438067368L103.34314903846153,99.20272889194875L103.46841346153846,101.00426382202862L103.59367788461539,123.02335752300797L104.05298076923077,133.6610364212486L104.26175480769231,144.01248821637722L104.38701923076924,133.72141665431872L104.55403846153845,126.11505627494196L104.59579326923077,123.46355703357213L104.84632211538461,110.86750736142208L105.05509615384616,110.64546267485127L105.13860576923076,111.05488890138568L105.3473798076923,118.91987521610045L106.30774038461539,113.97804830187061L106.4330048076923,95.72916118166279L106.4330048076923,84.77982890953813L106.64177884615385,61.95358016592047L108.18670673076923,87.01327075007298L108.39548076923077,89.99584450497207L108.43723557692309,98.13894111179032L108.47899038461539,95.19626024621358L108.5207451923077,93.13701350805239L108.5625,88.17195505953744L108.6042548076923,75.10108329787006L109.10531250000001,77.42624140176994L109.23057692307692,83.89681510969625L109.27233173076922,95.88275213277282L109.43935096153847,87.31688409182662L109.68987980769231,72.06946262208892L109.85689903846153,64.18516272655421L109.94040865384615,50.632175219911076L109.94040865384615,42.50038271592521L110.27444711538462,61.683624312128046L110.60848557692307,97.84617774146193L110.73374999999999,118.6756557263792L110.81725961538461,129.24697546108393L110.98427884615386,113.11071525704165L111.02603365384616,106.1298466039841L111.2348076923077,108.49704331627026L111.31831730769231,110.97936055679939L111.44358173076922,121.32342770075859L111.52709134615385,123.19904285098748L112.06990384615385,105.84431837504486L112.27867788461539,78.33362022765706L112.57096153846155,64.17776744907373L112.73798076923077,72.5711326520774L112.8632451923077,48.321459116432095L112.9467548076923,62.555867325401124L112.9467548076923,71.09651225078252L113.36430288461538,93.87395830860625L113.4060576923077,89.7997335039149L113.53132211538463,100.96233220457624L114.15764423076924,109.82644048236229L114.28290865384615,122.05629151214943L114.36641826923076,126.21775571164028L114.61694711538462,135.35027147740712L114.65870192307692,133.06149370658417L114.99274038461539,137.22972539469086L115.0344951923077,136.63618654502122L115.41028846153847,136.84413880287553L115.45204326923076,152.96296573193405L115.49379807692307,150.36710220636016L115.70257211538463,159.84261059358704L115.86959134615384,169.01441752847194L115.91134615384615,157.63354553790586L115.91134615384615,150.80502234356624L116.45415865384615,145.8587094775426L116.49591346153846,139.67664732210693L116.7464423076923,135.83955792506913L116.7881971153846,137.471135450425L116.82995192307692,130.6960332388067L116.87170673076923,127.45681688909367L117.12223557692307,133.20240870144417L117.49802884615384,121.62473906849027L117.91557692307693,115.58918952194708L118.08259615384615,108.06665117350263L118.2496153846154,117.55808011687525L118.333125,104.1958017715782L118.45838942307692,97.67941328081471L118.50014423076924,96.09610925274545L118.50014423076924,95.14612683590396L118.70891826923076,98.89453769056351L119.25173076923076,120.75850651555106L119.37699519230769,127.28330655770874L119.71103365384616,125.26210856356317L119.91980769230769,126.55796911166797L120.00331730769231,113.3641688610085L120.04507211538461,105.10180710398299L120.21209134615384,107.45308806691786L120.25384615384615,103.0067793540643L120.29560096153845,103.9549262629193L120.33735576923077,100.45359274964315L120.37911057692308,94.25306936923799L120.58788461538461,77.27719148872113L120.67139423076924,60.473104296806994L120.79665865384615,49.31731142952384L120.83841346153845,51.765402454263025L120.96367788461538,50.970535230926984L121.08894230769232,43.78843392638731L121.1306971153846,47.06333732766436L121.17245192307692,43.60854436537471L121.92403846153846,69.48501468911942L122.1745673076923,93.1099555015144L122.55036057692308,108.9570549740639L122.59211538461538,119.66179647696167L123.00966346153845,122.48406656926329L123.05141826923077,114.72170796757544L123.05141826923077,110.06429280656275L123.46896634615385,110.54974009882035L123.97002403846153,99.34574291291544L124.01177884615385,99.39447728351215L124.3040625,100.36050308371524L124.47108173076923,96.9718982934948L124.63810096153846,83.49771514089548L124.72161057692308,77.4861853158903L124.76336538461538,86.01614891930012L124.76336538461538,91.134127081346L125.05564903846154,85.63704468475963L125.22266826923077,98.2712213020803L125.68197115384615,108.97126678541491L125.80723557692309,127.38476593236904L125.89074519230769,131.62833290731214L126.01600961538462,147.31307865028097L126.30829326923077,148.29501470317484L126.35004807692307,153.30802871569023L126.35004807692307,156.3158371231995L126.5170673076923,143.52967169732437L126.89286057692307,129.709176598261L127.35216346153847,136.69040088682917L127.47742788461538,130.8031742865615L127.89497596153846,131.29965173177723L127.93673076923078,132.33839968492936L128.0619951923077,128.6122508476033L128.6048076923077,131.32994728469146L128.6883173076923,121.76643981169471L128.98060096153847,120.1873562553209L129.06411057692307,111.01606922041637L129.43990384615384,106.16870391060668L129.60692307692307,100.906538800205L130.06622596153846,102.37848458801685L130.14973557692306,100.35266338705007L130.14973557692306,99.13717066647006L130.2332451923077,91.53763812820945L130.275,80.84565779798064L130.35850961538463,77.45475599788661L130.8178125,78.32037077296593L131.2771153846154,89.80113787094875L131.56939903846154,117.35723930709801L131.9034375,119.46784969606776L132.11221153846154,112.78822416767416L132.44625,99.37475727765555L132.73853365384616,60.52085641923492L132.78028846153848,52.4812835183419L132.82204326923076,53.12100312107198L133.19783653846153,36.805826173890296L133.69889423076924,55.14885834165864L133.74064903846156,59.896401957522556L134.0329326923077,50.5862119012513L134.40872596153847,76.75344447706108L134.45048076923075,97.90277332053458L134.49223557692306,111.75650077602789L134.5757451923077,115.3319204428121L135.1603125,112.864968840024L135.36908653846154,126.41744237682359L135.49435096153846,133.59997558568602L135.5778605769231,136.6841127094442L135.703125,141.93343999527445L135.82838942307694,124.53455579976767L135.95365384615386,123.1912853465675L135.99540865384617,121.90908105433508L136.03716346153846,122.51667711505107L136.37120192307694,122.7186755594739L136.53822115384617,118.94692174665077L136.70524038461537,114.69958266741534L137.08103365384616,111.13975083700554L137.1645432692308,121.14164007320707L137.20629807692308,128.7384399458566L137.4568269230769,128.28278831384708L137.49858173076922,138.66092851687085L137.62384615384616,154.34491121544272L137.87437500000001,141.38254881631295L137.9996394230769,126.24732288872448L138.20841346153847,122.59098648451086L138.4171875,102.8519212565825L139.00175480769232,106.44900262328026L139.04350961538464,121.32957215309031L139.12701923076924,121.06269069764284L139.41930288461538,127.79406815727842L140.29615384615386,135.18731645603486L140.33790865384617,122.68521710318697L140.42141826923074,119.84825096941083L140.7137019230769,122.00657828193229L140.96423076923077,117.79308750591966L141.08949519230768,126.59967796091281L141.46528846153848,126.73734951508138L141.50704326923076,132.0473322174972L141.6323076923077,137.85204054191365L141.7158173076923,137.94220349795083L141.84108173076922,131.57537217803838L142.09161057692307,117.01522558521884L142.1333653846154,114.07373745049038L142.46740384615384,107.03574613108901L142.55091346153847,109.59138581822945L142.67617788461538,106.9878189722934L143.2607451923077,126.99831885036261L143.3025,124.16710890543324L143.42776442307692,135.89297160591133L143.8035576923077,130.86245870939163L143.8453125,135.3687819586687L144.01233173076923,138.8056056285049L144.1793509615385,130.23415226667998L144.388125,122.44603953688102L144.42987980769232,116.9375283817343L144.63865384615386,96.61191016285969L144.72216346153849,94.67553995882088L144.72216346153849,93.51371783639756L145.13971153846154,78.77994512638746L145.22322115384617,78.91181123213086L145.26497596153845,66.36843281213113L145.34848557692308,58.244211958812684L145.5572596153846,57.17034703842157L145.9330528846154,87.49212324687987L146.35060096153845,90.52150077794812L146.43411057692308,115.15772466238072L146.64288461538462,121.93908062337609L146.76814903846153,125.8005938378996L146.76814903846153,128.1175017666137L146.80990384615384,117.73448871491249L146.85165865384616,114.82325324077476L146.93516826923076,99.64347911435304L147.39447115384615,107.32644932863379L147.7285096153846,114.94766904857448L147.77026442307692,112.63923483384664L147.85377403846155,111.21057551280472L147.93728365384618,111.464242285379L148.10430288461538,111.22404144198491L148.2713221153846,121.63861330700728L148.31307692307692,111.44234424650692L148.52185096153846,103.05945949815555L148.64711538461538,104.24385201844284L148.6888701923077,92.65523527365717L148.8141346153846,88.18077786769547L148.85588942307692,67.76386693632752L148.89764423076923,65.99444840377923L149.1481730769231,67.01372688747094L149.1899278846154,70.50900901328676L149.2316826923077,74.88133568266392L149.7327403846154,88.98445148495782L149.8997596153846,90.0489767825365L149.98326923076922,80.41301592520105L150.3173076923077,90.27961358906896L150.52608173076922,91.28600479378545L150.52608173076922,91.88983951661534L150.56783653846153,108.22471451002323L150.69310096153845,100.56851587238685L150.8183653846154,105.51624279486467L150.98538461538462,107.53917851234871L151.06889423076925,113.98954117528672L151.23591346153844,107.02826185778687L151.3611778846154,92.08185063583366L151.61170673076924,90.04658873022065L152.15451923076924,90.30585907884878L152.5720673076923,88.77610773768421L152.65557692307692,111.90076496391664L152.73908653846155,108.04744479384024L152.73908653846155,105.73545269179444L152.90610576923078,94.08597089479228L153.24014423076923,118.5152650254344L153.4906730769231,109.82109521227662L153.6994471153846,104.15473198871031L153.86646634615386,109.49004159984281L153.99173076923077,112.79358206750987L154.49278846153845,63.147670122274604L156.45526442307693,79.10728038872115L156.78930288461538,84.71810030964414L156.9563221153846,87.34460228093572L157.4991346153846,84.69120863215653L157.9584375,93.0089824114268L158.12545673076923,93.81516368004995L158.45949519230768,95.6755084270867L158.50125,97.79453460439504L158.66826923076923,104.41362129181964L159.0440625,116.495414375943L159.0858173076923,106.82292982221564L159.5033653846154,105.52534246624562L159.54512019230768,100.75985598415434L159.586875,103.53378243299174L159.92091346153845,103.61545032604148L160.7560096153846,115.00119697345959L161.758125,106.88757491477199L161.92514423076923,91.75759800453038L162.00865384615383,94.98585970760979L162.05040865384615,97.15431901427074L162.1756730769231,91.65676240780793L162.59322115384614,85.22658208107258L162.96901442307694,81.27543486330755L163.09427884615383,90.21471133849005L163.51182692307694,93.44566974350234L163.72060096153845,98.89472484706228L165.22377403846153,99.62866791085436L165.5995673076923,82.81425232206071L165.68307692307692,87.91998226286874L165.85009615384615,75.82300606474422L166.100625,68.03785439308069L166.22588942307692,80.86441199512464L166.5181730769231,99.28898235569771L166.85221153846152,71.82294328701558L166.97747596153846,62.47428977728124L167.31151442307694,69.24585917768351L167.47853365384614,60.06907715352689L167.64555288461537,71.63030984878269L168.06310096153848,74.15935525449946L168.10485576923077,81.78353412532178L168.60591346153848,87.88861579481119L168.77293269230768,98.81100502377593L169.06521634615385,89.18040672612194L169.23223557692307,88.42548362640744L169.69153846153847,87.38810338505695L170.19259615384615,94.53026446384344L170.86067307692306,95.54422666766703L171.90454326923077,89.44043920424821L172.53086538461537,85.66872221621217L173.11543269230768,92.11374403563217L173.2824519230769,102.33951495554291L173.44947115384616,95.01795473045523L173.78350961538462,105.10072444358156L174.03403846153847,94.28007976884352L174.07579326923076,96.48876116106733L174.785625,89.39904978804684L175.16141826923075,57.83914159305965L175.41194711538463,49.962980730202545L175.74598557692306,71.90845081149217L175.87125,60.01987678057489L176.78985576923077,72.30331667866564L177.4996875,79.09176896083278L177.66670673076922,84.95560595648904L178.0007451923077,95.01160710822661L178.1260096153846,104.66773510699645L178.37653846153847,121.57237919943303L179.128125,93.50686593485604L179.2116346153846,104.44027126104936L179.96322115384618,111.76848701764594L180.13024038461538,118.36653129212729L180.25550480769232,126.02085602259407L181.00709134615386,120.45035098851186L181.17411057692308,104.0188001999386L181.46639423076923,124.36107813509571L182.00920673076922,122.1095235087262L182.25973557692308,114.83041514176514L182.8443028846154,109.96493225935632L183.34536057692307,111.41633312030255L183.63764423076924,123.54735667754386L183.9716826923077,126.22089254930123L184.30572115384615,98.88252941124672L184.34747596153846,102.67710543551534L184.55625,122.09868155223228L184.72326923076923,119.42663281218466L185.26608173076923,116.45476422732494L185.43310096153846,104.33234614024809L186.01766826923077,114.50708010934278L186.51872596153845,116.0888932236995L186.56048076923076,120.32742870226959L186.85276442307693,127.01071579357263L187.1868028846154,137.09971640269123L187.43733173076924,140.46582006222104L187.68786057692307,139.0156684938437L187.98014423076924,147.06279070756693L188.06365384615387,122.50552519782502L188.4394471153846,120.71217541118764L188.52295673076924,132.1258769175958L188.56471153846155,124.91280426394746L189.3580528846154,129.787332539546L189.4833173076923,131.8650646486605L189.8591105769231,130.3594212180775L190.40192307692308,146.21839284295916L190.86122596153845,128.2984526461566L190.9864903846154,126.61197526301501L191.40403846153845,110.92689293997816L192.0721153846154,101.46798144687942L192.53141826923078,79.68755633644766L193.2830048076923,95.54913733517965L193.7005528846154,100.5100239260611L193.7423076923077,106.35354744646322L193.95108173076923,87.99610386236202L193.99283653846155,112.8158524706501L194.2851201923077,100.06056747582782L194.45213942307694,105.94089968724387L194.49389423076923,94.43559478795203L194.53564903846151,93.62599668763151L195.4542548076923,99.73857702518247L195.49600961538462,101.84748607201222L195.66302884615385,92.9824837188129L195.74653846153845,95.44375861617819L196.12233173076925,114.07044176021952L196.28935096153847,112.22765443902057L196.4146153846154,111.95363312959842L197.50024038461538,118.46414596678584L197.5419951923077,122.55959375629882L197.91778846153846,122.20608292118247L198.04305288461538,107.13638660757731L198.21007211538463,108.4978978012856L198.33533653846152,123.89532647877077L198.75288461538463,99.13288518394349L198.79463942307694,120.33078538730604L198.83639423076926,119.4782413919394L198.87814903846152,105.02965797395595L199.08692307692309,120.10123976515385L199.33745192307694,126.38567606249276L199.50447115384614,130.24569063302508L199.58798076923077,126.32987503773616L200.25605769230768,104.27081088513121L200.50658653846153,109.2469718308812L200.54834134615385,128.90806403897926L200.8823798076923,134.1684101062745L201.13290865384616,126.1067497952254L201.67572115384615,124.85338118356958L201.96800480769232,143.54043857770986L202.38555288461538,139.99338658321926L203.47117788461537,116.97172381366043L204.43153846153848,125.4046624504611L204.72382211538462,122.38259689904923L204.97435096153848,120.48949711170734L205.0996153846154,134.07416526261963L206.3940144230769,124.29836054961281L206.4357692307692,120.38239853966306L207.10384615384615,126.11997331247903L207.14560096153846,105.48046267245914L207.56314903846155,80.92567411673224L207.68841346153846,98.91636793307757L207.77192307692306,113.89741065245086L208.23122596153848,108.0551333605554L208.4817548076923,102.2102948956275L208.60701923076923,91.5870137013876L208.77403846153848,61.858554631014314L209.52562500000002,65.4601194289563L209.5673798076923,60.97644691803481L209.73439903846153,46.92493048732203L209.85966346153847,66.72472144254216L209.94317307692307,67.24065680014164L210.52774038461538,101.84490783702245L210.6947596153846,105.62482205916989L211.1540625,113.06086448447961L211.27932692307692,118.58454803827968L212.11442307692306,106.06527145978124L212.44846153846154,68.7777443191156L212.8660096153846,81.68067869401119L212.9077644230769,102.92658223850381L213.3670673076923,106.08355601208783L214.3274278846154,107.3390803890155L214.53620192307693,106.23607809832056L215.24603365384615,87.69843038409995L216.20639423076923,81.97164570898506L216.28990384615386,73.73275927743727L217.0832451923077,78.07992726092391L217.125,108.29201073752424L217.29201923076923,98.30550652701601L217.45903846153846,102.27665819927589L218.21062500000002,124.82161183566073L218.46115384615385,117.38153384655185L218.50290865384613,103.5412853168631L220.25661057692307,107.88177521424764L220.59064903846155,126.66563747008674L220.92468749999998,135.9386543460987L220.9664423076923,135.10137977710843L221.67627403846154,124.25483060663993L222.0103125,121.67032131917742L222.21908653846154,129.61690953626052L222.38610576923077,133.8869505981004L222.84540865384614,133.5481363087698L223.34646634615382,111.86147810202998L223.47173076923076,121.7201470646689L223.5552403846154,114.27553377728238L223.72225961538462,132.1130693681539L224.05629807692307,118.5416392923892L225.6847355769231,110.78262020845219L226.56158653846154,118.42404671131973L226.8121153846154,114.83259805267858L226.85387019230768,119.90008901790267L226.9373798076923,121.40996214167569L227.56370192307693,137.87495472099823L227.85598557692308,148.93701798090368L228.81634615384615,134.24590815724352L228.9833653846154,131.7966541479232L229.44266826923078,127.93122916202952L229.5679326923077,102.13285863591956L230.27776442307692,124.31593809731703L230.52829326923077,120.09511420494724L231.07110576923077,123.85252882170855L231.90620192307694,118.52315494341391L232.28199519230768,110.56780947276592L232.8665625,100.79645172664375L232.95007211538461,111.10690465250259L233.03358173076924,107.52233611749799L233.40937499999998,107.00354654589609L233.78516826923078,124.77107375810132L234.1192067307692,124.68890421608836L234.95430288461537,135.82713265497006L235.0378125,131.00073053286752L235.16307692307694,123.94994320579136L235.24658653846154,125.19174341714707L235.49711538461537,118.02637504390175L235.99817307692308,115.70463365269143L236.03992788461537,110.81454641865157L236.33221153846154,106.96262290910266L236.45747596153848,107.05787010334825L236.66625,94.63740211432915L236.95853365384616,106.30110715775142L237.0420432692308,108.43419018986226L239.17153846153846,105.43570536916228L239.63084134615386,129.65517711235614L239.75610576923077,134.19950982023727L239.9648798076923,141.14405116045148L240.2989182692308,124.95593433367412L240.63295673076922,115.05009659571604L240.79997596153848,127.84365187534914L240.8417307692308,117.32162326705489L240.9252403846154,121.48875726142748L241.0505048076923,128.61010921070175L241.34278846153848,131.59191562566346L241.5098076923077,128.33183065114665L241.6768269230769,124.94330849044805L242.0526201923077,111.42327959054185L242.094375,94.4512386514801L242.30314903846153,113.01940366478614L242.47016826923075,117.66371754435482L242.51192307692307,115.3170957246754L243.1382451923077,126.64801371019915L244.3908894230769,116.64673211358259L244.43264423076923,117.3120912912093L244.9337019230769,122.27628406430065L245.22598557692308,106.49637816202508L245.4347596153846,115.68105079803485L246.0193269230769,140.5789841907969L246.3951201923077,130.6724272089601L247.02144230769233,114.15770557597519L247.4807451923077,103.49833034106572L247.77302884615386,109.29223029690078L247.81478365384618,119.19005288723034L247.94004807692306,108.4845129845118L248.19057692307692,118.02041975808265L249.31795673076923,129.81122896782662" style="fill: none;" fill="none"></path></g></g></g></g><g opacity="0.20000000298023224"><g><g><g><path stroke="rgb(255, 112, 67)" stroke-width="2px" d="M23.507956730769234,-35.31872911461522L24.092524038461537,25.305732982440134L24.176033653846154,17.786707890737404L24.343052884615386,19.75436542928219L24.59358173076923,8.081442444895686L24.677091346153848,22.094061283808628L24.718846153846155,13.251173352615695L24.84411057692308,42.91060022720032L25.637451923076924,32.36171228469661L25.762716346153848,51.58819668119153L26.055,87.13452044170765L26.180264423076924,97.52906960197207L26.305528846153845,114.70530960677813L26.43079326923077,151.8611201149308L26.556057692307693,122.12782143480663L26.973605769230772,122.24594566112178L27.30764423076923,88.85206200254875L27.349399038461538,134.20393314181518L27.51641826923077,143.0061312223681L27.766947115384614,100.73782647049262L27.933966346153845,134.49927315033145L28.100985576923076,175.39993372559547L28.43502403846154,118.75103491534375L28.518533653846156,101.29447069350218L29.64591346153846,106.07661752464871L29.68766826923077,121.94071289586525L30.021706730769232,135.77511489981165L30.10521634615385,98.35293602788201L30.146971153846152,119.19726890687727L30.481009615384615,116.16876042158239L30.52276442307692,115.74613949822056L30.564519230769232,133.61537300122694L30.77329326923077,103.08358752706813L31.107331730769232,78.11956920578248L31.14908653846154,77.77049621794788L31.608389423076925,63.81487850120497L31.942427884615384,84.08999511216663L32.067692307692305,67.67800000827347L32.61050480769231,126.99231957727008L32.81927884615385,169.61741131181932L32.94454326923077,127.5809091605867L33.1115625,141.42620497403874L33.1115625,141.42620497403874L33.44560096153846,154.3967278841883L33.82139423076923,103.80257895444004L33.863149038461536,112.05543460862505L34.113677884615385,144.8122365102172L34.238942307692305,141.67761643179176L34.28069711538462,140.22185016909822L34.32245192307692,150.3498837519437L34.364206730769226,152.7413693657145L34.40596153846154,138.74597452291184L34.65649038461538,145.49889982181293L34.86526442307692,146.0222443190093L35.115793269230764,171.3664271493132L35.24105769230769,123.08288465843847L35.78387019230769,146.2506610058869L35.86737980769231,154.15046890390417L35.95088942307692,114.97200184056743L35.95088942307692,114.97200184056743L36.11790865384615,130.6663598825948L36.284927884615385,111.08971311731472L36.3684375,111.8046120054399L36.45194711538461,133.94645648201308L36.57721153846154,132.92820916324854L36.660721153846154,162.12161653281916L36.82774038461539,110.76896403419475L36.91125,132.28111687861383L36.95300480769231,108.65256183180546L36.99475961538461,113.61625252622699L37.161778846153844,142.19065597405037L37.245288461538465,97.29025963197152L37.28704326923077,87.69952639958096L37.41230769230769,140.9492622167907L37.454062500000006,126.37581828743635L37.53757211538461,136.12804488506583L37.62108173076923,162.77439126403382L37.746346153846154,181.01536865573792L37.746346153846154,181.01536865573792L38.247403846153844,154.49689204618335L38.330913461538465,132.7745181210339L38.99899038461539,157.41378314813807L39.16600961538462,112.4729324972464L39.29127403846154,121.34844297149944L39.58355769230769,104.0670924263282L39.66706730769231,124.58025349635219L39.792331730769234,116.91372033539747L39.834086538461534,119.62839877874487L39.95935096153846,126.19165402133433L40.00110576923077,151.98613393969006L40.29338942307692,117.774360729071L40.33514423076923,102.8557596947584L40.54391826923077,156.6789515328904L40.58567307692308,164.19791773913636L40.794447115384614,106.55264755731656L40.877956730769235,93.24850909173902L40.96146634615384,129.17579231494003L41.128485576923076,148.4620160073456L41.17024038461538,111.0690443219824L41.29550480769231,106.52273374526865L41.29550480769231,106.52273374526865L41.42076923076923,162.35515625443725L41.7965625,155.02144369524387L41.83831730769231,153.83917093659855L42.04709134615384,154.90087572247205L42.67341346153846,157.06070594924194L42.92394230769231,153.26910082944153L43.04920673076923,172.71128265414802L43.13271634615384,159.44786348193884L43.174471153846156,143.63064093432493L43.25798076923077,175.0755631868831L43.3832451923077,184.58712492262325L43.466754807692304,148.2593617078124L43.675528846153846,139.16382572427392L43.800793269230766,154.23655944172708L43.92605769230769,136.24964335333144L44.13483173076923,105.87935124441154L44.21834134615384,107.7187562580738L45.01168269230769,41.481567961888175L45.09519230769231,65.48192578285105L45.09519230769231,65.48192578285105L45.136947115384615,97.39731339241068L45.512740384615384,90.48242364461638L45.76326923076923,75.05069473985998L45.76326923076923,75.05069473985998L45.88853365384615,83.03438497107064L46.05555288461539,69.37884754211538L46.598365384615384,106.24897525666489L46.84889423076923,124.96259676727156L47.05766826923077,166.92878968310026L47.14117788461539,146.66954270274275L47.182932692307695,124.80278163755106L47.60048076923077,146.54918082906968L47.72574519230769,103.06509749363696L47.892764423076926,129.44475163881563L48.01802884615385,106.38323409813975L48.35206730769231,108.251139672887L48.393822115384616,84.81478675703208L48.64435096153846,87.96801463980228L48.68610576923077,110.4757733448512L48.76961538461538,117.84266785894417L48.76961538461538,117.84266785894417L49.77173076923077,76.9923837919616L49.855240384615385,97.17507967849573L49.89699519230769,144.65713221703967L49.93875,91.58467106748786L50.39805288461538,147.08648117952464L50.64858173076924,160.05579693781004L50.69033653846154,105.66227000796547L50.77384615384616,136.7320330153323L50.857355769230765,157.11446837128864L50.940865384615385,113.92899318722388L51.441923076923075,100.41554636549618L51.48367788461538,142.74880177620798L51.69245192307692,133.00010830598575L51.85947115384616,146.99102785407257L51.942980769230765,111.76895686135524L51.98473557692308,131.8851710671766L52.36052884615385,154.08063075215452L52.6528125,118.63815149468266L52.73632211538462,93.43753140802599L53.27913461538461,81.24161723918385L53.61317307692308,82.8263426522414L53.61317307692308,82.8263426522414L53.947211538461545,111.28659664208277L54.03072115384615,139.77808936674975L54.364759615384614,79.18306999808799L54.364759615384614,79.18306999808799L54.65704326923077,-18.78634269432058L54.824062500000004,10.25405081578839L54.949326923076924,-5.870818800810326L55.03283653846154,13.018428584664235L55.11634615384615,-14.507607633247972L55.19985576923077,0.4887810894805682L55.28336538461539,40.37078214778256L55.53389423076923,41.11630147343709L55.70091346153846,77.7588663402324L55.82617788461539,120.41234086495308L55.99319711538461,78.92983309117457L56.160216346153845,111.17992563711273L56.24372596153846,139.68649303871726L56.28548076923077,87.92770754463143L56.32723557692307,104.06738685361213L56.410745192307694,114.81468934276037L56.536009615384614,127.88178440204098L56.744783653846156,97.71123176254333L56.95355769230769,155.74838465928204L57.03706730769231,150.46591754454292L57.07882211538462,154.04200189250213L57.12057692307692,145.7292597287645L57.24584134615385,125.01524036563933L57.28759615384615,145.9305596627916L57.32935096153846,147.30144253952636L57.32935096153846,147.30144253952636L57.746899038461535,145.08593611336417L57.91391826923077,150.437946952569L58.03918269230769,158.62258380506603L58.20620192307692,130.5631925623036L58.20620192307692,130.5631925623036L58.41497596153846,142.10271054433866L58.54024038461538,102.75350509904739L58.99954326923077,92.68155991379173L59.083052884615384,117.15329581633625L59.29182692307692,127.64153173834913L59.37533653846154,105.70198824856845L59.54235576923077,103.8805727419547L59.83463942307692,93.63515100100389L59.87639423076923,87.43683837685322L60.00165865384616,125.40258890038564L60.043413461538464,101.44668959929712L60.75324519230769,80.37076021875774L60.878509615384615,94.44408996361827L61.254302884615385,134.7518328744918L61.29605769230769,89.84060160836412L61.463076923076926,101.5011292040969L61.504831730769226,100.19366596432197L61.54658653846154,64.00080933101063L61.92237980769231,105.77612503866355L62.214663461538464,112.32701433532768L62.25641826923077,140.55104931526714L62.63221153846154,112.60831016240022L62.715721153846154,130.10367990026458L62.88274038461539,105.45511097098804L63.25853365384615,99.32975742779674L63.38379807692307,123.82657853493261L63.88485576923077,105.60002808014139L64.13538461538461,132.29036189532943L64.13538461538461,132.29036189532943L64.21889423076924,158.7695324624785L64.21889423076924,158.7695324624785L64.26064903846154,95.75122933338086L64.30240384615385,94.75241421535613L64.38591346153846,120.17791786148317L64.46942307692308,73.44571272966763L64.6364423076923,53.37186661000467L64.92872596153846,53.3459864517467L65.6385576923077,121.67896704044608L65.72206730769231,116.29118328624301L65.76382211538461,115.65943066310138L65.88908653846154,115.4819793390731L66.05610576923077,123.24682177013408L66.30663461538461,143.9798611358015L66.51540865384615,149.49492580485014L66.55716346153847,118.07235058314271L66.59891826923077,110.3320928302904L66.64067307692308,148.4936963830971L66.72418269230769,111.34748420440076L66.76593749999999,81.61277227331368L66.93295673076923,77.88667722418904L67.01646634615385,71.57309631837738L67.30875,47.829773516290714L67.43401442307692,55.99957123367737L67.55927884615384,51.87443888663418L67.55927884615384,51.87443888663418L67.60103365384616,64.359215663746L67.68454326923077,60.99167416099874L67.76805288461539,66.14000020517658L67.76805288461539,66.14000020517658L67.93507211538461,56.364337195745776L67.97682692307693,66.12024413442445L68.10209134615384,66.55608484283505L68.47788461538461,117.7693849079725L68.68665865384615,86.33182333751272L68.81192307692308,80.80398052434127L68.93718750000001,106.62148465630082L69.0206971153846,131.5572085156002L69.27122596153845,102.15631823903985L69.31298076923076,134.00928726440503L69.81403846153846,71.90730072837323L70.0228125,70.26669301682463L70.35685096153846,111.93530827677912L70.73264423076924,125.36113353880744L70.77439903846154,82.90993055815083L70.81615384615385,155.02050152793527L71.02492788461538,130.59010321605538L71.10843750000001,119.97859059025845L71.48423076923076,98.31960685934044L71.73475961538462,108.06894806958736L71.90177884615385,99.72446664464142L72.02704326923077,119.2644572130715L72.02704326923077,119.2644572130715L72.06879807692309,103.50856386870147L72.11055288461537,70.6818649299029L72.2358173076923,110.30244400279804L72.736875,96.72066060846879L72.7786298076923,130.2924961174528L72.98740384615385,98.11503878246165L73.02915865384617,128.18092252252004L73.11266826923077,110.5941919984503L73.40495192307692,107.98930548928266L73.53021634615385,121.41086155569388L73.73899038461538,114.08892608785796L74.03127403846153,126.35924203135073L74.11478365384615,96.4133962949531L74.15653846153846,112.83154492908054L74.44882211538462,105.2503662377389L74.69935096153846,86.15878842274348L74.9498798076923,22.27236644696032L75.15865384615385,8.25692110612161L75.28391826923077,48.71264316990144L75.61795673076922,38.01895588915795L75.74322115384615,71.74139095387525L75.78497596153846,48.03654979779904L75.95199519230769,120.2409253002455L76.07725961538462,59.62347057254779L76.20252403846153,88.78443205542862L76.28603365384615,97.39057100760854L76.78709134615386,141.9566157260496L76.91235576923077,98.8089450052422L77.0376201923077,125.23523643219637L77.28814903846154,150.88865623881833L77.45516826923077,107.53108830729293L77.74745192307691,166.38674905337393L77.99798076923078,133.909947498805L78.08149038461538,135.75906861283713L78.37377403846155,158.49642171389942L78.37377403846155,158.49642171389942L78.41552884615385,110.00421860689919L79.08360576923077,112.243632528517L79.12536057692307,147.83132332242613L79.12536057692307,147.83132332242613L79.29237980769231,97.17687568492775L79.50115384615384,106.50035727168952L79.83519230769231,81.29944275774889L79.91870192307692,73.4652038158642L80.54502403846155,74.47638487981426L80.8373076923077,-28.964723342719168L81.21310096153846,-3.429427762412331L81.33836538461539,7.313458317476858L81.421875,19.89957696571946L81.75591346153847,14.381008611992002L81.79766826923077,55.37747582544884L81.83942307692307,78.89494345802814L82.08995192307692,122.13609484148523L82.46574519230768,130.80580064426695L82.79978365384615,151.34769781720308L82.96680288461539,130.9501877843092L83.46786057692307,119.68151346076695L83.63487980769231,141.58631453104317L83.67663461538461,153.6624556807801L83.71838942307691,170.33713880740106L83.80189903846154,140.05025794802026L83.84365384615384,142.54128942648984L84.05242788461538,153.03576720692217L84.1359375,145.45503015650644L84.30295673076924,132.98450365993713L84.34471153846152,109.86018477959766L84.84576923076924,135.63755847275672L84.92927884615385,120.2998107570327L84.97103365384616,112.2716620059477L85.3050721153846,94.58694608178403L85.55560096153846,75.22408296736992L86.05665865384616,85.04697211314408L86.34894230769231,97.83359574174716L86.39069711538461,68.8343926086608L86.51596153846154,78.49708386924533L86.64122596153845,121.22737447234492L86.72473557692308,119.49684866828224L86.8082451923077,110.00068547949196L86.85000000000001,92.18176959931023L87.18403846153845,109.72286389436988L87.55983173076923,97.75887009708418L87.60158653846153,157.87308971107834L87.72685096153846,91.38237008069538L87.81036057692307,109.73782080039383L88.31141826923077,51.42661498776741L88.35317307692308,81.2860757590582L88.5201923076923,61.35252424019079L88.56194711538461,60.2649687387877L88.60370192307693,51.49165397478889L88.64545673076924,57.944057344976414L88.64545673076924,57.944057344976414L89.18826923076924,17.959978347333788L89.35528846153846,38.99368685535674L89.85634615384616,-13.11537877842784L90.02336538461537,-16.947762077053397L90.31564903846153,22.067916140995095L90.35740384615384,43.87261193473307L90.44091346153846,46.15504168253392L90.6914423076923,55.0359107333546L91.31776442307692,126.52668282772518L91.35951923076922,102.69288252128496L91.40127403846154,56.55447833571171L91.56829326923078,109.01461906286164L91.90233173076922,130.2541911278127L92.02759615384615,109.32526929014259L92.48689903846154,71.09444588288252L92.52865384615384,101.95778592148176L92.65391826923077,100.33434332058661L92.8626923076923,122.80762459068663L92.90444711538461,131.48224732911007L93.02971153846154,124.90129700675607L93.07146634615385,118.81554393325416L93.19673076923077,101.83680575051241L93.3219951923077,62.4675203644567L93.44725961538462,102.26655181414552L93.53076923076922,100.21386367599999L93.86480769230769,80.9226347197675L94.11533653846153,109.15626802916329L94.19884615384615,82.9050430652375L94.32411057692308,80.1752016167674L94.65814903846154,91.09833607988226L94.69990384615386,64.73254945977695L94.82516826923077,97.52930514379923L94.90867788461539,96.65332508863261L95.24271634615386,125.18662648761853L95.61850961538462,116.0260220743302L96.0360576923077,121.30339559705722L96.41185096153846,70.8798672783499L96.45360576923078,70.36285296775816L96.49536057692308,29.522756084799767L96.53711538461539,43.764586564256916L96.62062499999999,49.960219900123775L96.95466346153846,74.64944923731188L97.20519230769231,100.026784579787L97.20519230769231,100.026784579787L97.49747596153847,129.6637466526073L98.12379807692308,147.63496976676916L98.1655528846154,120.41993708887863L98.66661057692308,148.38985188005284L98.75012019230769,118.32258433175998L98.79187499999999,138.62375775734998L98.91713942307692,101.08642837467293L98.95889423076923,98.79498915198363L99.00064903846155,87.41281311048401L99.20942307692307,84.49362547571461L99.3346875,101.95719706691389L99.62697115384616,57.72058703646891L99.79399038461538,-6.162831781018127L100.04451923076924,29.023407411244193L100.08627403846154,46.116972234721004L100.16978365384615,35.34270020636421L100.4203125,87.57889954135237L100.50382211538461,99.95780026716076L100.58733173076924,118.92424648648336L100.62908653846155,66.98530093735705L100.83786057692308,105.22778366506101L100.92137019230769,136.5417446617244L101.54769230769232,91.75855982138052L101.63120192307692,70.55932429432869L101.79822115384616,97.6598247587681L102.34103365384615,70.09342256022823L102.5080528846154,74.83381960251265L102.71682692307692,64.17219545298981L102.88384615384615,90.15761146497809L103.00911057692308,95.63799259997906L103.09262019230769,112.37500598260927L103.34314903846153,102.77249565886127L103.46841346153846,103.70656621714848L103.59367788461539,156.05199807447693L104.05298076923077,149.61755476860952L104.26175480769231,159.53966590907012L104.38701923076924,118.28480931123099L104.55403846153845,114.70551570587688L104.59579326923077,119.48630817151732L104.84632211538461,91.97343285319707L105.05509615384616,110.31239564499508L105.13860576923076,111.66902824118735L105.3473798076923,130.71735468817255L106.30774038461539,106.56530793052582L106.4330048076923,68.35583050135111L106.4330048076923,68.35583050135111L106.64177884615385,27.714207050494025L108.18670673076923,124.60280662630169L108.39548076923077,94.46970513732069L108.43723557692309,110.35358602201774L108.47899038461539,90.78223894784848L108.5207451923077,90.04814340081067L108.5625,80.72436738676495L108.6042548076923,55.49477565536897L109.10531250000001,80.9139785576198L109.23057692307692,93.60267567158573L109.27233173076922,113.8616576673877L109.43935096153847,74.46808203040726L109.68987980769231,49.198330417482396L109.85689903846153,52.35871288325225L109.94040865384615,30.302693959946453L109.94040865384615,30.302693959946453L110.27444711538462,90.45848670643237L110.60848557692307,152.0900078854627L110.73374999999999,149.91987270375506L110.81725961538461,145.10395506314106L110.98427884615386,88.90632495097816L111.02603365384616,95.65854362439778L111.2348076923077,112.0478383846995L111.31831730769231,114.70283641759306L111.44358173076922,136.83952841669736L111.52709134615385,126.01246557633083L112.06990384615385,79.812231661131L112.27867788461539,37.067573006575316L112.57096153846155,42.94398828119867L112.73798076923077,85.16118045658288L112.8632451923077,11.94694881296408L112.9467548076923,83.90747963885467L112.9467548076923,83.90747963885467L113.36430288461538,128.0401273953418L113.4060576923077,83.68839629687784L113.53132211538463,117.7062302555682L114.15764423076924,123.12260289904145L114.28290865384615,140.4010680568301L114.36641826923076,132.4599520108766L114.61694711538462,149.04904512605734L114.65870192307692,129.62832705034978L114.99274038461539,143.48207292685078L115.0344951923077,135.7458782705168L115.41028846153847,137.15606718965702L115.45204326923076,177.14120612552185L115.49379807692307,146.47330691799937L115.70257211538463,174.0558731744273L115.86959134615384,182.77212793079931L115.91134615384615,140.56223755205673L115.91134615384615,140.56223755205673L116.45415865384615,138.43924017850725L116.49591346153846,130.40355408895348L116.7464423076923,130.08392382951246L116.7881971153846,139.91850173845887L116.82995192307692,120.5333799213792L116.87170673076923,122.59799236452415L117.12223557692307,141.82079641996987L117.49802884615384,104.2582346190595L117.91557692307693,106.53586520213221L118.08259615384615,96.7828436508361L118.2496153846154,131.79522353193414L118.333125,84.1523842536327L118.45838942307692,87.90483054466961L118.50014423076924,93.72115321064162L118.50014423076924,93.72115321064162L118.70891826923076,104.51715397255289L119.25173076923076,153.55445975303238L119.37699519230769,137.0705066209452L119.71103365384616,122.23031157234477L119.91980769230769,128.50175993382518L120.00331730769231,93.57346848501928L120.04507211538461,92.70826446844472L120.21209134615384,110.98000951132013L120.25384615384615,96.33731628478401L120.29560096153845,105.37714662620178L120.33735576923077,95.20159247972899L120.37911057692308,84.95228429863023L120.58788461538461,51.81337466794585L120.67139423076924,35.26697350893585L120.79665865384615,32.58362212859922L120.83841346153845,55.437538991371795L120.96367788461538,49.77823439592288L121.08894230769232,33.0152819695779L121.1306971153846,51.975692429579794L121.17245192307692,38.426354921940316L121.92403846153846,108.29972017473645L122.1745673076923,128.54736672010688L122.55036057692308,132.7277041828881L122.59211538461538,135.71890873130826L123.00966346153845,126.71747170771576L123.05141826923077,103.07817006504371L123.05141826923077,103.07817006504371L123.46896634615385,111.27791103720666L123.97002403846153,82.539747134058L124.01177884615385,99.4675788394072L124.3040625,101.80954178401994L124.47108173076923,91.8889911081642L124.63810096153846,63.28644041199652L124.72161057692308,68.46889057838254L124.76336538461538,98.81109432441494L124.76336538461538,98.81109432441494L125.05564903846154,77.39142108988017L125.22266826923077,117.22248622806123L125.68197115384615,125.0213350104168L125.80723557692309,155.00501465280024L125.89074519230769,137.99368336972677L126.01600961538462,170.84019726473426L126.30829326923077,149.76791878251566L126.35004807692307,160.8275497344633L126.35004807692307,160.8275497344633L126.5170673076923,124.35042355851166L126.89286057692307,108.9784339496659L127.35216346153847,147.1622373196814L127.47742788461538,121.97233438615999L127.89497596153846,132.04436789960084L127.93673076923078,133.8965216146575L128.0619951923077,123.02302759161427L128.6048076923077,135.4064919403237L128.6883173076923,107.4211786021996L128.98060096153847,117.81873092076017L129.06411057692307,97.25913866805948L129.43990384615384,98.89765594589214L129.60692307692307,93.0132911346025L130.06622596153846,104.58640326973466L130.14973557692306,97.31393158559999L130.14973557692306,97.31393158559999L130.2332451923077,80.13833932081859L130.275,64.80768730263745L130.35850961538463,72.36840329774552L130.8178125,79.61879293558499L131.2771153846154,107.02228851792299L131.56939903846154,158.69139146132187L131.9034375,122.63376527952238L132.11221153846154,102.76878587508368L132.44625,79.25455694262766L132.73853365384616,2.2400051316039367L132.78028846153848,40.42192416700226L132.82204326923076,54.080582525167216L133.19783653846153,12.333060753117849L133.69889423076924,82.66340659331118L133.74064903846156,67.01771738131842L134.0329326923077,36.620926816844275L134.40872596153847,116.00429334077572L134.45048076923075,129.62676658574492L134.49223557692306,132.53709195926785L134.5757451923077,120.6950499429885L135.1603125,109.1645414358419L135.36908653846154,146.7461526820229L135.49435096153846,144.3737753989796L135.5778605769231,141.3103183950815L135.703125,149.80743092401988L135.82838942307694,98.43622950650753L135.95365384615386,121.17637966676719L135.99540865384617,119.98577461598649L136.03716346153846,123.42807120612513L136.37120192307694,123.02167322610816L136.53822115384617,113.28929102741597L136.70524038461537,108.32857404856219L137.08103365384616,105.80000309139078L137.1645432692308,136.14447392750947L137.20629807692308,140.13363975483097L137.4568269230769,127.5993108658327L137.49858173076922,154.2281388214065L137.62384615384616,177.8708852633006L137.87437500000001,121.93900521761842L137.9996394230769,103.54448399734166L138.20841346153847,117.10648187819041L138.4171875,73.24332341468997L139.00175480769232,111.84462467332682L139.04350961538464,143.65042644780544L139.12701923076924,120.66236851447158L139.41930288461538,137.89113434673183L140.29615384615386,146.27718890416955L140.33790865384617,103.93206807391512L140.42141826923074,115.59280176874665L140.7137019230769,125.24406925071446L140.96423076923077,111.47285134190074L141.08949519230768,139.80956364340253L141.46528846153848,126.94385684633421L141.50704326923076,140.0123062711209L141.6323076923077,146.55910302853835L141.7158173076923,138.07744793200658L141.84108173076922,122.02512519816972L142.09161057692307,95.17500569598957L142.1333653846154,109.6615052483976L142.46740384615384,96.4787591519869L142.55091346153847,113.42484534894012L142.67617788461538,103.08246870338918L143.2607451923077,157.01406866746646L143.3025,119.9202939880391L143.42776442307692,153.48176565662854L143.8035576923077,123.3166893646121L143.8453125,142.1282668325843L144.01233173076923,143.96084113325924L144.1793509615385,117.37697222394249L144.388125,110.76387044218265L144.42987980769232,108.67476164901423L144.63865384615386,66.12348283454776L144.72216346153849,91.77098465276262L144.72216346153849,91.77098465276262L145.13971153846154,56.67928606137221L145.22322115384617,79.10961039074593L145.26497596153845,47.55336518213153L145.34848557692308,46.05788067883503L145.5572596153846,55.55954965783489L145.9330528846154,132.97478755956723L146.35060096153845,95.06556707455053L146.43411057692308,152.11206048902952L146.64288461538462,132.11111456486915L146.76814903846153,131.59286365968487L146.76814903846153,131.59286365968487L146.80990384615384,102.15996913736066L146.85165865384616,110.45640002956821L146.93516826923076,76.87381792472056L147.39447115384615,118.85090465005487L147.7285096153846,126.37949862848555L147.77026442307692,109.17658351175488L147.85377403846155,109.06758653124174L147.93728365384618,111.84474244424038L148.10430288461538,110.86374017689378L148.2713221153846,137.26047110454076L148.31307692307692,96.14794065575634L148.52185096153846,90.48513237562858L148.64711538461538,106.02044079887371L148.6888701923077,75.27231015647865L148.8141346153846,81.46909175875287L148.85588942307692,37.138500539275526L148.89764423076923,63.340320604956815L149.1481730769231,68.54264461300855L149.1899278846154,75.75193220201052L149.2316826923077,81.43982568672962L149.7327403846154,110.13912518839871L149.8997596153846,91.6457647289046L149.98326923076922,65.95907463919787L150.3173076923077,105.0795100848708L150.52608173076922,92.79559160086016L150.52608173076922,92.79559160086016L150.56783653846153,132.72702700013502L150.69310096153845,89.08421791593234L150.8183653846154,112.93783317858147L150.98538461538462,110.57358208857478L151.06889423076925,123.66508516969367L151.23591346153844,96.58634288153715L151.3611778846154,69.66223380290387L151.61170673076924,86.99369587180101L152.15451923076924,90.69476460179108L152.5720673076923,86.48148072593742L152.65557692307692,146.58775080326532L152.73908653846155,102.26746453872572L152.73908653846155,102.26746453872572L152.90610576923078,76.61174819928905L153.24014423076923,155.15920622139757L153.4906730769231,96.77984049253993L153.6994471153846,95.65518715336091L153.86646634615386,117.4930060165417L153.99173076923077,117.74889276901054L154.49278846153845,-11.321197795578144L156.45526442307693,103.04669578839095L156.78930288461538,93.13433019102862L156.9563221153846,91.28435523787307L157.4991346153846,80.71111815898783L157.9584375,105.48564308033221L158.12545673076923,95.02443558298465L158.45949519230768,98.46602554764186L158.50125,100.97307387035754L158.66826923076923,114.34225132295656L159.0440625,134.61810400212806L159.0858173076923,92.31420299162468L159.5033653846154,103.57896143229058L159.54512019230768,93.61162626101739L159.586875,107.69467210624782L159.92091346153845,103.73795216561606L160.7560096153846,132.07981694458675L161.758125,94.71714182674057L161.92514423076923,69.06263263916803L162.00865384615383,99.8282522622289L162.05040865384615,100.40700797426204L162.1756730769231,83.41042749811379L162.59322115384614,75.58131159096956L162.96901442307694,75.34871403666007L163.09427884615383,103.62362605126368L163.51182692307694,98.2921073510208L163.72060096153845,107.0683075024022L165.22377403846153,100.72958250654241L165.5995673076923,57.592628938870305L165.68307692307692,95.57857717408075L165.85009615384615,57.67754176755747L166.100625,56.36012688558549L166.22588942307692,100.10424839819058L166.5181730769231,126.92583789655733L166.85221153846152,30.623884683992316L166.97747596153846,48.451309512679785L167.31151442307694,79.40321327828698L167.47853365384614,46.30390411729201L167.64555288461537,88.97215889166628L168.06310096153848,77.95292336307466L168.10485576923077,93.21980243155527L168.60591346153848,97.04623829904531L168.77293269230768,115.1945888672231L169.06521634615385,74.73450927964102L169.23223557692307,87.29309897683561L169.69153846153847,85.83203302303123L170.19259615384615,105.24350608202319L170.86067307692306,97.06516997340239L171.90454326923077,80.28475800912L172.53086538461537,80.0111467341582L173.11543269230768,101.78127676476207L173.2824519230769,117.67817133540909L173.44947115384616,84.03561439282365L173.78350961538462,120.22487901327096L174.03403846153847,78.04911275673658L174.07579326923076,99.80178324940304L174.785625,78.76448272851607L175.16141826923075,10.499279300578763L175.41194711538463,38.14873943591698L175.74598557692306,104.8266559334265L175.87125,42.187015734199036L176.78985576923077,90.72847652580177L177.4996875,89.27444738408344L177.66670673076922,93.75136144997346L178.0007451923077,110.09560883583295L178.1260096153846,119.15192710515112L178.37653846153847,146.92934533808796L179.128125,51.40859603799052L179.2116346153846,120.84037925033934L179.96322115384618,122.7608106525408L180.13024038461538,128.26359770384929L180.25550480769232,137.50234311829425L181.00709134615386,112.09459343738855L181.17411057692308,79.37147401707868L181.46639423076923,154.87449503783137L182.00920673076922,118.73219156917185L182.25973557692308,103.91175259132353L182.8443028846154,102.66670793574305L183.34536057692307,113.59343441172193L183.63764423076924,141.74389201340577L183.9716826923077,130.2311963569373L184.30572115384615,57.87498470416499L184.34747596153846,108.36896947191822L184.55625,151.23104572730762L184.72326923076923,115.41855970211327L185.26608173076923,111.99696135003535L185.43310096153846,86.14871900963287L186.01766826923077,129.7691810629848L186.51872596153845,118.4616128952346L186.56048076923076,126.68523192012476L186.85276442307693,137.03564643052718L187.1868028846154,152.23321731636923L187.43733173076924,145.51497555151582L187.68786057692307,136.84044114127755L187.98014423076924,159.1334740281519L188.06365384615387,85.66962693321209L188.4394471153846,118.02215073123162L188.52295673076924,149.24642917720809L188.56471153846155,114.09319528347503L189.3580528846154,137.09912495294378L189.4833173076923,134.98166281233233L189.8591105769231,128.100956072203L190.40192307692308,170.00685028028158L190.86122596153845,101.41854235095283L190.9864903846154,124.08225918830269L191.40403846153845,87.39926945542297L192.0721153846154,87.27961420723133L192.53141826923078,47.01691867080001L193.2830048076923,119.34150883327757L193.7005528846154,107.95135381238329L193.7423076923077,115.11883272706635L193.95108173076923,60.45993848621018L193.99283653846155,150.0454753830822L194.2851201923077,80.92763998359442L194.45213942307694,114.76139800436795L194.49389423076923,77.17763743901419L194.53564903846151,92.41159953715074L195.4542548076923,108.90744753150891L195.49600961538462,105.0108496422569L195.66302884615385,79.68498018901383L195.74653846153845,99.13567096222606L196.12233173076925,142.0104664762815L196.28935096153847,109.4634734572222L196.4146153846154,111.54260116546519L197.50024038461538,128.229915222567L197.5419951923077,128.70276544056833L197.91778846153846,121.67581666850796L198.04305288461538,84.53184213716952L198.21007211538463,110.54016459184803L198.33533653846152,146.99146949499846L198.75288461538463,61.98922324170255L198.79463942307694,152.12763569234974L198.83639423076926,118.19942539888953L198.87814903846152,83.35678284698062L199.08692307692309,142.70861245195073L199.33745192307694,135.81233050850116L199.50447115384614,136.03571248882346L199.58798076923077,120.45615164480276L200.25605769230768,71.18221465622386L200.50658653846153,116.71121324950623L200.54834134615385,158.39970235112642L200.8823798076923,142.05892920721737L201.13290865384616,114.01425932865178L201.67572115384615,122.97332826608586L201.96800480769232,171.5710246689204L202.38555288461538,134.67280859148337L203.47117788461537,82.43922965932225L204.43153846153848,138.05407040566206L204.72382211538462,117.84949857193149L204.97435096153848,117.64984743069445L205.0996153846154,154.4511674889881L206.3940144230769,109.63465348010263L206.4357692307692,114.50845552473848L207.10384615384615,134.72633547170295L207.14560096153846,74.52119671242933L207.56314903846155,44.0934912831419L207.68841346153846,125.90240865759552L207.77192307692306,136.36897473151072L208.23122596153848,99.2917174227122L208.4817548076923,93.4430371982356L208.60701923076923,75.65209191002779L208.77403846153848,17.26586602545447L209.52562500000002,70.86246662586927L209.5673798076923,54.25093815165262L209.73439903846153,25.847655841252873L209.85966346153847,96.42440787537231L209.94317307692307,68.0145598365408L210.52774038461538,153.75128439234362L210.6947596153846,111.29469339239101L211.1540625,124.21492812244429L211.27932692307692,126.87007336897983L212.11442307692306,87.28635659203348L212.44846153846154,12.846453608117173L212.8660096153846,101.03508025635448L212.9077644230769,134.79543755524276L213.3670673076923,110.81901667246389L214.3274278846154,109.22236695440694L214.53620192307693,104.5815746622781L215.24603365384615,59.891958812769104L216.20639423076923,73.38146869631278L216.28990384615386,61.37442963011563L217.0832451923077,84.60067923615377L217.125,153.61013595242468L217.29201923076923,83.32575021125376L217.45903846153846,108.23338570766566L218.21062500000002,158.63904229023805L218.46115384615385,106.22141686288847L218.50290865384613,82.78091252233006L220.25661057692307,114.39251006032444L220.59064903846155,154.84143085384534L220.92468749999998,149.84817966011664L220.9664423076923,133.845467923623L221.67627403846154,107.98500685093718L222.0103125,117.79355738798364L222.21908653846154,141.53679186188512L222.38610576923077,140.2920121908602L222.84540865384614,133.0399148747739L223.34646634615382,79.33149079192017L223.47173076923076,136.5081505086273L223.5552403846154,103.1086138462027L223.72225961538462,158.86937275446124L224.05629807692307,98.18449417874218L225.6847355769231,99.14409158254664L226.56158653846154,129.886186465621L226.8121153846154,109.44542506471691L226.85387019230768,127.50132546573877L226.9373798076923,123.67477182733516L227.56370192307693,162.57244358998207L227.85598557692308,165.53011287076194L228.81634615384615,112.20924342175326L228.9833653846154,128.12277313394264L229.44266826923078,122.13309168318908L229.5679326923077,63.435302846754595L230.27776442307692,157.59055728941328L230.52829326923077,113.76387836639253L231.07110576923077,129.4886507468505L231.90620192307694,110.52909412597202L232.28199519230768,98.63479126679401L232.8665625,86.1394151074605L232.95007211538461,126.57258404129081L233.03358173076924,102.14548331499101L233.40937499999998,106.22536218849322L233.78516826923078,151.42236457640928L234.1192067307692,124.56564990306894L234.95430288461537,152.5344753132926L235.0378125,123.76112734971362L235.16307692307694,113.37376221517722L235.24658653846154,127.05444373418061L235.49711538461537,107.27832248403381L235.99817307692308,112.22202156587608L236.03992788461537,103.4794155675918L236.33221153846154,101.18473764477919L236.45747596153848,107.20074089471666L236.66625,76.00670013080041L236.95853365384616,123.7966647228847L237.0420432692308,111.63381473802858L239.17153846153846,100.93797813811236L239.63084134615386,165.9843847271469L239.75610576923077,141.016008882059L239.9648798076923,151.5608631707728L240.2989182692308,100.67375909350814L240.63295673076922,100.19133998877888L240.79997596153848,147.03398479479884L240.8417307692308,101.53858035461357L240.9252403846154,127.73945825298628L241.0505048076923,139.29213713461326L241.34278846153848,136.06462524810598L241.5098076923077,123.44170318937137L241.6768269230769,119.86052524940007L242.0526201923077,91.14323624068251L242.094375,68.99317724288753L242.30314903846153,140.87165118474513L242.47016826923075,124.63018836370773L242.51192307692307,111.79716299515633L243.1382451923077,143.64439068848475L244.3908894230769,101.6448097186577L244.43264423076923,118.31013005764949L244.9337019230769,129.72257322393773L245.22598557692308,82.82651930861175L245.4347596153846,129.45805975204956L246.0193269230769,177.92588427993988L246.3951201923077,115.81259173620492L247.02144230769233,89.3856231264977L247.4807451923077,87.50926748870147L247.77302884615386,117.98308023065329L247.81478365384618,134.03678677272467L247.94004807692306,92.42620313043396L248.19057692307692,132.32427991843886L249.31795673076923,147.49744278244262" style="fill: none;" fill="none"></path></g></g></g></g></g></g><g transform="translate(58, 177)" clip-path="url(#clip_1)"><clipPath id="clip_1"><rect width="271" height="22"></rect></clipPath><g><g><line x1="0" y1="0" x2="0" y2="5" style="visibility: inherit;" fill="rgb(0, 0, 0)" stroke="rgb(204, 204, 204)" stroke-width="1px"></line><line x1="20.877403846153847" y1="0" x2="20.877403846153847" y2="5" style="visibility: inherit;" fill="rgb(0, 0, 0)" stroke="rgb(204, 204, 204)" stroke-width="1px"></line><line x1="41.75480769230769" y1="0" x2="41.75480769230769" y2="5" style="visibility: inherit;" fill="rgb(0, 0, 0)" stroke="rgb(204, 204, 204)" stroke-width="1px"></line><line x1="62.63221153846154" y1="0" x2="62.63221153846154" y2="5" style="visibility: inherit;" fill="rgb(0, 0, 0)" stroke="rgb(204, 204, 204)" stroke-width="1px"></line><line x1="83.50961538461539" y1="0" x2="83.50961538461539" y2="5" style="visibility: inherit;" fill="rgb(0, 0, 0)" stroke="rgb(204, 204, 204)" stroke-width="1px"></line><line x1="104.38701923076924" y1="0" x2="104.38701923076924" y2="5" style="visibility: inherit;" fill="rgb(0, 0, 0)" stroke="rgb(204, 204, 204)" stroke-width="1px"></line><line x1="125.26442307692308" y1="0" x2="125.26442307692308" y2="5" style="visibility: inherit;" fill="rgb(0, 0, 0)" stroke="rgb(204, 204, 204)" stroke-width="1px"></line><line x1="146.1418269230769" y1="0" x2="146.1418269230769" y2="5" style="visibility: inherit;" fill="rgb(0, 0, 0)" stroke="rgb(204, 204, 204)" stroke-width="1px"></line><line x1="167.01923076923077" y1="0" x2="167.01923076923077" y2="5" style="visibility: inherit;" fill="rgb(0, 0, 0)" stroke="rgb(204, 204, 204)" stroke-width="1px"></line><line x1="187.8966346153846" y1="0" x2="187.8966346153846" y2="5" style="visibility: inherit;" fill="rgb(0, 0, 0)" stroke="rgb(204, 204, 204)" stroke-width="1px"></line><line x1="208.77403846153848" y1="0" x2="208.77403846153848" y2="5" style="visibility: inherit;" fill="rgb(0, 0, 0)" stroke="rgb(204, 204, 204)" stroke-width="1px"></line><line x1="229.6514423076923" y1="0" x2="229.6514423076923" y2="5" style="visibility: inherit;" fill="rgb(0, 0, 0)" stroke="rgb(204, 204, 204)" stroke-width="1px"></line><line x1="250.52884615384616" y1="0" x2="250.52884615384616" y2="5" style="visibility: inherit;" fill="rgb(0, 0, 0)" stroke="rgb(204, 204, 204)" stroke-width="1px"></line><line x1="271.40625" y1="0" x2="271.40625" y2="5" style="visibility: inherit;" fill="rgb(0, 0, 0)" stroke="rgb(204, 204, 204)" stroke-width="1px"></line></g><g transform="translate(0, 8)"><text x="0" y="0" dx="0em" dy="0.95em" style="text-anchor: middle; visibility: hidden; font-family: &quot;Helvetica Neue&quot;, sans-serif; font-size: 12px; font-weight: 200;" fill="rgb(50, 49, 63)" stroke="none" stroke-width="1px">-500</text><text x="20.877403846153847" y="0" dx="0em" dy="0.95em" style="text-anchor: middle; visibility: inherit; font-family: &quot;Helvetica Neue&quot;, sans-serif; font-size: 12px; font-weight: 200;" fill="rgb(50, 49, 63)" stroke="none" stroke-width="1px">0</text><text x="41.75480769230769" y="0" dx="0em" dy="0.95em" style="text-anchor: middle; visibility: hidden; font-family: &quot;Helvetica Neue&quot;, sans-serif; font-size: 12px; font-weight: 200;" fill="rgb(50, 49, 63)" stroke="none" stroke-width="1px">500</text><text x="62.63221153846154" y="0" dx="0em" dy="0.95em" style="text-anchor: middle; visibility: inherit; font-family: &quot;Helvetica Neue&quot;, sans-serif; font-size: 12px; font-weight: 200;" fill="rgb(50, 49, 63)" stroke="none" stroke-width="1px">1k</text><text x="83.50961538461539" y="0" dx="0em" dy="0.95em" style="text-anchor: middle; visibility: hidden; font-family: &quot;Helvetica Neue&quot;, sans-serif; font-size: 12px; font-weight: 200;" fill="rgb(50, 49, 63)" stroke="none" stroke-width="1px">1.5k</text><text x="104.38701923076924" y="0" dx="0em" dy="0.95em" style="text-anchor: middle; visibility: inherit; font-family: &quot;Helvetica Neue&quot;, sans-serif; font-size: 12px; font-weight: 200;" fill="rgb(50, 49, 63)" stroke="none" stroke-width="1px">2k</text><text x="125.26442307692308" y="0" dx="0em" dy="0.95em" style="text-anchor: middle; visibility: hidden; font-family: &quot;Helvetica Neue&quot;, sans-serif; font-size: 12px; font-weight: 200;" fill="rgb(50, 49, 63)" stroke="none" stroke-width="1px">2.5k</text><text x="146.1418269230769" y="0" dx="0em" dy="0.95em" style="text-anchor: middle; visibility: inherit; font-family: &quot;Helvetica Neue&quot;, sans-serif; font-size: 12px; font-weight: 200;" fill="rgb(50, 49, 63)" stroke="none" stroke-width="1px">3k</text><text x="167.01923076923077" y="0" dx="0em" dy="0.95em" style="text-anchor: middle; visibility: hidden; font-family: &quot;Helvetica Neue&quot;, sans-serif; font-size: 12px; font-weight: 200;" fill="rgb(50, 49, 63)" stroke="none" stroke-width="1px">3.5k</text><text x="187.8966346153846" y="0" dx="0em" dy="0.95em" style="text-anchor: middle; visibility: inherit; font-family: &quot;Helvetica Neue&quot;, sans-serif; font-size: 12px; font-weight: 200;" fill="rgb(50, 49, 63)" stroke="none" stroke-width="1px">4k</text><text x="208.77403846153848" y="0" dx="0em" dy="0.95em" style="text-anchor: middle; visibility: hidden; font-family: &quot;Helvetica Neue&quot;, sans-serif; font-size: 12px; font-weight: 200;" fill="rgb(50, 49, 63)" stroke="none" stroke-width="1px">4.5k</text><text x="229.6514423076923" y="0" dx="0em" dy="0.95em" style="text-anchor: middle; visibility: inherit; font-family: &quot;Helvetica Neue&quot;, sans-serif; font-size: 12px; font-weight: 200;" fill="rgb(50, 49, 63)" stroke="none" stroke-width="1px">5k</text><text x="250.52884615384616" y="0" dx="0em" dy="0.95em" style="text-anchor: middle; visibility: hidden; font-family: &quot;Helvetica Neue&quot;, sans-serif; font-size: 12px; font-weight: 200;" fill="rgb(50, 49, 63)" stroke="none" stroke-width="1px">5.5k</text><text x="271.40625" y="0" dx="0em" dy="0.95em" style="text-anchor: middle; visibility: hidden; font-family: &quot;Helvetica Neue&quot;, sans-serif; font-size: 12px; font-weight: 200;" fill="rgb(50, 49, 63)" stroke="none" stroke-width="1px">6k</text></g><line x1="0" y1="0" x2="271.40625" y2="0" fill="rgb(0, 0, 0)" stroke="rgb(204, 204, 204)" stroke-width="1px"></line></g></g></g></g></svg>