<svg viewBox="0 0 330 200" xmlns="http://www.w3.org/2000/svg"><g><g><g><g><g><line x1="39.15625" y1="177.828125" x2="34.15625" y2="177.828125" style="visibility: inherit;" fill="rgb(0, 0, 0)" stroke="rgb(204, 204, 204)" stroke-width="1px"></line><line x1="39.15625" y1="155.599609375" x2="34.15625" y2="155.599609375" style="visibility: inherit;" fill="rgb(0, 0, 0)" stroke="rgb(204, 204, 204)" stroke-width="1px"></line><line x1="39.15625" y1="133.37109375" x2="34.15625" y2="133.37109375" style="visibility: inherit;" fill="rgb(0, 0, 0)" stroke="rgb(204, 204, 204)" stroke-width="1px"></line><line x1="39.15625" y1="111.142578125" x2="34.15625" y2="111.142578125" style="visibility: inherit;" fill="rgb(0, 0, 0)" stroke="rgb(204, 204, 204)" stroke-width="1px"></line><line x1="39.15625" y1="88.9140625" x2="34.15625" y2="88.9140625" style="visibility: inherit;" fill="rgb(0, 0, 0)" stroke="rgb(204, 204, 204)" stroke-width="1px"></line><line x1="39.15625" y1="66.685546875" x2="34.15625" y2="66.685546875" style="visibility: inherit;" fill="rgb(0, 0, 0)" stroke="rgb(204, 204, 204)" stroke-width="1px"></line><line x1="39.15625" y1="44.45703125" x2="34.15625" y2="44.45703125" style="visibility: inherit;" fill="rgb(0, 0, 0)" stroke="rgb(204, 204, 204)" stroke-width="1px"></line><line x1="39.15625" y1="22.228515625" x2="34.15625" y2="22.228515625" style="visibility: inherit;" fill="rgb(0, 0, 0)" stroke="rgb(204, 204, 204)" stroke-width="1px"></line><line x1="39.15625" y1="0" x2="34.15625" y2="0" style="visibility: inherit;" fill="rgb(0, 0, 0)" stroke="rgb(204, 204, 204)" stroke-width="1px"></line></g><g transform="translate(29.15625, 0)"><text x="0" y="177.828125" dx="0em" dy="0.3em" style="text-anchor: end; visibility: hidden; font-family: &quot;Helvetica Neue&quot;, sans-serif; font-size: 12px; font-weight: 200;" fill="rgb(50, 49, 63)" stroke="none" stroke-width="1px">-30</text><text x="0" y="155.599609375" dx="0em" dy="0.3em" style="text-anchor: end; visibility: inherit; font-family: &quot;Helvetica Neue&quot;, sans-serif; font-size: 12px; font-weight: 200;" fill="rgb(50, 49, 63)" stroke="none" stroke-width="1px">-25</text><text x="0" y="133.37109375" dx="0em" dy="0.3em" style="text-anchor: end; visibility: hidden; font-family: &quot;Helvetica Neue&quot;, sans-serif; font-size: 12px; font-weight: 200;" fill="rgb(50, 49, 63)" stroke="none" stroke-width="1px">-20</text><text x="0" y="111.142578125" dx="0em" dy="0.3em" style="text-anchor: end; visibility: inherit; font-family: &quot;Helvetica Neue&quot;, sans-serif; font-size: 12px; font-weight: 200;" fill="rgb(50, 49, 63)" stroke="none" stroke-width="1px">-15</text><text x="0" y="88.9140625" dx="0em" dy="0.3em" style="text-anchor: end; visibility: hidden; font-family: &quot;Helvetica Neue&quot;, sans-serif; font-size: 12px; font-weight: 200;" fill="rgb(50, 49, 63)" stroke="none" stroke-width="1px">-10</text><text x="0" y="66.685546875" dx="0em" dy="0.3em" style="text-anchor: end; visibility: inherit; font-family: &quot;Helvetica Neue&quot;, sans-serif; font-size: 12px; font-weight: 200;" fill="rgb(50, 49, 63)" stroke="none" stroke-width="1px">-5</text><text x="0" y="44.45703125" dx="0em" dy="0.3em" style="text-anchor: end; visibility: hidden; font-family: &quot;Helvetica Neue&quot;, sans-serif; font-size: 12px; font-weight: 200;" fill="rgb(50, 49, 63)" stroke="none" stroke-width="1px">0</text><text x="0" y="22.228515625" dx="0em" dy="0.3em" style="text-anchor: end; visibility: inherit; font-family: &quot;Helvetica Neue&quot;, sans-serif; font-size: 12px; font-weight: 200;" fill="rgb(50, 49, 63)" stroke="none" stroke-width="1px">5</text><text x="0" y="0" dx="0em" dy="0.3em" style="text-anchor: end; visibility: hidden; font-family: &quot;Helvetica Neue&quot;, sans-serif; font-size: 12px; font-weight: 200;" fill="rgb(50, 49, 63)" stroke="none" stroke-width="1px">10</text></g><line x1="39.15625" y1="0" x2="39.15625" y2="177.828125" fill="rgb(0, 0, 0)" stroke="rgb(204, 204, 204)" stroke-width="1px"></line></g></g><g transform="translate(39, 0)" clip-path="url(#clip_0)"><clipPath id="clip_0"><rect width="290" height="177"></rect></clipPath><g><g><g><line x1="0" y1="0" x2="0" y2="177.828125" fill="rgb(0, 0, 0)" stroke="rgb(60, 60, 60)" stroke-width="1px" opacity="0.25"></line><line x1="36.35546875" y1="0" x2="36.35546875" y2="177.828125" fill="rgb(0, 0, 0)" stroke="rgb(60, 60, 60)" stroke-width="1px" opacity="0.25"></line><line x1="72.7109375" y1="0" x2="72.7109375" y2="177.828125" fill="rgb(0, 0, 0)" stroke="rgb(60, 60, 60)" stroke-width="1px" opacity="0.25"></line><line x1="109.06640625" y1="0" x2="109.06640625" y2="177.828125" fill="rgb(0, 0, 0)" stroke="rgb(60, 60, 60)" stroke-width="1px" opacity="0.25"></line><line x1="145.421875" y1="0" x2="145.421875" y2="177.828125" fill="rgb(0, 0, 0)" stroke="rgb(60, 60, 60)" stroke-width="1px" opacity="0.25"></line><line x1="181.77734375" y1="0" x2="181.77734375" y2="177.828125" fill="rgb(0, 0, 0)" stroke="rgb(60, 60, 60)" stroke-width="1px" opacity="0.25"></line><line x1="218.1328125" y1="0" x2="218.1328125" y2="177.828125" fill="rgb(0, 0, 0)" stroke="rgb(60, 60, 60)" stroke-width="1px" opacity="0.25"></line><line x1="254.48828125" y1="0" x2="254.48828125" y2="177.828125" fill="rgb(0, 0, 0)" stroke="rgb(60, 60, 60)" stroke-width="1px" opacity="0.25"></line><line x1="290.84375" y1="0" x2="290.84375" y2="177.828125" fill="rgb(0, 0, 0)" stroke="rgb(60, 60, 60)" stroke-width="1px" opacity="0.25"></line></g><g><line x1="0" y1="177.828125" x2="290.84375" y2="177.828125" fill="rgb(0, 0, 0)" stroke="rgb(60, 60, 60)" stroke-width="1px" opacity="0.25"></line><line x1="0" y1="155.599609375" x2="290.84375" y2="155.599609375" fill="rgb(0, 0, 0)" stroke="rgb(60, 60, 60)" stroke-width="1px" opacity="0.25"></line><line x1="0" y1="133.37109375" x2="290.84375" y2="133.37109375" fill="rgb(0, 0, 0)" stroke="rgb(60, 60, 60)" stroke-width="1px" opacity="0.25"></line><line x1="0" y1="111.142578125" x2="290.84375" y2="111.142578125" fill="rgb(0, 0, 0)" stroke="rgb(60, 60, 60)" stroke-width="1px" opacity="0.25"></line><line x1="0" y1="88.9140625" x2="290.84375" y2="88.9140625" fill="rgb(0, 0, 0)" stroke="rgb(60, 60, 60)" stroke-width="1px" opacity="0.25"></line><line x1="0" y1="66.685546875" x2="290.84375" y2="66.685546875" fill="rgb(0, 0, 0)" stroke="rgb(60, 60, 60)" stroke-width="1px" opacity="0.25"></line><line x1="0" y1="44.45703125" x2="290.84375" y2="44.45703125" fill="rgb(0, 0, 0)" stroke="rgb(60, 60, 60)" stroke-width="1px" opacity="0.25"></line><line x1="0" y1="22.228515625" x2="290.84375" y2="22.228515625" fill="rgb(0, 0, 0)" stroke="rgb(60, 60, 60)" stroke-width="1px" opacity="0.25"></line><line x1="0" y1="0" x2="290.84375" y2="0" fill="rgb(0, 0, 0)" stroke="rgb(60, 60, 60)" stroke-width="1px" opacity="0.25"></line></g></g></g><g><g><line x1="0" y1="44.45703125" x2="290.84375" y2="44.45703125" fill="rgb(0, 0, 0)" stroke="rgb(153, 153, 153)" stroke-width="1.5px"></line></g></g><g><g><line x1="36.35546875" y1="0" x2="36.35546875" y2="177.828125" fill="rgb(0, 0, 0)" stroke="rgb(153, 153, 153)" stroke-width="1.5px"></line></g></g><g><g><g><g><g><path stroke="rgb(255, 112, 67)" stroke-width="2px" d="M36.682667968749996,41.07813660174142L36.791734375,39.801062250838726L37.082578125,39.651432012440154L37.11893359374999,38.26421371525083L37.1552890625,38.24478590033405L37.373421875,37.66037492529526L37.627910156249996,37.69899399769366L37.700621093749994,37.28385987609548L38.06417578125,36.54635746170604L38.20959765625,36.37235725191442L38.282308593749995,36.23662581184837L38.64586328125,36.39141673145275L39.15483984375,37.14161887869071L39.227550781249995,37.03076790126548L39.37297265625,37.832979516230125L39.66381640625,38.654231560781994L39.700171875,38.65505522889646L40.499992187500006,39.700387802711134L40.60905859375,39.50116961185526L40.863546875000004,40.621634669586854L40.97261328125,40.603072433885046L41.0816796875,41.98041588684586L41.19074609375,41.835585532802696L41.299812499999994,42.10933162147609L41.66336718749999,42.87619319485586L41.954210937499994,44.133688061059814L41.990566406250004,44.65582710486825L42.13598828125,45.401291361142995L42.49954296875,46.51104736593658L42.64496484375,49.226872559025196L42.935808593750004,49.108559456649346L43.00851953125,48.42390124381453L43.9901171875,51.03019690184938L44.02647265625,51.133676935682075L44.31731640625,51.82936805182038L44.390027343750006,52.994553026242L44.4263828125,53.442434052427544L44.7172265625,55.34390210924032L44.753582031250005,55.62085061063469L44.7899375,57.03897846312458L44.97171484375001,56.79468248397565L45.2989140625,57.77058922586143L45.69882421875,57.46880429184546L45.98966796875,60.4550737976009L46.098734375,61.29276475603491L46.57135546875,62.042837596106295L46.7531328125,62.006269597956816L46.86219921875,62.851861099515034L47.00762109375,62.45159174873211L47.00762109375,62.30319450183855L47.6256640625,62.806634485480515L47.662019531249996,65.12743307099859L47.88015234375,66.31875714650135L47.98921875,67.61416963884596L48.025574218749995,69.06126078083823L48.061929687500005,69.34108525031643L48.09828515625,70.38354513452279L48.134640625,70.29636354583994L48.352773437500005,71.99414996542643L48.53455078125,71.77289590947692L49.33437109375,72.93924700647814L49.40708203125,71.45363294477889L49.47979296875,72.6033247938492L49.62521484375,73.42339952719139L49.77063671875,75.77355507638713L50.025124999999996,76.33658902422583L50.097835937499994,76.81360472001727L50.2432578125,77.65846008916556L50.315968749999996,78.79944870597042L50.35232421875,79.95706601813983L50.388679687499994,80.80130477011531L50.5341015625,80.75534377566176L50.6068125,81.30166521770475L50.64316796875,81.39816090794038L50.75223437499999,82.08764243860026L50.78858984375,82.90078561105717L50.86130078125,83.37495845778815L50.93401171875,83.36090385510941L51.043078124999994,83.27696787815941L51.043078124999994,83.33393478841573L51.47934375,83.39974518702023L51.5520546875,82.3892328806853L52.1337421875,84.5932847048721L52.2791640625,87.30972959017048L52.38823046875,88.56611160168224L52.64271875,88.97570509615046L52.7154296875,89.03695901842417L52.82449609375,90.49505460969509L52.860851562499995,91.08433747298658L52.96991796875,89.79636645112718L53.0062734375,90.14007188421063L53.260761718750004,93.35388596052869L53.2971171875,92.47178297620977L53.478894531250006,92.64326584715822L53.51525,93.65642881902562L53.69702734375,94.37466701902453L53.76973828125001,94.56596045084301L53.842449218750005,95.3842760165781L53.98787109375,95.01070173056425L54.0242265625,96.44295568881333L54.133292968750006,95.47306667994202L54.133292968750006,95.00761115777934L54.242359375,95.96510937603381L54.569558593749996,96.86421565945187L54.6059140625,97.60970767727636L54.78769140625,96.74400229538168L55.3330234375,99.21999161651543L55.55115625,101.34770087188967L55.66022265625,103.47151554323128L55.73293359375,103.39319598196084L55.7692890625,103.11603654037795L55.842,104.44286482564141L55.95106640625,105.48644126061515L56.02377734375,106.38171815546701L56.205554687500005,106.54162768854113L56.31462109375,105.81831578229912L56.4236875,106.13777851620345L56.60546484375,106.7489254360439L57.3689296875,110.36161758065471L57.441640625000005,111.06938249787837L57.441640625000005,111.6317401425311L57.47799609375,114.3624240071338L57.805195312500004,114.78460354913838L58.023328125000006,115.0079548763309L58.27781640625,116.52936714482748L58.750437500000004,118.1909073808339L58.968570312500006,118.38048760196845L59.15034765625,120.7033640649991L59.22305859375,122.72000461262922L59.2594140625,124.7275712546257L59.62296875,128.0717584998338L59.73203515625,126.27557542866043L59.87745703125,123.1218247946833L59.9865234375,121.6366381768426L60.2773671875,124.55607364678626L60.31372265625,124.57067425223734L60.53185546875,124.58015706940023L60.5682109375,125.58552622201161L60.640921875,128.5084759336836L60.640921875,130.41431382549564L61.513453125,130.70480880560137L61.586164062499996,132.28437019271647L61.62251953125,130.24589982618687L61.658874999999995,131.62134858453152L62.05878515625,132.05206982752014L62.276917968750006,133.61981288498836L62.3132734375,134.01883876744625L62.4586953125,134.60133849247526L62.531406249999996,136.7171668661489L62.967671875,140.00799151854835L63.00402734375,140.51836396543456L63.1858046875,142.18182052009269L63.3312265625,139.664067498642L63.4039375,138.85451479065287L63.44029296875,139.85070229713838L64.02198046875,138.87241046544744L64.09469140624999,143.32661008874675L64.5673125,142.5399426152712L64.85815625000001,144.17480762186085L64.85815625000001,145.32990924169084L65.149,145.00130169689334L65.2217109375,145.5522432631235L65.5125546875,147.69755811130887L65.5125546875,149.16948492488794L65.91246484375,149.49480824596603L66.02153125,149.27754551039288L66.0942421875,149.86996059069722L66.166953125,148.14906019359643L66.2396640625,148.2910977038134L66.312375,147.909065523588L66.5305078125,144.796970274057L66.6759296875,145.58517211258768L66.78499609375,148.5724634032271L66.93041796874999,149.23641607498058L67.07583984375,145.28919020643787L67.14855078125,144.41190115660999L67.18490625,139.51249735802753L67.22126171875,140.84975159466472L67.29397265625,140.71564447760704L67.4030390625,141.50514358210637L67.58481640625,138.57747924314782L67.76659375,135.91043271265534L67.8393046875,137.92410910422865L67.87566015625,138.81478119042671L67.91201562500001,136.07775041161273L68.02108203125,133.20686512439426L68.0574375,132.172272863978L68.09379296875,132.6272886630856L68.45734765625,131.9096035645582L68.60276953125,132.86118247337208L68.7118359375,130.00573790774982L68.8572578125,128.84341518495228L68.8572578125,128.3559910733327L69.03903515625,125.78987923704533L69.1481015625,119.2411255587217L69.54801171875,110.83558804119092L69.62072265625,108.05641228630817L69.8025,104.82841490566537L69.8752109375,103.64233256226665L70.0206328125,98.7539957438164L70.27512109375,96.23844650577027L70.3114765625,93.02707155758452L70.42054296875,88.44184182011671L70.4568984375,83.552891682676L71.07494140625,77.66051496004553L71.1840078125,74.94112010060545L71.51120703125001,66.12709164609787L71.692984375,62.32405503893065L71.72933984375,61.74542660507062L71.7656953125,58.84347959990801L72.09289453125001,53.665771213385455L72.3473828125,53.18262386573137L72.38373828125,53.395266583429446L72.7109375,55.16987410641711L72.78364843749999,54.786103303176176L72.92907031249999,55.04256784465433L73.25626953125,54.502775511720884L73.36533593749999,51.22009189222999L73.8016015625,47.70646886435L74.019734375,47.97346906010418L74.09244531249999,47.15740502249665L74.09244531249999,46.79894285840672L74.12880078125,49.5432062926464L74.16515625,48.47929202735858L74.23786718749999,51.59065554258487L74.310578125,49.81152189771689L74.456,46.27389045000288L74.71048828125001,45.50687590116388L75.32853125,45.06132654144841L75.40124218749999,46.07336949419664L75.5466640625,45.17456042013575L75.6920859375,45.70423708791739L75.91021875,47.70826064846045L76.09199609375,45.16226855427698L76.1283515625,45.21748158878492L76.16470703125,44.68705467192177L76.2737734375,46.48864274402166L76.31012890625001,45.849309069095284L76.45555078125001,47.47110858868257L76.52826171875,44.88293154603656L76.89181640625,45.45834904844412L77.0008828125,44.05767609393507L77.0008828125,43.315120730196895L77.03723828125001,43.27888308042017L77.10994921875,44.17739411815242L77.18266015625001,43.05425983145378L77.18266015625001,42.47384545981609L77.32808203124999,42.04700199368432L77.36443750000001,43.95299181761047L77.47350390624999,43.977609778772006L77.800703125,42.93178771545303L77.98248046875,41.852058691738904L78.091546875,44.730620479559235L78.20061328124999,44.064467075675935L78.27332421875,43.72458777119826L78.49145703125,42.57292448268896L78.52781250000001,43.504639354789646L78.964078125,40.7275805598166L79.14585546875,43.00194799129167L79.7638984375,44.46190692543385L79.80025390624999,44.5497792120093L79.83660937500001,43.804553107936016L80.09109765625,44.65959734075895L80.6364296875,47.70416676307397L80.7818515625,48.4596135922055L80.89091796875,49.6554650806803L80.9272734375,48.71137569108865L80.96362890625,50.218628864641545L81.0726953125,49.189230324197155L81.5089609375,47.39738442983082L81.54531640625,46.71585781759529L81.72709375000001,48.175064735891L81.76344921875,46.33389345174675L81.83616015625,47.4187436485478L82.0906484375,45.533836365144765L82.19971484375,45.30666103949477L82.3814921875,47.430116575377184L82.63598046875,47.1468031642091L82.70869140625,47.006903371833374L82.74504687499999,49.214537637455834L83.21766796875,49.98718546987985L83.43580078125,46.964574184299465L83.617578125,46.76725548295289L83.72664453125,46.94975782875335L84.01748828125,47.19752054576048L84.1265546875,45.15787508782876L84.16291015624999,46.724706307632516L84.4173984375,47.36902715874183L84.52646484375,47.34632410094122L84.59917578125,47.29922008974839L85.03544140625,46.552819011291774L85.14450781250001,49.64825008686239L85.25357421875,49.3867727813921L85.47170703125,47.278894150461326L85.61712890625,49.08383497824107L85.87161718750001,49.156775439522164L86.08975,48.30741965922951L86.1624609375,47.04349691549385L86.41694921874999,46.90384532059397L86.41694921874999,46.861065493346246L86.45330468750001,45.4409212491712L87.03499218750001,44.823294309336006L87.07134765625,47.95294662482772L87.07134765625,49.87456349178245L87.398546875,48.34791057609223L87.689390625,45.08671859519305L87.7621015625,45.945032278472894L88.561921875,45.30721556694792L88.70734374999999,45.07314668574324L88.88912109374999,42.917628820484225L88.9981875,43.06103892296275L89.0708984375,41.51682410717589L89.36174218750001,41.70613246183444L89.39809765625,41.68729472880571L89.434453125,41.1307789463923L90.27062890625001,41.01906432645771L90.41605078125001,42.5010869330153L90.85231640625,42.0664257861516L90.99773828125001,41.780619643693626L91.07044921875,41.159166744390404L91.14316015625,43.192106319614794L91.179515625,41.226233369573094L91.36129296874999,42.05972731208155L91.43400390625,40.532454401524944L91.57942578125001,42.93334878289525L91.61578125,41.42859522009687L92.052046875,41.19114516387759L92.1247578125,39.522078754851975L92.16111328125001,41.597322010904406L92.67008984374999,42.01317823516422L93.10635546875,44.09580763973051L93.36084375,46.39637932194623L93.506265625,45.27547672279687L93.61533203125,44.804045297730056L93.68804296875,44.654595355035696L93.797109375,43.801774109209674L94.087953125,45.32066437046535L94.41515234375,44.051217184682514L94.4515078125,43.46392566977133L94.56057421875,42.80557966615672L94.63328515625001,42.65493106967756L95.06955078125,41.75451507569281L95.10590625,44.00562550664503L95.251328125,42.12513199532364L95.28768359375,42.538699190001694L95.32403906249999,41.86811982180535L95.36039453125001,41.66457506178833L95.36039453125001,41.57701406312893L95.833015625,41.44579612982517L95.9784375,39.84257572775928L96.414703125,43.50098796865848L96.560125,45.02837174754745L96.81461328124999,44.51797253673615L96.85096875,44.053815782355315L97.1418125,44.05844140427533L97.68714453125,43.42026959062949L97.7235,42.92352913738094L97.90527734375,41.824992385630594L98.19612109375001,42.397318432405484L98.3051875,40.565804775684995L98.70509765624999,40.86390448592897L98.741453125,39.74941921387787L98.85051953125,41.598002468896965L99.03229687500001,40.596343113096395L99.06865234375,40.35231942973246L99.21407421875,40.94151760901042L99.32314062500001,40.41903827758148L99.43220703125,40.50514484463045L99.5412734375,39.82935198422021L99.613984375,38.79202419907298L99.90482812500001,39.90472774276404L100.1229609375,40.46377997290651L100.19567187499999,40.05842981497386L100.30473828125,38.809299341648455L100.59558203124999,39.47971345212139L100.63193749999999,39.62415526450323L100.74100390625,42.28426301645129L100.81371484375,41.5839019773417L101.10455859375,41.47924507367691L101.4317578125,39.47818175827314L101.7953125,39.98189220815806L102.12251171875,40.43864305572157L102.15886718750001,38.97103105995919L102.19522265625,39.42815677591483L102.231578125,39.87090811397624L102.3042890625,39.89963728564078L102.5951328125,40.302858499822605L102.813265625,39.97104666867111L103.06775390625,39.40423138678523L103.6130859375,40.182721309977495L103.64944140625,40.463214411805694L104.08570703125,40.79152702642716L104.15841796875,40.96651621336187L104.1947734375,40.76170165449051L104.30383984375001,39.93726779228251L104.3401953125,39.076294521276964L104.37655078125,39.191759352108704L104.558328125,40.226066212562245L104.66739453125,40.11751712990255L104.9218828125,39.30711967778177L105.0673046875,39.587697329115684L105.2854375,38.477696523586985L105.32179296874999,38.15946177096373L105.39450390625,38.83268855192486L105.61263671875,39.39857978904678L105.68534765625,38.15662480345031L105.75805859375,37.98097951352992L105.79441406250001,38.1741964396262L105.97619140625,38.500971202339144L106.04890234374999,38.40955198379481L106.594234375,37.26608623786046L106.6669453125,38.830279378582674L106.8123671875,38.32585302799322L107.6121875,38.567255027573566L107.757609375,38.04930922544378L107.86667578125001,38.512248313166936L107.93938671875,39.42668273783522L108.15751953125,39.707784459139674L108.26658593750001,38.9405713427563L108.37565234374999,39.00785824923216L108.7755625,40.191885927876825L108.95733984374999,40.75580211374819L109.06640625,40.085829202718486L109.211828125,39.912187947302755L109.24818359375,40.370227921140014L109.46631640625,40.02588729706068L109.64809375,41.236698029468414L109.72080468749999,40.9779316137537L109.90258203125,39.64862059315621L110.7387578125,39.048539053339226L110.84782421874999,39.84584515374212L110.84782421874999,40.35340933721545L111.02960156249999,39.63575105739406L112.37475390625,40.5287857425825L112.55653125,40.99201859243908L112.59288671875,39.81027667497514L112.6292421875,39.814801862500104L112.66559765625001,40.271531337074634L112.701953125,40.193537675744125L112.73830859375,40.82267425863046L113.17457421875,40.85331347187221L113.283640625,40.78931605733848L113.31999609375,40.788002727135506L113.46541796875,41.01874933016569L113.68355078124999,40.70291285766524L113.82897265624999,39.304146535379374L113.90168359375,38.939108190310094L113.90168359375,38.751789207419534L114.19252734375,39.60606614003228L114.48337109375,39.79179738096681L114.5924375,40.30171650835001L114.6651484375,40.79564463667941L114.81057031249999,40.11895405913367L114.84692578125,40.19950180964156L115.028703125,40.94604398901157L115.1014140625,40.57434238807048L115.21048046875,40.49958600999824L115.28319140625,41.03156794664659L115.7558125,41.2655999759653L115.93758984375,39.677423183683686L116.19207812500001,40.387374477722716L116.3375,40.77636358559934L116.44656640625,39.47882467975202L116.51927734375,40.0504112139418L116.51927734375,40.42065145597303L116.88283203124999,39.19871711239483L116.9191875,40.02182818393567L117.02825390625,41.9097298164109L117.5735859375,40.81663953506586L117.68265234375001,41.149958720914356L117.97349609375,41.590741486057254L118.0098515625,41.63542532322086L118.3006953125,40.94907527162002L118.33705078125,40.89836753804008L118.66425,42.20215751803528L118.70060546875,42.00435326927371L118.7369609375,41.914050777903014L118.91873828125,42.35479429268884L119.10051562499999,42.01508155057755L119.57313671875,41.87973227409233L119.6094921875,41.1426995004428L119.827625,39.54971042012198L119.86398046875,40.87432657169566L119.9003359375,40.96495131928333L119.93669140624999,41.73025301991319L120.15482421875001,41.62111763625393L120.4820234375,41.16677983831792L120.84557812499999,41.85606388859557L120.991,41.00610061902617L121.136421875,41.48874335501381L121.2091328125,42.11144680504523L121.31819921875001,42.14347834445252L121.3545546875,41.4169840915186L121.3545546875,41.00144937698141L121.53633203125,40.788753229612695L122.00895312499999,41.15293161316788L122.11801953125,41.40314436335311L122.40886328125,41.46675052831441L122.59064062499999,41.18213336037019L122.6633515625,41.711806698688406L122.69970703125,41.82999720002624L122.84512890625,42.30155161377289L122.9541953125,41.03885648396013L122.99055078125,41.17546264683543L123.17232812499999,41.10561436082625L123.2450390625,41.649917366225736L123.35410546874999,41.35421791873529L123.39046093750001,40.838748337266765L123.49952734374999,41.29578750785467L123.60859375,41.095006055571275L123.64494921874999,41.543645998053336L123.6813046875,41.548865068569825L124.335703125,41.36891634959133L124.55383593750001,40.31004050119611L124.88103515625001,40.57715360209431L124.917390625,40.57655887840738L125.28094531250001,40.36035028897851L125.31730078125,40.10477994212886L125.68085546875,40.25397378089656L126.11712109375,40.08923210342303L126.1534765625,40.300981642131944L126.40796484375,40.29014315408466L126.55338671874999,40.01628505987375L126.69880859375,40.510502189226145L126.77151953125001,39.96117717497927L126.807875,40.132199044292435L126.807875,40.25055267245489L127.6076953125,39.633546654058506L127.71676171874999,40.14677144895376L127.78947265625,40.52259536902088L127.89853906249999,40.934217416725915L128.15302734374998,41.11883278383755L128.18938281249999,40.46609331272657L128.18938281249999,40.09509892252902L128.3348046875,40.27851544019023L128.66200390625,40.34500697755928L129.0619140625,39.994676740007776L129.17098046875,40.66514310850184L129.53453515625,40.97535203189241L129.570890625,40.96293272597694L129.67995703125,40.48693163553986L130.152578125,40.740057725929404L130.2252890625,40.3767177611802L130.47977734375,39.72714212821211L130.55248828125002,40.746980607725874L130.87968750000002,40.9676859361486L131.025109375,40.77395003117954L131.42501953125,41.70613705320113L131.49773046875,41.112267854864626L131.57044140625,40.83386536240144L131.60679687500001,40.67229060429821L132.07941796875,40.538746506600006L132.479328125,41.099431138711225L132.73381640624999,40.69574090229841L133.02466015624998,40.84620334554387L133.2064375,40.63371200218006L133.49728125000001,40.40808345182509L133.75176953125,40.49019292554274L133.788125,40.353739202311715L134.1516796875,40.7702800226829L134.5879453125,41.12655702021698L134.62430078124999,41.22925865206557L134.8787890625,41.56986003497801L135.20598828125,41.78486646025368L135.27869921875,41.6718889631494L135.35141015624998,41.21489569355782L136.0421640625,41.812389533913034L136.15123046875001,41.86325021647417L136.22394140625,41.57660597551913L136.3330078125,41.81478499670507L136.44207421875,41.85050361284797L136.551140625,41.76636811542025L136.58749609375,42.224841592855825L136.6238515625,42.60780576759433L137.0601171875,42.89287997756213L137.2055390625,42.50665329174362L137.53273828125,42.624976929246856L137.60544921875,42.115876250211585L137.6418046875,42.884094680097206L137.8599375,42.33231836303861L137.89629296875,42.7844701794597L138.00535937499998,42.348804733827706L138.2234921875,42.655427419647566L138.33255859375,42.5234915317252L138.5143359375,42.3095798407997L138.69611328125,42.35411341400848L139.20508984375002,41.93084908099493L139.2414453125,41.580430803278205L139.31415625,41.79491361730791L139.56864453125,41.65819986259788L140.332109375,41.67487793273611L140.36846484375002,41.19722224992145L140.69566406250001,42.15359443876744L141.02286328125,42.40375819636793L141.3500625,42.492819060453996L141.38641796874998,42.33685524367198L141.495484375,42.20048809552432L141.5681953125,41.4523168684795L141.89539453125,41.66086625307079L141.93175,41.910953696738346L142.22259375,42.37874999144043L142.2953046875,42.14918961917007L142.40437109375,42.647907080506656L142.91334765625,41.918851634304445L142.94970312499998,41.80677551934687L143.05876953125,41.58596515279379L143.38596875,41.05516644425387L143.42232421875,41.34641562149491L143.56774609375,41.15869084642421L143.71316796874999,41.629520598514915L143.8949453125,41.86949500022175L143.93130078125,41.67483955466952L144.113078125,41.742285173091034L144.18578906250002,42.030352840916976L144.18578906250002,42.21702605938711L144.54934375,41.661980129049255L144.6220546875,41.69048562712061L144.65841015625,41.28116072806171L144.73112109375,41.85882616541505L144.91289843750002,41.29168342470285L145.24009765625001,41.68728681344783L145.60365234374999,41.969040755340416L145.67636328125,41.980358625931416L145.85814062499998,41.72276090199969L145.96720703124998,41.50727405080332L145.96720703124998,41.39304938588893L146.03991796875002,41.48605743951711L146.11262890625,41.70088565111675L146.5125390625,41.14699708579789L146.83973828125,41.44794226837942L146.91244921875003,41.76201283676346L146.98516015625,40.988662783256444L147.27600390625,41.298842016019705L147.31235937499997,41.95377719035491L147.49413671875,42.19236931625451L147.603203125,41.90503153081059L147.63955859375,42.00288724370489L147.748625,41.329480566599614L147.78498046875,41.48143690620731L147.82133593749998,41.50267937787544L148.03946875,41.246291707132286L148.07582421875003,41.56507538254502L148.1121796875,41.52750789345319L148.5484453125,40.39478005056691L148.6938671875,40.74046356069363L148.766578125,40.96421706620495L149.057421875,40.877865075282074L149.23919921875,41.088070185273494L149.23919921875,41.22887127576894L149.2755546875,41.387188498548426L149.38462109375,41.2941186571847L149.63910937499998,41.411368055849096L149.7118203125,41.49853976258416L149.8572421875,41.157285604857094L149.96630859375,41.53492506987314L150.18444140625002,41.4119580822227L150.6570625,40.8083346992083L151.093328125,40.90546497113837L151.1660390625,41.454884164451556L151.1660390625,41.79740545033306L151.3114609375,41.932952547767115L151.6023046875,41.99855683468931L151.8204375,41.2779127513507L152.00221484375,40.961509829320846L152.14763671875,41.18256245538345L152.256703125,41.5064357166201L152.69296875,41.83433647992223L154.69251953124999,42.0530617525325L154.83794140625002,42.21240817365171L155.3105625,41.62495664600806L155.71047265625,41.84814114570932L155.85589453125,41.869289257826296L156.14673828125,41.88620558270179L156.18309375,41.98765803210952L156.328515625,42.166403959515804L156.6920703125,42.52319319558032L157.05562500000002,42.24135301723712L157.09198046875,42.35305155982604L157.1283359375,42.38373642709868L157.4191796875,42.382226868514806L158.1462890625,42.17976031320964L159.0188203125,42.31267657670483L159.23695312499999,42.53725629347926L159.27330859375002,41.78454752839127L159.38237500000002,41.12068108768176L159.7459296875,41.428136775573535L160.07312890625,41.564178643110665L160.1821953125,41.06348303182915L160.54575000000003,41.87121114950031L160.72752734375,42.10900155139356L162.03632421875,41.812592992193345L162.36352343750002,41.93990746263822L162.436234375,42.14781370348726L162.58165625,42.103321775791045L162.7997890625,42.412127592710846L162.90885546875,42.09975652034473L163.16334375000002,42.238926281692926L163.45418750000002,42.17749684973052L163.56325390625,41.431769890552715L163.85409765625,41.780895943919376L163.99951953125,41.776227169210955L164.14494140624998,41.56327364897743L164.98111718750002,41.39680488824703L165.1265390625,42.02494389560735L165.38102734375002,41.86408163419017L165.52644921875,42.15860686166971L165.926359375,41.858917925068084L166.36262499999998,42.680127603111174L166.9443125,42.71470952856393L167.85319921875,42.62668655155065L168.39853125,42.44064743429695L168.9075078125,42.122145645716955L169.1983515625,42.284358019917704L169.4891953125,42.07651651101676L169.707328125,42.078116388081725L169.74368359374998,41.9124345229323L170.3617265625,41.74621707372398L170.68892578125002,41.603334823273286L171.19790234374997,41.763260571150596L171.30696874999998,41.614808681004405L172.1067890625,41.68515734323452L172.72483203125,41.77774582824762L173.16109765625,42.25986215328666L173.2701640625,42.077793531972134L173.488296875,41.74014966349034L174.1426953125,41.37924672978505L174.21540625,41.755901939451036L174.8698046875,42.292039348686814L175.0152265625,42.124127001951706L175.12429296875,41.97898556538854L175.77869140625,42.186759829772626L175.92411328125002,41.87579062704182L176.1786015625,41.813347374082724L176.65122265625,41.54629074785478L176.86935546875,41.915092289616865L177.37833203124998,42.21736224627955L177.81459765625,41.96194190985835L178.3599296875,41.70809309121594L178.6507734375,41.922799704740214L178.68712890625,42.01120356471523L179.48694921875,41.568660317591934L179.63237109374998,41.57006709131278L180.14134765625,41.22070375116277L180.57761328125,41.3656719682387L180.61396875,41.467456843645664L180.86845703125,41.99188145861254L181.37743359375,42.26640569457547L181.59556640625001,42.324493418829945L181.8500546875,42.179683980873136L181.92276562499998,42.33018462618793L182.24996484375,41.77860423299285L182.32267578124998,41.90968688389725L182.35903125,41.815218460514046L183.04978515625,42.205468413392566L183.15885156250002,42.4303922588586L183.48605078125,41.73559385575109L183.958671875,41.33916441399458L184.4676484375,41.524131368874635L184.83120312499997,41.389958430397L185.412890625,41.911707749369725L185.81280078125,42.175079732181416L186.46719921874998,41.796767397845855L186.83075390625,41.60207673884932L186.86710937499998,41.75909441532198L187.0852421875,41.63988688414693L187.33973046875,41.56027927655967L187.48515234375,41.74567907416966L187.5215078125,41.98550514617054L187.55786328124998,42.03249699734741L188.35768359375,41.70501754232106L188.3940390625,41.810519836010684L188.5394609375,41.683593675516335L188.612171875,42.1303707964106L188.93937109375,41.94936880260755L189.08479296874998,41.85563006007703L190.1391015625,41.905549378940634L190.17545703125,42.30293449062805L190.50265625,42.51945154688477L190.61172265625,42.25558752352279L190.8662109375,42.418549951854544L191.229765625,41.77131887920541L191.26612109375,41.61682677401805L191.30247656249998,41.70702173126463L191.33883203125,41.74835924245551L191.520609375,42.06388626847496L191.7387421875,42.105781612419065L191.8841640625,41.91848642427354L191.956875,41.60076281587706L192.5385625,41.78661785940335L192.75669531249997,41.825109621517385L192.79305078125,41.88873162869814L193.08389453125,41.86370962029966L193.7746484375,42.28893242838245L194.39269140625,42.1415906112627L195.33793359375,42.15210489153776L196.174109375,41.871067599474884L196.64673046874998,41.65000414473235L196.755796875,41.406968842319685L197.88281640625,41.37630358908146L197.919171875,41.91935498534781L198.500859375,42.09334076930074L198.53721484375,41.83085115910461L198.90076953125,41.76388671654249L199.00983593750001,41.78867760029604L199.082546875,42.00777297166539L199.48245703125,42.140171843603554L199.70058984375,42.42384472714235L199.80965625000002,41.92965925277096L199.955078125,42.14586552472903L200.6094765625,41.81511566231845L200.64583203125,41.706582848110486L200.79125390624998,42.23736170001547L200.90032031249999,41.48304942543936L200.97303125,41.78978908379753L201.4820078125,41.63271168884563L201.6274296875,41.4676740978922L202.02733984375,41.342395601631154L202.13640625,41.39593129051386L202.863515625,41.67150991409366L203.154359375,41.67505539875086L203.51791406249998,41.69260563862835L203.55426953125001,41.77848679076888L203.95417968750002,42.10951143980776L204.79035546875,42.095696802546115L204.9721328125,42.48146803664983L205.59017578125,41.95252685677451L207.18981640625,41.75944202527518L207.226171875,41.872747226157L207.37159375,41.234181039466364L207.517015625,41.68923157006287L208.1714140625,41.87742655299476L208.389546875,41.36641387610061L208.42590234374998,41.601711981331846L209.95283203125,42.07499619991961L210.24367578125,42.234170028769256L210.53451953125003,42.34630433280961L210.570875,41.84471946319758L211.18891796875002,41.858983145346144L211.6615390625,41.98717191804343L211.80696093749998,41.650181425780914L212.20687109374998,41.63673541734866L212.64313671875001,42.08859196590038L212.75220312500002,41.441438591661466L212.8249140625,41.70772116765076L212.97033593749998,41.59442900447365L213.26117968749998,41.79019728643934L215.4425078125,42.2500950409069L215.660640625,42.14405654888418L215.69699609375,42.24865073723237L215.76970703125,42.0701012906068L216.3150390625,41.98162314353934L216.56952734375,41.799905120483345L217.405703125,41.699316078626396L217.551125,41.28764952157633L217.95103515625001,41.49492130240617L218.0601015625,41.58709786287437L218.67814453124998,42.00903049454982L218.89627734375,41.967640025218685L219.36889843749998,42.449301038861506L220.0960078125,42.13552519525899L220.42320703125,42.04839899425693L221.00489453125,41.566268295481734L221.07760546875002,42.14876659326103L221.4048046875,42.954065717904854L221.73200390625001,42.633050136692276L222.02284765625,42.439012839191804L222.74995703125,42.24755149829011L222.82266796874998,42.00945772337238L222.931734375,42.03462244142486L223.00444531250002,42.30848780621227L223.22257812499998,42.52246640271923L223.65884375000002,42.376404180732266L223.69519921875,42.45268883745038L223.9496875,42.06084972129861L224.05875390625002,42.078438915575134L224.24053125,42.131067739808316L224.49501953125,41.617367023532836L224.56773046874997,41.953413507077244L226.421859375,41.365627391700826L226.82176953125,41.935123598502514L226.9308359375,41.91561727113361L227.11261328125,41.83858693822822L227.69430078125,41.896157465224576L227.83972265625002,41.54631488105363L227.876078125,42.10063072438959L227.9487890625,42.028890260508206L228.31234375,41.881496336132614L228.45776562499998,41.86013287220615L228.60318750000002,41.82105122060608L228.93038671875,41.803421714461024L228.9667421875,42.39307091492782L229.14851953125,42.174187261102304L229.29394140625,41.83477974846227L229.330296875,41.77986534823785L229.87562890625003,41.704308039522516L231.0026484375,41.89193959602048L231.43891406249998,42.23922658610837L231.69340234375,41.557414751975216L231.8751796875,41.87410508601576L232.38415625000002,42.34867496529196L232.71135546874999,42.34737899639592L233.25668750000003,41.79954949163428L233.65659765624997,41.78473468631077L233.91108593750002,42.03958344733459L233.94744140625,42.00830172740365L234.0565078125,42.265345579865226L234.274640625,41.92344024806181L235.6561484375,42.15004210899153L235.76521484375002,42.07615792825001L235.83792578125,42.251602642345006L235.9469921875,41.83471295236501L235.98334765624998,41.40948836743206L236.12876953125001,41.68283839007091L237.29214453125002,41.72257912661061L237.80112109375003,41.14467120129123L238.78271875,41.586156712596136L239.0008515625,41.611873383521754L239.1462734375,41.715003522530026L239.800671875,41.16017563025346L239.98244921875,41.372720984139676L240.52778124999998,41.97333423895009L240.63684765624998,41.8875907291613L240.7459140625,40.9923668103452L241.50937890625,41.055160036655366L241.9092890625,41.39138749955421L242.38191015625,41.60328412111596L242.418265625,41.665466111971426L242.7818203125,41.838616141087414L242.89088671875,41.65492753589544L243.03630859375,42.15013794204978L243.6543515625,42.2517865630322L243.7270625,42.080111664300176L243.83612890625,41.65638298624157L244.59959375,42.03859374043881L244.6723046875,41.53069839346435L244.85408203125002,41.94308019645081L245.25399218750002,41.63566596093514L245.54483593749998,41.91760465254032L245.6902578125,42.13075403179761L246.30830078125,42.4147886705386L246.52643359375,41.86396261919958L246.88998828125003,41.748354199830715L246.96269921875,41.716852685357054L247.18083203125002,41.7440001567721L247.362609375,41.99249142582832L247.54438671875002,41.53486355770747L247.653453125,41.56672854407353L248.19878515625,41.65975914800151L248.235140625,41.70920346586544L249.21673828125,41.58882944160635L249.50758203125002,41.41115177332722L249.87113671875,41.600908139031304L250.27104687500002,41.680085019577234L251.03451171875,41.91130345634889L251.25264453124998,41.86200953332943L251.6525546875,42.19051846874274L251.68891015625,42.26047957651329L252.85228515625,42.08057174157358L252.88864062500002,41.72004503419254L253.10677343749998,41.47675739778731L254.9972578125,41.12273844579548L255.06996875,41.733718459753334L255.32445703124998,42.12691600520799L255.43352343749999,41.85386406950289L255.68801171875,41.53670818051475L256.669609375,41.392912441027335L257.43307421875,41.19801125640106L257.79662890625,40.98881861047107L258.37831640625,41.5226778716663L258.45102734375,41.752488271419395L258.52373828125,41.84480819107543L258.705515625,42.078572906525125L259.868890625,41.89985774299274L260.05066796874996,41.514871833753716L260.450578125,41.9643780098302L260.48693359375,41.77552276229517L260.5232890625,42.130087119829085L260.63235546875,42.03824231080199L261.21404296875,41.91066490528428L262.195640625,41.96400965134765L262.30470703125,42.125933126877044L263.03181640625,42.79036657267528L263.24994921875,42.4767235642893L263.2863046875,42.240246973855704L264.231546875,42.35176257024611L264.48603515625,41.34462126444521L264.55874609375,41.79210893907094L264.7405234375,41.97445442887661L265.94025390625,42.093854396343346L266.04932031249996,42.042613194875486L266.74007421875,42.01259728751634L266.7764296875,42.17113232531133L267.10362890625004,41.89823643762159L267.3581171875,42.125192133699585L267.46718359375,42.02044413729888L267.72167187499997,42.12185905345163L267.83073828125,41.88084777287622L268.52149218750003,41.83152817877817L268.63055859375,42.01960406369827L268.99411328125,41.88887451926982" style="fill: none;" fill="none"></path></g></g></g></g><g opacity="0.20000000298023224"><g><g><g><path stroke="rgb(255, 112, 67)" stroke-width="2px" d="M36.682667968749996,41.07813660174142L36.791734375,39.03481764029712L37.082578125,39.50778698357752L37.11893359374999,36.632844997756166L37.1552890625,38.21942094517871L37.373421875,36.851924158865586L37.627910156249996,37.754219889128564L37.700621093749994,36.67859034151772L38.06417578125,35.45868465295061L38.20959765625,36.11398721905425L38.282308593749995,36.03425972592086L38.64586328125,36.622760745510476L39.15483984375,38.26447255937384L39.227550781249995,36.86470860373228L39.37297265625,39.035353969037516L39.66381640625,39.88553041703997L39.700171875,38.65629038251936L40.499992187500006,41.268121253605926L40.60905859375,39.202372674457735L40.863546875000004,42.30222984123975L40.97261328125,40.575230098329484L41.0816796875,44.046385744214064L41.19074609375,41.61834286116064L41.299812499999994,42.51994751170278L41.66336718749999,44.02648010440171L41.954210937499994,46.01992499772459L41.990566406250004,45.43903433457015L42.13598828125,46.51948660109193L42.49954296875,48.17568035088479L42.64496484375,53.300608847662815L42.935808593750004,48.931089842319494L43.00851953125,47.39691406078637L43.9901171875,54.939640077762306L44.02647265625,51.28889697901904L44.31731640625,52.872904696129254L44.390027343750006,54.74233045782894L44.4263828125,54.1142555847764L44.7172265625,58.19610417680815L44.753582031250005,56.0362733611837L44.7899375,59.16617023712024L44.97171484375001,56.42823851574212L45.2989140625,59.23444933751598L45.69882421875,57.01612689103932L45.98966796875,64.9344780549407L46.098734375,62.54930119346828L46.57135546875,63.16794685609638L46.7531328125,61.95141760073602L46.86219921875,64.1202483518049L47.00762109375,61.8511877225712L47.00762109375,62.08059863150119L47.6256640625,63.56179446093738L47.662019531249996,68.6086309492588L47.88015234375,68.1057432597503L47.98921875,69.55728837735951L48.025574218749995,71.23189749382436L48.061929687500005,69.76082195453345L48.09828515625,71.9472349608317L48.134640625,70.16559116281569L48.352773437500005,74.54082959480583L48.53455078125,71.4410148255527L49.33437109375,74.68877365197987L49.40708203125,69.22521185223013L49.47979296875,74.32786256745457L49.62521484375,74.65351162720471L49.77063671875,79.29878840018064L50.025124999999996,77.18113994598389L50.097835937499994,77.52912826370448L50.2432578125,78.92574314288795L50.315968749999996,80.51093163117766L50.35232421875,81.69349198639394L50.388679687499994,82.06766289807855L50.5341015625,80.68640228398145L50.6068125,82.12114738076924L50.64316796875,81.5429044432938L50.75223437499999,83.12186473459006L50.78858984375,84.12050036974252L50.86130078125,84.08621772788466L50.93401171875,83.33982195109128L51.043078124999994,83.15106391273439L51.043078124999994,83.41938515380025L51.47934375,83.49846078492702L51.5520546875,80.87346442118287L52.1337421875,87.89936244115233L52.2791640625,91.384396918118L52.38823046875,90.4506846189499L52.64271875,89.59009533785284L52.7154296875,89.12883990183472L52.82449609375,92.68219799660146L52.860851562499995,91.96826176792383L52.96991796875,87.86440991833807L53.0062734375,90.65563003383578L53.260761718750004,98.17460707500577L53.2971171875,91.14862849973143L53.478894531250006,92.9004901535809L53.51525,95.17617327682673L53.69702734375,95.4520243190229L53.76973828125001,94.85290059857071L53.842449218750005,96.61174936518073L53.98787109375,94.45034030154348L54.0242265625,98.59133662618696L54.133292968750006,94.01823316663503L54.133292968750006,94.30942787453533L54.242359375,97.40135670341552L54.569558593749996,98.21287508457898L54.6059140625,98.72794570401311L54.78769140625,95.44544422253966L55.3330234375,102.93397559821607L55.55115625,104.53926475495099L55.66022265625,106.65723755024374L55.73293359375,103.27571664005518L55.7692890625,102.7002973780036L55.842,106.43310725353659L55.95106640625,107.0518059130758L56.02377734375,107.72463349774479L56.205554687500005,106.78149198815227L56.31462109375,104.73334792293609L56.4236875,106.61697261705994L56.60546484375,107.66564581580461L57.3689296875,115.78065579757094L57.441640625000005,112.13102987371384L57.441640625000005,112.47527660951017L57.47799609375,118.4584498040378L57.805195312500004,115.41787286214532L58.023328125000006,115.34298186711968L58.27781640625,118.81148554757237L58.750437500000004,120.68321773484348L58.968570312500006,118.66485793367028L59.15034765625,124.1876787595451L59.22305859375,125.7449654340744L59.2594140625,127.73892121762037L59.62296875,133.088039367646L59.73203515625,123.58130082190036L59.87745703125,118.39119884371758L59.9865234375,119.40885825008155L60.2773671875,128.93522685170174L60.31372265625,124.59257516041399L60.53185546875,124.59438129514456L60.5682109375,127.0935799509287L60.640921875,132.8929005011916L60.640921875,133.27307066321373L61.513453125,131.14055127575995L61.586164062499996,134.6537122733891L61.62251953125,127.18819427639247L61.658874999999995,133.68452172204852L62.05878515625,132.69815169200302L62.276917968750006,135.97142747119068L62.3132734375,134.6173775911331L62.4586953125,135.47508808001876L62.531406249999996,139.89090942665933L62.967671875,144.94422849714755L63.00402734375,141.28392263576387L63.1858046875,144.67700535207987L63.3312265625,135.88743796646594L63.4039375,137.64018572866917L63.44029296875,141.34498355686665L64.02198046875,137.404972717911L64.09469140624999,150.0079095236957L64.5673125,141.3599414050579L64.85815625000001,146.62710513174534L64.85815625000001,147.06256167143584L65.149,144.5083903796971L65.2217109375,146.37865561246872L65.5125546875,150.91553038358688L65.5125546875,151.3773751452565L65.91246484375,149.98279322758316L66.02153125,148.9516514070332L66.0942421875,150.75858321115373L66.166953125,145.56770959794522L66.2396640625,148.50415396913886L66.312375,147.33601725324988L66.5305078125,140.1288273997605L66.6759296875,146.76747487038375L66.78499609375,153.0534003391862L66.93041796874999,150.23234508261083L67.07583984375,139.36835140362382L67.14855078125,143.09596758186817L67.18490625,132.16339166015388L67.22126171875,142.85563294962049L67.29397265625,140.51448380202055L67.4030390625,142.68939223885536L67.58481640625,134.18598273470997L67.76659375,131.9098629169166L67.8393046875,140.94462369158865L67.87566015625,140.15078931972386L67.91201562500001,131.97220424339176L68.02108203125,128.90053719356655L68.0574375,130.62038447335362L68.09379296875,133.30981236174702L68.45734765625,130.83307591676711L68.60276953125,134.28855083659292L68.7118359375,125.72257105931641L68.8572578125,127.09993110075592L68.8572578125,127.62485490590333L69.03903515625,121.94071148261429L69.1481015625,109.41799504123628L69.54801171875,98.22728176489473L69.62072265625,103.88764865398407L69.8025,99.98641883470118L69.8752109375,101.8632090471685L70.0206328125,91.42149051614105L70.27512109375,92.46512264870107L70.3114765625,88.21000913530588L70.42054296875,81.56399721391499L70.4568984375,76.21946647651494L71.07494140625,68.82194987609982L71.1840078125,70.86202781144529L71.51120703125001,52.906048964336506L71.692984375,56.61950012817978L71.72933984375,60.877483954280606L71.7656953125,54.49055909216405L72.09289453125001,45.89920863360166L72.3473828125,52.4579028442502L72.38373828125,53.71423065997659L72.7109375,57.83178539089859L72.78364843749999,54.21044709831476L72.92907031249999,55.42726465687156L73.25626953125,53.69308701232076L73.36533593749999,46.29606646299362L73.8016015625,42.43603432253005L74.019734375,48.37396935373545L74.09244531249999,45.93330896608532L74.09244531249999,46.26124961227177L74.12880078125,53.65960144400596L74.16515625,46.88342062942684L74.23786718749999,56.257700815424315L74.310578125,47.1428214304149L74.456,40.96744327843189L74.71048828125001,44.35635407790542L75.32853125,44.393002501875145L75.40124218749999,47.59143392331899L75.5466640625,43.82634680904448L75.6920859375,46.49875208958983L75.91021875,50.71429598927499L76.09199609375,41.34328041300179L76.1283515625,45.30030114054679L76.16470703125,43.89141429662706L76.2737734375,49.19102485217152L76.31012890625001,44.89030855670572L76.45555078125001,49.90380786806345L76.52826171875,41.0006659820676L76.89181640625,46.32147530205546L77.0008828125,41.9566666621715L77.0008828125,42.20128768458963L77.03723828125001,43.224526605755074L77.10994921875,45.52516067475082L77.18266015625001,41.36955840140581L77.18266015625001,41.60322390235959L77.32808203124999,41.40673679448665L77.36443750000001,46.811976553499704L77.47350390624999,44.014536720514315L77.800703125,41.36305462047457L77.98248046875,40.23246515616776L78.091546875,49.048463161289675L78.20061328124999,43.06523696985096L78.27332421875,43.2147688144818L78.49145703125,40.84542954992503L78.52781250000001,44.90221166294069L78.964078125,36.56199236735702L79.14585546875,46.41349913850425L79.7638984375,46.65184532664716L79.80025390624999,44.68158764187248L79.83660937500001,42.68671395182608L80.09109765625,45.94216368999332L80.6364296875,52.271020896546545L80.7818515625,49.59278383590279L80.89091796875,51.44924231339246L80.9272734375,47.29524160670118L80.96362890625,52.479508624970904L81.0726953125,47.64513251353057L81.5089609375,44.70961558828131L81.54531640625,45.693567899242026L81.72709375000001,50.363875113334515L81.76344921875,43.57213652553037L81.83616015625,49.046018943749374L82.0906484375,42.706475440040236L82.19971484375,44.965898051019764L82.3814921875,50.61529987920075L82.63598046875,46.72183304745704L82.70869140625,46.79705368326975L82.74504687499999,52.52598903588951L83.21766796875,51.14615721851588L83.43580078125,42.43065725592896L83.617578125,46.471277430932986L83.72664453125,47.223511347454036L84.01748828125,47.5691646212712L84.1265546875,42.09840690093117L84.16291015624999,49.074953137338156L84.4173984375,48.335508435405785L84.52646484375,47.31226951424034L84.59917578125,47.22856407295913L85.03544140625,45.433217393606895L85.14450781250001,54.29139670021833L85.25357421875,48.99455682318657L85.47170703125,44.11707620406523L85.61712890625,51.79124621991069L85.87161718750001,49.266186131443845L86.08975,47.03338598879054L86.1624609375,45.14761279989034L86.41694921874999,46.69436792824419L86.41694921874999,46.79689575247468L86.45330468750001,43.310704882908595L87.03499218750001,43.89685389958322L87.07134765625,52.647425098065284L87.07134765625,52.75698879221454L87.398546875,46.057931202556944L87.689390625,40.19493062384427L87.7621015625,47.23250280339269L88.561921875,44.35049049966037L88.70734374999999,44.72204336393625L88.88912109374999,39.684352022595704L88.9981875,43.27615407668054L89.0708984375,39.200501883495605L89.36174218750001,41.99009499382228L89.39809765625,41.659038129262626L89.434453125,40.29600527277216L90.27062890625001,40.85149239655584L90.41605078125001,44.724120842851704L90.85231640625,41.41443406585606L90.99773828125001,41.35191043000668L91.07044921875,40.22698739543557L91.14316015625,46.24151568245142L91.179515625,38.2774239445105L91.36129296874999,43.30996822584419L91.43400390625,38.24154503569005L91.57942578125001,46.534690354950726L91.61578125,39.17146487589926L92.052046875,40.83497007954864L92.1247578125,37.01847914131358L92.16111328125001,44.71018689498305L92.67008984374999,42.63696257155388L93.10635546875,47.21975174657999L93.36084375,49.84723684526979L93.506265625,43.594122824072855L93.61533203125,44.09689816012977L93.68804296875,44.4304204409942L93.797109375,42.52254224047064L94.087953125,47.598999762348825L94.41515234375,42.147046406008286L94.4515078125,42.582988397404534L94.56057421875,41.81806066073477L94.63328515625001,42.42895817495881L95.06955078125,40.403891084715724L95.10590625,47.38229115307331L95.251328125,39.304391728341585L95.28768359375,43.159049982018786L95.32403906249999,40.862250769510865L95.36039453125001,41.35925792176275L95.36039453125001,41.44567256513983L95.833015625,41.248969229869545L95.9784375,37.43774512466044L96.414703125,48.988606330007315L96.560125,47.31944741588086L96.81461328124999,43.752373720519245L96.85096875,43.35758065078406L97.1418125,44.06537983715535L97.68714453125,42.4630118701607L97.7235,42.17841845750809L97.90527734375,40.17718725800515L98.19612109375001,43.25580750256776L98.3051875,37.818534290604276L98.70509765624999,41.31105405129492L98.741453125,38.07769130580127L98.85051953125,44.370877351425605L99.03229687500001,39.09385407939553L99.06865234375,39.98628390468659L99.21407421875,41.8253148779273L99.32314062500001,39.635319280438125L99.43220703125,40.634304695203895L99.5412734375,38.81566269360482L99.613984375,37.23603252135217L99.90482812500001,41.57378305830062L100.1229609375,41.30235831812024L100.19567187499999,39.450404578074796L100.30473828125,36.93560363166034L100.59558203124999,40.48533461783083L100.63193749999999,39.84081798307599L100.74100390625,46.27442464437334L100.81371484375,40.53336041867735L101.10455859375,41.32225971817971L101.4317578125,36.476586785167456L101.7953125,40.73745788298547L102.12251171875,41.12376932706684L102.15886718750001,36.76961306631566L102.19522265625,40.113845349848276L102.231578125,40.535035121068375L102.3042890625,39.94273104313763L102.5951328125,40.90769032109529L102.813265625,39.4733289219439L103.06775390625,38.55400846395642L103.6130859375,41.35045619476588L103.64944140625,40.88395406454802L104.08570703125,41.283995948359376L104.15841796875,41.228999993763864L104.1947734375,40.454479816183465L104.30383984375001,38.7006169989705L104.3401953125,37.78483461476864L104.37655078125,39.36495659835637L104.558328125,41.77752650324257L104.66739453125,39.95469350591301L104.9218828125,38.091523499600584L105.0673046875,40.0085638061166L105.2854375,36.81269531529395L105.32179296874999,37.68210964202879L105.39450390625,39.84252872336654L105.61263671875,40.24741664472967L105.68534765625,36.293692325055616L105.75805859375,37.717511578649265L105.79441406250001,38.464021828770655L105.97619140625,38.99113334640859L106.04890234374999,38.272423155978316L106.594234375,35.55088761895897L106.6669453125,41.176569089666L106.8123671875,37.56921350210905L107.6121875,38.9293580269441L107.757609375,37.272390522249026L107.86667578125001,39.20665694475176L107.93938671875,40.798334374837594L108.15751953125,40.129437041096395L108.26658593750001,37.78975166818125L108.37565234374999,39.1087886089459L108.7755625,41.9679274458438L108.95733984374999,41.60167639255522L109.06640625,39.080869836173946L109.211828125,39.65172606417909L109.24818359375,41.05728788189592L109.46631640625,39.50937636094167L109.64809375,43.052914128080005L109.72080468749999,40.58978199018165L109.90258203125,37.65465406225994L110.7387578125,38.14841674361378L110.84782421874999,41.04180430434644L110.84782421874999,41.11475561242551L111.02960156249999,38.55926363766193L112.37475390625,41.86833777036517L112.55653125,41.686867867223924L112.59288671875,38.03766379877925L112.6292421875,39.821589643787576L112.66559765625001,40.956625548936444L112.701953125,40.07654718374832L112.73830859375,41.76637913296L113.17457421875,40.89927229173483L113.283640625,40.69331993553786L113.31999609375,40.78603273183106L113.46541796875,41.36486923471094L113.68355078124999,40.22915814891459L113.82897265624999,37.20599705195056L113.90168359375,38.39155067270622L113.90168359375,38.47081073308365L114.19252734375,40.88748153895139L114.48337109375,40.07039424236862L114.5924375,41.06659519942477L114.6651484375,41.53653682917357L114.81057031249999,39.10391819281503L114.84692578125,40.320323435403424L115.028703125,42.06585725806653L115.1014140625,40.016789986658836L115.21048046875,40.38745144288987L115.28319140625,41.8295408516191L115.7558125,41.61664801994337L115.93758984375,37.295157995261235L116.19207812500001,41.452301418781275L116.3375,41.35984724741431L116.44656640625,37.5325163209811L116.51927734375,40.907791015226394L116.51927734375,40.97601181901993L116.88283203124999,37.365815597027535L116.9191875,41.25649479124695L117.02825390625,44.741582265123725L117.5735859375,39.1770041130483L117.68265234375001,41.64993749968707L117.97349609375,42.251915633771574L118.0098515625,41.70245107896628L118.3006953125,39.91955019421877L118.33705078125,40.822305937670166L118.66425,44.15784248802811L118.70060546875,41.70764689613134L118.7369609375,41.77859704084696L118.91873828125,43.0159095648676L119.10051562499999,41.50551243741066L119.57313671875,41.676708359364426L119.6094921875,40.03715033996852L119.827625,37.16022679964081L119.86398046875,42.86125079905614L119.9003359375,41.100888440664875L119.93669140624999,42.87820557085797L120.15482421875001,41.457414560765045L120.4820234375,40.48527314141393L120.84557812499999,42.889989964012074L120.991,39.73115571467204L121.136421875,42.21270745899528L121.2091328125,43.04550198009238L121.31819921875001,42.191525653563446L121.3545546875,40.32724271211774L121.3545546875,40.378147305175645L121.53633203125,40.46970900855959L122.00895312499999,41.69919918850064L122.11801953125,41.77846348863093L122.40886328125,41.5621597757563L122.59064062499999,40.75520760845393L122.6633515625,42.50631670616568L122.69970703125,42.007282952032966L122.84512890625,43.00888323439287L122.9541953125,39.144813789241L122.99055078125,41.38037189114837L123.17232812499999,41.00084193181246L123.2450390625,42.46637187432498L123.35410546874999,40.910668747499585L123.39046093750001,40.065543965063995L123.49952734374999,41.98134626373647L123.60859375,40.79383387714623L123.64494921874999,42.21660591177644L123.6813046875,41.55669367434459L124.335703125,41.09899327112362L124.55383593750001,38.721726728603244L124.88103515625001,40.977823253441585L124.917390625,40.575666792877L125.28094531250001,40.03603740483524L125.31730078125,39.72142442185432L125.68085546875,40.47776453904808L126.11712109375,39.84211958721281L126.1534765625,40.61860595019536L126.40796484375,40.273885422013706L126.55338671874999,39.605497918557376L126.69880859375,41.25182788325472L126.77151953125001,39.13718965360894L126.807875,40.38873184826227L126.807875,40.428083114698524L127.6076953125,38.70803762646392L127.71676171874999,40.91660864129662L127.78947265625,41.08633124912157L127.89853906249999,41.551650488283485L128.15302734374998,41.39575583450497L128.18938281249999,39.486984106060135L128.18938281249999,39.53860733723266L128.3348046875,40.55364021668211L128.66200390625,40.444744283612835L129.0619140625,39.469181383680535L129.17098046875,41.670842661242915L129.53453515625,41.440665416978305L129.570890625,40.94430376710372L129.67995703125,39.77292999988421L130.152578125,41.119746861513704L130.2252890625,39.83170781405644L130.47977734375,38.75277867875994L130.55248828125002,42.276738326996565L130.87968750000002,41.29874392878264L131.025109375,40.483346173726005L131.42501953125,43.10441758623347L131.49773046875,40.22146405735984L131.57044140625,40.416261623706674L131.60679687500001,40.42992846714333L132.07941796875,40.33843036005274L132.479328125,41.94045808687807L132.73381640624999,40.09020554767923L133.02466015624998,41.07189701041207L133.2064375,40.31497498713432L133.49728125000001,40.06964062629268L133.75176953125,40.61335713611916L133.788125,40.149058617465215L134.1516796875,41.395091253239656L134.5879453125,41.660972516518086L134.62430078124999,41.383311099838465L134.8787890625,42.08076210934669L135.20598828125,42.10737609816715L135.27869921875,41.50242271749303L135.35141015624998,40.5294057891704L136.0421640625,42.708630294445896L136.15123046875001,41.93954124031589L136.22394140625,41.14663961408658L136.3330078125,42.17205352848396L136.44207421875,41.9040815370623L136.551140625,41.640164869278664L136.58749609375,42.91255180900916L136.6238515625,43.182252029702084L137.0601171875,43.32049129251391L137.2055390625,41.927313263015805L137.53273828125,42.80246238550171L137.60544921875,41.35222523165865L137.6418046875,44.03642232492567L137.8599375,41.5046538874507L137.89629296875,43.46269790409133L138.00535937499998,41.695306565379724L138.2234921875,43.11536144837737L138.33255859375,42.32558769984169L138.5143359375,41.98871230441145L138.69611328125,42.42091377382167L139.20508984375002,41.29595258147455L139.2414453125,41.05480338670313L139.31415625,42.11663783835249L139.56864453125,41.453129230532795L140.332109375,41.69989503794349L140.36846484375002,40.48073872569947L140.69566406250001,43.58815272203648L141.02286328125,42.779003832768666L141.3500625,42.62641035658308L141.38641796874998,42.10290951849893L141.495484375,41.995937373302894L141.5681953125,40.33006002791225L141.89539453125,41.97369032995775L141.93175,42.286084862239676L142.22259375,43.08044443349354L142.2953046875,41.80484906076455L142.40437109375,43.39598327251153L142.91334765625,40.82526846500113L142.94970312499998,41.63866134691054L143.05876953125,41.254749602964154L143.38596875,40.25896838144399L143.42232421875,41.78328938735649L143.56774609375,40.87710368381815L143.71316796874999,42.33576522665098L143.8949453125,42.229456602781994L143.93130078125,41.38285638634116L144.113078125,41.84345360072328L144.18578906250002,42.46245434265583L144.18578906250002,42.49703588709235L144.54934375,40.82941123354249L144.6220546875,41.73324387422761L144.65841015625,40.66717337947338L144.73112109375,42.72532432144507L144.91289843750002,40.440969313634554L145.24009765625001,42.28069189656526L145.60365234374999,42.39167166817933L145.67636328125,41.9973354318179L145.85814062499998,41.336364316102134L145.96720703124998,41.18404377400876L145.96720703124998,41.22171238851732L146.03991796875002,41.625569519959384L146.11262890625,42.02312796851621L146.5125390625,40.316164237819606L146.83973828125,41.89936004225163L146.91244921875003,42.23311868933959L146.98516015625,39.828637702995906L147.27600390625,41.764110865164554L147.31235937499997,42.93617995185778L147.49413671875,42.55025750510393L147.603203125,41.474024852644646L147.63955859375,42.14967081304641L147.748625,40.31937055094167L147.78498046875,41.70937141561879L147.82133593749998,41.53454308537766L148.03946875,40.86171020101756L148.07582421875003,42.0432508956641L148.1121796875,41.47115665981548L148.5484453125,38.69568828623741L148.6938671875,41.25898882588373L148.766578125,41.299847324471926L149.057421875,40.74833708889784L149.23919921875,41.40337785026057L149.23919921875,41.44007291151209L149.2755546875,41.62466433271766L149.38462109375,41.154513895139104L149.63910937499998,41.58724215384572L149.7118203125,41.62929732268677L149.8572421875,40.64540436826647L149.96630859375,42.10138426739721L150.18444140625002,41.22750760074703L150.6570625,39.90289962468668L151.093328125,41.05116037903352L151.1660390625,42.27901295442135L151.1660390625,42.311187379155314L151.3114609375,42.136273193918186L151.6023046875,42.09696326507256L151.8204375,40.19694662634285L152.00221484375,40.48690544627607L152.14763671875,41.51414139447732L152.256703125,41.99224560847506L152.69296875,42.32618762487547L154.69251953124999,42.381149661447836L154.83794140625002,42.45142780533061L155.3105625,40.74377935454251L155.71047265625,42.1829178952612L155.85589453125,41.90101142600179L156.14673828125,41.91158007001505L156.18309375,42.139836706221104L156.328515625,42.4345228506252L156.6920703125,43.05837704967709L157.05562500000002,41.818592749722285L157.09198046875,42.520599373709416L157.1283359375,42.42976372800766L157.4191796875,42.379962530639006L158.1462890625,41.87606048025191L159.0188203125,42.512050971947616L159.23695312499999,42.874125868640846L159.27330859375002,40.655484380759304L159.38237500000002,40.12488142661752L159.7459296875,41.88932030741125L160.07312890625,41.76824144441636L160.1821953125,40.31243961490691L160.54575000000003,43.082803326006996L160.72752734375,42.46568715423345L162.03632421875,41.367980153393006L162.36352343750002,42.13087916830554L162.436234375,42.459673064760864L162.58165625,42.03658388424665L162.7997890625,42.875336318090575L162.90885546875,41.63119991179556L163.16334375000002,42.44768092371524L163.45418750000002,42.08535270178689L163.56325390625,40.313179451786L163.85409765625,42.304585023969395L163.99951953125,41.769224007148296L164.14494140624998,41.243843368627125L164.98111718750002,41.14710174715148L165.1265390625,42.967152406647784L165.38102734375002,41.622788242064416L165.52644921875,42.60039470288902L165.926359375,41.40938452016562L166.36262499999998,43.91194212017581L166.9443125,42.766582416743034L167.85319921875,42.4946520860307L168.39853125,42.16158875841646L168.9075078125,41.64439296284692L169.1983515625,42.527676581218856L169.4891953125,41.76475424766542L169.707328125,42.08051620367914L169.74368359374998,41.66391172520818L170.3617265625,41.496890899911506L170.68892578125002,41.38901144759731L171.19790234374997,42.003149192966504L171.30696874999998,41.39213084578515L172.1067890625,41.7906803365797L172.72483203125,41.91662855576723L173.16109765625,42.983036640845256L173.2701640625,41.80469060000033L173.488296875,41.23368386076763L174.1426953125,40.837892329227174L174.21540625,42.32088475394994L174.8698046875,43.09624546254054L175.0152265625,41.872258481849L175.12429296875,41.761273410543794L175.77869140625,42.49842122634871L175.92411328125002,41.40933682294562L176.1786015625,41.719682494644076L176.65122265625,41.14570580851287L176.86935546875,42.46829460225999L177.37833203124998,42.67076718127353L177.81459765625,41.57881140522659L178.3599296875,41.32731986325234L178.6507734375,42.24485962502658L178.68712890625,42.14380935467781L179.48694921875,40.90484544690699L179.63237109374998,41.57217725189403L180.14134765625,40.69665874093769L180.57761328125,41.58312429385259L180.61396875,41.62013415675611L180.86845703125,42.778518381062895L181.37743359375,42.67819204851983L181.59556640625001,42.411625005211675L181.8500546875,41.96246982393788L181.92276562499998,42.555935594160104L182.24996484375,40.951233643200254L182.32267578124998,42.10631086025387L182.35903125,41.67351582543924L183.04978515625,42.7908433427103L183.15885156250002,42.76777802705763L183.48605078125,40.693396251089865L183.958671875,40.74452025135977L184.4676484375,41.801581801194715L184.83120312499997,41.18869902268054L185.412890625,42.694331727828825L185.81280078125,42.57013770639898L186.46719921874998,41.2292988963425L186.83075390625,41.310040750354545L186.86710937499998,41.99462093003095L187.0852421875,41.461075587384386L187.33973046875,41.44086786517872L187.48515234375,42.02377877058461L187.5215078125,42.34524425417183L187.55786328124998,42.102984774112684L188.35768359375,41.21379835978152L188.3940390625,41.96877327654511L188.5394609375,41.49320443477481L188.612171875,42.80053647775205L188.93937109375,41.67786581190305L189.08479296874998,41.71502194628121L190.1391015625,41.98042835723609L190.17545703125,42.89901215815917L190.50265625,42.84422713126989L190.61172265625,41.85979148847983L190.8662109375,42.66299359435217L191.229765625,40.800472270231694L191.26612109375,41.38508861623703L191.30247656249998,41.84231416713445L191.33883203125,41.81036550924182L191.520609375,42.53717680750415L191.7387421875,42.16862462833524L191.8841640625,41.63754364205525L191.956875,41.124177403282374L192.5385625,42.0654004246928L192.75669531249997,41.88284726468848L192.79305078125,41.98416463946924L193.08389453125,41.82617660770191L193.7746484375,42.926766640506685L194.39269140625,41.92057788558304L195.33793359375,42.16787631195038L196.174109375,41.44951166138051L196.64673046874998,41.31840896261858L196.755796875,41.04241588870062L197.88281640625,41.33030570922418L197.919171875,42.73393207974732L198.500859375,42.35431944523006L198.53721484375,41.43711674381049L198.90076953125,41.663440052699315L199.00983593750001,41.82586392592637L199.082546875,42.33641602871941L199.48245703125,42.33877015151083L199.70058984375,42.84935405245051L199.80965625000002,41.18838104121389L199.955078125,42.47017493266614L200.6094765625,41.318990868702514L200.64583203125,41.54378362679856L200.79125390624998,43.03352997787297L200.90032031249999,40.35158101357521L200.97303125,42.249898571334796L201.4820078125,41.397095596417785L201.6274296875,41.22011771146208L202.02733984375,41.15447785723953L202.13640625,41.47623482383787L202.863515625,42.08487784946337L203.154359375,41.68037362573668L203.51791406249998,41.71893099844456L203.55426953125001,41.907308518979704L203.95417968750002,42.606048413366096L204.79035546875,42.074974846653646L204.9721328125,43.060124887805415L205.59017578125,41.15911508696152L207.18981640625,41.469814778026176L207.226171875,42.042705027479684L207.37159375,40.27633175943046L207.517015625,42.371807365957665L208.1714140625,42.15971902739258L208.389546875,40.59989486075938L208.42590234374998,41.95465913917869L209.95283203125,42.78492252780123L210.24367578125,42.47293077204378L210.53451953125003,42.51450578887014L210.570875,41.0923421587795L211.18891796875002,41.88037866856902L211.6615390625,42.179455077089386L211.80696093749998,41.144695687387156L212.20687109374998,41.61656640470028L212.64313671875001,42.76637678872794L212.75220312500002,40.470708530303085L212.8249140625,42.1071450316347L212.97033593749998,41.42449075970799L213.26117968749998,42.08384970938786L215.4425078125,42.939941672608256L215.660640625,41.9849988108501L215.69699609375,42.40554201975465L215.76970703125,41.802277120668435L216.3150390625,41.848905922938144L216.56952734375,41.52732808589937L217.405703125,41.54843251584097L217.551125,40.670149686001224L217.95103515625001,41.80582897365093L218.0601015625,41.72536270357668L218.67814453124998,42.641929442062974L218.89627734375,41.90555432122201L219.36889843749998,43.171792559325695L220.0960078125,41.66486142985522L220.42320703125,41.917709692753846L221.00489453125,40.84307224731893L221.07760546875002,43.02251403992997L221.4048046875,44.162014404870575L221.73200390625001,42.15152676487341L222.02284765625,42.14795689294115L222.74995703125,41.960359486937506L222.82266796874998,41.65231706099584L222.931734375,42.072369518503564L223.00444531250002,42.71928585339336L223.22257812499998,42.84343429747969L223.65884375000002,42.1573108477518L223.69519921875,42.56711582252754L223.9496875,41.47309104707094L224.05875390625002,42.10482270698995L224.24053125,42.21001097615809L224.49501953125,40.846815949119645L224.56773046874997,42.457483232393855L226.421859375,40.483948218636215L226.82176953125,42.78936790870503L226.9308359375,41.88635778008029L227.11261328125,41.723041438870126L227.69430078125,41.98251325571911L227.83972265625002,41.0215510047972L227.876078125,42.93210448939354L227.9487890625,41.9212795646861L228.31234375,41.660405449569225L228.45776562499998,41.8280876763165L228.60318750000002,41.76242874320596L228.93038671875,41.77697745524347L228.9667421875,43.27754471562801L229.14851953125,41.84586178036406L229.29394140625,41.325668479502184L229.330296875,41.69749374790118L229.87562890625003,41.59097207644956L231.0026484375,42.173386930767464L231.43891406249998,42.76015707124023L231.69340234375,40.53469700077548L231.8751796875,42.34914058707656L232.38415625000002,43.060529784206295L232.71135546874999,42.34543504305182L233.25668750000003,40.977805234491825L233.65659765624997,41.76251247832553L233.91108593750002,42.42185658887027L233.94744140625,41.961379147507245L234.0565078125,42.650911358557636L234.274640625,41.41058225035667L235.6561484375,42.489944900386035L235.76521484375002,41.96533165713774L235.83792578125,42.51476971348748L235.9469921875,41.20937841739507L235.98334765624998,40.77165149003267L236.12876953125001,42.09286342402922L237.29214453125002,41.78219023142012L237.80112109375003,40.27780931331219L238.78271875,42.24838497955352L239.0008515625,41.65044838991017L239.1462734375,41.86969873104246L239.800671875,40.3279337918386L239.98244921875,41.69153901496904L240.52778124999998,42.874254121165706L240.63684765624998,41.75897546447814L240.7459140625,39.649530932120996L241.50937890625,41.14934987612068L241.9092890625,41.8957286939025L242.38191015625,41.92112905345857L242.418265625,41.75873909825461L242.7818203125,42.09834118476138L242.89088671875,41.37939462810755L243.03630859375,42.89295355128124L243.6543515625,42.40425949450582L243.7270625,41.82259931620209L243.83612890625,41.0207899691537L244.59959375,42.611909871734696L244.6723046875,40.768855373002594L244.85408203125002,42.56165290093051L245.25399218750002,41.17454460766166L245.54483593749998,42.3405126899481L245.6902578125,42.45047810068354L246.30830078125,42.84084062865006L246.52643359375,41.03772354219109L246.88998828125003,41.57494157077744L246.96269921875,41.66960041364655L247.18083203125002,41.78472136389465L247.362609375,42.365228329412645L247.54438671875002,40.84842175552623L247.653453125,41.6145260236226L248.19878515625,41.79930505389348L248.235140625,41.78336994266138L249.21673828125,41.40826840521768L249.50758203125002,41.14463527090848L249.87113671875,41.885542687587446L250.27104687500002,41.79885034039617L251.03451171875,42.25813111150637L251.25264453124998,41.78806864880025L251.6525546875,42.683281871862704L251.68891015625,42.36542123816909L252.85228515625,41.810709989164025L252.88864062500002,41.179254973121004L253.10677343749998,41.11182594317941L254.9972578125,40.5917100178078L255.06996875,42.650188480690105L255.32445703124998,42.71671232338994L255.43352343749999,41.444286165945215L255.68801171875,41.06097434703261L256.669609375,41.17721883179618L257.43307421875,40.905659479461605L257.79662890625,40.67502964157612L258.37831640625,42.32346676345915L258.45102734375,42.097203871049004L258.52373828125,41.983288070559496L258.705515625,42.429219979699695L259.868890625,41.63178499769421L260.05066796874996,40.93739296989517L260.450578125,42.63863727394491L260.48693359375,41.492239890992636L260.5232890625,42.66193365613L260.63235546875,41.90047509726136L261.21404296875,41.71929879700767L262.195640625,42.04402677044274L262.30470703125,42.368818340171146L263.03181640625,43.78701674137264L263.24994921875,42.00625905171037L263.2863046875,41.885532088205224L264.231546875,42.519035964831716L264.48603515625,39.83390930574387L264.55874609375,42.46334045100957L264.7405234375,42.2479726635851L265.94025390625,42.27295434754342L266.04932031249996,41.965751392673695L266.74007421875,41.96757342647763L266.7764296875,42.40893488200382L267.10362890625004,41.488892606087035L267.3581171875,42.465625677816575L267.46718359375,41.863322142697854L267.72167187499997,42.273981427680695L267.83073828125,41.5193308520131L268.52149218750003,41.757548787631094L268.63055859375,42.301717891078425L268.99411328125,41.692780202627176" style="fill: none;" fill="none"></path></g></g></g></g></g></g><g transform="translate(39, 177)" clip-path="url(#clip_1)"><clipPath id="clip_1"><rect width="290" height="22"></rect></clipPath><g><g><line x1="0" y1="0" x2="0" y2="5" style="visibility: inherit;" fill="rgb(0, 0, 0)" stroke="rgb(204, 204, 204)" stroke-width="1px"></line><line x1="36.35546875" y1="0" x2="36.35546875" y2="5" style="visibility: inherit;" fill="rgb(0, 0, 0)" stroke="rgb(204, 204, 204)" stroke-width="1px"></line><line x1="72.7109375" y1="0" x2="72.7109375" y2="5" style="visibility: inherit;" fill="rgb(0, 0, 0)" stroke="rgb(204, 204, 204)" stroke-width="1px"></line><line x1="109.06640625" y1="0" x2="109.06640625" y2="5" style="visibility: inherit;" fill="rgb(0, 0, 0)" stroke="rgb(204, 204, 204)" stroke-width="1px"></line><line x1="145.421875" y1="0" x2="145.421875" y2="5" style="visibility: inherit;" fill="rgb(0, 0, 0)" stroke="rgb(204, 204, 204)" stroke-width="1px"></line><line x1="181.77734375" y1="0" x2="181.77734375" y2="5" style="visibility: inherit;" fill="rgb(0, 0, 0)" stroke="rgb(204, 204, 204)" stroke-width="1px"></line><line x1="218.1328125" y1="0" x2="218.1328125" y2="5" style="visibility: inherit;" fill="rgb(0, 0, 0)" stroke="rgb(204, 204, 204)" stroke-width="1px"></line><line x1="254.48828125" y1="0" x2="254.48828125" y2="5" style="visibility: inherit;" fill="rgb(0, 0, 0)" stroke="rgb(204, 204, 204)" stroke-width="1px"></line><line x1="290.84375" y1="0" x2="290.84375" y2="5" style="visibility: inherit;" fill="rgb(0, 0, 0)" stroke="rgb(204, 204, 204)" stroke-width="1px"></line></g><g transform="translate(0, 8)"><text x="0" y="0" dx="0em" dy="0.95em" style="text-anchor: middle; visibility: hidden; font-family: &quot;Helvetica Neue&quot;, sans-serif; font-size: 12px; font-weight: 200;" fill="rgb(50, 49, 63)" stroke="none" stroke-width="1px">-1k</text><text x="36.35546875" y="0" dx="0em" dy="0.95em" style="text-anchor: middle; visibility: inherit; font-family: &quot;Helvetica Neue&quot;, sans-serif; font-size: 12px; font-weight: 200;" fill="rgb(50, 49, 63)" stroke="none" stroke-width="1px">0</text><text x="72.7109375" y="0" dx="0em" dy="0.95em" style="text-anchor: middle; visibility: inherit; font-family: &quot;Helvetica Neue&quot;, sans-serif; font-size: 12px; font-weight: 200;" fill="rgb(50, 49, 63)" stroke="none" stroke-width="1px">1k</text><text x="109.06640625" y="0" dx="0em" dy="0.95em" style="text-anchor: middle; visibility: inherit; font-family: &quot;Helvetica Neue&quot;, sans-serif; font-size: 12px; font-weight: 200;" fill="rgb(50, 49, 63)" stroke="none" stroke-width="1px">2k</text><text x="145.421875" y="0" dx="0em" dy="0.95em" style="text-anchor: middle; visibility: inherit; font-family: &quot;Helvetica Neue&quot;, sans-serif; font-size: 12px; font-weight: 200;" fill="rgb(50, 49, 63)" stroke="none" stroke-width="1px">3k</text><text x="181.77734375" y="0" dx="0em" dy="0.95em" style="text-anchor: middle; visibility: inherit; font-family: &quot;Helvetica Neue&quot;, sans-serif; font-size: 12px; font-weight: 200;" fill="rgb(50, 49, 63)" stroke="none" stroke-width="1px">4k</text><text x="218.1328125" y="0" dx="0em" dy="0.95em" style="text-anchor: middle; visibility: inherit; font-family: &quot;Helvetica Neue&quot;, sans-serif; font-size: 12px; font-weight: 200;" fill="rgb(50, 49, 63)" stroke="none" stroke-width="1px">5k</text><text x="254.48828125" y="0" dx="0em" dy="0.95em" style="text-anchor: middle; visibility: inherit; font-family: &quot;Helvetica Neue&quot;, sans-serif; font-size: 12px; font-weight: 200;" fill="rgb(50, 49, 63)" stroke="none" stroke-width="1px">6k</text><text x="290.84375" y="0" dx="0em" dy="0.95em" style="text-anchor: middle; visibility: hidden; font-family: &quot;Helvetica Neue&quot;, sans-serif; font-size: 12px; font-weight: 200;" fill="rgb(50, 49, 63)" stroke="none" stroke-width="1px">7k</text></g><line x1="0" y1="0" x2="290.84375" y2="0" fill="rgb(0, 0, 0)" stroke="rgb(204, 204, 204)" stroke-width="1px"></line></g></g></g></g></svg>