<svg viewBox="0 0 330 200" xmlns="http://www.w3.org/2000/svg"><g><g><g><g><g><line x1="39.15625" y1="177.828125" x2="34.15625" y2="177.828125" style="visibility: inherit;" fill="rgb(0, 0, 0)" stroke="rgb(204, 204, 204)" stroke-width="1px"></line><line x1="39.15625" y1="164.14903846153845" x2="34.15625" y2="164.14903846153845" style="visibility: inherit;" fill="rgb(0, 0, 0)" stroke="rgb(204, 204, 204)" stroke-width="1px"></line><line x1="39.15625" y1="150.4699519230769" x2="34.15625" y2="150.4699519230769" style="visibility: inherit;" fill="rgb(0, 0, 0)" stroke="rgb(204, 204, 204)" stroke-width="1px"></line><line x1="39.15625" y1="136.7908653846154" x2="34.15625" y2="136.7908653846154" style="visibility: inherit;" fill="rgb(0, 0, 0)" stroke="rgb(204, 204, 204)" stroke-width="1px"></line><line x1="39.15625" y1="123.11177884615384" x2="34.15625" y2="123.11177884615384" style="visibility: inherit;" fill="rgb(0, 0, 0)" stroke="rgb(204, 204, 204)" stroke-width="1px"></line><line x1="39.15625" y1="109.4326923076923" x2="34.15625" y2="109.4326923076923" style="visibility: inherit;" fill="rgb(0, 0, 0)" stroke="rgb(204, 204, 204)" stroke-width="1px"></line><line x1="39.15625" y1="95.75360576923076" x2="34.15625" y2="95.75360576923076" style="visibility: inherit;" fill="rgb(0, 0, 0)" stroke="rgb(204, 204, 204)" stroke-width="1px"></line><line x1="39.15625" y1="82.07451923076924" x2="34.15625" y2="82.07451923076924" style="visibility: inherit;" fill="rgb(0, 0, 0)" stroke="rgb(204, 204, 204)" stroke-width="1px"></line><line x1="39.15625" y1="68.39543269230768" x2="34.15625" y2="68.39543269230768" style="visibility: inherit;" fill="rgb(0, 0, 0)" stroke="rgb(204, 204, 204)" stroke-width="1px"></line><line x1="39.15625" y1="54.71634615384616" x2="34.15625" y2="54.71634615384616" style="visibility: inherit;" fill="rgb(0, 0, 0)" stroke="rgb(204, 204, 204)" stroke-width="1px"></line><line x1="39.15625" y1="41.03725961538461" x2="34.15625" y2="41.03725961538461" style="visibility: inherit;" fill="rgb(0, 0, 0)" stroke="rgb(204, 204, 204)" stroke-width="1px"></line><line x1="39.15625" y1="27.358173076923066" x2="34.15625" y2="27.358173076923066" style="visibility: inherit;" fill="rgb(0, 0, 0)" stroke="rgb(204, 204, 204)" stroke-width="1px"></line><line x1="39.15625" y1="13.679086538461519" x2="34.15625" y2="13.679086538461519" style="visibility: inherit;" fill="rgb(0, 0, 0)" stroke="rgb(204, 204, 204)" stroke-width="1px"></line><line x1="39.15625" y1="0" x2="34.15625" y2="0" style="visibility: inherit;" fill="rgb(0, 0, 0)" stroke="rgb(204, 204, 204)" stroke-width="1px"></line></g><g transform="translate(29.15625, 0)"><text x="0" y="177.828125" dx="0em" dy="0.3em" style="text-anchor: end; visibility: hidden; font-family: &quot;Helvetica Neue&quot;, sans-serif; font-size: 12px; font-weight: 200;" fill="rgb(50, 49, 63)" stroke="none" stroke-width="1px">-60</text><text x="0" y="164.14903846153845" dx="0em" dy="0.3em" style="text-anchor: end; visibility: inherit; font-family: &quot;Helvetica Neue&quot;, sans-serif; font-size: 12px; font-weight: 200;" fill="rgb(50, 49, 63)" stroke="none" stroke-width="1px">-50</text><text x="0" y="150.4699519230769" dx="0em" dy="0.3em" style="text-anchor: end; visibility: hidden; font-family: &quot;Helvetica Neue&quot;, sans-serif; font-size: 12px; font-weight: 200;" fill="rgb(50, 49, 63)" stroke="none" stroke-width="1px">-40</text><text x="0" y="136.7908653846154" dx="0em" dy="0.3em" style="text-anchor: end; visibility: inherit; font-family: &quot;Helvetica Neue&quot;, sans-serif; font-size: 12px; font-weight: 200;" fill="rgb(50, 49, 63)" stroke="none" stroke-width="1px">-30</text><text x="0" y="123.11177884615384" dx="0em" dy="0.3em" style="text-anchor: end; visibility: hidden; font-family: &quot;Helvetica Neue&quot;, sans-serif; font-size: 12px; font-weight: 200;" fill="rgb(50, 49, 63)" stroke="none" stroke-width="1px">-20</text><text x="0" y="109.4326923076923" dx="0em" dy="0.3em" style="text-anchor: end; visibility: inherit; font-family: &quot;Helvetica Neue&quot;, sans-serif; font-size: 12px; font-weight: 200;" fill="rgb(50, 49, 63)" stroke="none" stroke-width="1px">-10</text><text x="0" y="95.75360576923076" dx="0em" dy="0.3em" style="text-anchor: end; visibility: hidden; font-family: &quot;Helvetica Neue&quot;, sans-serif; font-size: 12px; font-weight: 200;" fill="rgb(50, 49, 63)" stroke="none" stroke-width="1px">0</text><text x="0" y="82.07451923076924" dx="0em" dy="0.3em" style="text-anchor: end; visibility: inherit; font-family: &quot;Helvetica Neue&quot;, sans-serif; font-size: 12px; font-weight: 200;" fill="rgb(50, 49, 63)" stroke="none" stroke-width="1px">10</text><text x="0" y="68.39543269230768" dx="0em" dy="0.3em" style="text-anchor: end; visibility: hidden; font-family: &quot;Helvetica Neue&quot;, sans-serif; font-size: 12px; font-weight: 200;" fill="rgb(50, 49, 63)" stroke="none" stroke-width="1px">20</text><text x="0" y="54.71634615384616" dx="0em" dy="0.3em" style="text-anchor: end; visibility: inherit; font-family: &quot;Helvetica Neue&quot;, sans-serif; font-size: 12px; font-weight: 200;" fill="rgb(50, 49, 63)" stroke="none" stroke-width="1px">30</text><text x="0" y="41.03725961538461" dx="0em" dy="0.3em" style="text-anchor: end; visibility: hidden; font-family: &quot;Helvetica Neue&quot;, sans-serif; font-size: 12px; font-weight: 200;" fill="rgb(50, 49, 63)" stroke="none" stroke-width="1px">40</text><text x="0" y="27.358173076923066" dx="0em" dy="0.3em" style="text-anchor: end; visibility: inherit; font-family: &quot;Helvetica Neue&quot;, sans-serif; font-size: 12px; font-weight: 200;" fill="rgb(50, 49, 63)" stroke="none" stroke-width="1px">50</text><text x="0" y="13.679086538461519" dx="0em" dy="0.3em" style="text-anchor: end; visibility: hidden; font-family: &quot;Helvetica Neue&quot;, sans-serif; font-size: 12px; font-weight: 200;" fill="rgb(50, 49, 63)" stroke="none" stroke-width="1px">60</text><text x="0" y="0" dx="0em" dy="0.3em" style="text-anchor: end; visibility: hidden; font-family: &quot;Helvetica Neue&quot;, sans-serif; font-size: 12px; font-weight: 200;" fill="rgb(50, 49, 63)" stroke="none" stroke-width="1px">70</text></g><line x1="39.15625" y1="0" x2="39.15625" y2="177.828125" fill="rgb(0, 0, 0)" stroke="rgb(204, 204, 204)" stroke-width="1px"></line></g></g><g transform="translate(39, 0)" clip-path="url(#clip_0)"><clipPath id="clip_0"><rect width="290" height="177"></rect></clipPath><g><g><g><line x1="0" y1="0" x2="0" y2="177.828125" fill="rgb(0, 0, 0)" stroke="rgb(60, 60, 60)" stroke-width="1px" opacity="0.25"></line><line x1="22.372596153846157" y1="0" x2="22.372596153846157" y2="177.828125" fill="rgb(0, 0, 0)" stroke="rgb(60, 60, 60)" stroke-width="1px" opacity="0.25"></line><line x1="44.745192307692314" y1="0" x2="44.745192307692314" y2="177.828125" fill="rgb(0, 0, 0)" stroke="rgb(60, 60, 60)" stroke-width="1px" opacity="0.25"></line><line x1="67.11778846153847" y1="0" x2="67.11778846153847" y2="177.828125" fill="rgb(0, 0, 0)" stroke="rgb(60, 60, 60)" stroke-width="1px" opacity="0.25"></line><line x1="89.49038461538463" y1="0" x2="89.49038461538463" y2="177.828125" fill="rgb(0, 0, 0)" stroke="rgb(60, 60, 60)" stroke-width="1px" opacity="0.25"></line><line x1="111.86298076923077" y1="0" x2="111.86298076923077" y2="177.828125" fill="rgb(0, 0, 0)" stroke="rgb(60, 60, 60)" stroke-width="1px" opacity="0.25"></line><line x1="134.23557692307693" y1="0" x2="134.23557692307693" y2="177.828125" fill="rgb(0, 0, 0)" stroke="rgb(60, 60, 60)" stroke-width="1px" opacity="0.25"></line><line x1="156.60817307692307" y1="0" x2="156.60817307692307" y2="177.828125" fill="rgb(0, 0, 0)" stroke="rgb(60, 60, 60)" stroke-width="1px" opacity="0.25"></line><line x1="178.98076923076925" y1="0" x2="178.98076923076925" y2="177.828125" fill="rgb(0, 0, 0)" stroke="rgb(60, 60, 60)" stroke-width="1px" opacity="0.25"></line><line x1="201.3533653846154" y1="0" x2="201.3533653846154" y2="177.828125" fill="rgb(0, 0, 0)" stroke="rgb(60, 60, 60)" stroke-width="1px" opacity="0.25"></line><line x1="223.72596153846155" y1="0" x2="223.72596153846155" y2="177.828125" fill="rgb(0, 0, 0)" stroke="rgb(60, 60, 60)" stroke-width="1px" opacity="0.25"></line><line x1="246.09855769230768" y1="0" x2="246.09855769230768" y2="177.828125" fill="rgb(0, 0, 0)" stroke="rgb(60, 60, 60)" stroke-width="1px" opacity="0.25"></line><line x1="268.47115384615387" y1="0" x2="268.47115384615387" y2="177.828125" fill="rgb(0, 0, 0)" stroke="rgb(60, 60, 60)" stroke-width="1px" opacity="0.25"></line><line x1="290.84375" y1="0" x2="290.84375" y2="177.828125" fill="rgb(0, 0, 0)" stroke="rgb(60, 60, 60)" stroke-width="1px" opacity="0.25"></line></g><g><line x1="0" y1="177.828125" x2="290.84375" y2="177.828125" fill="rgb(0, 0, 0)" stroke="rgb(60, 60, 60)" stroke-width="1px" opacity="0.25"></line><line x1="0" y1="164.14903846153845" x2="290.84375" y2="164.14903846153845" fill="rgb(0, 0, 0)" stroke="rgb(60, 60, 60)" stroke-width="1px" opacity="0.25"></line><line x1="0" y1="150.4699519230769" x2="290.84375" y2="150.4699519230769" fill="rgb(0, 0, 0)" stroke="rgb(60, 60, 60)" stroke-width="1px" opacity="0.25"></line><line x1="0" y1="136.7908653846154" x2="290.84375" y2="136.7908653846154" fill="rgb(0, 0, 0)" stroke="rgb(60, 60, 60)" stroke-width="1px" opacity="0.25"></line><line x1="0" y1="123.11177884615384" x2="290.84375" y2="123.11177884615384" fill="rgb(0, 0, 0)" stroke="rgb(60, 60, 60)" stroke-width="1px" opacity="0.25"></line><line x1="0" y1="109.4326923076923" x2="290.84375" y2="109.4326923076923" fill="rgb(0, 0, 0)" stroke="rgb(60, 60, 60)" stroke-width="1px" opacity="0.25"></line><line x1="0" y1="95.75360576923076" x2="290.84375" y2="95.75360576923076" fill="rgb(0, 0, 0)" stroke="rgb(60, 60, 60)" stroke-width="1px" opacity="0.25"></line><line x1="0" y1="82.07451923076924" x2="290.84375" y2="82.07451923076924" fill="rgb(0, 0, 0)" stroke="rgb(60, 60, 60)" stroke-width="1px" opacity="0.25"></line><line x1="0" y1="68.39543269230768" x2="290.84375" y2="68.39543269230768" fill="rgb(0, 0, 0)" stroke="rgb(60, 60, 60)" stroke-width="1px" opacity="0.25"></line><line x1="0" y1="54.71634615384616" x2="290.84375" y2="54.71634615384616" fill="rgb(0, 0, 0)" stroke="rgb(60, 60, 60)" stroke-width="1px" opacity="0.25"></line><line x1="0" y1="41.03725961538461" x2="290.84375" y2="41.03725961538461" fill="rgb(0, 0, 0)" stroke="rgb(60, 60, 60)" stroke-width="1px" opacity="0.25"></line><line x1="0" y1="27.358173076923066" x2="290.84375" y2="27.358173076923066" fill="rgb(0, 0, 0)" stroke="rgb(60, 60, 60)" stroke-width="1px" opacity="0.25"></line><line x1="0" y1="13.679086538461519" x2="290.84375" y2="13.679086538461519" fill="rgb(0, 0, 0)" stroke="rgb(60, 60, 60)" stroke-width="1px" opacity="0.25"></line><line x1="0" y1="0" x2="290.84375" y2="0" fill="rgb(0, 0, 0)" stroke="rgb(60, 60, 60)" stroke-width="1px" opacity="0.25"></line></g></g></g><g><g><line x1="0" y1="95.75360576923076" x2="290.84375" y2="95.75360576923076" fill="rgb(0, 0, 0)" stroke="rgb(153, 153, 153)" stroke-width="1.5px"></line></g></g><g><g><line x1="22.372596153846157" y1="0" x2="22.372596153846157" y2="177.828125" fill="rgb(0, 0, 0)" stroke="rgb(153, 153, 153)" stroke-width="1.5px"></line></g></g><g><g><g><g><g><path stroke="rgb(255, 112, 67)" stroke-width="2px" d="M22.462086538461538,94.201142465882L22.775302884615385,92.89632824500127L22.909538461538464,92.38237922864892L23.267500000000002,92.2616344348447L23.312245192307692,91.73590268697095L23.356990384615383,91.2602296613981L23.62546153846154,90.6644294835364L23.938677884615384,90.0267274413711L24.02816826923077,89.68492928944536L24.47562019230769,88.77258795580127L24.65460096153846,88.03021137537618L24.744091346153848,87.53538525928367L25.19154326923077,87.87381708994647L25.817975961538462,89.26484342335661L25.907466346153846,90.57265252351738L26.086447115384615,91.79001571800826L26.35491826923077,92.84614599874341L26.444408653846153,93.98423014556475L26.489153846153847,94.70657713136762L26.623389423076922,95.24067279176747L27.473548076923077,93.60272711352937L27.607783653846155,91.26615386484227L27.921,88.84776495017411L28.055235576923078,88.0349995096985L28.189471153846153,87.18528870042125L28.32370673076923,88.75813059887334L28.457942307692306,91.22348083532353L28.905394230769232,95.22406735506496L29.26335576923077,98.41846995619971L29.30810096153846,99.98346479855091L29.48708173076923,101.04942474801824L29.755552884615383,102.73557888427531L29.934533653846152,104.94584478266684L30.11351442307692,106.9149913675556L30.47147596153846,108.52836634892557L30.560966346153847,109.55885475199972L31.769086538461536,105.1482289198944L31.81383173076923,101.44137051789389L32.17179326923077,98.19295478117118L32.26128365384616,95.87301026035165L32.30602884615384,94.03801402841606L32.66399038461538,91.4473094496409L32.708735576923075,90.1487997530555L32.75348076923077,88.8629654536061L32.97720673076923,88.12409062051135L33.33516826923077,87.80856413544635L33.379913461538465,87.57339603442378L33.87211057692308,88.09009139951598L34.230072115384615,88.22514484452232L34.36430769230769,87.32587794670026L34.94599519230769,81.45523661038013L35.169721153846154,76.93627767175933L35.30395673076923,74.35585614311084L35.4829375,73.26663200895307L35.4829375,72.96299063669888L35.84089903846154,74.55639762502246L36.24360576923077,76.2757716244359L36.28835096153846,77.80558707840963L36.55682211538461,79.56147955507531L36.69105769230769,81.10898095335254L36.73580288461539,81.69178095173561L36.780548076923075,82.18981994929334L36.82529326923076,82.9307339919308L36.87003846153846,83.31200651904751L37.13850961538461,84.13635825844938L37.36223557692308,85.1504924447813L37.63070673076923,86.01734271489299L37.7649423076923,86.38920841698706L38.3466298076923,88.67847030674183L38.43612019230769,90.09453220261607L38.52561057692308,91.19586807557718L38.52561057692308,92.03819285815453L38.70459134615384,92.36120777790889L38.88357211538462,92.8810993857782L38.973062500000005,93.101426205515L39.06255288461538,93.39798205805988L39.19678846153847,92.92671932388784L39.28627884615384,92.9791204110236L39.46525961538462,93.42033063614421L39.554750000000006,93.76421595808873L39.59949519230769,93.87407692288487L39.64424038461538,93.84175894914759L39.823221153846156,93.64953496453303L39.912711538461544,93.87377581937396L39.95745673076923,94.1587928476214L40.091692307692306,93.83504565565464L40.13643750000001,94.04543889958138L40.22592788461538,93.82331763710205L40.31541826923077,93.81387149384302L40.44965384615384,93.92612953404571L40.44965384615384,94.08165301992794L40.98659615384616,93.7465053160825L41.07608653846154,93.45253394861818L41.79200961538462,93.01707052633506L41.970990384615384,92.38933210633785L42.10522596153846,91.76281602172378L42.41844230769231,91.18121782522853L42.5079326923077,90.73274525388338L42.64216826923077,90.37877324828521L42.68691346153846,90.26878229490482L42.821149038461535,89.85376656873882L42.865894230769236,89.63549208013379L43.17911057692307,89.18686422792128L43.223855769230774,88.64341124907443L43.44758173076924,88.63297823665188L43.492326923076924,88.25723557535017L43.71605288461539,88.28163405041128L43.805543269230775,88.31568207190266L43.89503365384615,88.44723754754241L44.074014423076925,88.72625638214326L44.11875961538461,88.96787144659963L44.252995192307694,89.24624320105731L44.252995192307694,89.63578727069647L44.38723076923077,90.03351948643004L44.7899375,90.96328654377304L44.83468269230769,92.0255850105457L45.05840865384615,92.61497634969831L45.72958653846154,94.2683005197695L45.99805769230769,95.52848629814531L46.132293269230765,96.49706835007227L46.22178365384615,96.81998538659042L46.26652884615385,96.83641961955948L46.35601923076923,97.06546501259781L46.49025480769231,97.25136221230264L46.57974519230769,97.85648486664344L46.803471153846154,98.45353776714245L46.93770673076923,98.49935881517874L47.071942307692304,97.87746427896761L47.29566826923077,96.22395903809637L47.385158653846155,95.1635577142899L48.235317307692306,92.91716431011896L48.324807692307694,91.72521758909036L48.324807692307694,91.18755339908147L48.36955288461538,90.49764134971365L48.77225961538462,89.75746953019492L49.04073076923077,89.15681623737485L49.04073076923077,89.06890522214823L49.174966346153845,89.43022018554105L49.353947115384614,89.84510607300805L49.935634615384615,90.95879743366145L50.20410576923077,90.33446474721484L50.427831730769235,89.20712401392638L50.517322115384616,87.35237405492413L50.56206730769231,85.96656748401023L51.00951923076923,83.44969071136516L51.14375480769231,82.45937557184963L51.32273557692308,82.02980683057835L51.456971153846155,81.98751965221133L51.81493269230769,83.06914656351748L51.85967788461539,83.93401066648487L52.12814903846154,84.86063498507913L52.17289423076923,85.72724518180476L52.26238461538461,86.18365440359833L52.26238461538461,86.73956795682565L53.33626923076923,84.38636981145729L53.425759615384614,83.60098569074522L53.47050480769231,83.00551089058942L53.51525,82.4712130660452L54.007447115384615,83.48308042746454L54.27591826923077,84.46652626796491L54.32066346153846,85.18170770592461L54.41015384615385,85.70868702438273L54.49964423076923,86.57768594965953L54.589134615384616,87.22671621670771L55.12607692307692,89.37319912075804L55.17082211538462,90.84290916559902L55.39454807692308,91.19001429683497L55.57352884615385,92.05912791924288L55.66301923076923,92.92643606239257L55.707764423076924,93.2267488778133L56.110471153846156,91.75052825316321L56.4236875,90.09541353118368L56.51317788461539,88.6246343896551L57.09486538461538,89.8240803408046L57.45282692307693,90.44086815516056L57.45282692307693,91.06755547484468L57.810788461538465,89.98647933737097L57.900278846153846,88.5931509339413L58.258240384615384,84.5885433920384L58.258240384615384,82.56135835494484L58.57145673076923,81.79528195504798L58.750437500000004,83.6530824349834L58.88467307692308,85.37920710006436L58.97416346153846,88.43197903664893L59.06365384615385,90.72060680901355L59.15314423076923,93.30783071122468L59.24263461538462,94.66467317774878L59.51110576923077,94.33255963785366L59.69008653846154,94.14237162961084L59.82432211538462,92.58685046701052L60.00330288461538,89.5274224961214L60.182283653846156,86.53277538399222L60.27177403846154,82.79255744674765L60.31651923076923,80.51673890176484L60.361264423076925,78.03897769565761L60.450754807692306,75.98315567158733L60.58499038461538,74.25831658169855L60.808716346153844,72.75348674482015L61.03244230769231,71.69899302112908L61.121932692307695,70.51553070950602L61.16667788461538,69.72828512361657L61.211423076923076,69.42700462617468L61.34565865384616,68.951889461377L61.390403846153845,68.87378083409176L61.43514903846154,68.47075971696788L61.43514903846154,68.59522725643662L61.88260096153846,69.96209575191156L62.061581730769234,71.96860667967576L62.19581730769231,73.05680007414136L62.37479807692308,73.8155721736823L62.37479807692308,74.62717714056312L62.598524038461534,74.17337626451906L62.732759615384616,74.06900038959913L63.224956730769236,74.96834009434183L63.31444711538461,75.84050126290789L63.53817307692307,76.98444143085027L63.62766346153846,77.4957702688201L63.80664423076923,78.86112246024474L64.11986057692307,79.01989872721629L64.16460576923076,80.38963107484182L64.29884134615385,81.43769117397932L64.34358653846154,82.00204802789929L65.1042548076923,81.2020534116499L65.23849038461539,80.00591932920375L65.64119711538461,76.57679767252888L65.6859423076923,74.13032774234942L65.86492307692308,72.29227595997165L65.90966826923076,71.35582479565879L65.95441346153846,70.69660728348401L66.35712019230769,68.0282175240381L66.67033653846154,65.44105836990715L66.71508173076923,63.88238837634698L67.11778846153847,64.24607759700247L67.20727884615384,64.6292767428519L67.38625961538462,65.29299835324791L67.78896634615384,68.32171698913513L67.92320192307692,72.1259609348829L68.46014423076923,83.5715252982278L68.72861538461538,91.2851440313325L68.72861538461538,96.3701913033873L68.81810576923077,98.39874781459274L68.81810576923077,99.94340876330143L68.86285096153846,100.55736688181055L68.90759615384616,99.83311607960592L68.99708653846153,99.1538499315351L69.08657692307692,97.16455578324089L69.2655576923077,94.01084545450465L69.57877403846153,89.16535324250813L70.33944230769231,85.7183391989364L70.4289326923077,83.98510516902219L70.60791346153846,83.0058566179942L70.78689423076924,83.63961513992419L71.05536538461538,83.74040557165857L71.27909134615385,84.01960307270697L71.32383653846153,83.8690018255139L71.36858173076924,83.42517979292741L71.41332692307692,82.53115893608457L71.50281730769231,81.25896222485014L71.5475625,80.8621268723597L71.72654326923077,81.82031224867227L71.81603365384615,82.69158141865492L72.12925,86.60650919806685L72.26348557692307,91.1199766021107L72.39772115384615,94.4382401930128L72.39772115384615,97.26935404176368L72.44246634615385,99.1177046742591L72.53195673076922,100.33915121310118L72.62144711538461,101.70321841381656L72.62144711538461,103.15109531808572L72.80042788461537,104.31197252634526L72.84517307692307,105.66622150096696L72.97940865384615,105.0189657837126L73.38211538461537,99.27793255L73.60584134615385,95.32268812135224L73.74007692307693,92.26007519757736L73.8743125,91.062712216766L73.96380288461538,89.86407105533377L74.23227403846153,88.4241588936197L74.27701923076923,86.51793240179151L74.81396153846153,80.7380368983305L75.0376875,74.08327381345966L75.39564903846153,71.50826133908372L75.79835576923078,69.87866543571768L75.84310096153845,68.66489689621926L75.88784615384616,68.39256288278875L76.1115721153846,67.77252465142382L76.2010625,68.28047925320793L76.60376923076923,70.0038206274408L76.87224038461538,71.18015382599955L77.05122115384616,72.4134656258994L77.18545673076923,74.91968157768918L77.18545673076923,77.23073889294437L77.23020192307693,79.27476405695278L77.2749471153846,80.36144055285708L77.40918269230768,82.17728757911578L77.94612500000001,87.83636261563062L77.99087019230768,90.25279171978728L78.21459615384616,90.09895110696502L78.25934134615386,89.52449917078445L78.34883173076923,91.10214625350929L78.66204807692309,91.37964103191166L78.79628365384616,92.20959478178754L79.02000961538461,90.2832651109277L79.33322596153846,86.8695231155713L79.42271634615383,84.03987554559376L79.46746153846154,82.15334885947543L79.78067788461539,79.74782882178027L80.04914903846154,76.95195683349762L80.31762019230769,76.3979509361087L80.54134615384616,76.1540776125169L80.67558173076924,77.05678641337839L81.03354326923076,80.98117980892977L81.16777884615384,83.42768046368168L81.21252403846154,85.31070823771084L81.39150480769231,87.43045867277118L81.52574038461539,87.97590620096287L81.65997596153846,87.68567675635673L81.74946634615384,88.64002302738838L82.28640865384617,82.51645169903982L82.42064423076924,79.0823796259678L82.55487980769232,74.55945555180365L82.82335096153847,69.85755495930208L83.00233173076924,65.78292135640218L83.31554807692306,64.13963556068451L83.58401923076924,64.72943908081837L83.67350961538462,65.18463484974231L83.98672596153847,67.6586479545143L83.98672596153847,69.80475783387783L84.03147115384616,72.06828181345625L84.74739423076923,78.65051952201208L84.79213942307692,82.6232191414902L84.79213942307692,85.62606825932403L84.9711201923077,87.3351071681926L85.19484615384614,88.85619310967068L85.5528076923077,88.80192193442365L85.64229807692307,89.68310972821216L86.31347596153847,86.88609788162411L86.62669230769231,84.02306899949116L86.80567307692307,81.66831659418557L87.02939903846155,80.75263501192458L87.16363461538462,79.51341226669884L87.253125,78.35497666278505L87.61108653846155,77.47534072409563L87.65583173076922,76.28436057683889L87.70057692307692,75.96069388110905L87.96904807692307,74.11572768245895L88.3717548076923,71.73356596644652L88.72971634615385,73.68378874889112L88.90869711538463,74.40704150576055L89.44563942307693,76.71328942996838L89.6246201923077,81.20671194465965L89.66936538461538,82.9493887890468L89.71411057692308,84.59048580017533L89.80360096153846,86.77603874946053L89.84834615384615,88.20609234032834L90.07207211538461,91.10475740569423L90.1615625,93.26751021265751L90.34054326923078,95.23731324091874L90.38528846153845,97.72325838182942L90.92223076923078,99.52814737937518L91.01172115384615,100.18554591224134L91.05646634615385,100.37340835584449L91.41442788461538,98.17206654287517L91.68289903846153,97.7707029417193L92.21984134615386,96.54651630034455L92.5330576923077,96.25889853441845L92.71203846153846,96.08031799252959L92.84627403846153,92.20371358561044L92.93576442307693,90.54385786552972L93.0252548076923,87.97444794434615L93.07000000000001,86.78107981925196L93.42796153846153,83.24738048772849L93.83066826923077,82.96307929639214L93.87541346153846,83.55954841242136L94.00964903846153,82.5786536791493L94.09913942307692,82.27977832198785L94.63608173076923,82.99196590704571L94.68082692307692,84.60059963136776L94.85980769230768,85.18274389189402L94.90455288461538,86.10462929618585L94.94929807692309,86.63957891292708L94.99404326923077,87.42164020362056L94.99404326923077,88.58325862916307L95.57573076923077,93.22454302467564L95.75471153846154,96.60717282721609L96.29165384615385,92.66886958538556L96.47063461538461,88.05990555147385L96.78385096153846,80.70001363698367L96.82859615384616,75.59142131845236L96.91808653846154,73.69350929467542L97.18655769230769,71.94147830280554L97.85773557692308,72.02317386111277L97.90248076923076,71.38568623383621L97.94722596153846,69.76963377134484L98.12620673076924,67.32922288499165L98.48416826923076,65.48788412130088L98.61840384615384,63.53975879096561L99.11060096153847,68.36548507381698L99.15534615384615,73.91273312247709L99.28958173076923,79.58743164539334L99.51330769230769,88.83818954490695L99.55805288461539,95.4222837762053L99.69228846153847,101.07174027322897L99.73703365384615,103.56030465881146L99.87126923076923,106.09116729445711L100.0055048076923,107.48532366139013L100.1397403846154,106.48443120629518L100.22923076923077,105.5505196586215L100.5871923076923,101.61006514145417L100.85566346153847,94.34170674299978L100.94515384615384,89.4063192042503L101.07938942307692,88.10185478685594L101.43735096153847,89.24992333573006L101.48209615384616,89.99573904709621L101.61633173076923,91.60296069504015L101.70582211538462,95.2365116485841L102.06378365384616,99.44960294810868L102.46649038461538,99.47846414562518L102.91394230769231,97.73216752845572L103.31664903846153,83.45146467451904L103.36139423076924,75.79019040471798L103.40613942307692,70.16201737444415L103.45088461538462,69.76698263992282L103.540375,69.6115487338132L103.89833653846154,82.84244969027934L104.1668076923077,91.9285303909687L104.1668076923077,98.63979113105812L104.48002403846154,99.56774688952264L105.15120192307693,109.472164707051L105.19594711538461,115.63290515526722L105.73288942307693,117.3157929369118L105.8223798076923,117.45349531901792L105.867125,115.61061823259313L106.00136057692308,114.49269192873365L106.04610576923076,113.01784365982553L106.09085096153846,110.94160327294223L106.31457692307693,106.22601788139059L106.4488125,104.19443289992638L106.76202884615385,96.8776514484775L106.94100961538462,90.91635337786396L107.20948076923077,93.04702492404546L107.25422596153847,95.66070260580061L107.34371634615384,94.15987746497018L107.6121875,93.74029872472023L107.70167788461538,92.06731195354195L107.79116826923077,88.84602581053905L107.83591346153847,86.28792214350935L108.05963942307692,87.49840091005723L108.1491298076923,90.01482233406941L108.8203076923077,92.68626337773475L108.90979807692308,95.42071948491581L109.08877884615384,95.19502718457103L109.67046634615384,93.76458502449017L110.07317307692308,93.0049121162004L110.25215384615385,89.6240754580002L110.38638942307692,85.35486745321528L110.47587980769231,82.52656226593214L110.74435096153846,78.99916955475324L110.87858653846153,77.58295168614208L111.01282211538462,78.29893431143837L111.50501923076924,84.43859802993416L111.7287451923077,91.58124328462418L111.86298076923077,94.6920469631052L112.04196153846154,101.09654737005256L112.08670673076924,101.3933844241569L112.35517788461539,101.33333438825106L112.57890384615385,99.3547363123679L112.66839423076922,96.5071286358191L112.89212019230769,101.01964606574313L113.92125961538461,120.80996886276499L114.05549519230769,131.16490436259733L114.05549519230769,138.25341611836035L114.27922115384615,142.86760296589495L115.93479326923077,130.9219141321745L116.15851923076923,122.0003650398702L116.20326442307693,115.75669663787556L116.24800961538462,112.32779765923607L116.2927548076923,107.24583473755636L116.3375,106.01188174531934L116.38224519230769,104.3333071654572L116.9191875,105.85193636624602L117.05342307692308,101.68740500736082L117.09816826923077,100.33799286080071L117.27714903846153,93.26391545552688L117.5456201923077,88.08941698970375L117.72460096153846,86.34625780294752L117.81409134615384,84.81596700110592L117.81409134615384,84.94805393017771L118.17205288461538,83.64823605600081L118.53001442307692,89.20717900272976L118.66425,91.48443339289004L118.75374038461538,91.58939356552641L118.93272115384616,95.14354082963195L118.97746634615385,96.43260510099725L119.20119230769231,96.8206845660743L119.29068269230768,97.98700033452226L119.42491826923077,104.05560844661615L119.51440865384616,112.60624696153113L120.09609615384616,114.98540354398132L120.31982211538461,112.89987999515081L120.63303846153846,104.56752966388487L120.81201923076924,94.81451087450866L120.94625480769231,85.73595282670466L121.03574519230769,77.04892981624414L121.03574519230769,72.53484285239328L121.48319711538461,60.37190975699576L121.52794230769231,54.84760957231833L121.66217788461539,51.54996342591106L122.33335576923076,58.43507774679091L122.46759134615384,67.53151219272016L122.55708173076923,74.24589733531116L122.82555288461539,81.44571851682227L122.87029807692308,86.29845978129497L123.22825961538462,96.6393303174751L123.27300480769232,102.17828240260116L123.67571153846154,105.49044087705255L123.72045673076923,103.48320385742835L123.76520192307692,100.3703114769109L123.98892788461539,95.48251132470472L124.16790865384615,91.74335274431675L124.21265384615384,91.16990239026978L124.79434134615384,86.12068265820322L124.83908653846154,86.17805045296691L125.1075576923077,91.16013399288025L125.15230288461538,97.16350023912675L125.19704807692307,100.96661055320719L125.24179326923077,104.34015597166686L125.51026442307692,110.3980665679193L125.91297115384614,120.15894119492134L126.36042307692307,132.3088288796693L126.53940384615385,140.9160352322035L126.71838461538462,144.10226411050763L126.807875,145.401214428471L126.94211057692307,143.98825301575863L126.98685576923077,141.89604790377004L126.98685576923077,141.26253299611164L127.21058173076922,138.6511702119688L127.79226923076922,139.8702109350238L127.9265048076923,139.3049378654368L128.28446634615386,127.69226065637102L128.5081923076923,118.87921356881975L128.5976826923077,112.97229085951088L128.6424278846154,107.73518512010918L128.82140865384616,103.83543085772693L128.86615384615385,101.97877915385627L128.91089903846154,102.22922031846524L128.95564423076922,98.28516791530271L129.00038942307694,97.05186365811029L129.22411538461537,93.51474405439266L129.31360576923078,90.03127157965551L129.44784134615384,87.01278814078763L129.49258653846152,84.25125610476188L129.6268221153846,81.32826631096275L129.7610576923077,77.56304286835493L129.8058028846154,76.12911291059746L129.85054807692308,74.85632482032574L130.65596153846153,89.79662048073355L130.92443269230768,90.48884887614969L131.32713942307691,111.97210779948813L131.3718846153846,126.7770559528833L131.81933653846153,133.64862345664204L131.86408173076924,136.23700196848947L131.86408173076924,138.4893185234924L132.31153365384617,129.16126456760065L132.84847596153847,116.68124034271105L132.89322115384616,112.23562838726366L133.2064375,103.4759392992857L133.38541826923077,95.29510858774476L133.56439903846154,90.17976448868963L133.65388942307692,82.30324964172945L133.6986346153846,77.52757203552126L133.6986346153846,75.87671665413976L134.01185096153847,68.07528279305852L134.19083173076925,66.50134574581L134.68302884615383,65.85214024182218L134.81726442307692,67.54710384027257L134.90675480769232,67.24730293897908L135.04099038461538,69.79548865489114L135.35420673076922,73.67312247432899L135.3989519230769,76.21653651320439L135.3989519230769,79.59255949469966L135.57793269230768,84.29151359272154L135.98063942307692,97.22023893889921L136.47283653846154,117.50048574001184L136.60707211538463,130.89301601156714L137.05452403846155,136.35585733980702L137.09926923076924,142.57654029328086L137.2335048076923,146.9025697386173L137.8151923076923,153.23324011063025L137.9046826923077,154.34830299150062L138.21789903846155,154.1400327887464L138.30738942307693,152.95274565972852L138.71009615384617,152.25272789178152L138.8890769230769,151.87579625125673L139.38127403846153,151.17594754887878L139.47076442307693,151.19855894772473L139.47076442307693,152.5646033058109L139.5602548076923,152.3115562635387L139.605,150.88581718449606L139.6944903846154,150.0170966573782L140.1866875,157.96163801544884L140.67888461538462,169.63039875256177L140.99210096153845,179.39568394869704L141.93175,182.97445327881053L142.24496634615386,109.42469424805273L142.28971153846155,59.15634874546343L142.33445673076923,25.455752566305307L142.73716346153847,-12.392851644432682L145.421875,-4.934760557907623L145.5561105769231,7.126697700075397L145.69034615384615,13.933611095826308L145.73509134615384,20.942346415861124L145.77983653846155,26.20907562280013L146.1377980769231,29.804541247696193L146.31677884615385,34.522501957092686L146.4957596153846,45.328578657542835L146.89846634615384,57.86005762614916L146.98795673076924,66.16027223861009L147.0327019230769,64.35446595510393L147.30117307692305,82.04284684795013L147.34591826923076,93.76752763293904L147.48015384615385,101.01863655545867L147.748625,109.57187960069052L147.88286057692306,115.58907852556555L148.10658653846156,113.7924209316516L148.3303125,115.50727970884064L148.9567451923077,112.71999053006705L149.0014903846154,103.90048894372784L149.09098076923075,98.91015536722477L149.40419711538462,91.12027706301221L150.34384615384616,62.72399809633224L150.38859134615385,49.45823006280057L150.47808173076922,46.692025597013554L150.79129807692306,65.21495018099492L151.0597692307692,88.46217742206119L151.1940048076923,116.68826071846439L151.59671153846156,138.78526532354877L151.64145673076922,154.70569267682757L151.7756923076923,168.07988620160307L151.8651826923077,159.062117318675L151.99941826923077,101.17615189427349L152.26788942307692,59.57811411452511L152.3126346153846,34.46668747710214L152.67059615384616,19.043577452536397L152.76008653846156,4.626411481475259L152.89432211538463,3.145597173300189L153.5207548076923,9.951477879553977L153.56550000000001,18.4632786953224L153.69973557692308,28.843465870935432L154.10244230769231,47.127427966555416L154.1471875,58.91608640231014L154.32616826923078,64.35910665347264L154.50514903846155,76.19217807364149L154.72887500000002,92.1760035641156L154.7736201923077,93.2067230647945L154.99734615384617,94.29976835803284L155.08683653846157,98.19123848379996L155.08683653846157,101.44900074638657L155.53428846153847,95.81792171810247L155.62377884615387,92.12728823642745L155.66852403846153,90.67960940533904L155.75801442307693,90.28760694838137L155.98174038461536,88.13555474987186L156.3844471153846,89.08648400200663L156.83189903846153,82.79844653047616L156.92138942307693,79.80905158720905L157.14511538461537,72.68458624336924L157.27935096153846,72.59451339469481L157.27935096153846,77.63689999834376L157.32409615384617,79.86334231006356L157.36884134615386,86.5721503231419L157.45833173076923,90.72639393347573L157.95052884615387,128.7541490472257L158.30849038461537,162.92580901237497L158.35323557692308,181.44669416431196L158.93492307692307,250.83969545547575L159.15864903846153,148.80285659239718L159.29288461538462,71.01419307620635L159.3376298076923,28.718958059369157L159.47186538461537,-13.157963257916009L162.46979326923076,-1.8450188840810995L163.05148076923078,55.48446716203139L163.49893269230768,112.98480553174936L163.58842307692308,144.24936273376943L163.67791346153848,160.3145259496113L163.67791346153848,172.98239271785215L163.85689423076923,171.0460200809929L164.21485576923078,173.51711733976424L164.48332692307693,191.03320510071632L165.02026923076923,183.34514793395277L165.55721153846153,133.93796144518052L167.66023557692307,94.4415888733618L168.01819711538462,73.78148643984417L168.19717788461537,64.15740620548095L168.7788653846154,52.51162929063088L169.2710625,48.71226946034139L169.45004326923078,43.485663686227525L169.8080048076923,42.9161883217744L169.85275,47.459843294595174L170.0317307692308,48.203214738097046L170.4344375,52.457165008014954L170.4791826923077,50.18653213042225L170.92663461538461,52.97978337707734L170.9713798076923,55.4221353389364L171.016125,57.05640922045727L171.37408653846154,54.603615920143966L172.2689903846154,54.250103406042754L173.342875,54.498992969581806L173.52185576923077,47.560106929350866L173.61134615384614,43.15650837855691L173.65609134615383,43.019409199165835L173.79032692307695,42.8800213043001L174.23777884615384,42.72652996335299L174.64048557692308,45.24275618305589L174.77472115384614,46.74815040791961L175.2221730769231,46.267604654176466L175.44589903846153,50.15824481867206L177.05672596153846,49.83308646004562L177.4594326923077,52.103696052833314L177.54892307692307,55.152171613429644L177.72790384615385,49.122354981234906L177.996375,52.67563156669445L178.1306105769231,50.381323680238694L178.44382692307693,46.076471821181514L178.80178846153845,51.30533436391275L178.93602403846154,51.5540260605151L179.2939855769231,50.896685099774814L179.47296634615384,50.78832738850048L179.65194711538462,52.40067484759177L180.14414423076923,50.68019583471808L180.68108653846156,51.34527275380103L180.8600673076923,54.428087180126596L181.17328365384614,54.460862479415994L181.35226442307692,57.32459146744917L181.84446153846156,55.444167309985644L182.38140384615386,47.52767238258485L183.0973269230769,47.94321065247479L184.21595673076925,47.82719997841829L184.8871346153846,43.09916495709385L185.5135673076923,44.67897775804721L185.69254807692306,46.1340390290959L185.87152884615386,48.47804618514439L186.2294903846154,51.725394493744545L186.49796153846154,46.79268610602503L186.54270673076923,48.04108130328311L187.30337500000002,48.90176194287352L187.70608173076923,45.46387778222612L187.9745528846154,44.89827004052157L188.3325144230769,44.70980407123403L188.46675000000002,45.48175529389209L189.45114423076922,39.562914973741385L190.2118125,34.51528118689211L190.39079326923076,43.8444560723633L190.7487548076923,44.79227175677141L190.88299038461537,46.245319872973596L191.15146153846155,42.13324277604619L191.956875,40.409300079834L192.04636538461537,41.72307607107851L192.85177884615385,43.324052982997614L193.03075961538462,43.54224352759272L193.1649951923077,51.416584086871126L193.97040865384616,49.60587834055275L194.1493894230769,51.85337114001956L194.46260576923078,48.51674837133214L195.04429326923076,45.92806387726711L195.3127644230769,45.061564782122105L195.93919711538462,47.72396070357337L196.47613942307692,47.15719043408464L196.78935576923078,47.417416750802516L197.1473173076923,43.516109548182726L197.50527884615383,40.88624139383339L197.55002403846152,46.164044232924965L197.77375,45.13436933191383L197.95273076923078,43.772144143679014L198.53441826923077,43.890560324910865L198.71339903846152,47.893516682799344L199.33983173076922,52.226169455317546L199.87677403846152,54.86652118992265L199.92151923076923,51.83151702303563L200.23473557692307,49.94451944261576L200.86116826923077,49.41831177518333L201.12963942307692,48.7461932859936L201.44285576923076,47.52693804698512L201.53234615384616,51.39792496743809L201.93505288461537,51.60639525935244L202.02454326923078,54.79791510788637L202.06928846153846,56.0919226423339L202.91944711538463,52.883335154976606L203.0536826923077,46.826416410411326L203.45638942307693,49.428618658976575L204.03807692307691,47.18229647206152L204.66450961538462,49.405400981925766L205.11196153846154,43.69952059174946L205.82788461538462,46.12098822236513L206.32008173076923,53.68674816834279L207.12549519230768,55.76170596595706L207.57294711538464,52.53779220255949L207.6176923076923,59.9660466769776L207.8414182692308,54.177826707971704L207.88616346153847,50.80699945607388L208.19937980769228,49.37820000691681L208.3783605769231,46.187598295470906L208.42310576923077,41.18866336735354L208.46785096153843,45.315151365490806L209.45224519230769,45.51764744201975L209.49699038461537,46.40765235013035L209.67597115384615,46.68860388270775L209.76546153846155,45.738287055920125L210.1681682692308,47.63716832296652L210.34714903846154,50.35901185285854L210.48138461538463,47.682811218478804L211.6447596153846,51.53910317098732L211.6895048076923,48.70366949841761L212.09221153846153,46.58924811540655L212.2264471153846,45.33981271567802L212.4054278846154,49.18296280703967L212.53966346153845,47.196622007822214L212.98711538461538,49.652763531600414L213.0318605769231,54.66006044598426L213.07660576923078,50.36336391406611L213.12135096153844,46.81309473335085L213.34507692307693,47.52025413038703L213.61354807692308,45.36310851674395L213.79252884615386,40.86457193820041L213.88201923076923,42.42959254744818L214.5979423076923,44.38983797445721L214.86641346153846,47.85299508204494L214.91115865384614,49.11964954981238L215.2691201923077,45.039502762023034L215.53759134615385,48.72128229019387L216.11927884615383,45.900810210340495L216.4324951923077,48.56736237753506L216.8799471153846,52.13547411200541L218.0433221153846,50.00238428587306L219.07246153846154,41.7534933268885L219.3856778846154,40.27578008531688L219.65414903846155,46.01019237383929L219.78838461538462,48.37590975856847L221.17548557692305,47.74908150968594L221.22023076923077,45.796021910167326L221.93615384615384,44.98383408214201L221.98089903846156,46.38784044822003L222.42835096153846,48.359904378340474L222.56258653846155,37.99595318968093L222.65207692307692,43.319173983956745L223.14427403846156,42.614865275664044L223.4127451923077,48.70170911549411L223.54698076923077,51.574384466494735L223.72596153846155,49.03436267467245L224.531375,47.5433742741414L224.5761201923077,56.43345775859028L224.75510096153846,53.017216229867074L224.88933653846155,55.35304560989621L224.97882692307692,56.772186871719484L225.60525961538463,55.2136906801085L225.78424038461537,54.48044172974488L226.27643750000001,45.95733172759495L226.41067307692308,48.42397795385858L227.30557692307693,50.87488527741233L227.66353846153845,52.75508738013441L228.11099038461538,48.37917553070892L228.15573557692306,43.75133793559817L228.6479326923077,54.297778877062484L229.67707211538462,49.90604948455362L229.90079807692308,48.824386340519766L230.66146634615387,40.95935095382805L231.69060576923076,41.12880393864097L231.78009615384616,42.28016027240477L232.63025480769232,42.287587481265234L232.675,40.78572039676743L232.85398076923076,44.586688042305724L233.03296153846154,48.77704744614533L233.838375,55.548234852921865L234.10684615384616,51.48841671109359L234.15159134615382,45.84160989774284L236.03088942307693,46.02363047182067L236.38885096153848,46.16921546061843L236.74681249999998,45.47972057617636L236.7915576923077,46.647250573928574L237.55222596153848,45.76332517194015L237.91018749999998,49.66534379448086L238.13391346153847,49.91991192452387L238.31289423076922,45.46888334080788L238.80509134615383,45.91580841029045L239.34203365384613,45.238763118384725L239.47626923076922,46.455213826793L239.56575961538462,48.3782451633613L239.74474038461537,49.27915448689464L240.10270192307692,43.039121990420284L241.84776442307694,46.087790882827335L242.78741346153848,43.85071175424591L243.05588461538463,43.61543166466328L243.1006298076923,42.159484148466134L243.1901201923077,46.48748973597773L243.86129807692308,47.107206303278275L244.17451442307694,48.65106779223203L245.20365384615383,50.70552213774816L245.38263461538463,51.30293104484771L245.87483173076924,49.777759326538785L246.0090673076923,44.42240927593238L246.7697355769231,44.12479668658159L247.03820673076925,44.9870135865832L247.61989423076923,49.81727396739868L248.51479807692309,49.086427147578064L248.9175048076923,45.896541202622245L249.5439375,46.16311271994152L249.6334278846154,40.26274398038706L249.72291826923077,45.37683574333053L250.12562499999999,45.71197925258846L250.52833173076925,43.462447486858764L250.88629326923075,43.694531440415545L251.7811971153846,48.1633871971562L251.8706875,49.67450798129542L252.0049230769231,45.98897025231287L252.09441346153847,43.414858352481815L252.36288461538462,48.425488547334936L252.89982692307694,48.86117481662899L252.9445721153846,43.6672013049689L253.25778846153844,43.099519730300955L253.39202403846156,42.573860313203994L253.61575,37.09767568396566L253.92896634615386,41.185676337999325L254.01845673076923,48.71419304565234L256.30046153846155,48.77243975227768L256.79265865384616,52.42925864702647L256.9268942307692,47.59893574696338L257.1506201923077,47.4161876281226L257.50858173076927,45.01317736424676L257.86654326923076,51.4162321565379L258.04552403846156,50.21416069146204L258.09026923076925,48.03472668647336L258.1797596153846,45.718780514164365L258.3139951923077,43.71686203971856L258.62721153846155,45.3430422199871L258.8061923076923,45.52751068505131L258.98517307692305,47.060068689044726L259.3878798076923,48.07030132886692L259.43262500000003,51.156444315635255L259.65635096153846,49.39244484070633L259.8353317307692,49.93835721251047L259.8800769230769,46.44067382183297L260.5512548076923,45.39770955331787L261.89361057692304,47.374875227093526L261.9383557692308,51.51230146248699L262.4752980769231,54.45446956537059L262.7885144230769,52.42070867270898L263.0122403846154,52.12067002033213L263.63867307692306,48.19106677388925L264.0413798076923,40.94258053972408L264.7125576923077,39.578635929347485L265.2047548076923,40.5154715465664L265.51797115384613,43.10975509521168L265.5627163461539,43.30447172040135L265.69695192307694,44.54834437823621L265.96542307692306,47.34090369276461L267.6657403846154,51.64358219949983L267.79997596153845,52.594811506927755L267.8894663461539,50.20021530491525L268.02370192307694,44.02995637991398L268.06844711538463,48.066368109262385L268.2474278846154,53.10377166819541L268.3816634615385,50.00472760712897L268.60538942307693,50.90470037511007" style="fill: none;" fill="none"></path></g></g></g></g><g opacity="0.20000000298023224"><g><g><g><path stroke="rgb(255, 112, 67)" stroke-width="2px" d="M22.462086538461538,94.201142465882L22.775302884615385,92.11343971247283L22.909538461538464,91.88898817295065L23.267500000000002,92.11963855733093L23.312245192307692,91.04950731694699L23.356990384615383,90.60220262474165L23.62546153846154,89.81242569639133L23.938677884615384,89.09695174195446L24.02816826923077,89.18084340622792L24.47562019230769,87.41786740324818L24.65460096153846,86.92337980568409L24.744091346153848,86.79583890701716L25.19154326923077,88.38035979729432L25.817975961538462,91.34865775807546L25.907466346153846,92.53282889325459L26.086447115384615,93.61520193090232L26.35491826923077,94.42989450090637L26.444408653846153,95.69106740635515L26.489153846153847,95.78998756777906L26.623389423076922,96.04176746390831L27.473548076923077,91.14589842500595L27.607783653846155,87.76137087774964L27.921,85.22022932504233L28.055235576923078,86.81586097696653L28.189471153846153,85.91072852588617L28.32370673076923,91.11738673909926L28.457942307692306,94.92149988184325L28.905394230769232,101.22494099283448L29.26335576923077,103.21007091540557L29.30810096153846,102.33095619712886L29.48708173076923,102.64836431873533L29.755552884615383,105.26480975317267L29.934533653846152,108.26124336639276L30.11351442307692,109.86871110384281L30.47147596153846,110.9484287516429L30.560966346153847,111.10458733003873L31.769086538461536,98.532290239976L31.81383173076923,95.8810829493038L32.17179326923077,93.32033119418014L32.26128365384616,92.39309348687529L32.30602884615384,91.28551968419208L32.66399038461538,87.56125258459495L32.708735576923075,88.20103520911474L32.75348076923077,86.93421400498886L32.97720673076923,87.01577837106127L33.33516826923077,87.335274407898L33.379913461538465,87.22064388291194L33.87211057692308,88.86513444712529L34.230072115384615,88.42772501202731L34.36430769230769,85.97697759998533L34.94599519230769,72.64927460597113L35.169721153846154,70.15783926386099L35.30395673076923,70.48522385014938L35.4829375,71.63279580771923L35.4829375,72.50752857831807L35.84089903846154,76.9465081075063L36.24360576923077,78.85483262355511L36.28835096153846,80.10031025936969L36.55682211538461,82.19531827007349L36.69105769230769,83.43023305076818L36.73580288461539,82.56598094931014L36.780548076923075,82.93687844562989L36.82529326923076,84.04210505588698L36.87003846153846,83.88391530972261L37.13850961538461,85.37288586755211L37.36223557692308,86.67169372427921L37.63070673076923,87.31761812006052L37.7649423076923,86.94700697012819L38.3466298076923,92.11236314137395L38.43612019230769,92.21862504642743L38.52561057692308,92.84787188501885L38.52561057692308,93.30168003202058L38.70459134615384,92.84573015754039L38.88357211538462,93.6609367975822L38.973062500000005,93.4319164351202L39.06255288461538,93.84281583687721L39.19678846153847,92.21982522262977L39.28627884615384,93.05772204172726L39.46525961538462,94.08214597382512L39.554750000000006,94.28004394100549L39.59949519230769,94.03886837007909L39.64424038461538,93.79328198854166L39.823221153846156,93.3611989876112L39.912711538461544,94.21013710163534L39.95745673076923,94.58631838999258L40.091692307692306,93.34942486770451L40.13643750000001,94.3610287654715L40.22592788461538,93.49013574338304L40.31541826923077,93.79970227895448L40.44965384615384,94.09451659434976L40.44965384615384,94.31493824875126L40.98659615384616,93.24378376031437L41.07608653846154,93.01157689742172L41.79200961538462,92.36387539291037L41.970990384615384,91.44772447634202L42.10522596153846,90.82304189480269L42.41844230769231,90.30882053048565L42.5079326923077,90.06003639686566L42.64216826923077,89.84781523988796L42.68691346153846,90.10379586483423L42.821149038461535,89.23124297948985L42.865894230769236,89.30808034722621L43.17911057692307,88.51392244960253L43.223855769230774,87.82823178080412L43.44758173076924,88.61732871801809L43.492326923076924,87.69362158339757L43.71605288461539,88.31823176300297L43.805543269230775,88.36675410413972L43.89503365384615,88.64457076100203L44.074014423076925,89.14478463404453L44.11875961538461,89.3302940432842L44.252995192307694,89.66380083274383L44.252995192307694,90.22010337515519L44.38723076923077,90.6301178100304L44.7899375,92.35793712978753L44.83468269230769,93.61903271070467L45.05840865384615,93.49906335842725L45.72958653846154,96.74828677487632L45.99805769230769,97.41876496570902L46.132293269230765,97.94994142796271L46.22178365384615,97.30436094136765L46.26652884615385,96.86107096901307L46.35601923076923,97.4090331021553L46.49025480769231,97.53020801185988L46.57974519230769,98.76416884815464L46.803471153846154,99.34911711789096L46.93770673076923,98.56809038723318L47.071942307692304,96.94462247465093L47.29566826923077,93.74370117678951L47.385158653846155,93.57295572858017L48.235317307692306,89.5475742038626L48.324807692307694,89.93729750754741L48.324807692307694,90.38105711406813L48.36955288461538,89.46277327566193L48.77225961538462,88.64721180091684L49.04073076923077,88.25583629814477L49.04073076923077,88.93703869930826L49.174966346153845,89.97219263063027L49.353947115384614,90.46743490420855L49.935634615384615,92.62933447464154L50.20410576923077,89.39796571754492L50.427831730769235,87.5161129139937L50.517322115384616,84.57024911642075L50.56206730769231,83.8878576276394L51.00951923076923,79.67437555239752L51.14375480769231,80.97390286257634L51.32273557692308,81.38545371867144L51.456971153846155,81.92408888466083L51.81493269230769,84.6915869304767L51.85967788461539,85.23130682093593L52.12814903846154,86.25057146297053L52.17289423076923,87.02716047689319L52.26238461538461,86.86826823628866L52.26238461538461,87.57343828666669L53.33626923076923,80.85657259340469L53.425759615384614,82.42290950967714L53.47050480769231,82.11229869035574L53.51525,81.66976632922888L54.007447115384615,85.00088146959361L54.27591826923077,85.9416950287154L54.32066346153846,86.2544798628642L54.41015384615385,86.4991560020699L54.49964423076923,87.88118433757471L54.589134615384616,88.20026161727998L55.12607692307692,92.59292347683356L55.17082211538462,93.04747423286048L55.39454807692308,91.7106719936889L55.57352884615385,93.36279835285475L55.66301923076923,94.22739827711709L55.707764423076924,93.6772181009444L56.110471153846156,89.53619731618808L56.4236875,87.61274144821442L56.51317788461539,86.41846567736224L57.09486538461538,91.62324926752883L57.45282692307693,91.36604987669449L57.45282692307693,92.00758645437085L57.810788461538465,88.36486513116039L57.900278846153846,86.50315832879681L58.258240384615384,78.58163207918405L58.258240384615384,79.52058079930453L58.57145673076923,80.64616735520272L58.750437500000004,86.4397831548865L58.88467307692308,87.96839409768582L58.97416346153846,93.0111369415258L59.06365384615385,94.15354846756046L59.15314423076923,97.18866656454136L59.24263461538462,96.69993687753494L59.51110576923077,93.83438932801096L59.69008653846154,93.85708961724663L59.82432211538462,90.25356872311005L60.00330288461538,84.93828053978774L60.182283653846156,82.04080471579844L60.27177403846154,77.1822305408808L60.31651923076923,77.10301108429066L60.361264423076925,74.32233588649676L60.450754807692306,72.89942263548191L60.58499038461538,71.67105794686537L60.808716346153844,70.49624198950255L61.03244230769231,70.1172524355925L61.121932692307695,68.74033724207143L61.16667788461538,68.54741674478238L61.211423076923076,68.97508388001185L61.34565865384616,68.23921671418043L61.390403846153845,68.75661789316396L61.43514903846154,67.86622804128206L61.43514903846154,68.7819285656397L61.88260096153846,72.01239849512395L62.061581730769234,74.97837307132207L62.19581730769231,74.68909016583974L62.37479807692308,74.95373032299372L62.37479807692308,75.84458459088437L62.598524038461534,73.49267495045295L62.732759615384616,73.91243657721922L63.224956730769236,76.31734965145587L63.31444711538461,77.14874301575696L63.53817307692307,78.70035168276384L63.62766346153846,78.26276352577484L63.80664423076923,80.90915074738172L64.11986057692307,79.25806312767358L64.16460576923076,82.44422959628014L64.29884134615385,83.00978132268557L64.34358653846154,82.84858330877927L65.1042548076923,80.00206148727582L65.23849038461539,78.2117182055345L65.64119711538461,71.43311518751658L65.6859423076923,70.46062284708023L65.86492307692308,69.53519828640498L65.90966826923076,69.95114804918948L65.95441346153846,69.70778101522188L66.35712019230769,64.02563288486921L66.67033653846154,61.56031963871075L66.71508173076923,61.54438338600673L67.11778846153847,64.79161142798571L67.20727884615384,65.20407546162606L67.38625961538462,66.28858076884197L67.78896634615384,72.86479494296587L67.92320192307692,77.83232685350455L68.46014423076923,100.73987184324517L68.72861538461538,102.85557213098957L68.72861538461538,103.9977622114695L68.81810576923077,101.44158258140088L68.81810576923077,102.26040018636446L68.86285096153846,101.47830405957424L68.90759615384616,98.74673987629895L68.99708653846153,98.13495070942892L69.08657692307692,94.18061456079954L69.2655576923077,89.28027996140031L69.57877403846153,81.89711492451337L70.33944230769231,80.54781813357884L70.4289326923077,81.38525412415082L70.60791346153846,81.5369837914522L70.78689423076924,84.5902529228192L71.05536538461538,83.89159121926015L71.27909134615385,84.43839932427956L71.32383653846153,83.64309995472432L71.36858173076924,82.75944674404768L71.41332692307692,81.1901276508203L71.50281730769231,79.35066715799846L71.5475625,80.26687384362404L71.72654326923077,83.25759031314115L71.81603365384615,83.99848517362888L72.12925,92.47890086718476L72.26348557692307,97.89017770817647L72.39772115384615,99.41563557936595L72.39772115384615,101.51602481488997L72.44246634615385,101.89023062300224L72.53195673076922,102.17132102136428L72.62144711538461,103.74931921488964L72.62144711538461,105.32291067448946L72.80042788461537,106.05328833873456L72.84517307692307,107.6975949628995L72.97940865384615,104.04808220783106L73.38211538461537,90.66638269943114L73.60584134615385,89.3898214783806L73.74007692307693,87.66615581191503L73.8743125,89.26666774554894L73.96380288461538,88.0661093131854L74.23227403846153,86.26429065104861L74.27701923076923,83.65859266404922L74.81396153846153,72.06819364313897L75.0376875,64.10112918615341L75.39564903846153,67.64574262751982L75.79835576923078,67.43427158066861L75.84310096153845,66.84424408697166L75.88784615384616,67.98406186264296L76.1115721153846,66.84246730437646L76.2010625,69.04241115588408L76.60376923076923,72.5888326887901L76.87224038461538,72.9446536238377L77.05122115384616,74.26343332574919L77.18545673076923,78.67900550537385L77.18545673076923,80.6973248658272L77.23020192307693,82.34080180296532L77.2749471153846,81.99145529671357L77.40918269230768,84.90105811850384L77.94612500000001,96.32497517040287L77.99087019230768,93.87743537602229L78.21459615384616,89.86819018773161L78.25934134615386,88.66282126651362L78.34883173076923,93.46861687759655L78.66204807692309,91.79588319951525L78.79628365384616,93.45452540660133L79.02000961538461,87.39377060463795L79.33322596153846,81.7489101225367L79.42271634615383,79.79540419062742L79.46746153846154,79.32355883029791L79.78067788461539,76.13954876523752L80.04914903846154,72.75814885107371L80.31762019230769,75.56694209002532L80.54134615384616,75.78826762712919L80.67558173076924,78.41084961467064L81.03354326923076,86.86776990225682L81.16777884615384,87.0974314458095L81.21252403846154,88.13524989875464L81.39150480769231,90.61008432536171L81.52574038461539,88.79407749325037L81.65997596153846,87.2503325894475L81.74946634615384,90.07154243393586L82.28640865384617,73.33109470651699L82.42064423076924,73.93127151635977L82.55487980769232,67.7750694405574L82.82335096153847,62.80470407054973L83.00233173076924,59.67097095205234L83.31554807692306,61.67470686710797L83.58401923076924,65.61414436101914L83.67350961538462,65.86742850312821L83.98672596153847,71.36966761167233L83.98672596153847,73.02392265292315L84.03147115384616,75.46356778282384L84.74739423076923,88.5238760848458L84.79213942307692,88.5822685707074L84.79213942307692,90.13034193607477L84.9711201923077,89.89866553149545L85.19484615384614,91.13782202188786L85.5528076923077,88.72051517155307L85.64229807692307,91.00489141889489L86.31347596153847,82.69058011174202L86.62669230769231,79.72852567629171L86.80567307692307,78.13618798622718L87.02939903846155,79.37911263853312L87.16363461538462,77.65457814886021L87.253125,76.61732325691443L87.61108653846155,76.15588681606147L87.65583173076922,74.49789035595381L87.70057692307692,75.4751938375143L87.96904807692307,71.34827838448378L88.3717548076923,68.16032339242788L88.72971634615385,76.60912292255806L88.90869711538463,75.49192064106465L89.44563942307693,80.17266131628017L89.6246201923077,87.94684571669652L89.66936538461538,85.56340405562749L89.71411057692308,87.05213131686816L89.80360096153846,90.05436817338834L89.84834615384615,90.35117272663003L90.07207211538461,95.45275500374309L90.1615625,96.51163942310242L90.34054326923078,98.19201778331055L90.38528846153845,101.45217609319549L90.92223076923078,102.23548087569384L91.01172115384615,101.17164371154057L91.05646634615385,100.65520202124921L91.41442788461538,94.8700538234212L91.68289903846153,97.1686575399855L92.21984134615386,94.71023633828243L92.5330576923077,95.82747188552928L92.71203846153846,95.8124471796963L92.84627403846153,86.38880697523173L92.93576442307693,88.05407428540863L93.0252548076923,84.12033306257082L93.07000000000001,84.99102763161063L93.42796153846153,77.9468314904433L93.83066826923077,82.53662750938764L93.87541346153846,84.45425208646517L94.00964903846153,81.1073115792412L94.09913942307692,81.8314652862457L94.63608173076923,84.06024728463247L94.68082692307692,87.01355021785085L94.85980769230768,86.05596028268337L94.90455288461538,87.48745740262362L94.94929807692309,87.44200333803893L94.99404326923077,88.59473213966076L94.99404326923077,90.32568626747681L95.57573076923077,100.1864696179445L95.75471153846154,101.68111753102679L96.29165384615385,86.76141472263978L96.47063461538461,81.14645950060626L96.78385096153846,69.66017576524844L96.82859615384616,67.9285328406554L96.91808653846154,70.84664125901003L97.18655769230769,69.31343181500068L97.85773557692308,72.14571719857364L97.90248076923076,70.42945479292135L97.94722596153846,67.34555507760783L98.12620673076924,63.66860655546189L98.48416826923076,62.72587597576472L98.61840384615384,60.61757079546268L99.11060096153847,75.60407449809404L99.15534615384615,82.23360519546728L99.28958173076923,88.09947942976768L99.51330769230769,102.71432639417739L99.55805288461539,105.29842512315282L99.69228846153847,109.54592501876445L99.73703365384615,107.29315123718519L99.87126923076923,109.88746124792557L100.0055048076923,109.57655821178967L100.1397403846154,104.98309252365277L100.22923076923077,104.14965233711095L100.5871923076923,95.69938336570317L100.85566346153847,83.43916914531819L100.94515384615384,82.00323789612604L101.07938942307692,86.14515816076442L101.43735096153847,90.9720261590412L101.48209615384616,91.11446261414541L101.61633173076923,94.01379316695608L101.70582211538462,100.68683807890002L102.06378365384616,105.76923989739555L102.46649038461538,99.52175594189993L102.91394230769231,95.11272260270154L103.31664903846153,62.03041039361405L103.36139423076924,64.29827900001636L103.40613942307692,61.71975782903341L103.45088461538462,69.17443053814081L103.540375,69.37839787464875L103.89833653846154,102.68880112497853L104.1668076923077,105.5576514420028L104.1668076923077,108.70668224119223L104.48002403846154,100.9596805272194L105.15120192307693,124.32879143334353L105.19594711538461,124.8740158275916L105.73288942307693,119.84012460937868L105.8223798076923,117.66004889217706L105.867125,112.84630260295593L106.00136057692308,112.81580247294444L106.04610576923076,110.80557125646334L106.09085096153846,107.82724269261728L106.31457692307693,99.1526397940631L106.4488125,101.14705542773008L106.76202884615385,85.90247927130414L106.94100961538462,81.97440627194368L107.20948076923077,96.2430322433177L107.25422596153847,99.58121912843333L107.34371634615384,91.90863975372451L107.6121875,93.11093061434535L107.70167788461538,89.55783179677451L107.79116826923077,84.01409659603468L107.83591346153847,82.4507666429648L108.05963942307692,89.31411905987905L108.1491298076923,93.7894544700877L108.8203076923077,96.69342494323277L108.90979807692308,99.52240364568738L109.08877884615384,94.85648873405388L109.67046634615384,91.61892178436885L110.07317307692308,91.86540275376576L110.25215384615385,84.5528204706999L110.38638942307692,78.95105544603788L110.47587980769231,78.28410448500743L110.74435096153846,73.70808048798487L110.87858653846153,75.45862488322533L111.01282211538462,79.37290824938279L111.50501923076924,93.64809360767786L111.7287451923077,102.29521116665923L111.86298076923077,99.3582524808267L112.04196153846154,110.7032979804736L112.08670673076924,101.83864000531344L112.35517788461539,101.24325933439226L112.57890384615385,96.38683919854319L112.66839423076922,92.23571712099589L112.89212019230769,107.78842221062916L113.92125961538461,150.4954530582978L114.05549519230769,146.69730761234575L114.05549519230769,148.8861837520049L114.27922115384615,149.78888323719684L115.93479326923077,113.00338088159377L116.15851923076923,108.61804140141378L116.20326442307693,106.39119403488361L116.24800961538462,107.18444919127684L116.2927548076923,99.6228903550368L116.3375,104.1609522569638L116.38224519230769,101.81544529566398L116.9191875,108.12988016742926L117.05342307692308,95.44060796903302L117.09816826923077,98.31387464096053L117.27714903846153,82.65279934761617L117.5456201923077,80.327669290969L117.72460096153846,83.73151902281322L117.81409134615384,82.5205307983435L117.81409134615384,85.14618432378539L118.17205288461538,81.69850924473542L118.53001442307692,97.54559342282323L118.66425,94.90031497813045L118.75374038461538,91.74683382448096L118.93272115384616,100.47476172579022L118.97746634615385,98.3662015080452L119.20119230769231,97.4028037636899L119.29068269230768,99.7364739871942L119.42491826923077,113.158520614757L119.51440865384616,125.43220473390359L120.09609615384616,118.5541384176566L120.31982211538461,109.77159467190505L120.63303846153846,92.06900416698593L120.81201923076924,80.18498269044436L120.94625480769231,72.11811575499866L121.03574519230769,64.0183953005534L121.03574519230769,65.76371240661693L121.48319711538461,42.12751011389952L121.52794230769231,46.56115929530216L121.66217788461539,46.603494206300155L122.33335576923076,68.76274922811068L122.46759134615384,81.176163861614L122.55708173076923,84.31747504919768L122.82555288461539,92.24545028908895L122.87029807692308,93.57757167800402L123.22825961538462,112.1506361217453L123.27300480769232,110.48671053029024L123.67571153846154,110.45867858872964L123.72045673076923,100.47234832799205L123.76520192307692,95.70097290613474L123.98892788461539,88.15081109639544L124.16790865384615,86.1346148737348L124.21265384615384,90.30972685919932L124.79434134615384,78.54685306010339L124.83908653846154,86.26410214511247L125.1075576923077,98.63325930275023L125.15230288461538,106.16854960849652L125.19704807692307,106.67127602432784L125.24179326923077,109.4004740993564L125.51026442307692,119.48493246229796L125.91297115384614,134.80025313542438L126.36042307692307,150.53366040679126L126.53940384615385,153.82684476100482L126.71838461538462,148.88160742796384L126.807875,147.34963990541604L126.94211057692307,141.8688108966901L126.98685576923077,138.75774023578717L126.98685576923077,140.31226063462404L127.21058173076922,134.7341260357545L127.79226923076922,141.69877201960637L127.9265048076923,138.4570282610563L128.28446634615386,110.2732448427723L128.5081923076923,105.65964293749286L128.5976826923077,104.11190679554757L128.6424278846154,99.87952651100663L128.82140865384616,97.98579946415356L128.86615384615385,99.19380159805027L128.91089903846154,102.6048820653787L128.95564423076922,92.36908931055895L129.00038942307694,95.20190727232168L129.22411538461537,88.20906464881622L129.31360576923078,84.80606286754976L129.44784134615384,82.48506298248584L129.49258653846152,80.10895805072326L129.6268221153846,76.94378162026406L129.7610576923077,71.9152077044432L129.8058028846154,73.97821797396128L129.85054807692308,72.94714268491818L130.65596153846153,112.20706397134524L130.92443269230768,91.52719146927389L131.32713942307691,144.1969961844958L131.3718846153846,148.98447818297606L131.81933653846153,143.95597471228012L131.86408173076924,140.11956973626064L131.86408173076924,141.8677933559968L132.31153365384617,115.16918363376305L132.84847596153847,97.96120400537664L132.89322115384616,105.56721045409257L133.2064375,90.33640566731874L133.38541826923077,83.0238625204334L133.56439903846154,82.50674834010692L133.65388942307692,70.48847737128918L133.6986346153846,70.36405562620897L133.6986346153846,73.40043358206749L134.01185096153847,56.37313200143667L134.19083173076925,64.14044017493724L134.68302884615383,64.87833198584043L134.81726442307692,70.08954923794819L134.90675480769232,66.79760158703877L135.04099038461538,73.61776722875925L135.35420673076922,79.48957320348573L135.3989519230769,80.03165757151751L135.3989519230769,84.65659396694258L135.57793269230768,91.33994473975439L135.98063942307692,116.61332695816571L136.47283653846154,147.92085594168077L136.60707211538463,150.98181141890012L137.05452403846155,144.55011933216682L137.09926923076924,151.90756472349167L137.2335048076923,153.39161390662193L137.8151923076923,162.72924566864967L137.9046826923077,156.0208973128062L138.21789903846155,153.82762748461505L138.30738942307693,151.1718149662018L138.71009615384617,151.20270123986097L138.8890769230769,151.31039879046955L139.38127403846153,150.1261744953119L139.47076442307693,151.23247604599365L139.47076442307693,154.6136698429401L139.5602548076923,151.93198570013047L139.605,148.74720856593206L139.6944903846154,148.7140158667014L140.1866875,169.8784500525548L140.67888461538462,187.1335398582312L141.57378846153847,196.53154570139372L141.93175,164.81510494488936L142.24496634615386,-0.899944298083966L145.19814903846154,-3.2447546353706684L145.2876394230769,4.0327798935083194L145.421875,12.971034760658569L145.5561105769231,25.218885087049927L145.69034615384615,24.14398118945269L145.73509134615384,31.455449395913348L145.77983653846155,34.10916943320862L146.1377980769231,35.19773968504023L146.31677884615385,41.599443021187426L146.4957596153846,61.53769370821806L146.89846634615384,76.65727607905865L146.98795673076924,78.61059415730146L147.0327019230769,61.64575652984473L147.30117307692305,108.57541818721937L147.34591826923076,111.35454881042243L147.48015384615385,111.8952999392381L147.748625,122.40174416853831L147.88286057692306,124.61487691287812L148.10658653846156,111.0974345407807L148.3303125,118.07956787462419L148.9567451923077,108.5390567619067L149.0014903846154,90.671236564219L149.09098076923075,91.4246550024702L149.40419711538462,79.43545960669334L150.34384615384616,20.129579646312266L150.38859134615385,29.559578012503124L150.47808173076922,42.54271889833305L150.79129807692306,92.99933705696692L151.0597692307692,123.33301828366059L151.1940048076923,159.0273856630692L151.59671153846156,171.93077223117535L151.64145673076922,178.58633370674573L151.7756923076923,188.1411764887663L151.8651826923077,145.53546399428294L151.99941826923077,14.347203757671224L152.26788942307692,-2.8189425550974363L152.76008653846156,-16.999337475116448L152.89432211538463,0.9243757110375554L153.5207548076923,20.16029893893463L153.56550000000001,31.230979918975095L153.69973557692308,44.413746634354965L154.10244230769231,74.55337110998539L154.1471875,76.59907405594221L154.32616826923078,72.52363703021636L154.50514903846155,93.94178520389474L154.72887500000002,116.15174179982681L154.7736201923077,94.75280231581284L154.99734615384617,95.93933629789032L155.08683653846157,104.02844367245069L155.08683653846157,106.33564414026645L155.53428846153847,87.37130317567633L155.62377884615387,86.59133801391492L155.66852403846153,88.50809115870642L155.75801442307693,89.69960326294486L155.98174038461536,84.90747645210762L156.3844471153846,90.51287788020878L156.83189903846153,73.36639032318043L156.92138942307693,75.32495917230845L157.14511538461537,61.997888227609494L157.27935096153846,72.45940412168319L157.27935096153846,85.20047990381717L157.32409615384617,83.20300577764327L157.36884134615386,96.6353623427594L157.45833173076923,96.9577593489765L157.95052884615387,185.79578171785062L162.2013221153846,-15.142696199050306L162.46979326923076,66.61524264033024L163.05148076923078,141.47869623120016L163.49893269230768,199.2353130863263L163.67791346153848,191.98419287021343L163.85689423076923,168.14146112570396L164.21485576923078,177.22376322792127L164.48332692307693,217.30733674214437L164.7070528846154,203.53278923218068L164.88603365384617,175.8618867640312L165.02026923076923,176.41600289849134L165.55721153846153,59.827181712022195L167.66023557692307,35.19703001563366L168.01819711538462,42.791332789567804L168.19717788461537,49.72128585393614L168.7788653846154,35.04296391835581L169.2710625,43.01322971490714L169.45004326923078,35.64575502505667L169.8080048076923,42.06197527509468L169.85275,54.275325753826365L170.0317307692308,49.318271903349796L170.4344375,58.83809041289183L170.4791826923077,46.78058281403321L170.92663461538461,57.16966024705998L170.9713798076923,59.085663281725004L171.016125,59.50782004273856L171.37408653846154,50.92442596967403L172.2689903846154,53.71983463489093L173.342875,54.872327314890356L173.52185576923077,37.15177786900449L173.61134615384614,36.55111055236597L173.65609134615383,42.81376043007924L173.79032692307695,42.67093946200151L174.23777884615384,42.49629295193233L174.64048557692308,49.01709551261021L174.77472115384614,49.00624174521519L175.2221730769231,45.546786023561765L175.44589903846153,55.99420506541546L177.05672596153846,49.345348922105956L177.4594326923077,55.509610442014846L177.54892307692307,59.724884954324125L177.72790384615385,40.077630032942864L177.996375,58.00554644488372L178.1306105769231,46.93986185055513L178.44382692307693,39.619194032595715L178.80178846153845,59.14862817800963L178.93602403846154,51.92706360541857L179.2939855769231,49.91067365866442L179.47296634615384,50.625790821588964L179.65194711538462,54.81919603622876L180.14414423076923,48.09947731540751L180.68108653846156,52.34288813242546L180.8600673076923,59.05230881961492L181.17328365384614,54.51002542835016L181.35226442307692,61.620184949498906L181.84446153846156,52.62353107379032L182.38140384615386,35.65292999148369L183.0973269230769,48.56651805730965L184.21595673076925,47.653183967333575L184.8871346153846,36.00711242510721L185.5135673076923,47.048696959477184L185.69254807692306,48.31663093566894L185.87152884615386,51.9940569192171L186.2294903846154,56.59641695664479L186.49796153846154,39.39362352444576L186.54270673076923,49.91367409917024L187.30337500000002,50.1927829022591L187.70608173076923,40.30705154125508L187.9745528846154,44.04985842796472L188.3325144230769,44.42710511730269L188.46675000000002,46.63968212787921L189.45114423076922,30.684654493515296L190.2118125,26.943830506618212L190.39079326923076,57.83821840057006L190.7487548076923,46.21399528338361L190.88299038461537,48.42489204727687L191.15146153846155,35.965127130655134L191.956875,37.82338603551571L192.04636538461537,43.693740057945234L192.85177884615385,45.725518350876285L193.03075961538462,43.86952934448536L193.1649951923077,63.22809492578874L193.97040865384616,46.88981972107521L194.1493894230769,55.224610339219765L194.46260576923078,43.511814218301026L195.04429326923076,42.04503713616958L195.3127644230769,43.7618161394046L195.93919711538462,51.71755458575029L196.47613942307692,46.30703502985148L196.78935576923078,47.80775622587939L197.1473173076923,37.664148744253026L197.50527884615383,36.941439162309365L197.55002403846152,54.08074849156233L197.77375,43.589856980397144L197.95273076923078,41.728806361326804L198.53441826923077,44.06818459675861L198.71339903846152,53.89795121963208L199.33983173076922,58.725148614094806L199.87677403846152,58.82704879183035L199.92151923076923,47.27901077270508L200.23473557692307,47.11402307198597L200.86116826923077,48.62900027403467L201.12963942307692,47.73801555220899L201.44285576923076,45.698055188472466L201.53234615384616,57.20440534811755L201.93505288461537,51.91910069722395L202.02454326923078,59.58519488068728L202.06928846153846,58.03293394400524L202.91944711538463,48.070453923940676L203.0536826923077,37.741038293563406L203.45638942307693,53.331922031824405L204.03807692307691,43.812813191688974L204.66450961538462,52.740057746722144L205.11196153846154,35.14070000648499L205.82788461538462,49.7531896682886L206.32008173076923,65.03538808730931L207.12549519230768,58.87414266237846L207.57294711538464,47.70192155746312L207.6176923076923,71.10842838860475L207.8414182692308,45.49549675446289L207.88616346153847,45.750758578227135L208.19937980769228,47.23500083318123L208.3783605769231,41.401695728302L208.42310576923077,33.690260975177466L208.46785096153843,51.50488336269673L209.45224519230769,45.82139155681318L209.49699038461537,47.742659712296245L209.67597115384615,47.11003118157387L209.76546153846155,44.312811815738684L210.1681682692308,50.48549022353612L210.34714903846154,54.44177714769657L210.48138461538463,43.66851026690924L211.6447596153846,57.32354109975009L211.6895048076923,44.450518989562994L212.09221153846153,43.41761604089004L212.2264471153846,43.46565961608522L212.4054278846154,54.94768794408212L212.53966346153845,44.21711080899607L212.98711538461538,53.3369758172677L213.0318605769231,62.171005817560044L213.07660576923078,43.91831911618891L213.12135096153844,41.487690962277924L213.34507692307693,48.580993225941285L213.61354807692308,42.1273900962793L213.79252884615386,34.11676707038512L213.88201923076923,44.77712346131983L214.5979423076923,47.33020611497071L214.86641346153846,53.047730743426555L214.91115865384614,51.01963125146352L215.2691201923077,38.919282580339L215.53759134615385,54.24395158245014L216.11927884615383,41.670102090560476L216.4324951923077,52.567190628326856L216.8799471153846,57.48764171371094L218.0433221153846,46.80274954667456L219.07246153846154,29.38015688841159L219.3856778846154,38.059210222959535L219.65414903846155,54.61181080662287L219.78838461538462,51.92448583566225L221.17548557692305,46.80883913636208L221.22023076923077,42.866432510889496L221.93615384615384,43.76555234010402L221.98089903846156,48.49384999733704L222.42835096153846,51.318000273521136L222.56258653846155,22.45002640669162L222.65207692307692,51.30400517537045L223.14427403846156,41.55840221322501L223.4127451923077,57.831974875239226L223.54698076923077,55.88339749299563L223.72596153846155,45.22432998693907L224.531375,45.306891673344836L224.5761201923077,69.76858298526359L224.75510096153846,47.892853936782245L224.88933653846155,58.856789679939936L224.97882692307692,58.90089876445441L225.60525961538463,52.87594639269204L225.78424038461537,53.38056830419944L226.27643750000001,33.17266672437006L226.41067307692308,52.12394729325405L227.30557692307693,54.55124626274292L227.66353846153845,55.57539053421755L228.11099038461538,41.81530775657066L228.15573557692306,36.80958154293208L228.6479326923077,70.11744028925897L229.67707211538462,43.31845539579027L229.90079807692308,47.20189162446903L230.66146634615387,29.161797873790448L231.69060576923076,41.382983415860394L231.78009615384616,44.00719477305046L232.63025480769232,42.29872829455596L232.675,38.532919770020726L232.85398076923076,50.288139510613235L233.03296153846154,55.06258655190469L233.838375,65.70501596308671L234.10684615384616,45.39868949835119L234.15159134615382,37.37139967771677L236.03088942307693,46.29666133293739L236.38885096153848,46.387592943815065L236.74681249999998,44.44547824951317L236.7915576923077,48.398545570556934L237.55222596153848,44.437437068957536L237.91018749999998,55.51837172829187L238.13391346153847,50.30176411958841L238.31289423076922,38.79234046523388L238.80509134615383,46.58619601451434L239.34203365384613,44.22319518052615L239.47626923076922,48.279889889405325L239.56575961538462,51.26279216821378L239.74474038461537,50.63051847219468L240.10270192307692,33.679073245708764L241.84776442307694,50.6607942214379L242.78741346153848,40.49509306137378L243.05588461538463,43.26251153028929L243.1006298076923,39.975562874170436L243.1901201923077,52.97949811724516L243.86129807692308,48.03678115422909L244.17451442307694,50.966860025662655L245.20365384615383,53.78720365602237L245.38263461538463,52.199044405497034L245.87483173076924,47.49000174907539L246.0090673076923,36.38938420002279L246.7697355769231,43.67837780255539L247.03820673076925,46.28033893658565L247.61989423076923,57.0626645386219L248.51479807692309,47.990156917847116L248.9175048076923,41.11171228518853L249.5439375,46.56296999592047L249.6334278846154,31.412190871055316L249.72291826923077,53.0479733877457L250.12562499999999,46.21469451647539L250.52833173076925,40.08814983826417L250.88629326923075,44.04265737075073L251.7811971153846,54.866670832267175L251.8706875,51.9411891575043L252.0049230769231,40.460663658838996L252.09441346153847,39.55369050273529L252.36288461538462,55.941433839614575L252.89982692307694,49.51470422057005L252.9445721153846,35.87624103747882L253.25778846153844,42.24799736829905L253.39202403846156,41.78537118755855L253.61575,28.88339874010819L253.92896634615386,47.317677319049835L254.01845673076923,60.00696810713181L256.30046153846155,48.85980981221567L256.79265865384616,57.91448698914968L256.9268942307692,40.35345139686876L257.1506201923077,47.14206544986138L257.50858173076927,41.40866196843294L257.86654326923076,61.02081434497467L258.04552403846156,48.411053493848215L258.09026923076925,44.765575678990444L258.1797596153846,42.24486125570078L258.3139951923077,40.71398432804989L258.62721153846155,47.7823124903899L258.8061923076923,45.80421338264759L258.98517307692305,49.358905695034906L259.3878798076923,49.58565028860019L259.43262500000003,55.78565879578774L259.65635096153846,46.7464456283129L259.8353317307692,50.757225770216735L259.8800769230769,41.19414873581667L260.5512548076923,43.833263150545264L261.89361057692304,50.34062373775703L261.9383557692308,57.71844081557714L262.4752980769231,58.86772171969598L262.7885144230769,49.370067333716634L263.0122403846154,51.67061204176683L263.63867307692306,42.296661904224976L264.0413798076923,30.069851188476264L264.7125576923077,37.53271901378267L265.2047548076923,41.920724972394794L265.51797115384613,47.00118041817959L265.5627163461539,43.596546658185815L265.69695192307694,46.41415336498849L265.96542307692306,51.52974266455723L267.6657403846154,58.09759995960272L267.79997596153845,54.02165546806958L267.8894663461539,46.608321001896485L268.02370192307694,34.77456799241213L268.06844711538463,54.12098570328493L268.2474278846154,60.65987700659494L268.3816634615385,45.35616151552935L268.60538942307693,52.254659527081714" style="fill: none;" fill="none"></path></g></g></g></g></g></g><g transform="translate(39, 177)" clip-path="url(#clip_1)"><clipPath id="clip_1"><rect width="290" height="22"></rect></clipPath><g><g><line x1="0" y1="0" x2="0" y2="5" style="visibility: inherit;" fill="rgb(0, 0, 0)" stroke="rgb(204, 204, 204)" stroke-width="1px"></line><line x1="22.372596153846157" y1="0" x2="22.372596153846157" y2="5" style="visibility: inherit;" fill="rgb(0, 0, 0)" stroke="rgb(204, 204, 204)" stroke-width="1px"></line><line x1="44.745192307692314" y1="0" x2="44.745192307692314" y2="5" style="visibility: inherit;" fill="rgb(0, 0, 0)" stroke="rgb(204, 204, 204)" stroke-width="1px"></line><line x1="67.11778846153847" y1="0" x2="67.11778846153847" y2="5" style="visibility: inherit;" fill="rgb(0, 0, 0)" stroke="rgb(204, 204, 204)" stroke-width="1px"></line><line x1="89.49038461538463" y1="0" x2="89.49038461538463" y2="5" style="visibility: inherit;" fill="rgb(0, 0, 0)" stroke="rgb(204, 204, 204)" stroke-width="1px"></line><line x1="111.86298076923077" y1="0" x2="111.86298076923077" y2="5" style="visibility: inherit;" fill="rgb(0, 0, 0)" stroke="rgb(204, 204, 204)" stroke-width="1px"></line><line x1="134.23557692307693" y1="0" x2="134.23557692307693" y2="5" style="visibility: inherit;" fill="rgb(0, 0, 0)" stroke="rgb(204, 204, 204)" stroke-width="1px"></line><line x1="156.60817307692307" y1="0" x2="156.60817307692307" y2="5" style="visibility: inherit;" fill="rgb(0, 0, 0)" stroke="rgb(204, 204, 204)" stroke-width="1px"></line><line x1="178.98076923076925" y1="0" x2="178.98076923076925" y2="5" style="visibility: inherit;" fill="rgb(0, 0, 0)" stroke="rgb(204, 204, 204)" stroke-width="1px"></line><line x1="201.3533653846154" y1="0" x2="201.3533653846154" y2="5" style="visibility: inherit;" fill="rgb(0, 0, 0)" stroke="rgb(204, 204, 204)" stroke-width="1px"></line><line x1="223.72596153846155" y1="0" x2="223.72596153846155" y2="5" style="visibility: inherit;" fill="rgb(0, 0, 0)" stroke="rgb(204, 204, 204)" stroke-width="1px"></line><line x1="246.09855769230768" y1="0" x2="246.09855769230768" y2="5" style="visibility: inherit;" fill="rgb(0, 0, 0)" stroke="rgb(204, 204, 204)" stroke-width="1px"></line><line x1="268.47115384615387" y1="0" x2="268.47115384615387" y2="5" style="visibility: inherit;" fill="rgb(0, 0, 0)" stroke="rgb(204, 204, 204)" stroke-width="1px"></line><line x1="290.84375" y1="0" x2="290.84375" y2="5" style="visibility: inherit;" fill="rgb(0, 0, 0)" stroke="rgb(204, 204, 204)" stroke-width="1px"></line></g><g transform="translate(0, 8)"><text x="0" y="0" dx="0em" dy="0.95em" style="text-anchor: middle; visibility: hidden; font-family: &quot;Helvetica Neue&quot;, sans-serif; font-size: 12px; font-weight: 200;" fill="rgb(50, 49, 63)" stroke="none" stroke-width="1px">-500</text><text x="22.372596153846157" y="0" dx="0em" dy="0.95em" style="text-anchor: middle; visibility: inherit; font-family: &quot;Helvetica Neue&quot;, sans-serif; font-size: 12px; font-weight: 200;" fill="rgb(50, 49, 63)" stroke="none" stroke-width="1px">0</text><text x="44.745192307692314" y="0" dx="0em" dy="0.95em" style="text-anchor: middle; visibility: inherit; font-family: &quot;Helvetica Neue&quot;, sans-serif; font-size: 12px; font-weight: 200;" fill="rgb(50, 49, 63)" stroke="none" stroke-width="1px">500</text><text x="67.11778846153847" y="0" dx="0em" dy="0.95em" style="text-anchor: middle; visibility: inherit; font-family: &quot;Helvetica Neue&quot;, sans-serif; font-size: 12px; font-weight: 200;" fill="rgb(50, 49, 63)" stroke="none" stroke-width="1px">1k</text><text x="89.49038461538463" y="0" dx="0em" dy="0.95em" style="text-anchor: middle; visibility: inherit; font-family: &quot;Helvetica Neue&quot;, sans-serif; font-size: 12px; font-weight: 200;" fill="rgb(50, 49, 63)" stroke="none" stroke-width="1px">1.5k</text><text x="111.86298076923077" y="0" dx="0em" dy="0.95em" style="text-anchor: middle; visibility: inherit; font-family: &quot;Helvetica Neue&quot;, sans-serif; font-size: 12px; font-weight: 200;" fill="rgb(50, 49, 63)" stroke="none" stroke-width="1px">2k</text><text x="134.23557692307693" y="0" dx="0em" dy="0.95em" style="text-anchor: middle; visibility: inherit; font-family: &quot;Helvetica Neue&quot;, sans-serif; font-size: 12px; font-weight: 200;" fill="rgb(50, 49, 63)" stroke="none" stroke-width="1px">2.5k</text><text x="156.60817307692307" y="0" dx="0em" dy="0.95em" style="text-anchor: middle; visibility: inherit; font-family: &quot;Helvetica Neue&quot;, sans-serif; font-size: 12px; font-weight: 200;" fill="rgb(50, 49, 63)" stroke="none" stroke-width="1px">3k</text><text x="178.98076923076925" y="0" dx="0em" dy="0.95em" style="text-anchor: middle; visibility: inherit; font-family: &quot;Helvetica Neue&quot;, sans-serif; font-size: 12px; font-weight: 200;" fill="rgb(50, 49, 63)" stroke="none" stroke-width="1px">3.5k</text><text x="201.3533653846154" y="0" dx="0em" dy="0.95em" style="text-anchor: middle; visibility: inherit; font-family: &quot;Helvetica Neue&quot;, sans-serif; font-size: 12px; font-weight: 200;" fill="rgb(50, 49, 63)" stroke="none" stroke-width="1px">4k</text><text x="223.72596153846155" y="0" dx="0em" dy="0.95em" style="text-anchor: middle; visibility: inherit; font-family: &quot;Helvetica Neue&quot;, sans-serif; font-size: 12px; font-weight: 200;" fill="rgb(50, 49, 63)" stroke="none" stroke-width="1px">4.5k</text><text x="246.09855769230768" y="0" dx="0em" dy="0.95em" style="text-anchor: middle; visibility: inherit; font-family: &quot;Helvetica Neue&quot;, sans-serif; font-size: 12px; font-weight: 200;" fill="rgb(50, 49, 63)" stroke="none" stroke-width="1px">5k</text><text x="268.47115384615387" y="0" dx="0em" dy="0.95em" style="text-anchor: middle; visibility: inherit; font-family: &quot;Helvetica Neue&quot;, sans-serif; font-size: 12px; font-weight: 200;" fill="rgb(50, 49, 63)" stroke="none" stroke-width="1px">5.5k</text><text x="290.84375" y="0" dx="0em" dy="0.95em" style="text-anchor: middle; visibility: hidden; font-family: &quot;Helvetica Neue&quot;, sans-serif; font-size: 12px; font-weight: 200;" fill="rgb(50, 49, 63)" stroke="none" stroke-width="1px">6k</text></g><line x1="0" y1="0" x2="290.84375" y2="0" fill="rgb(0, 0, 0)" stroke="rgb(204, 204, 204)" stroke-width="1px"></line></g></g></g></g></svg>