<svg viewBox="0 0 330 200" xmlns="http://www.w3.org/2000/svg"><g><g><g><g><g><line x1="39.15625" y1="177.828125" x2="34.15625" y2="177.828125" style="visibility: inherit;" fill="rgb(0, 0, 0)" stroke="rgb(204, 204, 204)" stroke-width="1px"></line><line x1="39.15625" y1="164.14903846153845" x2="34.15625" y2="164.14903846153845" style="visibility: inherit;" fill="rgb(0, 0, 0)" stroke="rgb(204, 204, 204)" stroke-width="1px"></line><line x1="39.15625" y1="150.4699519230769" x2="34.15625" y2="150.4699519230769" style="visibility: inherit;" fill="rgb(0, 0, 0)" stroke="rgb(204, 204, 204)" stroke-width="1px"></line><line x1="39.15625" y1="136.7908653846154" x2="34.15625" y2="136.7908653846154" style="visibility: inherit;" fill="rgb(0, 0, 0)" stroke="rgb(204, 204, 204)" stroke-width="1px"></line><line x1="39.15625" y1="123.11177884615384" x2="34.15625" y2="123.11177884615384" style="visibility: inherit;" fill="rgb(0, 0, 0)" stroke="rgb(204, 204, 204)" stroke-width="1px"></line><line x1="39.15625" y1="109.4326923076923" x2="34.15625" y2="109.4326923076923" style="visibility: inherit;" fill="rgb(0, 0, 0)" stroke="rgb(204, 204, 204)" stroke-width="1px"></line><line x1="39.15625" y1="95.75360576923076" x2="34.15625" y2="95.75360576923076" style="visibility: inherit;" fill="rgb(0, 0, 0)" stroke="rgb(204, 204, 204)" stroke-width="1px"></line><line x1="39.15625" y1="82.07451923076924" x2="34.15625" y2="82.07451923076924" style="visibility: inherit;" fill="rgb(0, 0, 0)" stroke="rgb(204, 204, 204)" stroke-width="1px"></line><line x1="39.15625" y1="68.39543269230768" x2="34.15625" y2="68.39543269230768" style="visibility: inherit;" fill="rgb(0, 0, 0)" stroke="rgb(204, 204, 204)" stroke-width="1px"></line><line x1="39.15625" y1="54.71634615384616" x2="34.15625" y2="54.71634615384616" style="visibility: inherit;" fill="rgb(0, 0, 0)" stroke="rgb(204, 204, 204)" stroke-width="1px"></line><line x1="39.15625" y1="41.03725961538461" x2="34.15625" y2="41.03725961538461" style="visibility: inherit;" fill="rgb(0, 0, 0)" stroke="rgb(204, 204, 204)" stroke-width="1px"></line><line x1="39.15625" y1="27.358173076923066" x2="34.15625" y2="27.358173076923066" style="visibility: inherit;" fill="rgb(0, 0, 0)" stroke="rgb(204, 204, 204)" stroke-width="1px"></line><line x1="39.15625" y1="13.679086538461519" x2="34.15625" y2="13.679086538461519" style="visibility: inherit;" fill="rgb(0, 0, 0)" stroke="rgb(204, 204, 204)" stroke-width="1px"></line><line x1="39.15625" y1="0" x2="34.15625" y2="0" style="visibility: inherit;" fill="rgb(0, 0, 0)" stroke="rgb(204, 204, 204)" stroke-width="1px"></line></g><g transform="translate(29.15625, 0)"><text x="0" y="177.828125" dx="0em" dy="0.3em" style="text-anchor: end; visibility: hidden; font-family: &quot;Helvetica Neue&quot;, sans-serif; font-size: 12px; font-weight: 200;" fill="rgb(50, 49, 63)" stroke="none" stroke-width="1px">-70</text><text x="0" y="164.14903846153845" dx="0em" dy="0.3em" style="text-anchor: end; visibility: inherit; font-family: &quot;Helvetica Neue&quot;, sans-serif; font-size: 12px; font-weight: 200;" fill="rgb(50, 49, 63)" stroke="none" stroke-width="1px">-60</text><text x="0" y="150.4699519230769" dx="0em" dy="0.3em" style="text-anchor: end; visibility: hidden; font-family: &quot;Helvetica Neue&quot;, sans-serif; font-size: 12px; font-weight: 200;" fill="rgb(50, 49, 63)" stroke="none" stroke-width="1px">-50</text><text x="0" y="136.7908653846154" dx="0em" dy="0.3em" style="text-anchor: end; visibility: inherit; font-family: &quot;Helvetica Neue&quot;, sans-serif; font-size: 12px; font-weight: 200;" fill="rgb(50, 49, 63)" stroke="none" stroke-width="1px">-40</text><text x="0" y="123.11177884615384" dx="0em" dy="0.3em" style="text-anchor: end; visibility: hidden; font-family: &quot;Helvetica Neue&quot;, sans-serif; font-size: 12px; font-weight: 200;" fill="rgb(50, 49, 63)" stroke="none" stroke-width="1px">-30</text><text x="0" y="109.4326923076923" dx="0em" dy="0.3em" style="text-anchor: end; visibility: inherit; font-family: &quot;Helvetica Neue&quot;, sans-serif; font-size: 12px; font-weight: 200;" fill="rgb(50, 49, 63)" stroke="none" stroke-width="1px">-20</text><text x="0" y="95.75360576923076" dx="0em" dy="0.3em" style="text-anchor: end; visibility: hidden; font-family: &quot;Helvetica Neue&quot;, sans-serif; font-size: 12px; font-weight: 200;" fill="rgb(50, 49, 63)" stroke="none" stroke-width="1px">-10</text><text x="0" y="82.07451923076924" dx="0em" dy="0.3em" style="text-anchor: end; visibility: inherit; font-family: &quot;Helvetica Neue&quot;, sans-serif; font-size: 12px; font-weight: 200;" fill="rgb(50, 49, 63)" stroke="none" stroke-width="1px">0</text><text x="0" y="68.39543269230768" dx="0em" dy="0.3em" style="text-anchor: end; visibility: hidden; font-family: &quot;Helvetica Neue&quot;, sans-serif; font-size: 12px; font-weight: 200;" fill="rgb(50, 49, 63)" stroke="none" stroke-width="1px">10</text><text x="0" y="54.71634615384616" dx="0em" dy="0.3em" style="text-anchor: end; visibility: inherit; font-family: &quot;Helvetica Neue&quot;, sans-serif; font-size: 12px; font-weight: 200;" fill="rgb(50, 49, 63)" stroke="none" stroke-width="1px">20</text><text x="0" y="41.03725961538461" dx="0em" dy="0.3em" style="text-anchor: end; visibility: hidden; font-family: &quot;Helvetica Neue&quot;, sans-serif; font-size: 12px; font-weight: 200;" fill="rgb(50, 49, 63)" stroke="none" stroke-width="1px">30</text><text x="0" y="27.358173076923066" dx="0em" dy="0.3em" style="text-anchor: end; visibility: inherit; font-family: &quot;Helvetica Neue&quot;, sans-serif; font-size: 12px; font-weight: 200;" fill="rgb(50, 49, 63)" stroke="none" stroke-width="1px">40</text><text x="0" y="13.679086538461519" dx="0em" dy="0.3em" style="text-anchor: end; visibility: hidden; font-family: &quot;Helvetica Neue&quot;, sans-serif; font-size: 12px; font-weight: 200;" fill="rgb(50, 49, 63)" stroke="none" stroke-width="1px">50</text><text x="0" y="0" dx="0em" dy="0.3em" style="text-anchor: end; visibility: hidden; font-family: &quot;Helvetica Neue&quot;, sans-serif; font-size: 12px; font-weight: 200;" fill="rgb(50, 49, 63)" stroke="none" stroke-width="1px">60</text></g><line x1="39.15625" y1="0" x2="39.15625" y2="177.828125" fill="rgb(0, 0, 0)" stroke="rgb(204, 204, 204)" stroke-width="1px"></line></g></g><g transform="translate(39, 0)" clip-path="url(#clip_0)"><clipPath id="clip_0"><rect width="290" height="177"></rect></clipPath><g><g><g><line x1="0" y1="0" x2="0" y2="177.828125" fill="rgb(0, 0, 0)" stroke="rgb(60, 60, 60)" stroke-width="1px" opacity="0.25"></line><line x1="22.372596153846157" y1="0" x2="22.372596153846157" y2="177.828125" fill="rgb(0, 0, 0)" stroke="rgb(60, 60, 60)" stroke-width="1px" opacity="0.25"></line><line x1="44.745192307692314" y1="0" x2="44.745192307692314" y2="177.828125" fill="rgb(0, 0, 0)" stroke="rgb(60, 60, 60)" stroke-width="1px" opacity="0.25"></line><line x1="67.11778846153847" y1="0" x2="67.11778846153847" y2="177.828125" fill="rgb(0, 0, 0)" stroke="rgb(60, 60, 60)" stroke-width="1px" opacity="0.25"></line><line x1="89.49038461538463" y1="0" x2="89.49038461538463" y2="177.828125" fill="rgb(0, 0, 0)" stroke="rgb(60, 60, 60)" stroke-width="1px" opacity="0.25"></line><line x1="111.86298076923077" y1="0" x2="111.86298076923077" y2="177.828125" fill="rgb(0, 0, 0)" stroke="rgb(60, 60, 60)" stroke-width="1px" opacity="0.25"></line><line x1="134.23557692307693" y1="0" x2="134.23557692307693" y2="177.828125" fill="rgb(0, 0, 0)" stroke="rgb(60, 60, 60)" stroke-width="1px" opacity="0.25"></line><line x1="156.60817307692307" y1="0" x2="156.60817307692307" y2="177.828125" fill="rgb(0, 0, 0)" stroke="rgb(60, 60, 60)" stroke-width="1px" opacity="0.25"></line><line x1="178.98076923076925" y1="0" x2="178.98076923076925" y2="177.828125" fill="rgb(0, 0, 0)" stroke="rgb(60, 60, 60)" stroke-width="1px" opacity="0.25"></line><line x1="201.3533653846154" y1="0" x2="201.3533653846154" y2="177.828125" fill="rgb(0, 0, 0)" stroke="rgb(60, 60, 60)" stroke-width="1px" opacity="0.25"></line><line x1="223.72596153846155" y1="0" x2="223.72596153846155" y2="177.828125" fill="rgb(0, 0, 0)" stroke="rgb(60, 60, 60)" stroke-width="1px" opacity="0.25"></line><line x1="246.09855769230768" y1="0" x2="246.09855769230768" y2="177.828125" fill="rgb(0, 0, 0)" stroke="rgb(60, 60, 60)" stroke-width="1px" opacity="0.25"></line><line x1="268.47115384615387" y1="0" x2="268.47115384615387" y2="177.828125" fill="rgb(0, 0, 0)" stroke="rgb(60, 60, 60)" stroke-width="1px" opacity="0.25"></line><line x1="290.84375" y1="0" x2="290.84375" y2="177.828125" fill="rgb(0, 0, 0)" stroke="rgb(60, 60, 60)" stroke-width="1px" opacity="0.25"></line></g><g><line x1="0" y1="177.828125" x2="290.84375" y2="177.828125" fill="rgb(0, 0, 0)" stroke="rgb(60, 60, 60)" stroke-width="1px" opacity="0.25"></line><line x1="0" y1="164.14903846153845" x2="290.84375" y2="164.14903846153845" fill="rgb(0, 0, 0)" stroke="rgb(60, 60, 60)" stroke-width="1px" opacity="0.25"></line><line x1="0" y1="150.4699519230769" x2="290.84375" y2="150.4699519230769" fill="rgb(0, 0, 0)" stroke="rgb(60, 60, 60)" stroke-width="1px" opacity="0.25"></line><line x1="0" y1="136.7908653846154" x2="290.84375" y2="136.7908653846154" fill="rgb(0, 0, 0)" stroke="rgb(60, 60, 60)" stroke-width="1px" opacity="0.25"></line><line x1="0" y1="123.11177884615384" x2="290.84375" y2="123.11177884615384" fill="rgb(0, 0, 0)" stroke="rgb(60, 60, 60)" stroke-width="1px" opacity="0.25"></line><line x1="0" y1="109.4326923076923" x2="290.84375" y2="109.4326923076923" fill="rgb(0, 0, 0)" stroke="rgb(60, 60, 60)" stroke-width="1px" opacity="0.25"></line><line x1="0" y1="95.75360576923076" x2="290.84375" y2="95.75360576923076" fill="rgb(0, 0, 0)" stroke="rgb(60, 60, 60)" stroke-width="1px" opacity="0.25"></line><line x1="0" y1="82.07451923076924" x2="290.84375" y2="82.07451923076924" fill="rgb(0, 0, 0)" stroke="rgb(60, 60, 60)" stroke-width="1px" opacity="0.25"></line><line x1="0" y1="68.39543269230768" x2="290.84375" y2="68.39543269230768" fill="rgb(0, 0, 0)" stroke="rgb(60, 60, 60)" stroke-width="1px" opacity="0.25"></line><line x1="0" y1="54.71634615384616" x2="290.84375" y2="54.71634615384616" fill="rgb(0, 0, 0)" stroke="rgb(60, 60, 60)" stroke-width="1px" opacity="0.25"></line><line x1="0" y1="41.03725961538461" x2="290.84375" y2="41.03725961538461" fill="rgb(0, 0, 0)" stroke="rgb(60, 60, 60)" stroke-width="1px" opacity="0.25"></line><line x1="0" y1="27.358173076923066" x2="290.84375" y2="27.358173076923066" fill="rgb(0, 0, 0)" stroke="rgb(60, 60, 60)" stroke-width="1px" opacity="0.25"></line><line x1="0" y1="13.679086538461519" x2="290.84375" y2="13.679086538461519" fill="rgb(0, 0, 0)" stroke="rgb(60, 60, 60)" stroke-width="1px" opacity="0.25"></line><line x1="0" y1="0" x2="290.84375" y2="0" fill="rgb(0, 0, 0)" stroke="rgb(60, 60, 60)" stroke-width="1px" opacity="0.25"></line></g></g></g><g><g><line x1="0" y1="82.07451923076924" x2="290.84375" y2="82.07451923076924" fill="rgb(0, 0, 0)" stroke="rgb(153, 153, 153)" stroke-width="1.5px"></line></g></g><g><g><line x1="22.372596153846157" y1="0" x2="22.372596153846157" y2="177.828125" fill="rgb(0, 0, 0)" stroke="rgb(153, 153, 153)" stroke-width="1.5px"></line></g></g><g><g><g><g><g><path stroke="rgb(255, 112, 67)" stroke-width="2px" d="M22.462086538461538,83.626982534118L22.775302884615385,84.93179675499873L22.909538461538464,85.44574577135108L23.267500000000002,85.5664905651553L23.312245192307692,86.09222231302905L23.356990384615383,86.56789533860189L23.535971153846152,86.8841803403567L23.62546153846154,87.34451986191594L23.938677884615384,87.90482783377456L24.02816826923077,88.20361599553112L24.47562019230769,89.08948654830482L24.65460096153846,89.81717402395239L24.744091346153848,90.30385449002966L25.19154326923077,89.96115021776178L25.460014423076924,89.1644903556755L25.817975961538462,88.0901780348619L25.907466346153846,86.9720359995209L26.086447115384615,85.86827872981112L26.35491826923077,84.88019922793731L26.444408653846153,83.78290245531176L26.489153846153847,83.08498113580988L26.623389423076922,82.56552485875058L27.473548076923077,84.21221854968573L27.607783653846155,86.554043875173L27.921,88.97559147961647L28.055235576923078,89.79026188666214L28.189471153846153,90.6411165924844L28.32370673076923,89.0689642944013L28.457942307692306,86.6040277156815L28.905394230769232,82.60368934790463L29.26335576923077,79.40943481888071L29.30810096153846,77.8445282879313L29.48708173076923,76.77862119436547L29.755552884615383,75.09249876704082L29.934533653846152,72.88225187567167L30.11351442307692,70.91311666355539L30.47147596153846,69.29974848749151L30.560966346153847,68.26926415665302L31.769086538461536,72.67989240782792L31.81383173076923,76.38675226993035L32.17179326923077,79.63516888689155L32.26128365384616,81.95511393850126L32.30602884615384,83.79011048995375L32.66399038461538,86.38081526058309L32.708735576923075,87.67932507283894L32.75348076923077,88.96515944178802L32.97720673076923,89.70403431667594L33.33516826923077,90.01956082685346L33.379913461538465,90.25472894295046L33.87211057692308,89.73803358691599L34.230072115384615,89.60298014733802L34.36430769230769,90.5022470484113L34.94599519230769,96.37288838666858L35.169721153846154,100.89184732646149L35.30395673076923,103.47226885581877L35.34870192307692,104.58958024443304L35.4829375,105.23187982357227L35.4829375,105.26736646281614L35.84089903846154,103.51306663468702L36.24360576923077,101.69715693139007L36.28835096153846,100.10942005508612L36.55682211538461,98.31877472502224L36.69105769230769,96.75042161470606L36.73580288461539,96.15511058909956L36.780548076923075,95.64956497520778L36.82529326923076,94.90414696276989L36.87003846153846,94.52017205377288L37.13850961538461,93.69419888524288L37.36223557692308,92.67909184143404L37.63070673076923,91.81165785683622L37.7649423076923,91.43944192605046L38.3466298076923,89.1499698990807L38.43612019230769,87.73378192087743L38.52561057692308,86.63237039851892L38.52561057692308,85.79000022630312L38.70459134615384,85.4669580727657L38.88357211538462,84.94705012462656L38.973062500000005,84.72671350072785L39.06255288461538,84.43015176568582L39.19678846153847,84.9014109703596L39.28627884615384,84.84900776552486L39.46525961538462,84.40779626978485L39.554750000000006,84.06391018546873L39.59949519230769,83.9540487632496L39.64424038461538,83.98636646253308L39.823221153846156,84.17859028247537L39.912711538461544,83.95434932883109L39.95745673076923,83.66933224130163L40.091692307692306,83.99307939769916L40.13643750000001,83.7826861324309L40.22592788461538,84.00480738210531L40.31541826923077,84.01425351768141L40.44965384615384,83.90199547286895L40.44965384615384,83.74647198422085L40.98659615384616,84.08161968640678L41.07608653846154,84.37559105287538L41.79200961538462,84.81105447456108L41.970990384615384,85.43879289419984L42.10522596153846,86.06530897859882L42.41844230769231,86.64690717496502L42.5079326923077,87.09537974623277L42.64216826923077,87.44935175178446L42.68691346153846,87.559342705137L42.821149038461535,87.97435843128626L42.865894230769236,88.19263291988128L43.17911057692307,88.64126077208773L43.223855769230774,89.184713750931L43.44758173076924,89.19514676335137L43.492326923076924,89.5708894246518L43.71605288461539,89.54649094958988L43.805543269230775,89.51244292809805L43.89503365384615,89.38088745245803L44.074014423076925,89.101868617857L44.11875961538461,88.86025355340053L44.252995192307694,88.58188179894279L44.252995192307694,88.19233772930359L44.38723076923077,87.79460551356999L44.7899375,86.864838456227L44.83468269230769,85.8025399894543L45.05840865384615,85.2131486503017L45.72958653846154,83.5598244802305L45.99805769230769,82.29963870185469L46.132293269230765,81.33105664992773L46.22178365384615,81.00813961340958L46.26652884615385,80.99170538044052L46.35601923076923,80.76265998740219L46.49025480769231,80.57676278769735L46.57974519230769,79.97164013335656L46.803471153846154,79.37458723285756L46.93770673076923,79.32876618482126L47.071942307692304,79.95066072103239L47.29566826923077,81.60416596190363L47.385158653846155,82.6645672857101L48.235317307692306,84.91096068988101L48.324807692307694,86.10290741090965L48.324807692307694,86.64057160091855L48.36955288461538,87.33048365028637L48.77225961538462,88.07065546980509L49.04073076923077,88.67130876262515L49.04073076923077,88.75921977785177L49.174966346153845,88.39790481445897L49.353947115384614,87.98301892699195L49.935634615384615,86.86932756633857L50.20410576923077,87.49366025278518L50.427831730769235,88.62100098607361L50.517322115384616,90.47575094507587L50.56206730769231,91.86155751598976L51.00951923076923,94.37843428863486L51.14375480769231,95.36874942815038L51.32273557692308,95.79831816942165L51.456971153846155,95.84060534778865L51.81493269230769,94.75897843648252L51.85967788461539,93.89411433351513L52.12814903846154,92.96749001492088L52.17289423076923,92.10087981819525L52.26238461538461,91.64447059640169L52.26238461538461,91.08855704317433L53.33626923076923,93.44175518854271L53.425759615384614,94.22713930925478L53.47050480769231,94.82261410941057L53.51525,95.35691193395479L54.007447115384615,94.34504457253543L54.27591826923077,93.36159873203509L54.32066346153846,92.64641729407538L54.41015384615385,92.11943797561726L54.49964423076923,91.25043905034047L54.589134615384616,90.6014087832923L55.12607692307692,88.45492587924197L55.17082211538462,86.98521583440098L55.39454807692308,86.63811070316503L55.57352884615385,85.76899708075713L55.66301923076923,84.90168893760743L55.707764423076924,84.60137612218671L56.110471153846156,86.07759674683678L56.4236875,87.73271146881632L56.51317788461539,89.2034906103449L57.09486538461538,88.0040446591954L57.45282692307693,87.38725684483944L57.45282692307693,86.76056952515532L57.810788461538465,87.84164566262903L57.900278846153846,89.23497406605871L58.258240384615384,93.2395816079616L58.258240384615384,95.26676664505516L58.57145673076923,96.032843044952L58.750437500000004,94.1750425650166L58.88467307692308,92.44891789993564L58.97416346153846,89.39614596335106L59.06365384615385,87.10751819098645L59.15314423076923,84.52029428877533L59.24263461538462,83.16345182225122L59.51110576923077,83.49556536214634L59.69008653846154,83.68575337038915L59.82432211538462,85.24127453298948L60.00330288461538,88.3007025038786L60.182283653846156,91.29534961600778L60.27177403846154,95.03556755325235L60.31651923076923,97.31138609823515L60.361264423076925,99.78914730434238L60.450754807692306,101.84496932841267L60.58499038461538,103.56980841830145L60.808716346153844,105.07463825517985L61.03244230769231,106.12913197887092L61.121932692307695,107.31259429049398L61.16667788461538,108.09983987638343L61.211423076923076,108.40112037382531L61.34565865384616,108.87623553862302L61.390403846153845,108.95434416590822L61.43514903846154,109.35736528303211L61.43514903846154,109.23289774356337L61.88260096153846,107.86602924808845L62.061581730769234,105.85951832032424L62.19581730769231,104.77132492585865L62.37479807692308,104.0125528263177L62.37479807692308,103.20094785943687L62.598524038461534,103.65474873548095L62.732759615384616,103.75912461040087L63.224956730769236,102.85978490565817L63.31444711538461,101.98762373709211L63.53817307692307,100.84368356914973L63.62766346153846,100.3323547311799L63.80664423076923,98.96700253975526L64.11986057692307,98.80822627278371L64.16460576923076,97.43849392515817L64.29884134615385,96.39043382602068L64.34358653846154,95.82607697210071L65.1042548076923,96.6260715883501L65.23849038461539,97.82220567079625L65.64119711538461,101.25132732747112L65.6859423076923,103.69779725765059L65.86492307692308,105.53584904002835L65.90966826923076,106.47230020434121L65.95441346153846,107.13151771651597L66.35712019230769,109.7999074759619L66.67033653846154,112.38706663009285L66.71508173076923,113.945736623653L67.11778846153847,113.58204740299753L67.20727884615384,113.1988482571481L67.38625961538462,112.53512664675208L67.78896634615384,109.5064080108649L67.92320192307692,105.70216406511712L68.46014423076923,94.2565997017722L68.72861538461538,86.5429809686675L68.72861538461538,81.45793369661268L68.81810576923077,79.42937718540728L68.81810576923077,77.88471623669858L68.86285096153846,77.27075811818945L68.90759615384616,77.9950089203941L68.99708653846153,78.6742750684649L69.08657692307692,80.66356921675913L69.2655576923077,83.81727954549535L69.57877403846153,88.66277175749187L70.33944230769231,92.10978580106357L70.4289326923077,93.84301983097781L70.47367788461538,94.41924347328896L70.60791346153846,95.16800256739249L70.78689423076924,94.3959503713078L71.05536538461538,94.21218373508063L71.27909134615385,93.88320051133655L71.32383653846153,94.0039303249122L71.36858173076924,94.42982949732826L71.41332692307692,95.31309663806884L71.50281730769231,96.57884111964194L71.5475625,96.97180513433554L71.72654326923077,96.01129695534486L71.81603365384615,95.13863410375536L72.12925,91.22287011537931L72.26348557692307,86.708900985957L72.39772115384615,83.39033635982783L72.39772115384615,80.55904188994072L72.44246634615385,78.71058288476353L72.53195673076922,77.4890713223124L72.62144711538461,76.12496510743158L72.62144711538461,74.67706479466317L72.80042788461537,73.5161735413041L72.84517307692307,72.16191613962265L72.97940865384615,72.80916680064117L73.38211538461537,78.55019700061224L73.60584134615385,82.50543960901511L73.74007692307693,85.56805144064306L73.8743125,86.76541376616625L73.96380288461538,87.9640545344256L74.23227403846153,89.40396646023592L74.27701923076923,91.31019281052185L74.81396153846153,97.09008822905753L75.0376875,103.74485126297316L75.39564903846153,106.31986370677596L75.79835576923078,107.94945959179815L75.84310096153845,109.16322812029021L75.88784615384616,109.43556212711695L76.1115721153846,110.05560035451958L76.2010625,109.54764575035813L76.60376923076923,107.82430437469883L76.87224038461538,106.64797117528423L77.05122115384616,105.41465937487085L77.18545673076923,102.90844342277298L77.18545673076923,100.59738610733291L77.23020192307693,98.55336094321363L77.2749471153846,97.46668444724274L77.40918269230768,95.65083742094411L77.94612500000001,89.99176238440532L77.99087019230768,87.57533328023428L78.21459615384616,87.72917389304793L78.25934134615386,88.3036258292233L78.34883173076923,86.72597874649537L78.66204807692309,86.44848396809113L78.79628365384616,85.61853021821415L79.02000961538461,87.5448598890733L79.33322596153846,90.9586018844293L79.42271634615383,93.7882494544066L79.46746153846154,95.6747761405248L79.78067788461539,98.08029617821988L80.04914903846154,100.87616816650245L80.31762019230769,101.43017406389133L80.54134615384616,101.67404738748313L80.67558173076924,100.77133858662162L81.03354326923076,96.84694519107025L81.16777884615384,94.40044453631835L81.21252403846154,92.51741676228914L81.39150480769231,90.3976663272288L81.52574038461539,89.85221879903713L81.65997596153846,90.14244824364329L81.74946634615384,89.18810197261162L82.28640865384617,95.31167330096018L82.42064423076924,98.74574537403221L82.55487980769232,103.26866944819635L82.82335096153847,107.97057004069792L83.00233173076924,112.04520364359782L83.31554807692306,113.6884894393155L83.58401923076924,113.09868591918165L83.67350961538462,112.64349015025772L83.98672596153847,110.16947704548569L83.98672596153847,108.02336716612216L84.03147115384616,105.75984318654375L84.74739423076923,99.17760547798792L84.79213942307692,95.20490585850979L84.79213942307692,92.20205674067597L84.9711201923077,90.4930178318074L85.19484615384614,88.9719318903293L85.5528076923077,89.02620306557634L85.64229807692307,88.14501527178784L86.31347596153847,90.9420271183759L86.62669230769231,93.80505600050886L86.80567307692307,96.15980840581445L87.02939903846155,97.07548998807543L87.16363461538462,98.31471273330116L87.253125,99.47314833721492L87.61108653846155,100.35278427590438L87.65583173076922,101.54376442316111L87.70057692307692,101.86743111889095L87.96904807692307,103.71239731754106L88.3717548076923,106.09455903355348L88.72971634615385,104.14433625110887L88.90869711538463,103.42108349423945L89.44563942307693,101.1148355700316L89.6246201923077,96.62141305534035L89.66936538461538,94.8787362109532L89.71411057692308,93.23763919982467L89.80360096153846,91.05208625053947L89.84834615384615,89.62203265967166L90.07207211538461,86.72336759430577L90.1615625,84.56061478734249L90.34054326923078,82.59081175908126L90.38528846153845,80.10486661817055L90.92223076923078,78.2999776206248L91.01172115384615,77.64257908775868L91.05646634615385,77.45471664415551L91.41442788461538,79.65605845712483L91.68289903846153,80.0574220582807L92.21984134615386,81.28160869965544L92.5330576923077,81.56922646558156L92.57780288461538,84.10792591835275L92.71203846153846,83.27102667913312L92.84627403846153,86.53834321738718L92.93576442307693,87.83262621626886L93.0252548076923,90.18269250473298L93.07000000000001,91.24445445019553L93.42796153846153,94.69919007394L93.83066826923077,94.93611304060894L93.87541346153846,94.31121698977931L94.00964903846153,95.27505556217109L94.09913942307692,95.56369722280438L94.63608173076923,94.84536941982964L94.68082692307692,93.23305156475743L94.85980769230768,92.64869682578112L94.90455288461538,91.72548513441922L94.94929807692309,91.18973974543597L94.99404326923077,90.40720099139727L94.99404326923077,89.24529608784763L95.57573076923077,84.60383980553078L95.75471153846154,81.22110687090776L96.29165384615385,85.15934823348874L96.47063461538461,89.76827513985076L96.78385096153846,97.12814477781107L96.82859615384616,102.23672373042447L96.91808653846154,104.13462773465069L97.18655769230769,105.88665391479014L97.85773557692308,105.80495546944464L97.90248076923076,106.44244136449824L97.94722596153846,108.05849278765581L98.12620673076924,110.49890305040873L98.48416826923076,112.34024143993936L98.61840384615384,114.28836654577854L99.11060096153847,109.46264012822951L99.15534615384615,103.91539199875079L99.28958173076923,98.2406934273434L99.51330769230769,88.98993549873506L99.55805288461539,82.4058412499799L99.69228846153847,76.75638474248217L99.73703365384615,74.26782035061522L99.87126923076923,71.73695771119891L100.0055048076923,70.34280134200348L100.1397403846154,71.34369379574096L100.22923076923077,72.27760534260018L100.5871923076923,76.21805985927885L100.85566346153847,83.48641825744004L100.94515384615384,88.4218057960136L101.07938942307692,89.72627021330239L101.43735096153847,88.57820166436495L101.48209615384616,87.83238595296079L101.61633173076923,86.22516430499405L101.70582211538462,82.59161335143644L102.06378365384616,78.37852205190364L102.46649038461538,78.34966085438222L102.91394230769231,80.0959574715487L103.31664903846153,94.37666032548361L103.36139423076924,102.03793459528363L103.40613942307692,107.6661076255568L103.45088461538462,108.06114236007775L103.540375,108.21657626618716L103.89833653846154,94.98567530972089L104.1668076923077,85.89959460903141L104.1668076923077,79.18833386894195L104.48002403846154,78.26037811047742L105.15120192307693,68.35596029294904L105.19594711538461,62.195219844732776L105.73288942307693,60.51233206308821L105.8223798076923,60.374629680982096L105.867125,62.217506767406874L106.00136057692308,63.33543307126634L106.04610576923076,64.81028134017447L106.09085096153846,66.88652172705778L106.31457692307693,71.60210711860942L106.4488125,73.63369210007362L106.76202884615385,80.9504735515225L106.94100961538462,86.91177162213604L107.20948076923077,84.78110007595453L107.25422596153847,82.16742239419938L107.34371634615384,83.66824753502982L107.6121875,84.08782627527977L107.70167788461538,85.76081304645807L107.79116826923077,88.98209918946095L107.83591346153847,91.54020285649067L108.05963942307692,90.32972408994277L108.1491298076923,87.81330266593059L108.8203076923077,85.14186162226524L108.90979807692308,82.4074055150842L109.08877884615384,82.63309781542897L109.67046634615384,84.06353997550985L109.84944711538462,84.10917692308863L110.07317307692308,84.85059505234688L110.25215384615385,88.22047884312816L110.38638942307692,92.48311512746174L110.47587980769231,95.30747728247407L110.74435096153846,98.83250417429049L110.87858653846153,100.24730255128416L111.01282211538462,99.53046823101738L111.50501923076924,93.39029349553928L111.7287451923077,86.24734163065989L111.86298076923077,83.13635398606525L112.04196153846154,76.73174319944971L112.08670673076924,76.43483991754444L112.35517788461539,76.49485021676975L112.57890384615385,78.47342445064459L112.66839423076922,81.32101782198839L112.89212019230769,76.80849180894138L113.92125961538461,57.0181638620457L114.05549519230769,46.66322527228911L114.05549519230769,39.5747116625715L114.27922115384615,34.96052370266415L115.93479326923077,46.90621186896095L116.15851923076923,55.827760560811086L116.20326442307693,62.0714287225332L116.24800961538462,65.5003275570092L116.2927548076923,70.58229039219079L116.3375,71.81624333252896L116.38224519230769,73.49481788125178L116.9191875,71.97618866177936L117.05342307692308,76.1407200094544L117.09816826923077,77.49013214928843L117.27714903846153,84.5642095505266L117.5456201923077,89.73870801392836L117.72460096153846,91.48186719923173L117.81409134615384,93.01215800020164L117.81409134615384,92.88007107060682L118.17205288461538,94.17988894446991L118.53001442307692,88.62094599755267L118.66425,86.34369160727942L118.75374038461538,86.23873143457526L118.93272115384616,82.68458417042906L118.97746634615385,81.39551989903939L119.20119230769231,81.00744043394766L119.29068269230768,79.84112466549091L119.42491826923077,73.77251655339175L119.51440865384616,65.22187803847362L120.09609615384616,62.842721456021536L120.31982211538461,64.9282450048509L120.63303846153846,73.26059533611617L120.81201923076924,83.01361412549196L120.94625480769231,92.09217217329572L121.03574519230769,100.77919518375607L121.03574519230769,105.29328214760686L121.48319711538461,117.45621524300431L121.52794230769231,122.98051542768172L121.66217788461539,126.27816157408898L122.33335576923076,119.39304725320912L122.46759134615384,110.29661280727987L122.55708173076923,103.58222766468884L122.82555288461539,96.38240648317773L122.87029807692308,91.52966521870503L123.22825961538462,81.1887946825249L123.27300480769232,75.64984259739884L123.67571153846154,72.33768412294745L123.72045673076923,74.34492114257166L123.76520192307692,77.4578135230891L123.98892788461539,82.34561367529528L124.16790865384615,86.08477225568325L124.21265384615384,88.12585690466881L124.21265384615384,87.88287339912158L124.79434134615384,92.4422328154316L124.83908653846154,92.09094883121396L125.1075576923077,86.93251557762828L125.15230288461538,80.82333950317836L125.19704807692307,76.95674329217589L125.24179326923077,73.54510633556298L125.51026442307692,67.46434081641861L125.91297115384614,57.68975323568141L126.36042307692307,45.53163777869236L126.53940384615385,36.919494762813486L126.71838461538462,33.730303886502526L126.807875,32.42957636973509L126.94211057692307,33.84147146316505L126.98685576923077,35.93303678358413L126.98685576923077,36.56616781630089L127.21058173076922,39.17730027547876L127.79226923076922,37.958121357444696L127.9265048076923,38.523311510044294L128.28446634615386,50.13593896891767L128.5081923076923,58.948956206353444L128.5976826923077,64.85586100559303L128.6424278846154,70.09295599895317L128.82140865384616,73.99270381371048L128.86615384615385,75.84935164900618L128.91089903846154,75.59890816325225L128.95564423076922,79.54295917372777L129.00038942307694,80.77626259530797L129.22411538461537,84.3133816976583L129.31360576923078,87.7968538715751L129.44784134615384,90.8153371299507L129.49258653846152,93.57686905768112L129.6268221153846,96.49985878650304L129.7610576923077,100.26508219012455L129.8058028846154,101.69901212449022L129.85054807692308,102.97180020072685L130.65596153846153,88.03150453189801L130.92443269230768,87.33927613142926L131.32713942307691,65.85601720505923L131.3718846153846,51.05106904984511L131.72984615384615,38.80129490698897L131.81933653846153,36.82963705928131L131.86408173076924,37.18120434106456L131.86408173076924,36.692855262240016L132.31153365384617,47.07928970383878L132.84847596153847,60.19434222015259L132.89322115384616,65.02097115045454L133.2064375,74.00927042334523L133.38541826923077,82.32726724583378L133.56439903846154,87.52491101145749L133.65388942307692,95.45080565835883L133.6986346153846,100.2561111445317L133.6986346153846,101.92474325389203L134.01185096153847,109.73684315176055L134.19083173076925,111.31717982108144L134.68302884615383,111.9702250983127L134.81726442307692,110.27756536380834L134.90675480769232,110.57874858346949L135.04099038461538,108.031392258578L135.35420673076922,104.15425607375249L135.3989519230769,101.61114061564449L135.3989519230769,98.23529678260967L135.57793269230768,93.53645017366405L135.98063942307692,80.60778932093214L136.47283653846154,60.32758121588698L136.60707211538463,46.935074161972125L136.60707211538463,37.835082517830756L137.05452403846155,36.01225177783175L137.09926923076924,31.975575177302375L137.2335048076923,28.959949543732648L137.8151923076923,23.415521458779722L137.9046826923077,22.772203950145354L138.21789903846155,23.263521376241215L138.30738942307693,24.620636839264023L138.71009615384617,25.422551607613997L138.8890769230769,25.860621448380584L139.38127403846153,26.5971530709036L139.47076442307693,26.59655142414468L139.47076442307693,25.243712917310773L139.5602548076923,25.50468347033427L139.605,26.935176655827746L139.6944903846154,27.806749646816087L140.1866875,19.863919767067756L140.67888461538462,8.196185916948167L140.99210096153845,-1.5684831469910705L141.93175,-5.146527905642074L142.24496634615386,68.40331097584834L142.28971153846155,118.67170438887723L142.33445673076923,152.3723293142991L142.73716346153847,190.2209507727953L145.421875,182.85406930640346L145.5561105769231,170.7561375490221L145.69034615384615,163.92734005363218L145.73509134615384,156.90547427381398L145.77983653846155,151.63086679100493L146.1377980769231,148.03067420058687L146.31677884615385,143.30987731187716L146.4957596153846,132.50209890383906L146.89846634615384,119.96959891067999L146.98795673076924,111.6687716834874L147.0327019230769,113.47421039815457L147.30117307692305,95.78560896400498L147.34591826923076,84.06079585423402L147.48015384615385,76.80960753684516L147.748625,68.25631685469178L147.88286057692306,62.23908934766382L148.10658653846156,64.03572979228603L148.3303125,62.32086072552194L148.9567451923077,65.1081437305505L149.0014903846154,73.9276416126427L149.09098076923075,78.91797296659755L149.40419711538462,86.7078499372812L150.34384615384616,115.1041281038438L150.38859134615385,128.36989565730505L150.47808173076922,131.1360998350498L150.79129807692306,112.61317507824312L151.0597692307692,89.36594773348163L151.1940048076923,61.139864374861276L151.59671153846156,39.04285973244663L151.64145673076922,23.12243235676968L151.7756923076923,9.748238818555308L151.8651826923077,18.766007693419994L151.99941826923077,76.65197311298351L152.26788942307692,118.25001088982908L152.3126346153846,143.3614375255104L152.67059615384616,158.78454754903112L152.76008653846156,173.20171351946524L152.89432211538463,174.68252782726412L153.5207548076923,167.8766471207846L153.56550000000001,159.36484630488073L153.69973557692308,148.98465912918644L154.10244230769231,130.7006970335177L154.1471875,118.91203859773373L154.32616826923078,113.4690183465537L154.50514903846155,101.63594692637432L154.72887500000002,85.65212143589386L154.7736201923077,84.62140193521118L154.99734615384617,83.52835664197059L155.08683653846157,79.63688651620207L155.08683653846157,76.37912425361466L155.53428846153847,82.01020328189827L155.62377884615387,85.70083676357298L155.66852403846153,87.14851559466122L155.75801442307693,87.54051805161879L155.98174038461536,89.69257025012823L156.3844471153846,88.74164099799344L156.83189903846153,95.02967846952389L156.92138942307693,98.01907341279096L157.14511538461537,105.14353875663079L157.27935096153846,105.23361160530519L157.27935096153846,100.19122500165625L157.32409615384617,97.96478268993644L157.36884134615386,91.2559746768581L157.45833173076923,87.10173106652427L157.95052884615387,49.073975952774305L158.30849038461537,14.90231598762503L158.35323557692308,-3.618569164311964L158.93492307692307,-73.0115704554758L159.15864903846153,29.025268407602795L159.29288461538462,106.81393192379366L159.3376298076923,149.10916694063084L159.47186538461537,190.98608825791607L162.46979326923076,179.67314388408113L163.05148076923078,122.3436578379686L163.49893269230768,64.84331946825064L163.58842307692308,33.57876226623057L163.67791346153848,17.513599050388706L163.67791346153848,4.84573228214785L163.85689423076923,6.782104919007111L164.21485576923078,4.311007660235759L164.48332692307693,-13.205080100716316L165.02026923076923,-5.517022933952745L165.55721153846153,43.89016355481948L167.66023557692307,83.38653612663822L168.01819711538462,104.04663856015581L168.19717788461537,113.67071879451905L168.7788653846154,125.31649570936911L169.2710625,129.1158555396586L169.45004326923078,134.34246131377247L169.8080048076923,134.9119366782256L169.85275,130.36828170540483L170.0317307692308,129.62491026190298L170.4344375,125.37095999198505L170.4791826923077,127.64159286957775L170.92663461538461,124.84834162292266L170.9713798076923,122.4059896610636L171.016125,120.77171577954275L171.37408653846154,123.22450907985603L172.2689903846154,123.57802159395726L173.342875,123.32913203041821L173.52185576923077,130.26801807064913L173.61134615384614,134.6716166214431L173.65609134615383,134.80871580083416L173.79032692307695,134.9481036956999L174.23777884615384,135.101595036647L174.64048557692308,132.58536881694414L174.77472115384614,131.0799745920804L175.2221730769231,131.56052034582353L175.44589903846153,127.66988018132793L177.05672596153846,127.99503853995438L177.4594326923077,125.72442894716669L177.54892307692307,122.67595338657036L177.72790384615385,128.70577001876507L177.996375,125.15249343330555L178.1306105769231,127.44680131976128L178.44382692307693,131.7516531788185L178.80178846153845,126.52279063608725L178.93602403846154,126.27409893948493L179.2939855769231,126.93143990022519L179.47296634615384,127.03979761149952L179.65194711538462,125.4274501524082L180.09939903846154,126.43566529082447L180.14414423076923,127.75285824833168L180.68108653846156,126.84580969602882L180.8600673076923,123.61781228977131L181.17328365384614,123.49792720252273L181.35226442307692,120.58193234171408L181.84446153846156,122.4309969755123L182.38140384615386,130.3286761887139L183.0973269230769,129.90184849030447L184.21595673076925,130.01108550724925L184.8871346153846,134.73505633430665L185.5135673076923,133.1528050167931L185.69254807692306,131.69628063580828L185.87152884615386,129.35139561379813L186.2294903846154,126.10352058562097L186.49796153846154,131.0359129415943L186.54270673076923,129.78732812528847L187.30337500000002,128.92653371426945L187.70608173076923,132.36434961205964L187.9745528846154,132.9299163960499L188.3325144230769,133.11835779070887L188.46675000000002,132.34639182327362L189.45114423076922,138.26522329655805L190.2118125,143.31285177528756L190.39079326923076,133.98367370494452L190.7487548076923,133.0358561096133L190.88299038461537,131.5828068468572L191.15146153846155,135.69488325585226L191.956875,137.4188255393051L192.04636538461537,136.10504930040494L192.85177884615385,134.50407223989245L193.03075961538462,134.28588160614134L193.1649951923077,126.4115409933693L193.97040865384616,128.2222467075915L194.1493894230769,125.97475388886699L194.46260576923078,129.3113766459998L195.04429326923076,131.90006113313203L195.3127644230769,132.76656022411737L195.93919711538462,130.1041643001703L196.47613942307692,130.6709345681616L196.78935576923078,130.4107082505452L197.1473173076923,134.31201545262593L197.50527884615383,136.9418836066518L197.55002403846152,131.66408076736616L197.77375,132.69375566826082L197.95273076923078,134.05598085642578L198.53441826923077,133.93756467515203L198.71339903846152,129.93460831723837L199.33983173076922,125.6019555447051L199.87677403846152,122.96160381009092L199.92151923076923,125.99660797697251L200.23473557692307,127.88360555738913L200.59269711538462,137.1489870380526L200.86116826923077,133.9690421132177L201.12963942307692,132.41746904704704L201.44285576923076,132.30250935283925L201.53234615384616,127.63099347245654L201.93505288461537,126.94220580458433L202.02454326923078,123.4624955304757L202.06928846153846,121.99557374068331L202.91944711538463,125.10041267483372L203.0536826923077,131.0950822874749L203.45638942307693,128.45553055975518L204.03807692307691,130.67944305917752L204.53027403846153,132.84829498857476L204.66450961538462,129.744203894456L205.11196153846154,134.9214923340796L205.82788461538462,132.18286953313233L206.32008173076923,124.42681648495567L207.12549519230768,122.23768282602202L207.57294711538464,125.39309107262797L207.6176923076923,117.92373328813488L207.8414182692308,123.68729127109576L207.88616346153847,127.04332133136663L208.19937980769228,128.4632424655475L208.3783605769231,131.64851718800767L208.42310576923077,136.64425592273363L208.46785096153843,132.5158502085615L209.45224519230769,132.31220350241162L209.49699038461537,131.42150821652848L209.67597115384615,131.14014245728754L209.76546153846155,132.09021074807703L210.1681682692308,130.19118035943177L210.34714903846154,127.46924735658044L210.48138461538463,130.14539430718457L211.6447596153846,126.28907014441072L211.6895048076923,129.12448449082123L212.09221153846153,131.23889427813674L212.2264471153846,132.48832272044794L212.4054278846154,128.64516845463592L212.53966346153845,130.63150674918313L212.98711538461538,128.17536372260278L213.0318605769231,123.16806590653765L213.07660576923078,127.46476189744702L213.12135096153844,131.01503075355703L213.34507692307693,130.3078711617577L213.61354807692308,132.4650166585429L213.79252884615386,136.96355316697168L213.88201923076923,135.39853251565506L214.5979423076923,133.43828706340474L214.86641346153846,129.97512994067225L214.91115865384614,128.70847546381793L215.2691201923077,132.78862224615517L215.53759134615385,129.10684271471305L216.11927884615383,131.92731479260365L216.4324951923077,129.26076262423146L216.8799471153846,125.6926508890545L218.0433221153846,127.82574071476286L219.07246153846154,136.0746316734931L219.3856778846154,137.55234491491206L219.65414903846155,131.81793262629807L219.78838461538462,129.45221524151395L221.17548557692305,130.07904349036352L221.22023076923077,132.03210308986232L221.93615384615384,132.84429091787578L221.98089903846156,131.44028455179065L222.42835096153846,129.46822062166592L222.56258653846155,139.8321718103229L222.65207692307692,134.50895101604556L223.14427403846156,135.21325972433735L223.4127451923077,129.1264158845067L223.54698076923077,126.25374053350578L223.72596153846155,128.79376232532786L224.44188461538462,128.32542863570984L224.531375,130.00375051208798L224.5761201923077,121.22606711314735L224.75510096153846,124.70974869317551L224.88933653846155,122.41438334392933L224.97882692307692,121.01952050057584L225.60525961538463,122.59258374326869L225.78424038461537,123.33457292428143L226.27643750000001,131.86292706482084L226.41067307692308,129.39942732159088L227.30557692307693,126.95040788785735L227.66353846153845,125.07133851902739L228.11099038461538,129.44793000878818L228.15573557692306,134.07617538810007L228.6479326923077,123.52997911715646L229.67707211538462,127.92185531197777L229.90079807692308,129.00360653739907L230.66146634615387,136.86869477292328L231.69060576923076,136.69927349740982L231.78009615384616,135.5479361892257L232.63025480769232,135.54052039571303L232.675,137.04239432941955L232.85398076923076,133.24143079340644L233.03296153846154,129.05107385528197L233.838375,122.27988792793451L234.10684615384616,126.33970695742025L234.15159134615382,131.98651430336542L236.03088942307693,131.8044940488443L236.38885096153848,131.65890925178056L236.74681249999998,132.34840425126305L236.7915576923077,131.18087432253506L237.55222596153848,132.064799765938L237.91018749999998,128.16278116824606L238.13391346153847,127.90821305311226L238.31289423076922,132.3592416457738L238.80509134615383,131.91231658165856L239.34203365384613,132.58936187678466L239.47626923076922,131.37291117030867L239.56575961538462,129.4498798348997L239.74474038461537,128.54897051206194L240.10270192307692,134.78900300895367L241.84776442307694,131.74033411679704L242.78741346153848,133.9774132455287L243.05588461538463,134.21269333520152L243.1006298076923,135.66864085145272L243.1901201923077,131.34063526397358L243.86129807692308,130.7209186966925L244.17451442307694,129.17705720775044L245.20365384615383,127.12260286224131L245.29314423076923,133.86872356431263L245.38263461538463,130.57286637638876L245.87483173076924,130.4789691262031L246.0090673076923,134.86287779571276L246.7697355769231,134.5776255564055L247.03820673076925,133.36568975920903L247.61989423076923,128.32559804007667L248.51479807692309,128.93054605690716L248.9175048076923,132.04489272006887L249.5439375,131.73299763367314L249.6334278846154,137.60617223178176L249.72291826923077,132.47576398397078L250.12562499999999,132.13083058379232L250.52833173076925,134.3744884149697L250.88629326923075,134.13888010068155L251.7811971153846,129.66790972750204L251.8706875,128.1555201734995L252.0049230769231,131.8402966405641L252.09441346153847,134.41395178324436L252.36288461538462,129.40304753410078L252.89982692307694,128.96719683223245L252.9445721153846,134.16107168434792L253.25778846153844,134.72869406328914L253.39202403846156,135.25431796295007L253.61575,140.73048128172675L253.92896634615386,136.64246784141613L254.01845673076923,129.11394346199694L256.30046153846155,129.0556921523119L256.79265865384616,125.39887049572728L256.9268942307692,130.22919173868885L257.1506201923077,130.41193886326877L257.50858173076927,132.81494853058808L257.86654326923076,126.41189338036298L258.04552403846156,127.61396463067851L258.09026923076925,129.79339850681095L258.1797596153846,132.10934460180624L258.3139951923077,134.1112630298638L258.62721153846155,132.48508282176232L258.8061923076923,132.30061433999836L258.98517307692305,130.76805632598504L259.3878798076923,129.75782368015095L259.43262500000003,126.67168068977549L259.65635096153846,128.4356801625401L259.8353317307692,127.88976778943737L259.8800769230769,131.38745117933576L260.5512548076923,132.43041544738335L261.89361057692304,130.4532497733272L261.9383557692308,126.31582353776545L262.4752980769231,123.37365543478089L262.7885144230769,125.4074163273819L262.8780048076923,122.63342384368647" style="fill: none;" fill="none"></path></g></g></g></g><g opacity="0.20000000298023224"><g><g><g><path stroke="rgb(255, 112, 67)" stroke-width="2px" d="M22.462086538461538,83.626982534118L22.775302884615385,85.71468528752717L22.909538461538464,85.93913682704935L23.267500000000002,85.70848644266907L23.312245192307692,86.77861768305301L23.356990384615383,87.22592237525835L23.535971153846152,87.33647295342615L23.62546153846154,88.01569930360867L23.938677884615384,88.73117325804554L24.02816826923077,88.64728159377209L24.47562019230769,90.41025759675182L24.65460096153846,90.90474519431591L24.744091346153848,91.03228609298284L25.19154326923077,89.44776520270568L25.460014423076924,87.97043700630847L25.817975961538462,86.47946724192454L25.907466346153846,85.29529610674541L26.086447115384615,84.21292306909768L26.35491826923077,83.39823049909363L26.444408653846153,82.13705759364485L26.489153846153847,82.03813743222094L26.623389423076922,81.78635753609169L27.473548076923077,86.68222657499405L27.607783653846155,90.06675412225036L27.921,92.60789567495767L28.055235576923078,91.01226402303347L28.189471153846153,91.91739647411383L28.32370673076923,86.71073826090074L28.457942307692306,82.90662511815675L28.905394230769232,76.60318400716552L29.26335576923077,74.61805408459443L29.30810096153846,75.49716880287114L29.48708173076923,75.17976068126467L29.755552884615383,72.56331524682733L29.934533653846152,69.56688163360724L30.11351442307692,67.95941389615719L30.47147596153846,66.8796962483571L30.560966346153847,66.72353766996127L31.769086538461536,79.295834760024L31.81383173076923,81.9470420506962L32.17179326923077,84.50779380581986L32.26128365384616,85.43503151312471L32.30602884615384,86.54260531580793L32.66399038461538,90.26687241540505L32.708735576923075,89.62708979088526L32.75348076923077,90.89391099501114L32.97720673076923,90.81234662893873L33.33516826923077,90.492850592102L33.379913461538465,90.60748111708806L33.87211057692308,88.96299055287471L34.230072115384615,89.40039998797269L34.36430769230769,91.85114740001467L34.94599519230769,105.17885039402888L35.169721153846154,107.67028573613901L35.30395673076923,107.34290114985062L35.34870192307692,106.2655473273534L35.4829375,106.19532919228077L35.4829375,105.32059642168193L35.84089903846154,100.8816168924937L36.24360576923077,98.97329237644489L36.28835096153846,97.7278147406303L36.55682211538461,95.63280672992651L36.69105769230769,94.3978919492318L36.73580288461539,95.26214405068984L36.780548076923075,94.89124655437011L36.82529326923076,93.78601994411304L36.87003846153846,93.94420969027739L37.13850961538461,92.45523913244789L37.36223557692308,91.15643127572078L37.63070673076923,90.51050687993948L37.7649423076923,90.88111802987181L38.3466298076923,85.71576185862605L38.43612019230769,85.60949995357257L38.52561057692308,84.98025311498115L38.52561057692308,84.52644496797942L38.70459134615384,84.98239484245961L38.88357211538462,84.1671882024178L38.973062500000005,84.39620856487981L39.06255288461538,83.98530916312279L39.19678846153847,85.60829977737022L39.28627884615384,84.77040295827274L39.46525961538462,83.74597902617488L39.554750000000006,83.54808105899451L39.59949519230769,83.78925662992091L39.64424038461538,84.03484301145832L39.823221153846156,84.4669260123888L39.912711538461544,83.61798789836466L39.95745673076923,83.24180661000742L40.091692307692306,84.47870013229549L40.13643750000001,83.4670962345285L40.22592788461538,84.33798925661696L40.31541826923077,84.02842272104552L40.44965384615384,83.73360840565024L40.44965384615384,83.51318675124874L40.98659615384616,84.58434123968563L41.07608653846154,84.81654810257828L41.79200961538462,85.46424960708963L41.970990384615384,86.38040052365798L42.10522596153846,87.00508310519731L42.41844230769231,87.51930446951434L42.5079326923077,87.76808860313434L42.64216826923077,87.98030976011204L42.68691346153846,87.72432913516577L42.821149038461535,88.59688202051015L42.865894230769236,88.52004465277379L43.17911057692307,89.31420255039747L43.223855769230774,89.99989321919588L43.44758173076924,89.21079628198193L43.492326923076924,90.13450341660243L43.71605288461539,89.50989323699703L43.805543269230775,89.46137089586028L43.89503365384615,89.18355423899797L44.074014423076925,88.68334036595547L44.11875961538461,88.49783095671582L44.252995192307694,88.16432416725617L44.252995192307694,87.6080216248448L44.38723076923077,87.19800718996962L44.7899375,85.47018787021247L44.83468269230769,84.20909228929533L45.05840865384615,84.32906164157275L45.72958653846154,81.07983822512368L45.99805769230769,80.40936003429098L46.132293269230765,79.87818357203729L46.22178365384615,80.52376405863235L46.26652884615385,80.96705403098694L46.35601923076923,80.4190918978447L46.49025480769231,80.29791698814012L46.57974519230769,79.06395615184537L46.803471153846154,78.47900788210904L46.93770673076923,79.26003461276682L47.071942307692304,80.88350252534907L47.29566826923077,84.08442382321049L47.385158653846155,84.25516927141983L48.235317307692306,88.2805507961374L48.324807692307694,87.89082749245259L48.324807692307694,87.44706788593187L48.36955288461538,88.36535172433807L48.77225961538462,89.18091319908316L49.04073076923077,89.57228870185523L49.04073076923077,88.89108630069174L49.174966346153845,87.85593236936974L49.353947115384614,87.36069009579145L49.935634615384615,85.19879052535846L50.20410576923077,88.43015928245508L50.427831730769235,90.3120120860063L50.517322115384616,93.25787588357925L50.56206730769231,93.9402673723606L51.00951923076923,98.1537494476025L51.14375480769231,96.85422213742366L51.32273557692308,96.44267128132856L51.456971153846155,95.90403611533917L51.81493269230769,93.1365380695233L51.85967788461539,92.59681817906407L52.12814903846154,91.57755353702949L52.17289423076923,90.80096452310681L52.26238461538461,90.95985676371134L52.26238461538461,90.25468671333331L53.33626923076923,96.97155240659531L53.425759615384614,95.40521549032285L53.47050480769231,95.71582630964426L53.51525,96.15835867077112L54.007447115384615,92.82724353040639L54.27591826923077,91.8864299712846L54.32066346153846,91.5736451371358L54.41015384615385,91.3289689979301L54.49964423076923,89.94694066242529L54.589134615384616,89.62786338272002L55.12607692307692,85.23520152316642L55.17082211538462,84.78065076713952L55.39454807692308,86.1174530063111L55.57352884615385,84.46532664714523L55.66301923076923,83.60072672288291L55.707764423076924,84.1509068990556L56.110471153846156,88.29192768381193L56.4236875,90.21538355178558L56.51317788461539,91.40965932263778L57.09486538461538,86.20487573247115L57.45282692307693,86.46207512330551L57.45282692307693,85.82053854562915L57.810788461538465,89.46325986883961L57.900278846153846,91.32496667120319L58.258240384615384,99.24649292081595L58.258240384615384,98.30754420069547L58.57145673076923,97.18195764479728L58.750437500000004,91.3883418451135L58.88467307692308,89.85973090231418L58.97416346153846,84.8169880584742L59.06365384615385,83.67457653243954L59.15314423076923,80.63945843545862L59.24263461538462,81.12818812246506L59.51110576923077,83.99373567198904L59.69008653846154,83.97103538275337L59.82432211538462,87.57455627688995L60.00330288461538,92.88984446021226L60.182283653846156,95.78732028420156L60.27177403846154,100.6458944591192L60.31651923076923,100.72511391570934L60.361264423076925,103.50578911350324L60.450754807692306,104.92870236451809L60.58499038461538,106.15706705313463L60.808716346153844,107.33188301049745L61.03244230769231,107.7108725644075L61.121932692307695,109.08778775792855L61.16667788461538,109.28070825521762L61.211423076923076,108.85304111998815L61.34565865384616,109.58890828581957L61.390403846153845,109.07150710683602L61.43514903846154,109.96189695871794L61.43514903846154,109.04619643436028L61.88260096153846,105.81572650487605L62.061581730769234,102.84975192867793L62.19581730769231,103.13903483416026L62.37479807692308,102.87439467700628L62.37479807692308,101.98354040911565L62.598524038461534,104.33545004954705L62.732759615384616,103.91568842278078L63.224956730769236,101.51077534854413L63.31444711538461,100.67938198424304L63.53817307692307,99.12777331723616L63.62766346153846,99.56536147422516L63.80664423076923,96.91897425261828L64.11986057692307,98.57006187232642L64.16460576923076,95.38389540371986L64.29884134615385,94.81834367731443L64.34358653846154,94.97954169122073L65.1042548076923,97.82606351272418L65.23849038461539,99.6164067944655L65.64119711538461,106.39500981248342L65.6859423076923,107.36750215291977L65.86492307692308,108.29292671359502L65.90966826923076,107.87697695081052L65.95441346153846,108.12034398477812L66.35712019230769,113.80249211513079L66.67033653846154,116.26780536128925L66.71508173076923,116.28374161399327L67.11778846153847,113.03651357201429L67.20727884615384,112.62404953837394L67.38625961538462,111.53954423115803L67.78896634615384,104.96333005703413L67.92320192307692,99.99579814649545L68.46014423076923,77.08825315675485L68.72861538461538,74.97255286901044L68.72861538461538,73.83036278853051L68.81810576923077,76.38654241859912L68.81810576923077,75.56772481363554L68.86285096153846,76.34982094042576L68.90759615384616,79.08138512370105L68.99708653846153,79.69317429057108L69.08657692307692,83.64751043920046L69.2655576923077,88.54784503859969L69.57877403846153,95.93101007548663L70.33944230769231,97.28030686642116L70.4289326923077,96.44287087584918L70.47367788461538,95.28357893675566L70.60791346153846,96.29114120854781L70.78689423076924,93.2378720771808L71.05536538461538,93.93653378073985L71.27909134615385,93.38972567572044L71.32383653846153,94.18502504527568L71.36858173076924,95.06867825595232L71.41332692307692,96.6379973491797L71.50281730769231,98.47745784200154L71.5475625,97.56125115637596L71.72654326923077,94.57053468685884L71.81603365384615,93.82963982637112L72.12925,85.34922413281524L72.26348557692307,79.93794729182353L72.39772115384615,78.41248942063405L72.39772115384615,76.31210018511003L72.44246634615385,75.93789437699776L72.53195673076922,75.65680397863572L72.62144711538461,74.07880578511036L72.62144711538461,72.50521432551054L72.80042788461537,71.77483666126544L72.84517307692307,70.1305300371005L72.97940865384615,73.78004279216894L73.38211538461537,87.16174230056886L73.60584134615385,88.4383035216194L73.74007692307693,90.16196918808497L73.8743125,88.56145725445104L73.96380288461538,89.7620156868146L74.23227403846153,91.56383434895139L74.27701923076923,94.16953233595078L74.81396153846153,105.75993135686103L75.0376875,113.72699581384659L75.39564903846153,110.18238237248018L75.79835576923078,110.3938534193314L75.84310096153845,110.98388091302834L75.88784615384616,109.84406313735705L76.1115721153846,110.98565769562354L76.2010625,108.78571384411592L76.60376923076923,105.2392923112099L76.87224038461538,104.8834713761623L77.05122115384616,103.56469167425082L77.18545673076923,99.14911949462615L77.18545673076923,97.1308001341728L77.23020192307693,95.48732319703468L77.2749471153846,95.83666970328643L77.40918269230768,92.92706688149617L77.94612500000001,81.50314982959713L77.99087019230768,83.95068962397771L78.21459615384616,87.95993481226839L78.25934134615386,89.1653037334864L78.34883173076923,84.35950812240345L78.66204807692309,86.03224180048475L78.79628365384616,84.37359959339865L79.02000961538461,90.43435439536205L79.33322596153846,96.0792148774633L79.42271634615383,98.03272080937258L79.46746153846154,98.50456616970209L79.78067788461539,101.68857623476248L80.04914903846154,105.06997614892629L80.31762019230769,102.26118290997468L80.54134615384616,102.03985737287081L80.67558173076924,99.41727538532936L81.03354326923076,90.96035509774318L81.16777884615384,90.7306935541905L81.21252403846154,89.69287510124536L81.39150480769231,87.2180406746383L81.52574038461539,89.03404750674963L81.65997596153846,90.5777924105525L81.74946634615384,87.75658256606413L82.28640865384617,104.49703029348301L82.42064423076924,103.89685348364023L82.55487980769232,110.0530555594426L82.82335096153847,115.02342092945025L83.00233173076924,118.15715404794767L83.31554807692306,116.15341813289203L83.58401923076924,112.21398063898086L83.67350961538462,111.9606964968718L83.98672596153847,106.45845738832767L83.98672596153847,104.80420234707685L84.03147115384616,102.36455721717614L84.74739423076923,89.3042489151542L84.79213942307692,89.2458564292926L84.79213942307692,87.69778306392523L84.9711201923077,87.92945946850455L85.19484615384614,86.69030297811214L85.5528076923077,89.10760982844693L85.64229807692307,86.82323358110511L86.31347596153847,95.13754488825798L86.62669230769231,98.09959932370828L86.80567307692307,99.69193701377282L87.02939903846155,98.44901236146688L87.16363461538462,100.1735468511398L87.253125,101.21080174308557L87.61108653846155,101.67223818393853L87.65583173076922,103.33023464404619L87.70057692307692,102.3529311624857L87.96904807692307,106.47984661551622L88.3717548076923,109.66780160757212L88.72971634615385,101.21900207744194L88.90869711538463,102.33620435893535L89.44563942307693,97.65546368371982L89.6246201923077,89.88127928330348L89.66936538461538,92.26472094437251L89.71411057692308,90.77599368313184L89.80360096153846,87.77375682661166L89.84834615384615,87.47695227336997L90.07207211538461,82.37536999625691L90.1615625,81.31648557689758L90.34054326923078,79.63610721668945L90.38528846153845,76.37594890680451L90.92223076923078,75.59264412430616L91.01172115384615,76.65648128845943L91.05646634615385,77.17292297875079L91.41442788461538,82.9580711765788L91.68289903846153,80.6594674600145L92.21984134615386,83.11788866171757L92.5330576923077,82.00065311447074L92.57780288461538,87.91597509750953L92.71203846153846,82.0156778203037L92.84627403846153,91.43931802476827L92.93576442307693,89.77405071459137L93.0252548076923,93.70779193742918L93.07000000000001,92.83709736838937L93.42796153846153,99.8812935095567L93.83066826923077,95.29149749061236L93.87541346153846,93.37387291353483L94.00964903846153,96.7208134207588L94.09913942307692,95.9966597137543L94.63608173076923,93.76787771536753L94.68082692307692,90.81457478214915L94.85980769230768,91.77216471731663L94.90455288461538,90.34066759737638L94.94929807692309,90.38612166196107L94.99404326923077,89.23339286033924L94.99404326923077,87.50243873252319L95.57573076923077,77.64165538205549L95.75471153846154,76.14700746897321L96.29165384615385,91.06671027736022L96.47063461538461,96.68166549939376L96.78385096153846,108.16794923475156L96.82859615384616,109.8995921593446L96.91808653846154,106.98148374098997L97.18655769230769,108.51469318499932L97.85773557692308,105.68240780142636L97.90248076923076,107.39867020707864L97.94722596153846,110.48256992239219L98.12620673076924,114.15951844453812L98.48416826923076,115.10224902423528L98.61840384615384,117.21055420453732L99.11060096153847,102.22405050190596L99.15534615384615,95.59451980453271L99.28958173076923,89.72864557023232L99.51330769230769,75.11379860582261L99.55805288461539,72.52969987684718L99.69228846153847,68.28219998123555L99.73703365384615,70.53497376281481L99.87126923076923,67.94066375207443L100.0055048076923,68.25156678821033L100.1397403846154,72.84503247634721L100.22923076923077,73.67847266288905L100.5871923076923,82.12874163429683L100.85566346153847,94.38895585468183L100.94515384615384,95.82488710387395L101.07938942307692,91.68296683923556L101.43735096153847,86.8560988409588L101.48209615384616,86.71366238585459L101.61633173076923,83.81433183304392L101.70582211538462,77.14128692109998L102.06378365384616,72.05888510260445L102.46649038461538,78.30636905810007L102.91394230769231,82.71540239729846L103.31664903846153,115.79771460638597L103.36139423076924,113.52984599998364L103.40613942307692,116.10836717096659L103.45088461538462,108.65369446185919L103.540375,108.44972712535125L103.89833653846154,75.13932387502149L104.1668076923077,72.27047355799722L104.1668076923077,69.12144275880777L104.48002403846154,76.8684444727806L105.15120192307693,53.499333566656475L105.19594711538461,52.954109172408394L105.73288942307693,57.98800039062134L105.8223798076923,60.16807610782294L105.867125,64.98182239704407L106.00136057692308,65.01232252705555L106.04610576923076,67.02255374353666L106.09085096153846,70.00088230738272L106.31457692307693,78.6754852059369L106.4488125,76.68106957226992L106.76202884615385,91.92564572869586L106.94100961538462,95.85371872805632L107.20948076923077,81.5850927566823L107.25422596153847,78.24690587156667L107.34371634615384,85.91948524627549L107.6121875,84.71719438565465L107.70167788461538,88.27029320322549L107.79116826923077,93.81402840396532L107.83591346153847,95.3773583570352L108.05963942307692,88.51400594012097L108.1491298076923,84.03867052991231L108.8203076923077,81.13470005676723L108.90979807692308,78.30572135431262L109.08877884615384,82.97163626594612L109.67046634615384,86.20920321563115L109.84944711538462,84.17763234445682L110.07317307692308,85.96272224623422L110.25215384615385,93.2753045293001L110.38638942307692,98.87706955396212L110.47587980769231,99.54402051499257L110.74435096153846,104.12004451201513L110.87858653846153,102.36950011677467L111.01282211538462,98.45521675061721L111.50501923076924,84.18003139232214L111.7287451923077,75.53291383334077L111.86298076923077,78.4698725191733L112.04196153846154,67.1248270195264L112.08670673076924,75.98948499468656L112.35517788461539,76.58486566560774L112.57890384615385,81.4412858014568L112.66839423076922,85.59240787900411L112.89212019230769,70.03970278937084L113.92125961538461,27.332671941702188L114.05549519230769,31.130817387654247L114.05549519230769,28.94194124799509L114.27922115384615,28.039241762803158L115.93479326923077,64.82474411840623L116.15851923076923,69.21008359858622L116.20326442307693,71.43693096511639L116.24800961538462,70.64367580872316L116.2927548076923,78.2052346449632L116.3375,73.6671727430362L116.38224519230769,76.01267970433601L116.9191875,69.69824483257074L117.05342307692308,82.38751703096698L117.09816826923077,79.51425035903948L117.27714903846153,95.17532565238383L117.5456201923077,97.500455709031L117.72460096153846,94.09660597718678L117.81409134615384,95.30759420165649L117.81409134615384,92.68194067621461L118.17205288461538,96.12961575526458L118.53001442307692,80.28253157717677L118.66425,82.92781002186955L118.75374038461538,86.08129117551904L118.93272115384616,77.35336327420978L118.97746634615385,79.4619234919548L119.20119230769231,80.4253212363101L119.29068269230768,78.0916510128058L119.42491826923077,64.669604385243L119.51440865384616,52.3959202660964L120.09609615384616,59.27398658234338L120.31982211538461,68.05653032809495L120.63303846153846,85.75912083301407L120.81201923076924,97.64314230955564L120.94625480769231,105.71000924500134L121.03574519230769,113.8097296994466L121.03574519230769,112.06441259338305L121.48319711538461,135.70061488610048L121.52794230769231,131.26696570469784L121.66217788461539,131.22463079369984L122.33335576923076,109.06537577188932L122.46759134615384,96.651961138386L122.55708173076923,93.51064995080232L122.82555288461539,85.58267471091105L122.87029807692308,84.25055332199598L123.22825961538462,65.6774888782547L123.27300480769232,67.34141446970976L123.67571153846154,67.36944641127037L123.72045673076923,77.35577667200795L123.76520192307692,82.12715209386528L123.98892788461539,89.67731390360456L124.16790865384615,91.6935101262652L124.21265384615384,91.18748387814715L124.21265384615384,87.51839814080068L124.79434134615384,99.28127193989661L124.83908653846154,91.56402285488753L125.1075576923077,79.19486569724977L125.15230288461538,71.65957539150348L125.19704807692307,71.15684897567216L125.24179326923077,68.4276509006436L125.51026442307692,58.34319253770204L125.91297115384614,43.027871864575616L126.36042307692307,27.294464593208744L126.53940384615385,24.00128023899518L126.71838461538462,28.946517572036157L126.807875,30.47848509458396L126.94211057692307,35.959314103309936L126.98685576923077,39.07038476421283L126.98685576923077,37.51586436537596L127.21058173076922,43.093998964245515L127.79226923076922,36.129352980393634L127.9265048076923,39.37109673894369L128.28446634615386,67.5548801572277L128.5081923076923,72.16848206250714L128.5976826923077,73.71621820445243L128.6424278846154,77.94859848899337L128.82140865384616,79.84232553584644L128.86615384615385,78.63432340194973L128.91089903846154,75.2232429346213L128.95564423076922,85.45903568944105L129.00038942307694,82.62621772767834L129.22411538461537,89.61906035118378L129.31360576923078,93.02206213245024L129.44784134615384,95.34306201751416L129.49258653846152,97.71916694927674L129.6268221153846,100.88434337973594L129.7610576923077,105.9129172955568L129.8058028846154,103.84990702603872L129.85054807692308,104.88098231508182L130.65596153846153,65.62106102865476L130.92443269230768,86.30093353072611L131.32713942307691,33.63112881550424L131.3718846153846,28.843646817023938L131.72984615384615,20.426633692704712L131.81933653846153,33.872150287719876L131.86408173076924,37.708555263739356L131.86408173076924,35.96033164400322L132.31153365384617,62.65894136623693L132.84847596153847,79.86692099462336L132.89322115384616,72.26091454590743L133.2064375,87.49171933268126L133.38541826923077,94.8042624795666L133.56439903846154,95.32137665989308L133.65388942307692,107.33964762871082L133.6986346153846,107.46406937379103L133.6986346153846,104.42769141793251L134.01185096153847,121.45499299856333L134.19083173076925,113.68768482506276L134.68302884615383,112.94979301415957L134.81726442307692,107.73857576205181L134.90675480769232,111.03052341296123L135.04099038461538,104.21035777124075L135.35420673076922,98.33855179651425L135.3989519230769,97.79646742848249L135.3989519230769,93.17153103305743L135.57793269230768,86.48818026024561L135.98063942307692,61.21479804183427L136.47283653846154,29.907269058319258L136.60707211538463,26.846313581099878L136.60707211538463,24.18509505161873L137.05452403846155,33.278005667833185L137.09926923076924,25.920560276508326L137.2335048076923,24.436511093378073L137.8151923076923,15.098879331350332L137.9046826923077,21.8072276871938L138.21789903846155,24.00049751538498L138.30738942307693,26.656310033798235L138.71009615384617,26.62542376013903L138.8890769230769,26.51772620953045L139.38127403846153,27.701950504688114L139.47076442307693,26.59564895400635L139.47076442307693,23.214455157059888L139.5602548076923,25.89613929986953L139.605,29.080916434067944L139.6944903846154,29.11410913329857L140.1866875,7.949674947445203L140.67888461538462,-9.305414858231188L141.57378846153847,-18.703420701393725L141.93175,13.013020055110644L142.24496634615386,178.72806929808397L145.19814903846154,181.0728796353707L145.2876394230769,173.79534510649168L145.421875,164.85709023934143L145.5561105769231,152.60923991295007L145.69034615384615,153.6841438105473L145.73509134615384,146.37267560408665L145.77983653846155,143.71895556679138L146.1377980769231,142.63038531495974L146.31677884615385,136.22868197881257L146.4957596153846,116.29043129178194L146.89846634615384,101.17084892094135L146.98795673076924,99.21753084269854L147.0327019230769,116.18236847015527L147.30117307692305,69.25270681278063L147.34591826923076,66.47357618957757L147.48015384615385,65.9328250607619L147.748625,55.4263808314617L147.88286057692306,53.2132480871219L148.10658653846156,66.7306904592193L148.3303125,59.748557125375825L148.9567451923077,69.2890682380933L149.0014903846154,87.156888435781L149.09098076923075,86.4034699975298L149.40419711538462,98.39266539330666L150.34384615384616,157.69854535368773L150.38859134615385,148.2685469874969L150.47808173076922,135.28540610166698L150.79129807692306,84.82878794303308L151.0597692307692,54.49510671633939L151.1940048076923,18.800739336930775L151.59671153846156,5.897352768824646L151.64145673076922,-0.7582087067457337L151.7756923076923,-10.313051488766291L151.8651826923077,32.29266100571704L151.99941826923077,163.4809212423288L152.26788942307692,180.64706755509744L152.76008653846156,194.82746247511645L152.89432211538463,176.90374928896244L153.5207548076923,157.66782606106537L153.56550000000001,146.5971450810249L153.69973557692308,133.41437836564504L154.10244230769231,103.27475389001461L154.1471875,101.22905094405779L154.32616826923078,105.30448796978364L154.50514903846155,83.88633979610526L154.72887500000002,61.67638320017319L154.7736201923077,83.07532268418714L154.99734615384617,81.88878870210968L155.08683653846157,73.79968132754931L155.08683653846157,71.49248085973355L155.53428846153847,90.45682182432367L155.62377884615387,91.23678698608508L155.66852403846153,89.3200338412936L155.75801442307693,88.12852173705514L155.98174038461536,92.92064854789238L156.3844471153846,87.31524711979122L156.83189903846153,104.46173467681957L156.92138942307693,102.50316582769155L157.14511538461537,115.8302367723905L157.27935096153846,105.36872087831681L157.27935096153846,92.62764509618283L157.32409615384617,94.62511922235673L157.36884134615386,81.1927626572406L157.45833173076923,80.87036565102349L157.95052884615387,-7.967656717850616L162.2013221153846,192.9708211990503L162.46979326923076,111.21288235966976L163.05148076923078,36.34942876879984L163.49893269230768,-21.4071880863263L163.67791346153848,-14.156067870213434L163.85689423076923,9.686663874296045L164.21485576923078,0.6043617720787324L164.48332692307693,-39.479211742144344L164.7070528846154,-25.704664232180676L164.88603365384617,1.9662382359688308L165.02026923076923,1.4121221015086576L165.55721153846153,118.0009432879778L167.66023557692307,142.63109498436634L168.01819711538462,135.0367922104322L168.19717788461537,128.1068391460639L168.7788653846154,142.78516108164422L169.2710625,134.81489528509286L169.45004326923078,142.1823699749433L169.8080048076923,135.7661497249053L169.85275,123.55279924617363L170.0317307692308,128.5098530966502L170.4344375,118.99003458710817L170.4791826923077,131.0475421859668L170.92663461538461,120.65846475294003L170.9713798076923,118.742461718275L171.016125,118.32030495726144L171.37408653846154,126.90369903032595L172.2689903846154,124.10829036510907L173.342875,122.95579768510964L173.52185576923077,140.67634713099554L173.61134615384614,141.27701444763403L173.65609134615383,135.01436456992076L173.79032692307695,135.1571855379985L174.23777884615384,135.33183204806767L174.64048557692308,128.8110294873898L174.77472115384614,128.8218832547848L175.2221730769231,132.28133897643824L175.44589903846153,121.83391993458454L177.05672596153846,128.48277607789407L177.4594326923077,122.31851455798517L177.54892307692307,118.10324004567588L177.72790384615385,137.75049496705716L177.996375,119.82257855511628L178.1306105769231,130.88826314944487L178.44382692307693,138.20893096740429L178.80178846153845,118.67949682199037L178.93602403846154,125.90106139458143L179.2939855769231,127.91745134133559L179.47296634615384,127.20233417841104L179.65194711538462,123.00892896377124L180.09939903846154,127.9479879984489L180.14414423076923,129.72864768459246L180.68108653846156,125.48523686757454L180.8600673076923,118.77581618038508L181.17328365384614,123.31809957164984L181.35226442307692,116.2079400505011L181.84446153846156,125.20459392620967L182.38140384615386,142.1751950085163L183.0973269230769,129.26160694269032L184.21595673076925,130.17494103266642L184.8871346153846,141.8210125748928L185.5135673076923,130.7794280405228L185.69254807692306,129.51149406433106L185.87152884615386,125.83406808078288L186.2294903846154,121.23170804335521L186.49796153846154,138.43450147555424L186.54270673076923,127.91445090082976L187.30337500000002,127.6353420977409L187.70608173076923,137.52107345874492L187.9745528846154,133.77826657203528L188.3325144230769,133.4010198826973L188.46675000000002,131.1884428721208L189.45114423076922,147.1434705064847L190.2118125,150.8842944933818L190.39079326923076,119.98990659942994L190.7487548076923,131.61412971661642L190.88299038461537,129.40323295272313L191.15146153846155,141.86299786934487L191.956875,140.0047389644843L192.04636538461537,134.13438494205474L192.85177884615385,132.10260664912371L193.03075961538462,133.95859565551464L193.1649951923077,114.60003007421126L193.97040865384616,130.93830527892482L194.1493894230769,122.60351466078025L194.46260576923078,134.31631078169897L195.04429326923076,135.78308786383042L195.3127644230769,134.06630886059543L195.93919711538462,126.11057041424971L196.47613942307692,131.52108997014852L196.78935576923078,130.02036877412064L197.1473173076923,140.163976255747L197.50527884615383,140.88668583769066L197.55002403846152,123.74737650843767L197.77375,134.23826801960286L197.95273076923078,136.0993186386732L198.53441826923077,133.7599404032414L198.71339903846152,123.93017378036794L199.33983173076922,119.10297638590518L199.87677403846152,119.00107620816965L199.92151923076923,130.54911422729492L200.23473557692307,130.71410192801403L200.59269711538462,151.04705925904787L200.86116826923077,129.19912472596536L201.12963942307692,130.09010944779104L201.44285576923076,132.13006981152756L201.53234615384616,120.62371965188247L201.93505288461537,125.90902430277605L202.02454326923078,118.24293011931272L202.06928846153846,119.79519105599476L202.91944711538463,129.75767107605935L203.0536826923077,140.0870867064366L203.45638942307693,124.4962029681756L204.03807692307691,134.01531180831103L204.53027403846153,136.1015728826706L204.66450961538462,125.08806725327784L205.11196153846154,142.687424993515L205.82788461538462,128.0749353317114L206.32008173076923,112.79273691269069L207.12549519230768,118.95398233762154L207.57294711538464,130.12620344253688L207.6176923076923,106.71969661139525L207.8414182692308,132.33262824553708L207.88616346153847,132.0773664217729L208.19937980769228,130.59312416681877L208.3783605769231,136.426429271698L208.42310576923077,144.13786402482253L208.46785096153843,126.32324163730328L209.45224519230769,132.00673344318685L209.49699038461537,130.08546528770373L209.67597115384615,130.71809381842613L209.76546153846155,133.51531318426132L210.1681682692308,127.34263477646388L210.34714903846154,123.38634785230343L210.48138461538463,134.15961473309076L211.6447596153846,120.50458390024991L211.6895048076923,133.377606010437L212.09221153846153,134.41050895910996L212.2264471153846,134.3624653839148L212.4054278846154,122.88043705591788L212.53966346153845,133.61101419100396L212.98711538461538,124.49114918273229L213.0318605769231,115.65711918243994L213.07660576923078,133.90980588381106L213.12135096153844,136.34043403772208L213.34507692307693,129.24713177405872L213.61354807692308,135.7007349037207L213.79252884615386,143.71135792961488L213.88201923076923,133.05100153868014L214.5979423076923,130.49791888502926L214.86641346153846,124.78039425657346L214.91115865384614,126.80849374853648L215.2691201923077,138.908842419661L215.53759134615385,123.58417341754986L216.11927884615383,136.15802290943952L216.4324951923077,125.26093437167314L216.8799471153846,120.34048328628907L218.0433221153846,131.0253754533254L219.07246153846154,148.4479681115884L219.3856778846154,139.7689147770405L219.65414903846155,123.21631419337713L219.78838461538462,125.90363916433775L221.17548557692305,131.01928586363792L221.22023076923077,134.9616924891105L221.93615384615384,134.06257265989598L221.98089903846156,129.33427500266293L222.42835096153846,126.51012472647886L222.56258653846155,155.37809859330838L222.65207692307692,126.52411982462957L223.14427403846156,136.269722786775L223.4127451923077,119.99615012476077L223.54698076923077,121.94472750700437L223.72596153846155,132.60379501306093L224.44188461538462,127.62292810128285L224.531375,132.52123332665516L224.5761201923077,108.0595420147364L224.75510096153846,129.93527106321775L224.88933653846155,118.97133532006006L224.97882692307692,118.92722623554559L225.60525961538463,124.95217860730796L225.78424038461537,124.44755669580056L226.27643750000001,144.65545827562994L226.41067307692308,125.70417770674595L227.30557692307693,123.27687873725708L227.66353846153845,122.25273446578245L228.11099038461538,136.01281724342934L228.15573557692306,141.01854345706792L228.6479326923077,107.71068471074103L229.67707211538462,134.50966960420976L229.90079807692308,130.62623337553097L230.66146634615387,148.66632712620955L231.69060576923076,136.4451415841396L231.78009615384616,133.82093022694954L232.63025480769232,135.52939670544404L232.675,139.2952052299793L232.85398076923076,127.53998548938678L233.03296153846154,122.76553844809533L233.838375,112.12310903691329L234.10684615384616,132.42943550164884L234.15159134615382,140.45672532228323L236.03088942307693,131.5314636670626L236.38885096153848,131.4405320561849L236.74681249999998,133.3826467504868L236.7915576923077,129.42957942944307L237.55222596153848,133.39068793104246L237.91018749999998,122.30975327170813L238.13391346153847,127.52636088041159L238.31289423076922,139.03578453476612L238.80509134615383,131.24192898548566L239.34203365384613,133.60492981947385L239.47626923076922,129.54823511059467L239.56575961538462,126.56533283178624L239.74474038461537,127.19760652780533L240.10270192307692,144.14905175429124L241.84776442307694,127.1673307785621L242.78741346153848,137.33303193862622L243.05588461538463,134.5656134697107L243.1006298076923,137.85256212582954L243.1901201923077,124.84862688275484L243.86129807692308,129.7913438457709L244.17451442307694,126.86126497433736L245.20365384615383,124.04092134397763L245.29314423076923,143.98790461741962L245.38263461538463,125.62908059450297L245.87483173076924,130.33812325092464L246.0090673076923,141.43874079997724L246.7697355769231,134.14974719744464L247.03820673076925,131.54778606341435L247.61989423076923,120.7654604613781L248.51479807692309,129.83796808215288L248.9175048076923,136.71641271481147L249.5439375,131.26515500407953L249.6334278846154,146.41593412894468L249.72291826923077,124.78015161225429L250.12562499999999,131.6134304835246L250.52833173076925,137.73997516173583L250.88629326923075,133.7854676292493L251.7811971153846,122.96145416773282L251.8706875,125.8869358424957L252.0049230769231,137.367461341161L252.09441346153847,138.2744344972647L252.36288461538462,121.88669116038542L252.89982692307694,128.31342077942995L252.9445721153846,141.95188396252118L253.25778846153844,135.58012763170095L253.39202403846156,136.04275381244145L253.61575,148.9447262598918L253.92896634615386,130.51044768095016L254.01845673076923,117.82115689286819L256.30046153846155,128.96831518778436L256.79265865384616,119.91363801085032L256.9268942307692,137.47467360313124L257.1506201923077,130.68605955013862L257.50858173076927,136.41946303156706L257.86654326923076,116.80731065502533L258.04552403846156,129.41707150615179L258.09026923076925,133.06254932100956L258.1797596153846,135.58326374429924L258.3139951923077,137.1141406719501L258.62721153846155,130.0458125096101L258.8061923076923,132.0239116173524L258.98517307692305,128.4692193049651L259.3878798076923,128.2424747113998L259.43262500000003,122.04246620421227L259.65635096153846,131.08167937168707L259.8353317307692,127.07089922978328L259.8800769230769,136.63397626418333L260.5512548076923,133.99486184945474L261.89361057692304,127.48750126224297L261.9383557692308,120.10968418442286L262.4752980769231,118.96040328030404L262.7885144230769,128.4580576662834L262.8780048076923,118.47243511814338" style="fill: none;" fill="none"></path></g></g></g></g></g></g><g transform="translate(39, 177)" clip-path="url(#clip_1)"><clipPath id="clip_1"><rect width="290" height="22"></rect></clipPath><g><g><line x1="0" y1="0" x2="0" y2="5" style="visibility: inherit;" fill="rgb(0, 0, 0)" stroke="rgb(204, 204, 204)" stroke-width="1px"></line><line x1="22.372596153846157" y1="0" x2="22.372596153846157" y2="5" style="visibility: inherit;" fill="rgb(0, 0, 0)" stroke="rgb(204, 204, 204)" stroke-width="1px"></line><line x1="44.745192307692314" y1="0" x2="44.745192307692314" y2="5" style="visibility: inherit;" fill="rgb(0, 0, 0)" stroke="rgb(204, 204, 204)" stroke-width="1px"></line><line x1="67.11778846153847" y1="0" x2="67.11778846153847" y2="5" style="visibility: inherit;" fill="rgb(0, 0, 0)" stroke="rgb(204, 204, 204)" stroke-width="1px"></line><line x1="89.49038461538463" y1="0" x2="89.49038461538463" y2="5" style="visibility: inherit;" fill="rgb(0, 0, 0)" stroke="rgb(204, 204, 204)" stroke-width="1px"></line><line x1="111.86298076923077" y1="0" x2="111.86298076923077" y2="5" style="visibility: inherit;" fill="rgb(0, 0, 0)" stroke="rgb(204, 204, 204)" stroke-width="1px"></line><line x1="134.23557692307693" y1="0" x2="134.23557692307693" y2="5" style="visibility: inherit;" fill="rgb(0, 0, 0)" stroke="rgb(204, 204, 204)" stroke-width="1px"></line><line x1="156.60817307692307" y1="0" x2="156.60817307692307" y2="5" style="visibility: inherit;" fill="rgb(0, 0, 0)" stroke="rgb(204, 204, 204)" stroke-width="1px"></line><line x1="178.98076923076925" y1="0" x2="178.98076923076925" y2="5" style="visibility: inherit;" fill="rgb(0, 0, 0)" stroke="rgb(204, 204, 204)" stroke-width="1px"></line><line x1="201.3533653846154" y1="0" x2="201.3533653846154" y2="5" style="visibility: inherit;" fill="rgb(0, 0, 0)" stroke="rgb(204, 204, 204)" stroke-width="1px"></line><line x1="223.72596153846155" y1="0" x2="223.72596153846155" y2="5" style="visibility: inherit;" fill="rgb(0, 0, 0)" stroke="rgb(204, 204, 204)" stroke-width="1px"></line><line x1="246.09855769230768" y1="0" x2="246.09855769230768" y2="5" style="visibility: inherit;" fill="rgb(0, 0, 0)" stroke="rgb(204, 204, 204)" stroke-width="1px"></line><line x1="268.47115384615387" y1="0" x2="268.47115384615387" y2="5" style="visibility: inherit;" fill="rgb(0, 0, 0)" stroke="rgb(204, 204, 204)" stroke-width="1px"></line><line x1="290.84375" y1="0" x2="290.84375" y2="5" style="visibility: inherit;" fill="rgb(0, 0, 0)" stroke="rgb(204, 204, 204)" stroke-width="1px"></line></g><g transform="translate(0, 8)"><text x="0" y="0" dx="0em" dy="0.95em" style="text-anchor: middle; visibility: hidden; font-family: &quot;Helvetica Neue&quot;, sans-serif; font-size: 12px; font-weight: 200;" fill="rgb(50, 49, 63)" stroke="none" stroke-width="1px">-500</text><text x="22.372596153846157" y="0" dx="0em" dy="0.95em" style="text-anchor: middle; visibility: inherit; font-family: &quot;Helvetica Neue&quot;, sans-serif; font-size: 12px; font-weight: 200;" fill="rgb(50, 49, 63)" stroke="none" stroke-width="1px">0</text><text x="44.745192307692314" y="0" dx="0em" dy="0.95em" style="text-anchor: middle; visibility: inherit; font-family: &quot;Helvetica Neue&quot;, sans-serif; font-size: 12px; font-weight: 200;" fill="rgb(50, 49, 63)" stroke="none" stroke-width="1px">500</text><text x="67.11778846153847" y="0" dx="0em" dy="0.95em" style="text-anchor: middle; visibility: inherit; font-family: &quot;Helvetica Neue&quot;, sans-serif; font-size: 12px; font-weight: 200;" fill="rgb(50, 49, 63)" stroke="none" stroke-width="1px">1k</text><text x="89.49038461538463" y="0" dx="0em" dy="0.95em" style="text-anchor: middle; visibility: inherit; font-family: &quot;Helvetica Neue&quot;, sans-serif; font-size: 12px; font-weight: 200;" fill="rgb(50, 49, 63)" stroke="none" stroke-width="1px">1.5k</text><text x="111.86298076923077" y="0" dx="0em" dy="0.95em" style="text-anchor: middle; visibility: inherit; font-family: &quot;Helvetica Neue&quot;, sans-serif; font-size: 12px; font-weight: 200;" fill="rgb(50, 49, 63)" stroke="none" stroke-width="1px">2k</text><text x="134.23557692307693" y="0" dx="0em" dy="0.95em" style="text-anchor: middle; visibility: inherit; font-family: &quot;Helvetica Neue&quot;, sans-serif; font-size: 12px; font-weight: 200;" fill="rgb(50, 49, 63)" stroke="none" stroke-width="1px">2.5k</text><text x="156.60817307692307" y="0" dx="0em" dy="0.95em" style="text-anchor: middle; visibility: inherit; font-family: &quot;Helvetica Neue&quot;, sans-serif; font-size: 12px; font-weight: 200;" fill="rgb(50, 49, 63)" stroke="none" stroke-width="1px">3k</text><text x="178.98076923076925" y="0" dx="0em" dy="0.95em" style="text-anchor: middle; visibility: inherit; font-family: &quot;Helvetica Neue&quot;, sans-serif; font-size: 12px; font-weight: 200;" fill="rgb(50, 49, 63)" stroke="none" stroke-width="1px">3.5k</text><text x="201.3533653846154" y="0" dx="0em" dy="0.95em" style="text-anchor: middle; visibility: inherit; font-family: &quot;Helvetica Neue&quot;, sans-serif; font-size: 12px; font-weight: 200;" fill="rgb(50, 49, 63)" stroke="none" stroke-width="1px">4k</text><text x="223.72596153846155" y="0" dx="0em" dy="0.95em" style="text-anchor: middle; visibility: inherit; font-family: &quot;Helvetica Neue&quot;, sans-serif; font-size: 12px; font-weight: 200;" fill="rgb(50, 49, 63)" stroke="none" stroke-width="1px">4.5k</text><text x="246.09855769230768" y="0" dx="0em" dy="0.95em" style="text-anchor: middle; visibility: inherit; font-family: &quot;Helvetica Neue&quot;, sans-serif; font-size: 12px; font-weight: 200;" fill="rgb(50, 49, 63)" stroke="none" stroke-width="1px">5k</text><text x="268.47115384615387" y="0" dx="0em" dy="0.95em" style="text-anchor: middle; visibility: inherit; font-family: &quot;Helvetica Neue&quot;, sans-serif; font-size: 12px; font-weight: 200;" fill="rgb(50, 49, 63)" stroke="none" stroke-width="1px">5.5k</text><text x="290.84375" y="0" dx="0em" dy="0.95em" style="text-anchor: middle; visibility: hidden; font-family: &quot;Helvetica Neue&quot;, sans-serif; font-size: 12px; font-weight: 200;" fill="rgb(50, 49, 63)" stroke="none" stroke-width="1px">6k</text></g><line x1="0" y1="0" x2="290.84375" y2="0" fill="rgb(0, 0, 0)" stroke="rgb(204, 204, 204)" stroke-width="1px"></line></g></g></g></g></svg>