<svg viewBox="0 0 330 200" xmlns="http://www.w3.org/2000/svg"><g><g><g><g><g><line x1="58.59375" y1="177.828125" x2="53.59375" y2="177.828125" style="visibility: inherit;" fill="rgb(0, 0, 0)" stroke="rgb(204, 204, 204)" stroke-width="1px"></line><line x1="58.59375" y1="152.42410714285714" x2="53.59375" y2="152.42410714285714" style="visibility: inherit;" fill="rgb(0, 0, 0)" stroke="rgb(204, 204, 204)" stroke-width="1px"></line><line x1="58.59375" y1="127.02008928571428" x2="53.59375" y2="127.02008928571428" style="visibility: inherit;" fill="rgb(0, 0, 0)" stroke="rgb(204, 204, 204)" stroke-width="1px"></line><line x1="58.59375" y1="101.61607142857142" x2="53.59375" y2="101.61607142857142" style="visibility: inherit;" fill="rgb(0, 0, 0)" stroke="rgb(204, 204, 204)" stroke-width="1px"></line><line x1="58.59375" y1="76.21205357142856" x2="53.59375" y2="76.21205357142856" style="visibility: inherit;" fill="rgb(0, 0, 0)" stroke="rgb(204, 204, 204)" stroke-width="1px"></line><line x1="58.59375" y1="50.80803571428571" x2="53.59375" y2="50.80803571428571" style="visibility: inherit;" fill="rgb(0, 0, 0)" stroke="rgb(204, 204, 204)" stroke-width="1px"></line><line x1="58.59375" y1="25.404017857142833" x2="53.59375" y2="25.404017857142833" style="visibility: inherit;" fill="rgb(0, 0, 0)" stroke="rgb(204, 204, 204)" stroke-width="1px"></line><line x1="58.59375" y1="0" x2="53.59375" y2="0" style="visibility: inherit;" fill="rgb(0, 0, 0)" stroke="rgb(204, 204, 204)" stroke-width="1px"></line></g><g transform="translate(48.59375, 0)"><text x="0" y="177.828125" dx="0em" dy="0.3em" style="text-anchor: end; visibility: hidden; font-family: &quot;Helvetica Neue&quot;, sans-serif; font-size: 12px; font-weight: 200;" fill="rgb(50, 49, 63)" stroke="none" stroke-width="1px">-0.05</text><text x="0" y="152.42410714285714" dx="0em" dy="0.3em" style="text-anchor: end; visibility: inherit; font-family: &quot;Helvetica Neue&quot;, sans-serif; font-size: 12px; font-weight: 200;" fill="rgb(50, 49, 63)" stroke="none" stroke-width="1px">0</text><text x="0" y="127.02008928571428" dx="0em" dy="0.3em" style="text-anchor: end; visibility: inherit; font-family: &quot;Helvetica Neue&quot;, sans-serif; font-size: 12px; font-weight: 200;" fill="rgb(50, 49, 63)" stroke="none" stroke-width="1px">0.05</text><text x="0" y="101.61607142857142" dx="0em" dy="0.3em" style="text-anchor: end; visibility: inherit; font-family: &quot;Helvetica Neue&quot;, sans-serif; font-size: 12px; font-weight: 200;" fill="rgb(50, 49, 63)" stroke="none" stroke-width="1px">0.1</text><text x="0" y="76.21205357142856" dx="0em" dy="0.3em" style="text-anchor: end; visibility: inherit; font-family: &quot;Helvetica Neue&quot;, sans-serif; font-size: 12px; font-weight: 200;" fill="rgb(50, 49, 63)" stroke="none" stroke-width="1px">0.15</text><text x="0" y="50.80803571428571" dx="0em" dy="0.3em" style="text-anchor: end; visibility: inherit; font-family: &quot;Helvetica Neue&quot;, sans-serif; font-size: 12px; font-weight: 200;" fill="rgb(50, 49, 63)" stroke="none" stroke-width="1px">0.2</text><text x="0" y="25.404017857142833" dx="0em" dy="0.3em" style="text-anchor: end; visibility: inherit; font-family: &quot;Helvetica Neue&quot;, sans-serif; font-size: 12px; font-weight: 200;" fill="rgb(50, 49, 63)" stroke="none" stroke-width="1px">0.25</text><text x="0" y="0" dx="0em" dy="0.3em" style="text-anchor: end; visibility: hidden; font-family: &quot;Helvetica Neue&quot;, sans-serif; font-size: 12px; font-weight: 200;" fill="rgb(50, 49, 63)" stroke="none" stroke-width="1px">0.3</text></g><line x1="58.59375" y1="0" x2="58.59375" y2="177.828125" fill="rgb(0, 0, 0)" stroke="rgb(204, 204, 204)" stroke-width="1px"></line></g></g><g transform="translate(58, 0)" clip-path="url(#clip_0)"><clipPath id="clip_0"><rect width="271" height="177"></rect></clipPath><g><g><g><line x1="0" y1="0" x2="0" y2="177.828125" fill="rgb(0, 0, 0)" stroke="rgb(60, 60, 60)" stroke-width="1px" opacity="0.25"></line><line x1="33.92578125" y1="0" x2="33.92578125" y2="177.828125" fill="rgb(0, 0, 0)" stroke="rgb(60, 60, 60)" stroke-width="1px" opacity="0.25"></line><line x1="67.8515625" y1="0" x2="67.8515625" y2="177.828125" fill="rgb(0, 0, 0)" stroke="rgb(60, 60, 60)" stroke-width="1px" opacity="0.25"></line><line x1="101.77734375" y1="0" x2="101.77734375" y2="177.828125" fill="rgb(0, 0, 0)" stroke="rgb(60, 60, 60)" stroke-width="1px" opacity="0.25"></line><line x1="135.703125" y1="0" x2="135.703125" y2="177.828125" fill="rgb(0, 0, 0)" stroke="rgb(60, 60, 60)" stroke-width="1px" opacity="0.25"></line><line x1="169.62890625" y1="0" x2="169.62890625" y2="177.828125" fill="rgb(0, 0, 0)" stroke="rgb(60, 60, 60)" stroke-width="1px" opacity="0.25"></line><line x1="203.5546875" y1="0" x2="203.5546875" y2="177.828125" fill="rgb(0, 0, 0)" stroke="rgb(60, 60, 60)" stroke-width="1px" opacity="0.25"></line><line x1="237.48046875" y1="0" x2="237.48046875" y2="177.828125" fill="rgb(0, 0, 0)" stroke="rgb(60, 60, 60)" stroke-width="1px" opacity="0.25"></line><line x1="271.40625" y1="0" x2="271.40625" y2="177.828125" fill="rgb(0, 0, 0)" stroke="rgb(60, 60, 60)" stroke-width="1px" opacity="0.25"></line></g><g><line x1="0" y1="177.828125" x2="271.40625" y2="177.828125" fill="rgb(0, 0, 0)" stroke="rgb(60, 60, 60)" stroke-width="1px" opacity="0.25"></line><line x1="0" y1="152.42410714285714" x2="271.40625" y2="152.42410714285714" fill="rgb(0, 0, 0)" stroke="rgb(60, 60, 60)" stroke-width="1px" opacity="0.25"></line><line x1="0" y1="127.02008928571428" x2="271.40625" y2="127.02008928571428" fill="rgb(0, 0, 0)" stroke="rgb(60, 60, 60)" stroke-width="1px" opacity="0.25"></line><line x1="0" y1="101.61607142857142" x2="271.40625" y2="101.61607142857142" fill="rgb(0, 0, 0)" stroke="rgb(60, 60, 60)" stroke-width="1px" opacity="0.25"></line><line x1="0" y1="76.21205357142856" x2="271.40625" y2="76.21205357142856" fill="rgb(0, 0, 0)" stroke="rgb(60, 60, 60)" stroke-width="1px" opacity="0.25"></line><line x1="0" y1="50.80803571428571" x2="271.40625" y2="50.80803571428571" fill="rgb(0, 0, 0)" stroke="rgb(60, 60, 60)" stroke-width="1px" opacity="0.25"></line><line x1="0" y1="25.404017857142833" x2="271.40625" y2="25.404017857142833" fill="rgb(0, 0, 0)" stroke="rgb(60, 60, 60)" stroke-width="1px" opacity="0.25"></line><line x1="0" y1="0" x2="271.40625" y2="0" fill="rgb(0, 0, 0)" stroke="rgb(60, 60, 60)" stroke-width="1px" opacity="0.25"></line></g></g></g><g><g><line x1="0" y1="152.42410714285714" x2="271.40625" y2="152.42410714285714" fill="rgb(0, 0, 0)" stroke="rgb(153, 153, 153)" stroke-width="1.5px"></line></g></g><g><g><line x1="33.92578125" y1="0" x2="33.92578125" y2="177.828125" fill="rgb(0, 0, 0)" stroke="rgb(153, 153, 153)" stroke-width="1.5px"></line></g></g><g><g><g><g><g><path stroke="rgb(255, 112, 67)" stroke-width="2px" d="M34.231113281249996,-3.89346198631182L34.332890625,1.2156295192294806L34.604296875,4.0868067080073445L34.638222656249994,4.326673456602691L34.6721484375,3.907334989886806L34.875703125,7.998246293981936L35.113183593749994,1.6542352689794768L35.18103515625,3.475153979906054L35.52029296875,3.40572746403285L35.65599609375,2.754841618854414L35.72384765625,2.2578322788725984L36.063105468749995,5.513665165791508L36.538066406249996,8.401664754927225L36.60591796875,10.327587797486814L36.74162109375,10.773421703768008L37.01302734375,8.306296438833158L37.046953125,6.121876250465732L37.7933203125,6.148172598833781L37.89509765625,9.528343117240041L38.132578125,10.280446569923214L38.23435546875,9.487920134352208L38.3361328125,9.486589547389514L38.43791015625,8.94337716539468L38.5396875,8.943769637441989L38.878945312499994,10.696584640127924L39.1503515625,7.406798486182993L39.184277343750004,9.393330009630404L39.31998046875,11.032650849173223L39.659238281250005,10.762032490171379L39.794941406250004,11.037252587755802L40.06634765625,10.361241749838769L40.13419921875,11.964236565715936L41.0501953125,14.49848511361381L41.08412109375,14.48201467650182L41.355527343750005,17.088907942413897L41.42337890625,14.978898209212957L41.4573046875,16.228882898730888L41.7287109375,18.108071325685074L41.76263671875,15.561347891188007L41.7965625,15.717791886204509L41.966191406250005,16.89232889774283L42.2715234375,16.861556942950386L42.64470703124999,19.00762086975675L42.91611328125,18.424468262990104L43.017890625,22.76062717598819L43.458925781249995,24.630180795871325L43.6285546875,23.789452491280173L43.73033203125,24.492775743601385L43.86603515625,24.428972752202725L43.86603515625,24.390690957364058L44.4427734375,24.007391339240286L44.47669921875,26.09589015159915L44.68025390625,26.394442388466814L44.78203125,27.803356453478756L44.81595703125,28.220205181605593L44.8498828125,28.056714410610937L44.88380859375,26.806779025192128L44.917734375,27.389914209543917L45.121289062500004,26.63754133576103L45.29091796875,28.249036004166726L46.03728515625,30.06345637926222L46.105136718749996,30.916078532611778L46.17298828125,30.635136015905033L46.30869140625,31.805926613784408L46.44439453125,32.22559128446758L46.681875,31.93331774064785L46.749726562499994,34.66646649351901L46.88542968749999,34.39961773540574L46.953281249999996,33.395131408808055L46.98720703125,33.696924266960934L47.0211328125,34.62132557187567L47.1568359375,34.88752990901776L47.224687499999995,35.08281798124921L47.25861328125,35.19238349654785L47.360390624999994,34.53422134072406L47.39431640625,35.94684881107574L47.46216796875,36.656975533030646L47.53001953125,36.87931024113814L47.631796875,38.297098777704264L47.631796875,39.14777189964394L48.03890625,37.937490233306676L48.1067578125,37.92928098767331L48.649570312499996,39.044922128771304L48.785273437499995,40.57181500553506L48.887050781250004,39.894766675034504L49.12453125,42.393985820237674L49.1923828125,42.36066796280164L49.29416015625,41.6372144206554L49.3280859375,42.672404431780166L49.42986328125,43.61286571121511L49.4637890625,45.43930177186138L49.701269531250006,46.05554439111219L49.7351953125,46.91571126448099L49.90482421875,45.96787619875491L49.93875,45.904378056744434L50.10837890625,46.095970812677336L50.176230468750006,46.54004334101063L50.24408203125,46.52712651178061L50.37978515625,48.1368148857195L50.4137109375,48.89846866651834L50.51548828125,47.655834853773655L50.51548828125,46.91025456612681L50.617265625,47.98812418289708L50.92259765625,49.457866783709704L50.9565234375,50.99814293941425L51.12615234374999,49.82822199964009L51.6350390625,51.4247363853662L51.83859375,52.57795831880367L51.940371093749995,52.056295526825764L52.00822265625,54.72755997294814L52.0421484375,55.83656004760087L52.11,53.60073655980308L52.21177734375,54.89587816390596L52.27962890625,54.442629235601785L52.4492578125,55.5398899036488L52.551035156249995,56.194303334290524L52.6528125,57.588950363226715L52.82244140625,58.4296512668257L53.5348828125,61.17813970061901L53.602734375000004,62.98980002862157L53.602734375000004,64.07679622542314L53.636660156249995,65.3922911693583L53.941992187500006,64.5196292305164L54.145546875,66.23400985666008L54.38302734375,67.56085942214109L54.824062500000004,70.63157538744183L55.027617187500006,70.65397596014958L55.19724609375,72.96080160668829L55.26509765625,74.48465136340207L55.2990234375,75.0664919094798L55.63828125,76.73353250775718L55.74005859375,78.1050017432361L55.87576171875,78.62440480114667L55.9775390625,78.13711971512993L56.2489453125,79.63061131849965L56.28287109375,78.68057856662406L56.48642578125,80.39383846456309L56.5203515625,80.7764737297203L56.588203125,81.48627655654072L56.588203125,81.91215825263299L57.402421875,83.34689882640154L57.4702734375,84.48967462418018L57.50419921875,85.73090823619515L57.538125,86.49293448161026L57.91130859375,87.68725549571565L58.11486328125,87.5046207436493L58.1487890625,86.49051586916401L58.2844921875,87.85023557304802L58.352343749999996,87.74467066983345L58.759453125,88.29986776263668L58.793378906250005,88.5806583824876L58.9630078125,89.21068891003183L59.0987109375,89.42764204271235L59.1665625,88.59584730422344L59.20048828125,88.70470862783782L59.74330078125,88.72917843131896L59.811152343749995,89.75333941941238L60.2521875,91.23251847194003L60.52359375,91.53576675663211L60.52359375,91.71771572744737L60.795,92.97608830078265L60.862851562500005,90.84623861637007L61.1342578125,91.8186533612622L61.1342578125,92.40210220819746L61.507441406249995,90.78270939092954L61.609218750000004,90.80834534664908L61.6770703125,90.9416677602591L61.744921875,91.08695794550314L61.8127734375,91.63426183827572L61.880625,92.46880707255428L62.084179687500004,92.62578716248697L62.2198828125,92.3522281360673L62.32166015625,92.53398084605872L62.45736328125,92.31837945139277L62.593066406249996,92.07655311243114L62.66091796875,91.17777309420569L62.694843750000004,91.00965153694796L62.72876953125,91.80203699673457L62.79662109375,91.73450431891783L62.898398437500006,91.7448405481275L63.068027343749996,92.84013183732775L63.23765625,93.23429354039867L63.305507812500004,93.37651359997159L63.33943359375,93.73363348044668L63.37335937500001,93.51816859852757L63.47513671875,92.95385771065345L63.509062500000006,93.48877989459632L63.54298828125,94.18189871353032L63.88224609375,94.69398665410694L64.01794921875,93.63490182600546L64.11972656249999,93.16030715374107L64.2554296875,93.25631498632745L64.2554296875,93.31391968587927L64.42505859375,92.95719873990906L64.5268359375,93.53257787624985L64.90001953125,93.182785695408L64.96787109375,93.74369746206484L65.1375,94.2860436414729L65.2053515625,93.82401415868298L65.34105468749999,93.2330789824061L65.57853515625,94.0575189593062L65.6124609375,93.97102184662543L65.71423828125,93.42182630653168L65.7481640625,92.99646785422937L66.32490234375,93.41634863531245L66.4266796875,93.90659815642732L66.73201171875,94.50939279420737L66.901640625,93.86909029089121L66.93556640625,94.30944684550715L66.9694921875,94.89017044499634L67.27482421875,95.61462677418936L67.5123046875,95.6979673917949L67.54623046875,95.42590953355192L67.8515625,94.6937620630412L67.9194140625,95.00527173522406L68.05511718749999,95.42949164968776L68.36044921875,96.32929884604839L68.46222656249999,96.0056393806833L68.8693359375,95.40463335500559L69.072890625,95.33994480666182L69.1407421875,96.11485079340777L69.1407421875,96.57979438545533L69.17466796875,96.13223345728481L69.20859375,97.16385346443512L69.27644531249999,96.68957187403518L69.344296875,97.10724833272181L69.48,97.16683516992924L69.71748046875001,96.71545329312157L70.29421875,97.77762670239717L70.3620703125,97.75688475890043L70.4977734375,97.73112828292938L70.6334765625,98.55770900560549L70.83703125000001,98.65759486632531L71.00666015624999,99.00204257133936L71.0405859375,99.57192931012348L71.07451171875,99.01665090388146L71.17628906249999,99.22139190850521L71.21021484375001,100.05075347524142L71.34591796875,99.829482458071L71.41376953125,100.7713079303665L71.75302734375,102.13914439790922L71.85480468749999,101.59893102709255L71.85480468749999,101.27480300460253L71.88873046875001,101.01564270400189L71.95658203125,101.04043141585038L72.02443359375,101.80833775290006L72.02443359375,102.26908155512984L72.16013671875,102.27538289598077L72.1940625,103.02700462734074L72.29583984374999,103.10258994539302L72.601171875,103.68619593581178L72.77080078125,104.77688839737695L72.872578125,106.03480392826783L72.97435546874999,105.81586219777046L73.04220703125,105.90117578763783L73.24576171874999,106.57120432997975L73.27968750000001,106.9884406540578L73.686796875,107.29856447843248L73.85642578125,108.48589124426053L74.4331640625,108.20452859578485L74.46708984374999,110.26280625900152L74.50101562500001,110.94858403748373L74.73849609375,111.42244926771218L75.24738281249999,111.21496767014466L75.3830859375,112.20360009117013L75.48486328125,113.70646243777794L75.5187890625,114.71483991484212L75.55271484375,114.55563882931648L75.6544921875,114.44617847618207L76.0616015625,114.29486531273997L76.09552734374999,114.78889075776962L76.26515625,114.5026519272708L76.29908203125001,113.44231396300776L76.36693359374999,113.79731998389941L76.6044140625,114.82633066454903L76.70619140625,113.22145545436281L76.8758203125,114.15927060194706L77.11330078125,114.34832238199797L77.18115234375,114.13430673505357L77.21507812499999,114.89170134693146L77.65611328125,113.3429230130428L77.85966796875,114.14865071820998L78.029296875,115.61456224980907L78.13107421875,115.12242494508897L78.40248046875,115.5922559395353L78.5042578125,114.18357578480405L78.53818359374999,114.96108314159119L78.7756640625,114.7089842675739L78.87744140625,114.6592246273185L78.94529296875,116.0292716507139L79.35240234375,116.00458638634026L79.4541796875,116.17075967915159L79.55595703125,116.37114264396992L79.75951171875,115.33769932111218L79.89521484375,114.97455023887183L80.1326953125,114.3361348424741L80.33624999999999,114.17250341600686L80.4041015625,112.87463348336352L80.64158203125,113.45802299111345L80.64158203125,113.80805669576337L80.6755078125,114.20233203650298L81.2183203125,113.60138099790936L81.25224609375,113.52880013230914L81.25224609375,113.485251612949L81.55757812499999,113.88248454022947L81.82898437499999,114.1411796530558L81.8968359375,113.67090446288722L82.643203125,114.58886197182525L82.77890624999999,114.1372256449277L82.94853515624999,115.45791067949281L83.0503125,112.98527891547504L83.1181640625,113.40023848765314L83.38957031250001,112.31499125244683L83.42349609375,113.54832373269095L83.457421875,111.80786639269769L84.23771484375,111.81181486512173L84.37341796875,112.93316072972087L84.78052734375001,113.30925974194835L84.91623046875,113.8819262670512L84.98408203125,113.93029704649955L85.05193359375001,114.3194516955203L85.085859375,114.03948921134922L85.25548828125,113.34914690940697L85.32333984375,114.40408404305477L85.45904296875,115.84616379291398L85.49296875,115.75951898043525L85.90007812500001,113.00697455038232L85.96792968749999,113.9551250575225L86.00185546875001,114.23116351620583L86.47681640625,113.31579799615366L86.88392578125,114.6783453437238L87.12140625,113.23105378443935L87.257109375,112.35516540107092L87.35888671875,112.68419999168707L87.42673828125,111.82873868405159L87.528515625,112.3133043979931L87.79992187500001,111.56184897002721L88.10525390625,112.24997472740924L88.13917968749999,112.68966661885935L88.24095703125,113.26970069453665L88.30880859375,113.92572253113354L88.71591796875,113.22759472166432L88.74984375,113.63195539697007L88.885546875,115.8545227733897L88.91947265625,115.83378618956488L88.9533984375,114.568351897709L88.98732421875,113.0758200037085L88.98732421875,112.1803008673082L89.428359375,113.34680525106454L89.5640625,112.99663162720701L89.97117187500001,112.81895701989849L90.106875,113.53270961293131L90.34435546875,112.72853314289756L90.37828125,113.98091294416054L90.6496875,115.02749879325104L91.15857421874999,113.55585199075315L91.19250000000001,115.0131015099833L91.36212890625,114.89455257770629L91.63353515625,113.63201177328972L91.7353125,112.04217231587833L92.10849609374999,114.04915458234942L92.14242187500001,113.75859331997128L92.24419921875,112.96948633689603L92.41382812500001,111.10995456169647L92.44775390625,113.86402300559769L92.58345703125,113.87282392760943L92.68523437500001,114.16474508843532L92.78701171875,113.5258697728968L92.8887890625,113.78971106388393L92.956640625,114.76613521204789L93.228046875,113.92041139672679L93.4316015625,114.3944163049701L93.49945312499999,114.18983189309263L93.60123046875,112.97000127429396L93.87263671875,113.40539923931331L93.90656249999999,113.78235450243415L94.00833984375,112.61481186358053L94.07619140625,111.69950948411262L94.34759765625,110.3568280193663L94.6529296875,109.57823090901178L94.9921875,110.31685836433952L95.29751953125,111.14771481328211L95.33144531250001,112.48697016627534L95.36537109375,110.79279409950257L95.39929687499999,108.15431648076598L95.4671484375,108.74916068448951L95.7385546875,110.40715954480665L95.942109375,109.17096455023473L96.17958984375,109.42572424590524L96.6884765625,111.0318265331831L96.72240234375,110.1700093024177L97.12951171875,107.84840896725584L97.19736328125,109.2172873941379L97.2312890625,109.3350259441933L97.33306640625001,110.75235844042989L97.3669921875,109.31722223489169L97.40091796875,107.84059198842583L97.57054687499999,109.05926957201572L97.67232421875,111.43969911253456L97.9098046875,109.55178263225152L98.0455078125,110.6709244939927L98.2490625,109.81921781788091L98.28298828125,109.6074628266511L98.35083984375,108.57342978038724L98.55439453125,110.69527303584204L98.62224609375001,109.00239928794078L98.69009765624999,110.14386736574998L98.72402343750001,109.14465779715361L98.89365234375,109.3534379158276L98.96150390624999,107.60387817447317L99.470390625,107.28582525541167L99.5382421875,105.81926548754825L99.67394531250001,106.52877512985964L100.4203125,106.99903314711919L100.556015625,106.91627242634628L100.65779296875,108.63978664575053L100.72564453125,109.42968843940004L100.92919921875,109.67276588561639L101.0309765625,110.96317301477922L101.13275390625,110.88197749390262L101.5059375,108.8899058485571L101.67556640625,109.13500382627166L101.77734375,107.35916811616362L101.913046875,109.28717147270524L101.94697265625,109.31206848756993L102.15052734375,108.56759578684562L102.32015625,108.63065765621695L102.38800781249999,111.59838661094396L102.55763671875,111.70774822160429L103.3379296875,110.11428780056433L103.43970703125,108.90076769574989L103.43970703125,108.17265563286122L103.60933593749999,108.77783486010767L104.86458984375001,110.22895232534086L105.03421875000001,111.3463007127289L105.06814453125,111.20554508052496L105.10207031249999,110.44474663583347L105.13599609375001,109.98579942715837L105.169921875,111.40117792927045L105.20384765625,110.09496008785685L105.61095703125,112.300131005336L105.712734375,112.36339401334727L105.74666015625,113.6663578023646L105.88236328125,112.46477967445072L106.08591796875,111.83645322795051L106.22162109374999,111.63628533945753L106.28947265625,111.12556254495054L106.28947265625,110.81912886824638L106.56087890625,111.12963747682105L106.83228515625,111.4514618004601L106.93406250000001,110.71547057439544L107.00191406249999,112.34750869266058L107.1376171875,111.65971523889948L107.17154296874999,111.31692543622283L107.341171875,109.71285840193609L107.4090234375,109.92372739577719L107.51080078125,109.34719328351404L107.57865234375,110.40702951108607L108.0196875,110.79797952448585L108.18931640625,111.70578595050897L108.42679687500001,109.89380921974019L108.5625,108.1931188247073L108.66427734375,107.95869117695544L108.73212890625,110.80902883152167L108.73212890625,112.5192314242614L109.07138671874999,112.15563163607929L109.10531250000001,112.04220274470515L109.20708984375,110.91462207781491L109.7159765625,110.03164919471573L109.81775390625,109.4091344981935L110.08916015625,109.34710366883937L110.1230859375,109.62420228002405L110.3944921875,109.64115854876003L110.42841796875,109.50466108721267L110.73374999999999,111.07774863618286L110.76767578125,110.92380952108647L110.8016015625,112.07744582971822L110.97123046875,113.19225829642052L111.14085937499999,112.55509595587401L111.58189453125,111.77947970445824L111.6158203125,110.42951882572991L111.819375,109.97888558296788L111.85330078125,112.61342684009799L111.8872265625,111.57167970063763L111.92115234375,111.2101835417065L112.12470703125001,112.72576698406415L112.4300390625,110.61316049659433L112.769296875,109.50487503495539L112.905,111.47917415833436L113.040703125,111.96442456374358L113.1085546875,111.25615602891023L113.21033203125,112.0830788570303L113.24425781250001,114.0657232290175L113.24425781250001,115.2553098522098L113.41388671874999,115.22837851067034L113.854921875,111.66458981997204L113.95669921875,110.99674770240487L114.22810546875,112.01337970897045L114.397734375,112.07533299711146L114.46558593750001,112.40441347057912L114.49951171875,111.73351493713433L114.63521484375,113.51363240230634L114.73699218750001,111.67384867814172L114.77091796875,111.2632416372354L114.940546875,111.6260511645269L115.0083984375,112.57682952448845L115.11017578124999,111.60781501103158L115.1441015625,112.04777034482767L115.24587890625,111.99434201608159L115.34765625,111.77375683565154L115.38158203124999,111.5043072609482L115.41550781250001,113.99679096332528L116.026171875,114.56933846359965L116.2297265625,113.26641041215925L116.53505859375001,114.46903055170746L116.568984375,113.50600950659769L116.90824218750001,113.69677928319165L116.94216796875,111.99600760603195L117.28142578125,112.38107719344195L117.68853515625,114.2345769819456L117.7224609375,115.19687881450346L117.95994140625,114.21707438789919L118.09564453125,114.22543120906656L118.23134765625,114.35238513743778L118.29919921875,112.72744749972549L118.333125,113.25638886300604L118.333125,113.57375368097439L119.0794921875,114.11022725931926L119.18126953125,114.30519743199847L119.24912109375,115.4091637241414L119.35089843749999,114.20851582767597L119.58837890625,113.06984972597165L119.62230468749999,112.1429248417484L119.62230468749999,111.58676991121447L119.7580078125,113.22544633744685L120.06333984375,114.9585342582121L120.4365234375,115.524606738941L120.53830078125,114.47496345822347L120.87755859375001,113.55479681444726L120.911484375,114.49652681838651L121.01326171875,113.33837479864977L121.454296875,111.74205912576336L121.5221484375,112.96400693456704L121.75962890625,113.48796198516241L121.82748046875001,111.75533538074392L122.1328125,111.54412990847032L122.268515625,113.79276300753044L122.64169921875,112.29377378498909L122.70955078125,113.00433404489523L122.77740234375001,113.26929006392119L122.811328125,114.23274770077892L123.25236328125,114.15684494240713L123.625546875,113.2421372890327L123.86302734374999,113.58390307522438L124.13443359374999,112.90878076206474L124.3040625,111.94549545205558L124.57546875,111.36333751007253L124.81294921874999,111.42028526729374L124.84687500000001,113.05443369638681L125.18613281249999,111.83415333858437L125.5932421875,112.35809368383704L125.62716796875,112.94441532583554L125.8646484375,114.05819487055764L126.16998046875,114.86003904054367L126.23783203125001,115.94979538204936L126.30568359374999,115.66137016423359L126.9502734375,113.58993539368866L127.05205078125,113.70636353463173L127.11990234375,112.81082868644526L127.2216796875,113.73320775698446L127.32345703125,113.79256619580794L127.42523437499999,113.65184085127707L127.45916015625001,110.95921566126513L127.4930859375,113.85518733745866L127.9001953125,114.96087303005362L128.0358984375,113.0076422120941L128.34123046874998,112.61431919734976L128.40908203125,112.43645088640952L128.4430078125,112.16189171075968L128.6465625,113.94953212665746L128.68048828125,112.947729451957L128.782265625,112.69644563082231L128.9858203125,111.51245967274998L129.08759765625,111.69289469092674L129.2572265625,112.44610388286377L129.42685546875,111.68596278542049L129.90181640625,111.02978753196562L129.9357421875,111.96086130884636L130.00359375,111.77482629242235L130.24107421875,112.87275832738949L130.953515625,112.83980489297663L130.98744140625,112.87125358981653L131.29277343750002,112.98765075213726L131.59810546875,113.09134044795087L131.9034375,114.3968012321459L131.93736328125,113.68723648339952L132.039140625,114.0464833388983L132.1069921875,114.05373542117165L132.41232421875,114.241705825552L132.44625,113.53329335956681L132.71765625,113.61703742538168L132.78550781250001,112.77150433195801L132.88728515625,114.68359794763131L133.36224609375,115.45129781066355L133.396171875,113.39075927261186L133.49794921875,114.27542098666149L133.80328125,112.9619467072801L133.83720703125,111.57048776408872L133.97291015624998,112.0277285737126L134.10861328125,113.40925121402147L134.2782421875,114.45579737077254L134.31216796875,115.03325837767076L134.481796875,112.95864983608607L134.5496484375,114.1078021260272L134.5496484375,114.79729349999188L134.88890625,113.72545310785294L134.9567578125,114.77012484446972L134.99068359375,115.69111979679288L135.05853515625,115.42648471432682L135.2281640625,115.246249001033L135.53349609375002,113.63727290540066L135.87275390624998,113.84261324156725L135.94060546875,113.67591979691139L136.11023437499998,113.60970970261522L136.21201171874998,115.30149115478694L136.21201171874998,116.31656002608997L136.27986328125002,116.46452216543805L136.34771484375,116.69701798678838L136.7208984375,113.27138904217084L137.02623046875,113.15724764597299L137.09408203125003,113.29016772663863L137.16193359375,111.59167656167821L137.43333984375002,110.91504487389014L137.46726562499998,112.23310231969786L137.63689453125002,112.30358308682885L137.738671875,112.88716382680009L137.77259765624999,114.13938935093259L137.87437500000001,114.57630761958252L137.90830078125,113.71499523255305L137.9422265625,114.74623697443224L138.14578125,114.881889433449L138.17970703125002,116.58501061593834L138.21363281249998,114.97043236074057L138.6207421875,113.59002357250064L138.7564453125,113.27560909411035L138.824296875,112.8811400888978L139.095703125,112.3560767510721L139.26533203125,114.42125873304326L139.26533203125,115.66036792222596L139.2992578125,116.01462563475226L139.40103515625,115.25158889542351L139.638515625,115.07851622681729L139.7063671875,114.81526397382905L139.8420703125,114.17434420011709L139.94384765625,112.83442459032442L140.14740234375,114.33703467366188L140.5884375,114.8222691035757L140.995546875,115.14727630191979L141.0633984375,115.49537658353901L141.0633984375,115.70423675251052L141.1991015625,113.09037116251189L141.4705078125,114.21510347426798L141.67406250000002,112.17713394710512L141.84369140625,114.74889169704159L141.97939453125,115.7293917065741L142.081171875,115.2024701408503L142.48828125,113.09467334053305L144.35419921874998,118.34262743283091L144.48990234375,118.9018746599099L144.9309375,121.60675892947964L145.30412109375,123.00346914775997L145.43982421875,121.96217559940351L145.71123046875,123.62996483537896L145.74515625,123.54922807770939L145.880859375,124.66662267305449L146.2201171875,125.07801280005944L146.55937500000002,125.16330244892023L146.59330078124998,125.33419171783841L146.6272265625,123.18889309266922L146.8986328125,123.6166924468411L147.5771484375,123.5493413738396L148.39136718749998,124.13565705883315L148.59492187499998,125.00125076592738L148.62884765625,125.8222283103757L148.730625,127.02585773721529L149.0698828125,127.32344609738097L149.37521484374997,125.55304830684773L149.4769921875,125.74804929796474L149.81625000000003,125.5287473938138L149.98587890625,125.2913223346548L151.20720703125,124.54239184719825L151.5125390625,124.70331569910051L151.580390625,125.77763500754057L151.71609375000003,125.5566235008772L151.9196484375,125.40213417228247L152.02142578125,124.90991276135205L152.25890625000002,125.20673181587978L152.5303125,125.8807153458386L152.63208984374998,126.20454031664548L152.90349609375,126.85339207700335L153.03919921875,126.49461690638009L153.17490234374998,126.32974202418683L153.9551953125,126.02780939847487L154.0908984375,126.68735193754141L154.32837890625,125.211353753216L154.46408203125,124.63446942081501L154.83726562500001,126.24173076915797L155.244375,126.4763632668274L155.7871875,126.07736544029538L156.63533203125,126.26624008273504L157.14421875,126.13906412848975L157.6191796875,126.43173592175833L157.8905859375,126.81346745508104L158.1619921875,126.79633042328459L158.365546875,127.87938886525083L158.39947265625,127.7297942961107L158.97621093749999,126.4237569304892L159.28154296875002,127.59460456749154L159.75650390624997,126.49660744817393L159.85828125,125.0013536288669L160.6046484375,126.81482829295896L161.18138671875002,126.20612461623071L161.58849609375,126.81183383435436L161.6902734375,126.11066271457224L161.893828125,126.7543560621958L162.5044921875,128.1687363734341L162.57234375,128.32650439795404L163.1830078125,128.07633853924239L163.31871093750001,127.6543239866974L163.42048828125002,127.70913935932282L164.03115234375,127.13374442207066L164.16685546875001,127.36622678771305L164.4043359375,127.87571717039734L164.84537109375,127.22634195134208L165.04892578125,127.82190062766408L165.52388671875,128.28797338147223L165.93099609375,127.83316918344354L166.4398828125,128.35852916813738L166.7112890625,128.4567977607387L166.74521484375,128.863360356569L167.49158203125,127.70041314202933L167.62728515625,128.58684816472763L168.10224609375,127.80061391698248L168.50935546875,128.68056488584864L168.54328125,127.3928855197507L168.78076171875,126.29692103245712L169.25572265625,127.1382115794336L169.45927734375002,128.10697916406548L169.69675781249998,126.39035421707872L169.764609375,127.96680367794144L170.06994140625,127.64113587950376L170.13779296874998,128.51116314550313L170.17171875,128.53477081168168L170.81630859375,128.41765146319085L170.9180859375,127.95694555317021L171.22341796875,126.71769229650826L171.664453125,128.10953579662083L172.13941406249998,128.5203834528954L172.47867187499997,127.83474981883853L173.021484375,128.47344664961446L173.39466796874999,127.29729272080846L174.00533203125,127.34443132810452L174.34458984375001,126.7506912609992L174.37851562499998,127.2643301915848L174.5820703125,126.99520608365168L174.81955078124997,128.48250489261102L174.95525390625,128.40100385427215L174.9891796875,128.7891740568717L175.02310546875,127.91517285073593L175.76947265625,127.38511357114555L175.80339843750002,128.7984265214074L175.93910156249999,128.2156763669355L176.006953125,128.9621053614033L176.31228515625,128.91054712335182L176.44798828125,129.3117247665402L177.4318359375,129.69906093481205L177.46576171875,130.0951322392528L177.77109375,129.55399979805378L177.87287109375,129.35380250654092L178.1103515625,127.85982173490709L178.449609375,127.64826919955424L178.48353515625,128.8195908961876L178.51746093749998,129.60359335235538L178.55138671875,128.77216204541494L178.721015625,129.7527529181757L178.9245703125,128.6317102443972L179.06027343749997,128.725313223838L179.128125,129.44365551672976L179.6709375,129.55878264608614L179.87449218749998,129.35757316284918L179.90841796875,128.50364883549815L180.17982421874999,128.77020119813L180.8244140625,128.47844524202253L181.40115234375003,129.80746974697394L182.28322265625002,129.65354522672223L183.063515625,129.1621124174433L183.50455078125,129.90356720236986L183.606328125,129.3929882898012L184.65802734374998,129.3483427177087L184.691953125,129.28975874198554L185.234765625,129.2336715482689L185.26869140625,129.31309344157995L185.60794921875,129.04907477173248L185.7097265625,127.9153795850639L185.777578125,128.2118077213396L186.15076171875,128.8434756387296L186.35431640625,129.56104866997765L186.45609375,128.86879538738958L186.591796875,128.23932151208254L187.2024609375,129.36411627299617L187.23638671875,129.47119936590255L187.37208984375,130.07371613481345L187.4738671875,128.83485424425743L187.54171874999997,128.06951007946967L188.0166796875,129.59104572000618L188.1523828125,128.7686824300141L188.52556640625002,129.5677326824671L188.62734375,130.39938560485706L189.305859375,128.93763549603545L189.577265625,128.49535997589692L189.9165234375,129.08253023145932L189.95044921875,129.56522219939444L190.32363281250002,129.08309787479106L191.10392578125,130.3202698406264L191.2735546875,129.69652009680266L191.85029296875,129.02665650874016L193.34302734374998,129.30213578850663L193.376953125,128.64666019402932L193.51265625,129.08250999743782L193.648359375,128.80677202120663L194.2590234375,129.62273739185594L194.462578125,130.01943952752788L194.49650390624998,129.84443922449051L195.92138671875,129.93227587472364L196.19279296875,130.4282531145597L196.46419921875003,128.88883629845938L196.498125,129.09547177367574L197.07486328125,129.97848314778744L197.5158984375,130.74921922984478L197.6516015625,129.451170873842L198.02478515625,129.87755672933827L198.43189453125,129.2003980642367L198.533671875,130.48613827453158L198.6015234375,130.41081668248523L198.73722656249998,128.05483575293283L199.0086328125,129.63125872426707L201.04417968750002,129.7705669017833L201.24773437500002,130.3732732087728L201.28166015624998,130.57289376379387L201.34951171875,130.07381662320026L201.8583984375,130.0695638908171L202.09587890625,129.79074919606214L202.876171875,129.51827438133722L203.011875,129.49858222591928L203.38505859375002,129.03322769548805L203.48683593750002,129.51035887991674L204.06357421874998,129.07425335142614L204.26712890625,128.14144623723857L204.7081640625,128.7036581225741L205.38667968750002,130.1805657197617L205.69201171875,129.93576679440122L206.23482421875,129.48621980854813L206.30267578125,130.3744430837089L206.6080078125,130.62509581567457L206.91333984375,130.3998892606433L207.18474609375,130.31473081541765L207.86326171874998,129.23178286060497L207.93111328125,129.01165928897518L208.032890625,130.35449902443017L208.1007421875,130.97898219946387L208.30429687499998,129.45423706899885L208.71140625,129.77971985601954L208.74533203124997,129.26893849542205L208.9828125,128.84079861344196L209.08458984375,128.87168185478316L209.25421875,129.0102361754715L209.49169921875,130.0183306713496L209.55955078124998,129.36329937208154L211.289765625,129.75120067708662L211.66294921875,129.6997553665538L211.7647265625,130.31124859780562L211.93435546875,129.87542455115567L212.47716796875,129.6871430845659L212.61287109375002,128.7678050033319L212.646796875,128.93703661263874L212.7146484375,130.0449483081379L213.05390625,130.2902262882111L213.189609375,130.66984358516675L213.3253125,130.87602150755708L213.63064453125,130.68978188316308L213.6645703125,130.82025897655058L213.83419921875,131.1424173329374L213.96990234375002,130.03349950256586L214.00382812499998,130.1759655783951L214.51271484375002,131.86770588971808L215.5644140625,130.95732232742412L215.9715234375,130.06696204745583L216.20900390625002,129.24277555164093L216.3786328125,129.71181109439775L216.85359375000002,129.86659100126698L217.15892578125,130.2515044808417L217.66781250000003,130.33804431390192L218.04099609374998,130.59396089558194L218.2784765625,131.28476173126123L218.31240234375,131.71117259445802L218.4141796875,131.013254901921L218.617734375,131.1070820825541L219.9069140625,130.2367614696448L220.00869140625002,130.21424290729834L220.07654296875,130.3023200345969L220.1783203125,130.0904270554221L220.21224609375,130.90694518193033L220.34794921875002,130.09502933398397L221.43357421875,131.19699977579165L221.90853515625003,130.88627623065L222.82453124999998,129.57787932502865L223.02808593749998,129.86069259975295L223.1637890625,130.47492471175542L223.774453125,129.67297571441216L223.94408203125,129.86249433966387L224.45296875,131.13482852806118L224.55474609375,131.4019356815304L224.6565234375,131.12419261687995L225.36896484375,130.41609626476244L225.7421484375,130.21340377615493L226.18318359375,130.7705045815823L226.217109375,131.31362513441854L226.5563671875,130.14045333696103L226.65814453125,130.28587421331883L226.79384765625,130.95843598189668L227.3705859375,130.11192203004893L227.4384375,130.12257934895214L227.54021484375,130.50256713706736L228.25265625,131.03585835866045L228.3205078125,131.27362049761118L228.49013671875002,131.3858015286993L228.8633203125,130.89283361700174L229.1347265625,130.31992596500706L229.2704296875,129.67856056330845L229.84716796875,129.81846903886557L230.05072265625,129.81216492717448L230.38998046875003,129.55398365906188L230.45783203125,130.60362503460723L230.66138671875,131.08431894960404L230.83101562500002,130.9555299865789L231.00064453125,131.11933652900143L231.102421875,129.81951651348908L231.61130859375,131.24880831472655L231.645234375,129.03233996414974L232.56123046875,130.1639973988751L232.83263671875002,130.1220233951878L233.17189453125002,130.91554436096422L233.545078125,130.74763999083711L234.25751953125,128.65521439560268L234.46107421874999,128.7068740969432L234.8342578125,130.0946620094056L234.86818359375,129.9288903648698L235.95380859375,130.97188027671666L235.987734375,129.62762307558364L236.1912890625,130.18083548747256L237.95542968750001,130.59025123253508L238.02328125,130.5799755674348L238.26076171875,130.3466328521182L238.3625390625,130.2596733454542L238.60001953125,129.981468843973L239.516015625,130.27132651992838L240.22845703125,131.36107847507128L240.56771484375,131.03403480470803L241.11052734375,130.9905245015403L241.17837890625,131.9022546870105L241.24623046874999,132.29974157193428L241.415859375,132.52138522774845L242.501484375,131.7835678183323L242.67111328124997,131.32739722979284L243.044296875,130.9373166882698L243.07822265625,131.321422820328L243.11214843750003,131.51549882039583L243.21392578125,132.03394340446525L243.75673828125,132.33998680483253L244.672734375,132.74370523139285L244.77451171875,132.22145357329282L245.45302734375002,131.99916035690194L245.65658203125,132.44694325459204L245.6905078125,132.33687813895656L246.572578125,132.33858123555163L246.81005859375,132.13956095283854L246.87791015625,132.1950355614738L247.0475390625,132.33681257468132L248.16708984375,132.72820168591167L248.26886718749998,130.95471796329224L248.91345703125,131.19369306709433L248.9473828125,131.206598220029L249.25271484375003,131.5031320798022L249.4901953125,131.84845601008072L249.59197265625,132.27364180561167L249.829453125,131.90226392603833L249.93123046875,131.86178972713515L250.5758203125,130.9467058703274L250.67759765625001,131.24056309933732L251.01685546875,131.16861492085297" style="fill: none;" fill="none"></path></g></g></g></g><g opacity="0.20000000298023224"><g><g><g><path stroke="rgb(255, 112, 67)" stroke-width="2px" d="M34.231113281249996,-3.89346198631182L34.332890625,4.281084422554272L34.604296875,6.843136809234096L34.638222656249994,4.6087567529507965L34.6721484375,3.3598466877426176L34.875703125,13.657449355615029L35.113183593749994,-7.417802000950502L35.18103515625,6.130070941256633L35.52029296875,3.303336838526377L35.65599609375,1.788351995604387L35.72384765625,1.516826107033637L36.063105468749995,10.379696397376904L36.538066406249996,12.724234318892854L36.60591796875,13.212699277592549L36.74162109375,11.441648502168903L37.01302734375,4.607348549312775L37.046953125,2.8461703413299233L37.7933203125,6.187610444745843L37.89509765625,14.598083959892392L38.132578125,11.408533003713387L38.23435546875,8.299173945028855L38.3361328125,9.48459371072903L38.43791015625,8.12856931718332L38.5396875,8.944358340863658L38.878945312499994,13.325794685898074L39.1503515625,2.47213328470076L39.184277343750004,12.37312221181179L39.31998046875,13.491629591743845L39.659238281250005,10.356105200946331L39.794941406250004,11.450082582022446L40.06634765625,9.347225717135814L40.13419921875,14.368728470589417L41.0501953125,18.299857632922283L41.08412109375,14.457309022013618L41.355527343750005,20.999247729246093L41.42337890625,11.813883663820377L41.4573046875,18.103859913668458L41.7287109375,20.92685394867189L41.76263671875,11.741262753627126L41.7965625,15.952457878206445L41.966191406250005,18.654134412695242L42.2715234375,16.815399010798757L42.64470703124999,22.22671675841724L42.91611328125,17.54973935309266L43.017890625,29.264865544358543L43.458925781249995,27.434511225404492L43.6285546875,22.528360034472172L43.73033203125,25.547760622043683L43.86603515625,24.333268265106824L43.86603515625,24.333268265106824L44.4427734375,23.43244191205926L44.47669921875,29.22863837012224L44.68025390625,26.842270743767074L44.78203125,29.916727550993016L44.81595703125,28.845478273795095L44.8498828125,27.81147825411921L44.88380859375,24.931875947064583L44.917734375,28.264616986071417L45.121289062500004,25.50898202508688L45.29091796875,30.66627800677503L46.03728515625,32.78508694190532L46.105136718749996,32.19501176263606L46.17298828125,30.213722240845016L46.30869140625,33.56211251060344L46.44439453125,32.85508829049235L46.681875,31.49490742491824L46.749726562499994,38.766189622825806L46.88542968749999,33.99934459823584L46.953281249999996,31.888401918911484L46.98720703125,34.149613554190324L47.0211328125,36.00792752924775L47.1568359375,35.28683641473097L47.224687499999995,35.37575008959644L47.25861328125,35.35673176949575L47.360390624999994,33.54697810698832L47.39431640625,38.065790016603245L47.46216796875,37.72216561596309L47.53001953125,37.21281230329936L47.631796875,40.42378158255346L47.631796875,40.42378158255346L48.03890625,36.12206773380083L48.1067578125,37.9169671192233L48.649570312499996,40.718383840418284L48.785273437499995,42.862154320680645L48.887050781250004,38.87919417928373L49.12453125,46.14281453804247L49.1923828125,42.310691176647595L49.29416015625,40.552034107436015L49.3280859375,44.22518944846732L49.42986328125,45.02355763036758L49.4637890625,48.178955862830804L49.701269531250006,46.9799083199884L49.7351953125,48.20596157453423L49.90482421875,44.54612360016577L49.93875,45.80913084372878L50.10837890625,46.383359946576604L50.176230468750006,47.20615213351056L50.24408203125,46.50775126793556L50.37978515625,50.551347446627915L50.4137109375,50.040949337716626L50.51548828125,45.79188413465661L50.51548828125,45.79188413465661L50.617265625,49.60492860805243L50.92259765625,51.662480684928596L50.9565234375,53.308557172971106L51.12615234374999,48.07334058997884L51.6350390625,53.8195079639554L51.83859375,54.30779121895985L51.940371093749995,51.2738013388589L52.00822265625,58.73445664213173L52.0421484375,57.500060159579974L52.11,50.24700132810645L52.21177734375,56.838590570060276L52.27962890625,53.76275584314551L52.4492578125,57.18578090571933L52.551035156249995,57.17592348025315L52.6528125,59.680920906631016L52.82244140625,59.690702622224165L53.5348828125,65.30087235130902L53.602734375000004,65.70729052062545L53.602734375000004,65.70729052062545L53.636660156249995,67.36553358526103L53.941992187500006,63.21063632225351L54.145546875,68.80558079587561L54.38302734375,69.55113377036261L54.824062500000004,75.23764933539289L55.027617187500006,70.68757681921124L55.19724609375,76.42104007649634L55.26509765625,76.77042599847275L55.2990234375,75.93925272859633L55.63828125,79.2340934051733L55.74005859375,80.16220559645444L55.87576171875,79.40350938801255L55.9775390625,77.40619208610482L56.2489453125,81.87084872355419L56.28287109375,77.25552943881068L56.48642578125,82.96372831147164L56.5203515625,81.35042662745607L56.588203125,82.55098079677138L56.588203125,82.55098079677138L57.402421875,85.49900968705438L57.4702734375,86.20383832084812L57.50419921875,87.59275865421765L57.538125,87.63597384973295L57.91130859375,89.4787370168737L58.11486328125,87.2306686155498L58.1487890625,84.9693585574361L58.2844921875,89.88981512887403L58.352343749999996,87.5863233150116L58.759453125,89.13266340184158L58.793378906250005,89.00184431226391L58.9630078125,90.15573470134821L59.0987109375,89.75307174173317L59.1665625,87.34815519649003L59.20048828125,88.86800061325941L59.74330078125,88.76588313654065L59.811152343749995,91.28958090155253L60.2521875,93.45128705073148L60.52359375,91.99063918367028L60.52359375,91.99063918367028L60.795,94.86364716078553L60.862851562500005,87.65146408975124L61.1342578125,93.27727547860039L61.1342578125,93.27727547860039L61.507441406249995,88.35362016502768L61.609218750000004,90.84679928022835L61.6770703125,91.14165138067412L61.744921875,91.30489322336923L61.8127734375,92.45521767743465L61.880625,93.72062492397215L62.084179687500004,92.86125729738602L62.2198828125,91.94188959643778L62.32166015625,92.80660991104585L62.45736328125,91.99497735939387L62.593066406249996,91.71381360398871L62.66091796875,89.82960306686748L62.694843750000004,90.75746920106134L62.72876953125,92.99061518641454L62.79662109375,91.63320530219269L62.898398437500006,91.76034489194197L63.068027343749996,94.48306877112815L63.23765625,93.82553609500506L63.305507812500004,93.58984368933099L63.33943359375,94.26931330115933L63.37335937500001,93.1949712756489L63.47513671875,92.1073913788423L63.509062500000006,94.29116317051064L63.54298828125,95.22157694193136L63.88224609375,95.46211856497186L64.01794921875,92.04627458385325L64.11972656249999,92.4484151453445L64.2554296875,93.40032673520702L64.2554296875,93.40032673520702L64.42505859375,92.42211732095373L64.5268359375,94.39564658076104L64.90001953125,92.65809742414525L64.96787109375,94.58506511205009L65.1375,95.09956291058499L65.2053515625,93.1309699344981L65.34105468749999,92.34667621799079L65.57853515625,95.29417892465634L65.6124609375,93.84127617760429L65.71423828125,92.59803299639108L65.7481640625,92.35843017577592L66.32490234375,94.04616980693702L66.4266796875,94.64197243809966L66.73201171875,95.41358475087743L66.901640625,92.90863653591701L66.93556640625,94.96998167743108L66.9694921875,95.76125584423009L67.27482421875,96.70131126797891L67.5123046875,95.82297831820324L67.54623046875,95.01782274618745L67.8515625,93.59554085727515L67.9194140625,95.47253624349833L68.05511718749999,96.06582152138331L68.36044921875,97.67900964058936L68.46222656249999,95.52015018263566L68.8693359375,94.50312431648906L69.072890625,95.24291198414618L69.1407421875,97.27720977352666L69.1407421875,97.27720977352666L69.17466796875,95.46089206502906L69.20859375,98.7112834751606L69.27644531249999,95.97814948843526L69.344296875,97.73376302075174L69.48,97.2562154257404L69.71748046875001,96.03838047791007L70.29421875,99.37088681631056L70.3620703125,97.7257718436553L70.4977734375,97.69249356897282L70.6334765625,99.79758008961964L70.83703125000001,98.80742365740505L71.00666015624999,99.51871412886041L71.0405859375,100.42675941829968L71.07451171875,98.1837332945184L71.17628906249999,99.52850341544088L71.21021484375001,101.2947958253457L71.34591796875,99.49757593231541L71.41376953125,102.18404613880973L71.75302734375,104.19089909922332L71.85480468749999,100.78861097086754L71.85480468749999,100.78861097086754L71.88873046875001,100.62690225310091L71.95658203125,101.0776144836231L72.02443359375,102.96019725847457L72.02443359375,102.96019725847457L72.16013671875,102.28483490725714L72.1940625,104.15443722438067L72.29583984374999,103.21596792247146L72.601171875,104.56160492143992L72.77080078125,106.41292708972469L72.872578125,107.92167722460415L72.97435546874999,105.48744960202437L73.04220703125,106.02914617243889L73.24576171874999,107.57624714349264L73.27968750000001,107.61429514017489L73.686796875,107.76375021499449L73.85642578125,110.2668813930026L74.4331640625,107.78248462307134L74.46708984374999,113.35022275382653L74.50101562500001,111.97725070520703L74.73849609375,112.13324711305488L75.24738281249999,110.90374527379338L75.3830859375,113.68654872270834L75.48486328125,115.96075595768966L75.5187890625,116.2274061304384L75.55271484375,114.316837201028L75.6544921875,114.28198794648051L76.0616015625,114.06789556757681L76.09552734374999,115.52992892531412L76.26515625,114.07329368152257L76.29908203125001,111.85180701661322L76.36693359374999,114.32982901523687L76.6044140625,116.36984668552343L76.70619140625,110.81414263908353L76.8758203125,115.56599332332345L77.11330078125,114.63190005207434L77.18115234375,113.813283264637L77.21507812499999,116.02779326474825L77.65611328125,111.01975551220987L77.85966796875,115.35724227596074L78.029296875,117.81342954720769L78.13107421875,114.3842189880088L78.40248046875,116.2970024312048L78.5042578125,112.07055555270719L78.53818359374999,116.12734417677191L78.7756640625,114.33083595654793L78.87744140625,114.5845851669354L78.94529296875,118.084342185807L79.35240234375,115.9675584897798L79.4541796875,116.42001961836857L79.55595703125,116.67171709119741L79.75951171875,113.78753433682557L79.89521484375,114.4298266155113L80.1326953125,113.37851174787752L80.33624999999999,113.92705627630599L80.4041015625,110.92782858439855L80.64158203125,114.3331072527383L80.64158203125,114.3331072527383L80.6755078125,114.79374504761238L81.2183203125,112.69995444001896L81.25224609375,113.41992883390881L81.25224609375,113.41992883390881L81.55757812499999,114.47833393115017L81.82898437499999,114.52922232229528L81.8968359375,112.96549167763442L82.643203125,115.96579823523227L82.77890624999999,113.45977115458143L82.94853515624999,117.43893823134047L83.0503125,109.27633126944836L83.1181640625,114.0226778459203L83.38957031250001,110.68712039963741L83.42349609375,115.39832245305712L83.457421875,109.19718038270783L84.23771484375,111.81773757375777L84.37341796875,114.61517952661961L84.78052734375001,113.87340826028958L84.91623046875,114.74092605470545L84.98408203125,114.00285321567208L85.05193359375001,114.90318366905142L85.085859375,113.61954548509259L85.25548828125,112.31363345649359L85.32333984375,115.98648974352649L85.45904296875,118.00928341770279L85.49296875,115.62955176171712L85.90007812500001,108.87815790530294L85.96792968749999,115.37735081823277L86.00185546875001,114.64522120423082L86.47681640625,111.9427497160754L86.88392578125,116.72216636507905L87.12140625,111.06011644551265L87.257109375,111.04133282601833L87.35888671875,113.17775187761124L87.42673828125,110.54554672259837L87.528515625,113.04015296890535L87.79992187500001,110.43466582807847L88.10525390625,113.28216336348228L88.13917968749999,113.34920445603453L88.24095703125,114.13975180805262L88.30880859375,114.90975528602887L88.71591796875,112.1804030074605L88.74984375,114.23849640992869L88.885546875,119.18837383801915L88.91947265625,115.80268131382763L88.9533984375,112.6702004599252L88.98732421875,110.83702216270778L88.98732421875,110.83702216270778L89.428359375,115.096561826699L89.5640625,112.47137119142073L89.97117187500001,112.55244510893577L90.106875,114.60333850248051L90.34435546875,111.52226843784698L90.37828125,115.85948264605499L90.6496875,116.59737756688679L91.15857421874999,111.34838178700635L91.19250000000001,117.1989757888285L91.36212890625,114.71672917929078L91.63353515625,111.73820056666487L91.7353125,109.6574131297613L92.10849609374999,117.05962798205603L92.14242187500001,113.32275142640408L92.24419921875,111.78582586228315L92.41382812500001,108.32065689889714L92.44775390625,117.99512567144951L92.58345703125,113.88602531062705L92.68523437500001,114.6026268296742L92.78701171875,112.56755679958898L92.8887890625,114.18547300036464L92.956640625,116.23077143429379L93.228046875,112.65182567374515L93.4316015625,115.10542366733509L93.49945312499999,113.88295527527642L93.60123046875,111.14025534609598L93.87263671875,114.05849618684235L93.90656249999999,114.34778739711535L94.00833984375,110.86349790530014L94.07619140625,110.32655591491077L94.34759765625,108.34280582224685L94.6529296875,108.41033524348002L94.9921875,111.42479954733115L95.29751953125,112.39399948669598L95.33144531250001,114.49585319576519L95.36537109375,108.25152999934342L95.39929687499999,104.19660005266113L95.4671484375,109.64142699007478L95.7385546875,112.89415783528239L95.942109375,107.3166720583769L96.17958984375,109.807863789411L96.6884765625,113.44097996409982L96.72240234375,108.87728345626965L97.12951171875,104.36600846451309L97.19736328125,111.27060503446098L97.2312890625,109.51163376927641L97.33306640625001,112.87835718478475L97.3669921875,107.16451792658441L97.40091796875,105.62564661872707L97.57054687499999,110.88728594740056L97.67232421875,115.01034342331279L97.9098046875,106.719907911827L98.0455078125,112.34963728660452L98.2490625,108.5416578037132L98.28298828125,109.28983033980641L98.35083984375,107.02238021099143L98.55439453125,113.87803791902427L98.62224609375001,106.46308866608888L98.69009765624999,111.85606948246382L98.72402343750001,107.64584344425904L98.89365234375,109.66660809383862L98.96150390624999,104.9795385624415L99.470390625,106.80874587681943L99.5382421875,103.61942583575312L99.67394531250001,107.59303959332672L100.4203125,107.70442017300853L100.556015625,106.79213134518692L100.65779296875,111.22505797485688L100.72564453125,110.61454112987433L100.92919921875,110.03738205494093L101.0309765625,112.89878370852344L101.13275390625,110.76018421258777L101.5059375,105.90179838053882L101.67556640625,109.50265079284353L101.77734375,104.69541455100158L101.913046875,112.1791765075177L101.94697265625,109.34941400986698L102.15052734375,107.45088673575916L102.32015625,108.725250460274L102.38800781249999,116.04998004303447L102.55763671875,111.87179063759478L103.3379296875,107.72409716900438L103.43970703125,107.08048753852823L103.43970703125,107.08048753852823L103.60933593749999,109.68560370097735L104.86458984375001,112.40562852319064L105.03421875000001,113.02232329381097L105.06814453125,110.99441163221907L105.10207031249999,109.30354896879622L105.13599609375001,109.29737861414574L105.169921875,113.52424568243858L105.20384765625,108.13563332573645L105.61095703125,115.60788738155472L105.712734375,112.45828852536422L105.74666015625,115.62080348589058L105.88236328125,110.66241248257991L106.08591796875,110.89396355820023L106.22162109374999,111.33603350671807L106.28947265625,110.3594783531901L106.28947265625,110.3594783531901L106.56087890625,111.59540038968304L106.83228515625,111.93419828591868L106.93406250000001,109.61148373529848L107.00191406249999,114.79556587005831L107.1376171875,110.6280250582578L107.17154296874999,110.8027407322079L107.341171875,107.30675785050595L107.4090234375,110.24003088653886L107.51080078125,108.48239211511932L107.57865234375,111.99678385244417L108.0196875,111.38440454458552L108.18931640625,113.06749558954367L108.42679687500001,107.17584412358701L108.5625,105.642083232158L108.66427734375,107.60704970532763L108.73212890625,115.08453531337103L108.73212890625,115.08453531337103L109.07138671874999,111.6102319538061L109.10531250000001,111.87205940764397L109.20708984375,109.22325107747955L109.7159765625,108.70718987006694L109.81775390625,108.47536245341014L110.08916015625,109.25405742480818L110.1230859375,110.03985019680113L110.3944921875,109.666592951864L110.42841796875,109.29991489489164L110.73374999999999,113.4373799596381L110.76767578125,110.6929008484419L110.8016015625,113.80790029266583L110.97123046875,114.86447699647397L111.14085937499999,111.59935244505428L111.58189453125,110.61605532733458L111.6158203125,108.40457750763744L111.819375,109.30293571882483L111.85330078125,116.56523872579314L111.8872265625,110.00905899144709L111.92115234375,110.6679393033098L112.12470703125001,114.99914214760065L112.4300390625,107.44425076538963L112.769296875,107.84244684249695L112.905,114.44062284340283L113.040703125,112.69230017185744L113.1085546875,110.19375322666019L113.21033203125,113.32346309921039L113.24425781250001,117.03968978699828L113.24425781250001,117.03968978699828L113.41388671874999,115.18798149836115L113.854921875,106.31890678392458L113.95669921875,109.99498452605414L114.22810546875,113.53832771881882L114.397734375,112.16826292932299L114.46558593750001,112.89803418078061L114.49951171875,110.72716713696718L114.63521484375,116.18380860006437L114.73699218750001,108.91417309189481L114.77091796875,110.64733107587588L114.940546875,112.17026545546416L115.0083984375,114.0029970644308L115.11017578124999,110.15429324084627L115.1441015625,112.70770334552176L115.24587890625,111.91419952296253L115.34765625,111.44287906500645L115.38158203124999,111.10013289889321L115.41550781250001,117.7355165168909L116.026171875,115.4281597140112L116.2297265625,111.31201833499861L116.53505859375001,116.2729607610298L116.568984375,112.06147793893304L116.90824218750001,113.98293394808259L116.94216796875,109.44485009029242L117.28142578125,112.95868157455698L117.68853515625,117.0148266647011L117.7224609375,116.64033156334023L117.95994140625,112.74736774799281L118.09564453125,114.2379664408176L118.23134765625,114.54281602999461L118.29919921875,110.29004104315702L118.333125,114.0498009079269L118.333125,114.0498009079269L119.0794921875,114.91493762683655L119.18126953125,114.5976526910173L119.24912109375,117.06511316235576L119.35089843749999,112.40754398297784L119.58837890625,111.3618505734152L119.62230468749999,110.75253751541355L119.62230468749999,110.75253751541355L119.7580078125,115.68346097679543L120.06333984375,117.55816613935998L120.4365234375,116.37371546003435L120.53830078125,112.90049853714716L120.87755859375001,112.17454684878301L120.911484375,115.9091218242954L121.01326171875,111.60114676904466L121.454296875,109.34758561643373L121.5221484375,114.79692864777255L121.75962890625,114.27389456105553L121.82748046875001,109.15639547411618L122.1328125,111.22732170005995L122.268515625,117.16571265612063L122.64169921875,110.04528995117705L122.70955078125,114.07017443475448L122.77740234375001,113.6667240924601L122.811328125,115.67793415606553L123.25236328125,114.04299080484945L123.625546875,111.87007580897105L123.86302734374999,114.09655175451189L124.13443359374999,111.89609729232532L124.3040625,110.50056748704188L124.57546875,110.49010059709795L124.81294921874999,111.50570690312557L124.84687500000001,115.50565634002643L125.18613281249999,110.00373280188069L125.5932421875,113.14400420171607L125.62716796875,113.8238977888333L125.8646484375,115.7288641876408L126.16998046875,116.06280529552272L126.23783203125001,117.58442989430789L126.30568359374999,115.22873233750994L126.9502734375,110.48278323787132L127.05205078125,113.88100574604634L127.11990234375,111.46752641416553L127.2216796875,115.11677636279325L127.32345703125,113.88160385404315L127.42523437499999,113.44075283448079L127.45916015625001,106.92027787624725L127.4930859375,118.19914485174897L127.9001953125,116.61940156894602L128.0358984375,110.07779598515481L128.34123046874998,112.02433467523329L128.40908203125,112.16964841999912L128.4430078125,111.75005294728491L128.6465625,116.63099275050419L128.68048828125,111.44502543990635L128.782265625,112.3195198991203L128.9858203125,109.7364807356415L129.08759765625,111.96354721819185L129.2572265625,113.57591767076936L129.42685546875,110.5457511392555L129.90181640625,110.04552465178338L129.9357421875,113.35747197416745L130.00359375,111.49577376778636L130.24107421875,114.5196563798402L130.953515625,112.79037474135735L130.98744140625,112.91842663507643L131.29277343750002,113.16224649561835L131.59810546875,113.24687499167132L131.9034375,116.35499240843845L131.93736328125,112.62288936027991L132.039140625,114.58535362214647L132.1069921875,114.06461354458172L132.41232421875,114.52366143212254L132.44625,112.47067466058903L132.71765625,113.74265352410399L132.78550781250001,111.5032046918225L132.88728515625,117.55173837114125L133.36224609375,116.60284760521192L133.396171875,110.2999514655343L133.49794921875,115.60241355773593L133.80328125,110.99173528820809L133.83720703125,109.48329934930163L133.97291015624998,112.71358978814844L134.10861328125,115.48153517448476L134.2782421875,116.02561660589916L134.31216796875,115.8994498880181L134.481796875,109.84673702370908L134.5496484375,115.8315305609389L134.5496484375,115.8315305609389L134.88890625,112.11769251964454L134.9567578125,116.33713244939489L134.99068359375,117.07261222527761L135.05853515625,115.02953209062773L135.2281640625,114.97589543109227L135.53349609375002,111.22380876195218L135.87275390624998,114.15062374581717L135.94060546875,113.42587962992755L136.11023437499998,113.51039456117101L136.21201171874998,117.83916333304452L136.21201171874998,117.83916333304452L136.27986328125002,116.68646537446017L136.34771484375,117.04576171881385L136.7208984375,108.1329456252445L137.02623046875,112.98603555167627L137.09408203125003,113.48954784763711L137.16193359375,109.04393981423762L137.43333984375002,109.90009734220803L137.46726562499998,114.21018848840946L137.63689453125002,112.40930423752539L137.738671875,113.76253493675696L137.77259765624999,116.01772763713129L137.87437500000001,115.23168502255741L137.90830078125,112.42302665200883L137.9422265625,116.29309958725102L138.14578125,115.08536812197417L138.17970703125002,119.13969238967235L138.21363281249998,112.5485649779439L138.6207421875,111.51941039014075L138.7564453125,112.80398737652493L138.824296875,112.28943658107892L139.095703125,111.56848174433358L139.26533203125,117.519031706L139.26533203125,117.519031706L139.2992578125,116.54601220354172L139.40103515625,114.10703378643043L139.638515625,114.81890722390796L139.7063671875,114.4203855943467L139.8420703125,113.21296453954918L139.94384765625,110.8245451756354L140.14740234375,116.59094979866806L140.5884375,115.55012074844646L140.995546875,115.63478709943593L141.0633984375,116.01752700596782L141.0633984375,116.01752700596782L141.1991015625,109.16957277751395L141.4705078125,115.90220194190208L141.67406250000002,109.12017965636083L141.84369140625,118.6065283219463L141.97939453125,117.20014172087289L142.081171875,114.41208779226456L142.48828125,109.9329781400572L144.35419921874998,126.2145585712777L144.48990234375,119.74074550052839L144.9309375,125.66408533383427L145.30412109375,125.09853447518046L145.43982421875,120.40023527686883L145.71123046875,126.13164868934213L145.74515625,123.428122941205L145.880859375,126.34271456607217L146.2201171875,125.69509799056686L146.55937500000002,125.29123692221141L146.59330078124998,125.59052562121568L146.6272265625,119.97094515491543L146.8986328125,124.25839147809893L147.5771484375,123.44831476433734L148.39136718749998,125.01513058632347L148.59492187499998,126.29964132656875L148.62884765625,127.05369462704817L148.730625,128.8313018774747L149.0698828125,127.76982863762947L149.37521484374997,122.89745162104788L149.4769921875,126.04055078464027L149.81625000000003,125.19979453758735L149.98587890625,124.9351847459163L151.20720703125,123.4189961160134L151.5125390625,124.94470147695392L151.580390625,127.38911397020067L151.71609375000003,125.22510624088213L151.9196484375,125.17040017939038L152.02142578125,124.17158064495638L152.25890625000002,125.65196039767137L152.5303125,126.89169064077682L152.63208984374998,126.69027777285581L152.90349609375,127.82666971754017L153.03919921875,125.95645415044523L153.17490234374998,126.08242970089694L153.9551953125,125.57491045990693L154.0908984375,127.67666574614123L154.32837890625,122.99735647672787L154.46408203125,123.76914292221356L154.83726562500001,128.6526227916724L155.244375,126.82831201333153L155.7871875,125.47886870049737L156.63533203125,126.5495520463945L157.14421875,125.94830019712182L157.6191796875,126.87074361166118L157.8905859375,127.38606475506509L158.1619921875,126.77062487558993L158.365546875,129.50397652820018L158.39947265625,127.50540244240048L158.97621093749999,124.46470088205699L159.28154296875002,129.35087602299504L159.75650390624997,124.84961176919751L159.85828125,122.75847289990634L160.6046484375,129.53504028909705L161.18138671875002,125.2930691011383L161.58849609375,127.72039766153986L161.6902734375,125.05890603489908L161.893828125,127.71989608363114L162.5044921875,130.29030684029152L162.57234375,128.56315643473394L163.1830078125,127.70108975117493L163.31871093750001,127.02130215787994L163.42048828125002,127.79136241826095L164.03115234375,126.2706520161924L164.16685546875001,127.71495033617663L164.4043359375,128.6399527444238L164.84537109375,126.25227912275918L165.04892578125,128.71523864214709L165.52388671875,128.98708251218443L165.93099609375,127.15096288640052L166.4398828125,129.14656914517815L166.7112890625,128.60420064964066L166.74521484375,129.4732042503144L167.49158203125,125.95599232021985L167.62728515625,129.91650069877505L168.10224609375,126.62126254536477L168.50935546875,130.00049133914789L168.54328125,125.46136647060379L168.78076171875,124.65297430151674L169.25572265625,128.40014739989834L169.45927734375002,129.56013054101328L169.69675781249998,123.81541679659858L169.764609375,130.3314778692355L170.06994140625,127.15263418184726L170.13779296874998,129.81620404450223L170.17171875,128.57018231094946L170.81630859375,128.24197244045456L170.9180859375,127.26588668813929L171.22341796875,124.8588124115153L171.664453125,130.19730104678976L172.13941406249998,129.1366549373072L172.47867187499997,126.80629936775325L173.021484375,129.43149189577838L173.39466796874999,125.53306182759947L174.00533203125,127.41513923904859L174.34458984375001,125.86008116034125L174.37851562499998,128.03478858746323L174.5820703125,126.59151992175195L174.81955078124997,130.71345310604997L174.95525390625,128.27875229676386L174.9891796875,129.371429360771L175.02310546875,126.60417104153228L175.76947265625,126.59002465175996L175.80339843750002,130.91839594680016L175.93910156249999,127.3415511352276L176.006953125,130.08174885310498L176.31228515625,128.8332097662746L176.44798828125,129.9134912313228L177.4318359375,130.2800651872198L177.46576171875,130.68923919591387L177.77109375,128.74230113625526L177.87287109375,129.05350656927163L178.1103515625,125.61885057745634L178.449609375,127.33094039652497L178.48353515625,130.5765734411377L178.51746093749998,130.77959703660702L178.55138671875,127.52501508500427L178.721015625,131.22363922731685L178.9245703125,126.95014623372948L179.06027343749997,128.86571769299917L179.128125,130.5211689560674L179.6709375,129.7314733401207L179.87449218749998,129.05575893799374L179.90841796875,127.22276234447158L180.17982421874999,129.1700297420778L180.8244140625,128.04081130786133L181.40115234375003,131.80100650440102L182.28322265625002,129.42265844634468L183.063515625,128.4249632035249L183.50455078125,131.01574937975965L183.606328125,128.62711992094825L184.65802734374998,129.2813743595699L184.691953125,129.20188277840083L185.234765625,129.14954075769387L185.26869140625,129.43222628154658L185.60794921875,128.65304676696127L185.7097265625,126.21483680506103L185.777578125,128.65644992575315L186.15076171875,129.79097751481459L186.35431640625,130.63740821684976L186.45609375,127.83041546350744L186.591796875,127.29511069912198L187.2024609375,131.05130841436662L187.23638671875,129.63182400526213L187.37208984375,130.9774912881798L187.4738671875,126.97656140842341L187.54171874999997,126.92149383228804L188.0166796875,131.87334918081095L188.1523828125,127.53513749502599L188.52556640625002,130.76630806114656L188.62734375,131.64686498844196L189.305859375,126.7450103328031L189.577265625,127.83194669568911L189.9165234375,129.96328561480288L189.95044921875,130.28926015129713L190.32363281250002,128.35991138788606L191.10392578125,132.17602778937933L191.2735546875,128.76089548106705L191.85029296875,128.0218611266464L193.34302734374998,129.7153547081564L193.376953125,127.6634468023133L193.51265625,129.73628470255062L193.648359375,128.3931650568598L194.2590234375,130.8466854478299L194.462578125,130.61449273103582L194.49650390624998,129.58193876993442L195.92138671875,130.06403085007332L196.19279296875,131.17221897431384L196.46419921875003,126.57971107430889L196.498125,129.4054249865003L197.07486328125,131.30300020895498L197.5158984375,131.9053233529308L197.6516015625,127.50409833983784L198.02478515625,130.51713551258268L198.43189453125,128.1846600665844L198.533671875,132.4147485899739L198.6015234375,130.29783429441574L198.73722656249998,124.52086435860421L199.0086328125,131.9958931812684L201.04417968750002,129.97952916805764L201.24773437500002,131.27733266925705L201.28166015624998,130.87232459632546L201.34951171875,129.3252009123098L201.8583984375,130.0631847922424L202.09587890625,129.3725271539297L202.876171875,129.10956215924983L203.011875,129.4690439927924L203.38505859375002,128.33519589984124L203.48683593750002,130.22605565655977L204.06357421874998,128.4200950586902L204.26712890625,126.7422355659572L204.7081640625,129.54697595057743L205.38667968750002,132.3959271155431L205.69201171875,129.5685684063605L206.23482421875,128.8118993297685L206.30267578125,131.7067779964501L206.6080078125,131.00107491362309L206.91333984375,130.06207942809644L207.18474609375,130.18699314757916L207.86326171874998,127.60736092838592L207.93111328125,128.6814739315305L208.032890625,132.36875862761266L208.1007421875,131.9157069620144L208.30429687499998,127.1671193733013L208.71140625,130.26794403655055L208.74533203124997,128.5027664545258L208.9828125,128.1985887904718L209.08458984375,128.918006716795L209.25421875,129.218067656504L209.49169921875,131.53047241516677L209.55955078124998,128.38075242317947L211.289765625,130.33305263459417L211.66294921875,129.62258740075464L211.7647265625,131.22848844468328L211.93435546875,129.2216884811808L212.47716796875,129.40472088468127L212.61287109375002,127.38879788148083L212.646796875,129.19088402659898L212.7146484375,131.70681585138664L213.05390625,130.65814325832096L213.189609375,131.2392695306002L213.3253125,131.18528839114254L213.63064453125,130.41042244657208L213.6645703125,131.01597461663187L213.83419921875,131.62565486751762L213.96990234375002,128.37012275700857L214.00382812499998,130.38966469213898L214.51271484375002,134.40531635670257L215.5644140625,129.59174698398314L215.9715234375,128.7314216275034L216.20900390625002,128.00649580791858L216.3786328125,130.41536440853295L216.85359375000002,130.0987608615708L217.15892578125,130.8288747002038L217.66781250000003,130.46785406349227L218.04099609374998,130.977835768102L218.2784765625,132.32096298478012L218.31240234375,132.35078888925324L218.4141796875,129.96637836311544L218.617734375,131.24782285350375L219.9069140625,128.93128055028086L220.00869140625002,130.18046506377868L220.07654296875,130.43443572554472L220.1783203125,129.77258758665994L220.21224609375,132.13172237169263L220.34794921875002,128.87715556206447L221.43357421875,132.8499554385032L221.90853515625003,130.42019091293747L222.82453124999998,127.61528396659664L223.02808593749998,130.2849125118394L223.1637890625,131.39627287975912L223.774453125,128.47005221839729L223.94408203125,130.14677227754146L224.45296875,133.04332981065713L224.55474609375,131.80259641173427L224.6565234375,130.70757801990425L225.36896484375,129.35395173658617L225.7421484375,129.90936504324367L226.18318359375,131.60615578972335L226.217109375,132.12830596367297L226.5563671875,128.38069564077472L226.65814453125,130.50400552785555L226.79384765625,131.96727863476346L227.3705859375,128.8421511022773L227.4384375,130.13856532730694L227.54021484375,131.07254881924018L228.25265625,131.8357951910501L228.3205078125,131.63026370603723L228.49013671875002,131.55407307533147L228.8633203125,130.1533817494554L229.1347265625,129.46056448701503L229.2704296875,128.7165124607605L229.84716796875,130.02833175220127L230.05072265625,129.80270875963782L230.38998046875003,129.16671175689302L230.45783203125,132.17808709792527L230.66138671875,131.80535982209923L230.83101562500002,130.7623465420412L231.00064453125,131.36504634263525L231.102421875,127.86978649022058L231.61130859375,133.39274601658275L231.645234375,125.7076374382845L232.56123046875,131.86148355096313L232.83263671875002,130.0590623896569L233.17189453125002,132.10582580962884L233.545078125,130.49578343564644L234.25751953125,125.51657600275107L234.46107421874999,128.78436364895398L234.8342578125,132.17634387809915L234.86818359375,129.6802328980661L235.95380859375,132.53636514448692L235.987734375,127.61123727388414L236.1912890625,131.01065410530595L237.95542968750001,131.20437485012891L238.02328125,130.5645620697843L238.26076171875,129.99661877914332L238.3625390625,130.1292340854582L238.60001953125,129.56416209175117L239.516015625,130.70611303386144L240.22845703125,132.9957064077857L240.56771484375,130.54346929916312L241.11052734375,130.9252590467887L241.17837890625,133.2698499652158L241.24623046874999,132.89597189931996L241.415859375,132.85385071146968L242.501484375,130.67684170420813L242.67111328124997,130.6431413469836L243.044296875,130.35219587598527L243.07822265625,131.8975820184153L243.11214843750003,131.80661282049758L243.21392578125,132.81161028056937L243.75673828125,132.7990519053835L244.672734375,133.3492828712333L244.77451171875,131.43807608614276L245.45302734375002,131.66572053231565L245.65658203125,133.11861760112723L245.6905078125,132.17178046550336L246.572578125,132.3411358804442L246.81005859375,131.8410305287689L246.87791015625,132.27824747442668L247.0475390625,132.54947809449263L248.16708984375,133.3152853527572L248.26886718749998,128.29449237936308L248.91345703125,131.55215572279744L248.9473828125,131.225955949431L249.25271484375003,131.94793286946202L249.4901953125,132.3664419054985L249.59197265625,132.9114204989081L249.829453125,131.3451971066783L249.93123046875,131.8010784287804L250.5758203125,129.57408008511578L250.67759765625001,131.68134894285217L251.01685546875,131.06069265312647" style="fill: none;" fill="none"></path></g></g></g></g></g></g><g transform="translate(58, 177)" clip-path="url(#clip_1)"><clipPath id="clip_1"><rect width="271" height="22"></rect></clipPath><g><g><line x1="0" y1="0" x2="0" y2="5" style="visibility: inherit;" fill="rgb(0, 0, 0)" stroke="rgb(204, 204, 204)" stroke-width="1px"></line><line x1="33.92578125" y1="0" x2="33.92578125" y2="5" style="visibility: inherit;" fill="rgb(0, 0, 0)" stroke="rgb(204, 204, 204)" stroke-width="1px"></line><line x1="67.8515625" y1="0" x2="67.8515625" y2="5" style="visibility: inherit;" fill="rgb(0, 0, 0)" stroke="rgb(204, 204, 204)" stroke-width="1px"></line><line x1="101.77734375" y1="0" x2="101.77734375" y2="5" style="visibility: inherit;" fill="rgb(0, 0, 0)" stroke="rgb(204, 204, 204)" stroke-width="1px"></line><line x1="135.703125" y1="0" x2="135.703125" y2="5" style="visibility: inherit;" fill="rgb(0, 0, 0)" stroke="rgb(204, 204, 204)" stroke-width="1px"></line><line x1="169.62890625" y1="0" x2="169.62890625" y2="5" style="visibility: inherit;" fill="rgb(0, 0, 0)" stroke="rgb(204, 204, 204)" stroke-width="1px"></line><line x1="203.5546875" y1="0" x2="203.5546875" y2="5" style="visibility: inherit;" fill="rgb(0, 0, 0)" stroke="rgb(204, 204, 204)" stroke-width="1px"></line><line x1="237.48046875" y1="0" x2="237.48046875" y2="5" style="visibility: inherit;" fill="rgb(0, 0, 0)" stroke="rgb(204, 204, 204)" stroke-width="1px"></line><line x1="271.40625" y1="0" x2="271.40625" y2="5" style="visibility: inherit;" fill="rgb(0, 0, 0)" stroke="rgb(204, 204, 204)" stroke-width="1px"></line></g><g transform="translate(0, 8)"><text x="0" y="0" dx="0em" dy="0.95em" style="text-anchor: middle; visibility: hidden; font-family: &quot;Helvetica Neue&quot;, sans-serif; font-size: 12px; font-weight: 200;" fill="rgb(50, 49, 63)" stroke="none" stroke-width="1px">-1k</text><text x="33.92578125" y="0" dx="0em" dy="0.95em" style="text-anchor: middle; visibility: inherit; font-family: &quot;Helvetica Neue&quot;, sans-serif; font-size: 12px; font-weight: 200;" fill="rgb(50, 49, 63)" stroke="none" stroke-width="1px">0</text><text x="67.8515625" y="0" dx="0em" dy="0.95em" style="text-anchor: middle; visibility: inherit; font-family: &quot;Helvetica Neue&quot;, sans-serif; font-size: 12px; font-weight: 200;" fill="rgb(50, 49, 63)" stroke="none" stroke-width="1px">1k</text><text x="101.77734375" y="0" dx="0em" dy="0.95em" style="text-anchor: middle; visibility: inherit; font-family: &quot;Helvetica Neue&quot;, sans-serif; font-size: 12px; font-weight: 200;" fill="rgb(50, 49, 63)" stroke="none" stroke-width="1px">2k</text><text x="135.703125" y="0" dx="0em" dy="0.95em" style="text-anchor: middle; visibility: inherit; font-family: &quot;Helvetica Neue&quot;, sans-serif; font-size: 12px; font-weight: 200;" fill="rgb(50, 49, 63)" stroke="none" stroke-width="1px">3k</text><text x="169.62890625" y="0" dx="0em" dy="0.95em" style="text-anchor: middle; visibility: inherit; font-family: &quot;Helvetica Neue&quot;, sans-serif; font-size: 12px; font-weight: 200;" fill="rgb(50, 49, 63)" stroke="none" stroke-width="1px">4k</text><text x="203.5546875" y="0" dx="0em" dy="0.95em" style="text-anchor: middle; visibility: inherit; font-family: &quot;Helvetica Neue&quot;, sans-serif; font-size: 12px; font-weight: 200;" fill="rgb(50, 49, 63)" stroke="none" stroke-width="1px">5k</text><text x="237.48046875" y="0" dx="0em" dy="0.95em" style="text-anchor: middle; visibility: inherit; font-family: &quot;Helvetica Neue&quot;, sans-serif; font-size: 12px; font-weight: 200;" fill="rgb(50, 49, 63)" stroke="none" stroke-width="1px">6k</text><text x="271.40625" y="0" dx="0em" dy="0.95em" style="text-anchor: middle; visibility: hidden; font-family: &quot;Helvetica Neue&quot;, sans-serif; font-size: 12px; font-weight: 200;" fill="rgb(50, 49, 63)" stroke="none" stroke-width="1px">7k</text></g><line x1="0" y1="0" x2="271.40625" y2="0" fill="rgb(0, 0, 0)" stroke="rgb(204, 204, 204)" stroke-width="1px"></line></g></g></g></g></svg>