<svg viewBox="0 0 330 200" xmlns="http://www.w3.org/2000/svg"><g><g><g><g><g><line x1="48.875" y1="177.828125" x2="43.875" y2="177.828125" style="visibility: inherit;" fill="rgb(0, 0, 0)" stroke="rgb(204, 204, 204)" stroke-width="1px"></line><line x1="48.875" y1="160.0453125" x2="43.875" y2="160.0453125" style="visibility: inherit;" fill="rgb(0, 0, 0)" stroke="rgb(204, 204, 204)" stroke-width="1px"></line><line x1="48.875" y1="142.2625" x2="43.875" y2="142.2625" style="visibility: inherit;" fill="rgb(0, 0, 0)" stroke="rgb(204, 204, 204)" stroke-width="1px"></line><line x1="48.875" y1="124.47968749999998" x2="43.875" y2="124.47968749999998" style="visibility: inherit;" fill="rgb(0, 0, 0)" stroke="rgb(204, 204, 204)" stroke-width="1px"></line><line x1="48.875" y1="106.69687499999999" x2="43.875" y2="106.69687499999999" style="visibility: inherit;" fill="rgb(0, 0, 0)" stroke="rgb(204, 204, 204)" stroke-width="1px"></line><line x1="48.875" y1="88.9140625" x2="43.875" y2="88.9140625" style="visibility: inherit;" fill="rgb(0, 0, 0)" stroke="rgb(204, 204, 204)" stroke-width="1px"></line><line x1="48.875" y1="71.13125000000001" x2="43.875" y2="71.13125000000001" style="visibility: inherit;" fill="rgb(0, 0, 0)" stroke="rgb(204, 204, 204)" stroke-width="1px"></line><line x1="48.875" y1="53.3484375" x2="43.875" y2="53.3484375" style="visibility: inherit;" fill="rgb(0, 0, 0)" stroke="rgb(204, 204, 204)" stroke-width="1px"></line><line x1="48.875" y1="35.56562500000001" x2="43.875" y2="35.56562500000001" style="visibility: inherit;" fill="rgb(0, 0, 0)" stroke="rgb(204, 204, 204)" stroke-width="1px"></line><line x1="48.875" y1="17.782812500000006" x2="43.875" y2="17.782812500000006" style="visibility: inherit;" fill="rgb(0, 0, 0)" stroke="rgb(204, 204, 204)" stroke-width="1px"></line><line x1="48.875" y1="0" x2="43.875" y2="0" style="visibility: inherit;" fill="rgb(0, 0, 0)" stroke="rgb(204, 204, 204)" stroke-width="1px"></line></g><g transform="translate(38.875, 0)"><text x="0" y="177.828125" dx="0em" dy="0.3em" style="text-anchor: end; visibility: hidden; font-family: &quot;Helvetica Neue&quot;, sans-serif; font-size: 12px; font-weight: 200;" fill="rgb(50, 49, 63)" stroke="none" stroke-width="1px">-0.1</text><text x="0" y="160.0453125" dx="0em" dy="0.3em" style="text-anchor: end; visibility: inherit; font-family: &quot;Helvetica Neue&quot;, sans-serif; font-size: 12px; font-weight: 200;" fill="rgb(50, 49, 63)" stroke="none" stroke-width="1px">0</text><text x="0" y="142.2625" dx="0em" dy="0.3em" style="text-anchor: end; visibility: hidden; font-family: &quot;Helvetica Neue&quot;, sans-serif; font-size: 12px; font-weight: 200;" fill="rgb(50, 49, 63)" stroke="none" stroke-width="1px">0.1</text><text x="0" y="124.47968749999998" dx="0em" dy="0.3em" style="text-anchor: end; visibility: inherit; font-family: &quot;Helvetica Neue&quot;, sans-serif; font-size: 12px; font-weight: 200;" fill="rgb(50, 49, 63)" stroke="none" stroke-width="1px">0.2</text><text x="0" y="106.69687499999999" dx="0em" dy="0.3em" style="text-anchor: end; visibility: hidden; font-family: &quot;Helvetica Neue&quot;, sans-serif; font-size: 12px; font-weight: 200;" fill="rgb(50, 49, 63)" stroke="none" stroke-width="1px">0.3</text><text x="0" y="88.9140625" dx="0em" dy="0.3em" style="text-anchor: end; visibility: inherit; font-family: &quot;Helvetica Neue&quot;, sans-serif; font-size: 12px; font-weight: 200;" fill="rgb(50, 49, 63)" stroke="none" stroke-width="1px">0.4</text><text x="0" y="71.13125000000001" dx="0em" dy="0.3em" style="text-anchor: end; visibility: hidden; font-family: &quot;Helvetica Neue&quot;, sans-serif; font-size: 12px; font-weight: 200;" fill="rgb(50, 49, 63)" stroke="none" stroke-width="1px">0.5</text><text x="0" y="53.3484375" dx="0em" dy="0.3em" style="text-anchor: end; visibility: inherit; font-family: &quot;Helvetica Neue&quot;, sans-serif; font-size: 12px; font-weight: 200;" fill="rgb(50, 49, 63)" stroke="none" stroke-width="1px">0.6</text><text x="0" y="35.56562500000001" dx="0em" dy="0.3em" style="text-anchor: end; visibility: hidden; font-family: &quot;Helvetica Neue&quot;, sans-serif; font-size: 12px; font-weight: 200;" fill="rgb(50, 49, 63)" stroke="none" stroke-width="1px">0.7</text><text x="0" y="17.782812500000006" dx="0em" dy="0.3em" style="text-anchor: end; visibility: inherit; font-family: &quot;Helvetica Neue&quot;, sans-serif; font-size: 12px; font-weight: 200;" fill="rgb(50, 49, 63)" stroke="none" stroke-width="1px">0.8</text><text x="0" y="0" dx="0em" dy="0.3em" style="text-anchor: end; visibility: hidden; font-family: &quot;Helvetica Neue&quot;, sans-serif; font-size: 12px; font-weight: 200;" fill="rgb(50, 49, 63)" stroke="none" stroke-width="1px">0.9</text></g><line x1="48.875" y1="0" x2="48.875" y2="177.828125" fill="rgb(0, 0, 0)" stroke="rgb(204, 204, 204)" stroke-width="1px"></line></g></g><g transform="translate(48, 0)" clip-path="url(#clip_0)"><clipPath id="clip_0"><rect width="281" height="177"></rect></clipPath><g><g><g><line x1="0" y1="0" x2="0" y2="177.828125" fill="rgb(0, 0, 0)" stroke="rgb(60, 60, 60)" stroke-width="1px" opacity="0.25"></line><line x1="35.140625" y1="0" x2="35.140625" y2="177.828125" fill="rgb(0, 0, 0)" stroke="rgb(60, 60, 60)" stroke-width="1px" opacity="0.25"></line><line x1="70.28125" y1="0" x2="70.28125" y2="177.828125" fill="rgb(0, 0, 0)" stroke="rgb(60, 60, 60)" stroke-width="1px" opacity="0.25"></line><line x1="105.421875" y1="0" x2="105.421875" y2="177.828125" fill="rgb(0, 0, 0)" stroke="rgb(60, 60, 60)" stroke-width="1px" opacity="0.25"></line><line x1="140.5625" y1="0" x2="140.5625" y2="177.828125" fill="rgb(0, 0, 0)" stroke="rgb(60, 60, 60)" stroke-width="1px" opacity="0.25"></line><line x1="175.703125" y1="0" x2="175.703125" y2="177.828125" fill="rgb(0, 0, 0)" stroke="rgb(60, 60, 60)" stroke-width="1px" opacity="0.25"></line><line x1="210.84375" y1="0" x2="210.84375" y2="177.828125" fill="rgb(0, 0, 0)" stroke="rgb(60, 60, 60)" stroke-width="1px" opacity="0.25"></line><line x1="245.984375" y1="0" x2="245.984375" y2="177.828125" fill="rgb(0, 0, 0)" stroke="rgb(60, 60, 60)" stroke-width="1px" opacity="0.25"></line><line x1="281.125" y1="0" x2="281.125" y2="177.828125" fill="rgb(0, 0, 0)" stroke="rgb(60, 60, 60)" stroke-width="1px" opacity="0.25"></line></g><g><line x1="0" y1="177.828125" x2="281.125" y2="177.828125" fill="rgb(0, 0, 0)" stroke="rgb(60, 60, 60)" stroke-width="1px" opacity="0.25"></line><line x1="0" y1="160.0453125" x2="281.125" y2="160.0453125" fill="rgb(0, 0, 0)" stroke="rgb(60, 60, 60)" stroke-width="1px" opacity="0.25"></line><line x1="0" y1="142.2625" x2="281.125" y2="142.2625" fill="rgb(0, 0, 0)" stroke="rgb(60, 60, 60)" stroke-width="1px" opacity="0.25"></line><line x1="0" y1="124.47968749999998" x2="281.125" y2="124.47968749999998" fill="rgb(0, 0, 0)" stroke="rgb(60, 60, 60)" stroke-width="1px" opacity="0.25"></line><line x1="0" y1="106.69687499999999" x2="281.125" y2="106.69687499999999" fill="rgb(0, 0, 0)" stroke="rgb(60, 60, 60)" stroke-width="1px" opacity="0.25"></line><line x1="0" y1="88.9140625" x2="281.125" y2="88.9140625" fill="rgb(0, 0, 0)" stroke="rgb(60, 60, 60)" stroke-width="1px" opacity="0.25"></line><line x1="0" y1="71.13125000000001" x2="281.125" y2="71.13125000000001" fill="rgb(0, 0, 0)" stroke="rgb(60, 60, 60)" stroke-width="1px" opacity="0.25"></line><line x1="0" y1="53.3484375" x2="281.125" y2="53.3484375" fill="rgb(0, 0, 0)" stroke="rgb(60, 60, 60)" stroke-width="1px" opacity="0.25"></line><line x1="0" y1="35.56562500000001" x2="281.125" y2="35.56562500000001" fill="rgb(0, 0, 0)" stroke="rgb(60, 60, 60)" stroke-width="1px" opacity="0.25"></line><line x1="0" y1="17.782812500000006" x2="281.125" y2="17.782812500000006" fill="rgb(0, 0, 0)" stroke="rgb(60, 60, 60)" stroke-width="1px" opacity="0.25"></line><line x1="0" y1="0" x2="281.125" y2="0" fill="rgb(0, 0, 0)" stroke="rgb(60, 60, 60)" stroke-width="1px" opacity="0.25"></line></g></g></g><g><g><line x1="0" y1="160.0453125" x2="281.125" y2="160.0453125" fill="rgb(0, 0, 0)" stroke="rgb(153, 153, 153)" stroke-width="1.5px"></line></g></g><g><g><line x1="35.140625" y1="0" x2="35.140625" y2="177.828125" fill="rgb(0, 0, 0)" stroke="rgb(153, 153, 153)" stroke-width="1.5px"></line></g></g><g><g><g><g><g><path stroke="rgb(255, 112, 67)" stroke-width="2px" d="M35.456890625,31.172522369213397L35.5623125,30.808930435939686L35.8434375,30.210466197152073L35.878578125,31.3411334057962L35.91371875,31.307943084907635L36.1245625,31.07449711786478L36.370546874999995,31.44323631112036L36.440828124999996,30.33467143677146L36.792234375,30.412723908886107L36.932796875,30.74617980933391L37.003078124999995,31.51106027791218L37.354484375,31.60610875390759L37.846453125,31.37442690472622L37.916734375,31.61187927201658L38.057296875,31.679928859371245L38.338421875,31.161004916235527L38.373562500000006,31.123237654074245L39.14665625000001,31.34891197666616L39.252078125,31.728836070140375L39.4980625,31.647385389174445L39.603484375,31.864779208927416L39.70890625,32.04174010921159L39.814328125,32.340630408421646L39.91974999999999,32.31605119587391L40.27115625,32.267724804539284L40.55228125,32.39752927300006L40.587421875000004,32.41024674377098L40.727984375,32.50468197185231L41.079390625,32.26484008382076L41.219953125,32.08681770852181L41.501078125,32.209735349275974L41.571359375,32.43152114693646L42.52015625,32.53081450135892L42.555296875,32.73432588591956L42.836421875000006,33.15571687448099L42.906703125,32.848302030987156L42.94184375,33.174243062323825L43.22296875,32.96275324323415L43.258109375000004,33.241752095984936L43.29325,33.30575655340317L43.468953125000006,33.14765940051015L43.78521875,33.30381991850342L44.171765625,33.492181431777055L44.452890624999995,33.83385669253829L44.5583125,34.0814544064813L45.015140624999994,33.99198058838661L45.19084375,33.79150757301602L45.296265625,33.8608551912547L45.436828125,34.11844525385496L45.436828125,34.272999291412845L46.03421875,34.45640730897745L46.069359375,34.41991778017666L46.280203125,34.240932738864615L46.385625000000005,34.722549384138006L46.420765625,34.03318791273256L46.455906250000005,34.458635085571075L46.491046874999995,34.76329651042724L46.5261875,34.22562791721458L46.73703125,34.45042549649739L46.912734375,34.47444298553384L47.685828125,34.268560158612814L47.756109375,34.75851846569927L47.826390625,34.92899792780966L47.966953124999996,35.4474173510998L48.107515625,35.398327435697894L48.3535,35.05426686310517L48.42378125,35.02200804772227L48.56434375,35.33996749831587L48.634625,35.458319709827606L48.669765625000004,35.82408713706141L48.70490624999999,35.59617310834116L48.845468749999995,35.6590661751311L48.915749999999996,35.45043421459681L48.950890625,35.91733652918032L49.0563125,35.23258647601895L49.091453125,35.32376558367068L49.161734375,35.52992550095112L49.232015625,35.78201812780017L49.3374375,35.611323828554845L49.3374375,35.50890724900762L49.759125,36.08464976291896L49.82940625,36.34958660366263L50.39165625,36.300465876085326L50.53221875,36.4600694593625L50.637640625,36.261283256893535L50.883624999999995,36.32534692982446L50.953906249999996,36.711788290438705L51.059328125,36.793421702949786L51.09446875,37.25647721632933L51.199890625,37.275359137175144L51.23503125,37.32979809705475L51.481015625000005,36.994039666214945L51.51615625,37.636799963152015L51.691859375,37.90270432097353L51.727,37.948532523439155L51.902703125,38.50749094902028L51.972984375,38.57749987106652L52.043265625000004,37.87406339190085L52.183828125000005,38.026560096616635L52.21896875,37.85685118372743L52.32439062500001,38.08206765456799L52.32439062500001,38.21719753707234L52.4298125,38.49966796854011L52.746078125,38.39292184721751L52.78121875,38.9544157951255L52.956921875,39.33778833503598L53.48403125,39.57257310147628L53.694875,39.71455477659728L53.800296874999994,40.10038041925327L53.870578124999994,40.20534461963712L53.90571875,40.22175369413816L53.976,40.47423171715212L54.081421875,40.878242452763175L54.151703125,40.974814114017875L54.32740625,41.008336134131895L54.432828125,41.13643161252213L54.538250000000005,41.61947842505617L54.713953124999996,41.74100952166049L55.45190625,42.49376407581704L55.5221875,42.7644387165048L55.5221875,42.92684350091744L55.557328125,43.23527343431729L55.873593750000005,43.729405140189044L56.0844375,44.19431258696778L56.330421875,44.49953504343904L56.78725,45.24602992215799L56.99809375,46.46294170784384L57.173796875,47.46266922692911L57.244078125,47.7127854816047L57.27921875,48.06950079020427L57.630624999999995,48.523856128105905L57.736046875,49.062161925121785L57.876609375,49.69856913562694L57.98203125,50.51239340425181L58.263156249999994,51.06501349625377L58.298296875,51.86218673418395L58.509140625,52.65373209986349L58.54428125,52.75803708075439L58.6145625,53.30414692723129L58.6145625,53.631812835117415L59.4579375,54.7617176627399L59.52821875,55.55340464981087L59.563359375000005,55.84183379692847L59.5985,56.68318657403L59.985046875,57.626414127497725L60.195890625000004,58.58613042837314L60.23103125,58.90551027592082L60.37159375,59.976094075060246L60.441874999999996,60.75097055033824L60.8635625,61.79629316744793L60.898703125000004,62.45990197527463L61.07440625,63.6388813507143L61.21496875,64.4557351558109L61.28525,64.89182026780844L61.320390625,65.27616130409956L61.88264062499999,67.22562534323824L61.952921874999994,68.50589772082263L62.40975,70.65225006050255L62.690875,72.60286627315067L62.690875,73.77323600073954L62.972,74.87139776018441L63.04228125,76.42481271944003L63.323406250000005,78.48201155634408L63.323406250000005,79.7163308584865L63.709953125,81.29084791495211L63.815375,83.4079621760029L63.885656250000004,84.41627972028276L63.955937500000005,85.4091334404893L64.02621875,86.33915442763849L64.0965,87.2921000015085L64.30734375,88.50646125265033L64.44790625,90.42656727813524L64.553328125,91.71248625175114L64.693890625,93.42432791169557L64.834453125,94.49900293507322L64.904734375,95.71973810137447L64.939875,96.4083465159156L64.975015625,97.77902159677257L65.045296875,98.56943982961809L65.15071875000001,99.55133546157501L65.326421875,101.02580743958099L65.502125,102.98774611922826L65.57240625,104.47821010647849L65.607546875,105.61704168520055L65.64268750000001,106.707852960835L65.748109375,107.91200884909784L65.78325000000001,109.03695668526056L65.818390625,109.93930333437808L66.169796875,111.79651227322096L66.310359375,113.30709342100843L66.41578125,115.46657103185282L66.55634375,117.55594993850247L66.55634375,118.80957728249226L66.732046875,120.44283687550883L66.83746875,121.44959634908102L67.224015625,123.83048689152636L67.294296875,125.54318005497507L67.47,126.83774457411246L67.54028124999999,128.78556556980328L67.68084375,130.2475642720566L67.926828125,131.82489190686604L67.96196875,132.8735926650173L68.067390625,133.99121357379596L68.10253125,134.38786840418422L68.699921875,136.28419241763504L68.80534374999999,137.93699331887723L69.121609375,138.8266929635147L69.2973125,139.50103300016312L69.332453125,140.32164051565118L69.36759375,140.52840414101124L69.683859375,140.8339115505732L69.92984375,141.148827465419L69.964984375,141.8415269635787L70.28125,142.54952267152342L70.35153125,142.94141961387407L70.49209375,142.8685100536517L70.80835937500001,142.98276506854427L70.91378125,143.30123349131765L71.33546874999999,143.713649784597L71.5463125,144.09543030118218L71.61659374999999,144.23806912862113L71.61659374999999,144.3236524250845L71.651734375,144.61546051801307L71.686875,144.531692560843L71.75715625,144.46761973156788L71.8274375,144.74886877091345L71.968,144.31703334922935L72.21398437500001,144.48306907737833L72.811375,144.85190740313132L72.88165624999999,144.98103976069055L73.02221875,144.9667444242595L73.16278125,145.07044594830623L73.373625,144.93587343271508L73.549328125,145.0438158859182L73.58446875,145.25577868853657L73.61960937500001,144.9967291911149L73.72503125,145.52397867313684L73.76017187500001,145.23481268444903L73.90073437500001,145.56784908810553L73.97101562499999,145.09994376835553L74.322421875,145.48738669169964L74.42784375,145.53511687290234L74.42784375,145.56375498162396L74.462984375,145.84345592615642L74.533265625,145.67605778088688L74.603546875,145.5403605787338L74.603546875,145.45894225744195L74.744109375,145.43538722030803L74.77925,145.3479483406133L74.884671875,145.5354205783035L75.20093750000001,145.72210171634595L75.37664062500001,145.1245114376989L75.4820625,145.45755106140322L75.58748437499999,145.1400873554L75.657765625,145.1234087919946L75.86860937499999,145.32744133878344L75.90375,145.38806858838072L76.3254375,145.4383884254517L76.501140625,145.30392899429333L77.09853125,145.57619156481644L77.13367187499999,145.4235232264992L77.1688125,145.2735031984249L77.414796875,145.27714785286034L77.94190625,145.8528136906575L78.08246875,145.99243784682199L78.18789062500001,146.22476533220333L78.22303125,146.16922010548708L78.258171875,146.21042305551833L78.36359374999999,145.63030220840716L78.78528125,145.76409033519758L78.820421875,146.34065172540906L78.996125,146.44082174389968L79.031265625,146.12034922654016L79.101546875,146.34025979165298L79.34753125,145.61601294340005L79.45295312500001,145.40378157685734L79.62865625,145.24801309393666L79.874640625,145.64837563198586L79.94492187499999,145.60428115576076L79.98006249999999,146.12842315872874L80.436890625,146.12305610289644L80.647734375,145.90753554318752L80.8234375,145.8155775501879L80.928859375,145.24678637019483L81.209984375,145.15857403261847L81.31540625,145.8151713958696L81.35054687499999,145.95440970002133L81.59653125,145.93896982166592L81.701953125,145.87937949789494L81.772234375,145.64477082374017L82.193921875,146.04599760958632L82.29934375,145.63880086544913L82.40476562500001,145.67460170241452L82.615609375,145.85610425780942L82.75617187499999,146.03053329181733L83.00215625,146.00233964536264L83.213,145.67420174685077L83.28328125,145.37116301497866L83.529265625,145.743428841124L83.529265625,145.96678833681125L83.56440625,145.5314465588646L84.12665625000001,145.80356954740756L84.16179687500001,145.73572275125102L84.16179687500001,145.69501467355707L84.4780625,145.38087055304567L84.7591875,145.51115096161243L84.82946875,145.2922376019663L85.6025625,144.95059360314718L85.74312499999999,145.1735562011186L85.91882812499999,145.35235569582633L86.02425,145.49615132434295L86.09453125,145.3492497121431L86.37565625,145.44517549660878L86.410796875,145.05763057968326L86.4459375,145.62600990921106L87.254171875,145.26349768230227L87.394734375,145.2103941839831L87.816421875,144.63102523608265L87.956984375,145.0946530241974L88.027265625,144.94260766228598L88.097546875,144.88522268266564L88.1326875,145.03162192531764L88.308390625,145.1138570475591L88.37867187500001,144.7790224523403L88.51923437500001,144.7304713856035L88.55437500000001,145.31328918853274L88.9760625,145.15080182226447L89.04634374999999,145.15321122978855L89.081484375,145.44453778877693L89.573453125,145.23902524020986L89.995140625,145.2302986227935L90.241125,145.3279588051064L90.3816875,145.1591849166109L90.487109375,145.11199545179403L90.557390625,145.31187057306377L90.6628125,145.4224522903972L90.9439375,145.61243251503112L91.260203125,145.69881614872241L91.29534375,145.10269178455874L91.400765625,145.496251030869L91.47104687500001,145.4915384063388L91.892734375,145.4711942925611L91.927875,145.4986841006221L92.0684375,144.74329016445304L92.103578125,145.03739716431556L92.13871875,145.58097096748165L92.173859375,145.4476299101942L92.173859375,145.36762527582172L92.63068750000001,144.90503189934938L92.77125000000001,144.82212716833814L93.1929375,144.7302395961106L93.3335,144.82758022597142L93.57948437499999,144.31042913977478L93.614625,144.63553382444076L93.89575,144.87954935206216L94.42285937499999,144.78193757125058L94.45800000000001,144.5474705749799L94.633703125,144.7959678942516L94.914828125,144.36281466198292L95.02025,144.64491047320783L95.406796875,144.69986051228022L95.44193750000001,145.03949610191472L95.547359375,144.71027056166574L95.72306250000001,144.27079744870764L95.75820312500001,144.0914846634175L95.89876562500001,144.2405403639465L96.0041875,143.74769990172956L96.10960937499999,143.47618606447486L96.21503125,143.7294360066015L96.2853125,143.34498621559865L96.5664375,144.0019912834233L96.77728125,143.76882695982886L96.8475625,143.59243628259023L96.952984375,143.73721101965134L97.234109375,143.62900271160342L97.26925,143.86652844862527L97.37467187499999,143.87663799803227L97.444953125,143.176706966252L97.726078125,143.53611032256313L98.04234375,144.0095860186764L98.39375,144.141575071185L98.71001562500001,143.90498958766483L98.74515625000001,144.08399925054624L98.780296875,143.40733482731292L98.81543749999999,143.9638915114427L98.88571875,143.62688833707085L99.16684375,143.40350780683053L99.3776875,143.19565744135778L99.623671875,142.8473871721305L100.15078125000001,142.71341034012153L100.185921875,143.24763259885603L100.607609375,143.13162933735785L100.677890625,143.13212321496746L100.71303125,143.3337261885024L100.818453125,143.58414723717186L100.85359375,143.68528497900377L100.888734375,143.39554462828596L101.0644375,143.59437681664667L101.169859375,143.38867204232113L101.41584375000001,143.81989895031398L101.55640625000001,143.6545379133462L101.76724999999999,143.37777050960074L101.80239062499999,143.06892843929052L101.872671875,142.69952040741924L102.08351562499999,142.91986134743553L102.153796875,143.13649476056315L102.22407812499999,143.3974391852637L102.25921875,143.66374177419436L102.434921875,144.01660485391793L102.505203125,143.97444523883968L103.0323125,144.04243198288037L103.10259375000001,143.6758182246949L103.24315625000001,143.9319826986881L104.01625,143.80447977274235L104.1568125,143.96833119834147L104.262234375,143.78196808574347L104.332515625,143.2764674337372L104.54335937500001,143.57010093061865L104.64878125000001,143.35969029094457L104.75420312499999,143.06785346847434L105.14075,142.7812744923519L105.316453125,142.7956637161668L105.421875,142.88735612942142L105.5624375,143.00744330470965L105.597578125,143.35126959970717L105.80842187500001,143.48787178875244L105.984125,143.79434444667763L106.05440625,143.69097365387339L106.230109375,143.76179535545182L107.03834375,143.9523357775496L107.143765625,143.48527967619515L107.143765625,143.20504601538252L107.31946875,143.22304051015195L108.61967187500001,143.7551264839972L108.795375,144.19168037141367L108.830515625,144.0526953110807L108.86565625,143.51321921751054L108.90079687500001,143.4945477438094L108.93593750000001,143.36988483253475L108.971078125,143.69883663348244L109.392765625,143.62383061937808L109.4981875,143.37344755132762L109.533328125,143.20752744499455L109.673890625,143.69639213569565L109.884734375,143.8203672702058L110.025296875,143.37216994929724L110.095578125,143.1450761890298L110.095578125,143.00881993286936L110.376703125,143.6157440800164L110.657828125,143.83664738760928L110.76325,143.629071095744L110.83353125,143.5378805165383L110.97409375,143.7848993126891L111.00923437499999,143.8252714157178L111.1849375,143.71526993073962L111.25521875,143.41441428811368L111.360640625,143.60851804821425L111.430921875,144.54692317785313L111.88775000000001,144.39895333657557L112.063453125,144.2981178143465L112.3094375,144.12529378766752L112.45,143.976938874669L112.555421875,143.86515686395035L112.625703125,143.5172172778719L112.625703125,143.30845352622484L112.977109375,143.11245605822722L113.01225000000001,143.69981771927183L113.117671875,143.602942272625L113.64478125,144.5556461690972L113.750203125,144.45389717400354L114.031328125,144.17573215139453L114.06646875,144.1519555360305L114.34759375,144.1445081493953L114.382734375,144.1219158337533L114.699,144.35392057205107L114.73414062500001,144.5141759079985L114.76928125,144.73138147410629L114.94498437499999,144.84189032864572L115.12068749999999,144.85642189896927L115.577515625,145.13861974161836L115.61265625,144.92086437757558L115.8235,144.45884426266025L115.858640625,144.57097400116965L115.89378125,144.58025732444924L115.928921875,144.34944731567623L116.13976562500001,143.9771702067793L116.45603125,144.4781938108349L116.80743749999999,144.145414860186L116.948,144.30491762579203L117.0885625,144.45820572876616L117.15884375,144.98683604024683L117.26426562500001,144.78197981358147L117.29940625,144.2305579629072L117.29940625,143.89970485250262L117.475109375,144.33704303614115L117.93193749999999,144.36954163615184L118.037359375,144.67815749517396L118.318484375,144.68562200801114L118.4941875,145.380664246654L118.56446875,144.8969858867864L118.599609375,144.0388899399137L118.740171875,144.20635435308415L118.84559375,144.03522860127737L118.880734375,144.54588163272993L119.0564375,144.60342698546063L119.12671875000001,144.19941959681137L119.232140625,144.39885677116266L119.26728125000001,144.37617573216536L119.37270312499999,144.40891714728423L119.47812499999999,144.7517429899554L119.51326562499999,144.87413371092487L119.54840625,145.04386671080533L120.1809375,144.9175479188131L120.39178125000001,144.67276592313524L120.70804687500001,144.999820543378L120.7431875,144.65055504954572L121.09459375,144.43294870226362L121.129734375,144.47427401544542L121.481140625,145.01559352806035L121.902828125,144.46557741325094L121.93796875000001,144.88363610367324L122.183953125,144.9304178410547L122.32451562499999,144.87058673668815L122.46507812499999,144.8508478922034L122.535359375,143.93378978538573L122.5705,144.44475235007292L122.5705,144.7513298888852L123.34359375,144.83781827245878L123.449015625,145.4352736948433L123.51929687500001,144.9421019558647L123.62471875,144.9944273062055L123.87070312499999,144.54541664656278L123.90584374999999,144.6566393660495L123.90584374999999,144.72337299774148L124.04640624999999,144.95761770766825L124.362671875,145.12234490428662L124.74921875,144.4168062947425L124.854640625,144.68101470667207L125.20604687500001,145.03711117850406L125.2411875,145.48862184850373L125.346609375,145.0444642475575L125.8034375,144.98937012564866L125.87371875,144.97946376321377L126.119703125,145.1722154349117L126.18998437500001,145.42235510934313L126.50625000000001,145.32420774199915L126.64681250000001,145.20724742627652L127.033359375,145.71428073455178L127.103640625,145.38324317510182L127.173921875,145.28798846470346L127.2090625,144.52937064290882L127.665890625,145.0075603495104L128.0524375,144.53825541920403L128.298421875,144.6519780108858L128.579546875,144.97154623701223L128.75525000000002,144.94855216838226L129.036375,144.73120625095697L129.282359375,145.05049974996007L129.3175,144.90049273831787L129.66890625,145.3043614462615L130.09059375,145.15470373727237L130.125734375,144.79413464379783L130.37171874999999,145.24471532657728L130.68798437499998,145.39926336559645L130.758265625,145.53794263081545L130.828546875,145.67202775458014L131.49621875,145.3489004611493L131.60164062500002,145.184823718238L131.671921875,145.56544113058L131.77734375,145.5684724217357L131.882765625,145.53824714409643L131.98818749999998,145.64400974620966L132.023328125,145.50033471007026L132.05846875,145.15052835222411L132.48015625,145.69483827981026L132.62071875,145.12260404352946L132.936984375,145.404625992903L133.007265625,146.0756801630412L133.04240625,145.80843859831123L133.25324999999998,145.59934392082096L133.288390625,145.16895242725252L133.3938125,145.10811618585552L133.60465625,145.11335480820634L133.710078125,145.5652768848218L133.88578125,145.29869962207428L134.061484375,145.43257820902437L134.553453125,145.33992874302743L134.58859375,145.87642108430245L134.658875,145.73016721485237L134.904859375,145.3636357716474L135.6428125,145.1353041760551L135.67795312500002,144.9250459985671L135.99421875000002,145.09144305086807L136.310484375,144.8099430683057L136.62675,145.10361071830545L136.66189062499998,145.21505597252914L136.7673125,144.74998146894697L136.83759375,145.24193582960405L137.153859375,144.81471550021507L137.189,145.19307960970812L137.470125,144.74045349805905L137.54040625000002,144.58888138673814L137.64582812499998,144.9105985682919L138.137796875,145.19207277232755L138.1729375,145.3743761126416L138.278359375,145.35988419674328L138.594625,145.01911941167333L138.629765625,144.54497939882648L138.770328125,145.05598591645528L138.910890625,145.37119387555106L139.08659375000002,144.97334712227348L139.12173437500002,145.64829998815716L139.2974375,145.24460933006353L139.36771875,145.19293472971572L139.36771875,145.161929969507L139.719125,144.90998807340046L139.78940625,144.98362099352363L139.824546875,145.00973091878598L139.894828125,145.28085682462142L140.07053125000002,144.48687823610484L140.38679687500002,144.33972750365797L140.73820312499998,144.3302498306375L140.80848437499998,144.3057593927948L140.9841875,144.2723376116108L141.08960937499998,144.302982448005L141.08960937499998,144.32136934984152L141.159890625,144.77478366697758L141.230171875,144.6902944778386L141.61671875000002,144.97791840573672L141.932984375,144.61799039903968L142.003265625,144.3071383859288L142.073546875,144.37308220388047L142.354671875,144.2993262595664L142.38981249999998,144.73001299138252L142.56551562500002,144.85422095247213L142.67093749999998,144.7459636224656L142.706078125,144.19032460370505L142.8115,144.24692320259345L142.84664062500002,143.95489624182167L142.88178125,144.05654811827895L143.092625,144.22436087812181L143.12776562500002,144.2530485205029L143.16290625,143.87881585107107L143.58459375,143.45564435654646L143.72515625,143.22050342630232L143.7954375,143.59108072626745L144.0765625,144.07644335651042L144.252265625,144.09271083994892L144.252265625,144.102471330012L144.28740625,143.96575904356956L144.392828125,144.13219762002316L144.6388125,144.39636072977564L144.70909375000002,144.09247909512442L144.84965625,144.5379706022129L144.955078125,144.52244802030464L145.165921875,145.01327798061095L145.62275,144.28534311864723L146.0444375,144.29951701901786L146.11471875,144.1876579545453L146.11471875,144.12054251586176L146.25528125,144.2897461936535L146.53640625,143.81998925697275L146.74725,143.99102973828596L146.922953125,143.92231607339835L147.06351562499998,144.3867213339388L147.1689375,144.6771520632318L147.59062500000002,145.16062362851568L149.52335937499998,147.20311143987436L149.663921875,148.2099025685718L150.12075000000002,148.32327116128462L150.507296875,148.74817828603892L150.647859375,149.0298274394145L150.928984375,149.48163653747764L150.964125,149.40847923528756L151.10468749999998,149.42973501673737L151.45609374999998,149.73907509924373L151.8075,149.50716524328197L151.842640625,149.80806831672749L151.87778125,149.9099645996017L152.15890625,149.9854133902174L152.86171875,150.01427376096942L153.70509374999997,149.9688694640465L153.91593749999998,149.3324369321446L153.951078125,148.7609322063546L154.0565,149.02884473989246L154.40790625,149.17797851691483L154.724171875,149.13484911719894L154.82959375,149.04866549726538L155.181,149.22818296834802L155.356703125,149.15727637158133L156.621765625,149.0044389519061L156.93803125,149.017890851246L157.0083125,149.05962509881692L157.148875,149.26936306238727L157.35971874999998,148.8985542975511L157.465140625,149.2505470755597L157.711125,149.14087797876502L157.99225,149.3005447244163L158.09767187499997,148.95738248644676L158.37879687499998,148.63347639173065L158.519359375,148.7124340957037L158.65992187499998,149.11733965962233L159.46815625000002,148.71167288180465L159.60871874999998,148.45748847367256L159.85470312500001,149.29687305180644L159.995265625,149.30800217883274L160.3818125,148.6819808015018L160.80349999999999,148.5220129363728L161.36575,148.7244353000601L162.244265625,148.80558748220457L162.77137499999998,149.38628854863845L163.26334375,148.9539510094963L163.54446875,148.84182690198153L163.82559375,148.1982968841638L164.0364375,148.59257905834107L164.07157812499997,148.77501811279487L164.66896875,148.82561549143796L164.985234375,148.2828155048001L165.477203125,148.8235215960515L165.58262499999998,148.32200270034247L166.35571875,148.86862061520964L166.95310937500003,149.3450839393339L167.374796875,149.65005990069557L167.48021875,149.65526945907556L167.69106250000002,149.05096420783508L168.32359375000001,148.68026458015453L168.39387499999998,149.304027139343L169.02640624999998,149.5687620533129L169.16696875,149.4864927596531L169.272390625,149.44879924839142L169.90492187499999,149.29845687607917L170.045484375,149.77901175628784L170.29146875,149.61627922947832L170.748296875,149.5930296226237L170.959140625,149.57297726419682L171.451109375,149.86296332124297L171.872796875,149.61893333959665L172.39990625,149.42720219665742L172.68103125,149.57748963152846L172.71617187500001,149.72337642017666L173.489265625,149.09995016112313L173.629828125,149.2600277490663L174.121796875,149.53410020070507L174.543484375,149.84820376884406L174.578625,149.54828188488202L174.824609375,149.66002852296793L175.316578125,150.0097996574791L175.52742187500002,149.8532729629592L175.77340625,149.90273849934397L175.8436875,150.07302233612944L176.159953125,149.8524515189631L176.23023437499998,150.10284159133752L176.265375,150.0002787788673L176.933046875,149.9186152494072L177.03846875000002,149.79130651101622L177.354734375,149.5933638428794L177.81156249999998,149.0907856022747L178.30353125,149.53083264957428L178.6549375,149.61837930907083L179.2171875,149.78260359462104L179.603734375,149.71325402097256L180.236265625,150.03048583192998L180.587671875,150.01573561700488L180.62281249999998,149.98321362274956L180.83365625,149.98770961683584L181.079640625,149.3446398514306L181.220203125,149.36038950567962L181.25534375,149.31398903342648L181.290484375,149.59596286275462L182.063578125,149.55653647909335L182.09871875000002,149.46470833727676L182.23928125,149.92944728888324L182.3095625,149.9132552657988L182.625828125,149.51183511222325L182.76639062499999,149.72267383856374L183.78546875,149.39593397635585L183.820609375,148.92504913796068L184.136875,149.36604345971264L184.24229687500002,149.59670798547293L184.48828125,149.76815080497437L184.8396875,149.67646059624306L184.874828125,149.5729394582049L184.90996875,149.7606918421543L184.945109375,149.4926738795992L185.1208125,149.47852463399136L185.33165625,149.59798923889966L185.47221875,149.54385598471862L185.54250000000002,149.29606601141865L186.10475,149.30637322132014L186.31559374999998,149.68211560780279L186.350734375,149.59608335397263L186.631859375,149.14781339020502L187.29953125,149.0473593305668L187.896921875,149.45869342249514L188.810578125,149.52177399064976L189.6188125,149.80197031644323L190.075640625,149.61164800837446L190.1810625,149.0843073985584L191.27042187499998,148.6956979210981L191.3055625,148.7811607935575L191.86781249999999,148.416963932707L191.902953125,148.13978883498183L192.254359375,148.00739437988858L192.35978125,147.85534027929359L192.4300625,148.22742748464236L192.816609375,148.39415860215442L193.02745312500002,148.5198122697077L193.132875,149.16206102136348L193.2734375,149.38025933964352L193.90596875,149.0939953908558L193.941109375,148.9333912814642L194.08167187499998,149.40286968115163L194.18709375,149.28835022360965L194.257375,148.83704404336368L194.74934374999998,148.72766242799702L194.88990625,148.6913683090138L195.27645312500002,148.5796354106774L195.38187499999998,148.3643097844249L196.0846875,148.00278866963245L196.3658125,148.03038784953822L196.71721875,148.37245438551005L196.752359375,148.30528912405728L197.13890625000002,147.9527295170888L197.947140625,147.71391942257486L198.12284375,147.6500147891703L198.72023437500002,146.9335691119269L200.266421875,146.82481899946208L200.30156250000002,147.46984572394877L200.442125,146.9177146262385L200.58268750000002,147.28403006878057L201.21521875,146.8617909045275L201.4260625,146.47906763679384L201.461203125,146.98850368992447L202.937109375,146.7355185221789L203.218234375,147.18835646110966L203.499359375,147.44500492189866L203.53449999999998,148.02259671895493L204.131890625,147.69249359578475L204.58871875,147.7131685229463L204.72928124999999,147.31060766526372L205.11582812499998,147.95328009509404L205.537515625,147.62134883405037L205.64293750000002,147.02185459072524L205.71321875,147.2196155936689L205.85378125,147.5942250173864L206.13490625,147.62035612890585L208.24334375,148.0008856707146L208.45418750000002,147.91105657878626L208.489328125,147.9827877714428L208.55960937499998,147.94141141711577L209.08671875000002,147.75340493540187L209.332703125,147.9453216259269L210.1409375,147.9930161118448L210.2815,148.203828764219L210.66804687500002,147.832552407501L210.77346875,147.8905748279052L211.37085937499998,147.39965203235303L211.581703125,147.5974953059763L212.03853125,147.48451997354837L212.74134375,147.8293989322217L213.057609375,147.92061762143337L213.619859375,148.1012180887504L213.69014062500003,148.25900593828595L214.00640625,148.5096114595618L214.322671875,148.10817941337146L214.603796875,147.2011553726528L215.306609375,147.5390549247654L215.376890625,147.40922472966116L215.48231249999998,147.72935461378782L215.55259375,147.94654036087059L215.76343749999998,148.10828003734582L216.185125,148.50994001886946L216.220265625,148.30290065124154L216.46625,148.60288497597253L216.57167187500002,148.5774987610688L216.747375,148.70143851060482L216.99335937499998,148.15786685630715L217.06364062499998,148.01356368530935L218.85581249999998,148.3557882699953L219.242359375,148.06289110993922L219.34778125,147.91348326925163L219.523484375,147.3628502332529L220.085734375,147.6245995997778L220.226296875,147.6069639811116L220.2614375,147.73302878557575L220.33171875,147.4044411483418L220.68312500000002,147.13704434014178L220.8236875,147.2535564533543L220.96425000000002,147.5744454329712L221.280515625,147.51849538344163L221.31565625,147.18305282817343L221.491359375,147.47720983962228L221.63192187500002,147.3268508969211L221.6670625,147.30709598455732L222.19417187500002,147.6296270477781L223.28353125,147.9262448166428L223.70521875,148.40924396956856L223.951203125,148.08074757830923L224.12690625,148.79311754579692L224.618875,148.26526649377516L224.935140625,148.14928272332375L225.46225,147.98875824109652L225.84879687499998,147.64681505806186L226.09478125,148.06449057632165L226.12992187499998,147.56380902555793L226.23534375,147.7067404552867L226.4461875,147.63695019920587L227.78153125,147.99618422722023L227.88695312500002,148.23403422372908L227.957234375,148.26700987743138L228.06265625,147.98554492783873L228.097796875,147.9874023968176L228.23835937500002,147.95686765286004L229.362859375,147.79494107645482L229.854828125,147.06534861177494L230.80362499999998,147.523099958917L231.01446875,147.26706778772464L231.15503125,147.17881540513957L231.7875625,147.1237213104724L231.963265625,146.56270273561086L232.490375,146.6124602714393L232.595796875,146.85835776100834L232.70121875,147.06249801575186L233.439171875,148.1560249619818L233.82571875,147.99878852546283L234.28254687499998,148.42850661904777L234.3176875,148.99564122762482L234.66909375,149.45802581602678L234.774515625,148.98606275701317L234.91507812499998,148.74683155020352L235.51246875,148.64247450243846L235.58275,148.34758064205113L235.688171875,148.138227705201L236.42612499999998,147.81153506296306L236.49640625,147.2676207246795L236.67210937500002,148.2096527599446L237.05865625,148.32199774159278L237.33978125,148.50801499745717L237.48034375,148.67116537699795L238.077734375,149.13352490185952L238.288578125,148.72696619179402L238.639984375,148.20623816844815L238.710265625,148.11367334934022L238.92110937500001,147.94921043644328L239.0968125,148.5786145879113L239.272515625,148.67800501153815L239.3779375,148.89042353077986L239.905046875,148.38519327775876L239.9401875,149.18437444796035L240.888984375,148.08441938812953L241.170109375,148.17652922755545L241.521515625,148.1883827114765L241.9080625,148.91583517724507L242.64601562500002,148.68114741479894L242.856859375,148.62959109508196L243.24340625,148.48502238639117L243.278546875,148.71952299779903L244.403046875,149.10281699022744L244.43818750000003,149.06510545770638L244.64903124999998,148.93357545054147L246.47634375,148.92021038553082L246.546625,148.7014533692544L246.79260937499998,148.5554003020306L246.89803125,147.9109012983474L247.144015625,148.70896109319563L248.09281249999998,148.50830502386367L248.83076562500003,148.89622622045505L249.182171875,148.5320092774097L249.744421875,148.59632627601408L249.814703125,148.40885497102877L249.884984375,148.34454797014251L250.0606875,148.21443386437352L251.18518749999998,148.80617375155526L251.360890625,148.59914728378274L251.7474375,148.4386380584539L251.78257812500001,148.60695722977266L251.81771875,148.70192192383263L251.92314062499997,148.3915574206421L252.48539062499998,147.97270771747884L253.43418749999998,147.8911385223556L253.539609375,148.1535379589707L254.24242187500002,148.0265336595765L254.453265625,148.0264993005233L254.48840625,148.6759876288727L255.4020625,148.53455936194985L255.648046875,147.57381503233853L255.718328125,148.13959575557342L255.89403125,148.3647071897399L257.053671875,148.56579283237676L257.15909375,148.07776727431025L257.826765625,148.02428281022165L257.86190625,148.07613764905702L258.17817187500003,148.59465466431726L258.42415625,147.6675741906357L258.529578125,148.24271217929208L258.7755625,148.07023058339956L258.880984375,148.01931032193082L259.54865625,148.64924435902873L259.654078125,148.79316220731113L260.005484375,148.17724369259892" style="fill: none;" fill="none"></path></g></g></g></g><g opacity="0.20000000298023224"><g><g><g><path stroke="rgb(255, 112, 67)" stroke-width="2px" d="M35.456890625,31.172522369213397L35.5623125,30.59077527597546L35.8434375,29.63594052791595L35.878578125,32.670798043161625L35.91371875,31.264609801955515L36.1245625,30.75155730489641L36.370546874999995,31.970539257302875L36.440828124999996,28.71837320774793L36.792234375,30.527836144343013L36.932796875,31.241322959214443L37.003078124999995,32.6514435712248L37.354484375,31.748164218291635L37.846453125,31.02766061238944L37.916734375,31.967592629045242L38.057296875,31.781923250667745L38.338421875,30.382984986901278L38.373562500000006,31.06660274267196L39.14665625000001,31.68736616186797L39.252078125,32.29866433274L39.4980625,31.525216812640423L39.603484375,32.190858016163105L39.70890625,32.30717563666403L39.814328125,32.78895995616912L39.91974999999999,32.27918266821652L40.27115625,32.19523556102067L40.55228125,32.592235422134394L40.587421875000004,32.429322917386884L40.727984375,32.646334668993944L41.079390625,31.905077472701663L41.219953125,31.819784243963653L41.501078125,32.3941117696464L41.571359375,32.764199799299234L42.52015625,32.67975452113896L42.555296875,33.03959294818341L42.836421875000006,33.78780333921313L42.906703125,32.38717977367341L42.94184375,33.66315460428595L43.22296875,32.64551851656287L43.258109375000004,33.660250373557204L43.29325,33.40176323931664L43.468953125000006,32.910513671487564L43.78521875,33.53806069530546L44.171765625,33.77472370155155L44.452890624999995,34.34636958353221L44.5583125,34.452850977331394L45.015140624999994,33.85776986125856L45.19084375,33.490798049978906L45.296265625,33.96487661860883L45.436828125,34.504830347746605L45.436828125,34.504830347746605L46.03421875,34.731519335322076L46.069359375,34.365183486975724L46.280203125,33.97245517689734L46.385625000000005,35.44497435204684L46.420765625,32.99914570562541L46.455906250000005,35.09680584482848L46.491046874999995,35.22028864771127L46.5261875,33.41912502739578L46.73703125,34.78762186542153L46.912734375,34.51046921908855L47.685828125,33.9597359182313L47.756109375,35.49345592632889L47.826390625,35.18471712097525L47.966953124999996,36.225046486034984L48.107515625,35.324692562595004L48.3535,34.53817600421607L48.42378125,34.9736198246479L48.56434375,35.81690667420625L48.634625,35.63584802709519L48.669765625000004,36.372738277912134L48.70490624999999,35.2543020652607L48.845468749999995,35.753405775316054L48.915749999999996,35.13748627379536L48.950890625,36.61769000105559L49.0563125,34.205461396276945L49.091453125,35.460534245148295L49.161734375,35.83916537687182L49.232015625,36.160157068073744L49.3374375,35.35528237968683L49.3374375,35.35528237968683L49.759125,36.94826353378593L49.82940625,36.746991864778096L50.39165625,36.22678478471934L50.53221875,36.69947483427822L50.637640625,35.96310395319014L50.883624999999995,36.42144243922084L50.953906249999996,37.291450331360096L51.059328125,36.91587182171642L51.09446875,37.95106048639863L51.199890625,37.303682018443936L51.23503125,37.41145653687417L51.481015625000005,36.49040201995521L51.51615625,38.60094040855765L51.691859375,38.301560857705766L51.727,38.017274827137584L51.902703125,39.34592858739197L51.972984375,38.68251325413584L52.043265625000004,36.81890867315232L52.183828125000005,38.25530515369027L52.21896875,37.602287814393634L52.32439062500001,38.41989236082881L52.32439062500001,38.41989236082881L52.4298125,38.923373615741724L52.746078125,38.232802665233606L52.78121875,39.796656716987485L52.956921875,39.91284714490175L53.48403125,39.924750251136714L53.694875,39.9275272892788L53.800296874999994,40.67911888323724L53.870578124999994,40.36279092021286L53.90571875,40.24636730588972L53.976,40.8529487516731L54.081421875,41.4842585561797L54.151703125,41.119671605899924L54.32740625,41.05861916430294L54.432828125,41.328574830107385L54.538250000000005,42.344048643857235L54.713953124999996,41.9233061665669L55.45190625,43.622895907051856L55.5221875,43.17045067753642L55.5221875,43.17045067753642L55.557328125,43.69791833441704L55.873593750000005,44.47060269899666L56.0844375,44.89167375713586L56.330421875,44.95736872814595L56.78725,46.365772240236396L56.99809375,48.28830938637256L57.173796875,48.962260505557055L57.244078125,48.08795986361801L57.27921875,48.60457375310361L57.630624999999995,49.20538913495838L57.736046875,49.86962062064559L57.876609375,50.65317995138467L57.98203125,51.733129807189115L58.263156249999994,51.89394363425673L58.298296875,53.057946591079244L58.509140625,53.84105014838279L58.54428125,52.91449455209077L58.6145625,54.12331169694663L58.6145625,54.12331169694663L59.4579375,56.45657490417362L59.52821875,56.740935130417355L59.563359375000005,56.274477517604836L59.5985,57.945215739682325L59.985046875,59.04125545769931L60.195890625000004,60.025704879686245L60.23103125,59.38458004724235L60.37159375,61.58196977376939L60.441874999999996,61.91328526325525L60.8635625,63.36427709311248L60.898703125000004,63.45531518701465L61.07440625,65.4073504138738L61.21496875,65.68101586345584L61.28525,65.54594793580473L61.320390625,65.85267285853625L61.88264062499999,70.14982140194626L61.952921874999994,70.42630628719927L62.40975,73.87177857002244L62.690875,75.52879059212283L62.690875,75.52879059212283L62.972,76.51864039935172L63.04228125,78.7549351583235L63.323406250000005,81.56780981170014L63.323406250000005,81.56780981170014L63.709953125,83.65262349965052L63.815375,86.5836335675791L63.885656250000004,85.92875603670255L63.955937500000005,86.89841402079911L64.02621875,87.73418590836228L64.0965,88.72151836231352L64.30734375,90.32800312936307L64.44790625,93.30672631636263L64.553328125,93.64136471217499L64.693890625,95.99209040161223L64.834453125,96.11101547013969L64.904734375,97.55084085082636L64.939875,97.44125913772733L64.975015625,99.835034218058L65.045296875,99.75506717888639L65.15071875000001,101.02417890951038L65.326421875,103.23751540658996L65.502125,105.93065413869918L65.57240625,106.71390608735383L65.607546875,107.32528905328364L65.64268750000001,108.34406987428666L65.748109375,109.71824268149213L65.78325000000001,110.72437843950466L65.818390625,111.29282330805437L66.169796875,114.58232568148523L66.310359375,115.57296514268964L66.41578125,118.70578744811937L66.55634375,120.69001829847693L66.55634375,120.69001829847693L66.732046875,122.8927262650337L66.83746875,122.95973555943928L67.224015625,127.40182270519435L67.294296875,128.11221980014815L67.47,128.77959135281853L67.54028124999999,131.7072970633395L67.68084375,132.44056232543662L67.926828125,134.19088335908017L67.96196875,134.4466438022442L68.067390625,135.6676449369639L68.10253125,134.98285064976662L68.699921875,139.12867843781132L68.80534374999999,140.4161946707405L69.121609375,140.16124243047088L69.2973125,140.51254305513575L69.332453125,141.55255178888328L69.36759375,140.83854957905132L69.683859375,141.29217266491614L69.92984375,141.62120133768767L69.964984375,142.88057621081825L70.28125,143.61151623344048L70.35153125,143.5292650274001L70.49209375,142.75914571331813L70.80835937500001,143.15414759088307L70.91378125,143.77893612547777L71.33546874999999,144.332274224516L71.5463125,144.66810107605997L71.61659374999999,144.45202736977953L71.61659374999999,144.45202736977953L71.651734375,145.05317265740595L71.686875,144.4060406250879L71.75715625,144.37151048765517L71.8274375,145.1707423299318L71.968,143.66928021670319L72.21398437500001,144.7321226696018L72.811375,145.4051648917608L72.88165624999999,145.1747382970294L73.02221875,144.94530141961295L73.16278125,145.2259982343763L73.373625,144.73401465932838L73.549328125,145.20572956572286L73.58446875,145.57372289246413L73.61960937500001,144.60815494498237L73.72503125,146.31485289616975L73.76017187500001,144.8010637014173L73.90073437500001,146.0674036935903L73.97101562499999,144.39808578873053L74.322421875,146.0685510767158L74.42784375,145.6067121447064L74.42784375,145.6067121447064L74.462984375,146.2630073429551L74.533265625,145.4249605629826L74.603546875,145.33681477550417L74.603546875,145.33681477550417L74.744109375,145.40005466460715L74.77925,145.2167900210712L74.884671875,145.8166289348388L75.20093750000001,146.00212342340964L75.37664062500001,144.22812601972836L75.4820625,145.95711049695964L75.58748437499999,144.66389179639518L75.657765625,145.0983909468865L75.86860937499999,145.63349015896674L75.90375,145.4790094627766L76.3254375,145.5138681810582L76.501140625,145.10223984755575L77.09853125,145.98458542060106L77.13367187499999,145.19452071902342L77.1688125,145.0484731563134L77.414796875,145.2826148345135L77.94190625,146.71631244735326L78.08246875,146.20187408106867L78.18789062500001,146.57325656027533L78.22303125,146.08590226541273L78.258171875,146.2722274805652L78.36359374999999,144.76012093774042L78.78528125,145.96477252538315L78.820421875,147.20549381072632L78.996125,146.59107677163556L79.031265625,145.63964045050088L79.101546875,146.6701256393222L79.34753125,144.5296426710207L79.45295312500001,145.08543452704325L79.62865625,145.01436036955565L79.874640625,146.24891943905968L79.94492187499999,145.5381394414231L79.98006249999999,146.9146361631807L80.436890625,146.11500551914796L80.647734375,145.58425470362417L80.8234375,145.67764056068845L80.928859375,144.3935996002052L81.209984375,145.02625552625395L81.31540625,146.80006744074635L81.35054687499999,146.1632671562489L81.59653125,145.9158100041328L81.701953125,145.78999401223845L81.772234375,145.292857812508L82.193921875,146.64783778835553L82.29934375,145.0280057492433L82.40476562500001,145.7283029578626L82.615609375,146.12835809090174L82.75617187499999,146.2921768428292L83.00215625,145.9600491756806L83.213,145.18199489908292L83.28328125,144.91660491717047L83.529265625,146.30182758034206L83.529265625,146.30182758034206L83.56440625,144.87843389194458L84.12665625000001,146.21175403022207L84.16179687500001,145.63395255701616L84.16179687500001,145.63395255701616L84.4780625,144.9096543722786L84.7591875,145.70657157446257L84.82946875,144.96386756249703L85.6025625,144.43812760491855L85.74312499999999,145.5080000980757L85.91882812499999,145.62055493788793L86.02425,145.71184476711787L86.09453125,145.12889729384332L86.37565625,145.58906417330726L86.410796875,144.476313204295L86.4459375,146.47857890350278L87.254171875,144.7197293419391L87.394734375,145.13073893650434L87.816421875,143.76197181423194L87.956984375,145.79009470636956L88.027265625,144.7145396194188L88.097546875,144.79914521323516L88.1326875,145.25122078929562L88.308390625,145.2372097309213L88.37867187500001,144.27677055951207L88.51923437500001,144.65764478549826L88.55437500000001,146.1875158929266L88.9760625,144.90707077286206L89.04634374999999,145.15682534107472L89.081484375,145.8815276272595L89.573453125,144.93075641735922L89.995140625,145.21720869666896L90.241125,145.4744490785757L90.3816875,144.90602408386766L90.487109375,145.04121125456876L90.557390625,145.61168325496837L90.6628125,145.5883248663973L90.9439375,145.89740285198204L91.260203125,145.82839159925933L91.29534375,144.20850523831322L91.400765625,146.08658990033436L91.47104687500001,145.48446946954354L91.892734375,145.4406781218946L91.927875,145.53991881271358L92.0684375,143.61019926019944L92.103578125,145.4785576641094L92.13871875,146.39633167223073L92.173859375,145.24761832426302L92.173859375,145.24761832426302L92.63068750000001,144.21114183464087L92.77125000000001,144.69777007182128L93.1929375,144.59240823776926L93.3335,144.97359117076266L93.57948437499999,143.53470251047983L93.614625,145.12319085143972L93.89575,145.24557264349423L94.42285937499999,144.63551990003324L94.45800000000001,144.19577008057385L94.633703125,145.16871387315913L94.914828125,143.7130848135799L95.02025,145.06805419004522L95.406796875,144.78228557088877L95.44193750000001,145.54894948636647L95.547359375,144.21643225129228L95.72306250000001,143.61158777927048L95.75820312500001,143.82251548548228L95.89876562500001,144.46412391474004L96.0041875,143.00843920840416L96.10960937499999,143.06891530859284L96.21503125,144.10931091979145L96.2853125,142.76831152909435L96.5664375,144.9874988851603L96.77728125,143.4190804744372L96.8475625,143.32785026673227L96.952984375,143.954373125243L97.234109375,143.46669024953152L97.26925,144.22281705415807L97.37467187499999,143.89180232214275L97.444953125,142.12681041858158L97.726078125,144.0752153570298L98.04234375,144.7197995628463L98.39375,144.33955864994786L98.71001562500001,143.55011136238463L98.74515625000001,144.35251374486833L98.780296875,142.39233819246292L98.81543749999999,144.7987265376374L98.88571875,143.12138357551302L99.16684375,143.06843701147008L99.3776875,142.88388189314864L99.623671875,142.32498176828958L100.15078125000001,142.5124450921081L100.185921875,144.04896598695777L100.607609375,142.95762444511055L100.677890625,143.1328640313819L100.71303125,143.63613064880482L100.818453125,143.95977881017606L100.85359375,143.83699159175157L100.888734375,142.96093410220928L101.0644375,143.8926250991877L101.169859375,143.08011488083284L101.41584375000001,144.46673931230325L101.55640625000001,143.4064963578945L101.76724999999999,142.96261940398253L101.80239062499999,142.60566533382516L101.872671875,142.14540835961233L102.08351562499999,143.25037275745998L102.153796875,143.46144488025456L102.22407812499999,143.7888558223145L102.25921875,144.0631956575904L102.434921875,144.54589947350323L102.505203125,143.91120581622235L103.0323125,144.1444120989414L103.10259375000001,143.1258975874167L103.24315625000001,144.3162294096779L104.01625,143.61322538382373L104.1568125,144.21410833674017L104.262234375,143.50242341684643L104.332515625,142.5182164557278L104.54335937500001,144.01055117594078L104.64878125000001,143.0440743314335L104.75420312499999,142.63009823476895L105.14075,142.35140602816827L105.316453125,142.81724755188915L105.421875,143.02489474930334L105.5624375,143.18757406764198L105.597578125,143.86700904220342L105.80842187500001,143.69277507232036L105.984125,144.25405343356542L106.05440625,143.535917464667L106.230109375,143.86802790781948L107.03834375,144.2381464106962L107.143765625,142.78469552416354L107.143765625,142.78469552416354L107.31946875,143.2500322523061L108.61967187500001,144.55325544476509L108.795375,144.84651120253838L108.830515625,143.8442177205812L108.86565625,142.7040050771553L108.90079687500001,143.46654053325764L108.93593750000001,143.18289046562276L108.971078125,144.19226433490402L109.392765625,143.51132159822154L109.4981875,142.9978729492519L109.533328125,142.95864728549495L109.673890625,144.4296891717473L109.884734375,144.00632997197098L110.025296875,142.6998739679344L110.095578125,142.80443554862867L110.095578125,142.80443554862867L110.376703125,144.52613030073698L110.657828125,144.16800234899856L110.76325,143.3177066579461L110.83353125,143.40109464772976L110.97409375,144.1554275069153L111.00923437499999,143.88582957026082L111.1849375,143.5502677032724L111.25521875,142.96313082417473L111.360640625,143.89967368836514L111.430921875,145.95453087231144L111.88775000000001,144.17699857465922L112.063453125,144.14686453100293L112.3094375,143.86605774764902L112.45,143.7544065051712L112.555421875,143.69748384787235L112.625703125,142.99530789875425L112.625703125,142.99530789875425L112.977109375,142.81845985623076L113.01225000000001,144.58086021083872L113.117671875,143.45762910265475L113.64478125,145.9847020138055L113.750203125,144.30127368136309L114.031328125,143.758484617481L114.06646875,144.11629061298444L114.34759375,144.1333370694425L114.382734375,144.08802736029028L114.699,144.70192767949774L114.73414062500001,144.7545589119196L114.76928125,145.05718982326798L114.94498437499999,145.00765361045487L115.12068749999999,144.8782192544546L115.577515625,145.56191650559194L115.61265625,144.5942313315114L115.8235,143.7658140902873L115.858640625,144.73916860893368L115.89378125,144.59418230936862L115.928921875,144.0032323025167L116.13976562500001,143.4187545434339L116.45603125,145.22972921691834L116.80743749999999,143.64624643421266L116.948,144.5441717742011L117.0885625,144.6881378832273L117.15884375,145.77978150746785L117.26426562500001,144.4746954735834L117.29940625,143.40342518689576L117.29940625,143.40342518689576L117.475109375,144.99305031159892L117.93193749999999,144.41828953616786L118.037359375,145.14108128370717L118.318484375,144.69681877726688L118.4941875,146.4232276046183L118.56446875,144.17146834698505L118.599609375,142.7517460196046L118.740171875,144.4575509728398L118.84559375,143.77853997356723L118.880734375,145.31186117990873L119.0564375,144.68974501455668L119.12671875000001,143.5934085138375L119.232140625,144.6980125326896L119.26728125000001,144.3421541736694L119.37270312499999,144.45802926996257L119.47812499999999,145.2659817539621L119.51326562499999,145.05771979237906L119.54840625,145.29846621062606L120.1809375,144.72806973082479L120.39178125000001,144.30559292961843L120.70804687500001,145.49040247374214L120.7431875,144.12665680879726L121.09459375,144.10653918134048L121.129734375,144.53626198521815L121.481140625,145.8275727969827L121.902828125,143.64055324103683L121.93796875000001,145.5107241393067L122.183953125,145.00059044712688L122.32451562499999,144.7808400801383L122.46507812499999,144.8212396254763L122.535359375,142.55820262515917L122.5705,145.2111961971037L122.5705,145.2111961971037L123.34359375,144.96755084781907L123.449015625,146.33145682842004L123.51929687500001,144.20234434739686L123.62471875,145.07291533171664L123.87070312499999,143.87190065709873L123.90584374999999,144.82347344527952L123.90584374999999,144.82347344527952L124.04640624999999,145.30898477255832L124.362671875,145.36943569921422L124.74921875,143.3584983804263L124.854640625,145.07732732456643L125.20604687500001,145.57125588625203L125.2411875,146.16588785350322L125.346609375,144.37822784613817L125.8034375,144.9067289427854L125.87371875,144.96460421956144L126.119703125,145.46134294245857L126.18998437500001,145.7975646209903L126.50625000000001,145.17698669098317L126.64681250000001,145.03180695269256L127.033359375,146.47483069696463L127.103640625,144.88668683592695L127.173921875,145.14510639910586L127.2090625,143.3914439102169L127.665890625,145.72484490941278L128.0524375,143.83429802374448L128.298421875,144.82256189840845L128.579546875,145.45089857620187L128.75525000000002,144.91406106543727L129.036375,144.40518737481906L129.282359375,145.52943999846465L129.3175,144.6754822208546L129.66890625,145.91016450817696L130.09059375,144.9302171737887L130.125734375,144.253281003586L130.37171874999999,145.92058635074645L130.68798437499998,145.6310854241252L130.758265625,145.74596152864396L130.828546875,145.87315544022712L131.49621875,144.86420952100306L131.60164062500002,144.93870860387105L131.671921875,146.136367249093L131.77734375,145.57301935846917L131.882765625,145.49290922763757L131.98818749999998,145.8026536493795L132.023328125,145.28482215586118L132.05846875,144.62581881545483L132.48015625,146.5113031711895L132.62071875,144.26425268910825L132.936984375,145.82765891696326L133.007265625,147.08226141824852L133.04240625,145.40757625121623L133.25324999999998,145.28570190458558L133.288390625,144.5233651868999L133.3938125,145.01686182375997L133.60465625,145.1212127417326L133.710078125,146.24315999974496L133.88578125,144.89883372795302L134.061484375,145.63339608944952L134.553453125,145.200954544032L134.58859375,146.681159596215L134.658875,145.51078641067724L134.904859375,144.81383860684L135.6428125,144.7928067826666L135.67795312500002,144.60965873233508L135.99421875000002,145.3410386293195L136.310484375,144.38769309446215L136.62675,145.54411219330504L136.66189062499998,145.3822238538647L136.7673125,144.0523697135737L136.83759375,145.97986737058963L137.153859375,144.1738850061316L137.189,145.76062577394768L137.470125,144.06151433058548L137.54040625000002,144.36152321975678L137.64582812499998,145.3931743406225L138.137796875,145.61428407838102L138.1729375,145.6478311231127L138.278359375,145.33814632289577L138.594625,144.50797223406843L138.629765625,143.83376937955617L138.770328125,145.8224956928985L138.910890625,145.84400581419467L139.08659375000002,144.37657699235714L139.12173437500002,146.66072928698267L139.2974375,144.63907334292307L139.36771875,145.115422829194L139.36771875,145.115422829194L139.719125,144.53207522924058L139.78940625,145.09407037370838L139.824546875,145.0488958066795L139.894828125,145.68754568337462L140.07053125000002,143.29591035332996L140.38679687500002,144.11900140498764L140.73820312499998,144.3160333211068L140.80848437499998,144.2690237360308L140.9841875,144.22220493983477L141.08960937499998,144.3489497025963L141.08960937499998,144.3489497025963L141.159890625,145.45490514268167L141.230171875,144.56356069413013L141.61671875000002,145.40935429758392L141.932984375,144.0780983889941L142.003265625,143.8408603662625L142.073546875,144.471997930808L142.354671875,144.1886923430953L142.38981249999998,145.37604308910667L142.56551562500002,145.04053289410658L142.67093749999998,144.5835776274558L142.706078125,143.35686607556417L142.8115,144.33182110092602L142.84664062500002,143.51685580066405L142.88178125,144.20902593296486L143.092625,144.47608001788612L143.12776562500002,144.29607998407445L143.16290625,143.31746684692334L143.58459375,142.82088711475953L143.72515625,142.8677920309361L143.7954375,144.14694667621515L144.0765625,144.8044873018749L144.252265625,144.11711206510662L144.252265625,144.11711206510662L144.28740625,143.7606906139059L144.392828125,144.38185548470355L144.6388125,144.79260539440438L144.70909375000002,143.63665664314757L144.84965625,145.20620786284562L144.955078125,144.4991641474422L145.165921875,145.74952292107045L145.62275,143.19344082570169L146.0444375,144.3207778695738L146.11471875,144.01986935783643L146.11471875,144.01986935783643L146.25528125,144.54355171034112L146.53640625,143.11535385195165L146.74725,144.24759046025574L146.922953125,143.8192455760669L147.06351562499998,145.08332922474946L147.1689375,145.11279815717134L147.59062500000002,145.8858309764415L149.52335937499998,150.26684315691236L149.663921875,149.72008926161797L150.12075000000002,148.49332405035383L150.507296875,149.38553897317033L150.647859375,149.45230116947786L150.928984375,150.1593501845724L150.964125,149.2987432820024L151.10468749999998,149.46161868891213L151.45609374999998,150.20308522300328L151.8075,149.15930045933928L151.842640625,150.25942292689578L151.87778125,150.062809023913L152.15890625,150.09858657614095L152.86171875,150.05756431709742L153.70509374999997,149.9007630186621L153.91593749999998,148.37778813429176L153.951078125,147.90367511766962L154.0565,149.4307135401992L154.40790625,149.40167918244842L154.724171875,149.07015501762507L154.82959375,148.91939006736501L155.181,149.49745917497202L155.356703125,149.0509164764313L156.621765625,148.77518282239325L156.93803125,149.03806870025582L157.0083125,149.12222647017333L157.148875,149.58397000774275L157.35971874999998,148.34234115029685L157.465140625,149.77853624257259L157.711125,148.97637433357303L157.99225,149.54004484289325L158.09767187499997,148.44263912949245L158.37879687499998,148.14761724965646L158.519359375,148.83087065166328L158.65992187499998,149.72469800550024L159.46815625000002,148.1031727150781L159.60871874999998,148.07621186147443L159.85470312500001,150.55594991900725L159.995265625,149.32469586937222L160.3818125,147.74294873550534L160.80349999999999,148.28206113867927L161.36575,149.02806884559104L162.244265625,148.9273157554213L162.77137499999998,150.25734014828922L163.26334375,148.3054447007831L163.54446875,148.67364074070937L163.82559375,147.2330018574372L164.0364375,149.18400231960695L164.07157812499997,149.04867669447557L164.66896875,148.90151155940256L164.985234375,147.46861552484333L165.477203125,149.63458073292858L165.58262499999998,147.5697243567789L166.35571875,149.68854748751036L166.95310937500003,150.05977892552036L167.374796875,150.107523842738L167.48021875,149.6630837966455L167.69106250000002,148.1445063309744L168.32359375000001,148.12421513863373L168.39387499999998,150.23967097812564L169.02640624999998,149.96586442426778L169.16696875,149.36308881916338L169.272390625,149.39225898149888L169.90492187499999,149.07294331761076L170.045484375,150.49984407660085L170.29146875,149.37218043926404L170.748296875,149.5581552123418L170.959140625,149.54289872655644L171.451109375,150.2979424068122L171.872796875,149.25288836712716L172.39990625,149.13960548224858L172.68103125,149.802920783835L172.71617187500001,149.94220660314895L173.489265625,148.16481077254284L173.629828125,149.50014413098106L174.121796875,149.94520887816324L174.543484375,150.31935912105254L174.578625,149.09839905893895L174.824609375,149.82764848009683L175.316578125,150.5344563592458L175.52742187500002,149.61848292117938L175.77340625,149.97693680392112L175.8436875,150.32844809130765L176.159953125,149.5215952932136L176.23023437499998,150.47842669989913L176.265375,149.846434560162L176.933046875,149.796119955217L177.03846875000002,149.60034340342972L177.354734375,149.29644984067417L177.81156249999998,148.33691824136767L178.30353125,150.1909032205236L178.6549375,149.74969929831568L179.2171875,150.02894002294633L179.603734375,149.60922966049984L180.236265625,150.5063335483661L180.587671875,149.99361029461724L180.62281249999998,149.93443063136655L180.83365625,149.99445360796526L181.079640625,148.38003520332276L181.220203125,149.38401398705318L181.25534375,149.24438832504674L181.290484375,150.01892360674682L182.063578125,149.49739690360147L182.09871875000002,149.32696612455183L182.23928125,150.62655571629293L182.3095625,149.88896723117213L182.625828125,148.90970488185994L182.76639062499999,150.03893192807445L183.78546875,148.90582418304402L183.820609375,148.21872188036795L184.136875,150.02753494234057L184.24229687500002,149.94270477411337L184.48828125,150.0253150342265L184.8396875,149.53892528314609L184.874828125,149.41765775114763L184.90996875,150.04232041807845L184.945109375,149.09064693576656L185.1208125,149.45730076557956L185.33165625,149.7771861462621L185.47221875,149.46265610344707L185.54250000000002,148.92438105146866L186.10475,149.32183403617236L186.31559374999998,150.24572918752673L186.350734375,149.4670349732274L186.631859375,148.4754084445536L187.29953125,148.89667824110947L187.896921875,150.07569456038763L188.810578125,149.6163948428817L189.6188125,150.22226480513345L190.075640625,149.32616454627131L190.1810625,148.29329648383427L191.27042187499998,148.11278370490763L191.3055625,148.90935510224662L191.86781249999999,147.87066864143125L191.902953125,147.72402618839405L192.254359375,147.80880269724875L192.35978125,147.62725912840105L192.4300625,148.7855582926655L192.816609375,148.6442552784225L193.02745312500002,148.70829277103766L193.132875,150.12543414884712L193.2734375,149.7075568170636L193.90596875,148.66459946767426L193.941109375,148.69248511737678L194.08167187499998,150.10708728068275L194.18709375,149.11657103729667L194.257375,148.16008477299474L194.74934374999998,148.56359000494703L194.88990625,148.63692713053896L195.27645312500002,148.41203606317285L195.38187499999998,148.04132134504616L196.0846875,147.46050699744373L196.3658125,148.07178661939687L196.71721875,148.8855541894678L196.752359375,148.2045412318781L197.13890625000002,147.4238901066361L197.947140625,147.3557042808039L198.12284375,147.55415783906355L198.72023437500002,145.85890059606172L200.266421875,146.66169383076485L200.30156250000002,148.43738581067882L200.442125,146.0895179796731L200.58268750000002,147.83350323259364L201.21521875,146.2284321581479L201.4260625,145.90498273519333L201.461203125,147.7526577696204L202.937109375,146.3560407705605L203.218234375,147.86761336950585L203.499359375,147.82997761308215L203.53449999999998,148.8889844145393L204.131890625,147.1973389110295L204.58871875,147.7441809136886L204.72928124999999,146.70676637873984L205.11582812499998,148.91728873983956L205.537515625,147.12345194248482L205.64293750000002,146.12261322573758L205.71321875,147.5162570980843L205.85378125,148.1561391529627L206.13490625,147.659552796185L208.24334375,148.57167998342774L208.45418750000002,147.7763129408937L208.489328125,148.09038456042762L208.55960937499998,147.87934688562527L209.08671875000002,147.47139521283097L209.332703125,148.23319666171446L210.1409375,148.06455784072168L210.2815,148.5200477427803L210.66804687500002,147.27563787242397L210.77346875,147.97760845851153L211.37085937499998,146.66326783902477L211.581703125,147.8942602164112L212.03853125,147.31505697490647L212.74134375,148.34671737023163L213.057609375,148.05744565525092L213.619859375,148.37211878972593L213.69014062500003,148.49568771258927L214.00640625,148.88551974147558L214.322671875,147.50603134408593L214.603796875,145.84061931157484L215.306609375,148.04590425293426L215.376890625,147.21447943700477L215.48231249999998,148.20954943997785L215.55259375,148.27231898149475L215.76343749999998,148.35088955205865L216.185125,149.11242999115493L216.220265625,147.9923415997997L216.46625,149.05286146306898L216.57167187500002,148.53941943871322L216.747375,148.88734813490882L216.99335937499998,147.34250937486067L217.06364062499998,147.79710892881266L218.85581249999998,148.86912514702416L219.242359375,147.62354536985512L219.34778125,147.6893715082202L219.523484375,146.5369006792549L220.085734375,148.01722364956512L220.226296875,147.58051055311225L220.2614375,147.92212599227204L220.33171875,146.91155969249084L220.68312500000002,146.73594912784174L220.8236875,147.4283246231731L220.96425000000002,148.05577890239655L221.280515625,147.43457030914723L221.31565625,146.67988899527117L221.491359375,147.91844535679556L221.63192187500002,147.10131248286925L221.6670625,147.27746361601166L222.19417187500002,148.11342364260926L223.28353125,148.37117146993987L223.70521875,149.1337426989572L223.951203125,147.5880029914202L224.12690625,149.86167249702848L224.618875,147.47348991574253L224.935140625,147.97530706764664L225.46225,147.74797151775564L225.84879687499998,147.13390028350986L226.09478125,148.6910038537113L226.12992187499998,146.81278669941238L226.23534375,147.92113759987987L226.4461875,147.53226481508463L227.78153125,148.53503526924177L227.88695312500002,148.59080921849235L227.957234375,148.3164733579848L228.06265625,147.56334750344976L228.097796875,147.9901886002859L228.23835937500002,147.9110655369237L229.362859375,147.552051211847L229.854828125,145.97095991475507L230.80362499999998,148.20972697963006L231.01446875,146.88301953093614L231.15503125,147.04643683126196L231.7875625,147.04108016847167L231.963265625,145.72117487331852L232.490375,146.68709657518193L232.595796875,147.22720399536192L232.70121875,147.36870839786715L233.439171875,149.7963153813267L233.82571875,147.76293387068435L234.28254687499998,149.0730837594252L234.3176875,149.84634314049035L234.66909375,150.15160269862972L234.774515625,148.2781181684928L234.91507812499998,148.38798473998904L235.51246875,148.48593893079087L235.58275,147.9052398514701L235.688171875,147.82419829992577L236.42612499999998,147.32149609960615L236.49640625,146.4517492172541L236.67210937500002,149.62270081284223L237.05865625,148.49051521406508L237.33978125,148.78704088125377L237.48034375,148.91589094630908L238.077734375,149.82706418915186L238.288578125,148.11712812669575L238.639984375,147.42514613342937L238.710265625,147.97482612067833L238.92110937500001,147.7025160670979L239.0968125,149.52272081511327L239.272515625,148.82709064697846L239.3779375,149.20905130964238L239.905046875,147.62734789822716L239.9401875,150.38314620326273L240.888984375,146.4344867983833L241.170109375,148.31469398669432L241.521515625,148.20616293735802L241.9080625,150.00701387589797L242.64601562500002,148.32911577112972L242.856859375,148.55225661550648L243.24340625,148.26816932335495L243.278546875,149.07127391491085L244.403046875,149.67775797887006L244.43818750000003,149.00853815892478L244.64903124999998,148.73628043979406L246.47634375,148.90016278801485L246.546625,148.37331784483976L246.79260937499998,148.33632070119492L246.89803125,146.94415279282256L247.144015625,149.90605078546795L248.09281249999998,148.20732091986574L248.83076562500003,149.47810801534214L249.182171875,147.98568386284168L249.744421875,148.69280177392065L249.814703125,148.12764801355078L249.884984375,148.24808746881317L250.0606875,148.01926270572002L251.18518749999998,149.69378358232788L251.360890625,148.28860758212394L251.7474375,148.19787422046065L251.78257812500001,148.85943598675075L251.81771875,148.8443689649226L251.92314062499997,147.9260106658563L252.48539062499998,147.3444331627339L253.43418749999998,147.76878472967073L253.539609375,148.5471371138934L254.24242187500002,147.83602721048518L254.453265625,148.02644776194356L254.48840625,149.6502201213967L255.4020625,148.3224169615656L255.648046875,146.13269853792153L255.718328125,148.98826684042578L255.89403125,148.70237434098962L257.053671875,148.86742129633203L257.15909375,147.3457289372105L257.826765625,147.94405611408874L257.86190625,148.15391990731004L258.17817187500003,149.37243018720764L258.42415625,146.2769534801133L258.529578125,149.10541916227666L258.7755625,147.81150818956084L258.880984375,147.94292992972768L259.54865625,149.59414541467558L259.654078125,149.00903897973475L260.005484375,147.25336592053063" style="fill: none;" fill="none"></path></g></g></g></g></g></g><g transform="translate(48, 177)" clip-path="url(#clip_1)"><clipPath id="clip_1"><rect width="281" height="22"></rect></clipPath><g><g><line x1="0" y1="0" x2="0" y2="5" style="visibility: inherit;" fill="rgb(0, 0, 0)" stroke="rgb(204, 204, 204)" stroke-width="1px"></line><line x1="35.140625" y1="0" x2="35.140625" y2="5" style="visibility: inherit;" fill="rgb(0, 0, 0)" stroke="rgb(204, 204, 204)" stroke-width="1px"></line><line x1="70.28125" y1="0" x2="70.28125" y2="5" style="visibility: inherit;" fill="rgb(0, 0, 0)" stroke="rgb(204, 204, 204)" stroke-width="1px"></line><line x1="105.421875" y1="0" x2="105.421875" y2="5" style="visibility: inherit;" fill="rgb(0, 0, 0)" stroke="rgb(204, 204, 204)" stroke-width="1px"></line><line x1="140.5625" y1="0" x2="140.5625" y2="5" style="visibility: inherit;" fill="rgb(0, 0, 0)" stroke="rgb(204, 204, 204)" stroke-width="1px"></line><line x1="175.703125" y1="0" x2="175.703125" y2="5" style="visibility: inherit;" fill="rgb(0, 0, 0)" stroke="rgb(204, 204, 204)" stroke-width="1px"></line><line x1="210.84375" y1="0" x2="210.84375" y2="5" style="visibility: inherit;" fill="rgb(0, 0, 0)" stroke="rgb(204, 204, 204)" stroke-width="1px"></line><line x1="245.984375" y1="0" x2="245.984375" y2="5" style="visibility: inherit;" fill="rgb(0, 0, 0)" stroke="rgb(204, 204, 204)" stroke-width="1px"></line><line x1="281.125" y1="0" x2="281.125" y2="5" style="visibility: inherit;" fill="rgb(0, 0, 0)" stroke="rgb(204, 204, 204)" stroke-width="1px"></line></g><g transform="translate(0, 8)"><text x="0" y="0" dx="0em" dy="0.95em" style="text-anchor: middle; visibility: hidden; font-family: &quot;Helvetica Neue&quot;, sans-serif; font-size: 12px; font-weight: 200;" fill="rgb(50, 49, 63)" stroke="none" stroke-width="1px">-1k</text><text x="35.140625" y="0" dx="0em" dy="0.95em" style="text-anchor: middle; visibility: inherit; font-family: &quot;Helvetica Neue&quot;, sans-serif; font-size: 12px; font-weight: 200;" fill="rgb(50, 49, 63)" stroke="none" stroke-width="1px">0</text><text x="70.28125" y="0" dx="0em" dy="0.95em" style="text-anchor: middle; visibility: inherit; font-family: &quot;Helvetica Neue&quot;, sans-serif; font-size: 12px; font-weight: 200;" fill="rgb(50, 49, 63)" stroke="none" stroke-width="1px">1k</text><text x="105.421875" y="0" dx="0em" dy="0.95em" style="text-anchor: middle; visibility: inherit; font-family: &quot;Helvetica Neue&quot;, sans-serif; font-size: 12px; font-weight: 200;" fill="rgb(50, 49, 63)" stroke="none" stroke-width="1px">2k</text><text x="140.5625" y="0" dx="0em" dy="0.95em" style="text-anchor: middle; visibility: inherit; font-family: &quot;Helvetica Neue&quot;, sans-serif; font-size: 12px; font-weight: 200;" fill="rgb(50, 49, 63)" stroke="none" stroke-width="1px">3k</text><text x="175.703125" y="0" dx="0em" dy="0.95em" style="text-anchor: middle; visibility: inherit; font-family: &quot;Helvetica Neue&quot;, sans-serif; font-size: 12px; font-weight: 200;" fill="rgb(50, 49, 63)" stroke="none" stroke-width="1px">4k</text><text x="210.84375" y="0" dx="0em" dy="0.95em" style="text-anchor: middle; visibility: inherit; font-family: &quot;Helvetica Neue&quot;, sans-serif; font-size: 12px; font-weight: 200;" fill="rgb(50, 49, 63)" stroke="none" stroke-width="1px">5k</text><text x="245.984375" y="0" dx="0em" dy="0.95em" style="text-anchor: middle; visibility: inherit; font-family: &quot;Helvetica Neue&quot;, sans-serif; font-size: 12px; font-weight: 200;" fill="rgb(50, 49, 63)" stroke="none" stroke-width="1px">6k</text><text x="281.125" y="0" dx="0em" dy="0.95em" style="text-anchor: middle; visibility: hidden; font-family: &quot;Helvetica Neue&quot;, sans-serif; font-size: 12px; font-weight: 200;" fill="rgb(50, 49, 63)" stroke="none" stroke-width="1px">7k</text></g><line x1="0" y1="0" x2="281.125" y2="0" fill="rgb(0, 0, 0)" stroke="rgb(204, 204, 204)" stroke-width="1px"></line></g></g></g></g></svg>