<svg viewBox="0 0 330 200" xmlns="http://www.w3.org/2000/svg"><g><g><g><g><g><line x1="48.875" y1="177.828125" x2="43.875" y2="177.828125" style="visibility: inherit;" fill="rgb(0, 0, 0)" stroke="rgb(204, 204, 204)" stroke-width="1px"></line><line x1="48.875" y1="164.14903846153845" x2="43.875" y2="164.14903846153845" style="visibility: inherit;" fill="rgb(0, 0, 0)" stroke="rgb(204, 204, 204)" stroke-width="1px"></line><line x1="48.875" y1="150.4699519230769" x2="43.875" y2="150.4699519230769" style="visibility: inherit;" fill="rgb(0, 0, 0)" stroke="rgb(204, 204, 204)" stroke-width="1px"></line><line x1="48.875" y1="136.7908653846154" x2="43.875" y2="136.7908653846154" style="visibility: inherit;" fill="rgb(0, 0, 0)" stroke="rgb(204, 204, 204)" stroke-width="1px"></line><line x1="48.875" y1="123.11177884615384" x2="43.875" y2="123.11177884615384" style="visibility: inherit;" fill="rgb(0, 0, 0)" stroke="rgb(204, 204, 204)" stroke-width="1px"></line><line x1="48.875" y1="109.4326923076923" x2="43.875" y2="109.4326923076923" style="visibility: inherit;" fill="rgb(0, 0, 0)" stroke="rgb(204, 204, 204)" stroke-width="1px"></line><line x1="48.875" y1="95.75360576923076" x2="43.875" y2="95.75360576923076" style="visibility: inherit;" fill="rgb(0, 0, 0)" stroke="rgb(204, 204, 204)" stroke-width="1px"></line><line x1="48.875" y1="82.07451923076924" x2="43.875" y2="82.07451923076924" style="visibility: inherit;" fill="rgb(0, 0, 0)" stroke="rgb(204, 204, 204)" stroke-width="1px"></line><line x1="48.875" y1="68.39543269230768" x2="43.875" y2="68.39543269230768" style="visibility: inherit;" fill="rgb(0, 0, 0)" stroke="rgb(204, 204, 204)" stroke-width="1px"></line><line x1="48.875" y1="54.71634615384616" x2="43.875" y2="54.71634615384616" style="visibility: inherit;" fill="rgb(0, 0, 0)" stroke="rgb(204, 204, 204)" stroke-width="1px"></line><line x1="48.875" y1="41.03725961538461" x2="43.875" y2="41.03725961538461" style="visibility: inherit;" fill="rgb(0, 0, 0)" stroke="rgb(204, 204, 204)" stroke-width="1px"></line><line x1="48.875" y1="27.358173076923066" x2="43.875" y2="27.358173076923066" style="visibility: inherit;" fill="rgb(0, 0, 0)" stroke="rgb(204, 204, 204)" stroke-width="1px"></line><line x1="48.875" y1="13.679086538461519" x2="43.875" y2="13.679086538461519" style="visibility: inherit;" fill="rgb(0, 0, 0)" stroke="rgb(204, 204, 204)" stroke-width="1px"></line><line x1="48.875" y1="0" x2="43.875" y2="0" style="visibility: inherit;" fill="rgb(0, 0, 0)" stroke="rgb(204, 204, 204)" stroke-width="1px"></line></g><g transform="translate(38.875, 0)"><text x="0" y="177.828125" dx="0em" dy="0.3em" style="text-anchor: end; visibility: hidden; font-family: &quot;Helvetica Neue&quot;, sans-serif; font-size: 12px; font-weight: 200;" fill="rgb(50, 49, 63)" stroke="none" stroke-width="1px">-0.5</text><text x="0" y="164.14903846153845" dx="0em" dy="0.3em" style="text-anchor: end; visibility: inherit; font-family: &quot;Helvetica Neue&quot;, sans-serif; font-size: 12px; font-weight: 200;" fill="rgb(50, 49, 63)" stroke="none" stroke-width="1px">0</text><text x="0" y="150.4699519230769" dx="0em" dy="0.3em" style="text-anchor: end; visibility: hidden; font-family: &quot;Helvetica Neue&quot;, sans-serif; font-size: 12px; font-weight: 200;" fill="rgb(50, 49, 63)" stroke="none" stroke-width="1px">0.5</text><text x="0" y="136.7908653846154" dx="0em" dy="0.3em" style="text-anchor: end; visibility: inherit; font-family: &quot;Helvetica Neue&quot;, sans-serif; font-size: 12px; font-weight: 200;" fill="rgb(50, 49, 63)" stroke="none" stroke-width="1px">1</text><text x="0" y="123.11177884615384" dx="0em" dy="0.3em" style="text-anchor: end; visibility: hidden; font-family: &quot;Helvetica Neue&quot;, sans-serif; font-size: 12px; font-weight: 200;" fill="rgb(50, 49, 63)" stroke="none" stroke-width="1px">1.5</text><text x="0" y="109.4326923076923" dx="0em" dy="0.3em" style="text-anchor: end; visibility: inherit; font-family: &quot;Helvetica Neue&quot;, sans-serif; font-size: 12px; font-weight: 200;" fill="rgb(50, 49, 63)" stroke="none" stroke-width="1px">2</text><text x="0" y="95.75360576923076" dx="0em" dy="0.3em" style="text-anchor: end; visibility: hidden; font-family: &quot;Helvetica Neue&quot;, sans-serif; font-size: 12px; font-weight: 200;" fill="rgb(50, 49, 63)" stroke="none" stroke-width="1px">2.5</text><text x="0" y="82.07451923076924" dx="0em" dy="0.3em" style="text-anchor: end; visibility: inherit; font-family: &quot;Helvetica Neue&quot;, sans-serif; font-size: 12px; font-weight: 200;" fill="rgb(50, 49, 63)" stroke="none" stroke-width="1px">3</text><text x="0" y="68.39543269230768" dx="0em" dy="0.3em" style="text-anchor: end; visibility: hidden; font-family: &quot;Helvetica Neue&quot;, sans-serif; font-size: 12px; font-weight: 200;" fill="rgb(50, 49, 63)" stroke="none" stroke-width="1px">3.5</text><text x="0" y="54.71634615384616" dx="0em" dy="0.3em" style="text-anchor: end; visibility: inherit; font-family: &quot;Helvetica Neue&quot;, sans-serif; font-size: 12px; font-weight: 200;" fill="rgb(50, 49, 63)" stroke="none" stroke-width="1px">4</text><text x="0" y="41.03725961538461" dx="0em" dy="0.3em" style="text-anchor: end; visibility: hidden; font-family: &quot;Helvetica Neue&quot;, sans-serif; font-size: 12px; font-weight: 200;" fill="rgb(50, 49, 63)" stroke="none" stroke-width="1px">4.5</text><text x="0" y="27.358173076923066" dx="0em" dy="0.3em" style="text-anchor: end; visibility: inherit; font-family: &quot;Helvetica Neue&quot;, sans-serif; font-size: 12px; font-weight: 200;" fill="rgb(50, 49, 63)" stroke="none" stroke-width="1px">5</text><text x="0" y="13.679086538461519" dx="0em" dy="0.3em" style="text-anchor: end; visibility: hidden; font-family: &quot;Helvetica Neue&quot;, sans-serif; font-size: 12px; font-weight: 200;" fill="rgb(50, 49, 63)" stroke="none" stroke-width="1px">5.5</text><text x="0" y="0" dx="0em" dy="0.3em" style="text-anchor: end; visibility: hidden; font-family: &quot;Helvetica Neue&quot;, sans-serif; font-size: 12px; font-weight: 200;" fill="rgb(50, 49, 63)" stroke="none" stroke-width="1px">6</text></g><line x1="48.875" y1="0" x2="48.875" y2="177.828125" fill="rgb(0, 0, 0)" stroke="rgb(204, 204, 204)" stroke-width="1px"></line></g></g><g transform="translate(48, 0)" clip-path="url(#clip_0)"><clipPath id="clip_0"><rect width="281" height="177"></rect></clipPath><g><g><g><line x1="0" y1="0" x2="0" y2="177.828125" fill="rgb(0, 0, 0)" stroke="rgb(60, 60, 60)" stroke-width="1px" opacity="0.25"></line><line x1="35.140625" y1="0" x2="35.140625" y2="177.828125" fill="rgb(0, 0, 0)" stroke="rgb(60, 60, 60)" stroke-width="1px" opacity="0.25"></line><line x1="70.28125" y1="0" x2="70.28125" y2="177.828125" fill="rgb(0, 0, 0)" stroke="rgb(60, 60, 60)" stroke-width="1px" opacity="0.25"></line><line x1="105.421875" y1="0" x2="105.421875" y2="177.828125" fill="rgb(0, 0, 0)" stroke="rgb(60, 60, 60)" stroke-width="1px" opacity="0.25"></line><line x1="140.5625" y1="0" x2="140.5625" y2="177.828125" fill="rgb(0, 0, 0)" stroke="rgb(60, 60, 60)" stroke-width="1px" opacity="0.25"></line><line x1="175.703125" y1="0" x2="175.703125" y2="177.828125" fill="rgb(0, 0, 0)" stroke="rgb(60, 60, 60)" stroke-width="1px" opacity="0.25"></line><line x1="210.84375" y1="0" x2="210.84375" y2="177.828125" fill="rgb(0, 0, 0)" stroke="rgb(60, 60, 60)" stroke-width="1px" opacity="0.25"></line><line x1="245.984375" y1="0" x2="245.984375" y2="177.828125" fill="rgb(0, 0, 0)" stroke="rgb(60, 60, 60)" stroke-width="1px" opacity="0.25"></line><line x1="281.125" y1="0" x2="281.125" y2="177.828125" fill="rgb(0, 0, 0)" stroke="rgb(60, 60, 60)" stroke-width="1px" opacity="0.25"></line></g><g><line x1="0" y1="177.828125" x2="281.125" y2="177.828125" fill="rgb(0, 0, 0)" stroke="rgb(60, 60, 60)" stroke-width="1px" opacity="0.25"></line><line x1="0" y1="164.14903846153845" x2="281.125" y2="164.14903846153845" fill="rgb(0, 0, 0)" stroke="rgb(60, 60, 60)" stroke-width="1px" opacity="0.25"></line><line x1="0" y1="150.4699519230769" x2="281.125" y2="150.4699519230769" fill="rgb(0, 0, 0)" stroke="rgb(60, 60, 60)" stroke-width="1px" opacity="0.25"></line><line x1="0" y1="136.7908653846154" x2="281.125" y2="136.7908653846154" fill="rgb(0, 0, 0)" stroke="rgb(60, 60, 60)" stroke-width="1px" opacity="0.25"></line><line x1="0" y1="123.11177884615384" x2="281.125" y2="123.11177884615384" fill="rgb(0, 0, 0)" stroke="rgb(60, 60, 60)" stroke-width="1px" opacity="0.25"></line><line x1="0" y1="109.4326923076923" x2="281.125" y2="109.4326923076923" fill="rgb(0, 0, 0)" stroke="rgb(60, 60, 60)" stroke-width="1px" opacity="0.25"></line><line x1="0" y1="95.75360576923076" x2="281.125" y2="95.75360576923076" fill="rgb(0, 0, 0)" stroke="rgb(60, 60, 60)" stroke-width="1px" opacity="0.25"></line><line x1="0" y1="82.07451923076924" x2="281.125" y2="82.07451923076924" fill="rgb(0, 0, 0)" stroke="rgb(60, 60, 60)" stroke-width="1px" opacity="0.25"></line><line x1="0" y1="68.39543269230768" x2="281.125" y2="68.39543269230768" fill="rgb(0, 0, 0)" stroke="rgb(60, 60, 60)" stroke-width="1px" opacity="0.25"></line><line x1="0" y1="54.71634615384616" x2="281.125" y2="54.71634615384616" fill="rgb(0, 0, 0)" stroke="rgb(60, 60, 60)" stroke-width="1px" opacity="0.25"></line><line x1="0" y1="41.03725961538461" x2="281.125" y2="41.03725961538461" fill="rgb(0, 0, 0)" stroke="rgb(60, 60, 60)" stroke-width="1px" opacity="0.25"></line><line x1="0" y1="27.358173076923066" x2="281.125" y2="27.358173076923066" fill="rgb(0, 0, 0)" stroke="rgb(60, 60, 60)" stroke-width="1px" opacity="0.25"></line><line x1="0" y1="13.679086538461519" x2="281.125" y2="13.679086538461519" fill="rgb(0, 0, 0)" stroke="rgb(60, 60, 60)" stroke-width="1px" opacity="0.25"></line><line x1="0" y1="0" x2="281.125" y2="0" fill="rgb(0, 0, 0)" stroke="rgb(60, 60, 60)" stroke-width="1px" opacity="0.25"></line></g></g></g><g><g><line x1="0" y1="164.14903846153845" x2="281.125" y2="164.14903846153845" fill="rgb(0, 0, 0)" stroke="rgb(153, 153, 153)" stroke-width="1.5px"></line></g></g><g><g><line x1="35.140625" y1="0" x2="35.140625" y2="177.828125" fill="rgb(0, 0, 0)" stroke="rgb(153, 153, 153)" stroke-width="1.5px"></line></g></g><g><g><g><g><g><path stroke="rgb(255, 112, 67)" stroke-width="2px" d="M35.456890625,17.22319381856002L35.5623125,19.480854078410914L35.8434375,11.908130441978017L35.878578125,23.0007998029495L35.91371875,30.22439358474935L36.1245625,29.399870205003907L36.370546874999995,35.326465478118706L36.440828124999996,31.45951000929705L36.792234375,31.557984536555836L36.932796875,29.267493055112737L37.003078124999995,36.814746772167524L37.354484375,35.903287237395574L37.846453125,29.637420148575757L37.916734375,30.938738882567804L38.057296875,34.02599614706071L38.338421875,26.13752395188564L38.373562500000006,27.033619482399985L39.14665625000001,25.91027504211374L39.252078125,32.903805547041486L39.4980625,33.64449404897326L39.603484375,27.215476033977353L39.70890625,31.02687097774853L39.814328125,36.812431042354746L39.91974999999999,39.1577010997693L40.27115625,41.35428720887032L40.55228125,35.26388937796369L40.587421875000004,33.12285146941127L40.727984375,32.41619359544177L41.079390625,32.66049403159002L41.219953125,28.79886575925471L41.501078125,23.27282125965803L41.571359375,28.203637680506176L42.52015625,31.109183854338454L42.555296875,29.80175218477595L42.836421875000006,32.76769257721327L42.906703125,27.842237539464463L42.94184375,30.80491864019902L43.22296875,30.361601218239713L43.258109375000004,26.058718955583174L43.29325,29.557583196386815L43.468953125000006,35.484728066197306L43.78521875,40.22247365734452L44.171765625,36.31408812523705L44.452890624999995,44.26369341977488L44.5583125,43.030978827157924L45.015140624999994,45.45436748970141L45.19084375,39.634179687929446L45.296265625,42.33393779786468L45.436828125,34.77703669432242L45.436828125,30.242896032262195L46.03421875,34.2808543019797L46.069359375,40.15834689854063L46.280203125,45.387381108155665L46.385625000000005,45.703964887681735L46.420765625,35.64870493100068L46.455906250000005,37.76945736697982L46.491046874999995,39.78948293052852L46.5261875,27.579677326400486L46.73703125,33.27398376730599L46.912734375,32.36193908630776L47.685828125,37.327523373148495L47.756109375,36.73872400492712L47.826390625,37.978130386065374L47.966953124999996,47.75282879312607L48.107515625,48.2294724314566L48.3535,42.17420763180354L48.42378125,41.43165748086071L48.56434375,37.95890730067603L48.634625,36.80980831053563L48.669765625000004,35.55169499547077L48.70490624999999,37.80732811973661L48.845468749999995,36.7434591959624L48.915749999999996,36.461183157513716L48.950890625,37.019400875401146L49.0563125,37.104799219196195L49.091453125,37.47362572124035L49.161734375,39.66748426520624L49.232015625,42.243780895897686L49.3374375,40.737062030240935L49.3374375,39.83303071084691L49.759125,41.74750305932298L49.82940625,37.70650455189667L50.39165625,40.94361144617338L50.53221875,39.873605514075564L50.637640625,37.63493971680589L50.883624999999995,35.37714857253425L50.953906249999996,33.278322895265035L51.059328125,36.46219458940641L51.09446875,38.69171751229544L51.199890625,35.67070438859622L51.23503125,29.744351690627468L51.481015625000005,37.21477278714113L51.51615625,39.1337360755212L51.691859375,35.17325051336513L51.727,38.234524441782014L51.902703125,38.78089587318456L51.972984375,34.77897871895857L52.043265625000004,39.32021114172153L52.183828125000005,36.951997662618055L52.21896875,30.39152893311453L52.32439062500001,38.377813743869496L52.32439062500001,43.169584630322476L52.4298125,42.99353312983405L52.746078125,40.984934152064795L52.78121875,38.513677580616786L52.956921875,32.856971713900776L53.48403125,30.690352741525857L53.694875,35.4410644640098L53.800296874999994,36.56684873106116L53.870578124999994,39.931032292121415L53.90571875,38.32215596561059L53.976,38.67832331346435L54.081421875,43.85837372006387L54.151703125,38.712265186675836L54.32740625,34.77997345517184L54.432828125,36.73445957636437L54.538250000000005,40.004965323926285L54.713953124999996,35.74165737598568L55.45190625,34.45203447232001L55.5221875,33.05064163050358L55.5221875,32.20980592541372L55.557328125,29.482844301664898L55.873593750000005,29.71356750093301L56.0844375,31.256698084020258L56.330421875,34.929946742051726L56.78725,24.869738868599683L56.99809375,29.919652161801423L57.173796875,33.701547055586445L57.244078125,36.33169177536209L57.27921875,37.582438375277036L57.630624999999995,31.166044579303986L57.736046875,37.7719189956847L57.876609375,36.24700134513844L57.98203125,37.78413597195646L58.263156249999994,38.61122190257262L58.298296875,29.235789379663004L58.509140625,34.51652058021048L58.54428125,34.52743660244835L58.6145625,31.354192421911023L58.6145625,29.450245913588645L59.4579375,35.46964771552305L59.52821875,32.72541131883605L59.563359375000005,31.621056907464293L59.5985,33.575141471173225L59.985046875,34.228573401620565L60.195890625000004,28.00051802754666L60.23103125,28.621712447443088L60.37159375,38.02846846379228L60.441874999999996,42.84825671231107L60.8635625,42.24000883913939L60.898703125000004,38.927844814896474L61.07440625,39.909693616248944L61.21496875,41.723426166820104L61.28525,44.398173400870576L61.320390625,43.21981312808856L61.88264062499999,49.74857057961458L61.952921874999994,54.22661520830677L62.40975,46.2933645515692L62.690875,47.33742974491153L62.690875,47.96386886091693L62.972,46.59301154011564L63.04228125,47.7774526658072L63.323406250000005,48.374611981425744L63.323406250000005,48.73290757079687L63.709953125,45.128689431510054L63.815375,43.56076758383338L63.885656250000004,39.88881001867796L63.955937500000005,46.5781558061899L64.02621875,46.15242891480554L64.0965,44.59040791191063L64.30734375,42.34302556797462L64.44790625,43.979011706067865L64.553328125,41.65321521026348L64.693890625,43.00971003578806L64.834453125,42.16224475947121L64.904734375,39.34444916303903L64.939875,44.129312068557454L64.975015625,45.31366393998789L65.045296875,41.49890632879817L65.15071875000001,40.83857085103122L65.326421875,43.25283261369111L65.502125,36.75555006953192L65.57240625,33.66792044034253L65.607546875,35.987463013428226L65.64268750000001,37.52195734378333L65.748109375,39.88884539317914L65.78325000000001,43.09507001081511L65.818390625,38.44615982693537L66.169796875,41.60394248888463L66.310359375,45.136612566999474L66.41578125,48.59998928973283L66.55634375,52.98752743491744L66.55634375,55.620050322028234L66.732046875,53.689249561528L66.83746875,49.98008158582428L67.224015625,50.57474440433141L67.294296875,54.826640905906714L67.47,62.25559754626612L67.54028124999999,62.17284323822376L67.68084375,61.705143191338465L67.926828125,61.874111777680255L67.96196875,64.72762741537197L68.067390625,65.06353127387257L68.10253125,71.77420834970115L68.699921875,73.2545660177246L68.80534374999999,78.1163344255405L69.121609375,77.34815007781582L69.2973125,81.24034117293483L69.332453125,77.26870640503336L69.36759375,76.5627082701053L69.683859375,76.23328930300858L69.92984375,75.79147772885791L69.964984375,75.12688604463365L70.28125,76.1744555482956L70.35153125,79.13971422564981L70.49209375,79.74884374319407L70.80835937500001,72.9759551827383L70.91378125,66.62923904714923L71.33546874999999,71.02310134216145L71.5463125,72.47387683926726L71.61659374999999,73.37758180017802L71.61659374999999,73.91980477672445L71.651734375,73.77383458615319L71.686875,74.12500297336061L71.75715625,72.76203036010614L71.8274375,70.35949499841128L71.968,73.66714406823321L72.21398437500001,78.19230041324985L72.811375,71.44813764551905L72.88165624999999,73.35141697203892L73.02221875,70.94725786093801L73.16278125,67.20694939162689L73.373625,68.91694048953178L73.549328125,70.66247991775438L73.58446875,72.94011724509394L73.61960937500001,76.08384750771006L73.72503125,78.88456514080546L73.76017187500001,75.748372922174L73.90073437500001,82.3453962992161L73.97101562499999,78.22965191408709L74.322421875,76.64557787655009L74.42784375,72.62988865142454L74.42784375,70.22047511634922L74.462984375,73.99694758730212L74.533265625,75.6015757276471L74.603546875,74.60448835515115L74.603546875,74.00623593165359L74.744109375,77.52102536978191L74.77925,74.17099411225514L74.884671875,68.66025705643368L75.20093750000001,69.58913227782907L75.37664062500001,73.05007239683839L75.4820625,70.49295965917149L75.58748437499999,75.02234224362287L75.657765625,68.94175139916882L75.86860937499999,70.00241606720974L75.90375,71.4160020132491L76.3254375,71.80488789349876L76.501140625,67.65400445438857L77.09853125,68.11060098258655L77.13367187499999,70.58643607833017L77.1688125,69.39301600731079L77.414796875,67.63508839437443L77.94190625,67.78613581170396L78.08246875,61.987473546462226L78.18789062500001,59.45039885167712L78.22303125,65.05574481075436L78.258171875,61.25767057698992L78.36359374999999,59.34915344935489L78.78528125,61.96057903160673L78.820421875,65.40248792541497L78.996125,65.76523810934202L79.031265625,66.77386956400382L79.101546875,71.96226044564393L79.34753125,71.41867900279684L79.45295312500001,67.64179656553168L79.62865625,58.96653832904316L79.874640625,67.18984965285595L79.94492187499999,65.87730284856475L79.98006249999999,66.98871442595228L80.436890625,67.50719872114675L80.647734375,63.282567739931L80.8234375,69.41995973613695L80.928859375,64.98943601408779L81.209984375,62.680975752917305L81.31540625,65.12150298641349L81.35054687499999,68.60450526252203L81.59653125,72.89372083671853L81.701953125,74.90096008555868L81.772234375,78.1582285106632L82.193921875,75.88656564916964L82.29934375,69.9790485605622L82.40476562500001,69.10501645718777L82.615609375,72.26610871360482L82.75617187499999,75.49085557124944L83.00215625,77.67793636922887L83.213,73.63666844357118L83.28328125,79.062142819101L83.529265625,79.75913706968137L83.529265625,80.17733362002961L83.56440625,75.30560469278431L84.12665625000001,76.70436792301837L84.16179687500001,75.49848908528004L84.16179687500001,74.77496178263706L84.4780625,72.81186788269449L84.7591875,76.18654600420888L84.82946875,77.6315138357469L85.6025625,74.83614119877564L85.74312499999999,76.43761114770261L85.91882812499999,71.04822254933906L86.02425,68.24362368278958L86.09453125,62.74751581531872L86.37565625,66.76956138091244L86.410796875,67.6691812845379L86.4459375,73.24065803697488L87.254171875,68.90197545919978L87.394734375,69.54596003649057L87.816421875,62.20234199847003L87.956984375,69.58073522439729L88.027265625,68.49024024114459L88.097546875,62.61864684571249L88.1326875,64.66629299711377L88.308390625,60.969701951964765L88.37867187500001,65.07728904466964L88.51923437500001,61.28726913023672L88.55437500000001,63.83216031485013L88.9760625,64.26968204136615L89.04634374999999,72.05079021455096L89.081484375,71.1006658552776L89.573453125,64.36060801021395L89.995140625,66.62975059900734L90.241125,60.80818158131501L90.3816875,64.1572933736405L90.487109375,68.91114336210258L90.557390625,71.05535722303894L90.6628125,70.48555474390002L90.9439375,70.19961712191763L91.260203125,74.99298259872353L91.29534375,68.51106627233031L91.400765625,66.53817520087208L91.47104687500001,64.27255737487545L91.892734375,63.58658989193481L91.927875,60.73405712384064L92.0684375,59.14192107709326L92.103578125,65.57492936876967L92.13871875,69.217189361709L92.173859375,65.96268410250543L92.173859375,64.00998094698325L92.63068750000001,64.63660914841384L92.77125000000001,64.52970039242057L93.1929375,64.22648264839837L93.3335,66.11782508257244L93.57948437499999,60.11119338646384L93.614625,59.22247735448667L93.89575,63.67733396784335L94.42285937499999,65.73675699740478L94.45800000000001,55.29769158878133L94.633703125,57.17220884641165L94.914828125,54.175279305092204L95.02025,57.061299716704255L95.406796875,57.73855716992118L95.44193750000001,53.82504960074472L95.547359375,58.00428075298338L95.72306250000001,57.307048940044496L95.75820312500001,55.82583641657298L95.89876562500001,52.186639008814495L96.0041875,45.784871702131284L96.10960937499999,46.02227617967938L96.21503125,42.063633292314904L96.2853125,48.4682791683384L96.5664375,58.3401909825573L96.77728125,48.47985475221873L96.8475625,44.37121751972106L96.952984375,46.961464343109924L97.234109375,49.207592290149705L97.26925,48.22784562154851L97.37467187499999,43.70673320668254L97.444953125,44.94145050539652L97.726078125,47.986697465467046L98.04234375,54.536298962452705L98.39375,54.50354767470374L98.71001562500001,53.57273356555726L98.74515625000001,55.89681525744142L98.780296875,53.77964524045488L98.81543749999999,51.61884901523301L98.88571875,53.02077700830249L99.16684375,51.478162094619506L99.3776875,53.39265880266825L99.623671875,55.7376924659839L100.15078125000001,61.28314980854623L100.185921875,60.37604602752759L100.607609375,66.51559112050087L100.677890625,62.07943737071906L100.71303125,62.11654481993641L100.818453125,59.9321340149113L100.85359375,60.78437202953877L100.888734375,63.82898153923408L101.0644375,57.16884994773312L101.169859375,59.84402868586649L101.41584375000001,67.3282538465318L101.55640625000001,66.20007273395035L101.76724999999999,65.54069968434904L101.80239062499999,67.59263953834568L101.872671875,65.2157346062969L102.08351562499999,67.5799098569175L102.153796875,68.87523779274989L102.22407812499999,75.6634988000877L102.25921875,74.03992081418191L102.434921875,75.07629093323726L102.505203125,75.82061185874826L103.0323125,76.11001264049352L103.10259375000001,69.23918497191879L103.24315625000001,70.62232971794384L104.01625,74.60220685344049L104.1568125,72.40548091445265L104.262234375,73.60472622677945L104.332515625,70.46414147645162L104.54335937500001,69.80301803890971L104.64878125000001,70.86198551062135L104.75420312499999,70.00019314465344L105.14075,60.318504408004856L105.316453125,58.55448415692214L105.421875,60.05591478283695L105.5624375,57.9942869204106L105.597578125,59.25880354345615L105.80842187500001,47.953530185089704L105.984125,49.827962441382965L106.05440625,54.19272966136364L106.230109375,56.97661683025167L107.03834375,52.05692771297632L107.143765625,52.26521992861548L107.143765625,52.390195257998954L107.31946875,47.672344627654866L108.61967187500001,46.96238734423159L108.795375,49.64426403196387L108.830515625,46.78485226281447L108.86565625,47.21950350331505L108.90079687500001,44.890079185895786L108.93593750000001,45.65742766499173L108.971078125,46.739298426332596L109.392765625,46.10291215281728L109.4981875,44.37213973701623L109.533328125,44.79179644653806L109.673890625,47.744800960057006L109.884734375,49.67157250667671L110.025296875,47.638563756908695L110.095578125,46.18833511251461L110.095578125,45.31819792587817L110.376703125,46.536694633039275L110.657828125,38.578647406373676L110.76325,47.13075825659885L110.83353125,35.194559028584194L110.97409375,42.08442941449695L111.00923437499999,45.14634904396257L111.1849375,44.09806328677783L111.25521875,48.05669231168463L111.360640625,50.34221134615699L111.430921875,50.458915964651965L111.88775000000001,53.20258691616036L112.063453125,53.965981617887806L112.3094375,47.15742116795872L112.45,50.166463812108034L112.555421875,47.76469781210321L112.625703125,50.945475022028916L112.625703125,52.85394134798433L112.977109375,49.90409821355537L113.01225000000001,54.99078593143801L113.117671875,55.53989371008906L113.64478125,55.46060706263049L113.750203125,48.10021014677031L114.031328125,52.51961179910488L114.06646875,56.01429569120546L114.34759375,51.36810127824059L114.382734375,51.87770176533719L114.699,52.197994625958216L114.73414062500001,56.07418424959832L114.76928125,57.0481213035428L114.94498437499999,55.520285610185965L115.12068749999999,57.34871330374709L115.577515625,57.98525448381211L115.61265625,56.1323049946982L115.8235,56.57014280487326L115.858640625,57.177864840204876L115.89378125,57.90220652371552L115.928921875,55.321141835611044L116.13976562500001,60.1806325197354L116.45603125,64.01304499526094L116.80743749999999,63.16895705340025L116.948,58.65232162540248L117.0885625,58.34853189140382L117.15884375,66.32218066974221L117.26426562500001,61.49953343437663L117.29940625,62.34283980753109L117.29940625,62.848823631423755L117.475109375,60.149382604774814L117.93193749999999,62.61048405775753L118.037359375,61.679862811850256L118.318484375,62.508233657292564L118.4941875,68.38877958314036L118.56446875,65.83458805443388L118.599609375,64.96228484795645L118.740171875,64.58231354393412L118.84559375,71.01929274764979L118.880734375,67.84797548095776L119.0564375,65.81253173256155L119.12671875000001,62.222339431806304L119.232140625,67.06770645401708L119.26728125000001,64.72366527533707L119.37270312499999,63.51864839843158L119.47812499999999,62.95957451429099L119.51326562499999,63.813525672949154L119.54840625,63.568047714258995L120.1809375,58.66355468980785L120.39178125000001,59.25732416372121L120.70804687500001,61.44764293890188L120.7431875,64.40640695420268L121.09459375,66.60486053771959L121.129734375,66.98786569513422L121.481140625,69.6845761828276L121.902828125,68.74481565289533L121.93796875000001,72.23715310070462L122.183953125,67.53222153487393L122.32451562499999,67.43582028275898L122.46507812499999,68.73042156679823L122.535359375,69.4691471879226L122.5705,70.11024465294548L122.5705,70.4949031319592L123.34359375,73.97883321552486L123.449015625,73.96559547241702L123.51929687500001,72.23142634934199L123.62471875,66.55583655484739L123.87070312499999,68.66025158782504L123.90584374999999,71.56204125594915L123.90584374999999,73.30311505682361L124.04640624999999,72.51123927622218L124.362671875,71.37963829781427L124.74921875,70.58506160630428L124.854640625,74.05040651834805L125.20604687500001,75.93784096291358L125.2411875,75.93823542680147L125.346609375,70.33678013467579L125.8034375,68.38761682647431L125.87371875,67.93825065374078L126.119703125,71.344181006063L126.18998437500001,68.85481198241236L126.50625000000001,70.00469606240391L126.64681250000001,72.37148139135535L127.033359375,73.78080840263661L127.103640625,73.59540628818395L127.173921875,72.89827030647739L127.2090625,68.29393327751355L127.665890625,69.26626374732611L128.0524375,70.01348868991094L128.298421875,74.07443490592655L128.579546875,75.35109495386904L128.75525000000002,72.67287488967204L129.036375,71.2167162911114L129.282359375,75.8699603885789L129.3175,73.76422258241787L129.66890625,71.9424031387428L130.09059375,69.59818779041481L130.125734375,69.9090872452495L130.37171874999999,73.40822803605468L130.68798437499998,68.94087536526429L130.758265625,70.42901489372674L130.828546875,72.01580918204927L131.49621875,72.36944398253601L131.60164062500002,73.63506126087569L131.671921875,73.6183089867746L131.77734375,69.25255727617419L131.882765625,70.07827465650217L131.98818749999998,66.6197689404479L132.023328125,64.261384790884L132.05846875,66.14525514679254L132.48015625,64.6554283386846L132.62071875,63.83848181194037L132.936984375,64.5045479947501L133.007265625,71.79166235847774L133.04240625,71.58279840359576L133.25324999999998,71.28680975653727L133.288390625,69.09680024840922L133.3938125,66.80561107959215L133.60465625,63.91558380510084L133.710078125,62.789130552050565L133.88578125,64.96840994952653L134.061484375,61.06530563335279L134.553453125,66.3166421772923L134.58859375,66.75495195954815L134.658875,66.39060311886305L134.904859375,69.37316639920579L135.6428125,70.27572719047004L135.67795312500002,70.13172040937677L135.99421875000002,61.71753631704513L136.310484375,62.79023497391434L136.62675,64.77638170428139L136.66189062499998,63.09169875612248L136.7673125,62.099410836923624L136.83759375,66.08162231148985L137.153859375,63.78455595200897L137.189,61.259952182189025L137.470125,55.65532860297424L137.54040625000002,58.944823273695405L137.64582812499998,56.32944807652325L138.137796875,58.177377686898524L138.1729375,56.406706626507315L138.278359375,56.37068424219373L138.594625,57.087213094064026L138.629765625,51.56363287180065L138.770328125,54.00901553398012L138.910890625,54.77833223331582L139.08659375000002,49.23490846058587L139.12173437500002,51.27374096637101L139.2974375,54.94388143879942L139.36771875,56.17988388818779L139.36771875,56.92148535782081L139.719125,55.594827011155076L139.78940625,51.3008714980369L139.824546875,51.09502360712705L139.894828125,51.8062426394618L140.07053125000002,50.752311459885874L140.38679687500002,51.18330886740817L140.73820312499998,48.89470030350469L140.80848437499998,44.04839221664517L140.9841875,44.482137947067514L141.08960937499998,46.84940950798088L141.08960937499998,48.26977244452888L141.159890625,45.79337978164568L141.230171875,45.67412220762455L141.61671875000002,49.513467054294466L141.932984375,43.601507804460255L142.003265625,41.63055497002924L142.073546875,46.541940554609766L142.354671875,42.97140811040774L142.38981249999998,48.45865572553967L142.56551562500002,47.415195564493416L142.67093749999998,43.54527801004022L142.706078125,34.03067671493872L142.8115,37.047144747271176L142.84664062500002,38.31387278091094L142.88178125,38.233702768942635L143.092625,29.475071501768184L143.12776562500002,27.88999504109873L143.16290625,27.174882933446327L143.58459375,32.76217373537699L143.72515625,31.65092072086145L143.7954375,25.71269759652975L144.0765625,30.777303406611537L144.252265625,29.3196380595611L144.252265625,28.44503885133085L144.28740625,26.450037387746676L144.392828125,22.67204193200493L144.6388125,28.82588962043053L144.70909375000002,19.46572369026285L144.84965625,27.820828340114474L144.955078125,32.464200332604804L145.165921875,33.17972128909176L145.62275,33.71144020198744L146.0444375,41.005232931699425L146.11471875,38.263780111067064L146.11471875,36.61890841868765L146.25528125,37.1894436247139L146.53640625,35.61780723136596L146.74725,38.67312370475673L146.922953125,38.27317703805292L147.06351562499998,41.63423336998548L147.1689375,42.5430888799186L147.59062500000002,42.907196451955656L149.52335937499998,70.56625747733561L149.663921875,91.66163344105492L150.12075000000002,103.39307962390797L150.507296875,114.06283126676504L150.647859375,119.70100883039488L150.928984375,124.95172871963541L150.964125,125.09086116179259L151.10468749999998,126.77028145483715L151.45609374999998,131.69150210925733L151.8075,128.56203111621707L151.842640625,127.29520037573971L151.87778125,131.0206000293361L152.15890625,132.46114054003985L152.86171875,132.08508795950743L153.70509374999997,132.74420152130088L153.91593749999998,134.04685023623736L153.951078125,133.55456461680598L154.0565,134.5750742606221L154.40790625,134.725676175492L154.724171875,135.1667836013886L154.82959375,138.6808090207434L155.181,137.7612945133307L155.356703125,136.50456838960903L156.621765625,138.21897685597537L156.93803125,139.48708187440843L157.0083125,140.13952070644154L157.148875,138.4771107297533L157.35971874999998,135.4116254750266L157.465140625,134.87355492444618L157.711125,134.43455771488098L157.99225,135.944737383422L158.09767187499997,136.78866757775992L158.37879687499998,137.170185192151L158.519359375,139.406460904314L158.65992187499998,141.54609303460856L159.46815625000002,141.04527748369136L159.60871874999998,141.34377522309626L159.85470312500001,142.30283511488258L159.995265625,143.2650845786182L160.3818125,142.6091325390716L160.80349999999999,141.82953703298676L161.36575,143.3614102590559L162.244265625,143.57872333314654L162.77137499999998,144.7406789302488L163.26334375,143.30431666490242L163.54446875,142.11310377199763L163.82559375,143.06662487111691L164.0364375,142.5386234100455L164.07157812499997,144.56922107676047L164.66896875,145.54758487704254L164.985234375,144.73380315272493L165.477203125,145.4162655627912L165.58262499999998,146.45044320165155L166.35571875,145.98895636827098L166.95310937500003,145.47651664314108L167.374796875,145.2791507110764L167.48021875,142.67968189976537L167.69106250000002,142.2703147122631L168.32359375000001,144.08835302533691L168.39387499999998,145.1588291129336L169.02640624999998,144.50496099407283L169.16696875,142.13402115608292L169.272390625,143.3216748168677L169.90492187499999,145.19206916849396L170.045484375,146.2827450589664L170.29146875,146.03753373454285L170.748296875,144.99375790820375L170.959140625,144.7638336442095L171.451109375,145.92401575704432L171.872796875,145.8879816664894L172.39990625,145.45181709052193L172.68103125,145.7369016637132L172.71617187500001,146.72936017547173L173.489265625,143.3081377501298L173.629828125,144.12046296832705L174.121796875,144.02581569091205L174.543484375,143.75342610602857L174.578625,144.1873526644838L174.824609375,145.5166044411761L175.316578125,146.08724523712868L175.52742187500002,145.92859202505798L175.77340625,145.28089115583506L175.8436875,147.0299514316948L176.159953125,147.6727607248935L176.23023437499998,147.0418292213897L176.265375,147.67649494412981L176.933046875,148.0020608339492L177.03846875000002,145.28911578306412L177.354734375,144.25537726841756L177.81156249999998,143.6682707636682L178.30353125,145.17601841429638L178.6549375,144.86152019110642L179.2171875,146.0225113667411L179.603734375,146.99679814547625L180.236265625,147.2347573686743L180.587671875,145.67941598703473L180.62281249999998,147.27513830882089L180.83365625,148.4697115172712L181.079640625,146.388607940809L181.220203125,145.89335575367713L181.25534375,147.9671570949963L181.290484375,146.69808238297355L182.063578125,146.14283630682667L182.09871875000002,145.08952619227642L182.23928125,144.20135990407942L182.3095625,145.40197050383432L182.625828125,146.68994584864822L182.76639062499999,148.80775026194124L183.78546875,149.19918773770527L183.820609375,148.6903382099489L184.136875,147.76287867490444L184.24229687500002,149.83899597639393L184.48828125,147.3562185352074L184.8396875,147.86872906102744L184.874828125,146.72024096438844L184.90996875,147.4793361550635L184.945109375,146.66090211433337L185.1208125,146.4101671903675L185.33165625,144.87456635377265L185.47221875,145.88445177652008L185.54250000000002,145.2447253679236L186.10475,144.76821439504624L186.31559374999998,145.68690444524242L186.350734375,147.46546888463175L186.631859375,147.87478966722682L187.29953125,146.96986192028217L187.896921875,148.17737074272515L188.810578125,145.9522114632207L189.6188125,145.9845933991089L190.075640625,146.9234984218794L190.1810625,146.92682552186952L191.27042187499998,146.25029042501998L191.3055625,147.27042003506276L191.86781249999999,148.27656456854027L191.902953125,146.79118284558518L192.254359375,147.26408973785703L192.35978125,146.24451818076787L192.4300625,146.48104478412145L192.816609375,145.5705184070709L193.02745312500002,146.9115161861124L193.132875,147.6263664598504L193.2734375,147.29798631305013L193.90596875,146.94491640284596L193.941109375,147.0141315893321L194.08167187499998,145.52290132329028L194.18709375,144.7939577219725L194.257375,145.96761677744036L194.74934374999998,144.7476773300155L194.88990625,145.4166389018251L195.27645312500002,146.53635978591853L195.38187499999998,146.2156720355618L196.0846875,145.52120415501219L196.3658125,145.42127145137763L196.71721875,146.51189270677838L196.752359375,145.73029246556746L197.13890625000002,148.04212329650215L197.947140625,146.5634459511527L198.12284375,146.92934221226045L198.72023437500002,148.11688143264786L200.266421875,148.42063342987112L200.30156250000002,147.90149904648248L200.442125,147.82156567163292L200.58268750000002,149.74145531492454L201.21521875,147.99282380159372L201.4260625,149.4492736238373L201.461203125,148.2906907774083L202.937109375,144.91626054049425L203.218234375,146.5290207690971L203.499359375,146.38061870577565L203.53449999999998,145.684073060409L204.131890625,148.1703669440242L204.58871875,148.62446081947547L204.72928124999999,146.68778346578497L205.11582812499998,149.10737809913792L205.537515625,148.97750289126392L205.64293750000002,148.92327015795112L205.71321875,150.097060232413L205.85378125,149.21402623849093L206.13490625,150.44492988406384L208.24334375,150.2595324026479L208.45418750000002,150.84159591743642L208.489328125,149.7489390754772L208.55960937499998,150.03284355375834L209.08671875000002,149.2401126744003L209.332703125,148.15738980108253L210.1409375,147.15614097690985L210.2815,148.09941575763008L210.66804687500002,148.3213422904271L210.77346875,149.4480542951623L211.37085937499998,149.79347535178934L211.581703125,149.9684425936531L212.03853125,148.5927688193004L212.74134375,148.66658613797264L213.057609375,147.93140970144643L213.619859375,148.63903944620108L213.69014062500003,148.59741015179662L214.00640625,149.95523906838125L214.322671875,151.27799905237597L214.603796875,150.11962063125077L215.306609375,148.40122811709318L215.376890625,150.7050162282016L215.48231249999998,150.84079978878586L215.55259375,149.80541432497535L215.76343749999998,150.65316936621036L216.185125,150.93377195349635L216.220265625,151.03028045685448L216.46625,150.52757575365794L216.57167187500002,149.6191047076595L216.747375,149.9323065662602L216.99335937499998,148.5695908962298L217.06364062499998,147.27891726221907L218.85581249999998,149.60223373927357L219.242359375,149.39186721440686L219.34778125,149.39022754609812L219.523484375,148.9090656396829L220.085734375,149.11340544564027L220.226296875,149.25680629553815L220.2614375,150.12953425851074L220.33171875,150.81731763526724L220.68312500000002,150.42269207403479L220.8236875,150.9028198145905L220.96425000000002,151.8532286983844L221.280515625,150.40867757672308L221.31565625,150.48321313800267L221.491359375,151.25494512295222L221.63192187500002,148.34620472519737L221.6670625,146.93208649168972L222.19417187500002,149.1404000903665L223.28353125,150.08520406375249L223.70521875,148.84730061089485L223.951203125,148.08976245386845L224.12690625,147.50078786377713L224.618875,149.66573283507955L224.935140625,149.18877887090764L225.46225,149.22197859800292L225.84879687499998,146.49285244528542L226.09478125,148.61225472793245L226.12992187499998,148.2658958354906L226.23534375,149.07667134748561L226.4461875,147.98255612551324L227.78153125,149.1530640219732L227.88695312500002,149.87346989560513L227.957234375,150.19832406659725L228.06265625,151.29278754866235L228.097796875,151.0725314571488L228.23835937500002,151.98522902682362L229.362859375,150.86254277975019L229.854828125,150.98181341577998L230.80362499999998,149.22483919096112L231.01446875,148.23583922605908L231.15503125,147.97219874729356L231.7875625,147.34911185812734L231.963265625,148.9602125559819L232.490375,148.9844010199237L232.595796875,149.82546436025163L232.70121875,147.7943029003808L233.439171875,150.22634439424644L233.82571875,150.5393243756501L234.28254687499998,150.95492113603265L234.3176875,150.5624986657273L234.66909375,150.22142902546904L234.774515625,149.06383037764942L234.91507812499998,150.3663777611696L235.51246875,152.54256605518123L235.58275,151.89110701796955L235.688171875,152.30869670245653L236.42612499999998,152.93217526361892L236.49640625,151.09239911394033L236.67210937500002,151.85502234162036L237.05865625,152.54929026728405L237.33978125,152.1773874393229L237.48034375,149.52117222962295L238.077734375,147.42528285804974L238.288578125,147.17260784909433L238.639984375,149.99708238172713L238.710265625,150.53866748437463L238.92110937500001,150.06244255276934L239.0968125,150.15414213681055L239.272515625,147.81476405243225L239.3779375,148.13050310657204L239.905046875,149.98360893969704L239.9401875,147.80983582390482L240.888984375,149.0723835802036L241.170109375,150.69042552566273L241.521515625,151.7852393309541L241.9080625,150.9746036832194L242.64601562500002,151.35331875913116L242.856859375,149.42396455823277L243.24340625,151.02856604687096L243.278546875,151.75122908169828L244.403046875,152.46857301693922L244.43818750000003,151.56010813950252L244.64903124999998,151.28368702525876L246.47634375,150.1253072270681L246.546625,150.60343201784485L246.79260937499998,150.55080509226667L246.89803125,146.7337955746673L247.144015625,148.22447951580284L248.09281249999998,150.06503574420057L248.83076562500003,149.7543258638554L249.182171875,149.60356538921755L249.744421875,150.05214150265644L249.814703125,152.09149619212758L249.884984375,153.26916704350856L250.0606875,153.25682128547538L251.18518749999998,151.52667667007256L251.360890625,152.92108419828256L251.7474375,152.492031371733L251.78257812500001,152.96743443991477L251.81771875,153.90838309105865L251.92314062499997,152.77728398654725L252.48539062499998,152.62168707746966L253.43418749999998,151.24905002937095L253.539609375,151.40846820541523L254.24242187500002,151.22016916242376L254.453265625,150.94839142285758L254.48840625,151.05675636812984L255.4020625,151.94253442094495L255.648046875,151.78214761380966L255.718328125,151.74814075200146L255.89403125,152.82542594294205L257.053671875,150.25812861645034L257.15909375,151.8326007842259L257.826765625,152.78407323380534L257.86190625,151.1058600922676L258.17817187500003,150.98309810198626L258.42415625,151.41154147089543L258.529578125,151.95378044649993L258.7755625,151.8287241200486L258.880984375,151.6718807047075L259.54865625,151.38971193661968L259.654078125,152.80891367241114L260.005484375,149.19628768541574" style="fill: none;" fill="none"></path></g></g></g></g><g opacity="0.20000000298023224"><g><g><g><path stroke="rgb(255, 112, 67)" stroke-width="2px" d="M35.456890625,17.22319381856002L35.5623125,20.835450234321428L35.8434375,4.638315751002381L35.878578125,36.045778971451966L35.91371875,39.655517626267226L36.1245625,28.25925754239924L36.370546874999995,43.80159154419715L36.440828124999996,25.82145181298256L36.792234375,31.703215336570366L36.932796875,25.86638014820906L37.003078124999995,48.06717431201383L37.354484375,34.54105805777587L37.846453125,20.259078658544098L37.916734375,32.88816756468552L38.057296875,38.65325308877689L38.338421875,14.31037922088916L38.373562500000006,28.377383580574616L39.14665625000001,24.225543598716087L39.252078125,43.39303591045049L39.4980625,34.75545910000801L39.603484375,17.572301594110655L39.70890625,36.74383797783119L39.814328125,45.49065691347306L39.91974999999999,42.67557840393141L40.27115625,44.64915076012795L40.55228125,26.128318604368417L40.587421875000004,29.911300084911858L40.727984375,31.356207869373833L41.079390625,33.026944460777116L41.219953125,23.006425485014915L41.501078125,14.983756342759506L41.571359375,35.59986133071092L42.52015625,35.46750276822311L42.555296875,27.840604774080788L42.836421875000006,37.216603038402724L42.906703125,20.45405510984935L42.94184375,35.2489402454633L43.22296875,29.69662508941613L43.258109375000004,19.604395585564447L43.29325,34.80587954589956L43.468953125000006,44.375445359028305L43.78521875,47.32909203836553L44.171765625,30.451509829897134L44.452890624999995,56.188101358138596L44.5583125,41.181906938552856L45.015140624999994,49.089450483138734L45.19084375,30.903897985816002L45.296265625,46.38357496261597L45.436828125,23.44168503926352L45.436828125,23.44168503926352L46.03421875,40.33779170650703L46.069359375,48.97458579333929L46.280203125,53.23093242255541L46.385625000000005,46.178840556970016L46.420765625,20.56581499599494L46.455906250000005,40.9505860209465L46.491046874999995,42.81952127585046L46.5261875,9.264968920212539L46.73703125,41.81544342866309L46.912734375,30.993872064810546L47.685828125,44.7758998034092L47.756109375,35.85552495259506L47.826390625,39.837239957772766L47.966953124999996,62.41487640371689L48.107515625,48.94443788895242L48.3535,33.091310432324036L48.42378125,40.31783225444647L48.56434375,32.74978203039902L48.634625,35.08615982532501L48.669765625000004,33.664525022873505L48.70490624999999,41.190777806135344L48.845468749999995,35.14765581030113L48.915749999999996,36.037769099840745L48.950890625,37.85672745223229L49.0563125,37.232896734888726L49.091453125,38.02686547430662L49.161734375,42.95827208115503L49.232015625,46.10822584193485L49.3374375,38.47698373175584L49.3374375,38.47698373175584L49.759125,44.61921158203714L49.82940625,31.64500679075718L50.39165625,45.799271787588424L50.53221875,38.26859661592886L50.637640625,34.276941020901376L50.883624999999995,31.990461856126785L50.953906249999996,30.13008437936122L51.059328125,41.23800213061847L51.09446875,42.03600189662896L51.199890625,31.139184703047448L51.23503125,20.85482264367434L51.481015625000005,48.420404431911635L51.51615625,42.012181008091346L51.691859375,29.232522170131034L51.727,42.826435334407364L51.902703125,39.6004530202884L51.972984375,28.776102987619566L52.043265625000004,46.132059775866L52.183828125000005,33.399677443962844L52.21896875,20.550825838859254L52.32439062500001,50.357240960001945L52.32439062500001,50.357240960001945L52.4298125,42.72945587910138L52.746078125,37.97203568541087L52.78121875,34.80679272344477L52.956921875,24.371912913826776L53.48403125,27.44042428296345L53.694875,42.567132047735726L53.800296874999994,38.25552513163822L53.870578124999994,44.977307633711746L53.90571875,35.90884147584438L53.976,39.212574335244966L54.081421875,51.628449329963104L54.151703125,30.99310238659382L54.32740625,28.88153585791588L54.432828125,39.66618875815317L54.538250000000005,44.91072394526921L54.713953124999996,29.34669545407479L55.45190625,32.517600116821455L55.5221875,30.948552367778944L55.5221875,30.948552367778944L55.557328125,25.392401866041695L55.873593750000005,30.059652299835136L56.0844375,33.5713939586511L56.330421875,40.4398197290989L56.78725,9.779427058421646L56.99809375,37.49452210160402L57.173796875,39.37438939626401L57.244078125,40.276908855025596L57.27921875,39.458558275149414L57.630624999999995,21.54145388534434L57.736046875,47.680730620255844L57.876609375,33.95962486931913L57.98203125,40.089837912183555L58.263156249999994,39.85185079849683L58.298296875,15.17264059529856L58.509140625,42.437617381031686L58.54428125,34.54381063580513L58.6145625,26.594326151105093L58.6145625,26.594326151105093L59.4579375,44.498750418424606L59.52821875,28.609056723805594L59.563359375000005,29.96452529040667L59.5985,36.506268316736595L59.985046875,35.20872129729159L60.195890625000004,18.658434966435806L60.23103125,29.55350407728784L60.37159375,52.138602488316025L60.441874999999996,50.07793908508924L60.8635625,41.32763702938192L60.898703125000004,33.9595987785321L61.07440625,41.38246681827766L61.21496875,44.4440249926769L61.28525,48.41029425194628L61.320390625,41.452272718915566L61.88264062499999,59.541706756903565L61.952921874999994,60.9436821513451L62.40975,34.39348856646282L62.690875,48.90352753492502L62.690875,48.90352753492502L62.972,44.53672555891367L63.04228125,49.554114354344534L63.323406250000005,49.27035095485357L63.323406250000005,49.27035095485357L63.709953125,39.72236222257979L63.815375,41.20888481231836L63.885656250000004,34.380873670944794L63.955937500000005,56.612174487457835L64.02621875,45.51383857772902L64.0965,42.24737640756828L64.30734375,38.97195205207055L64.44790625,46.4329909132077L64.553328125,38.16452046655692L64.693890625,45.04445227407493L64.834453125,40.89104684499594L64.904734375,35.11775576839082L64.939875,51.30660642683506L64.975015625,47.09019174713356L65.045296875,35.776769912013634L65.15071875000001,39.84806763438078L65.326421875,46.87422525768096L65.502125,27.009626253293106L65.57240625,29.036475996558494L65.607546875,39.466776873056716L65.64268750000001,39.823698839315995L65.748109375,43.43917746727283L65.78325000000001,47.904406937269044L65.818390625,31.472794551115783L66.169796875,46.340616481808496L66.310359375,50.43561768417176L66.41578125,53.795054373832855L66.55634375,59.56883465269438L66.55634375,59.56883465269438L66.732046875,50.793048420777694L66.83746875,44.41632962226868L67.224015625,51.4667386320921L67.294296875,61.204485658269675L67.47,73.39903250680521L67.54028124999999,62.048711776160275L67.68084375,61.00359312101051L67.926828125,62.12756465719298L67.96196875,69.00790087190958L68.067390625,65.56738706162342L68.10253125,81.84022396344405L68.699921875,75.47510251975976L68.80534374999999,85.40898703726438L69.121609375,76.19587355622879L69.2973125,87.07862781561337L69.332453125,71.31125425318113L69.36759375,75.50371106771323L69.683859375,75.73916085236348L69.92984375,75.12876036763191L69.964984375,74.1299985182973L70.28125,77.74580980378848L70.35153125,83.58760224168118L70.49209375,80.66253801951042L70.80835937500001,62.81662234205466L70.91378125,57.10916484376558L71.33546874999999,77.61389478467979L71.5463125,74.65004008492598L71.61659374999999,74.7331392415441L71.61659374999999,74.7331392415441L71.651734375,73.5548793002963L71.686875,74.65175555417171L71.75715625,70.71757144022446L71.8274375,66.75569195586901L71.968,78.62861767296609L72.21398437500001,84.98003493077479L72.811375,61.33189349392286L72.88165624999999,76.2063359618187L73.02221875,67.34101919428662L73.16278125,61.59648668766022L73.373625,71.4819271363891L73.549328125,73.28078906008831L73.58446875,76.35657323610324L73.61960937500001,80.79944290163425L73.72503125,83.08564159044853L73.76017187500001,71.0440845942268L73.90073437500001,92.24093136477929L73.97101562499999,72.05603533639356L74.322421875,74.2694668202446L74.42784375,66.60635481373623L74.42784375,66.60635481373623L74.462984375,79.66165629373148L74.533265625,78.00851793816456L74.603546875,73.10885729640722L74.603546875,73.10885729640722L74.744109375,82.79320952697441L74.77925,69.14594722596499L74.884671875,60.394151472701466L75.20093750000001,70.98244510992214L75.37664062500001,78.24148257535238L75.4820625,66.65729055267114L75.58748437499999,81.81641612029992L75.657765625,59.82086513248774L75.86860937499999,71.59341306927112L75.90375,73.53638093230816L76.3254375,72.38821671387323L76.501140625,61.42767929572325L77.09853125,68.79549577488348L77.13367187499999,74.30018872194566L77.1688125,67.60288590078171L77.414796875,64.99819697496983L77.94190625,68.01270693769821L78.08246875,53.28948014859971L78.18789062500001,55.64478680949945L78.22303125,73.4637637493702L78.258171875,55.56055922634326L78.36359374999999,56.48637775790233L78.78528125,65.87771740498451L78.820421875,70.56535126612738L78.996125,66.3093633852326L79.031265625,68.28681674599648L79.101546875,79.74484676810411L79.34753125,70.60330683852617L79.45295312500001,61.97647290963393L79.62865625,45.953650974310364L79.874640625,79.52481663857516L79.94492187499999,63.90848264212791L79.98006249999999,68.65583179203364L80.436890625,68.28492516393844L80.647734375,56.94562126810733L80.8234375,78.62604773044586L80.928859375,58.34365043101403L81.209984375,59.218285361161605L81.31540625,68.78229383665781L81.35054687499999,73.82900867668482L81.59653125,79.32754419801327L81.701953125,77.91181895881891L81.772234375,83.04413114831999L82.193921875,72.47907135692927L82.29934375,61.11777292765103L82.40476562500001,67.79396830212612L82.615609375,77.0077470982304L82.75617187499999,80.32797585771635L83.00215625,80.95855756619802L83.213,67.57476655508462L83.28328125,87.20035438239574L83.529265625,80.80462844555196L83.529265625,80.80462844555196L83.56440625,67.99801130191639L84.12665625000001,78.80251276836947L84.16179687500001,73.68967082867256L84.16179687500001,73.68967082867256L84.4780625,69.86722703278065L84.7591875,81.24856318648044L84.82946875,79.79896558305391L85.6025625,70.64308224331874L85.74312499999999,78.83981607109308L85.91882812499999,62.96413965179369L86.02425,64.03672538296536L86.09453125,54.50335401411239L86.37565625,72.80262972930304L86.410796875,69.01861113997606L86.4459375,81.59787316563038L87.254171875,62.39395159253708L87.394734375,70.51193690242675L87.816421875,51.186914941439255L87.956984375,80.64832506328821L88.027265625,66.8544977662655L88.097546875,53.81125675256435L88.1326875,67.73776222421571L88.308390625,55.424815384241256L88.37867187500001,71.23866968372694L88.51923437500001,55.60223925858736L88.55437500000001,67.64949709177017L88.9760625,64.92596463114023L89.04634374999999,83.7224524743282L89.081484375,69.67547931636754L89.573453125,54.25052124261856L89.995140625,70.03346448219739L90.241125,52.075828054776565L90.3816875,69.18096106212873L90.487109375,76.0419183447957L90.557390625,74.27167801444348L90.6628125,69.63085102519163L90.9439375,69.77071068894405L91.260203125,82.18303081393242L91.29534375,58.78819178274044L91.400765625,63.57883859368471L91.47104687500001,60.874130635880505L91.892734375,62.55763866752386L91.927875,56.455257971699425L92.0684375,56.75371700697221L92.103578125,75.22444180628428L92.13871875,74.68057935111798L92.173859375,61.080926213700025L92.173859375,61.080926213700025L92.63068750000001,65.57655145055972L92.77125000000001,64.36933725843063L93.1929375,63.771656032365115L93.3335,68.95483873383358L93.57948437499999,51.101245842300926L93.614625,57.889403306520904L93.89575,70.35961888787838L94.42285937499999,68.82589154174694L94.45800000000001,39.639093475846124L94.633703125,59.983984732857124L94.914828125,49.679884993113006L95.02025,61.39033033412237L95.406796875,58.75444334974655L95.44193750000001,47.95478824698009L95.547359375,64.27312748134136L95.72306250000001,56.26120122063618L95.75820312500001,53.60401763136569L95.89876562500001,46.72784289717674L96.0041875,36.18222074210644L96.10960937499999,46.37838289600151L96.21503125,36.12566896126822L96.2853125,58.07524798237361L96.5664375,73.14805870388564L96.77728125,33.68935040671093L96.8475625,38.208261670974565L96.952984375,50.84683457819315L97.234109375,52.57678421070942L97.26925,46.75822561864669L97.37467187499999,36.92506458438359L97.444953125,46.793526453467535L97.726078125,52.55456790557274L98.04234375,64.36070120793123L98.39375,54.45442074308029L98.71001562500001,52.176512401837556L98.74515625000001,59.382937795267665L98.780296875,50.60389021497507L98.81543749999999,48.377654677400216L98.88571875,55.12366899790672L99.16684375,49.16423972409504L99.3776875,56.264403864741325L99.623671875,59.255242960957375L100.15078125000001,69.60133582238969L100.185921875,59.015390355999656L100.607609375,75.72490875996075L100.677890625,55.425206746046356L100.71303125,62.17220599376239L100.818453125,56.65551780737363L100.85359375,62.06272905147992L100.888734375,68.39589580377707L101.0644375,47.17865256048165L101.169859375,63.856796793066536L101.41584375000001,78.55459158752974L101.55640625000001,64.50780106507816L101.76724999999999,64.5516401099471L101.80239062499999,70.67054931934062L101.872671875,61.650377208223716L102.08351562499999,71.12617273284837L102.153796875,70.81822969649848L102.22407812499999,85.84589031109444L102.25921875,71.60455383532323L102.434921875,76.6308461118203L102.505203125,76.93709324701473L103.0323125,76.54411381311141L103.10259375000001,58.93294346905671L103.24315625000001,72.6970468369814L104.01625,80.57202255668548L104.1568125,69.11039200597085L104.262234375,75.40359419526962L104.332515625,65.75326435095988L104.54335937500001,68.81133288259689L104.64878125000001,72.4504367181888L104.75420312499999,68.70750459570151L105.14075,45.79597130303199L105.316453125,55.908453780298046L105.421875,62.30806072170917L105.5624375,54.90184512677101L105.597578125,61.155578478024566L105.80842187500001,30.995620147540023L105.984125,52.63961082582291L106.05440625,60.739880491334645L106.230109375,61.15244758358368L107.03834375,44.677394037063294L107.143765625,52.57765825207416L107.143765625,52.57765825207416L107.31946875,40.59556868213875L108.61967187500001,45.89745141909674L108.795375,53.66707906356224L108.830515625,42.49573460909036L108.86565625,47.87148036406592L108.90079687500001,41.3959427097669L108.93593750000001,46.80845038363569L108.971078125,48.36210456834391L109.392765625,45.14833274254434L109.4981875,41.77598111331463L109.533328125,45.42128151082076L109.673890625,52.17430773033544L109.884734375,52.56172982660624L110.025296875,44.589050632256715L110.095578125,44.01299214592345L110.095578125,44.01299214592345L110.376703125,48.364439693781065L110.657828125,26.64157656637522L110.76325,59.958924531936646L110.83353125,17.290260186562165L110.97409375,52.41923499336609L111.00923437499999,49.73922848816102L111.1849375,42.52563465100067L111.25521875,53.99463584904488L111.360640625,53.7704898978655L111.430921875,50.63397289239444L111.88775000000001,57.31809334342297L112.063453125,55.11107367047897L112.3094375,36.94458049306505L112.45,54.68002777833205L112.555421875,44.16204881209595L112.625703125,55.716640836917435L112.625703125,55.716640836917435L112.977109375,45.4793335119119L113.01225000000001,62.62081750826195L113.117671875,56.36355537806567L113.64478125,55.34167709144262L113.750203125,37.05961477298004L114.031328125,59.14871427760676L114.06646875,61.25632152935633L114.34759375,44.39880965879328L114.382734375,52.64210249598209L114.699,52.6784339168897L114.73414062500001,61.88846868505844L114.76928125,58.50902688445953L114.94498437499999,53.22853207015075L115.12068749999999,60.09135484408874L115.577515625,58.94006625390969L115.61265625,53.352880761027336L115.8235,57.226899520135845L115.858640625,58.089447893202305L115.89378125,58.98871904898148L115.928921875,51.449544803454316L116.13976562500001,67.46986854592195L116.45603125,69.76166370854929L116.80743749999999,61.90282514060918L116.948,51.87736848340586L117.0885625,57.892847290405854L117.15884375,78.28265383724984L117.26426562500001,54.26556258132824L117.29940625,63.60779936726276L117.29940625,63.60779936726276L117.475109375,56.1002210648014L117.93193749999999,66.30213623723158L118.037359375,60.283930942989315L118.318484375,63.75078992545605L118.4941875,77.20959847191206L118.56446875,62.00330076137415L118.599609375,63.65383003824033L118.740171875,64.01235658790056L118.84559375,80.67476155322332L118.880734375,63.09099958091974L119.0564375,62.75936610996723L119.12671875000001,56.837050980673396L119.232140625,74.3357569873333L119.26728125000001,61.20760350731703L119.37270312499999,61.711123083073346L119.47812499999999,62.120963688080124L119.51326562499999,65.09445241093636L119.54840625,63.19983077622376L120.1809375,51.30681515313111L120.39178125000001,60.14797837459125L120.70804687500001,64.73312110167284L120.7431875,68.84455297715388L121.09459375,69.90254091299497L121.129734375,67.56237343125619L121.481140625,73.72964191436768L121.902828125,67.33517485799698L121.93796875000001,77.47565927241858L122.183953125,60.47482418612793L122.32451562499999,67.2912184045865L122.46507812499999,70.67232349285713L122.535359375,70.57723561960917L122.5705,71.07189085047979L122.5705,71.07189085047979L123.34359375,79.20472834087334L123.449015625,73.94573885775529L123.51929687500001,69.63017266472944L123.62471875,58.042451863105484L123.87070312499999,71.81687413729153L123.90584374999999,75.91472575813532L123.90584374999999,75.91472575813532L124.04640624999999,71.32342560532001L124.362671875,69.68223683020243L124.74921875,69.39319656903926L124.854640625,79.24842388641376L125.20604687500001,78.76899262976188L125.2411875,75.93882712263327L125.346609375,61.934597196487275L125.8034375,65.46387186417213L125.87371875,67.26420139464048L126.119703125,76.45307653454634L126.18998437500001,65.12075844693642L126.50625000000001,71.72952218239125L126.64681250000001,75.9216593847825L127.033359375,75.89479891955853L127.103640625,73.31730311650496L127.173921875,71.85256633391747L127.2090625,61.38742773406781L127.665890625,70.72475945204496L128.0524375,71.13432610378817L128.298421875,80.16585422994999L128.579546875,77.26608502578277L128.75525000000002,68.65554479337655L129.036375,69.03247839327041L129.282359375,82.84982653478018L129.3175,70.6056158731763L129.66890625,69.20967397323021L130.09059375,66.0818647679228L130.125734375,70.37543642750153L130.37171874999999,78.65693922226247L130.68798437499998,62.2398463590787L130.758265625,72.66122418642044L130.828546875,74.39600061453305L131.49621875,72.89989618326608L131.60164062500002,75.53348717838526L131.671921875,73.59318057562295L131.77734375,62.703929710273556L131.882765625,71.31685072699419L131.98818749999998,61.43201036636647L132.023328125,60.72380856653818L132.05846875,68.97106068065533L132.48015625,62.42068812652275L132.62071875,62.613062021824035L132.936984375,65.50364726896468L133.007265625,82.72233390406922L133.04240625,71.26950247127276L133.25324999999998,70.84282678594955L133.288390625,65.81178598621717L133.3938125,63.36882732636653L133.60465625,59.58054289336387L133.710078125,61.099450672475186L133.88578125,68.23732904574045L134.061484375,55.210649159092156L134.553453125,74.19364699320153L134.58859375,67.41241663293198L134.658875,65.8440798578354L134.904859375,73.84701131971983L135.6428125,71.62956837736644L135.67795312500002,69.91571023773689L135.99421875000002,49.09626017854765L136.310484375,64.39928295921821L136.62675,67.75560179983195L136.66189062499998,60.564674333884156L136.7673125,60.6109789581253L136.83759375,72.05493952333927L137.153859375,60.338956412787624L137.189,57.47304652745906L137.470125,47.24839323415205L137.54040625000002,63.87906527977724L137.64582812499998,52.40638528076502L138.137796875,60.94927210246142L138.1729375,53.75070003592052L138.278359375,56.31665066572336L138.594625,58.16200637186948L138.629765625,43.278262538405585L138.770328125,57.677089527249336L138.910890625,55.93230728231944L139.08659375000002,40.91977280149095L139.12173437500002,54.33198972504873L139.2974375,60.449092147442016L139.36771875,58.03388756227035L139.36771875,58.03388756227035L139.719125,53.604839491156426L139.78940625,44.859938228359596L139.824546875,50.78625177076229L139.894828125,52.87307118796386L140.07053125000002,49.17141469052203L140.38679687500002,51.82980497869161L140.73820312499998,45.461787457649535L140.80848437499998,36.778930086355956L140.9841875,45.132756542700974L141.08960937499998,50.40031684935093L141.08960937499998,50.40031684935093L141.159890625,42.078790787320884L141.230171875,45.495235846592834L141.61671875000002,55.27248432429937L141.932984375,34.73356892970892L142.003265625,38.67412571838267L142.073546875,53.90901893148056L142.354671875,37.615609444104706L142.38981249999998,56.6895271482376L142.56551562500002,45.850005322924034L142.67093749999998,37.74040167836043L142.706078125,19.758774772286415L142.8115,41.57184679576986L142.84664062500002,40.21396483137056L142.88178125,38.11344775099022L143.092625,16.337124601006508L143.12776562500002,25.51238035009459L143.16290625,26.10221477196768L143.58459375,41.14310993827306L143.72515625,29.984041199088097L143.7954375,16.805362910032272L144.0765625,38.374212121734246L144.252265625,27.13314003898546L144.252265625,27.13314003898546L144.28740625,23.457535192370415L144.392828125,17.005048748392312L144.6388125,38.056661153068916L144.70909375000002,5.425474795011354L144.84965625,40.353485314891884L144.955078125,39.42925832134026L145.165921875,34.25300272382222L145.62275,34.509018571330955L146.0444375,51.945922026267425L146.11471875,34.15160088011854L146.11471875,34.15160088011854L146.25528125,38.04524643375322L146.53640625,33.26035264134407L146.74725,43.25609841484291L146.922953125,37.673257037997246L147.06351562499998,46.67581786788426L147.1689375,43.906372144818306L147.59062500000002,43.45335781001128L149.52335937499998,112.05484901540555L149.663921875,123.30469738663389L150.12075000000002,120.9902488981875L150.507296875,130.0674587310507L150.647859375,128.15827517583966L150.928984375,132.82780855349623L150.964125,125.29955982502837L151.10468749999998,129.28941189440397L151.45609374999998,139.07333309088762L151.8075,123.86782462665667L151.842640625,125.39495426502366L151.87778125,136.6086995097307L152.15890625,134.6219513060955L152.86171875,131.5210090887088L153.70509374999997,133.73287186399102L153.91593749999998,136.0008233086421L153.951078125,132.81613618765886L154.0565,136.1058387263463L154.40790625,134.95157904779683L154.724171875,135.82844474023352L154.82959375,143.95184714977557L155.181,136.38202275221164L155.356703125,134.61947920402656L156.621765625,140.79058955552486L156.93803125,141.38923940205802L157.0083125,141.11817895449124L157.148875,135.98349576472089L157.35971874999998,130.81339759293655L157.465140625,134.06644909857556L157.711125,133.77606190053316L157.99225,138.2100068862335L158.09767187499997,138.05456286926682L158.37879687499998,137.74246161373762L158.519359375,142.7608744725585L158.65992187499998,144.75554123005043L159.46815625000002,140.29405415731554L159.60871874999998,141.79152183220364L159.85470312500001,143.74142495256206L159.995265625,144.70845877422164L160.3818125,141.6252044797517L160.80349999999999,140.66014377385952L161.36575,145.65922009815964L162.244265625,143.90469294428252L162.77137499999998,146.4836123259022L163.26334375,141.14977326688285L163.54446875,140.32628443264045L163.82559375,144.49690651979586L164.0364375,141.74662121843835L164.07157812499997,147.61511757683297L164.66896875,147.01513057746567L164.985234375,143.51313056624852L165.477203125,146.43995917789064L165.58262499999998,148.00170965994207L166.35571875,145.2967261182001L166.95310937500003,144.70785705544628L167.374796875,144.98310181297936L167.48021875,138.78047868279884L167.69106250000002,141.65626393100962L168.32359375000001,146.81541049494766L168.39387499999998,146.76454324432865L169.02640624999998,143.52415881578168L169.16696875,138.5776113990981L169.272390625,145.10315530804488L169.90492187499999,147.99766069593338L170.045484375,147.91875889467505L170.29146875,145.6697167479075L170.748296875,143.4280941686951L170.959140625,144.41894724821816L171.451109375,147.6642889262965L171.872796875,145.83393053065697L172.39990625,144.79757022657074L172.68103125,146.16452852350017L172.71617187500001,148.2180479431095L173.489265625,138.1763041121169L173.629828125,145.33895079562296L174.121796875,143.88384477478954L174.543484375,143.34484172870333L174.578625,144.83824250216668L174.824609375,147.51048210621454L175.316578125,146.9432064310576L175.52742187500002,145.69061220695193L175.77340625,144.30933985200068L175.8436875,149.65354184548443L176.159953125,148.63697466469154L176.23023437499998,146.095431966134L176.265375,148.62849352824L176.933046875,148.49040966867827L177.03846875000002,141.2196982067365L177.354734375,142.70476949644777L177.81156249999998,142.78761100654418L178.30353125,147.43763989023864L178.6549375,144.38977285632149L179.2171875,147.76399813019313L179.603734375,148.458228313579L180.236265625,147.59169620347137L180.587671875,143.34640391457538L180.62281249999998,149.66872179150008L180.83365625,150.26157132994672L181.079640625,143.26695257611573L181.220203125,145.15047747297928L181.25534375,151.0778591069751L181.290484375,144.79447031493942L182.063578125,145.30996719260628L182.09871875000002,143.5095610204511L182.23928125,142.86911047178393L182.3095625,147.20288640346666L182.625828125,148.62190886586905L182.76639062499999,151.98445688188076L183.78546875,149.78634395135137L183.820609375,147.9270639183143L184.136875,146.37168937233778L184.24229687500002,152.95317192862814L184.48828125,143.6320523734276L184.8396875,148.6374948497575L184.874828125,144.99750881942992L184.90996875,148.61797894107607L184.945109375,145.43325105323814L185.1208125,146.03406480441873L185.33165625,142.57116509888033L185.47221875,147.3992799106412L185.54250000000002,144.28513575502888L186.10475,144.05344793573022L186.31559374999998,147.0649395205367L186.350734375,150.13331554371575L186.631859375,148.4887708411194L187.29953125,145.6124702998652L187.896921875,149.98863397638956L188.810578125,142.614472543964L189.6188125,146.03316630294117L190.075640625,148.33185595603516L190.1810625,146.93181617185473L191.27042187499998,145.23548777974568L191.3055625,148.8006144501269L191.86781249999999,149.78578136875652L191.902953125,144.5631102611526L192.254359375,147.97345007626484L192.35978125,144.7151608451341L192.4300625,146.8358346891518L192.816609375,144.20472884149507L193.02745312500002,148.92301285467468L193.132875,148.69864187045738L193.2734375,146.8054160928497L193.90596875,146.41531153753974L193.941109375,147.11795436906127L194.08167187499998,143.2860559242276L194.18709375,143.70054231999586L194.257375,147.72810536064208L194.74934374999998,142.9177681588783L194.88990625,146.4200812595395L195.27645312500002,148.21594111205866L195.38187499999998,145.73464041002669L196.0846875,144.47950233418783L196.3658125,145.2713723959258L196.71721875,148.14782458987946L196.752359375,144.5578921037511L197.13890625000002,151.5098695429042L197.947140625,144.34542993312846L198.12284375,147.4781866039221L198.72023437500002,149.8981902632289L200.266421875,148.87626142570605L200.30156250000002,147.1227974713995L200.442125,147.7016656093586L200.58268750000002,152.62128977986197L201.21521875,145.36987653159753L201.4260625,151.63394835720268L201.461203125,146.55281650776473L202.937109375,139.85461518512324L203.218234375,148.94816111200132L203.499359375,146.15801561079346L203.53449999999998,144.63925459235907L204.131890625,151.899807769447L204.58871875,149.30560163265238L204.72928124999999,143.78276743524924L205.11582812499998,152.73677004916738L205.537515625,148.7826900794529L205.64293750000002,148.84192105798195L205.71321875,151.8577453441058L205.85378125,147.88947524760778L206.13490625,152.29128535242322L208.24334375,149.98143618052396L208.45418750000002,151.7146911896192L208.489328125,148.10995381253844L208.55960937499998,150.45870027118005L209.08671875000002,148.05101635536323L209.332703125,146.53330549110586L210.1409375,145.65426774065082L210.2815,149.51432792871043L210.66804687500002,148.65423208962267L210.77346875,151.13812230226512L211.37085937499998,150.31160693672987L211.581703125,150.2308934564487L212.03853125,146.52925815777138L212.74134375,148.77731211598103L213.057609375,146.8286450466571L213.619859375,149.70048406333305L213.69014062500003,148.5349662101899L214.00640625,151.99198244325817L214.322671875,153.2621390283681L214.603796875,148.38205299956294L215.306609375,145.8236393458568L215.376890625,154.16069839486423L215.48231249999998,151.04447512966223L215.55259375,148.25233612925962L215.76343749999998,151.92480192806283L216.185125,151.35467583442536L216.220265625,151.17504321189168L216.46625,149.7735186988631L216.57167187500002,148.25639813866178L216.747375,150.4021093541613L216.99335937499998,146.5255173911842L217.06364062499998,145.34290681120297L218.85581249999998,153.08720845485536L219.242359375,149.07631742710677L219.34778125,149.387768043635L219.523484375,148.18732278006007L220.085734375,149.4199151545763L220.226296875,149.471907570385L220.2614375,151.4386262029696L220.33171875,151.848992700402L220.68312500000002,149.8307537321861L220.8236875,151.62301142542407L220.96425000000002,153.2788420240753L221.280515625,148.24185089423105L221.31565625,150.59501647992204L221.491359375,152.41254310037652L221.63192187500002,143.98309412856514L221.6670625,144.8109091414282L222.19417187500002,152.45287048838173L223.28353125,151.5024100238314L223.70521875,146.9904454316084L223.951203125,146.95345521832888L224.12690625,146.61732597864017L224.618875,152.91315029203318L224.935140625,148.47334792464972L225.46225,149.27177818864584L225.84879687499998,142.3991632162092L226.09478125,151.79135815190295L226.12992187499998,147.74635749682784L226.23534375,150.29283461547814L226.4461875,146.34138329255467L227.78153125,150.9088258666631L227.88695312500002,150.954078706053L227.957234375,150.6856053230854L228.06265625,152.93448277176L228.097796875,150.74214731987854L228.23835937500002,153.35427538133584L229.362859375,149.17851340914L229.854828125,151.16071936982468L230.80362499999998,146.58937785373286L231.01446875,146.752339278706L231.15503125,147.57673802914528L231.7875625,146.41448152437806L231.963265625,151.37686360276376L232.490375,149.02068371583636L232.595796875,151.08705937074353L232.70121875,144.7475607105746L233.439171875,153.87440663504486L233.82571875,151.0087943477556L234.28254687499998,151.57831627660647L234.3176875,149.97386496026928L234.66909375,149.70982456508165L234.774515625,147.32743240591998L234.91507812499998,152.32019883644983L235.51246875,155.80684849619865L235.58275,150.91391846215208L235.688171875,152.93508122918698L236.42612499999998,153.86739310536245L236.49640625,148.33273488942245L236.67210937500002,152.99895718314042L237.05865625,153.59069215577955L237.33978125,151.61953319738117L237.48034375,145.53684941507302L238.077734375,144.2814488006899L238.288578125,146.79359533566122L238.639984375,154.23379418067634L238.710265625,151.35104513834588L238.92110937500001,149.3481051553614L239.0968125,150.29169151287238L239.272515625,144.30569692586477L239.3779375,148.6041116877817L239.905046875,152.76326768938452L239.9401875,144.5491761502165L240.888984375,150.96620521465172L241.170109375,153.11748844385147L241.521515625,153.4274600388912L241.9080625,149.75865021161735L242.64601562500002,151.92139137299876L242.856859375,146.5299332568852L243.24340625,153.43546827982823L243.278546875,152.83522363393925L244.403046875,153.54458891980062L244.43818750000003,150.19741082334747L244.64903124999998,150.86905535389312L246.47634375,148.38773752978216L246.546625,151.32061920400997L246.79260937499998,150.4718647038994L246.89803125,141.0082812982683L247.144015625,150.46050542750612L248.09281249999998,152.82587008679715L248.83076562500003,149.28826104333768L249.182171875,149.3774246772608L249.744421875,150.72500567281475L249.814703125,155.1505282263343L249.884984375,155.03567332057997L250.0606875,153.23830264842567L251.18518749999998,148.9314597469683L251.360890625,155.01269549059754L251.7474375,151.8484521319087L251.78257812500001,153.68053904218743L251.81771875,155.3198060677745L251.92314062499997,151.08063532978008L252.48539062499998,152.38829171385328L253.43418749999998,149.19009445722287L253.539609375,151.64759546948167L254.24242187500002,150.93772059793656L254.453265625,150.5407248135083L254.48840625,151.2193037860382L255.4020625,153.27120150016765L255.648046875,151.54156740310674L255.718328125,151.69713045928916L255.89403125,154.44135372935293L257.053671875,146.40718262671277L257.15909375,154.19430903588923L257.826765625,154.21128190817456L257.86190625,148.58854037996093L258.17817187500003,150.79895511656426L258.42415625,152.0542065242592L258.529578125,152.76713890990672L258.7755625,151.64113963037155L258.880984375,151.43661558169583L259.54865625,150.96645878448794L259.654078125,154.93771627609834L260.005484375,143.77734870492264" style="fill: none;" fill="none"></path></g></g></g></g></g></g><g transform="translate(48, 177)" clip-path="url(#clip_1)"><clipPath id="clip_1"><rect width="281" height="22"></rect></clipPath><g><g><line x1="0" y1="0" x2="0" y2="5" style="visibility: inherit;" fill="rgb(0, 0, 0)" stroke="rgb(204, 204, 204)" stroke-width="1px"></line><line x1="35.140625" y1="0" x2="35.140625" y2="5" style="visibility: inherit;" fill="rgb(0, 0, 0)" stroke="rgb(204, 204, 204)" stroke-width="1px"></line><line x1="70.28125" y1="0" x2="70.28125" y2="5" style="visibility: inherit;" fill="rgb(0, 0, 0)" stroke="rgb(204, 204, 204)" stroke-width="1px"></line><line x1="105.421875" y1="0" x2="105.421875" y2="5" style="visibility: inherit;" fill="rgb(0, 0, 0)" stroke="rgb(204, 204, 204)" stroke-width="1px"></line><line x1="140.5625" y1="0" x2="140.5625" y2="5" style="visibility: inherit;" fill="rgb(0, 0, 0)" stroke="rgb(204, 204, 204)" stroke-width="1px"></line><line x1="175.703125" y1="0" x2="175.703125" y2="5" style="visibility: inherit;" fill="rgb(0, 0, 0)" stroke="rgb(204, 204, 204)" stroke-width="1px"></line><line x1="210.84375" y1="0" x2="210.84375" y2="5" style="visibility: inherit;" fill="rgb(0, 0, 0)" stroke="rgb(204, 204, 204)" stroke-width="1px"></line><line x1="245.984375" y1="0" x2="245.984375" y2="5" style="visibility: inherit;" fill="rgb(0, 0, 0)" stroke="rgb(204, 204, 204)" stroke-width="1px"></line><line x1="281.125" y1="0" x2="281.125" y2="5" style="visibility: inherit;" fill="rgb(0, 0, 0)" stroke="rgb(204, 204, 204)" stroke-width="1px"></line></g><g transform="translate(0, 8)"><text x="0" y="0" dx="0em" dy="0.95em" style="text-anchor: middle; visibility: hidden; font-family: &quot;Helvetica Neue&quot;, sans-serif; font-size: 12px; font-weight: 200;" fill="rgb(50, 49, 63)" stroke="none" stroke-width="1px">-1k</text><text x="35.140625" y="0" dx="0em" dy="0.95em" style="text-anchor: middle; visibility: inherit; font-family: &quot;Helvetica Neue&quot;, sans-serif; font-size: 12px; font-weight: 200;" fill="rgb(50, 49, 63)" stroke="none" stroke-width="1px">0</text><text x="70.28125" y="0" dx="0em" dy="0.95em" style="text-anchor: middle; visibility: inherit; font-family: &quot;Helvetica Neue&quot;, sans-serif; font-size: 12px; font-weight: 200;" fill="rgb(50, 49, 63)" stroke="none" stroke-width="1px">1k</text><text x="105.421875" y="0" dx="0em" dy="0.95em" style="text-anchor: middle; visibility: inherit; font-family: &quot;Helvetica Neue&quot;, sans-serif; font-size: 12px; font-weight: 200;" fill="rgb(50, 49, 63)" stroke="none" stroke-width="1px">2k</text><text x="140.5625" y="0" dx="0em" dy="0.95em" style="text-anchor: middle; visibility: inherit; font-family: &quot;Helvetica Neue&quot;, sans-serif; font-size: 12px; font-weight: 200;" fill="rgb(50, 49, 63)" stroke="none" stroke-width="1px">3k</text><text x="175.703125" y="0" dx="0em" dy="0.95em" style="text-anchor: middle; visibility: inherit; font-family: &quot;Helvetica Neue&quot;, sans-serif; font-size: 12px; font-weight: 200;" fill="rgb(50, 49, 63)" stroke="none" stroke-width="1px">4k</text><text x="210.84375" y="0" dx="0em" dy="0.95em" style="text-anchor: middle; visibility: inherit; font-family: &quot;Helvetica Neue&quot;, sans-serif; font-size: 12px; font-weight: 200;" fill="rgb(50, 49, 63)" stroke="none" stroke-width="1px">5k</text><text x="245.984375" y="0" dx="0em" dy="0.95em" style="text-anchor: middle; visibility: inherit; font-family: &quot;Helvetica Neue&quot;, sans-serif; font-size: 12px; font-weight: 200;" fill="rgb(50, 49, 63)" stroke="none" stroke-width="1px">6k</text><text x="281.125" y="0" dx="0em" dy="0.95em" style="text-anchor: middle; visibility: hidden; font-family: &quot;Helvetica Neue&quot;, sans-serif; font-size: 12px; font-weight: 200;" fill="rgb(50, 49, 63)" stroke="none" stroke-width="1px">7k</text></g><line x1="0" y1="0" x2="281.125" y2="0" fill="rgb(0, 0, 0)" stroke="rgb(204, 204, 204)" stroke-width="1px"></line></g></g></g></g></svg>