<svg viewBox="0 0 330 200" xmlns="http://www.w3.org/2000/svg"><g><g><g><g><g><line x1="39.15625" y1="177.828125" x2="34.15625" y2="177.828125" style="visibility: inherit;" fill="rgb(0, 0, 0)" stroke="rgb(204, 204, 204)" stroke-width="1px"></line><line x1="39.15625" y1="161.6619318181818" x2="34.15625" y2="161.6619318181818" style="visibility: inherit;" fill="rgb(0, 0, 0)" stroke="rgb(204, 204, 204)" stroke-width="1px"></line><line x1="39.15625" y1="145.49573863636363" x2="34.15625" y2="145.49573863636363" style="visibility: inherit;" fill="rgb(0, 0, 0)" stroke="rgb(204, 204, 204)" stroke-width="1px"></line><line x1="39.15625" y1="129.32954545454547" x2="34.15625" y2="129.32954545454547" style="visibility: inherit;" fill="rgb(0, 0, 0)" stroke="rgb(204, 204, 204)" stroke-width="1px"></line><line x1="39.15625" y1="113.16335227272727" x2="34.15625" y2="113.16335227272727" style="visibility: inherit;" fill="rgb(0, 0, 0)" stroke="rgb(204, 204, 204)" stroke-width="1px"></line><line x1="39.15625" y1="96.9971590909091" x2="34.15625" y2="96.9971590909091" style="visibility: inherit;" fill="rgb(0, 0, 0)" stroke="rgb(204, 204, 204)" stroke-width="1px"></line><line x1="39.15625" y1="80.83096590909092" x2="34.15625" y2="80.83096590909092" style="visibility: inherit;" fill="rgb(0, 0, 0)" stroke="rgb(204, 204, 204)" stroke-width="1px"></line><line x1="39.15625" y1="64.66477272727273" x2="34.15625" y2="64.66477272727273" style="visibility: inherit;" fill="rgb(0, 0, 0)" stroke="rgb(204, 204, 204)" stroke-width="1px"></line><line x1="39.15625" y1="48.49857954545453" x2="34.15625" y2="48.49857954545453" style="visibility: inherit;" fill="rgb(0, 0, 0)" stroke="rgb(204, 204, 204)" stroke-width="1px"></line><line x1="39.15625" y1="32.332386363636346" x2="34.15625" y2="32.332386363636346" style="visibility: inherit;" fill="rgb(0, 0, 0)" stroke="rgb(204, 204, 204)" stroke-width="1px"></line><line x1="39.15625" y1="16.166193181818187" x2="34.15625" y2="16.166193181818187" style="visibility: inherit;" fill="rgb(0, 0, 0)" stroke="rgb(204, 204, 204)" stroke-width="1px"></line><line x1="39.15625" y1="0" x2="34.15625" y2="0" style="visibility: inherit;" fill="rgb(0, 0, 0)" stroke="rgb(204, 204, 204)" stroke-width="1px"></line></g><g transform="translate(29.15625, 0)"><text x="0" y="177.828125" dx="0em" dy="0.3em" style="text-anchor: end; visibility: hidden; font-family: &quot;Helvetica Neue&quot;, sans-serif; font-size: 12px; font-weight: 200;" fill="rgb(50, 49, 63)" stroke="none" stroke-width="1px">-11</text><text x="0" y="161.6619318181818" dx="0em" dy="0.3em" style="text-anchor: end; visibility: inherit; font-family: &quot;Helvetica Neue&quot;, sans-serif; font-size: 12px; font-weight: 200;" fill="rgb(50, 49, 63)" stroke="none" stroke-width="1px">-10</text><text x="0" y="145.49573863636363" dx="0em" dy="0.3em" style="text-anchor: end; visibility: hidden; font-family: &quot;Helvetica Neue&quot;, sans-serif; font-size: 12px; font-weight: 200;" fill="rgb(50, 49, 63)" stroke="none" stroke-width="1px">-9</text><text x="0" y="129.32954545454547" dx="0em" dy="0.3em" style="text-anchor: end; visibility: inherit; font-family: &quot;Helvetica Neue&quot;, sans-serif; font-size: 12px; font-weight: 200;" fill="rgb(50, 49, 63)" stroke="none" stroke-width="1px">-8</text><text x="0" y="113.16335227272727" dx="0em" dy="0.3em" style="text-anchor: end; visibility: hidden; font-family: &quot;Helvetica Neue&quot;, sans-serif; font-size: 12px; font-weight: 200;" fill="rgb(50, 49, 63)" stroke="none" stroke-width="1px">-7</text><text x="0" y="96.9971590909091" dx="0em" dy="0.3em" style="text-anchor: end; visibility: inherit; font-family: &quot;Helvetica Neue&quot;, sans-serif; font-size: 12px; font-weight: 200;" fill="rgb(50, 49, 63)" stroke="none" stroke-width="1px">-6</text><text x="0" y="80.83096590909092" dx="0em" dy="0.3em" style="text-anchor: end; visibility: hidden; font-family: &quot;Helvetica Neue&quot;, sans-serif; font-size: 12px; font-weight: 200;" fill="rgb(50, 49, 63)" stroke="none" stroke-width="1px">-5</text><text x="0" y="64.66477272727273" dx="0em" dy="0.3em" style="text-anchor: end; visibility: inherit; font-family: &quot;Helvetica Neue&quot;, sans-serif; font-size: 12px; font-weight: 200;" fill="rgb(50, 49, 63)" stroke="none" stroke-width="1px">-4</text><text x="0" y="48.49857954545453" dx="0em" dy="0.3em" style="text-anchor: end; visibility: hidden; font-family: &quot;Helvetica Neue&quot;, sans-serif; font-size: 12px; font-weight: 200;" fill="rgb(50, 49, 63)" stroke="none" stroke-width="1px">-3</text><text x="0" y="32.332386363636346" dx="0em" dy="0.3em" style="text-anchor: end; visibility: inherit; font-family: &quot;Helvetica Neue&quot;, sans-serif; font-size: 12px; font-weight: 200;" fill="rgb(50, 49, 63)" stroke="none" stroke-width="1px">-2</text><text x="0" y="16.166193181818187" dx="0em" dy="0.3em" style="text-anchor: end; visibility: hidden; font-family: &quot;Helvetica Neue&quot;, sans-serif; font-size: 12px; font-weight: 200;" fill="rgb(50, 49, 63)" stroke="none" stroke-width="1px">-1</text><text x="0" y="0" dx="0em" dy="0.3em" style="text-anchor: end; visibility: hidden; font-family: &quot;Helvetica Neue&quot;, sans-serif; font-size: 12px; font-weight: 200;" fill="rgb(50, 49, 63)" stroke="none" stroke-width="1px">0</text></g><line x1="39.15625" y1="0" x2="39.15625" y2="177.828125" fill="rgb(0, 0, 0)" stroke="rgb(204, 204, 204)" stroke-width="1px"></line></g></g><g transform="translate(39, 0)" clip-path="url(#clip_0)"><clipPath id="clip_0"><rect width="290" height="177"></rect></clipPath><g><g><g><line x1="0" y1="0" x2="0" y2="177.828125" fill="rgb(0, 0, 0)" stroke="rgb(60, 60, 60)" stroke-width="1px" opacity="0.25"></line><line x1="36.35546875" y1="0" x2="36.35546875" y2="177.828125" fill="rgb(0, 0, 0)" stroke="rgb(60, 60, 60)" stroke-width="1px" opacity="0.25"></line><line x1="72.7109375" y1="0" x2="72.7109375" y2="177.828125" fill="rgb(0, 0, 0)" stroke="rgb(60, 60, 60)" stroke-width="1px" opacity="0.25"></line><line x1="109.06640625" y1="0" x2="109.06640625" y2="177.828125" fill="rgb(0, 0, 0)" stroke="rgb(60, 60, 60)" stroke-width="1px" opacity="0.25"></line><line x1="145.421875" y1="0" x2="145.421875" y2="177.828125" fill="rgb(0, 0, 0)" stroke="rgb(60, 60, 60)" stroke-width="1px" opacity="0.25"></line><line x1="181.77734375" y1="0" x2="181.77734375" y2="177.828125" fill="rgb(0, 0, 0)" stroke="rgb(60, 60, 60)" stroke-width="1px" opacity="0.25"></line><line x1="218.1328125" y1="0" x2="218.1328125" y2="177.828125" fill="rgb(0, 0, 0)" stroke="rgb(60, 60, 60)" stroke-width="1px" opacity="0.25"></line><line x1="254.48828125" y1="0" x2="254.48828125" y2="177.828125" fill="rgb(0, 0, 0)" stroke="rgb(60, 60, 60)" stroke-width="1px" opacity="0.25"></line><line x1="290.84375" y1="0" x2="290.84375" y2="177.828125" fill="rgb(0, 0, 0)" stroke="rgb(60, 60, 60)" stroke-width="1px" opacity="0.25"></line></g><g><line x1="0" y1="177.828125" x2="290.84375" y2="177.828125" fill="rgb(0, 0, 0)" stroke="rgb(60, 60, 60)" stroke-width="1px" opacity="0.25"></line><line x1="0" y1="161.6619318181818" x2="290.84375" y2="161.6619318181818" fill="rgb(0, 0, 0)" stroke="rgb(60, 60, 60)" stroke-width="1px" opacity="0.25"></line><line x1="0" y1="145.49573863636363" x2="290.84375" y2="145.49573863636363" fill="rgb(0, 0, 0)" stroke="rgb(60, 60, 60)" stroke-width="1px" opacity="0.25"></line><line x1="0" y1="129.32954545454547" x2="290.84375" y2="129.32954545454547" fill="rgb(0, 0, 0)" stroke="rgb(60, 60, 60)" stroke-width="1px" opacity="0.25"></line><line x1="0" y1="113.16335227272727" x2="290.84375" y2="113.16335227272727" fill="rgb(0, 0, 0)" stroke="rgb(60, 60, 60)" stroke-width="1px" opacity="0.25"></line><line x1="0" y1="96.9971590909091" x2="290.84375" y2="96.9971590909091" fill="rgb(0, 0, 0)" stroke="rgb(60, 60, 60)" stroke-width="1px" opacity="0.25"></line><line x1="0" y1="80.83096590909092" x2="290.84375" y2="80.83096590909092" fill="rgb(0, 0, 0)" stroke="rgb(60, 60, 60)" stroke-width="1px" opacity="0.25"></line><line x1="0" y1="64.66477272727273" x2="290.84375" y2="64.66477272727273" fill="rgb(0, 0, 0)" stroke="rgb(60, 60, 60)" stroke-width="1px" opacity="0.25"></line><line x1="0" y1="48.49857954545453" x2="290.84375" y2="48.49857954545453" fill="rgb(0, 0, 0)" stroke="rgb(60, 60, 60)" stroke-width="1px" opacity="0.25"></line><line x1="0" y1="32.332386363636346" x2="290.84375" y2="32.332386363636346" fill="rgb(0, 0, 0)" stroke="rgb(60, 60, 60)" stroke-width="1px" opacity="0.25"></line><line x1="0" y1="16.166193181818187" x2="290.84375" y2="16.166193181818187" fill="rgb(0, 0, 0)" stroke="rgb(60, 60, 60)" stroke-width="1px" opacity="0.25"></line><line x1="0" y1="0" x2="290.84375" y2="0" fill="rgb(0, 0, 0)" stroke="rgb(60, 60, 60)" stroke-width="1px" opacity="0.25"></line></g></g></g><g><g><line x1="0" y1="0" x2="290.84375" y2="0" fill="rgb(0, 0, 0)" stroke="rgb(153, 153, 153)" stroke-width="1.5px"></line></g></g><g><g><line x1="36.35546875" y1="0" x2="36.35546875" y2="177.828125" fill="rgb(0, 0, 0)" stroke="rgb(153, 153, 153)" stroke-width="1.5px"></line></g></g><g><g><g><g><g><path stroke="rgb(255, 112, 67)" stroke-width="2px" d="M36.682667968749996,39.7343705072999L36.791734375,45.68433612640101L37.082578125,52.9243982766024L37.11893359374999,55.007243107615864L37.1552890625,58.12431339984293L37.373421875,62.41597803384033L37.627910156249996,66.41101983648406L37.700621093749994,68.88255778833981L38.06417578125,72.31308771617728L38.20959765625,75.05850988371816L38.282308593749995,77.96328932035665L38.64586328125,78.7308538661783L39.15483984375,85.3231003112789L39.227550781249995,90.99296312074028L39.37297265625,92.20108237638064L39.66381640625,93.0273699809177L39.700171875,94.00413101014267L40.499992187500006,95.55333431664073L40.60905859375,96.70004152836549L40.863546875000004,98.57581822812045L40.97261328125,97.23709433894788L41.0816796875,94.58698421543134L41.19074609375,97.15119724111173L41.299812499999994,102.10471818274978L41.66336718749999,104.3380883326435L41.954210937499994,102.39456786003163L41.990566406250004,102.99662146992952L42.13598828125,103.33422469871168L42.49954296875,105.18679718145795L42.64496484375,104.03345140657945L42.935808593750004,105.79443902987953L43.00851953125,105.19101543522804L43.9901171875,101.89067057800303L44.02647265625,104.20486487839247L44.31731640625,106.68696633608526L44.390027343750006,108.99427440701037L44.4263828125,108.59563191682982L44.7172265625,109.15256409876793L44.753582031250005,108.5713376299771L44.7899375,106.99280206598552L44.97171484375001,107.15876541075947L45.2989140625,107.31975662359284L45.69882421875,109.4441403634264L45.98966796875,112.41000340933626L46.098734375,111.0245194954436L46.57135546875,109.73444163276673L46.7531328125,104.33960695474829L46.86219921875,106.60026883894639L47.00762109375,107.87534905075513L47.00762109375,108.53162824462983L47.6256640625,110.98900837187574L47.662019531249996,111.79447436188296L47.88015234375,112.74592134540953L47.98921875,108.51029731524764L48.025574218749995,109.07797840054538L48.061929687500005,109.38185691615288L48.09828515625,109.26762641564484L48.134640625,105.93173411464117L48.352773437500005,105.71597956729455L48.53455078125,107.67740029001124L49.33437109375,110.70408311835361L49.40708203125,113.58895456106329L49.47979296875,113.28222752073651L49.62521484375,110.25863915440802L49.77063671875,110.05967472890885L50.025124999999996,110.87954471918594L50.097835937499994,111.23667032260198L50.2432578125,110.5543504948635L50.315968749999996,109.44021916442247L50.35232421875,109.39124072442516L50.388679687499994,111.76989762910425L50.5341015625,110.4666107417293L50.6068125,108.56065082567727L50.64316796875,109.22925934856356L50.75223437499999,107.68153185590693L50.78858984375,107.35402448388147L50.86130078125,108.1609477728791L50.93401171875,111.37479957847192L51.043078124999994,110.91731383285324L51.043078124999994,110.51270359846427L51.47934375,109.71312068972654L51.5520546875,110.64420036609083L52.1337421875,107.59874987086717L52.2791640625,109.23898691225685L52.38823046875,110.22952422617512L52.64271875,108.7443357011432L52.7154296875,110.66292378446352L52.82449609375,110.6215898614308L52.860851562499995,113.31766557034031L52.96991796875,111.6182362565658L53.0062734375,109.81427371920172L53.260761718750004,108.25703462288124L53.2971171875,111.43925996074826L53.478894531250006,113.86861395995578L53.51525,112.22320518074706L53.69702734375,109.29396191589454L53.76973828125001,109.06450615139258L53.842449218750005,108.0050857470393L53.98787109375,111.9234923794354L54.0242265625,110.89878652323014L54.133292968750006,112.63787689675851L54.133292968750006,113.50632028854415L54.242359375,110.62799562586535L54.569558593749996,110.71025601696161L54.6059140625,110.84700357988915L54.78769140625,110.18671918041589L55.3330234375,109.33971326101798L55.55115625,105.36660480826482L55.66022265625,108.05952159958711L55.73293359375,106.72418782189432L55.7692890625,108.37297270125929L55.842,109.00424197841483L55.95106640625,105.70196683342714L56.02377734375,107.39635957993706L56.205554687500005,108.45266081414117L56.31462109375,104.69423948593379L56.4236875,105.39134358440846L56.60546484375,107.90755602762108L57.3689296875,106.98272179771286L57.441640625000005,105.97505881964999L57.441640625000005,105.15218930373311L57.47799609375,104.28248939147154L57.805195312500004,104.80794390983806L58.023328125000006,106.9523385207337L58.27781640625,106.02683256970373L58.750437500000004,108.10228487441312L58.968570312500006,108.08421165048158L59.15034765625,106.88438374984797L59.22305859375,105.46385473992278L59.2594140625,104.74700900172338L59.62296875,101.65291527119908L59.73203515625,102.89770105713279L59.87745703125,102.5927006291099L59.9865234375,103.92694913313726L60.2773671875,106.60451855097322L60.31372265625,105.27765380614194L60.53185546875,104.61460769772808L60.5682109375,106.43910432409324L60.640921875,104.25905725363268L60.640921875,102.64219307711836L61.513453125,101.62999463835754L61.586164062499996,97.3717765690811L61.62251953125,96.34719609564654L61.658874999999995,94.74370043646597L62.05878515625,96.27727884752336L62.276917968750006,97.38204786085574L62.3132734375,95.25701735937507L62.4586953125,94.00832252787623L62.531406249999996,92.85576791544275L62.967671875,88.71171957567317L63.00402734375,84.28100464965259L63.1858046875,83.41866143940734L63.3312265625,82.93565763906314L63.4039375,86.05674426644086L63.44029296875,81.25809727895229L64.02198046875,82.24446292691212L64.09469140624999,82.19386570762536L64.5673125,73.45700368730608L64.85815625000001,76.11776119195991L64.85815625000001,77.41502172944728L65.149,76.67577469358422L65.2217109375,76.6432543264765L65.5125546875,75.31236032836179L65.5125546875,74.24611822346012L65.91246484375,70.05720181444599L66.02153125,69.44382707746054L66.0942421875,68.12851501821575L66.166953125,65.48135706241025L66.2396640625,59.1868749133598L66.312375,62.75554362801185L66.5305078125,62.43989901978438L66.6759296875,61.325877652046515L66.78499609375,61.58610792784536L66.93041796874999,63.860938490312265L67.07583984375,60.00535663473012L67.14855078125,58.04417218841283L67.18490625,57.93959635555683L67.22126171875,59.174364787426484L67.29397265625,59.10095894921672L67.4030390625,57.37888908899771L67.58481640625,55.629349401829685L67.76659375,55.67545062187686L67.8393046875,53.43563292336309L67.87566015625,53.54257803411933L67.91201562500001,46.90596520766243L68.02108203125,49.75709007112053L68.0574375,47.58489137276007L68.09379296875,50.01927200608574L68.45734765625,51.91805032515221L68.60276953125,48.68411704944515L68.7118359375,51.564328367339684L68.8572578125,48.58062197338984L68.8572578125,46.531360027619854L69.03903515625,49.594771585367766L69.1481015625,50.982718644712705L69.54801171875,48.93063567659624L69.62072265625,49.554245408228894L69.8025,50.149522839858875L69.8752109375,50.76145219559682L70.0206328125,51.202544932504864L70.27512109375,47.8978312458149L70.3114765625,47.836152239014154L70.42054296875,45.93546509469442L70.4568984375,45.05522254609184L71.07494140625,42.02493366004896L71.1840078125,40.98414600080824L71.51120703125001,39.152572589463716L71.692984375,42.23892142004931L71.72933984375,37.28814896258379L71.7656953125,31.607566834750116L72.09289453125001,33.55376105004473L72.3473828125,31.43526669940252L72.38373828125,35.069932654288635L72.7109375,34.644533000624136L72.78364843749999,37.692110044013134L72.92907031249999,37.42887011575468L73.25626953125,36.719081464537396L73.36533593749999,33.1190394164168L73.8016015625,29.865835531863155L74.019734375,32.76100452420056L74.09244531249999,31.884777741240555L74.09244531249999,31.097772681180857L74.12880078125,32.93543172901903L74.16515625,33.7792418917669L74.23786718749999,35.060016754281435L74.310578125,33.31427351991596L74.456,34.3222975520724L74.71048828125001,29.793750991524746L75.32853125,32.72769794768183L75.40124218749999,33.592133874766915L75.5466640625,35.830810759192275L75.6920859375,37.25121122698786L75.91021875,41.081689821107204L76.09199609375,43.05199277756719L76.1283515625,40.270762589134506L76.16470703125,37.78577491611972L76.2737734375,37.13757580880585L76.31012890625001,41.29019330198486L76.45555078125001,47.677507762369316L76.52826171875,52.19064041277629L76.89181640625,53.01634414808831L77.0008828125,55.7558167162189L77.0008828125,56.94641713748814L77.03723828125001,56.962530174420564L77.10994921875,58.482769532053524L77.18266015625001,64.38216067896849L77.18266015625001,67.40416933298773L77.32808203124999,66.05844411075513L77.36443750000001,63.10527774909649L77.47350390624999,62.989763048922285L77.800703125,70.16314083521951L77.98248046875,74.43748615332044L78.091546875,78.31721535494304L78.20061328124999,85.17082720310805L78.27332421875,87.89688496233359L78.49145703125,97.23398294657723L78.52781250000001,104.02299019732955L78.964078125,116.2193910676933L79.14585546875,130.9182251024553L79.7638984375,142.4468540409012L79.80025390624999,157.32919194506968L79.83660937500001,164.25535924124776L80.09109765625,162.41437780085943L80.6364296875,176.21286260402263L80.7818515625,179.22627290188004L86.1624609375,183.1525891807013L86.41694921874999,176.26622628433955L86.41694921874999,171.67565803359744L86.45330468750001,169.1112271779986L87.03499218750001,166.94871138213077L87.07134765625,163.8336028822216L87.07134765625,161.47458268809038L87.398546875,158.9864545050994L87.689390625,153.8306407745377L87.7621015625,153.1370685131585L88.561921875,150.33625378903253L88.70734374999999,142.86314629731478L88.88912109374999,141.92158763213425L88.9981875,137.41084546643938L89.0708984375,139.10652788269675L89.36174218750001,133.8444470376696L89.39809765625,130.33130288107927L89.434453125,130.08505642079282L90.27062890625001,128.72595718383388L90.41605078125001,126.32654137973111L90.85231640625,123.968129737651L90.99773828125001,123.00602403300633L91.07044921875,118.28908130699608L91.14316015625,117.93809498489787L91.179515625,117.89912838857272L91.36129296874999,117.55147979602484L91.43400390625,119.03834777821082L91.57942578125001,119.8676955571168L91.61578125,121.4142468402295L92.052046875,114.77525474523736L92.1247578125,117.51419274311044L92.16111328125001,115.34174710745626L92.67008984374999,122.30560668467669L93.10635546875,114.24606535041931L93.36084375,113.21240293451365L93.506265625,113.34511159504022L93.61533203125,112.13457227868938L93.68804296875,108.58091320197914L93.797109375,103.17709316779943L94.087953125,102.36385270610045L94.41515234375,98.02180963006913L94.4515078125,99.01273293425837L94.56057421875,96.06983444768308L94.63328515625001,98.0570105249011L95.06955078125,98.86535489926317L95.10590625,96.210909304871L95.251328125,94.93515962234368L95.28768359375,91.76877629517615L95.32403906249999,93.79805943117906L95.36039453125001,92.95145859621333L95.36039453125001,92.15940690058255L95.833015625,90.8524257866879L95.9784375,91.73810773281475L96.414703125,87.22234855514787L96.560125,88.07508717376658L96.81461328124999,89.20397361293996L96.85096875,86.20713870657097L97.1418125,87.83377447413245L97.68714453125,80.48520618761411L97.7235,81.44432006853988L97.90527734375,76.11079391910806L98.19612109375001,77.70984415672905L98.3051875,74.25239841048801L98.70509765624999,73.67713533529029L98.741453125,73.13437725444936L98.85051953125,69.99336923157267L99.03229687500001,74.81529187394595L99.06865234375,72.37545610019706L99.21407421875,71.30911703518333L99.32314062500001,71.30186930988287L99.43220703125,68.81093798178684L99.5412734375,69.92486325290027L99.613984375,68.3448049974704L99.90482812500001,67.14993317276188L100.1229609375,68.25283843948053L100.19567187499999,72.47011545837448L100.30473828125,72.11311128190745L100.59558203124999,69.19330507406727L100.63193749999999,69.73653371836949L100.74100390625,69.39133498168441L100.81371484375,64.46048966270196L101.10455859375,62.48249393373L101.4317578125,65.08114830004192L101.7953125,64.79563523006286L102.12251171875,65.8778326846742L102.15886718750001,66.3812543227641L102.19522265625,63.93733653097287L102.231578125,67.12878608804309L102.3042890625,63.86438911075754L102.5951328125,63.169943481721106L102.813265625,63.267746220551516L103.06775390625,67.58052961803287L103.6130859375,68.93097501101543L103.64944140625,68.22297902872722L104.08570703125,67.35061154022877L104.15841796875,67.61969182399494L104.1947734375,67.60041551675766L104.30383984375001,65.267521815002L104.3401953125,66.22953762799504L104.37655078125,67.01448575696622L104.558328125,66.9889564451597L104.66739453125,62.18794455288344L104.9218828125,63.796822543438694L105.0673046875,66.99345573839602L105.2854375,70.05221902734996L105.32179296874999,68.6917362806345L105.39450390625,67.8701461706302L105.61263671875,69.71695909278587L105.68534765625,70.38355752346024L105.75805859375,68.70966381142797L105.79441406250001,68.78418589636027L105.97619140625,70.18022402256605L106.04890234374999,69.90585376101659L106.594234375,68.87817825569738L106.6669453125,69.31910607849161L106.8123671875,70.33289648537234L107.6121875,69.87933618149344L107.757609375,70.25878989075153L107.86667578125001,70.57621845582389L107.93938671875,68.75183401772755L108.15751953125,69.91256071733515L108.26658593750001,68.36674098192447L108.37565234374999,71.71464678818893L108.7755625,69.44540868776713L108.95733984374999,68.7356160588451L109.06640625,68.2982700227676L109.211828125,67.93248643359682L109.24818359375,68.19914480458203L109.46631640625,65.88271249872204L109.64809375,63.622086500015754L109.72080468749999,64.5846183047379L109.90258203125,65.63934238852445L110.7387578125,65.56010494509351L110.84782421874999,64.83801625271772L110.84782421874999,64.29558092090296L111.02960156249999,62.03805816352957L112.37475390625,61.22207637929726L112.55653125,59.03103438959441L112.59288671875,59.561867248960596L112.6292421875,59.111991152515785L112.66559765625001,56.26850157319733L112.701953125,58.202206387699476L112.73830859375,59.34920587257305L113.17457421875,58.76895321080541L113.283640625,59.37494335492309L113.31999609375,57.11454204476337L113.46541796875,56.38051197532688L113.68355078124999,55.64612180219055L113.82897265624999,56.2971485224559L113.90168359375,57.34385783463249L113.90168359375,57.884798897604966L114.19252734375,54.96997494474374L114.48337109375,55.32786620217483L114.5924375,55.35269548697207L114.6651484375,53.04037111305772L114.81057031249999,55.65090003953161L114.84692578125,55.22688775688607L115.028703125,54.81143915530345L115.1014140625,55.444683037638285L115.21048046875,52.752764975988626L115.28319140625,52.73292831348297L115.7558125,54.651094419542275L115.93758984375,54.414043909886544L116.19207812500001,53.33655803487353L116.3375,54.706203138796965L116.44656640625,54.03386119824394L116.51927734375,54.79488951836889L116.51927734375,55.17082632556476L116.88283203124999,54.75150503650259L116.9191875,54.272200531463426L117.02825390625,55.98844221498244L117.5735859375,57.19629693135478L117.68265234375001,56.2897501908397L117.97349609375,56.808103795751705L118.0098515625,55.790764377195856L118.3006953125,56.18386552469141L118.33705078125,56.29628927672357L118.66425,55.88640131316886L118.70060546875,56.15970721699182L118.7369609375,54.31792379505592L118.91873828125,55.527441223078824L119.10051562499999,54.38255574639561L119.57313671875,53.81171506139103L119.6094921875,52.57384421807369L119.827625,51.133503521410034L119.86398046875,52.77374117722303L119.9003359375,52.86255588160431L119.93669140624999,52.52756350950287L120.15482421875001,52.298101614483244L120.4820234375,53.387077491865824L120.84557812499999,52.67036297552961L120.991,53.14270631154284L121.136421875,52.59444701169241L121.2091328125,53.84458045739336L121.31819921875001,52.26391264734616L121.3545546875,52.09045553603903L121.3545546875,51.918165957868354L121.53633203125,51.81319343869485L122.00895312499999,51.62727713588724L122.11801953125,51.7696962608762L122.40886328125,51.69946709325389L122.59064062499999,51.91943882490031L122.6633515625,51.443649432975135L122.69970703125,51.725067760516225L122.84512890625,51.53763459192943L122.9541953125,51.31275186145281L122.99055078125,52.14976475956425L123.17232812499999,51.7426873428151L123.2450390625,49.57980162126245L123.35410546874999,49.38076129363162L123.39046093750001,48.75611580901145L123.49952734374999,49.700132176237105L123.60859375,49.116423459596234L123.64494921874999,49.12156506637089L123.6813046875,49.54804562945412L124.335703125,50.21033972020136L124.55383593750001,50.93211739803826L124.88103515625001,50.80265667492705L124.917390625,49.81316973445098L125.28094531250001,48.394400073831775L125.31730078125,47.46089015487652L125.68085546875,48.647366594142284L126.11712109375,47.078394908771315L126.1534765625,47.75091006524016L126.40796484375,47.1128043780723L126.55338671874999,44.282453419674454L126.69880859375,44.3151936518062L126.77151953125001,45.63345714187622L126.807875,46.22824109889484L126.807875,46.52066877092645L127.6076953125,45.19196588676783L127.71676171874999,45.74602586312605L127.78947265625,45.14965995448213L127.89853906249999,43.971169172509775L128.15302734374998,43.49217340873736L128.18938281249999,44.396450232672464L128.18938281249999,44.87756303607259L128.3348046875,45.1230792840758L128.66200390625,44.64978171367446L129.0619140625,44.46916372167465L129.17098046875,44.97515316251267L129.53453515625,43.20835061147909L129.570890625,41.81164811878102L129.67995703125,43.56643748100001L130.152578125,42.465479629402495L130.2252890625,42.942839176482295L130.47977734375,43.472918899291756L130.55248828125002,43.61063231274616L130.87968750000002,43.986406125912055L131.025109375,44.01922375119159L131.42501953125,43.117653025129016L131.49773046875,44.0140299871469L131.57044140625,42.50159646244995L131.60679687500001,42.073956119821105L132.07941796875,41.56112895829364L132.479328125,42.3612615904492L132.73381640624999,42.54420695347733L133.02466015624998,40.93953064927979L133.2064375,42.203501669572034L133.49728125000001,41.91362002644044L133.75176953125,42.750483588974106L133.788125,43.15525237498528L134.1516796875,42.9535254500434L134.5879453125,41.75188574646481L134.62430078124999,41.778452070193L134.8787890625,40.629603782458844L135.20598828125,39.839433401189126L135.27869921875,40.018000273838936L135.35141015624998,40.46709882296153L136.0421640625,40.96012243484765L136.15123046875001,39.83601252499406L136.22394140625,39.98128198677571L136.3330078125,40.14786579841214L136.44207421875,40.51415427840416L136.551140625,40.30814517193673L136.58749609375,39.845418062638146L136.6238515625,39.05216617666264L137.0601171875,38.64977707028845L137.2055390625,38.65381450662019L137.53273828125,38.99329578134095L137.60544921875,38.48932507893139L137.6418046875,38.63904677960963L137.8599375,38.858164512011456L137.89629296875,39.21490324366221L138.00535937499998,39.156466044003L138.2234921875,38.01867637415671L138.33255859375,37.99401684575696L138.5143359375,38.85011879081486L138.69611328125,38.67609820621914L139.20508984375002,38.4560808988781L139.2414453125,38.13575765016995L139.31415625,37.839319740374805L139.56864453125,37.946656691813445L140.332109375,37.290997732803135L140.36846484375002,37.5244968447021L140.69566406250001,37.1487617660232L141.02286328125,36.79223680986789L141.3500625,36.109355831380384L141.38641796874998,36.491579165870064L141.495484375,36.330911403025056L141.5681953125,36.90179388950486L141.89539453125,35.84817892206388L141.93175,36.06435057660093L142.22259375,35.125740678901934L142.2953046875,35.10530782015485L142.40437109375,35.6704916562465L142.91334765625,35.71644540071L142.94970312499998,36.28693881811586L143.05876953125,36.09260549111838L143.38596875,35.9971950089934L143.42232421875,35.122488903029534L143.56774609375,34.9720415864349L143.71316796874999,33.9880178702613L143.8949453125,34.06035564520221L143.93130078125,34.98870111728843L144.113078125,34.680804978162854L144.18578906250002,34.8547349717866L144.18578906250002,34.92436707921004L144.54934375,34.31839073041837L144.6220546875,33.747884937707596L144.65841015625,33.80442503755333L144.73112109375,33.5615949878993L144.91289843750002,34.56650730641823L145.24009765625001,34.342243449196786L145.60365234374999,34.06312343691485L145.67636328125,33.310985651875995L145.85814062499998,33.088127761803975L145.96720703124998,33.04971188060003L145.96720703124998,32.988503034151194L146.03991796875002,32.75877184096262L146.11262890625,32.70353584514757L146.5125390625,32.93243410210377L146.83973828125,33.174735462246275L146.91244921875003,33.15329819030964L146.98516015625,32.91885709081532L147.27600390625,33.022739836009464L147.31235937499997,33.31439848773874L147.49413671875,33.03594671128292L147.603203125,32.28705050217516L147.63955859375,32.56715994861531L147.748625,32.58818944457167L147.78498046875,33.164960995339754L147.82133593749998,32.73788879840254L148.03946875,33.06870170767496L148.07582421875003,33.1170004469098L148.1121796875,32.492534328828384L148.5484453125,32.93750758320803L148.6938671875,33.132500531786064L148.766578125,33.3172629693772L149.057421875,33.20694871187689L149.23919921875,33.16514259080739L149.23919921875,33.11226772341249L149.2755546875,33.26803855126789L149.38462109375,33.87628567681128L149.63910937499998,33.12353025315542L149.7118203125,33.51062191688027L149.8572421875,33.40280556504999L149.96630859375,33.21933792047926L150.18444140625002,32.97904604301968L150.6570625,33.04154268171965L151.093328125,33.533935315328506L151.1660390625,32.45355412410575L151.1660390625,31.777228952410923L151.3114609375,32.789868616819035L151.6023046875,32.500208928915924L151.8204375,33.2010872417994L152.00221484375,33.872425676597146L152.14763671875,32.7881207653524L152.256703125,32.673262201520856L152.69296875,33.47341161034342L154.69251953124999,33.449339134953334L154.83794140625002,33.268005100465984L155.3105625,32.41311917580521L155.71047265625,32.89003579015133L155.85589453125,32.277846874237355L156.14673828125,33.05362948915325L156.18309375,32.972419153723166L156.328515625,33.35653934610451L156.6920703125,33.149620052797246L157.05562500000002,32.796985881049494L157.09198046875,33.384954936759556L157.1283359375,33.74875972769618L157.4191796875,34.37912808229791L158.1462890625,34.363596306509805L159.0188203125,34.202039277766914L159.23695312499999,33.70454245796867L159.27330859375002,33.47541905717512L159.38237500000002,33.06261083892315L159.7459296875,33.53901094876886L160.07312890625,32.86778461486901L160.1821953125,33.33594030971358L160.54575000000003,32.830388858608416L160.72752734375,33.521391044779904L162.03632421875,33.06505460944865L162.36352343750002,33.43276898697184L162.436234375,32.986398147310325L162.58165625,33.229823547570334L162.7997890625,32.60356077633949L162.90885546875,32.523958332381L163.16334375000002,32.47532116431839L163.45418750000002,32.75036657176088L163.56325390625,32.513287172758254L163.85409765625,33.40552767523204L163.99951953125,33.18093558549273L164.14494140624998,33.97895525999681L164.98111718750002,33.936531844564996L165.1265390625,33.283034720400025L165.38102734375002,33.41188027938222L165.52644921875,32.55737318316923L165.926359375,33.11505081527238L166.36262499999998,32.42780988318043L166.9443125,31.99714804971788L167.85319921875,31.929529808396808L168.39853125,32.24577338325878L168.9075078125,32.2956107663062L169.1983515625,32.272153208006046L169.4891953125,32.314614621500255L169.707328125,32.85361958984359L169.74368359374998,32.51821122379852L170.3617265625,32.042720486591776L170.68892578125002,31.05511406171462L171.19790234374997,32.26656891524223L171.30696874999998,31.474470955980735L172.1067890625,31.525513519827996L172.72483203125,31.99147996820261L173.16109765625,31.936261968891614L173.2701640625,32.00018682156846L173.488296875,32.710767658365484L174.1426953125,32.199768465889576L174.21540625,32.27823718330882L174.8698046875,32.31976048315539L175.0152265625,32.05456127758174L175.12429296875,32.90280704058779L175.77869140625,33.44928324923367L175.92411328125002,32.68070797913995L176.1786015625,33.039166407005894L176.65122265625,33.32858668692472L176.86935546875,34.00433351787825L177.37833203124998,33.80925530865622L177.81459765625,33.78460416152973L178.3599296875,32.95580327368805L178.6507734375,32.646501050240516L178.68712890625,33.18289490175863L179.48694921875,33.058676832485645L179.63237109374998,32.7223435626384L180.14134765625,32.931198356885915L180.57761328125,32.75562136697394L180.61396875,32.87498824304009L180.86845703125,31.770249615643394L181.37743359375,32.23847229756407L181.59556640625001,32.83470168262849L181.8500546875,32.5263062988094L181.92276562499998,32.34648627716351L182.24996484375,32.96197936031413L182.32267578124998,32.29516131581238L182.35903125,32.659817072703134L183.04978515625,33.26076489321159L183.15885156250002,33.28207010109284L183.48605078125,33.218485255062404L183.958671875,33.091746637995556L184.4676484375,33.14495271999894L184.83120312499997,32.97770048713241L185.412890625,32.28603697894167L185.81280078125,33.18355767651562L186.46719921874998,33.19151204375558L186.83075390625,33.551098020390754L186.86710937499998,33.812572643251684L187.0852421875,32.9616804891557L187.33973046875,33.04400294781291L187.48515234375,33.405411401047616L187.5215078125,32.37936289243794L187.55786328124998,31.835069556784532L188.35768359375,32.329647353143656L188.3940390625,32.60683874890816L188.5394609375,32.53158634232486L188.612171875,32.347644660403546L188.93937109375,32.310492474996636L189.08479296874998,31.741003238656276L190.1391015625,31.537114770424893L190.17545703125,32.4930764999356L190.50265625,32.907217244831116L190.61172265625,32.171132400404446L190.8662109375,32.99236666546523L191.229765625,33.18373017189114L191.26612109375,32.25780842552095L191.30247656249998,31.640612454154052L191.33883203125,31.719888288883595L191.520609375,32.203998789607965L191.7387421875,32.970404332042506L191.8841640625,32.62125732535765L191.956875,32.9373604948581L192.5385625,32.618570416815544L192.75669531249997,32.184747045006134L192.79305078125,32.760611690576695L193.08389453125,32.933523200043425L193.7746484375,33.00347079569494L194.39269140625,33.538018468877596L195.33793359375,32.175792580909075L196.174109375,32.3422408289114L196.64673046874998,31.83120918003206L196.755796875,31.265589082784203L197.88281640625,31.384198214927295L197.919171875,31.60151414319921L198.500859375,31.951212241538826L198.53721484375,32.4585538323453L198.90076953125,31.993747358013508L199.00983593750001,31.977850719914244L199.082546875,32.33546223252358L199.48245703125,33.11222499831305L199.70058984375,32.75105907562738L199.80965625000002,32.70349328597945L199.955078125,32.532781022278385L200.6094765625,32.5174929197467L200.64583203125,32.926775959698745L200.79125390624998,33.25762186068039L200.90032031249999,32.17464481906191L200.97303125,33.00587982279447L201.4820078125,32.829534993803634L201.6274296875,32.127148613122245L202.02733984375,32.39319194474865L202.13640625,32.49377591586085L202.863515625,31.99320699135589L203.154359375,32.237954477403065L203.51791406249998,31.99875419691304L203.55426953125001,31.041613886319027L203.95417968750002,31.763188586190978L204.79035546875,31.62773980003118L204.9721328125,31.815944596754804L205.59017578125,31.20391829526696L207.18981640625,32.292427835615655L207.226171875,32.668620652246176L207.37159375,32.66324668386656L207.517015625,32.29101502474052L208.1714140625,33.61682391997627L208.389546875,34.11007808701612L208.42590234374998,33.46235409791936L209.95283203125,33.411407542538825L210.24367578125,33.62090520996583L210.53451953125003,33.135595291758676L210.570875,33.32809268420158L211.18891796875002,33.0607059740681L211.6615390625,32.768416862285875L211.80696093749998,32.498653391223854L212.20687109374998,32.38686601933779L212.64313671875001,32.4395581358055L212.75220312500002,32.139420450788634L212.8249140625,31.96748201964556L212.97033593749998,31.766958817352418L213.26117968749998,32.41540459839351L215.4425078125,32.02010544878584L215.660640625,32.61591868856593L215.69699609375,32.60296323440264L215.76970703125,33.19049289413999L216.3150390625,32.99674859397837L216.56952734375,32.441557313859704L217.405703125,32.94014253613423L217.551125,32.7898675294723L217.95103515625001,33.43292539004344L218.0601015625,32.02132997392113L218.67814453124998,32.174595183276836L218.89627734375,32.72840986265814L219.36889843749998,32.851251794129524L220.0960078125,32.806200703736266L220.42320703125,33.34174979807668L221.00489453125,32.96731576318041L221.07760546875002,33.19752995016327L221.4048046875,33.57493161465018L221.73200390625001,33.39451359231805L222.02284765625,32.80771955778104L222.74995703125,32.882227030249595L222.82266796874998,32.25115652993992L222.931734375,32.21396619753264L223.00444531250002,33.03203500234997L223.22257812499998,32.679960992207896L223.65884375000002,32.24900025760468L223.69519921875,32.22262043613665L223.9496875,31.780918615957944L224.05875390625002,31.661984761975532L224.24053125,32.10767387732298L224.49501953125,33.001372851148915L224.56773046874997,33.62186002213156L226.421859375,32.64291301539669L226.82176953125,32.4207455622242L226.9308359375,32.95733838055861L227.11261328125,33.348025861933934L227.69430078125,33.53342218218097L227.83972265625002,33.68717929975355L227.876078125,33.77767600000868L227.9487890625,33.65520561754198L228.31234375,32.70956073787508L228.45776562499998,33.1131874551576L228.60318750000002,33.81020263369638L228.93038671875,34.40158637471811L228.9667421875,33.81896408725109L229.14851953125,33.47034966978791L229.29394140625,32.62577002474771L229.330296875,32.895319449912506L229.87562890625003,33.02708561505088L231.0026484375,32.694613314562105L231.43891406249998,32.93622765789374L231.69340234375,33.1051547220346L231.8751796875,32.601037246535896L232.38415625000002,32.69622474762838L232.71135546874999,33.73977203091897L233.25668750000003,33.172041489660785L233.65659765624997,32.15661411637777L233.91108593750002,32.29267156135052L233.94744140625,32.41678218536546L234.0565078125,32.55271880974698L234.274640625,32.2813622121939L235.6561484375,33.03710844687015L235.76521484375002,32.8161178823413L235.83792578125,32.82577573254497L235.9469921875,33.09404968968451L235.98334765624998,33.14033568610691L236.12876953125001,32.535224723848074L237.29214453125002,32.68887918609684L237.80112109375003,33.2252437933474L238.78271875,32.618027862262096L239.0008515625,32.32499398818695L239.1462734375,31.78738861197334L239.800671875,32.84507616829066L239.98244921875,33.35986866026201L240.52778124999998,32.797379349665135L240.63684765624998,32.98521889732419L240.7459140625,33.790718290398104L241.50937890625,33.26418433284681L241.9092890625,32.41173170975941L242.38191015625,31.98383414484863L242.418265625,32.42763383001949L242.7818203125,32.97614242795896L242.89088671875,32.83046464096509L243.03630859375,32.684564796188226L243.6543515625,33.373349852620805L243.7270625,33.329638735941955L243.83612890625,33.4158009772361L244.59959375,33.464117311799896L244.6723046875,33.463561430953206L244.85408203125002,32.549036967304886L245.25399218750002,32.94675693040668L245.54483593749998,32.36197262420242L245.6902578125,32.65825869227206L246.30830078125,33.46899923001217L246.52643359375,33.565454122943976L246.88998828125003,33.285802643827765L246.96269921875,32.038137445241404L247.18083203125002,32.435955173361975L247.362609375,33.298373587563646L247.54438671875002,33.01653871286916L247.653453125,33.89823972817936L248.19878515625,33.234581619164345L248.235140625,33.27322699461584L249.21673828125,33.660561199446306L249.50758203125002,34.10631842152952L249.87113671875,33.10513693641721L250.27104687500002,33.46722813279089L251.03451171875,33.430655782947355L251.25264453124998,33.92994142626219L251.6525546875,34.13234075949916L251.68891015625,33.886314038802084L252.85228515625,33.93246550549472L252.88864062500002,33.9011652346814L253.10677343749998,33.863955251818396L254.9972578125,33.51728045747501L255.06996875,33.14158641634424L255.32445703124998,33.171659042465905L255.43352343749999,33.599452379769104L255.68801171875,32.767793065996955L256.669609375,33.038850690213735L257.43307421875,33.1469543339538L257.79662890625,33.88253617681701L258.37831640625,33.486230366541065L258.45102734375,32.91465344804223L258.52373828125,33.17001197422343L258.705515625,33.79632955181751L259.868890625,34.04386680262721L260.05066796874996,33.09738740368962L260.450578125,33.581197448609686L260.48693359375,33.93757736877541L260.5232890625,33.37626903011329L260.63235546875,33.166443812599624L261.21404296875,32.54882830897566L262.195640625,33.1715406049195L262.30470703125,32.928462777668415L263.03181640625,32.57473174681587L263.24994921875,32.918814230752844L263.2863046875,32.573708100913365L264.231546875,32.8088668374464L264.48603515625,32.57485032797237L264.55874609375,32.40878760471895L264.7405234375,32.751716961483794L265.94025390625,32.52750581781848L266.04932031249996,31.818876505555693L266.74007421875,31.7675395145894L266.7764296875,32.91528378553656L267.10362890625004,33.144745067792655L267.3581171875,32.66916547858784L267.46718359375,32.71106343720976L267.72167187499997,32.14033963276631L267.83073828125,32.712782354344284L268.52149218750003,33.0921795075906L268.63055859375,32.77089468044855L268.99411328125,32.79442980963046" style="fill: none;" fill="none"></path></g></g></g></g><g opacity="0.20000000298023224"><g><g><g><path stroke="rgb(255, 112, 67)" stroke-width="2px" d="M36.682667968749996,39.7343705072999L36.791734375,49.254315497861654L37.082578125,59.874857940795735L37.11893359374999,57.4566686288877L37.1552890625,62.19396037337454L37.373421875,68.35289522192694L37.627910156249996,72.12399353493343L37.700621093749994,72.4860838489099L38.06417578125,77.37245301360434L38.20959765625,79.13514184003526L38.282308593749995,82.29411233961582L38.64586328125,79.87802363254808L39.15483984375,95.18994515050541L39.227550781249995,99.4866494834423L39.37297265625,94.01184116100724L39.66381640625,94.26621862568639L39.700171875,95.4688592214476L40.499992187500006,97.87674593383615L40.60905859375,98.41992765665054L40.863546875000004,101.38931182433258L40.97261328125,95.22908192398873L41.0816796875,90.61190623315898L41.19074609375,100.9974661537192L41.299812499999994,109.53494091602889L41.66336718749999,107.68812768364494L41.954210937499994,99.47929543934085L41.990566406250004,103.89970034428619L42.13598828125,103.84062902358446L42.49954296875,107.96565419909629L42.64496484375,102.30343338169835L42.935808593750004,108.435919880867L43.00851953125,104.28588016331196L43.9901171875,96.9401536861604L44.02647265625,107.67615616321564L44.31731640625,110.41011841595173L44.390027343750006,112.45523645390163L44.4263828125,107.99766818772663L44.7172265625,109.9879623665051L44.753582031250005,107.69949793002822L44.7899375,104.62499872527339L44.97171484375001,107.40771042758767L45.2989140625,107.5612434426492L45.69882421875,112.63071597164328L45.98966796875,116.85879797691649L46.098734375,108.94629362496462L46.57135546875,107.79932483895259L46.7531328125,96.24735493822531L46.86219921875,109.99126166511665L47.00762109375,109.78796936842528L47.00762109375,109.51604703542861L47.6256640625,114.67507856271484L47.662019531249996,113.00267334688793L47.88015234375,114.17309182069519L47.98921875,102.15686127001588L48.025574218749995,109.92950002849102L48.061929687500005,109.83767468956384L48.09828515625,109.09628066488288L48.134640625,100.9278956631368L48.352773437500005,105.3923477462747L48.53455078125,110.61953137408604L49.33437109375,115.24410736086693L49.40708203125,117.9162617251277L49.47979296875,112.82213696024634L49.62521484375,105.7232566049153L49.77063671875,109.76122809066014L50.025124999999996,112.10934970460154L50.097835937499994,111.77235872772607L50.2432578125,109.53087075325575L50.315968749999996,107.76902216876094L50.35232421875,109.31777306442912L50.388679687499994,115.3378829861229L50.5341015625,108.5116804106669L50.6068125,105.70171095159921L50.64316796875,110.23217213289304L50.75223437499999,105.35994061692195L50.78858984375,106.86276342584328L50.86130078125,109.37133270637555L50.93401171875,116.19557728686115L51.043078124999994,110.23108521442522L51.043078124999994,109.90578824688087L51.47934375,108.51374632661994L51.5520546875,112.04081988063726L52.1337421875,103.03057412803173L52.2791640625,111.69934247434139L52.38823046875,111.71533019705252L52.64271875,106.51655291359533L52.7154296875,113.54080590944399L52.82449609375,110.55958897688173L52.860851562499995,117.36177913370457L52.96991796875,109.06909228590402L53.0062734375,107.1083299131556L53.260761718750004,105.92117597840048L53.2971171875,116.21259796754882L53.478894531250006,117.51264495876703L53.51525,109.75509201193397L53.69702734375,104.90009701861577L53.76973828125001,108.72032250463963L53.842449218750005,106.41595514050938L53.98787109375,117.80110232802954L54.0242265625,109.36172773892228L54.133292968750006,115.24651245705107L54.133292968750006,114.80898537622258L54.242359375,106.31050863184713L54.569558593749996,110.83364660360597L54.6059140625,111.05212492428042L54.78769140625,109.19629258120601L55.3330234375,108.06920438192107L55.55115625,99.40694212913513L55.66022265625,112.09889678657055L55.73293359375,104.72118715535511L55.7692890625,110.84615002030675L55.842,109.95114589414813L55.95106640625,100.74855411594565L56.02377734375,109.93794869970192L56.205554687500005,110.03711266544732L56.31462109375,99.05660749362274L56.4236875,106.43699973212047L56.60546484375,111.68187469244003L57.3689296875,105.5954704528505L57.441640625000005,104.46356435255571L57.441640625000005,103.9178850298578L57.47799609375,102.97793952307917L57.805195312500004,105.59612568738785L58.023328125000006,110.16893043707718L58.27781640625,104.63857364315878L58.750437500000004,111.21546333147721L58.968570312500006,108.0571018145843L59.15034765625,105.08464189889756L59.22305859375,103.33306122503497L59.2594140625,103.6717403944243L59.62296875,97.01177467541261L59.73203515625,104.76487973603335L59.87745703125,102.13519998707555L59.9865234375,105.92832188917832L60.2773671875,110.62087267772718L60.31372265625,103.287356688895L60.53185546875,103.62003853510727L60.5682109375,109.17584926364097L60.640921875,100.98898664794184L60.640921875,100.21689681234685L61.513453125,100.11169698021628L61.586164062499996,90.98444946516643L61.62251953125,94.81032538549466L61.658874999999995,92.33845694769512L62.05878515625,98.57764646410942L62.276917968750006,99.0392013808543L62.3132734375,92.06947160715406L62.4586953125,92.13528028062798L62.531406249999996,91.12693599679254L62.967671875,82.4956470660188L63.00402734375,77.63493226062168L63.1858046875,82.12514662403952L63.3312265625,82.21115193854679L63.4039375,90.73837420750748L63.44029296875,74.06012679771943L64.02198046875,83.72401139885187L64.09469140624999,82.11796987869523L64.5673125,60.35171065682715L64.85815625000001,80.10889744894071L64.85815625000001,79.36091253567825L65.149,75.56690413978966L65.2217109375,76.59447377581488L65.5125546875,73.31601933118971L65.5125546875,72.64675506610762L65.91246484375,63.77382720092481L66.02153125,68.52376497198235L66.0942421875,66.1555469293486L66.166953125,61.51062012870203L66.2396640625,49.74515168978408L66.312375,68.10854669998993L66.5305078125,61.966432107443154L66.6759296875,59.65484560043974L66.78499609375,61.976453341543674L66.93041796874999,67.27318433401258L67.07583984375,54.22198385135694L67.14855078125,55.10239551893689L67.18490625,57.7827326062728L67.22126171875,61.026517435230986L67.29397265625,58.99085019190203L67.4030390625,54.795784298669204L67.58481640625,53.00503987107764L67.76659375,55.744602451947614L67.8393046875,50.07590637559241L67.87566015625,53.70299570025368L67.91201562500001,36.95104596797714L68.02108203125,54.03377736630766L68.0574375,44.32659332521936L68.09379296875,53.67084295607425L68.45734765625,54.766217803751886L68.60276953125,43.83321713588455L68.7118359375,55.88464534418149L68.8572578125,44.105062382465064L68.8572578125,43.45746710896492L69.03903515625,54.189888921989635L69.1481015625,53.06463923373006L69.54801171875,45.85251122442159L69.62072265625,50.489660005677834L69.8025,51.04243898730387L69.8752109375,51.679346229203716L70.0206328125,51.864184037866906L70.27512109375,42.94076071577993L70.3114765625,47.74363372881302L70.42054296875,43.084434378214866L70.4568984375,43.73485872318798L71.07494140625,37.47950033098459L71.1840078125,39.422964511947185L71.51120703125001,36.40521247244695L71.692984375,46.8684446659278L71.72933984375,29.861990276385455L71.7656953125,23.08669364299962L72.09289453125001,36.473052372986615L72.3473828125,28.257525173439234L72.38373828125,40.52193158661777L72.7109375,34.006433520127445L72.78364843749999,42.263475609096616L72.92907031249999,37.034010223367005L73.25626953125,35.65439848771149L73.36533593749999,27.718976344235926L73.8016015625,24.986029705032706L74.019734375,37.10375801270658L74.09244531249999,30.570437566800564L74.09244531249999,29.917265091091394L74.12880078125,35.6919203007763L74.16515625,35.044957135888666L74.23786718749999,36.981179048053235L74.310578125,30.695658668367713L74.456,35.83433360030705L74.71048828125001,23.00093115070328L75.32853125,37.12861838191748L75.40124218749999,34.88878776539454L75.5466640625,39.18882608583027L75.6920859375,39.381811928681344L75.91021875,46.827407712286174L76.09199609375,46.007447212257176L76.1283515625,36.098917306485504L76.16470703125,34.058293406597585L76.2737734375,36.165277147834956L76.31012890625001,47.51911954175344L76.45555078125001,57.25847945294596L76.52826171875,58.96033938838677L76.89181640625,54.25489975105633L77.0008828125,59.86502556841482L77.0008828125,58.73231776939197L77.03723828125001,56.98669972981919L77.10994921875,60.76312856850298L77.18266015625001,73.23124739934097L77.18266015625001,71.9371823140166L77.32808203124999,64.03985627740622L77.36443750000001,58.67552820660852L77.47350390624999,62.81649099866098L77.800703125,80.92320751466535L77.98248046875,80.84900413047184L78.091546875,84.13680915737694L78.20061328124999,95.45124497535554L78.27332421875,91.98597160117193L78.49145703125,111.23962992294268L78.52781250000001,114.20650107345799L78.964078125,134.51399237323892L79.14585546875,152.96647615459833L79.7638984375,159.73979744857007L79.80025390624999,179.65269880132243L79.83660937500001,174.6446101855148L80.09109765625,159.652905640277L80.6364296875,196.9105898087675L86.1624609375,180.50612251460552L86.41694921874999,165.93668193979696L86.41694921874999,164.78980565748432L86.45330468750001,165.26458089460027L87.03499218750001,163.704937688329L87.07134765625,159.16094013235787L87.07134765625,157.9360523968935L87.398546875,155.25426223061302L87.689390625,146.09692017869514L87.7621015625,152.09671012108976L88.561921875,146.13503170284358L88.70734374999999,131.65348505973816L88.88912109374999,140.50924963436344L88.9981875,130.64473221789706L89.0708984375,141.65005150708285L89.36174218750001,125.95132577012885L89.39809765625,125.0615866461938L89.434453125,129.71568673036316L90.27062890625001,126.68730832839555L90.41605078125001,122.72741767357695L90.85231640625,120.4305122745308L90.99773828125001,121.56286547603932L91.07044921875,111.21366721798073L91.14316015625,117.41161550175059L91.179515625,117.84067849408495L91.36129296874999,117.03000690720299L91.43400390625,121.26864975148982L91.57942578125001,121.11171722547576L91.61578125,123.73407376489857L92.052046875,104.81676660274918L92.1247578125,121.62259973992002L92.16111328125001,112.08307865397497L92.67008984374999,132.75139605050737L93.10635546875,102.15675334903327L93.36084375,111.66190931065516L93.506265625,113.54417458583008L93.61533203125,110.31876330416311L93.68804296875,103.25042458691381L93.797109375,95.07136311652985L94.087953125,101.14399201355197L94.41515234375,91.50874501602216L94.4515078125,100.4991178905422L94.56057421875,91.65548671782017L94.63328515625001,101.03777464072813L95.06955078125,100.07787146080624L95.10590625,92.22924091328274L95.251328125,93.0215350985527L95.28768359375,87.0192013044249L95.32403906249999,96.84198413518342L95.36039453125001,91.68155734376474L95.36039453125001,90.97132935713638L95.833015625,88.89195411584593L95.9784375,93.06663065200503L96.414703125,80.44870978864758L96.560125,89.35419510169463L96.81461328124999,90.89730327170004L96.85096875,81.71188634701751L97.1418125,90.27372812547468L97.68714453125,69.4623537578366L97.7235,82.88299088992856L97.90527734375,68.11050469496034L98.19612109375001,80.10841951316053L98.3051875,69.06622979112647L98.70509765624999,72.8142407224937L98.741453125,72.320240133188L98.85051953125,65.2818571972576L99.03229687500001,82.04817583750595L99.06865234375,68.71570243957369L99.21407421875,69.70960843766278L99.32314062500001,71.29099772193216L99.43220703125,65.0745409896428L99.5412734375,71.59575115957044L99.613984375,65.9747176143256L99.90482812500001,65.35762543569912L100.1229609375,69.90719633955847L100.19567187499999,78.79603098671545L100.30473828125,71.57760501720689L100.59558203124999,64.81359576230699L100.63193749999999,70.55137668482281L100.74100390625,68.87353687665679L100.81371484375,57.064221684228286L101.10455859375,59.515500340272084L101.4317578125,68.97912984950976L101.7953125,64.36736562509428L102.12251171875,67.50112886659123L102.15886718750001,67.13638677989894L102.19522265625,60.27145984328605L102.231578125,71.91596042364836L102.3042890625,58.96779364482923L102.5951328125,62.12827503816648L102.813265625,63.4144503287971L103.06775390625,74.0497047142549L103.6130859375,70.95664310048927L103.64944140625,67.16098505529492L104.08570703125,66.04206030748107L104.15841796875,68.02331224964423L104.1947734375,67.5715010559017L104.30383984375001,61.7681812623685L104.3401953125,67.67256134748459L104.37655078125,68.19190795042299L104.558328125,66.95066247744994L104.66739453125,54.98642671446909L104.9218828125,66.21013952927156L105.0673046875,71.78840553083204L105.2854375,74.64036396078087L105.32179296874999,66.65101216056131L105.39450390625,66.63776100562377L105.61263671875,72.48717847601934L105.68534765625,71.38345516947182L105.75805859375,66.1988232433796L105.79441406250001,68.89596902375871L105.97619140625,72.27428121187471L106.04890234374999,69.4942983686924L106.594234375,67.33666499771856L106.6669453125,69.98049781268293L106.8123671875,71.85358209569345L107.6121875,69.19899572567506L107.757609375,70.82797045463866L107.86667578125001,71.05236130343242L107.93938671875,66.015257360583L108.15751953125,71.65365076674657L108.26658593750001,66.04801137880845L108.37565234374999,76.73650549758564L108.7755625,66.04155153713442L108.95733984374999,67.67092711546205L109.06640625,67.64225096865134L109.211828125,67.38381104984067L109.24818359375,68.59913236105984L109.46631640625,62.40806403993206L109.64809375,60.23114750195633L109.72080468749999,66.02841601182114L109.90258203125,67.22142851420425L110.7387578125,65.4412487799471L110.84782421874999,63.75488321415402L110.84782421874999,63.481927923180834L111.02960156249999,58.65177402746947L112.37475390625,59.99810370294885L112.55653125,55.74447140504013L112.59288671875,60.35811653800987L112.6292421875,58.43717700784856L112.66559765625001,52.00326720421964L112.701953125,61.10276360945268L112.73830859375,61.06970509988339L113.17457421875,57.89857421815395L113.283640625,60.28392857109958L113.31999609375,53.72394007952376L113.46541796875,55.27946687117219L113.68355078124999,54.54453654248606L113.82897265624999,57.27368860285391L113.90168359375,58.91392180289735L113.90168359375,58.696210492063656L114.19252734375,50.59773901545189L114.48337109375,55.86470308832146L114.5924375,55.38993941416794L114.6651484375,49.57188455218619L114.81057031249999,59.56669342924248L114.84692578125,54.590869332917705L115.028703125,54.18826625292951L115.1014140625,56.39454886114055L115.21048046875,48.714887883514166L115.28319140625,52.703173319724485L115.7558125,57.52834357863122L115.93758984375,54.05846814540298L116.19207812500001,51.72032922235401L116.3375,56.76067079468207L116.44656640625,53.02534828741442L116.51927734375,55.936431998556316L116.51927734375,55.734731536358595L116.88283203124999,54.12252310290933L116.9191875,53.553243773904725L117.02825390625,58.562804740260944L117.5735859375,59.0080790059133L117.68265234375001,54.929930080067024L117.97349609375,57.58563420311971L118.0098515625,54.264755249362096L118.3006953125,56.77351724593477L118.33705078125,56.46492490477182L118.66425,55.27156936783682L118.70060546875,56.56966607272625L118.7369609375,51.55524866215207L118.91873828125,57.34171736511318L119.10051562499999,52.6652275313708L119.57313671875,52.95545403388412L119.6094921875,50.717037953097716L119.827625,48.97299247641453L119.86398046875,55.23409766094251L119.9003359375,52.99577793817629L119.93669140624999,52.02507495135069L120.15482421875001,51.953908771953806L120.4820234375,55.02054130793972L120.84557812499999,51.59529120102525L120.991,53.851221315562725L121.136421875,51.772058061916724L121.2091328125,55.71978062594479L121.31819921875001,49.89291093227537L121.3545546875,51.83026986907829L121.3545546875,51.65973159061237L121.53633203125,51.65573465993458L122.00895312499999,51.348402681675836L122.11801953125,51.98332494835962L122.40886328125,51.59412334182046L122.59064062499999,52.24939642236991L122.6633515625,50.729965345087365L122.69970703125,52.147195251827895L122.84512890625,51.256484839049264L122.9541953125,50.97542776573788L122.99055078125,53.405284106731415L123.17232812499999,51.13207121769136L123.2450390625,46.335473038933486L123.35410546874999,49.082200802185326L123.39046093750001,47.81914758208123L123.49952734374999,51.11615672707558L123.60859375,48.24086038463494L123.64494921874999,49.129277476532906L123.6813046875,50.187766474079L124.335703125,51.203780856322155L124.55383593750001,52.014783914793625L124.88103515625001,50.60846559026025L124.917390625,48.328939323736876L125.28094531250001,46.26624558290297L125.31730078125,46.06062527644363L125.68085546875,50.427081253040924L126.11712109375,44.72493738071486L126.1534765625,48.75968279994348L126.40796484375,46.15564584732056L126.55338671874999,40.03692698207769L126.69880859375,44.364304000003784L126.77151953125001,47.61085237698123L126.807875,47.120417034422815L126.807875,46.95931027897379L127.6076953125,43.19891156053001L127.71676171874999,46.57711582766339L127.78947265625,44.25511109151623L127.89853906249999,42.203432999551296L128.15302734374998,42.77367976307869L128.18938281249999,45.75286546857521L128.18938281249999,45.5992322411727L128.3348046875,45.49135365608063L128.66200390625,43.93983535807243L129.0619140625,44.198236733675L129.17098046875,45.73413732376966L129.53453515625,40.55814678492871L129.570890625,39.71659437973389L129.67995703125,46.19862152432853L130.152578125,40.81404285200617L130.2252890625,43.65887849710205L130.47977734375,44.268038483505904L130.55248828125002,43.81720243292776L130.87968750000002,44.550066845660865L131.025109375,44.068450189110905L131.42501953125,41.765296936035156L131.49773046875,45.358595430173665L131.57044140625,40.23294617540458L131.60679687500001,41.43249560587785L132.07941796875,40.791888216002434L132.479328125,43.56146053868261L132.73381640624999,42.81862499801949L133.02466015624998,38.53251619298348L133.2064375,44.09945820001039L133.49728125000001,41.47879756174305L133.75176953125,44.005778932774604L133.788125,43.76240555400199L134.1516796875,42.65093506263062L134.5879453125,39.94942619109696L134.62430078124999,41.81830155578527L134.8787890625,38.906331350857556L135.20598828125,38.65417782928458L135.27869921875,40.28585058281368L135.35141015624998,41.1407466466454L136.0421640625,41.69965785267678L136.15123046875001,38.14984766021371L136.22394140625,40.199186179448276L136.3330078125,40.39774151586673L136.44207421875,41.06358699839225L136.551140625,39.99913151223549L136.58749609375,39.15132739869031L136.6238515625,37.86228834769943L137.0601171875,38.04619341072711L137.2055390625,38.65987066111782L137.53273828125,39.50251769342205L137.60544921875,37.7333690253171L137.6418046875,38.863629330626935L137.8599375,39.18684111061421L137.89629296875,39.75001134113833L138.00535937499998,39.0688102445142L138.2234921875,36.3119918693873L138.33255859375,37.95702755315736L138.5143359375,40.13427170840177L138.69611328125,38.41506732932547L139.20508984375002,38.1260549378666L139.2414453125,37.655272777107626L139.31415625,37.394662875682116L139.56864453125,38.10766211897135L140.332109375,36.30750929428771L140.36846484375002,37.87474551255053L140.69566406250001,36.58515914800492L141.02286328125,36.25744937563485L141.3500625,35.0850343636491L141.38641796874998,37.064914167604655L141.495484375,36.08990975875744L141.5681953125,37.75811761922458L141.89539453125,34.26775647090241L141.93175,36.38860805840656L142.22259375,33.717825832353384L142.2953046875,35.07465853203425L142.40437109375,36.51826741038397L142.91334765625,35.78537601740524L142.94970312499998,37.142678944224656L143.05876953125,35.80110550062224L143.38596875,35.85407928580588L143.42232421875,33.81042974408379L143.56774609375,34.746370611543L143.71316796874999,32.51198229600081L143.8949453125,34.16886230761355L143.93130078125,36.38121932541782L144.113078125,34.218960769474506L144.18578906250002,35.11562996222213L144.18578906250002,35.02881524034521L144.54934375,33.40942620723084L144.6220546875,32.89212624864146L144.65841015625,33.8892351873219L144.73112109375,33.19734991341829L144.91289843750002,36.073875784196645L145.24009765625001,34.00584766336462L145.60365234374999,33.64444341849199L145.67636328125,32.1827789743177L145.85814062499998,32.75384092669597L145.96720703124998,32.99208805879408L145.96720703124998,32.896689764478L146.03991796875002,32.4141750511798L146.11262890625,32.62068185142496L146.5125390625,33.27578148753807L146.83973828125,33.53818750246003L146.91244921875003,33.12114228240469L146.98516015625,32.56719544157386L147.27600390625,33.17856395380065L147.31235937499997,33.75188646533272L147.49413671875,32.61826904659921L147.603203125,31.163706188513487L147.63955859375,32.98732411827555L147.748625,32.619733688506216L147.78498046875,34.030118321491926L147.82133593749998,32.097280502996654L148.03946875,33.56492107158357L148.07582421875003,33.18944855576211L148.1121796875,31.555835151706248L148.5484453125,33.60496746477756L148.6938671875,33.424989954653114L148.766578125,33.594406625763924L149.057421875,33.0414773256264L149.23919921875,33.1024334092032L149.23919921875,33.03295542232016L149.2755546875,33.501694793050945L149.38462109375,34.78865636512637L149.63910937499998,31.99439711767164L149.7118203125,34.09125941246748L149.8572421875,33.24108103730461L149.96630859375,32.944136453623116L150.18444140625002,32.618608226830304L150.6570625,33.13528763976964L151.093328125,34.272524265741765L151.1660390625,30.83298233727163L151.1660390625,30.762741194868624L151.3114609375,34.308828113431275L151.6023046875,32.06571939706126L151.8204375,34.25240471112457L152.00221484375,34.879433328793795L152.14763671875,31.161663398485274L152.256703125,32.50097435577348L152.69296875,34.67363572357729L154.69251953124999,33.413230421868235L154.83794140625002,32.9960040487349L155.3105625,31.130790288814097L155.71047265625,33.60541071167046L155.85589453125,31.35956350036642L156.14673828125,34.217303411527126L156.18309375,32.85060365057805L156.328515625,33.932719634676516L156.6920703125,32.83924111283639L157.05562500000002,32.26803462342784L157.09198046875,34.26690852032468L157.1283359375,34.29446691410109L157.4191796875,35.3246806142005L158.1462890625,34.34029864282772L159.0188203125,33.95970373465255L159.23695312499999,32.958297228271306L159.27330859375002,33.13173395598477L159.38237500000002,32.44339851154521L159.7459296875,34.25361111353746L160.07312890625,31.860945114019245L160.1821953125,34.03817385198042L160.54575000000003,32.07206168195063L160.72752734375,34.557894324037164L162.03632421875,32.380549956451745L162.36352343750002,33.9843405532566L162.436234375,32.31684188781813L162.58165625,33.594961647960275L162.7997890625,31.664166619493216L162.90885546875,32.40455466644332L163.16334375000002,32.40236541222444L163.45418750000002,33.16293468292466L163.56325390625,32.1576680742543L163.85409765625,34.74388842894271L163.99951953125,32.844047450883835L164.14494140624998,35.175984771752894L164.98111718750002,33.87289672141725L165.1265390625,32.30278903415257L165.38102734375002,33.60514861785552L165.52644921875,31.27561253884977L165.926359375,33.95156726342711L166.36262499999998,31.396948485042543L166.9443125,31.35115529952401L167.85319921875,31.828102446415215L168.39853125,32.720138745551765L168.9075078125,32.370366840877324L169.1983515625,32.23696687055582L169.4891953125,32.37830674174157L169.707328125,33.66212704235858L169.74368359374998,32.01509867473081L170.3617265625,31.32948438078165L170.68892578125002,29.57370442439887L171.19790234374997,34.08375119553372L171.30696874999998,30.286324017088504L172.1067890625,31.602077365598888L172.72483203125,32.690429640764535L173.16109765625,31.853434969925075L173.2701640625,32.09607410058379L173.488296875,33.776638913561015L174.1426953125,31.43326967717573L174.21540625,32.39594025943765L174.8698046875,32.382045432925224L175.0152265625,31.656762469221263L175.12429296875,34.17517568509689L175.77869140625,34.26899756220254L175.92411328125002,31.527845073999316L176.1786015625,33.57685404880479L176.65122265625,33.76271710680291L176.86935546875,35.0179537643086L177.37833203124998,33.51663799482313L177.81459765625,33.747627440840006L178.3599296875,31.712601941925556L178.6507734375,32.182547715069205L178.68712890625,33.98748567903584L179.48694921875,32.872349728576154L179.63237109374998,32.21784365786746L180.14134765625,33.24448054825717L180.57761328125,32.492255882106036L180.61396875,33.05403855713931L180.86845703125,30.113141674548388L181.37743359375,32.94080632044509L181.59556640625001,33.72904576022515L181.8500546875,32.063713223080725L181.92276562499998,32.07675624469465L182.24996484375,33.8852189850401L182.32267578124998,31.294934249059708L182.35903125,33.20680070803925L183.04978515625,34.16218662397429L183.15885156250002,33.31402791291475L183.48605078125,33.12310798601672L183.958671875,32.90163871239534L184.4676484375,33.22476184300402L184.83120312499997,32.72682213783264L185.412890625,31.248541716655552L185.81280078125,34.52983872287652L186.46719921874998,33.20344359461555L186.83075390625,34.090476985343486L186.86710937499998,34.20478457754308L187.0852421875,31.685342258011758L187.33973046875,33.16748663579875L187.48515234375,33.947524080899626L187.5215078125,30.840290129523368L187.55786328124998,31.018629553304464L188.35768359375,33.071514047682285L188.3940390625,33.022625842555016L188.5394609375,32.41870773244986L188.612171875,32.071732137521565L188.93937109375,32.25476419688627L189.08479296874998,30.886769384145737L190.1391015625,31.23128206807783L190.17545703125,33.927019094201654L190.50265625,33.52842836217448L190.61172265625,31.067005133764297L190.8662109375,34.22421806305647L191.229765625,33.47077543153003L191.26612109375,30.868925805965603L191.30247656249998,30.71481849710372L191.33883203125,31.838802040977924L191.520609375,32.930164540694506L191.7387421875,34.120012645694345L191.8841640625,32.097536815330386L191.956875,33.41151524910873L192.5385625,32.1403852997517L192.75669531249997,31.53401198729196L192.79305078125,33.62440865893254L193.08389453125,33.19289046424356L193.7746484375,33.10839218917218L194.39269140625,34.339839978651554L195.33793359375,30.132453748956323L196.174109375,32.59191320091486L196.64673046874998,31.06466170671311L196.755796875,30.417158936912358L197.88281640625,31.562111913141877L197.919171875,31.92748803560707L198.500859375,32.47575938904828L198.53721484375,33.219566218554974L198.90076953125,31.296537646515816L199.00983593750001,31.954005762765348L199.082546875,32.871879501437604L199.48245703125,34.27736914699727L199.70058984375,32.2093101915988L199.80965625000002,32.63214460150763L199.955078125,32.27671262672678L200.6094765625,32.49456076594916L200.64583203125,33.540700519626796L200.79125390624998,33.75389071215281L200.90032031249999,30.550179256634266L200.97303125,34.25273232839325L201.4820078125,32.565017750317395L201.6274296875,31.07356904210016L202.02733984375,32.7922569421882L202.13640625,32.64465187252924L202.863515625,31.24235360459849L203.154359375,32.6050757064738L203.51791406249998,31.639953776178032L203.55426953125001,29.60590342042798L203.95417968750002,32.845550635998904L204.79035546875,31.424566620791495L204.9721328125,32.098251791840255L205.59017578125,30.285878843035192L207.18981640625,33.9251921461387L207.226171875,33.23290987719187L207.37159375,32.655185731297195L207.517015625,31.732667536051423L208.1714140625,35.60553726282987L208.389546875,34.84995933757588L208.42590234374998,32.4907681142742L209.95283203125,33.334987709468066L210.24367578125,33.9351517111063L210.53451953125003,32.40763041444799L210.570875,33.61683877286586L211.18891796875002,32.659625908867866L211.6615390625,32.32998319461265L211.80696093749998,32.09400818463078L212.20687109374998,32.2191849615086L212.64313671875001,32.51859631050715L212.75220312500002,31.68921392326328L212.8249140625,31.709574372930973L212.97033593749998,31.466174013912678L213.26117968749998,33.38807326995513L215.4425078125,31.427156724374385L215.660640625,33.50963854823598L215.69699609375,32.583530053157716L215.76970703125,34.071787383746L216.3150390625,32.706132143735886L216.56952734375,31.608770393681795L217.405703125,33.68802036954597L217.551125,32.56445501947945L217.95103515625001,34.39751218090004L218.0601015625,29.903936849737704L218.67814453124998,32.40449299731037L218.89627734375,33.55913188173011L219.36889843749998,33.0355146913366L220.0960078125,32.73862406814641L220.42320703125,34.145073439587264L221.00489453125,32.405664710835964L221.07760546875002,33.54285123063758L221.4048046875,34.14103411138058L221.73200390625001,33.12388655881992L222.02284765625,31.927528505975545L222.74995703125,32.99398823895237L222.82266796874998,31.30455077947542L222.931734375,32.15818069892174L223.00444531250002,34.25913820957595L223.22257812499998,32.15184997699478L223.65884375000002,31.60255915569988L223.69519921875,32.18305070393464L223.9496875,31.118365885689855L224.05875390625002,31.483583981001914L224.24053125,32.77620755034414L224.49501953125,34.34192131188783L224.56773046874997,34.55259077860549L226.421859375,31.174492505294353L226.82176953125,32.08749438246542L226.9308359375,33.7622276080603L227.11261328125,33.93405708399686L227.69430078125,33.81151666255161L227.83972265625002,33.917814976112396L227.876078125,33.913421050391406L227.9487890625,33.47150004384193L228.31234375,31.291093418374658L228.45776562499998,33.71862753108144L228.60318750000002,34.855725401504486L228.93038671875,35.28866198625079L228.9667421875,32.945030656050534L229.14851953125,32.94742804359308L229.29394140625,31.358900557187468L229.330296875,33.29964358765969L229.87562890625003,33.22473486275837L231.0026484375,32.19590486382896L231.43891406249998,33.29864917289129L231.69340234375,33.35854531824589L231.8751796875,31.844861033287913L232.38415625000002,32.8390059992671L232.71135546874999,35.3050929558548L233.25668750000003,32.320445677773506L233.65659765624997,30.633473056453198L233.91108593750002,32.496757728809655L233.94744140625,32.60294812138787L234.0565078125,32.75662374631926L234.274640625,31.874327315864235L235.6561484375,34.17072779888457L235.76521484375002,32.48463203554803L235.83792578125,32.84026250785047L235.9469921875,33.49646062539384L235.98334765624998,33.209764680740506L236.12876953125001,31.62755828045985L237.29214453125002,32.91936087947002L237.80112109375003,34.029790704223245L238.78271875,31.707203965634108L239.0008515625,31.885443177074194L239.1462734375,30.98098054765299L239.800671875,34.43160750276664L239.98244921875,34.13205739821902L240.52778124999998,31.95364538376981L240.63684765624998,33.26697821881285L240.7459140625,34.99896738000891L241.50937890625,32.47438339651987L241.9092890625,31.133052775128334L242.38191015625,31.34198779748246L242.418265625,33.09333335777575L242.7818203125,33.79890532486817L242.89088671875,32.61194796047428L243.03630859375,32.4657150290229L243.6543515625,34.40652743726969L243.7270625,33.26407206092367L243.83612890625,33.54504433917728L244.59959375,33.53659181364557L244.6723046875,33.462727609683185L244.85408203125002,31.177250271832406L245.25399218750002,33.543336875059396L245.54483593749998,31.484796164895982L245.6902578125,33.10268779437652L246.30830078125,34.685110036622376L246.52643359375,33.71013646234164L246.88998828125003,32.866325425153434L246.96269921875,30.166639647361905L247.18083203125002,33.032681765542776L247.362609375,34.59200120886618L247.54438671875002,32.5937864008275L247.653453125,35.22079125114462L248.19878515625,32.23909445564178L248.235140625,33.33119505779311L249.21673828125,34.24156250669196L249.50758203125002,34.77495425465432L249.87113671875,31.603364708748728L250.27104687500002,34.010364927351475L251.03451171875,33.37579725818202L251.25264453124998,34.67886989123443L251.6525546875,34.43593975935468L251.68891015625,33.51727395775643L252.85228515625,34.00169270553371L252.88864062500002,33.85421482846141L253.10677343749998,33.808140277523904L254.9972578125,32.99726826595989L255.06996875,32.57804535464808L255.32445703124998,33.216767981648445L255.43352343749999,34.24114238572392L255.68801171875,31.520304095338673L256.669609375,33.44543712653896L257.43307421875,33.309109799563885L257.79662890625,34.985908941111774L258.37831640625,32.89177165112713L258.45102734375,32.05728807029399L258.52373828125,33.55304976349527L258.705515625,34.73580591820857L259.868890625,34.4151726788418L260.05066796874996,31.677668305283248L260.450578125,34.30691251598975L260.48693359375,34.472147249024005L260.5232890625,32.53430652212015L260.63235546875,32.85170598632911L261.21404296875,31.622405053539723L262.195640625,34.10560904883525L262.30470703125,32.5638460367918L263.03181640625,32.044135200537056L263.24994921875,33.434937956658274L263.2863046875,32.056048906154246L264.231546875,33.16160494224593L264.48603515625,32.223825563761324L264.55874609375,32.15969351983884L264.7405234375,33.266110996631056L265.94025390625,32.19118910232052L266.04932031249996,30.7559325371615L266.74007421875,31.69053402813998L266.7764296875,34.636900191957295L267.10362890625004,33.488936991176814L267.3581171875,31.955796094780624L267.46718359375,32.773910375142634L267.72167187499997,31.28425392610106L267.83073828125,33.57144643671134L268.52149218750003,33.661275237460046L268.63055859375,32.28896743973547L268.99411328125,32.829732503403335" style="fill: none;" fill="none"></path></g></g></g></g></g></g><g transform="translate(39, 177)" clip-path="url(#clip_1)"><clipPath id="clip_1"><rect width="290" height="22"></rect></clipPath><g><g><line x1="0" y1="0" x2="0" y2="5" style="visibility: inherit;" fill="rgb(0, 0, 0)" stroke="rgb(204, 204, 204)" stroke-width="1px"></line><line x1="36.35546875" y1="0" x2="36.35546875" y2="5" style="visibility: inherit;" fill="rgb(0, 0, 0)" stroke="rgb(204, 204, 204)" stroke-width="1px"></line><line x1="72.7109375" y1="0" x2="72.7109375" y2="5" style="visibility: inherit;" fill="rgb(0, 0, 0)" stroke="rgb(204, 204, 204)" stroke-width="1px"></line><line x1="109.06640625" y1="0" x2="109.06640625" y2="5" style="visibility: inherit;" fill="rgb(0, 0, 0)" stroke="rgb(204, 204, 204)" stroke-width="1px"></line><line x1="145.421875" y1="0" x2="145.421875" y2="5" style="visibility: inherit;" fill="rgb(0, 0, 0)" stroke="rgb(204, 204, 204)" stroke-width="1px"></line><line x1="181.77734375" y1="0" x2="181.77734375" y2="5" style="visibility: inherit;" fill="rgb(0, 0, 0)" stroke="rgb(204, 204, 204)" stroke-width="1px"></line><line x1="218.1328125" y1="0" x2="218.1328125" y2="5" style="visibility: inherit;" fill="rgb(0, 0, 0)" stroke="rgb(204, 204, 204)" stroke-width="1px"></line><line x1="254.48828125" y1="0" x2="254.48828125" y2="5" style="visibility: inherit;" fill="rgb(0, 0, 0)" stroke="rgb(204, 204, 204)" stroke-width="1px"></line><line x1="290.84375" y1="0" x2="290.84375" y2="5" style="visibility: inherit;" fill="rgb(0, 0, 0)" stroke="rgb(204, 204, 204)" stroke-width="1px"></line></g><g transform="translate(0, 8)"><text x="0" y="0" dx="0em" dy="0.95em" style="text-anchor: middle; visibility: hidden; font-family: &quot;Helvetica Neue&quot;, sans-serif; font-size: 12px; font-weight: 200;" fill="rgb(50, 49, 63)" stroke="none" stroke-width="1px">-1k</text><text x="36.35546875" y="0" dx="0em" dy="0.95em" style="text-anchor: middle; visibility: inherit; font-family: &quot;Helvetica Neue&quot;, sans-serif; font-size: 12px; font-weight: 200;" fill="rgb(50, 49, 63)" stroke="none" stroke-width="1px">0</text><text x="72.7109375" y="0" dx="0em" dy="0.95em" style="text-anchor: middle; visibility: inherit; font-family: &quot;Helvetica Neue&quot;, sans-serif; font-size: 12px; font-weight: 200;" fill="rgb(50, 49, 63)" stroke="none" stroke-width="1px">1k</text><text x="109.06640625" y="0" dx="0em" dy="0.95em" style="text-anchor: middle; visibility: inherit; font-family: &quot;Helvetica Neue&quot;, sans-serif; font-size: 12px; font-weight: 200;" fill="rgb(50, 49, 63)" stroke="none" stroke-width="1px">2k</text><text x="145.421875" y="0" dx="0em" dy="0.95em" style="text-anchor: middle; visibility: inherit; font-family: &quot;Helvetica Neue&quot;, sans-serif; font-size: 12px; font-weight: 200;" fill="rgb(50, 49, 63)" stroke="none" stroke-width="1px">3k</text><text x="181.77734375" y="0" dx="0em" dy="0.95em" style="text-anchor: middle; visibility: inherit; font-family: &quot;Helvetica Neue&quot;, sans-serif; font-size: 12px; font-weight: 200;" fill="rgb(50, 49, 63)" stroke="none" stroke-width="1px">4k</text><text x="218.1328125" y="0" dx="0em" dy="0.95em" style="text-anchor: middle; visibility: inherit; font-family: &quot;Helvetica Neue&quot;, sans-serif; font-size: 12px; font-weight: 200;" fill="rgb(50, 49, 63)" stroke="none" stroke-width="1px">5k</text><text x="254.48828125" y="0" dx="0em" dy="0.95em" style="text-anchor: middle; visibility: inherit; font-family: &quot;Helvetica Neue&quot;, sans-serif; font-size: 12px; font-weight: 200;" fill="rgb(50, 49, 63)" stroke="none" stroke-width="1px">6k</text><text x="290.84375" y="0" dx="0em" dy="0.95em" style="text-anchor: middle; visibility: hidden; font-family: &quot;Helvetica Neue&quot;, sans-serif; font-size: 12px; font-weight: 200;" fill="rgb(50, 49, 63)" stroke="none" stroke-width="1px">7k</text></g><line x1="0" y1="0" x2="290.84375" y2="0" fill="rgb(0, 0, 0)" stroke="rgb(204, 204, 204)" stroke-width="1px"></line></g></g></g></g></svg>