<svg viewBox="0 0 330 200" xmlns="http://www.w3.org/2000/svg"><g><g><g><g><g><line x1="29.4375" y1="177.828125" x2="24.4375" y2="177.828125" style="visibility: inherit;" fill="rgb(0, 0, 0)" stroke="rgb(204, 204, 204)" stroke-width="1px"></line><line x1="29.4375" y1="163.00911458333334" x2="24.4375" y2="163.00911458333334" style="visibility: inherit;" fill="rgb(0, 0, 0)" stroke="rgb(204, 204, 204)" stroke-width="1px"></line><line x1="29.4375" y1="148.19010416666666" x2="24.4375" y2="148.19010416666666" style="visibility: inherit;" fill="rgb(0, 0, 0)" stroke="rgb(204, 204, 204)" stroke-width="1px"></line><line x1="29.4375" y1="133.37109375" x2="24.4375" y2="133.37109375" style="visibility: inherit;" fill="rgb(0, 0, 0)" stroke="rgb(204, 204, 204)" stroke-width="1px"></line><line x1="29.4375" y1="118.55208333333334" x2="24.4375" y2="118.55208333333334" style="visibility: inherit;" fill="rgb(0, 0, 0)" stroke="rgb(204, 204, 204)" stroke-width="1px"></line><line x1="29.4375" y1="103.73307291666666" x2="24.4375" y2="103.73307291666666" style="visibility: inherit;" fill="rgb(0, 0, 0)" stroke="rgb(204, 204, 204)" stroke-width="1px"></line><line x1="29.4375" y1="88.9140625" x2="24.4375" y2="88.9140625" style="visibility: inherit;" fill="rgb(0, 0, 0)" stroke="rgb(204, 204, 204)" stroke-width="1px"></line><line x1="29.4375" y1="74.09505208333333" x2="24.4375" y2="74.09505208333333" style="visibility: inherit;" fill="rgb(0, 0, 0)" stroke="rgb(204, 204, 204)" stroke-width="1px"></line><line x1="29.4375" y1="59.27604166666667" x2="24.4375" y2="59.27604166666667" style="visibility: inherit;" fill="rgb(0, 0, 0)" stroke="rgb(204, 204, 204)" stroke-width="1px"></line><line x1="29.4375" y1="44.45703125" x2="24.4375" y2="44.45703125" style="visibility: inherit;" fill="rgb(0, 0, 0)" stroke="rgb(204, 204, 204)" stroke-width="1px"></line><line x1="29.4375" y1="29.638020833333314" x2="24.4375" y2="29.638020833333314" style="visibility: inherit;" fill="rgb(0, 0, 0)" stroke="rgb(204, 204, 204)" stroke-width="1px"></line><line x1="29.4375" y1="14.819010416666686" x2="24.4375" y2="14.819010416666686" style="visibility: inherit;" fill="rgb(0, 0, 0)" stroke="rgb(204, 204, 204)" stroke-width="1px"></line><line x1="29.4375" y1="0" x2="24.4375" y2="0" style="visibility: inherit;" fill="rgb(0, 0, 0)" stroke="rgb(204, 204, 204)" stroke-width="1px"></line></g><g transform="translate(19.4375, 0)"><text x="0" y="177.828125" dx="0em" dy="0.3em" style="text-anchor: end; visibility: hidden; font-family: &quot;Helvetica Neue&quot;, sans-serif; font-size: 12px; font-weight: 200;" fill="rgb(50, 49, 63)" stroke="none" stroke-width="1px">-2</text><text x="0" y="163.00911458333334" dx="0em" dy="0.3em" style="text-anchor: end; visibility: inherit; font-family: &quot;Helvetica Neue&quot;, sans-serif; font-size: 12px; font-weight: 200;" fill="rgb(50, 49, 63)" stroke="none" stroke-width="1px">0</text><text x="0" y="148.19010416666666" dx="0em" dy="0.3em" style="text-anchor: end; visibility: hidden; font-family: &quot;Helvetica Neue&quot;, sans-serif; font-size: 12px; font-weight: 200;" fill="rgb(50, 49, 63)" stroke="none" stroke-width="1px">2</text><text x="0" y="133.37109375" dx="0em" dy="0.3em" style="text-anchor: end; visibility: inherit; font-family: &quot;Helvetica Neue&quot;, sans-serif; font-size: 12px; font-weight: 200;" fill="rgb(50, 49, 63)" stroke="none" stroke-width="1px">4</text><text x="0" y="118.55208333333334" dx="0em" dy="0.3em" style="text-anchor: end; visibility: hidden; font-family: &quot;Helvetica Neue&quot;, sans-serif; font-size: 12px; font-weight: 200;" fill="rgb(50, 49, 63)" stroke="none" stroke-width="1px">6</text><text x="0" y="103.73307291666666" dx="0em" dy="0.3em" style="text-anchor: end; visibility: inherit; font-family: &quot;Helvetica Neue&quot;, sans-serif; font-size: 12px; font-weight: 200;" fill="rgb(50, 49, 63)" stroke="none" stroke-width="1px">8</text><text x="0" y="88.9140625" dx="0em" dy="0.3em" style="text-anchor: end; visibility: hidden; font-family: &quot;Helvetica Neue&quot;, sans-serif; font-size: 12px; font-weight: 200;" fill="rgb(50, 49, 63)" stroke="none" stroke-width="1px">10</text><text x="0" y="74.09505208333333" dx="0em" dy="0.3em" style="text-anchor: end; visibility: inherit; font-family: &quot;Helvetica Neue&quot;, sans-serif; font-size: 12px; font-weight: 200;" fill="rgb(50, 49, 63)" stroke="none" stroke-width="1px">12</text><text x="0" y="59.27604166666667" dx="0em" dy="0.3em" style="text-anchor: end; visibility: hidden; font-family: &quot;Helvetica Neue&quot;, sans-serif; font-size: 12px; font-weight: 200;" fill="rgb(50, 49, 63)" stroke="none" stroke-width="1px">14</text><text x="0" y="44.45703125" dx="0em" dy="0.3em" style="text-anchor: end; visibility: inherit; font-family: &quot;Helvetica Neue&quot;, sans-serif; font-size: 12px; font-weight: 200;" fill="rgb(50, 49, 63)" stroke="none" stroke-width="1px">16</text><text x="0" y="29.638020833333314" dx="0em" dy="0.3em" style="text-anchor: end; visibility: hidden; font-family: &quot;Helvetica Neue&quot;, sans-serif; font-size: 12px; font-weight: 200;" fill="rgb(50, 49, 63)" stroke="none" stroke-width="1px">18</text><text x="0" y="14.819010416666686" dx="0em" dy="0.3em" style="text-anchor: end; visibility: inherit; font-family: &quot;Helvetica Neue&quot;, sans-serif; font-size: 12px; font-weight: 200;" fill="rgb(50, 49, 63)" stroke="none" stroke-width="1px">20</text><text x="0" y="0" dx="0em" dy="0.3em" style="text-anchor: end; visibility: hidden; font-family: &quot;Helvetica Neue&quot;, sans-serif; font-size: 12px; font-weight: 200;" fill="rgb(50, 49, 63)" stroke="none" stroke-width="1px">22</text></g><line x1="29.4375" y1="0" x2="29.4375" y2="177.828125" fill="rgb(0, 0, 0)" stroke="rgb(204, 204, 204)" stroke-width="1px"></line></g></g><g transform="translate(29, 0)" clip-path="url(#clip_0)"><clipPath id="clip_0"><rect width="300" height="177"></rect></clipPath><g><g><g><line x1="0" y1="0" x2="0" y2="177.828125" fill="rgb(0, 0, 0)" stroke="rgb(60, 60, 60)" stroke-width="1px" opacity="0.25"></line><line x1="37.5703125" y1="0" x2="37.5703125" y2="177.828125" fill="rgb(0, 0, 0)" stroke="rgb(60, 60, 60)" stroke-width="1px" opacity="0.25"></line><line x1="75.140625" y1="0" x2="75.140625" y2="177.828125" fill="rgb(0, 0, 0)" stroke="rgb(60, 60, 60)" stroke-width="1px" opacity="0.25"></line><line x1="112.7109375" y1="0" x2="112.7109375" y2="177.828125" fill="rgb(0, 0, 0)" stroke="rgb(60, 60, 60)" stroke-width="1px" opacity="0.25"></line><line x1="150.28125" y1="0" x2="150.28125" y2="177.828125" fill="rgb(0, 0, 0)" stroke="rgb(60, 60, 60)" stroke-width="1px" opacity="0.25"></line><line x1="187.8515625" y1="0" x2="187.8515625" y2="177.828125" fill="rgb(0, 0, 0)" stroke="rgb(60, 60, 60)" stroke-width="1px" opacity="0.25"></line><line x1="225.421875" y1="0" x2="225.421875" y2="177.828125" fill="rgb(0, 0, 0)" stroke="rgb(60, 60, 60)" stroke-width="1px" opacity="0.25"></line><line x1="262.9921875" y1="0" x2="262.9921875" y2="177.828125" fill="rgb(0, 0, 0)" stroke="rgb(60, 60, 60)" stroke-width="1px" opacity="0.25"></line><line x1="300.5625" y1="0" x2="300.5625" y2="177.828125" fill="rgb(0, 0, 0)" stroke="rgb(60, 60, 60)" stroke-width="1px" opacity="0.25"></line></g><g><line x1="0" y1="177.828125" x2="300.5625" y2="177.828125" fill="rgb(0, 0, 0)" stroke="rgb(60, 60, 60)" stroke-width="1px" opacity="0.25"></line><line x1="0" y1="163.00911458333334" x2="300.5625" y2="163.00911458333334" fill="rgb(0, 0, 0)" stroke="rgb(60, 60, 60)" stroke-width="1px" opacity="0.25"></line><line x1="0" y1="148.19010416666666" x2="300.5625" y2="148.19010416666666" fill="rgb(0, 0, 0)" stroke="rgb(60, 60, 60)" stroke-width="1px" opacity="0.25"></line><line x1="0" y1="133.37109375" x2="300.5625" y2="133.37109375" fill="rgb(0, 0, 0)" stroke="rgb(60, 60, 60)" stroke-width="1px" opacity="0.25"></line><line x1="0" y1="118.55208333333334" x2="300.5625" y2="118.55208333333334" fill="rgb(0, 0, 0)" stroke="rgb(60, 60, 60)" stroke-width="1px" opacity="0.25"></line><line x1="0" y1="103.73307291666666" x2="300.5625" y2="103.73307291666666" fill="rgb(0, 0, 0)" stroke="rgb(60, 60, 60)" stroke-width="1px" opacity="0.25"></line><line x1="0" y1="88.9140625" x2="300.5625" y2="88.9140625" fill="rgb(0, 0, 0)" stroke="rgb(60, 60, 60)" stroke-width="1px" opacity="0.25"></line><line x1="0" y1="74.09505208333333" x2="300.5625" y2="74.09505208333333" fill="rgb(0, 0, 0)" stroke="rgb(60, 60, 60)" stroke-width="1px" opacity="0.25"></line><line x1="0" y1="59.27604166666667" x2="300.5625" y2="59.27604166666667" fill="rgb(0, 0, 0)" stroke="rgb(60, 60, 60)" stroke-width="1px" opacity="0.25"></line><line x1="0" y1="44.45703125" x2="300.5625" y2="44.45703125" fill="rgb(0, 0, 0)" stroke="rgb(60, 60, 60)" stroke-width="1px" opacity="0.25"></line><line x1="0" y1="29.638020833333314" x2="300.5625" y2="29.638020833333314" fill="rgb(0, 0, 0)" stroke="rgb(60, 60, 60)" stroke-width="1px" opacity="0.25"></line><line x1="0" y1="14.819010416666686" x2="300.5625" y2="14.819010416666686" fill="rgb(0, 0, 0)" stroke="rgb(60, 60, 60)" stroke-width="1px" opacity="0.25"></line><line x1="0" y1="0" x2="300.5625" y2="0" fill="rgb(0, 0, 0)" stroke="rgb(60, 60, 60)" stroke-width="1px" opacity="0.25"></line></g></g></g><g><g><line x1="0" y1="163.00911458333334" x2="300.5625" y2="163.00911458333334" fill="rgb(0, 0, 0)" stroke="rgb(153, 153, 153)" stroke-width="1.5px"></line></g></g><g><g><line x1="37.5703125" y1="0" x2="37.5703125" y2="177.828125" fill="rgb(0, 0, 0)" stroke="rgb(153, 153, 153)" stroke-width="1.5px"></line></g></g><g><g><g><g><g><path stroke="rgb(255, 112, 67)" stroke-width="2px" d="M37.9084453125,158.1297706811456L38.02115625,158.01988130993655L38.32171875,157.15026094982335L38.3592890625,157.1085581819572L38.396859375,156.63760874275437L38.62228125,155.81122451138236L38.8852734375,154.00409725791997L38.9604140625,153.34550087978144L39.336117187499994,152.2265649998499L39.4863984375,150.9266299793388L39.561539062499996,149.97783371003052L39.9372421875,148.34127862108022L40.4632265625,146.41991749629014L40.5383671875,144.64056922297908L40.6886484375,143.5752401278436L40.9892109375,142.06454290738532L41.026781250000006,141.1430157786629L41.853328125000004,138.4706863654584L41.9660390625,137.11986676202255L42.229031250000006,136.01760895435922L42.3417421875,134.8426057725912L42.45445312499999,134.0043476271689L42.5671640625,133.37007665820855L42.679874999999996,132.66555905586674L43.055578125,131.10111585007934L43.356140624999995,129.77633499245593L43.3937109375,128.4763912986116L43.5439921875,128.04240270124984L43.919695312500004,126.62975044752088L44.0699765625,125.44769938158548L44.3705390625,123.72091960150847L44.445679687500004,123.69050721277458L45.460078124999995,120.40131853629245L45.497648437500004,119.48927847405295L45.7982109375,118.16585744024187L45.873351562500005,116.66242633287641L45.910921875,116.01087206610859L46.211484375,114.97426753881402L46.249054687500006,114.18700533890862L46.286625,112.60220187015561L46.4744765625,112.04659760539214L46.812609375,110.92598359756076L47.2258828125,110.73958273570264L47.526445312499995,107.37345911856107L47.63915625,106.37747469697838L48.1275703125,106.3776072328803L48.315421875,105.05328829276672L48.428132812499996,104.23970848879246L48.578414062499995,104.34108693959072L48.578414062499995,104.33450476564018L49.217109375,103.40938435114202L49.2546796875,101.66495118359283L49.480101562499996,100.5014493464582L49.5928125,98.30959285343376L49.630382812499995,98.54331721789467L49.667953125000004,97.06708669122098L49.7055234375,95.27902720643662L49.74309375,94.03474721475573L49.968515625,93.22575875121824L50.156367187499995,92.6842793953824L50.9829140625,91.73253583778386L51.0580546875,94.55647748183878L51.1331953125,93.27849304311476L51.2834765625,91.5488827638805L51.4337578125,89.04385400814691L51.696749999999994,87.90478279567488L51.771890625,87.39367471710877L51.922171875,86.60157512322687L51.9973125,85.57020676600311L52.0348828125,84.1782498534066L52.072453124999996,83.38378581308578L52.222734374999995,83.33248462271645L52.297875,82.1470552597957L52.3354453125,81.74117291010522L52.44815625,80.37821023908516L52.4857265625,79.86859200893201L52.5608671875,80.80573854817962L52.636007812500004,80.32471938688961L52.748718749999995,80.26754752080286L52.748718749999995,80.16194306357093L53.1995625,80.56961693516406L53.274703124999995,81.18855469366531L53.875828125,79.53696730846536L54.026109375,77.2568530019981L54.1388203125,75.48290156807673L54.4018125,74.41485908172234L54.476953125,74.87151341065785L54.589664062500006,72.96617126916858L54.627234375,72.43580530532209L54.739945312500005,74.03335481428907L54.777515625,75.33640401290143L55.0405078125,71.0865287218071L55.078078125,72.36621404738688L55.265929687500005,72.07345953713732L55.3035,70.30125439170526L55.4913515625,69.4363489131343L55.5664921875,70.19252261326977L55.641632812500006,70.17097597304742L55.791914062500005,70.28191095630584L55.829484375,68.07471791057938L55.942195312500004,69.2689085735827L55.942195312500004,69.92041625359354L56.05490625,69.15992834311942L56.393039062499994,68.62906399652692L56.430609375,67.370332134974L56.6184609375,68.98656770480395L57.182015625,66.05635821954044L57.4074375,65.02906982532521L57.5201484375,63.323736044852225L57.595289062499994,61.92537134945687L57.632859375,61.66879847805876L57.708,60.04804723383691L57.820710937499996,59.104819690714535L57.8958515625,60.24815367442184L58.083703125,60.264504881392796L58.1964140625,59.42271036084942L58.309125,60.22721700028451L58.496976562499995,60.74013346303029L59.285953125000006,57.181194788178956L59.36109375,56.18497121590049L59.36109375,55.51837217961352L59.398664062499996,53.32884132854899L59.736796875,50.81943901425258L59.962218750000005,51.03068273144356L60.2252109375,51.88434872703189L60.713625,50.16676052615901L60.939046875,48.94423724783974L61.1268984375,45.59269848410398L61.2020390625,45.24450172823137L61.23960937499999,41.61631059154749L61.615312499999995,40.810718542863185L61.7280234375,41.161198340771165L61.8783046875,45.2544582496092L61.991015624999996,47.28557682295673L62.291578124999994,46.299067694505226L62.3291484375,45.88447998924664L62.554570312500005,45.6832041189389L62.592140625,42.300579058844846L62.667281249999995,39.14100247088214L62.667281249999995,37.16947234847032L63.568968749999996,37.08328789926301L63.644109375,35.480805642148255L63.6816796875,38.06322397345724L63.719249999999995,35.013718912826505L64.1325234375,35.53690348654578L64.35794531250001,32.46247155819091L64.395515625,31.965341541292787L64.545796875,32.57169112550565L64.6209375,30.39966510228723L65.07178125,27.772108970040534L65.10935156250001,26.48460207161571L65.297203125,25.174734692438022L65.447484375,29.421638369955758L65.522625,29.952675742148244L65.5601953125,27.52976088756651L66.1613203125,29.71361254623133L66.2364609375,23.908741978629052L66.724875,23.312673032973407L67.0254375,24.18034286242377L67.0254375,24.63774983003725L67.32600000000001,24.409534561127344L67.401140625,22.01970812181031L67.70170312500001,21.816674704846093L67.70170312500001,21.653949518797617L68.1149765625,17.97438461768499L68.2276875,17.742952782538765L68.302828125,15.58398710208769L68.37796875000001,18.118523456261357L68.453109375,17.4674346780414L68.52825,17.384564858812183L68.75367187500001,18.95153988578207L68.903953125,19.035176105369857L69.0166640625,16.23942088409447L69.1669453125,17.96912362073374L69.3172265625,18.721225489047242L69.3923671875,16.934773300409546L69.42993750000001,24.974504043253432L69.4675078125,21.308333430444492L69.5426484375,19.573873279743566L69.655359375,15.472225622785004L69.8432109375,19.196476845811958L70.0310625,23.106951019488463L70.10620312500001,18.208097055349384L70.1437734375,15.803423169132259L70.18134375000001,18.25618293357462L70.2940546875,20.572454097703513L70.331625,22.16267231275762L70.3691953125,22.12515330614724L70.7448984375,23.83390824974819L70.8951796875,20.037324173636705L71.007890625,19.58707466824103L71.158171875,20.267240136483764L71.158171875,20.837750218085148L71.3460234375,23.151874887509166L71.45873437499999,27.037213654357004L71.8720078125,32.107698643826154L71.9471484375,32.875085215542356L72.13499999999999,32.77001326527616L72.210140625,31.763285897154105L72.360421875,38.30215619647214L72.6234140625,39.52986892795789L72.660984375,43.397356220004326L72.7736953125,43.7975401458645L72.811265625,53.757476200809336L73.44996093750001,55.538089290350825L73.56267187499999,59.75088683297642L73.9008046875,68.58984454962854L74.08865625,71.01276215857214L74.12622656250001,70.39555172192622L74.163796875,77.27881516904176L74.50192968750001,82.23979306851155L74.764921875,82.30512804866429L74.80249218750001,80.33144982281682L75.140625,74.84368454415615L75.21576562499999,74.06494162827143L75.366046875,75.5696897423232L75.7041796875,79.37457597400531L75.816890625,80.99923802651436L76.26773437499999,85.31785487227124L76.49315625,84.01457169880956L76.56829687499999,84.06379686905238L76.56829687499999,84.18414465157167L76.60586718750001,80.42945060969178L76.6434375,82.64567856246701L76.718578125,77.72998798492237L76.79371875,79.56014317086944L76.944,87.03771331197984L77.2069921875,87.90541714501559L77.8456875,89.92151334875135L77.920828125,88.47983877555515L78.07110937499999,91.32685639875722L78.221390625,91.12599104196384L78.44681250000001,90.43909454549683L78.6346640625,93.59282907965978L78.67223437499999,93.05447599911611L78.70980468750001,94.34404002948952L78.822515625,91.7022052555741L78.8600859375,95.22643625037637L79.01036718750001,93.55699256760936L79.0855078125,95.36709090269441L79.46121093750001,95.0273153542787L79.573921875,97.41477003177862L79.573921875,98.95959063682471L79.6114921875,98.64071075556784L79.6866328125,98.264388275771L79.76177343750001,100.66877071641603L79.76177343750001,102.21847372675569L79.91205468749999,103.52732378820359L79.949625,102.08869971233474L80.0623359375,103.35300217483163L80.40046875,106.61177299703888L80.5883203125,109.08915681885122L80.70103125,104.8220078423407L80.8137421875,105.32950471911548L80.8888828125,107.23224270611237L81.1143046875,111.39526201262115L81.151875,112.81635443242314L81.60271875000001,117.58238518236234L81.79057031250001,114.99144798118763L82.429265625,117.71102577159142L82.4668359375,119.75418252039057L82.50440625,121.80710679340226L82.76739843749999,122.57549452425258L83.330953125,123.11224208309979L83.481234375,124.22297227726219L83.5939453125,123.78163362649582L83.631515625,126.96377497304978L83.6690859375,126.60756761042974L83.781796875,128.18948877478857L84.232640625,130.59880388875933L84.2702109375,132.44592440746803L84.45806250000001,130.22068394371416L84.4956328125,132.65947514401506L84.5707734375,131.93480418722805L84.833765625,136.59038601664787L84.94647656250001,136.2884010572245L85.134328125,135.0008755369143L85.3973203125,135.80210420672037L85.4724609375,136.76393394176276L85.51003125,134.5007499534882L85.99844531250001,131.74843712572238L86.22386718749999,135.75597480217007L86.41171874999999,136.44558449398858L86.5244296875,137.1559563549169L86.8249921875,135.239257400541L86.937703125,137.88400623891263L86.9752734375,136.7333601617923L87.238265625,136.59629842526877L87.35097656250001,135.98172366365588L87.4261171875,135.89124226827798L87.8769609375,136.9859448361459L87.989671875,132.8677432727404L88.10238281250001,132.14950791385797L88.3278046875,134.3623366880637L88.4780859375,128.87655320534435L88.741078125,129.75235177575644L88.9665,129.85451844383735L89.041640625,132.63632513500428L89.30463281249999,132.951697036627L89.30463281249999,133.11593672707858L89.342203125,134.9404175195357L89.94332812500001,132.94604041258063L89.9808984375,129.97969606864194L89.9808984375,128.18130521211668L90.31903125,130.59444279915527L90.61959374999999,133.75000948675336L90.69473437500001,131.53391248192108L91.52128125,129.82119260552952L91.6715625,131.06385083726602L91.8594140625,132.70848820285434L91.97212499999999,130.72201530318318L92.04726562500001,134.16101508192486L92.347828125,131.81454974871238L92.3853984375,132.43887172988866L92.42296875,133.10176882165015L93.28708593750001,133.04761654819453L93.4373671875,130.71267932739102L93.8882109375,132.06542942985143L94.0384921875,131.65366205077416L94.1136328125,130.09032935475935L94.1887734375,127.74603055574374L94.22634375,129.16878535705035L94.4141953125,127.57698268966709L94.4893359375,128.88235784660878L94.63961718750001,126.01381735495886L94.6771875,126.28219427647984L95.12803125,128.25033736938911L95.203171875,131.27193526039576L95.2407421875,129.38292761510644L95.7667265625,128.76174594667674L96.2175703125,126.58931554791106L96.4805625,124.32917826808554L96.63084375,125.64372755077719L96.74355468750001,126.44501809495034L96.8186953125,126.50475386808719L96.93140625000001,128.40006332738443L97.23196875000001,126.24665241997388L97.5701015625,126.97479159694481L97.607671875,128.56835318020921L97.7203828125,130.00383235200906L97.79552343750001,130.0189966108481L98.24636718750001,128.7960484152186L98.28393750000001,127.12462988149014L98.43421875,129.26858271177144L98.4717890625,129.53722999403197L98.509359375,129.19147958999469L98.54692968750001,129.2607763908789L98.54692968750001,129.28567528354537L99.03534375000001,130.7790546092038L99.185625,131.33770669498412L99.63646875,126.0157405502997L99.78675000000001,125.79695526278925L100.04974218749999,125.46406970791665L100.08731250000001,126.49122958641338L100.38787500000001,126.10821717090063L100.9514296875,126.34945757353297L100.989,126.79180278962747L101.1768515625,126.96161621090309L101.4774140625,126.0196686229698L101.590125,128.04750891165986L102.0033984375,125.45141320484113L102.04096875,126.37095577204565L102.15367968749999,124.84662554063502L102.34153125,125.09071936149262L102.3791015625,124.69561364527362L102.5293828125,124.47333706036697L102.64209375,125.17853911401625L102.7548046875,125.42893140027003L102.867515625,125.58567055295353L102.94265625000001,125.52561881257364L103.24321875000001,124.27235471400579L103.468640625,122.47205799659864L103.54378125,122.54793621281252L103.65649218749999,124.5413964084802L103.95705468749999,124.33869890585152L103.994625,123.77432159685856L104.1073359375,121.66693107609709L104.1824765625,122.90062841494733L104.48303906250001,121.57482936811361L104.821171875,124.29337160747895L105.19687499999999,123.57548447514066L105.53500781250001,122.68854630541L105.572578125,124.15311622525967L105.6101484375,123.59143039825986L105.64771875,124.38346650956629L105.722859375,123.26812509464854L106.023421875,122.59063435530247L106.24884374999999,123.84917566613703L106.5118359375,124.45092456538785L107.075390625,124.87368492148406L107.1129609375,125.07748870742572L107.5638046875,125.92899716983587L107.63894531250001,125.51611803612818L107.67651562500001,125.39096605166819L107.7892265625,127.27252081911777L107.826796875,127.44071719550698L107.8643671875,127.84601818722652L108.05221875,126.56631911567152L108.1649296875,125.60033644922356L108.42792187500001,127.0571934363511L108.578203125,126.07230176627735L108.803625,128.52887428884765L108.84119531249999,129.60721776635484L108.9163359375,128.37263847987475L109.14175781249999,127.80167463891578L109.2168984375,129.5633097182584L109.2920390625,130.29941778774295L109.329609375,130.53869519879063L109.5174609375,129.71187972351694L109.5926015625,129.34121928781144L110.15615625,131.4639123176726L110.23129687500001,130.39054932776742L110.381578125,131.0210196244239L111.208125,132.11922456217422L111.35840625,132.72252338017591L111.4711171875,133.21999669379335L111.54625781249999,131.73025749409004L111.7716796875,132.37716137277863L111.88439062500001,133.41756636327426L111.99710156249999,133.45260877875538L112.410375,133.227334263482L112.5982265625,132.6978527501573L112.7109375,133.224054149882L112.86121875,134.20380720701823L112.8987890625,133.97354148476526L113.12421093750001,134.43396096361948L113.3120625,133.36086536345346L113.387203125,133.82387817012497L113.5750546875,134.76539655683524L114.439171875,136.64269553715837L114.5518828125,134.44239521877876L114.5518828125,133.12833581767129L114.739734375,134.62535169090816L116.1298359375,134.48272166619296L116.3176875,134.04436370625353L116.3552578125,134.86984754116887L116.392828125,135.00267076828263L116.4303984375,134.64996149356574L116.46796875,135.49724177107709L116.5055390625,134.89408664201744L116.9563828125,134.4691632782621L117.06909375000001,135.27830667976258L117.1066640625,135.59661502450933L117.2569453125,136.09172174581528L117.48236718749999,135.84832045261248L117.6326484375,136.92168419113517L117.7077890625,138.36519404971804L117.7077890625,139.25844710261399L118.0083515625,138.72884374622964L118.3089140625,137.9779471640406L118.421625,138.5434122909626L118.496765625,138.73448515188818L118.647046875,138.68500026124244L118.6846171875,139.06442357522263L118.87246875000001,137.75703404598642L118.947609375,138.80349592251753L119.0603203125,138.70087139859703L119.1354609375,138.28161770467156L119.62387500000001,137.96865266772375L119.8117265625,140.32029554361958L120.07471875,140.09685582394567L120.22500000000001,139.67708847085734L120.33771093749999,141.74716547301472L120.41285156250001,141.0084090174748L120.41285156250001,140.59262732961855L120.7885546875,142.7220709434842L120.826125,141.23773030695983L120.93883593749999,139.6452164620618L121.502390625,141.89737022523096L121.6151015625,141.47613698032902L121.9156640625,140.98151347808482L121.953234375,141.0950782070653L122.253796875,142.85769222970384L122.2913671875,143.62141326332934L122.6295,141.63781391080627L122.6670703125,142.1377710185731L122.704640625,142.13057730632482L122.8924921875,141.4568895995366L123.08034375,142.8516677224237L123.56875781250001,143.62770403496017L123.606328125,144.49766257596963L123.83175,146.635391274065L123.86932031250001,145.52258224332792L123.906890625,146.41955501643744L123.9444609375,145.69442021868883L124.1698828125,145.6231581884211L124.508015625,145.97759939313445L124.88371875,145.08991892888702L125.03399999999999,145.85946454178776L125.18428125,145.72966087987413L125.259421875,144.79028421438719L125.37213281250001,144.64781477491746L125.40970312500001,145.3314850550335L125.40970312500001,145.74051281155297L125.5975546875,145.95617911944478L126.08596874999999,145.80174016754142L126.1986796875,145.67644412504075L126.4992421875,145.88504375976188L126.68709375,146.46574378971872L126.762234375,145.57170563691628L126.7998046875,145.7458342378563L126.9500859375,145.00856781891343L127.062796875,146.76823174398208L127.1003671875,146.82636890040973L127.28821875,146.6695267421383L127.363359375,146.5058322631371L127.4760703125,146.18268184585682L127.51364062500001,146.4672830402502L127.62635156249999,146.03688212854556L127.7390625,146.64717474628225L127.7766328125,145.39567825525245L127.814203125,145.37478242625838L128.49046875,146.21274289145845L128.71589062500001,148.03412895623958L129.0540234375,146.9619060506122L129.09159375,146.65854113236747L129.46729687500002,146.80318807523855L129.5048671875,146.89473112382586L129.8805703125,146.20374662789064L130.3314140625,146.42680275215372L130.368984375,146.2952710000346L130.6319765625,146.27550639431695L130.7822578125,146.42807160753867L130.93253906249998,145.79193841406024L131.0076796875,146.40409190635373L131.04525,146.4053661348501L131.04525,146.39771052271104L131.871796875,146.99464198926574L131.9845078125,146.55197373156938L132.05964843750002,146.2297749023896L132.17235937499998,145.34726893369177L132.4353515625,144.9980516579329L132.472921875,146.0778167200409L132.472921875,146.7095979077263L132.623203125,145.76452395715674L132.9613359375,145.9075823722558L133.374609375,146.39149912604103L133.4873203125,145.65631231108105L133.8630234375,144.6962693076658L133.90059375,144.2279643205103L134.0133046875,144.75717831973017L134.50171875,144.15326921133217L134.576859375,144.78591178071062L134.8398515625,145.46862622799412L134.91499218750002,144.23460728199444L135.253125,144.44395426499543L135.40340625000002,144.5207897508156L135.8166796875,143.25713174080175L135.8918203125,144.00801832560393L135.9669609375,144.0441801477866L136.00453125,144.70926892808455L136.4929453125,145.30325826120455L136.90621875,144.66214258694148L137.1692109375,144.48885100902714L137.46977343749998,144.43781785659948L137.657625,145.23304529781913L137.9581875,145.88446599117134L138.22117968749998,145.9554142125967L138.25875,146.22129658310251L138.634453125,145.8651300224208L139.085296875,146.33149563548724L139.1228671875,146.6642723434086L139.385859375,146.7140532107899L139.7239921875,146.82706823174402L139.7991328125,147.1928477839584L139.8742734375,147.7314353555886L140.588109375,147.37337125618197L140.7008203125,147.70079012474528L140.7759609375,148.4434163057597L140.888671875,148.24012044677139L141.0013828125,148.43931657864178L141.11409375,149.00035329077258L141.1516640625,148.4543767730834L141.189234375,148.3211616270259L141.640078125,148.2041523672525L141.790359375,148.78909427319894L142.1284921875,148.7064743746639L142.20363281250002,149.77280822234525L142.241203125,148.66932460382387L142.466625,149.69296936738127L142.5041953125,149.08047417523792L142.61690625,149.83959352248928L142.842328125,149.61824334563727L142.9550390625,149.93326349802214L143.142890625,150.95171999914263L143.3307421875,150.75676387876584L143.8567265625,151.4585663380232L143.894296875,151.90988820436883L143.9694375,151.18160899447622L144.2324296875,151.07379256417687L145.02140624999998,150.61775902854976L145.05897656250002,151.12993364762312L145.397109375,150.05792491148415L145.7352421875,150.18050489649227L146.073375,150.35784804452862L146.11094531249998,150.56242859130248L146.22365625,150.45076380865362L146.298796875,151.39760432807557L146.63692968750001,150.90760976368708L146.6745,150.7624601495933L146.9750625,150.90927401487806L147.050203125,150.6352241943751L147.1629140625,149.91335689196086L147.6888984375,150.51224748040445L147.72646875,150.35347731753188L147.8391796875,150.69936150787547L148.1773125,151.19704092426934L148.2148828125,151.1566919899762L148.36516406249999,151.04933188912204L148.5154453125,150.27891217758665L148.703296875,150.2582949169402L148.74086718750002,150.26324819085545L148.92871875,150.14623232195305L149.00385937500002,149.2689582798577L149.00385937500002,148.72565816168665L149.3795625,149.16128433437828L149.454703125,149.01946236478176L149.49227343750002,149.57377797548602L149.5674140625,148.9290922884348L149.75526562500002,149.0393639906952L150.0933984375,148.23124368243668L150.4691015625,148.10279621682517L150.54424218749998,147.7921117002882L150.73209375,147.76927772306604L150.8448046875,148.51784392183941L150.8448046875,148.95592177250413L150.9199453125,148.49584150491214L150.9950859375,147.9788778659635L151.408359375,147.954338194334L151.7464921875,147.15973728600105L151.8216328125,147.03799315576032L151.8967734375,147.7837097365279L152.19733593750001,147.25526127677873L152.23490625,146.86741093970366L152.4227578125,146.70613068087616L152.53546874999998,146.55188631554424L152.5730390625,146.10047923896698L152.68575,146.3551580165763L152.72332031250002,146.10147968156522L152.760890625,146.27780053252013L152.9863125,146.05308310665606L153.0238828125,145.7871347599278L153.06145312499999,145.84028758020003L153.512296875,146.69992672095924L153.66257812499998,146.36433744047224L153.73771875,145.89421604380988L154.03828124999998,145.41114641411693L154.22613281250003,145.66793809611502L154.22613281250003,145.8071739702035L154.263703125,145.1559684389249L154.3764140625,144.82809097722662L154.63940624999998,144.58300234563197L154.71454687500002,144.32998007635004L154.864828125,144.09748280405836L154.9775390625,144.1470647002598L155.2029609375,144.00366091675602L155.691375,144.60736779172692L156.14221874999998,144.1155777857173L156.217359375,143.4918296586753L156.217359375,143.10126338683256L156.367640625,142.62361268495135L156.668203125,142.5148855505066L156.89362500000001,142.75330037172694L157.0814765625,143.238216085634L157.23175781249998,142.75132137013307L157.34446874999998,142.31445209647168L157.7953125,141.73102156623173L159.8616796875,141.34324004676074L160.01196093750002,140.9715369185997L160.50037500000002,142.1623164658463L160.9136484375,141.8442199365501L161.0639296875,141.65311681993035L161.3644921875,141.55527404966787L161.4020625,141.37958512580596L161.55234375,140.8585502090625L161.92804687499998,140.79345027241044L162.30375,141.46038830843827L162.3413203125,141.4905825201085L162.378890625,141.47339533143207L162.679453125,141.42956565176476L163.43085937499998,141.575107148419L164.332546875,141.6716838938401L164.55796875,141.6207113960081L164.5955390625,142.60124819146753L164.70825000000002,143.0903600511481L165.083953125,142.3657176401608L165.4220859375,141.97320747624693L165.53479687499998,142.35380248216802L165.9105,141.68958126907853L166.0983515625,141.82959325915263L167.4508828125,142.23433069297087L167.78901562500002,142.30427179070858L167.86415625,141.7382728441261L168.0144375,141.68526522569078L168.23985937499998,141.79936751054058L168.3525703125,141.9712039496332L168.6155625,141.65446569653827L168.91612500000002,141.8195988567992L169.0288359375,143.00544683803065L169.32939843749998,142.3731532294439L169.4796796875,142.1558522178438L169.6299609375,142.1154525930657L170.49407812500002,142.58666256788965L170.644359375,142.0902696565703L170.90735156250003,141.902530399541L171.0576328125,142.14210149004853L171.47090625,142.21791765007254L171.92174999999997,141.58817299502817L172.522875,141.53295161131655L173.4621328125,141.34291400618537L174.02568749999998,141.45547090373248L174.55167187499998,141.69685540283558L174.852234375,141.70933726949892L175.152796875,141.70415094161075L175.37821875,141.47296305148228L175.41578906249998,141.5920732236932L176.054484375,141.66051143683177L176.3926171875,142.1758599746109L176.9186015625,141.93215161705797L177.03131249999998,141.90233608433974L177.857859375,141.64558050021157L178.4965546875,141.99049518769755L178.9473984375,141.05362297374222L179.060109375,141.31795114283193L179.28553125000002,142.18317564560877L179.961796875,143.12394034616992L180.0369375,142.24307093988315L180.71320312499998,141.48934492867215L180.863484375,141.69178581787264L180.9761953125,141.5880219586876L181.6524609375,141.57330257906636L181.8027421875,141.4840004414665L182.065734375,141.6712971861495L182.5541484375,142.2166974478662L182.7795703125,141.88636606437166L183.30555468749998,141.45708727595778L183.7563984375,141.90819328500123L184.31995312499998,142.04770790769632L184.620515625,141.82778536493961L184.6580859375,141.91398337779424L185.48463281250002,142.48905092245627L185.6349140625,142.0311500881838L186.1608984375,142.20272413445875L186.6117421875,142.23130753630915L186.6493125,142.0865654398671L186.91230468749998,141.7881360207178L187.4382890625,141.38002218628986L187.6637109375,141.5741619249934L187.926703125,141.7590061305416L188.00184374999998,141.82661983049874L188.3399765625,142.14924891740014L188.4151171875,141.86579905277696L188.4526875,141.77855058680697L189.16652343750002,142.06440588852945L189.27923437500002,141.42364389250884L189.61736718749998,142.01143976107366L190.10578124999998,142.44515521230127L190.63176562499999,142.49249165136214L191.00746875,142.61422672826455L191.60859374999998,142.10989327964728L192.0218671875,141.8855830740683L192.69813281249998,142.13288986566678L193.0738359375,141.9014486118387L193.11140625,141.70677881877012L193.33682812499998,141.97697310710183L193.5998203125,141.97764554310382L193.7501015625,141.91827555522943L193.787671875,141.61579503618552L193.82524218749998,141.60086824349287L194.6517890625,142.01384389585292L194.689359375,141.76384414036195L194.839640625,141.58690207071078L194.91478124999998,141.51158385768716L195.2529140625,141.65339217740654L195.40319531249997,141.67799002802636L196.49273437500003,141.63266154720893L196.5303046875,141.46734744211489L196.8684375,141.4372662445185L196.98114843750002,141.6874857701154L197.244140625,141.43072274774312L197.61984375,141.59984009825934L197.6574140625,141.660123429132L197.694984375,141.6800078301847L197.7325546875,141.71491439834554L197.92040624999998,141.8869482930595L198.145828125,141.74657716079616L198.296109375,142.00499788401711L198.37125,142.24957764657253L198.972375,141.61075370399553L199.197796875,142.0157799116824L199.2353671875,141.96485286189687L199.5359296875,142.1494435989871L200.249765625,141.76075232445285L200.8884609375,141.26938465934447L201.8652890625,141.52939225580167L202.72940624999998,141.18416050791762L203.21782031249998,141.54423891927564L203.33053125,141.51952947843034L204.4952109375,141.6548553691012L204.53278125,141.0083206388028L205.13390625,141.2197574141103L205.1714765625,141.44031589825815L205.5471796875,141.5730014749857L205.659890625,141.73940056265346L205.73503125,141.37573185720117L206.1483046875,141.55825935770912L206.37372656250002,141.25296267513838L206.48643750000002,141.6469676648492L206.63671875,141.49983130635803L207.31298437499998,141.67264336690496L207.3505546875,141.51258122903224L207.5008359375,141.0298742431081L207.613546875,142.36128565051717L207.6886875,141.753485653819L208.214671875,141.85354899519464L208.364953125,142.1421464252449L208.7782265625,141.9964429612742L208.89093749999998,141.88094523926296L209.64234375,142.16469153572203L209.94290625,142.18670130022315L210.318609375,142.0023177152998L210.3561796875,141.95460903034123L210.769453125,141.41330936693953L211.6335703125,141.54679456587914L211.821421875,141.3710010526505L212.4601171875,142.3834990242999L214.11321093749999,142.18549068909672L214.15078125,142.03185117161593L214.3010625,142.8365384275694L214.45134375,141.70176210127647L215.127609375,141.59238390337353L215.35303125000002,142.68473454597398L215.3906015625,142.30794246613664L216.96855468750002,141.80122737515032L217.2691171875,141.49046064659294L217.5696796875,141.24170450701416L217.60725,142.11867241058957L218.2459453125,142.49748852845556L218.734359375,142.38401795350427L218.88464062499997,142.3050966802736L219.29791406249998,142.24379088957858L219.7487578125,141.5473237710729L219.86146875,142.77619885320672L219.93660937500002,142.3540200301049L220.086890625,142.58595881398247L220.38745312499998,141.89633872275735L222.64167187500001,141.42070372699808L222.86709375,141.34377865982023L222.9046640625,141.7311157403656L222.97980468749998,141.74726656610378L223.543359375,141.77419236366467L223.8063515625,142.0186041250945L224.67046875000003,141.88088459607934L224.82075,142.1979704213856L225.2340234375,142.39386502766422L225.346734375,142.1602824162025L225.9854296875,141.65820210423044L226.21085156249998,141.37906140185976L226.69926562499998,141.06502144233434L227.450671875,141.5631321723772L227.78880468749998,141.68269098123488L228.3899296875,142.1957167062148L228.46507031250002,141.3711386620418L228.80320312499998,140.67062320196624L229.1413359375,141.23051299563693L229.44189843750002,141.1055779599596L230.1933046875,141.44642787660848L230.26844531249998,141.6545041654027L230.38115624999998,141.40389367524386L230.45629687500002,140.83896717019536L230.68171875,140.88408341509694L231.1325625,141.25385380128083L231.1701328125,141.01609007533327L231.43312500000002,141.33728907080553L231.54583593750002,141.26383466186113L231.7336875,141.31842601259243L231.9966796875,141.64469750226354L232.0718203125,141.57518683070182L233.98790624999998,142.0986267685671L234.4011796875,141.67613259444562L234.513890625,141.66663316209073L234.7017421875,142.0568529334304L235.3028671875,142.07250397025123L235.4531484375,142.14274211255108L235.49071874999998,141.91483323106107L235.56585937499997,142.1012348010874L235.9415625,142.25470305021523L236.09184374999998,141.7232216369639L236.24212500000002,141.57573115916728L236.58025781249998,141.92013260143506L236.617828125,141.52708020620548L236.8056796875,142.0146975899766L236.9559609375,142.40759894584795L236.99353125,142.29739782904446L237.5570859375,142.0784241745687L238.72176562500002,141.83976999404678L239.17260937499998,141.70432280763578L239.4356015625,142.31723347600553L239.623453125,141.90944851838304L240.1494375,141.29237178257756L240.4875703125,141.54982186288873L241.051125,141.72026023370518L241.4643984375,141.94609297401206L241.727390625,141.61281444730258L241.76496093749998,141.74940880833702L241.87767187499998,141.24862834942027L242.10309375,141.46899887730936L243.53076562500002,141.24427569171942L243.6434765625,141.2459356782381L243.7186171875,141.2080354705231L243.831328125,141.17615726516803L243.86889843749998,141.89767277407842L244.0191796875,141.87842020672727L245.2214296875,142.06313036066095L245.7474140625,142.8910767361182L246.7618125,142.14430525362937L246.98723437499999,141.91065514722237L247.13751562500002,141.67033342615525L247.81378125,142.6071120297656L248.0016328125,142.71053897682054L248.56518749999998,141.81057896222606L248.6778984375,141.6928696219232L248.790609375,143.00426637410754L249.57958593749998,142.96148371267103L249.992859375,142.16622265096177L250.4812734375,142.14599124900403L250.51884375,141.88632927455893L250.894546875,141.51173186919127L251.0072578125,141.65085375076902L251.15753906249998,141.48389527596356L251.796234375,141.41851725628865L251.871375,141.95298271385866L251.9840859375,142.38443825187605L252.77306249999998,141.85010256637278L252.84820312500003,142.444338781004L253.0360546875,142.15073772294463L253.44932812500002,142.4666223162302L253.74989062499998,141.8678233128372L253.900171875,141.459752127933L254.53886718750002,141.79362438028753L254.76428906249998,142.4842150901101L255.1399921875,142.33410365553996L255.2151328125,142.15814010789873L255.44055468750003,142.06656800298174L255.62840625,141.91694611164894L255.8162578125,141.97479127967637L255.92896875000002,142.07913844156582L256.4925234375,142.0925811509514L256.53009375,141.7113145085682L257.5444921875,142.16710997092284L257.8450546875,141.82832736018332L258.2207578125,141.7409669847123L258.63403125,141.66811515050622L259.42300781250003,141.5200969427898L259.64842968749997,141.89029085201966L260.061703125,141.5919224136846L260.0992734375,141.35006821287334L261.3015234375,141.45657513357298L261.33909375,142.12986744818843L261.564515625,141.86016164870713L263.518171875,141.85101025728875L263.5933125,141.51063830077246L263.85630468749997,141.0965275733596L263.969015625,141.4959398957074L264.2320078125,142.0497791233101L265.24640625,142.33264007493486L266.0353828125,142.79472011235632L266.4110859375,142.7831236632602L267.0122109375,142.33436375728866L267.0873515625,142.01877155438535L267.1624921875,141.7285214199005L267.35034375,141.74840080365806L268.55259374999997,142.1280040441718L268.74044531249996,142.05823991626596L269.15371875,141.42141832990507L269.1912890625,141.82487103305593L269.228859375,141.51717955087526L269.3415703125,141.38758676130513L269.9426953125,141.59319214537607L270.95709375,141.4248236325524L271.0698046875,141.3124534130007L271.8212109375,140.98173202750047L272.0466328125,141.22233408732887L272.084203125,141.20206006555463L273.06103125,141.5384393778391L273.3240234375,142.7047450312146L273.3991640625,142.3623879770712L273.587015625,141.80502337779012L274.8268359375,141.823088487255L274.93954687499996,141.8828507681419L275.6533828125,141.76782734399913L275.690953125,141.36740099233663L276.02908593750004,141.94750980690486L276.292078125,141.94238813425818L276.4047890625,141.86725911707612L276.66778125,141.58020982327866L276.7804921875,141.60523475014602L277.494328125,141.46718968060674L277.6070390625,141.43248524742063L277.9827421875,141.5721400608474" style="fill: none;" fill="none"></path></g></g></g></g><g opacity="0.20000000298023224"><g><g><g><path stroke="rgb(255, 112, 67)" stroke-width="2px" d="M37.9084453125,158.1297706811456L38.02115625,157.95394768721113L38.32171875,156.31542540411465L38.3592890625,157.05951572694661L38.396859375,156.02273715493115L38.62228125,154.66803762107156L38.8852734375,151.4198763714327L38.9604140625,152.38526103793023L39.336117187499994,150.57635191905624L39.4863984375,148.99637797350684L39.561539062499996,148.56324481839934L39.9372421875,145.89535204817852L40.4632265625,143.54414938654128L40.5383671875,141.97503274151433L40.6886484375,141.97849873950082L40.9892109375,139.79956253742176L41.026781250000006,139.7611150449763L41.853328125000004,134.46287074980017L41.9660390625,135.09384314063936L42.229031250000006,134.36432299359393L42.3417421875,133.0801654399062L42.45445312499999,132.74698799227676L42.5671640625,132.41868272734186L42.679874999999996,131.60879099803665L43.055578125,128.75446216079095L43.356140624999995,127.78916935560605L43.3937109375,126.5264790840447L43.5439921875,127.39142047148198L43.919695312500004,124.5107733681798L44.0699765625,123.67462343598405L44.3705390625,121.1307505040119L44.445679687500004,123.64488863572478L45.460078124999995,115.46753591423234L45.497648437500004,118.12121844602129L45.7982109375,116.18072594640157L45.873351562500005,114.40727971059582L45.910921875,115.03354067603746L46.211484375,113.41936075749496L46.249054687500006,113.00611204343537L46.286625,110.22499667232236L46.4744765625,111.21319120936096L46.812609375,109.24506258716187L47.2258828125,110.45998144305L47.526445312499995,102.32427369430661L47.63915625,104.88349806486318L48.1275703125,106.37780603673309L48.315421875,103.06680988272032L48.428132812499996,103.01933878287673L48.578414062499995,104.49315461578468L48.578414062499995,104.32463150471449L49.217109375,102.021703729406L49.2546796875,99.04830143228173L49.480101562499996,98.75619659076133L49.5928125,95.02180811390281L49.630382812499995,98.89390376458564L49.667953125000004,94.85274090121189L49.7055234375,92.59693797926107L49.74309375,92.16832722723484L49.968515625,92.01227605591217L50.156367187499995,91.87206036162874L50.9829140625,90.30492050138614L51.0580546875,98.79238994792104L51.1331953125,91.36151638502875L51.2834765625,88.95446734502912L51.4337578125,85.28631087454657L51.696749999999994,86.19617597696681L51.771890625,86.62701259925961L51.922171875,85.413425732404L51.9973125,84.02315423016746L52.0348828125,82.09031448451181L52.072453124999996,82.19208975260456L52.222734374999995,83.25553283716242L52.297875,80.3689112154146L52.3354453125,81.1323493855695L52.44815625,78.3337662325551L52.4857265625,79.10416466370225L52.5608671875,82.21145835705101L52.636007812500004,79.60319064495464L52.748718749999995,80.18178972167273L52.748718749999995,80.00353637772302L53.1995625,81.18112774255376L53.274703124999995,82.11696133141716L53.875828125,77.05958623066545L54.026109375,73.8366815422972L54.1388203125,72.82197441719472L54.4018125,72.81279535219073L54.476953125,75.55649490406115L54.589664062500006,70.10815805693467L54.627234375,71.64025635955234L54.739945312500005,76.42967907773952L54.777515625,77.29097781081994L55.0405078125,64.71171578516562L55.078078125,74.28574203575651L55.265929687500005,71.63432777176301L55.3035,67.64294667355716L55.4913515625,68.13899069527785L55.5664921875,71.32678316347301L55.641632812500006,70.13865601271391L55.791914062500005,70.44831343119343L55.829484375,64.76392834198971L55.942195312500004,71.06019456808765L55.942195312500004,70.89767777360976L56.05490625,68.01919647740822L56.393039062499994,67.83276747663815L56.430609375,65.48223434264462L56.6184609375,71.41092105954885L57.182015625,61.66104399164517L57.4074375,63.48813723400235L57.5201484375,60.76573537414272L57.595289062499994,59.827824306363866L57.632859375,61.283939170961574L57.708,57.616920367504164L57.820710937499996,57.68997837603092L57.8958515625,61.963154649982854L58.083703125,60.28903169184923L58.1964140625,58.160018580034375L58.309125,61.43397695943713L58.496976562499995,61.50950815714896L59.285953125000006,51.842786775901914L59.36109375,54.69063585748275L59.36109375,54.518473625183105L59.398664062499996,50.0445450519522L59.736796875,47.055335542807995L59.962218750000005,51.34754830723007L60.2252109375,53.1648477204144L60.713625,47.5903782248497L60.939046875,47.11045233036083L61.1268984375,40.56539033850032L61.2020390625,44.72220659442246L61.23960937499999,36.17402388652164L61.615312499999995,39.60233046983677L61.7280234375,41.68691803763312L61.8783046875,51.39434811286628L61.991015624999996,50.33225468297799L62.291578124999994,44.819304001828016L62.3291484375,45.262598431358754L62.554570312500005,45.381290313477336L62.592140625,37.22664146870375L62.667281249999995,34.40163758893806L62.667281249999995,34.21217716485262L63.568968749999996,36.95401122545201L63.644109375,33.0770822564761L63.6816796875,41.93685147042078L63.719249999999995,30.4394613218804L64.1325234375,36.321680347124754L64.35794531250001,27.850823665658652L64.395515625,31.219646515945612L64.545796875,33.481215501825034L64.6209375,27.141626067459583L65.07178125,23.83077477167052L65.10935156250001,24.55334172397852L65.297203125,23.20993362367153L65.447484375,35.791993886232376L65.522625,30.749231800436974L65.5601953125,23.895388605693995L66.1613203125,32.98939003422856L66.2364609375,15.201436127225577L66.724875,22.418569614489854L67.0254375,25.48184760659933L67.0254375,25.323860281457485L67.32600000000001,24.067211657762527L67.401140625,18.434968462834775L67.70170312500001,21.512124579399824L67.70170312500001,21.409861739724874L68.1149765625,12.455037266016006L68.2276875,17.395805029819428L68.302828125,12.345538581411063L68.37796875000001,21.920327987521887L68.453109375,16.490801510711492L68.52825,17.260260129968344L68.75367187500001,21.302002426236868L68.903953125,19.16063043475151L69.0166640625,12.045788052181422L69.1669453125,20.56367772569257L69.3172265625,19.849378291517496L69.3923671875,14.255095017453016L69.42993750000001,37.03410015751916L69.4675078125,15.809077511231123L69.5426484375,16.972183053692163L69.655359375,9.31975413734716L69.8432109375,24.78285368035239L70.0310625,28.97266228000325L70.10620312500001,10.859816109140695L70.1437734375,12.196412339806557L70.18134375000001,21.935322580238164L70.2940546875,24.046860843896866L70.331625,24.547999635338783L70.3691953125,22.06887479623157L70.7448984375,26.39704066514969L70.8951796875,14.342448059469461L71.007890625,18.91170041014749L71.158171875,21.287488338847936L71.158171875,21.69351534048718L71.3460234375,26.623061891645193L71.45873437499999,32.86522180462879L71.8720078125,39.71342612802982L71.9471484375,34.0261650731166L72.13499999999999,32.61240533987683L72.210140625,30.25319484497112L72.360421875,48.11046164544922L72.6234140625,41.37143802518648L72.660984375,49.19858715807396L72.7736953125,44.397816034654795L72.811265625,68.69738028322656L73.44996093750001,58.20900892466307L73.56267187499999,66.07008314691484L73.9008046875,81.84828112460673L74.08865625,74.64713857198755L74.12622656250001,69.46973606695731L74.163796875,87.60371033971508L74.50192968750001,89.68125991771618L74.764921875,82.4031305188934L74.80249218750001,77.37093248404562L75.140625,66.61203662616511L75.21576562499999,72.89682725444436L75.366046875,77.82681191340089L75.7041796875,85.08190532152851L75.816890625,83.43623110527794L76.26773437499999,91.79578014090657L76.49315625,82.05964693861704L76.56829687499999,84.13763462441663L76.56829687499999,84.3646663253506L76.60586718750001,74.79740954687198L76.6434375,85.97002049162984L76.718578125,70.35645211860538L76.79371875,82.30537594979008L76.944,98.2540685236454L77.2069921875,89.20697289456925L77.8456875,92.94565765435496L77.920828125,86.31732691576083L78.07110937499999,95.59738283356032L78.221390625,90.8246930067738L78.44681250000001,89.4087498007963L78.6346640625,98.3234308809042L78.67223437499999,92.24694637830058L78.70980468750001,96.27838607504964L78.822515625,87.73945309470098L78.8600859375,100.51278274257979L79.01036718750001,91.05282704345882L79.0855078125,98.08223840532204L79.46121093750001,94.5176520316551L79.573921875,100.9959520480285L79.573921875,101.2768215443939L79.6114921875,98.16239093368253L79.6866328125,97.69990455607572L79.76177343750001,104.27534437738359L79.76177343750001,104.5430282422652L79.91205468749999,105.49059888037542L79.949625,99.93076359853148L80.0623359375,105.24945586857697L80.40046875,111.49992923034975L80.5883203125,112.80523255156973L80.70103125,98.42128437757492L80.8137421875,106.09075003427765L80.8888828125,110.08634968660772L81.1143046875,117.6397909723843L81.151875,114.94799306212613L81.60271875000001,124.73143130727112L81.79057031250001,111.10504217942557L82.429265625,121.7903924571971L82.4668359375,122.81891764358929L82.50440625,124.88649320291975L82.76739843749999,123.72807612052807L83.330953125,123.9173634213706L83.481234375,125.8890675685058L83.5939453125,123.11962565034628L83.631515625,131.7369869928807L83.6690859375,126.07325656649968L83.781796875,130.56237052132687L84.232640625,134.21277655971545L84.2702109375,135.21660518553108L84.45806250000001,126.88282324808338L84.4956328125,136.31766194446635L84.5707734375,130.84779775204757L84.833765625,143.5737587607776L84.94647656250001,135.8354236180894L85.134328125,133.06958725644895L85.3973203125,137.00394721142948L85.4724609375,138.2066785443264L85.51003125,131.1059739710763L85.99844531250001,127.61996788407365L86.22386718749999,141.76728131684166L86.41171874999999,137.47999903171632L86.5244296875,138.22151414630935L86.8249921875,132.36420896897712L86.937703125,141.8511294964701L86.9752734375,135.00739104611176L87.238265625,136.39070582048345L87.35097656250001,135.0598615212366L87.4261171875,135.75552017521113L87.8769609375,138.6279986879478L87.989671875,126.69044092763215L88.10238281250001,131.07215487553427L88.3278046875,137.68157984937233L88.4780859375,120.6478779812654L88.741078125,131.06604963137457L88.9665,130.0077684459587L89.041640625,136.80903517175466L89.30463281249999,133.42475488906103L89.30463281249999,133.362296262756L89.342203125,137.67713870822143L89.94332812500001,129.954474752148L89.9808984375,125.5301795527339L89.9808984375,125.4837189273288L90.31903125,134.21414917971316L90.61959374999999,138.4833595181505L90.69473437500001,128.20976697467268L91.52128125,127.25211279094219L91.6715625,132.92783818487078L91.8594140625,135.1754442512368L91.97212499999999,127.74230595367649L92.04726562500001,139.31951475003734L92.347828125,128.29485174889365L92.3853984375,133.37535470165312L92.42296875,134.09611445929232L93.28708593750001,132.9663881380111L93.4373671875,127.21027349618575L93.8882109375,134.09455458354205L94.0384921875,131.03601098215827L94.1136328125,127.7453303107371L94.1887734375,124.22958235722035L94.22634375,131.3029175590103L94.4141953125,125.18927868859222L94.4893359375,130.84042058202127L94.63961718750001,121.711006617484L94.6771875,126.68475965876132L95.12803125,131.20255200875303L95.203171875,135.80433209690574L95.2407421875,126.54941614717245L95.7667265625,127.82997344403216L96.2175703125,123.33066994976252L96.4805625,120.9389723483473L96.63084375,127.61555147481462L96.74355468750001,127.64695391121009L96.8186953125,126.59435752779245L96.93140625000001,131.24302751633027L97.23196875000001,123.01653605885804L97.5701015625,128.06700036240122L97.607671875,130.9586955551058L97.7203828125,132.15705110970885L97.79552343750001,130.04174299910665L98.24636718750001,126.96162612177432L98.28393750000001,124.61750208089748L98.43421875,132.4845119571934L98.4717890625,129.94020091742277L98.509359375,128.6728539839387L98.54692968750001,129.36472159220526L98.54692968750001,129.3230236225451L99.03534375000001,133.01912359769145L99.185625,132.1756848236546L99.63646875,118.03279133327305L99.78675000000001,125.4687773315236L100.04974218749999,124.96474137560776L100.08731250000001,128.0319694041585L100.38787500000001,125.5336985476315L100.9514296875,126.7113181774815L100.989,127.4553206137692L101.1768515625,127.21633634281656L101.4774140625,124.60674724106988L101.590125,131.0892693446949L102.0033984375,121.55726964461306L102.04096875,127.75026962285241L102.15367968749999,122.56013019351909L102.34153125,125.45686009277901L102.3791015625,124.10295507094511L102.5293828125,124.139922183007L102.64209375,126.23634219449013L102.7548046875,125.80451982965073L102.867515625,125.82077928197882L102.94265625000001,125.43554120200375L103.24321875000001,122.39245856615403L103.468640625,119.77161292048791L103.54378125,122.66175353713334L103.65649218749999,127.53158670198172L103.95705468749999,124.03465265190849L103.994625,122.92775563336909L104.1073359375,118.50584529495487L104.1824765625,124.75117442322275L104.48303906250001,119.586130797863L104.821171875,128.37118496652693L105.19687499999999,122.49865377663323L105.53500781250001,121.358139050814L105.572578125,126.34997110503414L105.6101484375,122.74890165776014L105.64771875,125.57152067652592L105.722859375,121.59511297227195L106.023421875,121.57439824628332L106.24884374999999,125.73698763238886L106.5118359375,125.35354791426411L107.075390625,125.50782545562834L107.1129609375,125.3831943863382L107.5638046875,127.20625986345112L107.63894531250001,124.89679933556667L107.67651562500001,125.2032380749782L107.7892265625,130.09485297029218L107.826796875,127.6930117600908L107.8643671875,128.4539696748058L108.05221875,124.64677050833902L108.1649296875,124.15136244955161L108.42792187500001,129.2424789170424L108.578203125,124.59496426116675L108.803625,132.2137330727031L108.84119531249999,131.22473298261562L108.9163359375,126.5207695501546L109.14175781249999,126.94522887747735L109.2168984375,132.20576233727238L109.2920390625,131.40357989196977L109.329609375,130.89761131536216L109.5174609375,128.4716565106064L109.5926015625,128.78522863425314L110.15615625,134.64795186246437L110.23129687500001,128.78050484290966L110.381578125,131.96672506940862L111.208125,133.7665319687997L111.35840625,133.62747160717845L111.4711171875,133.9662066642195L111.54625781249999,129.4956486945351L111.7716796875,133.34751719081154L111.88439062500001,134.97817384901765L111.99710156249999,133.50517240197706L112.410375,132.88942249057195L112.5982265625,131.90363048017025L112.7109375,134.01335624946904L112.86121875,135.6734367927226L112.8987890625,133.62814290138584L113.12421093750001,135.12459018190083L113.3120625,131.75122196320444L113.387203125,134.51839738013223L113.5750546875,136.17767413690063L114.439171875,139.45864400764304L114.5518828125,131.14194474120936L114.5518828125,131.15724671601006L114.739734375,136.87087550076347L116.1298359375,134.2687766291201L116.3176875,133.38682676634443L116.3552578125,136.10807329354185L116.392828125,135.20190560895327L116.4303984375,134.1208975814904L116.46796875,136.7681621873441L116.5055390625,133.989353948428L116.9563828125,133.83177823262912L117.06909375000001,136.4920217820133L117.1066640625,136.0740775416295L117.2569453125,136.83438182777417L117.48236718749999,135.48321851280826L117.6326484375,138.53172979891923L117.7077890625,140.53045883759233L117.7077890625,140.59832668195787L118.0083515625,137.93443871165317L118.3089140625,136.851602290757L118.421625,139.39160998134565L118.496765625,139.02109444327652L118.647046875,138.6107729252738L118.6846171875,139.63355854619294L118.87246875000001,135.79594975213212L118.947609375,140.3731887373142L119.0603203125,138.54693461271626L119.1354609375,137.65273716378334L119.62387500000001,137.49920511230204L119.8117265625,143.84775985746336L120.07471875,139.76169624443475L120.22500000000001,139.04743744122487L120.33771093749999,144.85228097625077L120.41285156250001,139.90027433416498L120.41285156250001,139.96895479783416L120.7885546875,145.91623636428267L120.826125,139.01121935217333L120.93883593749999,137.25644569471478L121.502390625,145.27560086998466L121.6151015625,140.84428711297613L121.9156640625,140.23957822471857L121.953234375,141.26542530053604L122.253796875,145.50161326366168L122.2913671875,144.76699481376755L122.6295,138.66241488202166L122.6670703125,142.88770668022335L122.704640625,142.11978673795238L122.8924921875,140.44635803935427L123.08034375,144.94383490675438L123.56875781250001,144.79175850376487L123.606328125,145.80260038748384L123.83175,149.84198432120806L123.86932031250001,143.85336869722232L123.906890625,147.76501417610174L123.9444609375,144.60671802206588L124.1698828125,145.51626514301944L124.508015625,146.5092612002045L124.88371875,143.7583982325159L125.03399999999999,147.01378296113884L125.18428125,145.53495538700372L125.259421875,143.38121921615675L125.37213281250001,144.43411061571288L125.40970312500001,146.35699047520757L125.40970312500001,146.35405444633216L125.5975546875,146.2796785812825L126.08596874999999,145.57008173968643L126.1986796875,145.4885000612897L126.4992421875,146.19794321184358L126.68709375,147.336793834654L126.762234375,144.23064840771258L126.7998046875,146.00702713926634L126.9500859375,143.90266819049913L127.062796875,149.40772763158506L127.1003671875,146.9135746350512L127.28821875,146.43426350473115L127.363359375,146.2602905446353L127.4760703125,145.69795621993643L127.51364062500001,146.8941848318403L127.62635156249999,145.3912807609886L127.7390625,147.5626136728873L127.7766328125,143.51843351870775L127.814203125,145.34343868276727L128.49046875,147.46968358925855L128.71589062500001,150.7662080534113L129.0540234375,145.35357169217122L129.09159375,146.20349375500032L129.46729687500002,147.0201584895452L129.5048671875,147.03204569670683L129.8805703125,145.16726988398779L130.3314140625,146.76138693854833L130.368984375,146.09797337185591L130.6319765625,146.24585948574045L130.7822578125,146.65691942737126L130.93253906249998,144.8377386238426L131.0076796875,147.32232214479396L131.04525,146.4072774775947L131.04525,146.3862271045024L131.871796875,147.8900391890978L131.9845078125,145.8879713450248L132.05964843750002,145.74647665861994L132.17235937499998,144.02350998064503L132.4353515625,144.47422574429464L132.472921875,147.69746431320286L132.472921875,147.65726968925446L132.623203125,144.3469130313024L132.9613359375,146.12216999490434L133.374609375,147.1173742567189L133.4873203125,144.55353208864108L133.8630234375,143.25620480254292L133.90059375,143.52550683977705L134.0133046875,145.55099931855995L134.50171875,143.24740554873523L134.576859375,145.7348756347783L134.8398515625,146.49269789891937L134.91499218750002,142.3835788629949L135.253125,144.7579747394969L135.40340625000002,144.6360429795459L135.8166796875,141.36164472578093L135.8918203125,145.1343482028072L135.9669609375,144.09842288106057L136.00453125,145.70690209853154L136.4929453125,146.1942422608845L136.90621875,143.7004690755469L137.1692109375,144.22891364215565L137.46977343749998,144.361268127958L137.657625,146.4258864596486L137.9581875,146.8615970311997L138.22117968749998,146.06183654473475L138.25875,146.62012013886124L138.634453125,145.33088018139824L139.085296875,147.03104405508688L139.1228671875,147.1634374052907L139.385859375,146.7887245118618L139.7239921875,146.99659076317525L139.7991328125,147.74151711227992L139.8742734375,148.53931671303386L140.588109375,146.83627510707205L140.7008203125,148.19191842759028L140.7759609375,149.55735557728136L140.888671875,147.9351766582889L141.0013828125,148.73811077644737L141.11409375,149.8419083589688L141.1516640625,147.6354119965496L141.189234375,148.1213389079397L141.640078125,148.0286384775924L141.790359375,149.66650713211857L142.1284921875,148.58254452686137L142.20363281250002,151.37230899386728L142.241203125,147.01409917604178L142.466625,151.22843651271737L142.5041953125,148.16173138702288L142.61690625,150.9782725433664L142.842328125,149.2862180803592L142.9550390625,150.40579372659946L143.142890625,152.47940475082336L143.3307421875,150.46432969820066L143.8567265625,152.5112700269092L143.894296875,152.5868710038873L143.9694375,150.0891901796373L144.2324296875,150.9120679187278L145.02140624999998,149.93370872510908L145.05897656250002,151.89819557623318L145.397109375,148.4499118072757L145.7352421875,150.36437487400448L146.073375,150.62386276658313L146.11094531249998,150.86929941146323L146.22365625,150.28326663468033L146.298796875,152.8178651072085L146.63692968750001,150.1726179171043L146.6745,150.5447357284526L146.9750625,151.1294948128052L147.050203125,150.22414946362065L147.1629140625,148.83055593833947L147.6888984375,151.41058336306983L147.72646875,150.11532207322307L147.8391796875,151.21818779339083L148.1773125,151.94356004886018L148.2148828125,151.09616858853647L148.36516406249999,150.88829173784083L148.5154453125,149.12328261028355L148.703296875,150.2273690259705L148.74086718750002,150.27067810172835L148.92871875,149.97070851859948L149.00385937500002,147.95304721671468L149.00385937500002,147.9107079844301L149.3795625,149.8147235934157L149.454703125,148.80672941038696L149.49227343750002,150.40525139154246L149.5674140625,147.96206375785792L149.75526562500002,149.20477154408582L150.0933984375,147.01906322004893L150.4691015625,147.9101250184079L150.54424218749998,147.32608492548266L150.73209375,147.73502675723284L150.8448046875,149.64069321999946L150.8448046875,149.6130385485012L150.9199453125,147.80572110352418L150.9950859375,147.2034324075406L151.408359375,147.91752868688977L151.7464921875,145.9678359235016L151.8216328125,146.85537696039924L151.8967734375,148.90228460767926L152.19733593750001,146.46258858715495L152.23490625,146.2856354340911L152.4227578125,146.46421029263487L152.53546874999998,146.32051976754641L152.5730390625,145.4233686241011L152.68575,146.73717618299028L152.72332031250002,145.72096217904863L152.760890625,146.54228180895248L152.9863125,145.71600696785998L153.0238828125,145.3882122398354L153.06145312499999,145.92001681060842L153.512296875,147.98938543209806L153.66257812499998,145.86095351974168L153.73771875,145.18903394881636L154.03828124999998,144.6865419695775L154.22613281250003,146.0531256191122L154.22613281250003,146.01602778133625L154.263703125,144.179160142007L154.3764140625,144.33627478467923L154.63940624999998,144.21536939824L154.71454687500002,143.95044667242718L154.864828125,143.74873689562082L154.9775390625,144.22143754456192L155.2029609375,143.78855524150032L155.691375,145.51292810418335L156.14221874999998,143.37789277670282L156.217359375,142.5562074681123L156.217359375,142.5154139790684L156.367640625,141.90713663212955L156.668203125,142.35179484883946L156.89362500000001,143.11092260355753L157.0814765625,143.96558965649456L157.23175781249998,142.0209792968817L157.34446874999998,141.65914818597957L157.7953125,140.85587577087182L159.8616796875,140.76156776755425L160.01196093750002,140.4139822263581L160.50037500000002,143.94848578671616L160.9136484375,141.36707514260587L161.0639296875,141.3664621450007L161.3644921875,141.40850989427418L161.4020625,141.11605174001306L161.55234375,140.07699783394736L161.92804687499998,140.69580036743235L162.30375,142.46079536247998L162.3413203125,141.5358738376138L162.378890625,141.44761454841745L162.679453125,141.3638211322638L163.43085937499998,141.79341939340037L164.332546875,141.8165490119718L164.55796875,141.54425264926005L164.5955390625,144.07205338465673L164.70825000000002,143.82402784066898L165.083953125,141.27875402367982L165.4220859375,141.38444223037612L165.53479687499998,142.92469499104965L165.9105,140.6932494494443L166.0983515625,142.03961124426377L167.4508828125,142.8414368436982L167.78901562500002,142.4091834373151L167.86415625,140.8892744242524L168.0144375,141.60575379803777L168.23985937499998,141.9705209378153L168.3525703125,142.2289586082722L168.6155625,141.17935831689584L168.91612500000002,142.06729859719053L169.0288359375,144.7842188098778L169.32939843749998,141.42471281656373L169.4796796875,141.82990070044372L169.6299609375,142.05485315589857L170.49407812500002,143.29347753012553L170.644359375,141.34568028959137L170.90735156250003,141.62092151399702L171.0576328125,142.50145812580985L171.47090625,142.33164189010859L171.92174999999997,140.6435560124616L172.522875,141.45011953574914L173.4621328125,141.0578575984885L174.02568749999998,141.62430625005317L174.55167187499998,142.05893215149018L174.852234375,141.72806006949395L175.152796875,141.6963714497785L175.37821875,141.12618121628958L175.41578906249998,141.77073848200962L176.054484375,141.76316875653964L176.3926171875,142.94888278127956L176.9186015625,141.5665890807286L177.03131249999998,141.85761278526235L177.857859375,141.26044712401927L178.4965546875,142.50786721892655L178.9473984375,139.64831465280923L179.060109375,141.7144433964665L179.28553125000002,143.48101239977404L179.961796875,144.53508739701164L180.0369375,140.921766830453L180.71320312499998,140.35875591185567L180.863484375,141.99544715167332L180.9761953125,141.43237616991001L181.6524609375,141.55122350963455L181.8027421875,141.3500472350667L182.065734375,141.952242303174L182.5541484375,143.03479784044129L182.7795703125,141.39086898912984L183.30555468749998,140.8131690933369L183.7563984375,142.58485229856643L184.31995312499998,142.25697984173894L184.620515625,141.49790155080456L184.6580859375,142.04328039707616L185.48463281250002,143.35165223944932L185.6349140625,141.34429883677512L186.1608984375,142.46008520387113L186.6117421875,142.27418263908476L186.6493125,141.86945229520398L186.91230468749998,141.34049189199385L187.4382890625,140.76785143464804L187.6637109375,141.86537153304863L187.926703125,142.03627243886393L188.00184374999998,141.92804038043442L188.3399765625,142.63319254775223L188.4151171875,141.44062425584224L188.4526875,141.647677887852L189.16652343750002,142.49318884111318L189.27923437500002,140.4625008984779L189.61736718749998,142.89313356392086L190.10578124999998,143.09572838914272L190.63176562499999,142.56349630995345L191.00746875,142.79682934361819L191.60859374999998,141.35339310672134L192.0218671875,141.5491177656998L192.69813281249998,142.50385005306453L193.0738359375,141.55428673109662L193.11140625,141.4147741291672L193.33682812499998,142.38226453959942L193.5998203125,141.97865419710678L193.7501015625,141.82922057341784L193.787671875,141.16207425761968L193.82524218749998,141.5784780544539L194.6517890625,142.63330737439293L194.689359375,141.3888445071255L194.839640625,141.32148896623403L194.91478124999998,141.39860653815168L195.2529140625,141.86610465698567L195.40319531249997,141.71488680395606L196.49273437500003,141.56466882598278L196.5303046875,141.21937628447387L196.8684375,141.39214444812387L196.98114843750002,142.06281505851075L197.244140625,141.04557821418467L197.61984375,141.85351612403366L197.6574140625,141.75054842544097L197.694984375,141.70983443176374L197.7325546875,141.7672742505868L197.92040624999998,142.14499913513038L198.145828125,141.5360204624012L198.296109375,142.39262896884856L198.37125,142.61644729040563L198.972375,140.65251779013005L199.197796875,142.62331922321272L199.2353671875,141.8884622872186L199.5359296875,142.42632970462245L200.249765625,141.17771541265148L200.8884609375,140.5323331616819L201.8652890625,141.91940365048748L202.72940624999998,140.6663128860916L203.21782031249998,142.08435653631267L203.33053125,141.4824653171624L204.4952109375,141.85784420510754L204.53278125,140.03851854335517L205.13390625,141.53691257707152L205.1714765625,141.77115362447995L205.5471796875,141.77202984007698L205.659890625,141.98899919415516L205.73503125,140.83022879902273L206.1483046875,141.83205060847104L206.37372656250002,140.79501765128225L206.48643750000002,142.23797514941543L206.63671875,141.27912676862132L207.31298437499998,141.93186145772535L207.3505546875,141.27248802222311L207.5008359375,140.30581376422197L207.613546875,144.3584027616307L207.6886875,140.8417856587718L208.214671875,142.00364400725812L208.364953125,142.57504257032025L208.7782265625,141.77788776531816L208.89093749999998,141.70769865624607L209.64234375,142.5903109804106L209.94290625,142.21971594697487L210.318609375,141.72574233791482L210.3561796875,141.8830460029033L210.769453125,140.60135987183702L211.6335703125,141.74702236428857L211.821421875,141.1073107828076L212.4601171875,143.902245981774L214.11321093749999,141.88847818629193L214.15078125,141.80139189539477L214.3010625,144.0435693114996L214.45134375,139.9995976118371L215.127609375,141.4283166065191L215.35303125000002,144.32326050987467L215.3906015625,141.74275434638065L216.96855468750002,141.04115473867085L217.2691171875,141.02431055375683L217.5696796875,140.86857029764604L217.60725,143.43412426595268L218.2459453125,143.06571270525455L218.734359375,142.2138120910774L218.88464062499997,142.1867147704276L219.29791406249998,142.151832203536L219.7487578125,140.50262309331447L219.86146875,144.61951147640747L219.93660937500002,141.7207517954521L220.086890625,142.93386698979884L220.38745312499998,140.8619085859197L222.64167187500001,140.70725123335916L222.86709375,141.22839105905342L222.9046640625,142.31212136118364L222.97980468749998,141.77149280471104L223.543359375,141.814581060006L223.8063515625,142.38522176723927L224.67046875000003,141.6743053025566L224.82075,142.67359915934503L225.2340234375,142.6877069370821L225.346734375,141.8099084990099L225.9854296875,140.90508163627237L226.21085156249998,140.96035034830373L226.69926562499998,140.59396150304627L227.450671875,142.3102982674415L227.78880468749998,141.86202919452143L228.3899296875,142.96525529368472L228.46507031250002,140.1342715957823L228.80320312499998,139.61985001185286L229.1413359375,142.07034768614295L229.44189843750002,140.9181754064436L230.1933046875,141.95770275158185L230.26844531249998,141.96661859859404L230.38115624999998,141.02797794000554L230.45629687500002,139.9915774126227L230.68171875,140.9517577824493L231.1325625,141.80850938055664L231.1701328125,140.65944448641193L231.43312500000002,141.8190875640139L231.54583593750002,141.15365304844454L231.7336875,141.40031303868938L231.9966796875,142.1341047367702L232.0718203125,141.47092082335922L233.98790624999998,142.883786675365L234.4011796875,141.04239133326337L234.513890625,141.65238401355845L234.7017421875,142.64218259043992L235.3028671875,142.09598052548245L235.4531484375,142.24809932600084L235.49071874999998,141.57296990882605L235.56585937499997,142.38083715612692L235.9415625,142.48490542390692L236.09184374999998,140.9259995170869L236.24212500000002,141.3544954424724L236.58025781249998,142.43673476483673L236.617828125,140.93750161336112L236.8056796875,142.74612366563332L236.9559609375,142.99695097965497L236.99353125,142.1320961538392L237.5570859375,141.7499636928551L238.72176562500002,141.4817887232639L239.17260937499998,141.50115202801925L239.4356015625,143.2365994785602L239.623453125,141.2977710819493L240.1494375,140.3667566788693L240.4875703125,141.93599698335555L241.051125,141.97591778992984L241.4643984375,142.28484208447236L241.727390625,141.11289665723842L241.76496093749998,141.95430034988868L241.87767187499998,140.49745766104508L242.10309375,141.799554669143L243.53076562500002,140.9071909133345L243.6434765625,141.24842565801617L243.7186171875,141.15118515895057L243.831328125,141.12833995713544L243.86889843749998,142.979946037444L244.0191796875,141.84954135570052L245.2214296875,142.3401955915615L245.7474140625,144.13299629930407L246.7618125,141.02414802989614L246.98723437499999,141.5601799876119L247.13751562500002,141.3098508445546L247.81378125,144.01227993518114L248.0016328125,142.86567939740297L248.56518749999998,140.46063894033432L248.6778984375,141.51630561146885L248.790609375,144.97136150238413L249.57958593749998,142.8973097205162L249.992859375,140.9733310583979L250.4812734375,142.11564414606738L250.51884375,141.49683631289128L250.894546875,140.9498357611398L251.0072578125,141.85953657313559L251.15753906249998,141.2334575637554L251.796234375,141.3204502267763L251.871375,142.7546809002136L251.9840859375,143.03162155890215L252.77306249999998,141.04859903811786L252.84820312500003,143.33569310295087L253.0360546875,141.71033613585558L253.44932812500002,142.94044920615852L253.74989062499998,140.96962480774772L253.900171875,140.84764535057667L254.53886718750002,142.2944327588193L254.76428906249998,143.52010115484399L255.1399921875,142.1089365036848L255.2151328125,141.89419478643686L255.44055468750003,141.92920984560624L255.62840625,141.6925132746498L255.8162578125,142.06155903171748L255.92896875000002,142.2356591844L256.4925234375,142.11274521502975L256.53009375,141.13941454499337L257.5444921875,142.85080316445482L257.8450546875,141.3201534440741L258.2207578125,141.6099264215057L258.63403125,141.5588373991971L259.42300781250003,141.29806963121518L259.64842968749997,142.44558171586442L260.061703125,141.14436975618202L260.0992734375,140.98728691165644L261.3015234375,141.61633551462245L261.33909375,143.13980592011166L261.564515625,141.45560294948518L263.518171875,141.83728317016113L263.5933125,141.00008036599803L263.85630468749997,140.47536148224026L263.969015625,142.09505837922916L264.2320078125,142.88053796471405L265.24640625,142.75693150237203L266.0353828125,143.4878401684885L266.4110859375,142.76572898961604L267.0122109375,141.66122389833134L267.0873515625,141.5453832500304L267.1624921875,141.2931462181732L267.35034375,141.77821987929445L268.55259374999997,142.6974089049424L268.74044531249996,141.95359372440726L269.15371875,140.4661859503637L269.1912890625,142.43005008778226L269.228859375,141.05564232760418L269.3415703125,141.19319757695L269.9426953125,141.9016002214824L270.95709375,141.17227086331695L271.0698046875,141.14389808367315L271.8212109375,140.4856499492501L272.0466328125,141.58323717707145L272.084203125,141.1716490328933L273.06103125,142.04300834626582L273.3240234375,144.45420351127785L273.3991640625,141.8488523958561L273.587015625,140.96897647886846L274.8268359375,141.85018615145236L274.93954687499996,141.97249418947223L275.6533828125,141.59529220778495L275.690953125,140.7667614648429L276.02908593750004,142.81767302875716L276.292078125,141.9347056252882L276.4047890625,141.754565591303L276.66778125,141.14963588258252L276.7804921875,141.64277214044705L277.494328125,141.26012207629782L277.6070390625,141.38042859764147L277.9827421875,141.78162228098762" style="fill: none;" fill="none"></path></g></g></g></g></g></g><g transform="translate(29, 177)" clip-path="url(#clip_1)"><clipPath id="clip_1"><rect width="300" height="22"></rect></clipPath><g><g><line x1="0" y1="0" x2="0" y2="5" style="visibility: inherit;" fill="rgb(0, 0, 0)" stroke="rgb(204, 204, 204)" stroke-width="1px"></line><line x1="37.5703125" y1="0" x2="37.5703125" y2="5" style="visibility: inherit;" fill="rgb(0, 0, 0)" stroke="rgb(204, 204, 204)" stroke-width="1px"></line><line x1="75.140625" y1="0" x2="75.140625" y2="5" style="visibility: inherit;" fill="rgb(0, 0, 0)" stroke="rgb(204, 204, 204)" stroke-width="1px"></line><line x1="112.7109375" y1="0" x2="112.7109375" y2="5" style="visibility: inherit;" fill="rgb(0, 0, 0)" stroke="rgb(204, 204, 204)" stroke-width="1px"></line><line x1="150.28125" y1="0" x2="150.28125" y2="5" style="visibility: inherit;" fill="rgb(0, 0, 0)" stroke="rgb(204, 204, 204)" stroke-width="1px"></line><line x1="187.8515625" y1="0" x2="187.8515625" y2="5" style="visibility: inherit;" fill="rgb(0, 0, 0)" stroke="rgb(204, 204, 204)" stroke-width="1px"></line><line x1="225.421875" y1="0" x2="225.421875" y2="5" style="visibility: inherit;" fill="rgb(0, 0, 0)" stroke="rgb(204, 204, 204)" stroke-width="1px"></line><line x1="262.9921875" y1="0" x2="262.9921875" y2="5" style="visibility: inherit;" fill="rgb(0, 0, 0)" stroke="rgb(204, 204, 204)" stroke-width="1px"></line><line x1="300.5625" y1="0" x2="300.5625" y2="5" style="visibility: inherit;" fill="rgb(0, 0, 0)" stroke="rgb(204, 204, 204)" stroke-width="1px"></line></g><g transform="translate(0, 8)"><text x="0" y="0" dx="0em" dy="0.95em" style="text-anchor: middle; visibility: hidden; font-family: &quot;Helvetica Neue&quot;, sans-serif; font-size: 12px; font-weight: 200;" fill="rgb(50, 49, 63)" stroke="none" stroke-width="1px">-1k</text><text x="37.5703125" y="0" dx="0em" dy="0.95em" style="text-anchor: middle; visibility: inherit; font-family: &quot;Helvetica Neue&quot;, sans-serif; font-size: 12px; font-weight: 200;" fill="rgb(50, 49, 63)" stroke="none" stroke-width="1px">0</text><text x="75.140625" y="0" dx="0em" dy="0.95em" style="text-anchor: middle; visibility: inherit; font-family: &quot;Helvetica Neue&quot;, sans-serif; font-size: 12px; font-weight: 200;" fill="rgb(50, 49, 63)" stroke="none" stroke-width="1px">1k</text><text x="112.7109375" y="0" dx="0em" dy="0.95em" style="text-anchor: middle; visibility: inherit; font-family: &quot;Helvetica Neue&quot;, sans-serif; font-size: 12px; font-weight: 200;" fill="rgb(50, 49, 63)" stroke="none" stroke-width="1px">2k</text><text x="150.28125" y="0" dx="0em" dy="0.95em" style="text-anchor: middle; visibility: inherit; font-family: &quot;Helvetica Neue&quot;, sans-serif; font-size: 12px; font-weight: 200;" fill="rgb(50, 49, 63)" stroke="none" stroke-width="1px">3k</text><text x="187.8515625" y="0" dx="0em" dy="0.95em" style="text-anchor: middle; visibility: inherit; font-family: &quot;Helvetica Neue&quot;, sans-serif; font-size: 12px; font-weight: 200;" fill="rgb(50, 49, 63)" stroke="none" stroke-width="1px">4k</text><text x="225.421875" y="0" dx="0em" dy="0.95em" style="text-anchor: middle; visibility: inherit; font-family: &quot;Helvetica Neue&quot;, sans-serif; font-size: 12px; font-weight: 200;" fill="rgb(50, 49, 63)" stroke="none" stroke-width="1px">5k</text><text x="262.9921875" y="0" dx="0em" dy="0.95em" style="text-anchor: middle; visibility: inherit; font-family: &quot;Helvetica Neue&quot;, sans-serif; font-size: 12px; font-weight: 200;" fill="rgb(50, 49, 63)" stroke="none" stroke-width="1px">6k</text><text x="300.5625" y="0" dx="0em" dy="0.95em" style="text-anchor: middle; visibility: hidden; font-family: &quot;Helvetica Neue&quot;, sans-serif; font-size: 12px; font-weight: 200;" fill="rgb(50, 49, 63)" stroke="none" stroke-width="1px">7k</text></g><line x1="0" y1="0" x2="300.5625" y2="0" fill="rgb(0, 0, 0)" stroke="rgb(204, 204, 204)" stroke-width="1px"></line></g></g></g></g></svg>