<svg viewBox="0 0 330 200" xmlns="http://www.w3.org/2000/svg"><g><g><g><g><g><line x1="39.15625" y1="177.828125" x2="34.15625" y2="177.828125" style="visibility: inherit;" fill="rgb(0, 0, 0)" stroke="rgb(204, 204, 204)" stroke-width="1px"></line><line x1="39.15625" y1="158.06944444444446" x2="34.15625" y2="158.06944444444446" style="visibility: inherit;" fill="rgb(0, 0, 0)" stroke="rgb(204, 204, 204)" stroke-width="1px"></line><line x1="39.15625" y1="138.31076388888889" x2="34.15625" y2="138.31076388888889" style="visibility: inherit;" fill="rgb(0, 0, 0)" stroke="rgb(204, 204, 204)" stroke-width="1px"></line><line x1="39.15625" y1="118.55208333333334" x2="34.15625" y2="118.55208333333334" style="visibility: inherit;" fill="rgb(0, 0, 0)" stroke="rgb(204, 204, 204)" stroke-width="1px"></line><line x1="39.15625" y1="98.79340277777779" x2="34.15625" y2="98.79340277777779" style="visibility: inherit;" fill="rgb(0, 0, 0)" stroke="rgb(204, 204, 204)" stroke-width="1px"></line><line x1="39.15625" y1="79.03472222222221" x2="34.15625" y2="79.03472222222221" style="visibility: inherit;" fill="rgb(0, 0, 0)" stroke="rgb(204, 204, 204)" stroke-width="1px"></line><line x1="39.15625" y1="59.27604166666667" x2="34.15625" y2="59.27604166666667" style="visibility: inherit;" fill="rgb(0, 0, 0)" stroke="rgb(204, 204, 204)" stroke-width="1px"></line><line x1="39.15625" y1="39.517361111111114" x2="34.15625" y2="39.517361111111114" style="visibility: inherit;" fill="rgb(0, 0, 0)" stroke="rgb(204, 204, 204)" stroke-width="1px"></line><line x1="39.15625" y1="19.75868055555557" x2="34.15625" y2="19.75868055555557" style="visibility: inherit;" fill="rgb(0, 0, 0)" stroke="rgb(204, 204, 204)" stroke-width="1px"></line><line x1="39.15625" y1="0" x2="34.15625" y2="0" style="visibility: inherit;" fill="rgb(0, 0, 0)" stroke="rgb(204, 204, 204)" stroke-width="1px"></line></g><g transform="translate(29.15625, 0)"><text x="0" y="177.828125" dx="0em" dy="0.3em" style="text-anchor: end; visibility: hidden; font-family: &quot;Helvetica Neue&quot;, sans-serif; font-size: 12px; font-weight: 200;" fill="rgb(50, 49, 63)" stroke="none" stroke-width="1px">-80</text><text x="0" y="158.06944444444446" dx="0em" dy="0.3em" style="text-anchor: end; visibility: inherit; font-family: &quot;Helvetica Neue&quot;, sans-serif; font-size: 12px; font-weight: 200;" fill="rgb(50, 49, 63)" stroke="none" stroke-width="1px">-60</text><text x="0" y="138.31076388888889" dx="0em" dy="0.3em" style="text-anchor: end; visibility: hidden; font-family: &quot;Helvetica Neue&quot;, sans-serif; font-size: 12px; font-weight: 200;" fill="rgb(50, 49, 63)" stroke="none" stroke-width="1px">-40</text><text x="0" y="118.55208333333334" dx="0em" dy="0.3em" style="text-anchor: end; visibility: inherit; font-family: &quot;Helvetica Neue&quot;, sans-serif; font-size: 12px; font-weight: 200;" fill="rgb(50, 49, 63)" stroke="none" stroke-width="1px">-20</text><text x="0" y="98.79340277777779" dx="0em" dy="0.3em" style="text-anchor: end; visibility: hidden; font-family: &quot;Helvetica Neue&quot;, sans-serif; font-size: 12px; font-weight: 200;" fill="rgb(50, 49, 63)" stroke="none" stroke-width="1px">0</text><text x="0" y="79.03472222222221" dx="0em" dy="0.3em" style="text-anchor: end; visibility: inherit; font-family: &quot;Helvetica Neue&quot;, sans-serif; font-size: 12px; font-weight: 200;" fill="rgb(50, 49, 63)" stroke="none" stroke-width="1px">20</text><text x="0" y="59.27604166666667" dx="0em" dy="0.3em" style="text-anchor: end; visibility: hidden; font-family: &quot;Helvetica Neue&quot;, sans-serif; font-size: 12px; font-weight: 200;" fill="rgb(50, 49, 63)" stroke="none" stroke-width="1px">40</text><text x="0" y="39.517361111111114" dx="0em" dy="0.3em" style="text-anchor: end; visibility: inherit; font-family: &quot;Helvetica Neue&quot;, sans-serif; font-size: 12px; font-weight: 200;" fill="rgb(50, 49, 63)" stroke="none" stroke-width="1px">60</text><text x="0" y="19.75868055555557" dx="0em" dy="0.3em" style="text-anchor: end; visibility: hidden; font-family: &quot;Helvetica Neue&quot;, sans-serif; font-size: 12px; font-weight: 200;" fill="rgb(50, 49, 63)" stroke="none" stroke-width="1px">80</text><text x="0" y="0" dx="0em" dy="0.3em" style="text-anchor: end; visibility: hidden; font-family: &quot;Helvetica Neue&quot;, sans-serif; font-size: 12px; font-weight: 200;" fill="rgb(50, 49, 63)" stroke="none" stroke-width="1px">100</text></g><line x1="39.15625" y1="0" x2="39.15625" y2="177.828125" fill="rgb(0, 0, 0)" stroke="rgb(204, 204, 204)" stroke-width="1px"></line></g></g><g transform="translate(39, 0)" clip-path="url(#clip_0)"><clipPath id="clip_0"><rect width="290" height="177"></rect></clipPath><g><g><g><line x1="0" y1="0" x2="0" y2="177.828125" fill="rgb(0, 0, 0)" stroke="rgb(60, 60, 60)" stroke-width="1px" opacity="0.25"></line><line x1="22.372596153846157" y1="0" x2="22.372596153846157" y2="177.828125" fill="rgb(0, 0, 0)" stroke="rgb(60, 60, 60)" stroke-width="1px" opacity="0.25"></line><line x1="44.745192307692314" y1="0" x2="44.745192307692314" y2="177.828125" fill="rgb(0, 0, 0)" stroke="rgb(60, 60, 60)" stroke-width="1px" opacity="0.25"></line><line x1="67.11778846153847" y1="0" x2="67.11778846153847" y2="177.828125" fill="rgb(0, 0, 0)" stroke="rgb(60, 60, 60)" stroke-width="1px" opacity="0.25"></line><line x1="89.49038461538463" y1="0" x2="89.49038461538463" y2="177.828125" fill="rgb(0, 0, 0)" stroke="rgb(60, 60, 60)" stroke-width="1px" opacity="0.25"></line><line x1="111.86298076923077" y1="0" x2="111.86298076923077" y2="177.828125" fill="rgb(0, 0, 0)" stroke="rgb(60, 60, 60)" stroke-width="1px" opacity="0.25"></line><line x1="134.23557692307693" y1="0" x2="134.23557692307693" y2="177.828125" fill="rgb(0, 0, 0)" stroke="rgb(60, 60, 60)" stroke-width="1px" opacity="0.25"></line><line x1="156.60817307692307" y1="0" x2="156.60817307692307" y2="177.828125" fill="rgb(0, 0, 0)" stroke="rgb(60, 60, 60)" stroke-width="1px" opacity="0.25"></line><line x1="178.98076923076925" y1="0" x2="178.98076923076925" y2="177.828125" fill="rgb(0, 0, 0)" stroke="rgb(60, 60, 60)" stroke-width="1px" opacity="0.25"></line><line x1="201.3533653846154" y1="0" x2="201.3533653846154" y2="177.828125" fill="rgb(0, 0, 0)" stroke="rgb(60, 60, 60)" stroke-width="1px" opacity="0.25"></line><line x1="223.72596153846155" y1="0" x2="223.72596153846155" y2="177.828125" fill="rgb(0, 0, 0)" stroke="rgb(60, 60, 60)" stroke-width="1px" opacity="0.25"></line><line x1="246.09855769230768" y1="0" x2="246.09855769230768" y2="177.828125" fill="rgb(0, 0, 0)" stroke="rgb(60, 60, 60)" stroke-width="1px" opacity="0.25"></line><line x1="268.47115384615387" y1="0" x2="268.47115384615387" y2="177.828125" fill="rgb(0, 0, 0)" stroke="rgb(60, 60, 60)" stroke-width="1px" opacity="0.25"></line><line x1="290.84375" y1="0" x2="290.84375" y2="177.828125" fill="rgb(0, 0, 0)" stroke="rgb(60, 60, 60)" stroke-width="1px" opacity="0.25"></line></g><g><line x1="0" y1="177.828125" x2="290.84375" y2="177.828125" fill="rgb(0, 0, 0)" stroke="rgb(60, 60, 60)" stroke-width="1px" opacity="0.25"></line><line x1="0" y1="158.06944444444446" x2="290.84375" y2="158.06944444444446" fill="rgb(0, 0, 0)" stroke="rgb(60, 60, 60)" stroke-width="1px" opacity="0.25"></line><line x1="0" y1="138.31076388888889" x2="290.84375" y2="138.31076388888889" fill="rgb(0, 0, 0)" stroke="rgb(60, 60, 60)" stroke-width="1px" opacity="0.25"></line><line x1="0" y1="118.55208333333334" x2="290.84375" y2="118.55208333333334" fill="rgb(0, 0, 0)" stroke="rgb(60, 60, 60)" stroke-width="1px" opacity="0.25"></line><line x1="0" y1="98.79340277777779" x2="290.84375" y2="98.79340277777779" fill="rgb(0, 0, 0)" stroke="rgb(60, 60, 60)" stroke-width="1px" opacity="0.25"></line><line x1="0" y1="79.03472222222221" x2="290.84375" y2="79.03472222222221" fill="rgb(0, 0, 0)" stroke="rgb(60, 60, 60)" stroke-width="1px" opacity="0.25"></line><line x1="0" y1="59.27604166666667" x2="290.84375" y2="59.27604166666667" fill="rgb(0, 0, 0)" stroke="rgb(60, 60, 60)" stroke-width="1px" opacity="0.25"></line><line x1="0" y1="39.517361111111114" x2="290.84375" y2="39.517361111111114" fill="rgb(0, 0, 0)" stroke="rgb(60, 60, 60)" stroke-width="1px" opacity="0.25"></line><line x1="0" y1="19.75868055555557" x2="290.84375" y2="19.75868055555557" fill="rgb(0, 0, 0)" stroke="rgb(60, 60, 60)" stroke-width="1px" opacity="0.25"></line><line x1="0" y1="0" x2="290.84375" y2="0" fill="rgb(0, 0, 0)" stroke="rgb(60, 60, 60)" stroke-width="1px" opacity="0.25"></line></g></g></g><g><g><line x1="0" y1="98.79340277777779" x2="290.84375" y2="98.79340277777779" fill="rgb(0, 0, 0)" stroke="rgb(153, 153, 153)" stroke-width="1.5px"></line></g></g><g><g><line x1="22.372596153846157" y1="0" x2="22.372596153846157" y2="177.828125" fill="rgb(0, 0, 0)" stroke="rgb(153, 153, 153)" stroke-width="1.5px"></line></g></g><g><g><g><g><g><path stroke="rgb(255, 112, 67)" stroke-width="2px" d="M22.462086538461538,98.43440923926731L22.775302884615385,97.42867574253145L22.909538461538464,96.64946855027927L23.267500000000002,95.53156171474744L23.312245192307692,94.62489134045465L23.356990384615383,93.8866740494963L23.62546153846154,93.0143668467604L23.938677884615384,92.14858488241494L24.02816826923077,91.47593281422466L24.47562019230769,90.79635277763205L24.65460096153846,89.71786652357797L24.744091346153848,89.39476046772475L25.19154326923077,89.0764037314254L25.817975961538462,88.92973800454457L25.907466346153846,89.19756995675785L26.086447115384615,89.16802471982597L26.35491826923077,89.38328190959686L26.444408653846153,88.67810496981885L26.489153846153847,88.1536277205984L26.623389423076922,88.4121898372498L27.473548076923077,88.05232186224956L27.607783653846155,87.69847478895083L27.921,89.35410765910959L28.055235576923078,89.86294588581488L28.189471153846153,90.92555673084611L28.32370673076923,93.00613967843229L28.457942307692306,94.21672384636489L28.905394230769232,96.94266406662159L29.26335576923077,98.82605500180885L29.30810096153846,100.32639364614286L29.48708173076923,101.85852339283781L29.755552884615383,103.35477122614923L29.934533653846152,105.08297705846375L30.11351442307692,106.34535737977359L30.47147596153846,106.3788320912469L30.560966346153847,106.58626613527538L31.769086538461536,102.66523761649908L31.81383173076923,100.6169063618964L32.17179326923077,97.94425940979907L32.26128365384616,96.46668404727653L32.30602884615384,94.90826726298727L32.66399038461538,94.45482429127976L32.708735576923075,93.99075611685544L32.75348076923077,93.55728553873305L32.97720673076923,93.12674006411464L33.33516826923077,91.62915543351588L33.379913461538465,90.64451129088833L33.87211057692308,89.0677418175981L34.230072115384615,87.49851673165705L34.36430769230769,85.79327819563078L34.94599519230769,85.89971491184825L35.169721153846154,85.80320838278038L35.30395673076923,86.13019187064329L35.4829375,85.19532103853142L35.4829375,84.64390425367482L35.84089903846154,85.62536096334492L36.24360576923077,87.16178659547757L36.28835096153846,87.56524154762067L36.55682211538461,88.38391412816236L36.69105769230769,88.64601160579002L36.73580288461539,89.31607894495971L36.780548076923075,89.08593827473628L36.82529326923076,89.80080999681525L36.87003846153846,89.74785289214223L37.13850961538461,90.57811140496898L37.36223557692308,91.49005603075976L37.63070673076923,92.26507993994726L37.7649423076923,93.10592388269117L38.3466298076923,94.18096295964307L38.43612019230769,95.01068709487338L38.52561057692308,95.75055898723608L38.52561057692308,96.2283960944437L38.70459134615384,96.50998314401645L38.88357211538462,96.82359611918876L38.973062500000005,96.92674154865537L39.06255288461538,96.9251581981241L39.19678846153847,97.08904657674834L39.28627884615384,97.2878312211638L39.46525961538462,97.54420784335267L39.554750000000006,97.56164845646728L39.59949519230769,97.82420763603798L39.64424038461538,97.62123384650387L39.823221153846156,97.60682772142691L39.912711538461544,98.02508548314445L39.95745673076923,98.28915909271177L40.091692307692306,98.13116676658665L40.13643750000001,98.19490176129008L40.22592788461538,97.96479325202702L40.31541826923077,98.08019977081337L40.44965384615384,98.24399381062395L40.44965384615384,98.28519271434864L40.98659615384616,97.61173352903371L41.07608653846154,97.12972269181158L41.79200961538462,96.26479599918838L41.970990384615384,95.84296198158677L42.10522596153846,95.36518538258005L42.41844230769231,94.6329839544851L42.5079326923077,94.4902635846782L42.64216826923077,94.51606054821436L42.68691346153846,94.39186996017524L42.821149038461535,94.1509511479084L42.865894230769236,93.650835151524L43.17911057692307,93.45155295936307L43.223855769230774,93.50703814157006L43.44758173076924,93.24586541086661L43.492326923076924,93.50750403140786L43.71605288461539,93.60063011849141L43.805543269230775,93.98450059154824L43.89503365384615,94.48569456335258L44.074014423076925,94.73486987225192L44.11875961538461,94.6361822789065L44.252995192307694,94.73361106782401L44.252995192307694,94.81836206377261L44.38723076923077,94.85860649551546L44.7899375,95.49348739119064L44.83468269230769,95.85460836840022L45.05840865384615,95.88646390800419L45.72958653846154,96.69027126170374L45.99805769230769,97.30472099608447L46.132293269230765,97.9101155549177L46.22178365384615,98.37709489786747L46.26652884615385,98.67091017646813L46.35601923076923,98.81747162140115L46.49025480769231,98.54480776552424L46.57974519230769,98.12581872706302L46.803471153846154,97.79303000983741L46.93770673076923,97.80721184665002L47.071942307692304,97.25641034513635L47.29566826923077,96.68804708505127L47.385158653846155,96.11739497352644L48.235317307692306,95.26061370884118L48.324807692307694,95.06330065701249L48.324807692307694,94.8848083930642L48.36955288461538,94.80789498755915L48.77225961538462,94.37146902291393L49.04073076923077,93.68693985361242L49.04073076923077,93.29826869018571L49.174966346153845,93.14996393457338L49.353947115384614,92.703423688324L49.935634615384615,93.00885677525437L50.20410576923077,92.97378084808676L50.427831730769235,92.33151558096263L50.517322115384616,91.68183910803363L50.56206730769231,91.08310800046212L51.00951923076923,90.42217643456617L51.14375480769231,89.85637861945406L51.32273557692308,89.47337029326198L51.456971153846155,89.69471419906229L51.81493269230769,89.1948065789875L51.85967788461539,88.87075533731799L52.12814903846154,88.69502887459342L52.17289423076923,88.88681587973284L52.26238461538461,88.53678832152912L52.26238461538461,88.34287681771309L53.33626923076923,88.6100688908742L53.425759615384614,89.2906413852388L53.47050480769231,89.91499218889693L53.51525,91.09649246691835L54.007447115384615,91.8742253045291L54.27591826923077,92.18122116339175L54.32066346153846,92.25261619022005L54.41015384615385,92.4929706683587L54.49964423076923,92.98344340835995L54.589134615384616,92.85467471058823L55.12607692307692,93.01556210758349L55.17082211538462,93.70550995716026L55.39454807692308,93.82672052657414L55.57352884615385,92.7287568789272L55.66301923076923,92.52311236150688L55.707764423076924,92.28954163394943L56.110471153846156,92.90422784270392L56.4236875,93.07322623261737L56.51317788461539,91.5159291675093L57.09486538461538,92.07402666754935L57.45282692307693,91.86664300825976L57.45282692307693,91.68947443228697L57.810788461538465,92.09881033712335L57.900278846153846,91.36852289598741L58.258240384615384,91.59006295282246L58.258240384615384,91.71969072037764L58.57145673076923,91.58219892147478L58.750437500000004,91.05544802508068L58.88467307692308,90.66217481656327L58.97416346153846,90.10959594426623L59.06365384615385,90.04032576445252L59.15314423076923,89.77774967244704L59.24263461538462,89.56434630931943L59.51110576923077,88.80336910700386L59.69008653846154,88.24181253396158L59.82432211538462,87.69038704186292L60.00330288461538,86.7197790395197L60.182283653846156,85.86613336688141L60.27177403846154,84.01052919505221L60.31651923076923,84.12193821536411L60.361264423076925,84.40433605621404L60.450754807692306,84.43672521968108L60.58499038461538,83.78154883519463L60.808716346153844,83.07028667159933L61.03244230769231,81.0601772634536L61.121932692307695,80.0164696578526L61.16667788461538,78.66176736135675L61.211423076923076,78.84295435230901L61.34565865384616,78.90852734388822L61.390403846153845,78.58746953128262L61.43514903846154,78.69870339782128L61.43514903846154,78.79737489843356L61.88260096153846,78.94209041119672L62.061581730769234,79.33392264239625L62.19581730769231,79.99675915561366L62.37479807692308,80.54619597799264L62.37479807692308,80.94906221009634L62.598524038461534,81.5032204572996L62.732759615384616,82.27746637666732L63.224956730769236,83.25714918039944L63.31444711538461,84.21154447953857L63.53817307692307,85.1651292975072L63.62766346153846,85.32094587629317L63.80664423076923,85.33010657330851L64.11986057692307,86.27095353120201L64.16460576923076,86.22505939485146L64.29884134615385,86.22420358375285L64.34358653846154,86.42230499561639L65.1042548076923,84.6401601403184L65.23849038461539,82.73387590966652L65.64119711538461,80.56792017002785L65.6859423076923,78.95614639819925L65.86492307692308,77.3395316417425L65.90966826923076,76.15701587292011L65.95441346153846,75.65869208324757L66.35712019230769,73.63293728281343L66.67033653846154,73.55075188321774L66.71508173076923,73.20515314439015L67.11778846153847,75.23714545123555L67.20727884615384,76.31337862913809L67.38625961538462,77.25050450374353L67.78896634615384,80.61347259990838L67.92320192307692,82.60366679881162L68.46014423076923,87.49809096539174L68.72861538461538,92.11239549745571L68.81810576923077,94.80981114973278L68.81810576923077,96.37286854647532L68.86285096153846,96.67586011149248L68.90759615384616,97.7136665761892L68.99708653846153,98.22951710283283L69.08657692307692,97.47023660439466L69.2655576923077,96.79805282929469L69.57877403846153,93.27751871010354L70.33944230769231,87.166939413247L70.4289326923077,83.26601478730818L70.60791346153846,81.21103619911713L70.78689423076924,81.16544667681454L71.05536538461538,82.08747651987844L71.27909134615385,83.11861444600565L71.32383653846153,84.5103206051676L71.36858173076924,85.52574559764463L71.41332692307692,86.56910945670313L71.50281730769231,86.72964662152432L71.5475625,87.7826011352679L71.72654326923077,89.62049836841867L71.81603365384615,90.32189680059672L72.26348557692307,92.36501964211747L72.39772115384615,94.577758085575L72.39772115384615,96.02097010245284L72.44246634615385,97.20431656444329L72.53195673076922,98.89707539506311L72.62144711538461,97.51734125652942L72.62144711538461,96.68695192818927L72.80042788461537,98.38369153989075L72.84517307692307,98.77927900149555L72.97940865384615,98.81315925993046L73.38211538461537,96.9413957223612L73.60584134615385,94.32750594266827L73.74007692307693,90.81876003632092L73.8743125,87.66015964296281L73.96380288461538,85.34579449959686L74.23227403846153,83.24871459021358L74.27701923076923,82.85123145145025L74.81396153846153,82.08689085884666L75.0376875,80.35657243589162L75.39564903846153,77.94350074816835L75.79835576923078,76.27714275598646L75.84310096153845,75.78610056852042L75.88784615384616,75.18966213413918L76.1115721153846,75.89023661159118L76.2010625,75.53845936025762L76.60376923076923,76.46491004155097L76.87224038461538,78.22597072212838L77.05122115384616,79.48323072969947L77.18545673076923,81.10074464607258L77.18545673076923,82.16515014360492L77.23020192307693,82.42231366754325L77.2749471153846,82.3119343729064L77.40918269230768,83.42752227386639L77.94612500000001,86.36372126785068L77.99087019230768,87.06602704082883L78.21459615384616,89.37108786589212L78.25934134615386,91.476810026319L78.34883173076923,93.00551618131402L78.66204807692309,92.15768401525527L78.79628365384616,91.75747188940245L79.02000961538461,90.75250223757915L79.33322596153846,90.22099740405137L79.42271634615383,89.92573008990506L79.46746153846154,89.83426999354096L79.78067788461539,88.72721804157469L80.04914903846154,86.9186711590026L80.31762019230769,86.46193809807174L80.54134615384616,86.40643547620961L80.67558173076924,85.5549064427411L81.03354326923076,85.81276023664844L81.16777884615384,84.86279302653932L81.21252403846154,84.23393591162586L81.39150480769231,84.58922757609237L81.52574038461539,85.54349592816958L81.65997596153846,85.83106225770655L81.74946634615384,86.23790323666566L82.28640865384617,85.15601436739927L82.42064423076924,82.5370828089528L82.55487980769232,79.3717426091877L82.82335096153847,76.12595679265941L83.00233173076924,74.1512724959348L83.31554807692306,73.67017647923L83.58401923076924,73.67011149943451L83.67350961538462,73.9673941334653L83.98672596153847,75.88662132465252L83.98672596153847,77.32397426783422L84.03147115384616,78.50135331874053L84.74739423076923,83.20761110969691L84.79213942307692,86.41195841411404L84.79213942307692,88.53435563575351L84.9711201923077,89.0799241219495L85.19484615384614,91.0093504362524L85.5528076923077,90.86238055745088L85.64229807692307,92.24704487870065L86.31347596153847,91.06746853821764L86.62669230769231,88.06678937521221L86.80567307692307,85.37772590327246L87.02939903846155,83.3249250547567L87.16363461538462,81.51213685425328L87.253125,80.58481176506804L87.61108653846155,80.81560578896067L87.65583173076922,78.81839393031673L87.70057692307692,79.5052863158575L87.96904807692307,79.42152818958044L88.3717548076923,80.28865257738744L88.72971634615385,80.55076809137955L88.90869711538463,81.84473210824136L89.44563942307693,85.12752956752873L89.6246201923077,87.52220690253316L89.66936538461538,88.45010954600336L89.71411057692308,89.68693802165049L89.80360096153846,91.28584657987855L89.84834615384615,92.24053929264552L90.07207211538461,93.4364581177959L90.1615625,93.78542611864184L90.34054326923078,94.84702146347381L90.38528846153845,95.91168776828492L90.92223076923078,95.83409377328621L91.01172115384615,96.75473825870527L91.05646634615385,96.80919763000287L91.41442788461538,97.0475808339116L91.68289903846153,95.88004185038257L92.21984134615386,92.53449793206124L92.5330576923077,90.30334013983158L92.71203846153846,89.23575599187674L92.84627403846153,89.51519833879111L92.93576442307693,88.083992257044L93.0252548076923,89.70754857698599L93.07000000000001,88.45378493521324L93.42796153846153,86.58841976555412L93.83066826923077,86.98105056609712L93.87541346153846,90.41203573393923L94.00964903846153,90.13425174301393L94.09913942307692,88.40359379159726L94.63608173076923,88.74833266345385L94.68082692307692,89.96508286344974L94.85980769230768,89.79355235817147L94.90455288461538,90.62980282192363L94.94929807692309,89.44661971434249L94.99404326923077,89.86103126343001L94.99404326923077,89.97927997617138L95.57573076923077,88.21672865846017L95.75471153846154,87.15008748682628L96.29165384615385,86.67499487632553L96.47063461538461,85.44245553974069L96.78385096153846,82.45548264806389L96.82859615384616,81.20095460191322L96.91808653846154,78.98044210776659L97.18655769230769,75.47391471031291L97.85773557692308,71.04311862499638L97.90248076923076,67.24238898568692L97.94722596153846,68.22484467441511L98.12620673076924,68.46860373783908L98.48416826923076,71.99671973739679L98.61840384615384,72.86239416625205L99.11060096153847,79.69796710923971L99.15534615384615,82.72849476598432L99.28958173076923,84.91253018300704L99.51330769230769,89.80574745132775L99.55805288461539,93.38204551911485L99.69228846153847,94.19039567719578L99.73703365384615,96.16513115989615L99.87126923076923,97.71604668155531L100.0055048076923,98.98512325659193L100.1397403846154,99.75217679300123L100.22923076923077,98.63722939963485L100.5871923076923,97.6752787287885L100.85566346153847,97.01926663529665L100.94515384615384,96.09944819664366L101.07938942307692,95.38579473233797L101.43735096153847,94.69703837035709L101.48209615384616,93.9659862438424L101.61633173076923,92.91385085363356L101.70582211538462,93.5361754196634L102.06378365384616,91.43393586161899L102.46649038461538,86.46462220970028L102.91394230769231,80.51699711435974L103.31664903846153,76.28438027685581L103.36139423076924,73.7295071160603L103.40613942307692,72.73626720622033L103.45088461538462,72.82861265846999L103.540375,75.6408602660101L103.89833653846154,80.79797435566327L104.1668076923077,84.96767516144837L104.48002403846154,87.23953144823743L105.15120192307693,91.80846570664329L105.19594711538461,95.1816087750863L105.73288942307693,97.51716789580509L105.8223798076923,97.97028955961294L105.867125,96.04749701392666L106.00136057692308,94.56251758568693L106.04610576923076,91.42998689744132L106.09085096153846,90.77862992587973L106.31457692307693,89.71526053884267L106.4488125,90.95368456850301L106.76202884615385,88.17740830026644L106.94100961538462,91.60854099337139L107.20948076923077,91.24512120021377L107.25422596153847,87.70042428950266L107.34371634615384,86.18967125655423L107.6121875,87.927654690657L107.70167788461538,85.99215552638142L107.79116826923077,87.37885254344778L107.83591346153847,90.32700189454218L108.05963942307692,90.71860947521247L108.1491298076923,91.00271822416481L108.8203076923077,90.89029773913045L108.90979807692308,91.53891012695429L109.08877884615384,89.42591390334432L109.67046634615384,82.395277467705L110.07317307692308,81.02982720944848L110.25215384615385,78.65126714383369L110.38638942307692,74.91360974329925L110.47587980769231,76.06142622124086L110.74435096153846,75.36023843170429L110.87858653846153,71.38343057296741L111.01282211538462,72.95168159687428L111.50501923076924,78.59971591337202L111.7287451923077,84.9989423272233L111.86298076923077,91.67252036050779L112.04196153846154,92.96186729176502L112.08670673076924,95.38854878929453L112.35517788461539,99.05007054533215L112.57890384615385,105.92455786726929L112.66839423076922,107.98314556559491L112.89212019230769,114.3394354001185L113.92125961538461,122.01726355353665L114.05549519230769,127.51898320952856L114.05549519230769,130.6818495591205L114.27922115384615,130.81478598460552L115.93479326923077,113.72340919998285L116.15851923076923,100.27817774841718L116.20326442307693,91.28866235849975L116.24800961538462,88.52889225773644L116.2927548076923,85.49566638716969L116.3375,82.31362300464855L116.38224519230769,78.820830051001L116.9191875,77.42205810110202L117.05342307692308,77.60480451242387L117.09816826923077,77.40169652932641L117.27714903846153,76.60830462833496L117.5456201923077,78.48492984708301L117.72460096153846,72.50832396111578L117.81409134615384,69.372081759145L117.81409134615384,66.52318435981083L118.17205288461538,60.13255122162758L118.53001442307692,62.724295071708326L118.66425,68.25396085245903L118.75374038461538,74.93003617347708L118.93272115384616,82.62756038458338L118.97746634615385,88.56582311766725L119.20119230769231,93.18609579746686L119.29068269230768,96.26986937135648L119.42491826923077,98.14487228536223L119.51440865384616,104.43678390413028L120.09609615384616,99.8927058468365L120.31982211538461,95.97813252121827L120.63303846153846,88.96115038182708L120.81201923076924,84.79562208982134L120.94625480769231,79.28060619472558L121.03574519230769,76.95270110305935L121.03574519230769,75.35729189563534L121.48319711538461,74.91242258054591L121.52794230769231,72.38486475124836L121.66217788461539,69.70988560131782L122.33335576923076,73.40757250077483L122.46759134615384,76.649647420567L122.55708173076923,79.98217607370984L122.82555288461539,82.03631371941019L122.87029807692308,84.84686700375389L123.22825961538462,89.13762405708835L123.27300480769232,89.13080564893528L123.67571153846154,88.74064760527028L123.72045673076923,90.20275448591453L123.76520192307692,86.5604263949914L123.98892788461539,86.43759243992771L124.21265384615384,86.26642749688375L124.79434134615384,93.40995859444615L124.83908653846154,101.32126665444127L125.1075576923077,105.09673578651652L125.15230288461538,108.47935043603654L125.19704807692307,112.8544812965885L125.24179326923077,114.6796944396791L125.51026442307692,116.41814471611627L125.91297115384614,120.12144010620861L126.36042307692307,123.04467774418853L126.53940384615385,124.67845404723668L126.71838461538462,124.0000440808233L126.807875,124.29040164880533L126.94211057692307,122.43116211440378L126.98685576923077,119.34644198729987L126.98685576923077,117.26791859877079L127.21058173076922,117.42766876479502L127.79226923076922,113.77066522733678L127.9265048076923,113.73472156101914L128.28446634615386,114.76092718850909L128.5081923076923,109.99947617999517L128.5976826923077,106.36871028977383L128.6424278846154,107.58799437363263L128.82140865384616,102.01795566125965L128.86615384615385,99.18133679355071L128.91089903846154,101.5898784453829L128.95564423076922,98.16584133029936L129.00038942307694,94.51762698374765L129.22411538461537,89.61505641072537L129.31360576923078,86.55611700532563L129.44784134615384,84.40678703563712L129.49258653846152,81.06259952783302L129.6268221153846,77.75471126768154L129.7610576923077,73.53881306475962L129.8058028846154,71.98511375747724L129.85054807692308,71.94324378719824L130.65596153846153,78.89185955846182L130.92443269230768,81.87576068872534L131.32713942307691,96.31232473062734L131.3718846153846,105.63058217907306L131.81933653846153,111.3940776316982L131.86408173076924,112.6244391454455L131.86408173076924,112.62158154364276L132.31153365384617,108.08435128778558L132.84847596153847,104.18190305002031L132.89322115384616,104.56907426895862L133.2064375,100.4254407992227L133.38541826923077,94.81593048848951L133.56439903846154,88.70065712061472L133.65388942307692,84.17130489941606L133.6986346153846,80.79245793750917L133.6986346153846,78.32598522701483L134.01185096153847,75.3834011750669L134.19083173076925,72.00355032215684L134.68302884615383,72.97927446635005L134.81726442307692,73.9682573007497L134.90675480769232,73.43896495887024L135.04099038461538,75.16863394339579L135.35420673076922,85.04672071654748L135.3989519230769,87.20823128099069L135.3989519230769,89.13452724007992L135.57793269230768,91.43324533952213L135.98063942307692,99.24864569688933L136.47283653846154,108.07154246996896L136.60707211538463,112.10861099400755L137.05452403846155,113.71671252359795L137.09926923076924,116.77025962537436L137.2335048076923,118.83172723776312L137.8151923076923,120.08462389570866L137.9046826923077,115.7328978493224L138.21789903846155,114.39429271290496L138.30738942307693,110.9017707093081L138.71009615384617,105.98107438005384L138.8890769230769,101.15543355678942L139.38127403846153,89.74527475974217L139.47076442307693,92.44758028877862L139.47076442307693,93.9283658630734L139.5602548076923,89.2476438490137L139.605,84.09864318707426L139.6944903846154,74.42717755387199L140.1866875,79.39046360635078L140.67888461538462,75.18340101391065L140.99210096153845,70.32285686237938L141.3500625,71.70290223924977L141.57378846153847,58.957639096921L141.93175,59.518410653982414L142.24496634615386,54.09422146863571L142.28971153846155,51.57906960731181L142.33445673076923,49.013432070658524L142.73716346153847,29.34211657559962L143.27410576923077,9.79983739206844L143.31885096153846,-1.0317947315197102L145.06391346153845,-4.437203142764645L145.19814903846154,8.01104383551396L145.2876394230769,16.95667421099205L145.421875,20.262487857268866L145.5561105769231,25.41222500976852L145.69034615384615,29.237177892256028L145.73509134615384,31.20977464050415L145.77983653846155,31.159229187285405L146.1377980769231,28.093437832795217L146.31677884615385,23.671414591194747L146.4957596153846,21.401221052798576L146.89846634615384,24.547907637485963L146.98795673076924,31.935240123428343L147.0327019230769,40.50567159863428L147.30117307692305,57.72160103526977L147.34591826923076,70.88841225949619L147.48015384615385,82.95142039989715L147.748625,89.67423503157501L147.88286057692306,90.27846938483451L148.10658653846156,90.64090277815052L148.3303125,86.25945009442016L148.9567451923077,83.0904211526888L149.0014903846154,80.80467037672464L149.09098076923075,70.38588271037206L149.40419711538462,59.47148341262286L150.34384615384616,47.766950066431036L150.38859134615385,41.15342914924972L150.47808173076922,38.86248294591479L150.79129807692306,38.5147208136427L151.0597692307692,40.86795965578139L151.1940048076923,48.33920855026366L151.59671153846156,48.46537775947539L151.64145673076922,46.8721768759257L151.7756923076923,48.28123949980139L151.8651826923077,42.96536114609148L151.99941826923077,44.375805472773436L152.26788942307692,43.74948717746332L152.3126346153846,46.46817915051429L152.67059615384616,43.7018774141757L152.76008653846156,40.35627113096578L152.89432211538463,35.08100080491036L153.5207548076923,29.842823305665377L153.56550000000001,26.19693815035623L153.69973557692308,31.155005926229563L154.10244230769231,36.478354631334014L154.1471875,48.826992053338216L154.32616826923078,56.07094700249931L154.50514903846155,64.83246823431128L154.72887500000002,72.5653612348965L154.7736201923077,76.07214461533084L154.99734615384617,75.2738509135847L155.08683653846157,69.41750904756547L155.08683653846157,65.09534849666214L155.53428846153847,61.3884435716496L155.62377884615387,54.74234915262484L155.66852403846153,46.95427901213313L155.75801442307693,46.48262879291144L155.98174038461536,37.378013090922224L156.3844471153846,30.914447927587844L156.83189903846153,49.79096987386694L156.92138942307693,53.199713967946735L157.14511538461537,54.183088121173654L157.27935096153846,68.17586693003582L157.27935096153846,77.5060311514558L157.32409615384617,79.64542482651468L157.36884134615386,65.6601732623675L157.45833173076923,69.51239906595076L157.95052884615387,70.87203853621304L158.30849038461537,70.5155361976544L158.35323557692308,71.95973242890092L158.44272596153846,67.01643500416894L158.53221634615386,71.13344425519622L158.7111971153846,73.60467036144126L158.89017788461538,75.04653405360759L158.93492307692307,74.01686939313109L159.15864903846153,78.88135109403191L159.29288461538462,89.69128187452827L159.3376298076923,85.55644605000526L159.47186538461537,84.16625773042932L159.51661057692309,79.27791137667128L159.56135576923077,64.87117500566421L159.82982692307692,29.518461258919217L159.8745721153846,0.35425050612295195L159.91931730769232,-14.840937667949987L163.58842307692308,-3.4907586418693484L163.67791346153848,11.486755418592367L163.67791346153848,19.1728317741767L163.85689423076923,4.983192779209475L164.21485576923078,20.393578937999166L164.48332692307693,32.88174955090983L164.7070528846154,16.583977671974196L164.88603365384617,29.675743077901984L165.02026923076923,53.244779725761646L165.55721153846153,85.70999462333144L167.66023557692307,105.36540683398074L168.01819711538462,112.88709671828802L168.19717788461537,116.14774342186112L168.7788653846154,113.04195845045099L169.2710625,124.36121632235384L169.45004326923078,134.5972111133696L169.8080048076923,146.77140426458024L169.85275,143.48341801616212L170.0317307692308,139.4248231150534L170.4344375,129.36142815742517L170.4791826923077,131.30833826524855L170.92663461538461,131.55341512955928L170.9713798076923,140.9596142420367L171.016125,113.40319988014141L171.37408653846154,116.04502697907327L172.2689903846154,120.89392571376558L173.342875,117.26347966494902L173.61134615384614,107.54400314359182L173.65609134615383,113.8590554951395L173.79032692307695,133.78803548646562L174.23777884615384,151.39934387319178L174.64048557692308,145.47551318990918L174.77472115384614,135.59271540853024L175.2221730769231,132.45712735633967L175.44589903846153,134.3925365012409L177.05672596153846,136.61076708113944L177.4594326923077,132.179660409346L177.54892307692307,129.38912313242045L177.72790384615385,133.16536678124373L177.996375,125.95389874487464L178.1306105769231,130.22295749014225L178.44382692307693,138.57968646448882L178.80178846153845,144.10598247598165L178.93602403846154,146.8211698790093L179.2939855769231,145.068813700923L179.47296634615384,135.78130201028705L179.65194711538462,129.93591470145006L180.14414423076923,136.707290487293L180.68108653846156,136.72073815022787L180.8600673076923,131.51375994814364L181.17328365384614,133.5892677757451L181.35226442307692,142.39309538456985L181.84446153846156,143.55169146158875L182.38140384615386,132.78554359031202L183.0973269230769,140.7319623455553L184.21595673076925,133.65112657061113L184.8871346153846,133.2012899321967L185.5135673076923,130.71435671941362L185.69254807692306,150.84892076112382L185.87152884615386,133.43260014939173L186.2294903846154,133.0395167089772L186.49796153846154,133.28887979371976L186.54270673076923,122.28040078719636L187.30337500000002,126.96481921445104L187.70608173076923,135.00100904579756L187.9745528846154,133.70192473324283L188.3325144230769,118.96318800633438L188.46675000000002,133.19938452235036L189.45114423076922,129.76187473146157L190.2118125,116.7138876027679L190.39079326923076,128.5307930617951L190.7487548076923,127.0290993434509L190.88299038461537,133.70464362939782L191.15146153846155,138.05477027162266L191.956875,141.55760480442257L192.04636538461537,134.9462221499996L192.85177884615385,124.23819827782081L193.03075961538462,130.40078668258104L193.1649951923077,144.68910526179846L193.97040865384616,137.20231194594976L194.1493894230769,128.94429146991524L194.46260576923078,129.0146920849331L195.04429326923076,126.10459767735686L195.3127644230769,131.91684913092865L195.93919711538462,142.0946958828543L196.47613942307692,137.4603363312428L196.78935576923078,132.959188176422L197.1473173076923,131.1186776854633L197.50527884615383,128.8307665489935L197.55002403846152,124.53762079361684L197.77375,145.71077886670992L197.95273076923078,129.7611263244857L198.53441826923077,141.26607328021254L198.71339903846152,125.72250567537117L199.33983173076922,115.54869756178996L199.87677403846152,137.26559879070683L199.92151923076923,128.60772267598276L200.23473557692307,133.05545758019903L200.86116826923077,125.84032478246368L201.12963942307692,111.6616720368594L201.44285576923076,121.13563116769771L201.53234615384616,123.82292721352778L201.93505288461537,128.9699336860817L202.02454326923078,137.20158719134446L202.06928846153846,137.4267428908143L202.91944711538463,148.7642432963884L203.0536826923077,135.76643652501588L203.45638942307693,144.09334919641148L204.03807692307691,134.54272449580006L204.66450961538462,130.0722203228901L205.11196153846154,134.75035043164274L205.82788461538462,132.1996852983618L206.32008173076923,136.0764793728872L207.12549519230768,120.81466077473928L207.57294711538464,138.68842017356855L207.6176923076923,128.00462887581105L207.8414182692308,132.1082832514334L207.88616346153847,137.2912756753749L208.19937980769228,136.60592473278493L208.3783605769231,139.497084449775L208.42310576923077,115.44505750771513L208.46785096153843,130.97193374642092L209.45224519230769,110.42707212466347L209.49699038461537,121.57444660112932L209.67597115384615,130.78673550606507L209.76546153846155,144.36611035564653L210.1681682692308,140.22624097379844L210.34714903846154,126.3499179142814L210.48138461538463,133.56986884198528L211.6447596153846,130.26853704392744L211.6895048076923,117.33784689258104L212.09221153846153,120.65592101120623L212.2264471153846,125.69011512844632L212.4054278846154,140.49111777347977L212.53966346153845,133.39323112237713L212.98711538461538,131.2453940835359L213.0318605769231,130.71915997492513L213.07660576923078,139.0487120616735L213.12135096153844,136.27225755078734L213.34507692307693,135.53350310286433L213.61354807692308,134.51892470058135L213.79252884615386,129.2620351901498L213.88201923076923,129.88727826130136L214.5979423076923,141.88853955697067L214.86641346153846,146.11938146954074L214.91115865384614,143.86259871896615L215.2691201923077,133.70089129089553L215.53759134615385,140.96532030483957L216.11927884615383,147.51457700439818L216.4324951923077,135.93883991001496L216.8799471153846,147.84525951029593L218.0433221153846,135.83648850410225L219.07246153846154,142.14800281246593L219.3856778846154,133.08589217356896L219.65414903846155,142.01438061927988L219.78838461538462,138.53235696859963L221.17548557692305,146.29424215619449L221.22023076923077,145.81622225667513L221.93615384615384,149.85771336544175L221.98089903846156,143.12856472922536L222.42835096153846,136.9987676723391L222.56258653846155,129.54207946864972L222.65207692307692,139.59660301319354L223.14427403846156,131.61565174156053L223.4127451923077,123.48889816290313L223.54698076923077,137.25974766570698L223.72596153846155,137.84677154423485L224.531375,128.43603566674074L224.5761201923077,140.38668511290624L224.75510096153846,129.9880860206905L224.88933653846155,130.54785761129065L224.97882692307692,117.95921414323703L225.60525961538463,128.2160774886956L225.78424038461537,127.25173707527021L226.27643750000001,137.37469120919633L226.41067307692308,129.50049297955258L227.30557692307693,132.9194886359371L227.66353846153845,142.6568155891046L228.11099038461538,139.77369328589643L228.15573557692306,148.88092073616892L228.6479326923077,134.2688510767669L229.67707211538462,138.5995811416603L229.90079807692308,131.99172478765297L230.66146634615387,129.4891016302178L231.69060576923076,122.38658126605236L231.78009615384616,116.15529493014955L232.63025480769232,119.97715272697374L232.675,119.7546656164415L232.85398076923076,120.38562679976877L233.03296153846154,131.60191637384622L233.838375,117.91606211383777L234.10684615384616,130.63873740413237L234.15159134615382,135.05361866315604L236.03088942307693,125.20547403904705L236.38885096153848,124.2465959937812L236.74681249999998,126.83164805215577L236.7915576923077,131.26151596889088L237.55222596153848,125.53955948145304L237.91018749999998,117.15956571926344L238.13391346153847,118.2634277753479L238.31289423076922,118.1996686718995L238.80509134615383,130.73570775256695L239.34203365384613,125.44724308397721L239.47626923076922,138.73803902872214L239.56575961538462,132.72758353145275L239.74474038461537,141.46679077699594L240.10270192307692,142.55619092305056L241.84776442307694,138.6433495740599L242.78741346153848,121.9511495640679L243.05588461538463,135.7851331804675L243.1006298076923,132.43976860821473L243.1901201923077,130.66076992142337L243.86129807692308,123.54005315869597L244.17451442307694,130.7947518185284L245.20365384615383,138.7075705407696L245.38263461538463,137.905237563105L245.87483173076924,134.06775943496916L246.0090673076923,128.99026572871992L246.7697355769231,134.56789871793265L247.03820673076925,143.37181456385153L247.61989423076923,143.14402444063484L248.51479807692309,136.12754970887616L248.9175048076923,145.97494130856052L249.5439375,140.04062564805898L249.6334278846154,138.45415564478887L249.72291826923077,134.35011799356215L250.12562499999999,142.77133176272966L250.52833173076925,134.01393743628444L250.88629326923075,127.86035590606771L251.7811971153846,132.47057400527302L251.8706875,139.41731225851134L252.0049230769231,137.453219334567L252.09441346153847,133.12266822964347L252.36288461538462,131.04850971075797L252.89982692307694,132.81234577096578L252.9445721153846,131.79127285101262L253.25778846153844,124.77793408484209L253.39202403846156,128.82592286007838L253.61575,139.5466492049132L253.92896634615386,142.64409915824803L254.01845673076923,145.48142518757493L256.30046153846155,139.06276220350026L256.79265865384616,131.7666901944856L256.9268942307692,131.2515244305731L257.1506201923077,136.19148325817724L257.86654326923076,135.969737629806L258.04552403846156,129.5488133670512L258.09026923076925,126.70068001134268L258.1797596153846,133.76486400408723L258.3139951923077,133.27888924425747L258.62721153846155,146.8128528932155L258.8061923076923,129.77896525064966L258.98517307692305,130.32403494199033L259.3878798076923,141.0649696011803L259.43262500000003,126.11763823717935L259.65635096153846,116.37039078325756L259.8353317307692,118.2309641443733L259.8800769230769,115.91025053933191L260.5512548076923,119.10554365586862L261.89361057692304,133.08849396152272L261.9383557692308,122.62486693215818L262.4752980769231,134.02316870462369L262.7885144230769,119.81947870512356L263.0122403846154,127.93436746328138L263.63867307692306,125.93405308793754L264.0413798076923,127.47191119918355L264.7125576923077,126.3086171445331L265.2047548076923,132.82228777033575L265.51797115384613,126.05172919776862L265.5627163461539,138.93615592646694L265.69695192307694,127.81712538265708L265.96542307692306,119.81287158073432L267.6657403846154,131.64160926201146L267.79997596153845,127.91758246430014L267.8894663461539,129.16727245097312L268.02370192307694,130.54289055149064L268.06844711538463,135.2904059320839L268.2474278846154,136.39218671673777L268.3816634615385,129.0799706289425L269.67927403846153,122.49854059135444L270.3057067307692,121.30592368658367L271.5138269230769,130.78454955388693L271.7822980769231,137.73690351547555L271.96127884615385,135.68106332746862L272.7666923076923,135.98399742255575L272.9456730769231,140.1208511212731" style="fill: none;" fill="none"></path></g></g></g></g><g opacity="0.20000000298023224"><g><g><g><path stroke="rgb(255, 112, 67)" stroke-width="2px" d="M22.462086538461538,98.43440923926731L22.775302884615385,96.82523564448995L22.909538461538464,95.90142964571714L23.267500000000002,94.21690327616201L23.312245192307692,93.441142499778L23.356990384615383,92.86545377787617L23.62546153846154,91.76695358993278L23.938677884615384,90.88626646689244L24.02816826923077,90.48390166958174L24.47562019230769,89.78725562426779L24.65460096153846,88.10991893344455L24.744091346153848,88.91185971283251L25.19154326923077,88.59990811695656L25.817975961538462,88.71002674765057L25.907466346153846,89.59900305867195L26.086447115384615,89.12372770201829L26.35491826923077,89.7060766046246L26.444408653846153,87.62051860450042L26.489153846153847,87.3669917455978L26.623389423076922,88.80000937862529L27.473548076923077,87.51253963576423L27.607783653846155,87.16771582249139L27.921,91.83752427676485L28.055235576923078,90.62619719819891L28.189471153846153,92.51946544580989L28.32370673076923,96.12700522707568L28.457942307692306,96.03259700071067L28.905394230769232,101.0315702120463L29.26335576923077,101.65113966972051L29.30810096153846,102.57690078342955L29.48708173076923,104.15671750480931L29.755552884615383,105.59914267841312L29.934533653846152,107.67528560062249L30.11351442307692,108.23892777131663L30.47147596153846,106.42904415701827L30.560966346153847,106.89741719596915L31.769086538461536,96.7836948989994L31.81383173076923,97.54440949900697L32.17179326923077,93.93528899653919L32.26128365384616,94.25032100843059L32.30602884615384,92.57064208967817L32.66399038461538,93.77465983426406L32.708735576923075,93.29465385555393L32.75348076923077,92.90707967173722L32.97720673076923,92.4809218522989L33.33516826923077,89.38277848785123L33.379913461538465,89.16754507703914L33.87211057692308,86.70258760775128L34.230072115384615,85.1446791027983L34.36430769230769,83.23542039162582L34.94599519230769,86.05936998617318L35.169721153846154,85.65844858917926L35.30395673076923,86.62066710243623L35.4829375,83.79301479036609L35.4829375,83.8167790763908L35.84089903846154,87.09754602784912L36.24360576923077,89.46642504367564L36.28835096153846,88.17042397583525L36.55682211538461,89.61192299897472L36.69105769230769,89.03915782223146L36.73580288461539,90.32117995371422L36.780548076923075,88.74072726940115L36.82529326923076,90.87311757993366L36.87003846153846,89.66841723513272L37.13850961538461,91.8234991742091L37.36223557692308,92.85797296944592L37.63070673076923,93.4276158037285L37.7649423076923,94.36718979680704L38.3466298076923,95.79352157507093L38.43612019230769,96.25527329771883L38.52561057692308,96.8603668257801L38.52561057692308,96.94515175525514L38.70459134615384,96.93236371837556L38.88357211538462,97.29401558194724L38.973062500000005,97.08145969285526L39.06255288461538,96.9227831723272L39.19678846153847,97.33487914468472L39.28627884615384,97.58600818778699L39.46525961538462,97.92877277663598L39.554750000000006,97.58780937613919L39.59949519230769,98.21804640539405L39.64424038461538,97.3167731622027L39.823221153846156,97.58521853381147L39.912711538461544,98.65247212572075L39.95745673076923,98.68526950706274L40.091692307692306,97.89417827739898L40.13643750000001,98.29050425334523L40.22592788461538,97.61963048813243L40.31541826923077,98.25330954899287L40.44965384615384,98.48968487033983L40.44965384615384,98.34699106993567L40.98659615384616,96.60154475106133L41.07608653846154,96.40670643597842L41.79200961538462,94.96740596025354L41.970990384615384,95.21021095518437L42.10522596153846,94.64852048406999L42.41844230769231,93.53468181234267L42.5079326923077,94.27618302996787L42.64216826923077,94.55475599351855L42.68691346153846,94.20558407811656L42.821149038461535,93.78957292950815L42.865894230769236,92.90066115694742L43.17911057692307,93.15262967112164L43.223855769230774,93.59026591488058L43.44758173076924,92.85410631481143L43.492326923076924,93.89996196221973L43.71605288461539,93.74031924911671L43.805543269230775,94.56030630113351L43.89503365384615,95.23748552105907L44.074014423076925,95.10863283560094L44.11875961538461,94.48815088888837L44.252995192307694,94.87975425120028L44.252995192307694,94.94548855769551L44.38723076923077,94.9189731431297L44.7899375,96.44580873470339L44.83468269230769,96.39628983421458L45.05840865384615,95.93424721741013L45.72958653846154,97.89598229225311L45.99805769230769,98.22639559765553L46.132293269230765,98.81820739316754L46.22178365384615,99.0775639122921L46.26652884615385,99.11163309436913L46.35601923076923,99.03731378880072L46.49025480769231,98.13581198170886L46.57974519230769,97.49733516937123L46.803471153846154,97.29384693399899L46.93770673076923,97.82848460186894L47.071942307692304,96.43020809286585L47.29566826923077,95.83550219492366L47.385158653846155,95.26141680623921L48.235317307692306,93.97544181181324L48.324807692307694,94.76733107926944L48.324807692307694,94.61706999714175L48.36955288461538,94.69252487930159L48.77225961538462,93.71683007594612L49.04073076923077,92.66014609966014L49.04073076923077,92.71526194504565L49.174966346153845,92.92750680115488L49.353947115384614,92.03361331894995L49.935634615384615,93.46700640564991L50.20410576923077,92.92116695733533L50.427831730769235,91.36811768027644L50.517322115384616,90.70732439864013L50.56206730769231,90.18501133910485L51.00951923076923,89.43077908572224L51.14375480769231,89.0076818967859L51.32273557692308,88.89885780397388L51.456971153846155,90.02673005776272L51.81493269230769,88.44494514887532L51.85967788461539,88.3846784748137L52.12814903846154,88.4314391805066L52.17289423076923,89.17449638744196L52.26238461538461,88.01174698422352L52.26238461538461,88.05200956198904L53.33626923076923,89.01085700061587L53.425759615384614,90.3115001267857L53.47050480769231,90.85151839438412L53.51525,92.86874288395047L54.007447115384615,93.04082456094523L54.27591826923077,92.64171495168574L54.32066346153846,92.35970873046251L54.41015384615385,92.85350238556663L54.49964423076923,93.71915251836181L54.589134615384616,92.66152166393069L55.12607692307692,93.25689320307639L55.17082211538462,94.74043173152539L55.39454807692308,94.00853638069496L55.57352884615385,91.0818114074568L55.66301923076923,92.21464558537635L55.707764423076924,91.93918554261326L56.110471153846156,93.82625715583562L56.4236875,93.32672381748756L56.51317788461539,89.17998356984721L57.09486538461538,92.9111729176094L57.45282692307693,91.55556751932535L57.45282692307693,91.42372156832782L57.810788461538465,92.71281419437793L57.900278846153846,90.2730917342835L58.258240384615384,91.92237303807504L58.258240384615384,91.91413237171041L58.57145673076923,91.3759612231205L58.750437500000004,90.26532168048952L58.88467307692308,90.07226500378714L58.97416346153846,89.28072763582071L59.06365384615385,89.93642049473193L59.15314423076923,89.38388553443882L59.24263461538462,89.24424126462803L59.51110576923077,87.66190330353047L59.69008653846154,87.39947767439816L59.82432211538462,86.8632488037149L60.00330288461538,85.26386703600487L60.182283653846156,84.58566485792399L60.27177403846154,81.22712293730841L60.31651923076923,84.28905174583197L60.361264423076925,84.8279328174889L60.450754807692306,84.48530896488164L60.58499038461538,82.79878425846498L60.808716346153844,82.00339342620639L61.03244230769231,78.04501315123505L61.121932692307695,78.45090824945105L61.16667788461538,76.629713916613L61.211423076923076,79.11473483873739L61.34565865384616,79.00688683125708L61.390403846153845,78.10588281237416L61.43514903846154,78.86555419762931L61.43514903846154,78.94538214935197L61.88260096153846,79.15916368034149L62.061581730769234,79.92167098919549L62.19581730769231,80.99101392543979L62.37479807692308,81.3703512115611L62.37479807692308,81.55336155825191L62.598524038461534,82.3344578281045L62.732759615384616,83.4388352557189L63.224956730769236,84.72667338599763L63.31444711538461,85.64313742824727L63.53817307692307,86.59550652446019L63.62766346153846,85.55467074447208L63.80664423076923,85.34384761883153L64.11986057692307,87.68222396804227L64.16460576923076,86.15621819032563L64.29884134615385,86.22291986710495L64.34358653846154,86.71945711341169L65.1042548076923,81.96694285737144L65.23849038461539,79.8744495636887L65.64119711538461,77.31898656056987L65.6859423076923,76.53848574045632L65.86492307692308,74.91460950705739L65.90966826923076,74.38324221968651L65.95441346153846,74.91120639873876L66.35712019230769,70.59430508216224L66.67033653846154,73.42747378382417L66.71508173076923,72.68675503614877L67.11778846153847,78.28513391150368L67.20727884615384,77.92772839599185L67.38625961538462,78.65619331565169L67.78896634615384,85.65792474415566L67.92320192307692,85.58895809716648L68.46014423076923,94.83972721526193L68.72861538461538,99.03385229555165L68.81810576923077,98.85593462814835L68.81810576923077,98.71745464158917L68.86285096153846,97.13034745901824L68.90759615384616,99.27037627323426L68.99708653846153,99.00329289279826L69.08657692307692,96.3313158567374L69.2655576923077,95.78977716664474L69.57877403846153,87.9967175313168L70.33944230769231,78.00107046796215L70.4289326923077,77.4146278484L70.60791346153846,78.12856831683054L70.78689423076924,81.09706239336067L71.05536538461538,83.47052128447426L71.27909134615385,84.6653213351965L71.32383653846153,86.59787984391053L71.36858173076924,87.04888308636018L71.41332692307692,88.13415524529087L71.50281730769231,86.97045236875614L71.5475625,89.36203290588327L71.72654326923077,92.37734421814481L71.81603365384615,91.3739944488638L72.26348557692307,95.42970390439862L72.39772115384615,97.89686575076128L72.39772115384615,98.18578812776961L72.44246634615385,98.97933625742897L72.53195673076922,101.43621364099283L72.62144711538461,95.44774004872887L72.62144711538461,95.44136793567903L72.80042788461537,100.92880095744299L72.84517307692307,99.37266019390276L72.97940865384615,98.86397964758281L73.38211538461537,94.13375041600732L73.60584134615385,90.40667127312885L73.74007692307693,85.55564117679994L73.8743125,82.92225905292563L73.96380288461538,81.87424678454795L74.23227403846153,80.10309472613865L74.27701923076923,82.25500674330524L74.81396153846153,80.94037996994125L75.0376875,77.76109480145904L75.39564903846153,74.32389321658347L75.79835576923078,73.77760576771365L75.84310096153845,75.04953728732136L75.88784615384616,74.29500448256731L76.1115721153846,76.94109832776918L76.2010625,75.0107934832573L76.60376923076923,77.85458606349097L76.87224038461538,80.86756174299451L77.05122115384616,81.36912074105608L77.18545673076923,83.52701552063228L77.18545673076923,83.76175838990345L77.23020192307693,82.80805895345078L77.2749471153846,82.14636543095112L77.40918269230768,85.10090412530636L77.94612500000001,90.76801975882717L77.99087019230768,88.11948570029604L78.21459615384616,92.82867910348708L78.25934134615386,94.63539326695933L78.34883173076923,95.29857541380657L78.66204807692309,90.88593576616711L78.79628365384616,91.15715370062325L79.02000961538461,89.2450477598442L79.33322596153846,89.42374015375971L79.42271634615383,89.48282911868559L79.46746153846154,89.6970798489948L79.78067788461539,87.06664011362527L80.04914903846154,84.20585083514452L80.31762019230769,85.77683850667543L80.54134615384616,86.32318154341645L80.67558173076924,84.2776128925383L81.03354326923076,86.19954092750946L81.16777884615384,83.43784221137564L81.21252403846154,83.2906502392557L81.39150480769231,85.1221650727921L81.52574038461539,86.9748984562854L81.65997596153846,86.26241175201204L81.74946634615384,86.8481647051043L82.28640865384617,83.53318106349973L82.42064423076924,78.60868547128307L82.55487980769232,74.62373230954012L82.82335096153847,71.25727806786696L83.00233173076924,71.1892460508479L83.31554807692306,72.94853245417276L83.58401923076924,73.6700140297413L83.67350961538462,74.41331808451149L83.98672596153847,78.76546211143335L83.98672596153847,79.48000368260674L84.03147115384616,80.26742189510001L84.74739423076923,90.2669977961315L84.79213942307692,91.21847937073973L84.79213942307692,91.71795146821275L84.9711201923077,89.89827685124345L85.19484615384614,93.90348990770678L85.5528076923077,90.64192573924859L85.64229807692307,94.3240413605753L86.31347596153847,89.29810402749312L86.62669230769231,83.56577063070402L86.80567307692307,81.34413069536289L87.02939903846155,80.24572378198306L87.16363461538462,78.79295455349816L87.253125,79.19382413129011L87.61108653846155,81.16179682479965L87.65583173076922,75.82257614235083L87.70057692307692,80.53562489416863L87.96904807692307,79.29589100016487L88.3717548076923,81.58933915909795L88.72971634615385,80.94394136236774L88.90869711538463,83.78567813353406L89.44563942307693,90.05172575645977L89.6246201923077,91.1142229050398L89.66936538461538,89.84196351120869L89.71411057692308,91.54218073512118L89.80360096153846,93.68420941722063L89.84834615384615,93.672578361796L90.07207211538461,95.23033635552144L90.1615625,94.30887811991076L90.34054326923078,96.4394144807218L90.38528846153845,97.50868722550156L90.92223076923078,95.71770278078814L91.01172115384615,98.13570498683387L91.05646634615385,96.89088668694926L91.41442788461538,97.40515563977469L91.68289903846153,94.12873337508903L92.21984134615386,87.51618205457926L92.5330576923077,86.95660345148708L92.71203846153846,87.63437976994449L92.84627403846153,89.93436185916265L92.93576442307693,85.93718313442336L93.0252548076923,92.14288305689891L93.07000000000001,86.57313947255413L93.42796153846153,83.79037201106549L93.83066826923077,87.56999676691161L93.87541346153846,95.55851348570238L94.00964903846153,89.717575756626L94.09913942307692,85.80760686447223L94.63608173076923,89.26544097123875L94.68082692307692,91.79020816344354L94.85980769230768,89.53625660025412L94.90455288461538,91.88417851755189L94.94929807692309,87.67184505297078L94.99404326923077,90.48264858706129L94.99404326923077,90.15665304528342L95.57573076923077,85.5729016818934L95.75471153846154,85.55012572937541L96.29165384615385,85.9623559605744L96.47063461538461,83.59364653486345L96.78385096153846,77.97502331054874L96.82859615384616,79.31916253268719L96.91808653846154,75.64967336654662L97.18655769230769,70.2141236141324L97.85773557692308,64.39692449702157L97.90248076923076,61.54129452672268L97.94722596153846,69.69852820750741L98.12620673076924,68.83424233297507L98.48416826923076,77.28889373673333L98.61840384615384,74.16090580953492L99.11060096153847,89.95132652372122L99.15534615384615,87.27428625110124L99.28958173076923,88.1885833085411L99.51330769230769,97.14557335380879L99.55805288461539,98.74649262079555L99.69228846153847,95.40292091431718L99.73703365384615,99.1272343839467L99.87126923076923,100.04241996404404L100.0055048076923,100.8887381191469L100.1397403846154,100.90275709761514L100.22923076923077,96.96480830958528L100.5871923076923,96.23235272251898L100.85566346153847,96.03524849505888L100.94515384615384,94.71972053866419L101.07938942307692,94.31531453587942L101.43735096153847,93.66390382738577L101.48209615384616,92.86940805407035L101.61633173076923,91.3356477683203L101.70582211538462,94.46966226870815L102.06378365384616,88.28057652455237L102.46649038461538,79.01065173182222L102.91394230769231,71.5955594713489L103.31664903846153,69.93545502059989L103.36139423076924,69.89719737486708L103.40613942307692,71.24640734146038L103.45088461538462,72.96713083684445L103.540375,79.85923167732025L103.89833653846154,88.53364549014303L104.1668076923077,91.22222637012601L104.48002403846154,90.64731587842107L105.15120192307693,98.66186709425206L105.19594711538461,100.24132337775082L105.73288942307693,101.02050657688329L105.8223798076923,98.64997205532467L105.867125,93.16330819539725L106.00136057692308,92.33504844332734L106.04610576923076,86.73119086507295L106.09085096153846,89.8015944685373L106.31457692307693,88.12020645828711L106.4488125,92.8113206129935L106.76202884615385,84.01299389791158L106.94100961538462,96.75524003302885L107.20948076923077,90.69999151047733L107.25422596153847,82.38337892343601L107.34371634615384,83.9235417071316L107.6121875,90.53462984181112L107.70167788461538,83.08890677996807L107.79116826923077,89.45889806904727L107.83591346153847,94.74922592118382L108.05963942307692,91.30602084621786L108.1491298076923,91.42888134759333L108.8203076923077,90.72166701157889L108.90979807692308,92.51182870869008L109.08877884615384,86.25641956792937L109.67046634615384,71.84932281424602L110.07317307692308,78.98165182206365L110.25215384615385,75.08342704541154L110.38638942307692,69.30712364249759L110.47587980769231,77.78315093815327L110.74435096153846,74.30845674739943L110.87858653846153,65.41821878486209L111.01282211538462,75.30405813273457L111.50501923076924,87.07176738811863L111.7287451923077,94.59778194800019L111.86298076923077,101.68288741043457L112.04196153846154,94.89588768865084L112.08670673076924,99.02857103558878L112.35517788461539,104.54235317938858L112.57890384615385,116.23628885017501L112.66839423076922,111.07102711308333L112.89212019230769,123.87387015190389L113.92125961538461,133.53400578366384L114.05549519230769,135.77156269351642L114.05549519230769,135.4261490835084L114.27922115384615,131.01419062283304L115.93479326923077,88.08634402304888L116.15851923076923,80.11033057106866L116.20326442307693,77.80438927362363L116.24800961538462,84.38923710659147L116.2927548076923,80.94582758131953L116.3375,77.54055793086688L116.38224519230769,73.58164062052965L116.9191875,75.32390017625359L117.05342307692308,77.87892412940661L117.09816826923077,77.09703455468019L117.27714903846153,75.41821677684784L117.5456201923077,81.29986767520508L117.72460096153846,63.54341513216495L117.81409134615384,64.66771845618882L117.81409134615384,62.24983826080958L118.17205288461538,50.5466015143527L118.53001442307692,66.61191084682942L118.66425,76.54845952358511L118.75374038461538,84.94414915500415L118.93272115384616,94.17384670124287L118.97746634615385,97.47321721729305L119.20119230769231,100.11650481716626L119.29068269230768,100.89552973219091L119.42491826923077,100.95737665637085L119.51440865384616,113.87465133228235L120.09609615384616,93.07658876089586L120.31982211538461,90.1062725327909L120.63303846153846,78.4356771727403L120.81201923076924,78.54732965181272L120.94625480769231,71.00808235208193L121.03574519230769,73.46084346556002L121.03574519230769,72.96417808449931L121.48319711538461,74.2451186079118L121.52794230769231,68.59352800730203L121.66217788461539,65.69741687642203L122.33335576923076,78.95410284996034L122.46759134615384,81.5127598002553L122.55708173076923,84.98096905342406L122.82555288461539,85.11752018796072L122.87029807692308,89.0626969302694L123.22825961538462,95.57375963709006L123.27300480769232,89.12057803670565L123.67571153846154,88.15541053977276L123.72045673076923,92.39591480688088L123.76520192307692,81.09693425860671L123.98892788461539,86.2533415073322L124.21265384615384,86.00968008231786L124.79434134615384,104.12525524078973L124.83908653846154,113.18822874443399L125.1075576923077,110.75993948462936L125.15230288461538,113.55327241031661L125.19704807692307,119.41717758741643L125.24179326923077,117.417514154315L125.51026442307692,119.02582013077206L125.91297115384614,125.67638319134713L126.36042307692307,127.42953420115842L126.53940384615385,127.1291185018089L126.71838461538462,122.98242913120322L126.807875,124.72593800077836L126.94211057692307,119.64230281280147L126.98685576923077,114.719361796644L126.98685576923077,114.15013351597719L127.21058173076922,117.66729401383135L127.79226923076922,108.28515992114941L127.9265048076923,113.6808060615427L128.28446634615386,116.30023562974401L128.5081923076923,102.8572996672243L128.5976826923077,100.9225614544418L128.6424278846154,109.41692049942083L128.82140865384616,93.66289759270019L128.86615384615385,94.92640849198732L128.91089903846154,105.20269092313117L128.95564423076922,93.02978565767408L129.00038942307694,89.04530546392004L129.22411538461537,82.26120055119196L129.31360576923078,81.96770789722602L129.44784134615384,81.18279208110438L129.49258653846152,76.04631826612686L129.6268221153846,72.79287887745433L129.7610576923077,67.21496576037673L129.8058028846154,69.65456479655371L129.85054807692308,71.8804388317797L130.65596153846153,89.3147832153572L130.92443269230768,86.35161238412063L131.32713942307691,117.96717079348034L131.3718846153846,119.60796835174163L131.81933653846153,120.03932081063589L131.86408173076924,114.46998141606649L131.86408173076924,112.61729514093862L132.31153365384617,101.27850590399983L132.84847596153847,98.32823069337239L132.89322115384616,105.14983109736609L133.2064375,94.20999059461886L133.38541826923077,86.40166502238976L133.56439903846154,79.52774706880251L133.65388942307692,77.37727656761805L133.6986346153846,75.72418749464883L133.6986346153846,74.62627616127332L134.01185096153847,70.96952509714497L134.19083173076925,66.9337740427918L134.68302884615383,74.44286068263982L134.81726442307692,75.45173155234919L134.90675480769232,72.64502644605106L135.04099038461538,77.76313742018408L135.35420673076922,99.86385087627504L135.3989519230769,90.45049712765548L135.3989519230769,92.02397117871378L135.57793269230768,94.88132248868544L135.98063942307692,110.97174623294009L136.47283653846154,121.30588762958845L136.60707211538463,118.16421378006538L137.05452403846155,116.12886481798358L137.09926923076924,121.35058027803899L137.2335048076923,121.92392865634628L137.8151923076923,121.96396888262696L137.9046826923077,109.20530877974299L138.21789903846155,112.38638500827882L138.30738942307693,105.66298770391279L138.71009615384617,98.60002988617246L138.8890769230769,93.91697232189279L139.38127403846153,72.6300365641713L139.47076442307693,96.50103858233325L139.47076442307693,96.14954422451557L139.5602548076923,82.22656082792415L139.605,76.37514219416512L139.6944903846154,59.919979104068545L140.1866875,86.83539268506898L140.67888461538462,68.8728071252505L140.99210096153845,63.03204063508245L141.3500625,73.77297030455536L141.57378846153847,39.83974438342781L141.93175,60.35956798957453L142.24496634615386,45.95793769061564L142.28971153846155,47.806341815325965L142.33445673076923,45.16497576567863L142.73716346153847,-0.16485666698881118L144.2137548076923,-20.754415728648496L144.8401875,8.310217155350585L145.06391346153845,4.194943411482711L145.19814903846154,26.683414302931908L145.2876394230769,30.37511977420911L145.421875,25.22120832668412L145.5561105769231,33.13683073851797L145.69034615384615,34.974607215987305L145.73509134615384,34.168669762876306L145.77983653846155,31.08341100745733L146.1377980769231,23.49475080105995L146.31677884615385,17.038379728794098L146.4957596153846,17.995930745204305L146.89846634615384,29.267937514517058L146.98795673076924,43.016238852341985L147.0327019230769,53.36131881144313L147.30117307692305,83.54549519022306L147.34591826923076,90.63862909583581L147.48015384615385,101.04593261049853L147.748625,99.7584569790918L147.88286057692306,91.18482091472382L148.10658653846156,91.18455286812451L148.3303125,79.68727106882467L148.9567451923077,78.33687774009175L149.0014903846154,77.37604421277842L149.09098076923075,54.757701210843194L149.40419711538462,43.099884465999054L150.34384615384616,30.210150047143316L150.38859134615385,31.233147773477782L150.47808173076922,35.42606364091239L150.79129807692306,37.99307761523457L151.0597692307692,44.397817918989375L151.1940048076923,59.54608189198706L151.59671153846156,48.65463157329296L151.64145673076922,44.48237555060123L151.7756923076923,50.3948334356149L151.8651826923077,34.99154361552664L151.99941826923077,46.49147196279631L152.26788942307692,42.810009734498124L152.3126346153846,50.54621711009078L152.67059615384616,39.5524248096678L152.76008653846156,35.3378617061509L152.89432211538463,27.16809531582726L153.5207548076923,21.98555705679786L153.56550000000001,20.728110417392514L153.69973557692308,38.592107590039575L154.10244230769231,44.463377688990704L154.1471875,67.34994818634458L154.32616826923078,66.93687942624092L154.50514903846155,77.97475008202925L154.72887500000002,84.16470073577429L154.7736201923077,81.33231968598234L154.99734615384617,74.07641036096545L155.08683653846157,60.63299624853664L155.08683653846157,58.61210767030717L155.53428846153847,55.82808618413078L155.62377884615387,44.773207524087695L155.66852403846153,35.27217380139561L155.75801442307693,45.7751534640789L155.98174038461536,23.72108953793844L156.3844471153846,21.21910018258623L156.83189903846153,78.10575279328559L156.92138942307693,58.31283010906644L157.14511538461537,55.65814935101403L157.27935096153846,89.16503514332904L157.27935096153846,91.50127748358581L157.32409615384617,82.854515339103L157.36884134615386,44.6822959161467L157.45833173076923,75.29073777132564L157.95052884615387,72.91149774160651L158.30849038461537,69.98078268981644L158.35323557692308,74.12602677577071L158.44272596153846,59.60148886707094L158.53221634615386,77.30895813173719L158.7111971153846,77.31150952080884L158.89017788461538,77.20932959185707L158.93492307692307,72.47237240241633L159.15864903846153,86.17807364538312L159.29288461538462,105.90617804527282L159.3376298076923,79.35419231322075L159.47186538461537,82.08097525106537L159.51661057692309,71.94539184603427L159.56135576923077,43.26107044915358L159.82982692307692,-23.51060936119822L163.49893269230768,-13.676606174310052L163.58842307692308,25.283429055743767L163.67791346153848,33.95302650928497L163.67791346153848,30.701946307553186L163.85689423076923,-16.30126571324135L164.21485576923078,43.50915817618372L164.48332692307693,51.61400547027587L164.7070528846154,-7.8626801464292555L164.88603365384617,49.31339118679364L165.02026923076923,88.5983346975512L165.55721153846153,134.40781696968608L167.66023557692307,134.8485251499547L168.01819711538462,124.16963154474894L168.19717788461537,121.0387134772208L168.7788653846154,108.38328099333577L169.2710625,141.34010313020812L169.45004326923078,149.95120329989328L169.8080048076923,165.03269399139617L169.85275,138.551438643535L170.0317307692308,133.33693076339034L170.4344375,114.26633572098281L170.4791826923077,134.22870342698363L170.92663461538461,131.9210304260254L170.9713798076923,155.06891291075283L171.016125,72.06857833729849L171.37408653846154,120.00776762747103L172.2689903846154,128.16727381580407L173.342875,111.81781059172418L173.61134615384614,92.964788361556L173.65609134615383,123.33163402246103L173.79032692307695,163.6815054734548L174.23777884615384,177.816306453281L174.64048557692308,136.58976716498535L174.77472115384614,120.7685187364618L175.2221730769231,127.75374527805381L175.44589903846153,137.29565021859275L177.05672596153846,139.9381129509873L177.4594326923077,125.53300040165584L177.54892307692307,125.20331721703212L177.72790384615385,138.82973225447867L177.996375,115.13669669032097L178.1306105769231,136.62654560804367L178.44382692307693,151.11477992600865L178.80178846153845,152.39542649322087L178.93602403846154,150.8939509835508L179.2939855769231,142.44027943379348L179.47296634615384,121.85003447433313L179.65194711538462,121.16783373819456L180.14414423076923,146.86435416605738L180.68108653846156,136.74090964463022L180.8600673076923,123.70329264501731L181.17328365384614,136.70252951714727L181.35226442307692,155.59883679780694L181.84446153846156,145.28958557711707L182.38140384615386,116.63632178339694L183.0973269230769,152.65159047842025L184.21595673076925,123.02987290819486L184.8871346153846,132.52653497457504L185.5135673076923,126.98395690023898L185.69254807692306,181.05076682368914L185.87152884615386,107.30811923179361L186.2294903846154,132.44989154835542L186.49796153846154,133.66292442083358L186.54270673076923,105.76768227741123L187.30337500000002,133.99144685533312L187.70608173076923,147.05529379281734L187.9745528846154,131.75329826441077L188.3325144230769,96.85508291597168L188.46675000000002,154.55367929637433L189.45114423076922,124.6056100451284L190.2118125,97.1419069097274L190.39079326923076,146.2561512503359L190.7487548076923,124.77655876593458L190.88299038461537,143.71796005831825L191.15146153846155,144.5799602349599L191.956875,146.81185660362243L192.04636538461537,125.02914816836517L192.85177884615385,108.17616246955262L193.03075961538462,139.64466928972138L193.1649951923077,166.12158313062457L193.97040865384616,125.97212197217677L194.1493894230769,116.55726075586345L194.46260576923078,129.1202930074599L195.04429326923076,121.73945606599251L195.3127644230769,140.6352263112863L195.93919711538462,157.36146601074273L196.47613942307692,130.50879700382552L196.78935576923078,126.20746594419083L197.1473173076923,128.35791194902527L197.50527884615383,125.39889984428882L197.55002403846152,118.09790216055181L197.77375,177.4705159763495L197.95273076923078,105.83664751114944L198.53441826923077,158.52349371380276L198.71339903846152,102.40715426810914L199.33983173076922,100.28798539141815L199.87677403846152,169.84095063408216L199.92151923076923,115.62090850389666L200.23473557692307,139.72705993652343L200.86116826923077,115.01762558586069L201.12963942307692,90.39369291845294L201.44285576923076,135.34656986395518L201.53234615384616,127.85387128227288L201.93505288461537,136.69044339491262L202.02454326923078,149.54906744923858L202.06928846153846,137.76447644001908L202.91944711538463,165.77049390474954L203.0536826923077,116.26972636795706L203.45638942307693,156.58371820350487L204.03807692307691,120.21678744488293L204.66450961538462,123.3664640635252L205.11196153846154,141.76754559477172L205.82788461538462,128.37368759844037L206.32008173076923,141.8916704846753L207.12549519230768,97.9219328775174L207.57294711538464,165.49905927181243L207.6176923076923,111.9789419291748L207.8414182692308,138.2637648148669L207.88616346153847,145.06576431128713L208.19937980769228,135.5778983189L208.3783605769231,143.83382402526007L208.42310576923077,79.36701709462537L208.46785096153843,154.26224810447957L209.45224519230769,79.6097796920273L209.49699038461537,138.2955083158281L209.67597115384615,144.6051688634687L209.76546153846155,164.73517263001867L210.1681682692308,134.0164369010263L210.34714903846154,105.53543332500591L210.48138461538463,144.39979523354106L211.6447596153846,125.31653934684064L211.6895048076923,97.94181166556147L212.09221153846153,125.63303218914402L212.2264471153846,133.24140630430645L212.4054278846154,162.69262174102994L212.53966346153845,122.74640114572313L212.98711538461538,128.02363852527407L213.0318605769231,129.92980881200896L213.07660576923078,151.54304019179608L213.12135096153844,132.10757578445805L213.34507692307693,134.42537143097982L213.61354807692308,132.99705709715684L213.79252884615386,121.37670092450249L213.88201923076923,130.82514286802873L214.5979423076923,159.89043150047462L214.86641346153846,152.46564433839586L214.91115865384614,140.47742459310425L215.2691201923077,118.45833014878963L215.53759134615385,151.86196382575565L216.11927884615383,157.33846205373607L216.4324951923077,118.57523426844014L216.8799471153846,165.70488891071744L218.0433221153846,117.8233319948117L219.07246153846154,151.61527427501147L219.3856778846154,119.49272621522347L219.65414903846155,155.40711328784624L219.78838461538462,133.30932149257924L221.17548557692305,157.93706993758678L221.22023076923077,145.09919240739612L221.93615384615384,155.9199500285917L221.98089903846156,133.03484177490077L222.42835096153846,127.80407208700976L222.56258653846155,118.3570471631156L222.65207692307692,154.67838833000926L223.14427403846156,119.644224834111L223.4127451923077,111.29876779491703L223.54698076923077,157.91602191991277L223.72596153846155,138.72730736202664L224.531375,114.31993185049959L224.5761201923077,158.3126592821545L224.75510096153846,114.39018738236692L224.88933653846155,131.3875149971909L224.97882692307692,99.0762489411566L225.60525961538463,143.60137250688342L225.78424038461537,125.80522645513216L226.27643750000001,152.55912241008548L226.41067307692308,117.68919563508696L227.30557692307693,138.04798212051392L227.66353846153845,157.26280601885583L228.11099038461538,135.44900983108414L228.15573557692306,162.54176191157765L228.6479326923077,112.35074658766389L229.67707211538462,145.09567623900043L229.90079807692308,122.07994025664198L230.66146634615387,125.73516689406502L231.69060576923076,111.73280071980423L231.78009615384616,106.80836542629532L232.63025480769232,125.70993942221006L232.675,119.42093495064312L232.85398076923076,121.3320685747597L233.03296153846154,148.42635073496237L233.838375,97.3872807238251L234.10684615384616,149.72275033957428L234.15159134615382,141.67594055169158L236.03088942307693,110.43325710288352L236.38885096153848,122.80827892588243L236.74681249999998,130.70922613971763L236.7915576923077,137.90631784399352L237.55222596153848,116.95662475029627L237.91018749999998,104.58957507597904L238.13391346153847,119.9192208594746L238.31289423076922,118.10403001672691L238.80509134615383,149.5397663735681L239.34203365384613,117.51454608109262L239.47626923076922,158.67423294583955L239.56575961538462,123.71190028554864L239.74474038461537,154.5756016453107L240.10270192307692,144.19029114213254L241.84776442307694,132.77408755057388L242.78741346153848,96.91284954907994L243.05588461538463,156.53610860506694L243.1006298076923,127.42172174983554L243.1901201923077,127.9922718912363L243.86129807692308,112.85897801460492L244.17451442307694,141.67679980827702L245.20365384615383,150.5767986241314L245.38263461538463,136.70173809660807L245.87483173076924,128.31154224276543L246.0090673076923,121.37402516934607L246.7697355769231,142.9343482017517L247.03820673076925,156.57768833272988L247.61989423076923,142.80233925580978L248.51479807692309,125.60283761123816L248.9175048076923,160.74602870808707L249.5439375,131.13915215730668L249.6334278846154,136.07445063988368L249.72291826923077,128.19406151672206L250.12562499999999,155.4031524164809L250.52833173076925,120.87784594661659L250.88629326923075,118.62998361074261L251.7811971153846,139.385901154081L251.8706875,149.83741963836883L252.0049230769231,134.50707994865047L252.09441346153847,126.62684157225821L252.36288461538462,127.93727193242974L252.89982692307694,135.45809986127747L252.9445721153846,130.25966347108283L253.25778846153844,114.25792593558629L253.39202403846156,134.8979060229328L253.61575,155.62773872216542L253.92896634615386,147.29027408825027L254.01845673076923,149.73741423156525L256.30046153846155,129.43476772738828L256.79265865384616,120.82258218096362L256.9268942307692,130.47877578470442L257.1506201923077,143.60142149958347L257.86654326923076,135.63711918724908L258.04552403846156,119.91742697291903L258.09026923076925,122.42847997777992L258.1797596153846,144.361139993204L258.3139951923077,132.54992710451285L258.62721153846155,167.1137983666526L258.8061923076923,104.22813378680083L258.98517307692305,131.14163947900136L259.3878798076923,157.1763715899653L259.43262500000003,103.69664119117789L259.65635096153846,101.74951960237489L259.8353317307692,121.02182418604693L259.8800769230769,112.42918013176984L260.5512548076923,123.89848333067364L261.89361057692304,154.06291942000388L261.9383557692308,106.92942638811138L262.4752980769231,151.12062136332193L262.7885144230769,98.51394370587336L263.0122403846154,140.1067006005181L263.63867307692306,122.93358152492178L264.0413798076923,129.77869836605257L264.7125576923077,124.56367606255743L265.2047548076923,142.59279370903968L265.51797115384613,115.89589133891795L265.5627163461539,158.2627960195144L265.69695192307694,111.13857956694231L265.96542307692306,107.80649087785018L267.6657403846154,149.38471578392716L267.79997596153845,122.33154226773314L267.8894663461539,131.0418074309826L268.02370192307694,132.6063177022669L268.06844711538463,142.41167900297376L268.2474278846154,138.0448578937186L268.3816634615385,118.11164649724961L269.67927403846153,112.62639553497235L270.3057067307692,119.51699832942751L271.5138269230769,145.0024883548419L271.7822980769231,148.1654344578584L271.96127884615385,132.59730304545826L272.7666923076923,136.4383985651864L272.9456730769231,146.32613166934914" style="fill: none;" fill="none"></path></g></g></g></g></g></g><g transform="translate(39, 177)" clip-path="url(#clip_1)"><clipPath id="clip_1"><rect width="290" height="22"></rect></clipPath><g><g><line x1="0" y1="0" x2="0" y2="5" style="visibility: inherit;" fill="rgb(0, 0, 0)" stroke="rgb(204, 204, 204)" stroke-width="1px"></line><line x1="22.372596153846157" y1="0" x2="22.372596153846157" y2="5" style="visibility: inherit;" fill="rgb(0, 0, 0)" stroke="rgb(204, 204, 204)" stroke-width="1px"></line><line x1="44.745192307692314" y1="0" x2="44.745192307692314" y2="5" style="visibility: inherit;" fill="rgb(0, 0, 0)" stroke="rgb(204, 204, 204)" stroke-width="1px"></line><line x1="67.11778846153847" y1="0" x2="67.11778846153847" y2="5" style="visibility: inherit;" fill="rgb(0, 0, 0)" stroke="rgb(204, 204, 204)" stroke-width="1px"></line><line x1="89.49038461538463" y1="0" x2="89.49038461538463" y2="5" style="visibility: inherit;" fill="rgb(0, 0, 0)" stroke="rgb(204, 204, 204)" stroke-width="1px"></line><line x1="111.86298076923077" y1="0" x2="111.86298076923077" y2="5" style="visibility: inherit;" fill="rgb(0, 0, 0)" stroke="rgb(204, 204, 204)" stroke-width="1px"></line><line x1="134.23557692307693" y1="0" x2="134.23557692307693" y2="5" style="visibility: inherit;" fill="rgb(0, 0, 0)" stroke="rgb(204, 204, 204)" stroke-width="1px"></line><line x1="156.60817307692307" y1="0" x2="156.60817307692307" y2="5" style="visibility: inherit;" fill="rgb(0, 0, 0)" stroke="rgb(204, 204, 204)" stroke-width="1px"></line><line x1="178.98076923076925" y1="0" x2="178.98076923076925" y2="5" style="visibility: inherit;" fill="rgb(0, 0, 0)" stroke="rgb(204, 204, 204)" stroke-width="1px"></line><line x1="201.3533653846154" y1="0" x2="201.3533653846154" y2="5" style="visibility: inherit;" fill="rgb(0, 0, 0)" stroke="rgb(204, 204, 204)" stroke-width="1px"></line><line x1="223.72596153846155" y1="0" x2="223.72596153846155" y2="5" style="visibility: inherit;" fill="rgb(0, 0, 0)" stroke="rgb(204, 204, 204)" stroke-width="1px"></line><line x1="246.09855769230768" y1="0" x2="246.09855769230768" y2="5" style="visibility: inherit;" fill="rgb(0, 0, 0)" stroke="rgb(204, 204, 204)" stroke-width="1px"></line><line x1="268.47115384615387" y1="0" x2="268.47115384615387" y2="5" style="visibility: inherit;" fill="rgb(0, 0, 0)" stroke="rgb(204, 204, 204)" stroke-width="1px"></line><line x1="290.84375" y1="0" x2="290.84375" y2="5" style="visibility: inherit;" fill="rgb(0, 0, 0)" stroke="rgb(204, 204, 204)" stroke-width="1px"></line></g><g transform="translate(0, 8)"><text x="0" y="0" dx="0em" dy="0.95em" style="text-anchor: middle; visibility: hidden; font-family: &quot;Helvetica Neue&quot;, sans-serif; font-size: 12px; font-weight: 200;" fill="rgb(50, 49, 63)" stroke="none" stroke-width="1px">-500</text><text x="22.372596153846157" y="0" dx="0em" dy="0.95em" style="text-anchor: middle; visibility: inherit; font-family: &quot;Helvetica Neue&quot;, sans-serif; font-size: 12px; font-weight: 200;" fill="rgb(50, 49, 63)" stroke="none" stroke-width="1px">0</text><text x="44.745192307692314" y="0" dx="0em" dy="0.95em" style="text-anchor: middle; visibility: inherit; font-family: &quot;Helvetica Neue&quot;, sans-serif; font-size: 12px; font-weight: 200;" fill="rgb(50, 49, 63)" stroke="none" stroke-width="1px">500</text><text x="67.11778846153847" y="0" dx="0em" dy="0.95em" style="text-anchor: middle; visibility: inherit; font-family: &quot;Helvetica Neue&quot;, sans-serif; font-size: 12px; font-weight: 200;" fill="rgb(50, 49, 63)" stroke="none" stroke-width="1px">1k</text><text x="89.49038461538463" y="0" dx="0em" dy="0.95em" style="text-anchor: middle; visibility: inherit; font-family: &quot;Helvetica Neue&quot;, sans-serif; font-size: 12px; font-weight: 200;" fill="rgb(50, 49, 63)" stroke="none" stroke-width="1px">1.5k</text><text x="111.86298076923077" y="0" dx="0em" dy="0.95em" style="text-anchor: middle; visibility: inherit; font-family: &quot;Helvetica Neue&quot;, sans-serif; font-size: 12px; font-weight: 200;" fill="rgb(50, 49, 63)" stroke="none" stroke-width="1px">2k</text><text x="134.23557692307693" y="0" dx="0em" dy="0.95em" style="text-anchor: middle; visibility: inherit; font-family: &quot;Helvetica Neue&quot;, sans-serif; font-size: 12px; font-weight: 200;" fill="rgb(50, 49, 63)" stroke="none" stroke-width="1px">2.5k</text><text x="156.60817307692307" y="0" dx="0em" dy="0.95em" style="text-anchor: middle; visibility: inherit; font-family: &quot;Helvetica Neue&quot;, sans-serif; font-size: 12px; font-weight: 200;" fill="rgb(50, 49, 63)" stroke="none" stroke-width="1px">3k</text><text x="178.98076923076925" y="0" dx="0em" dy="0.95em" style="text-anchor: middle; visibility: inherit; font-family: &quot;Helvetica Neue&quot;, sans-serif; font-size: 12px; font-weight: 200;" fill="rgb(50, 49, 63)" stroke="none" stroke-width="1px">3.5k</text><text x="201.3533653846154" y="0" dx="0em" dy="0.95em" style="text-anchor: middle; visibility: inherit; font-family: &quot;Helvetica Neue&quot;, sans-serif; font-size: 12px; font-weight: 200;" fill="rgb(50, 49, 63)" stroke="none" stroke-width="1px">4k</text><text x="223.72596153846155" y="0" dx="0em" dy="0.95em" style="text-anchor: middle; visibility: inherit; font-family: &quot;Helvetica Neue&quot;, sans-serif; font-size: 12px; font-weight: 200;" fill="rgb(50, 49, 63)" stroke="none" stroke-width="1px">4.5k</text><text x="246.09855769230768" y="0" dx="0em" dy="0.95em" style="text-anchor: middle; visibility: inherit; font-family: &quot;Helvetica Neue&quot;, sans-serif; font-size: 12px; font-weight: 200;" fill="rgb(50, 49, 63)" stroke="none" stroke-width="1px">5k</text><text x="268.47115384615387" y="0" dx="0em" dy="0.95em" style="text-anchor: middle; visibility: inherit; font-family: &quot;Helvetica Neue&quot;, sans-serif; font-size: 12px; font-weight: 200;" fill="rgb(50, 49, 63)" stroke="none" stroke-width="1px">5.5k</text><text x="290.84375" y="0" dx="0em" dy="0.95em" style="text-anchor: middle; visibility: hidden; font-family: &quot;Helvetica Neue&quot;, sans-serif; font-size: 12px; font-weight: 200;" fill="rgb(50, 49, 63)" stroke="none" stroke-width="1px">6k</text></g><line x1="0" y1="0" x2="290.84375" y2="0" fill="rgb(0, 0, 0)" stroke="rgb(204, 204, 204)" stroke-width="1px"></line></g></g></g></g></svg>