<svg viewBox="0 0 330 200" xmlns="http://www.w3.org/2000/svg"><g><g><g><g><g><line x1="58.59375" y1="177.828125" x2="53.59375" y2="177.828125" style="visibility: inherit;" fill="rgb(0, 0, 0)" stroke="rgb(204, 204, 204)" stroke-width="1px"></line><line x1="58.59375" y1="161.6619318181818" x2="53.59375" y2="161.6619318181818" style="visibility: inherit;" fill="rgb(0, 0, 0)" stroke="rgb(204, 204, 204)" stroke-width="1px"></line><line x1="58.59375" y1="145.49573863636363" x2="53.59375" y2="145.49573863636363" style="visibility: inherit;" fill="rgb(0, 0, 0)" stroke="rgb(204, 204, 204)" stroke-width="1px"></line><line x1="58.59375" y1="129.32954545454547" x2="53.59375" y2="129.32954545454547" style="visibility: inherit;" fill="rgb(0, 0, 0)" stroke="rgb(204, 204, 204)" stroke-width="1px"></line><line x1="58.59375" y1="113.16335227272727" x2="53.59375" y2="113.16335227272727" style="visibility: inherit;" fill="rgb(0, 0, 0)" stroke="rgb(204, 204, 204)" stroke-width="1px"></line><line x1="58.59375" y1="96.99715909090908" x2="53.59375" y2="96.99715909090908" style="visibility: inherit;" fill="rgb(0, 0, 0)" stroke="rgb(204, 204, 204)" stroke-width="1px"></line><line x1="58.59375" y1="80.83096590909089" x2="53.59375" y2="80.83096590909089" style="visibility: inherit;" fill="rgb(0, 0, 0)" stroke="rgb(204, 204, 204)" stroke-width="1px"></line><line x1="58.59375" y1="64.66477272727275" x2="53.59375" y2="64.66477272727275" style="visibility: inherit;" fill="rgb(0, 0, 0)" stroke="rgb(204, 204, 204)" stroke-width="1px"></line><line x1="58.59375" y1="48.49857954545453" x2="53.59375" y2="48.49857954545453" style="visibility: inherit;" fill="rgb(0, 0, 0)" stroke="rgb(204, 204, 204)" stroke-width="1px"></line><line x1="58.59375" y1="32.332386363636374" x2="53.59375" y2="32.332386363636374" style="visibility: inherit;" fill="rgb(0, 0, 0)" stroke="rgb(204, 204, 204)" stroke-width="1px"></line><line x1="58.59375" y1="16.166193181818187" x2="53.59375" y2="16.166193181818187" style="visibility: inherit;" fill="rgb(0, 0, 0)" stroke="rgb(204, 204, 204)" stroke-width="1px"></line><line x1="58.59375" y1="0" x2="53.59375" y2="0" style="visibility: inherit;" fill="rgb(0, 0, 0)" stroke="rgb(204, 204, 204)" stroke-width="1px"></line></g><g transform="translate(48.59375, 0)"><text x="0" y="177.828125" dx="0em" dy="0.3em" style="text-anchor: end; visibility: hidden; font-family: &quot;Helvetica Neue&quot;, sans-serif; font-size: 12px; font-weight: 200;" fill="rgb(50, 49, 63)" stroke="none" stroke-width="1px">-0.01</text><text x="0" y="161.6619318181818" dx="0em" dy="0.3em" style="text-anchor: end; visibility: inherit; font-family: &quot;Helvetica Neue&quot;, sans-serif; font-size: 12px; font-weight: 200;" fill="rgb(50, 49, 63)" stroke="none" stroke-width="1px">0</text><text x="0" y="145.49573863636363" dx="0em" dy="0.3em" style="text-anchor: end; visibility: hidden; font-family: &quot;Helvetica Neue&quot;, sans-serif; font-size: 12px; font-weight: 200;" fill="rgb(50, 49, 63)" stroke="none" stroke-width="1px">0.01</text><text x="0" y="129.32954545454547" dx="0em" dy="0.3em" style="text-anchor: end; visibility: inherit; font-family: &quot;Helvetica Neue&quot;, sans-serif; font-size: 12px; font-weight: 200;" fill="rgb(50, 49, 63)" stroke="none" stroke-width="1px">0.02</text><text x="0" y="113.16335227272727" dx="0em" dy="0.3em" style="text-anchor: end; visibility: hidden; font-family: &quot;Helvetica Neue&quot;, sans-serif; font-size: 12px; font-weight: 200;" fill="rgb(50, 49, 63)" stroke="none" stroke-width="1px">0.03</text><text x="0" y="96.99715909090908" dx="0em" dy="0.3em" style="text-anchor: end; visibility: inherit; font-family: &quot;Helvetica Neue&quot;, sans-serif; font-size: 12px; font-weight: 200;" fill="rgb(50, 49, 63)" stroke="none" stroke-width="1px">0.04</text><text x="0" y="80.83096590909089" dx="0em" dy="0.3em" style="text-anchor: end; visibility: hidden; font-family: &quot;Helvetica Neue&quot;, sans-serif; font-size: 12px; font-weight: 200;" fill="rgb(50, 49, 63)" stroke="none" stroke-width="1px">0.05</text><text x="0" y="64.66477272727275" dx="0em" dy="0.3em" style="text-anchor: end; visibility: inherit; font-family: &quot;Helvetica Neue&quot;, sans-serif; font-size: 12px; font-weight: 200;" fill="rgb(50, 49, 63)" stroke="none" stroke-width="1px">0.06</text><text x="0" y="48.49857954545453" dx="0em" dy="0.3em" style="text-anchor: end; visibility: hidden; font-family: &quot;Helvetica Neue&quot;, sans-serif; font-size: 12px; font-weight: 200;" fill="rgb(50, 49, 63)" stroke="none" stroke-width="1px">0.07</text><text x="0" y="32.332386363636374" dx="0em" dy="0.3em" style="text-anchor: end; visibility: inherit; font-family: &quot;Helvetica Neue&quot;, sans-serif; font-size: 12px; font-weight: 200;" fill="rgb(50, 49, 63)" stroke="none" stroke-width="1px">0.08</text><text x="0" y="16.166193181818187" dx="0em" dy="0.3em" style="text-anchor: end; visibility: hidden; font-family: &quot;Helvetica Neue&quot;, sans-serif; font-size: 12px; font-weight: 200;" fill="rgb(50, 49, 63)" stroke="none" stroke-width="1px">0.09</text><text x="0" y="0" dx="0em" dy="0.3em" style="text-anchor: end; visibility: hidden; font-family: &quot;Helvetica Neue&quot;, sans-serif; font-size: 12px; font-weight: 200;" fill="rgb(50, 49, 63)" stroke="none" stroke-width="1px">0.1</text></g><line x1="58.59375" y1="0" x2="58.59375" y2="177.828125" fill="rgb(0, 0, 0)" stroke="rgb(204, 204, 204)" stroke-width="1px"></line></g></g><g transform="translate(58, 0)" clip-path="url(#clip_0)"><clipPath id="clip_0"><rect width="271" height="177"></rect></clipPath><g><g><g><line x1="0" y1="0" x2="0" y2="177.828125" fill="rgb(0, 0, 0)" stroke="rgb(60, 60, 60)" stroke-width="1px" opacity="0.25"></line><line x1="33.92578125" y1="0" x2="33.92578125" y2="177.828125" fill="rgb(0, 0, 0)" stroke="rgb(60, 60, 60)" stroke-width="1px" opacity="0.25"></line><line x1="67.8515625" y1="0" x2="67.8515625" y2="177.828125" fill="rgb(0, 0, 0)" stroke="rgb(60, 60, 60)" stroke-width="1px" opacity="0.25"></line><line x1="101.77734375" y1="0" x2="101.77734375" y2="177.828125" fill="rgb(0, 0, 0)" stroke="rgb(60, 60, 60)" stroke-width="1px" opacity="0.25"></line><line x1="135.703125" y1="0" x2="135.703125" y2="177.828125" fill="rgb(0, 0, 0)" stroke="rgb(60, 60, 60)" stroke-width="1px" opacity="0.25"></line><line x1="169.62890625" y1="0" x2="169.62890625" y2="177.828125" fill="rgb(0, 0, 0)" stroke="rgb(60, 60, 60)" stroke-width="1px" opacity="0.25"></line><line x1="203.5546875" y1="0" x2="203.5546875" y2="177.828125" fill="rgb(0, 0, 0)" stroke="rgb(60, 60, 60)" stroke-width="1px" opacity="0.25"></line><line x1="237.48046875" y1="0" x2="237.48046875" y2="177.828125" fill="rgb(0, 0, 0)" stroke="rgb(60, 60, 60)" stroke-width="1px" opacity="0.25"></line><line x1="271.40625" y1="0" x2="271.40625" y2="177.828125" fill="rgb(0, 0, 0)" stroke="rgb(60, 60, 60)" stroke-width="1px" opacity="0.25"></line></g><g><line x1="0" y1="177.828125" x2="271.40625" y2="177.828125" fill="rgb(0, 0, 0)" stroke="rgb(60, 60, 60)" stroke-width="1px" opacity="0.25"></line><line x1="0" y1="161.6619318181818" x2="271.40625" y2="161.6619318181818" fill="rgb(0, 0, 0)" stroke="rgb(60, 60, 60)" stroke-width="1px" opacity="0.25"></line><line x1="0" y1="145.49573863636363" x2="271.40625" y2="145.49573863636363" fill="rgb(0, 0, 0)" stroke="rgb(60, 60, 60)" stroke-width="1px" opacity="0.25"></line><line x1="0" y1="129.32954545454547" x2="271.40625" y2="129.32954545454547" fill="rgb(0, 0, 0)" stroke="rgb(60, 60, 60)" stroke-width="1px" opacity="0.25"></line><line x1="0" y1="113.16335227272727" x2="271.40625" y2="113.16335227272727" fill="rgb(0, 0, 0)" stroke="rgb(60, 60, 60)" stroke-width="1px" opacity="0.25"></line><line x1="0" y1="96.99715909090908" x2="271.40625" y2="96.99715909090908" fill="rgb(0, 0, 0)" stroke="rgb(60, 60, 60)" stroke-width="1px" opacity="0.25"></line><line x1="0" y1="80.83096590909089" x2="271.40625" y2="80.83096590909089" fill="rgb(0, 0, 0)" stroke="rgb(60, 60, 60)" stroke-width="1px" opacity="0.25"></line><line x1="0" y1="64.66477272727275" x2="271.40625" y2="64.66477272727275" fill="rgb(0, 0, 0)" stroke="rgb(60, 60, 60)" stroke-width="1px" opacity="0.25"></line><line x1="0" y1="48.49857954545453" x2="271.40625" y2="48.49857954545453" fill="rgb(0, 0, 0)" stroke="rgb(60, 60, 60)" stroke-width="1px" opacity="0.25"></line><line x1="0" y1="32.332386363636374" x2="271.40625" y2="32.332386363636374" fill="rgb(0, 0, 0)" stroke="rgb(60, 60, 60)" stroke-width="1px" opacity="0.25"></line><line x1="0" y1="16.166193181818187" x2="271.40625" y2="16.166193181818187" fill="rgb(0, 0, 0)" stroke="rgb(60, 60, 60)" stroke-width="1px" opacity="0.25"></line><line x1="0" y1="0" x2="271.40625" y2="0" fill="rgb(0, 0, 0)" stroke="rgb(60, 60, 60)" stroke-width="1px" opacity="0.25"></line></g></g></g><g><g><line x1="0" y1="161.6619318181818" x2="271.40625" y2="161.6619318181818" fill="rgb(0, 0, 0)" stroke="rgb(153, 153, 153)" stroke-width="1.5px"></line></g></g><g><g><line x1="33.92578125" y1="0" x2="33.92578125" y2="177.828125" fill="rgb(0, 0, 0)" stroke="rgb(153, 153, 153)" stroke-width="1.5px"></line></g></g><g><g><g><g><g><path stroke="rgb(255, 112, 67)" stroke-width="2px" d="M34.231113281249996,30.299162759699612L34.332890625,33.006055274269215L34.604296875,39.26243004447858L34.638222656249994,31.966024105398816L34.6721484375,24.364696515380018L34.875703125,19.784735082011565L35.113183593749994,24.48521469838923L35.18103515625,39.69953253997076L35.52029296875,42.57894812035198L35.65599609375,44.45212683952741L35.72384765625,46.937653597814716L36.063105468749995,39.92494041228272L36.538066406249996,35.11571906142038L36.60591796875,44.307304215343265L36.74162109375,45.29226769396007L37.01302734375,41.81689578234841L37.046953125,40.704172730129244L37.7933203125,41.31914632462116L37.89509765625,43.71393897645248L38.132578125,39.39300813994143L38.23435546875,41.69433505915356L38.3361328125,40.00394529346252L38.43791015625,45.418879912202755L38.5396875,47.63769301873546L38.878945312499994,43.61197333417675L39.1503515625,43.78600161390409L39.184277343750004,38.60380728924744L39.31998046875,41.15977582536374L39.659238281250005,46.57969313453293L39.794941406250004,48.58280348090139L40.06634765625,47.529144658852715L40.13419921875,52.38944858356358L41.0501953125,52.21652249912046L41.08412109375,46.90837849365428L41.355527343750005,50.4693342174464L41.42337890625,48.778191214549196L41.4573046875,53.71590893782397L41.7287109375,53.115236814759385L41.76263671875,54.990180625171405L41.7965625,53.947086633507624L41.966191406250005,51.97076294945201L42.2715234375,53.896345124194895L42.64470703124999,43.063031903885104L42.91611328125,44.28734858700332L43.017890625,46.10598559567447L43.458925781249995,51.55059424613384L43.6285546875,54.173369879783735L43.73033203125,44.75485438653212L43.86603515625,45.59298077888951L43.86603515625,46.095856614296736L44.4427734375,39.34643945053935L44.47669921875,38.72170971480125L44.68025390625,39.6679981450784L44.78203125,40.13118420812148L44.81595703125,43.11000151627587L44.8498828125,43.29179384024397L44.88380859375,44.666541465718154L44.917734375,40.895608721396485L45.121289062500004,43.45200520498844L45.29091796875,41.496502378255L46.03728515625,40.02719366207003L46.105136718749996,38.4516909678095L46.17298828125,29.75948396565184L46.30869140625,31.310053782132314L46.44439453125,31.520124288947073L46.681875,36.68275212973671L46.749726562499994,42.62194130353075L46.88542968749999,39.8224047650709L46.953281249999996,42.46784747977736L46.98720703125,46.51153439218294L47.0211328125,41.093803809785385L47.1568359375,42.46212570171065L47.224687499999995,34.73415819854861L47.25861328125,28.23462299340605L47.360390624999994,28.84438012913614L47.39431640625,32.88219284734035L47.46216796875,31.710870861935348L47.53001953125,31.671791713811075L47.631796875,40.5234285826113L47.631796875,45.83441070389145L48.03890625,37.654357383338066L48.1067578125,37.7459768985652L48.649570312499996,40.68352768930859L48.785273437499995,39.202589389102684L48.887050781250004,37.16341528980365L49.12453125,26.802886830445175L49.1923828125,26.000358397395047L49.29416015625,31.331552183746595L49.3280859375,41.60244607633149L49.42986328125,32.921674999229595L49.4637890625,35.28577717262681L49.701269531250006,37.64886505606498L49.7351953125,31.5761680953604L49.90482421875,29.748440899060085L49.93875,26.533701124511822L50.10837890625,26.35569212256911L50.176230468750006,32.7549995167266L50.24408203125,35.94624865012585L50.37978515625,41.18638567568803L50.4137109375,34.012716072858154L50.51548828125,38.60237884697145L50.51548828125,41.356176511439486L50.617265625,35.368006065232976L50.92259765625,34.16393474782339L50.9565234375,37.07905539883441L51.12615234374999,36.10424073129673L51.6350390625,37.04252169924027L51.83859375,35.05507174772231L51.940371093749995,31.579523753663636L52.00822265625,25.13804639805167L52.0421484375,34.667502940225006L52.11,37.95515286158033L52.21177734375,36.98348014615709L52.27962890625,31.607888758945904L52.4492578125,35.797326941907585L52.551035156249995,33.14872454924051L52.6528125,25.332421240491243L52.82244140625,31.892847634857816L53.5348828125,34.40756250691359L53.602734375000004,38.03747234973932L53.602734375000004,40.21541825543474L53.636660156249995,37.31355655069618L53.941992187500006,40.9220344573626L54.145546875,40.07836611020801L54.38302734375,40.24732647783344L54.824062500000004,44.93578288879024L55.027617187500006,45.35108376077565L55.19724609375,46.84419332780243L55.26509765625,48.537407231447816L55.2990234375,43.847374960128946L55.63828125,39.02054254923908L55.74005859375,44.89333610422159L55.87576171875,39.66351242942116L55.9775390625,41.19535432464767L56.2489453125,38.07562749891838L56.28287109375,39.2505790052071L56.48642578125,45.66513840194685L56.5203515625,49.32054130826691L56.588203125,64.8214832847886L56.588203125,74.12204847070161L57.402421875,76.25397011653894L57.4702734375,70.45255992655969L57.50419921875,52.52248179512007L57.538125,47.11321080259415L57.91130859375,53.62796646945418L58.11486328125,53.88287315572943L58.1487890625,52.46762411409121L58.2844921875,50.26434097757314L58.352343749999996,56.148826026531665L58.759453125,56.128133818763956L58.793378906250005,62.33289694796399L58.9630078125,52.70146308103847L59.0987109375,52.72802894073786L59.1665625,49.79393876081227L59.20048828125,49.1344039410167L59.74330078125,56.30772598315947L59.811152343749995,52.16539431534106L60.2521875,57.59972362737605L60.52359375,58.533795360142264L60.52359375,59.09423839980198L60.795,51.09761680977098L60.862851562500005,55.19598961058372L61.1342578125,48.45827140827504L61.1342578125,44.41564048688983L61.507441406249995,50.631868342736965L61.609218750000004,50.41651017542797L61.6770703125,48.317539808269146L61.744921875,46.087138546842L61.8127734375,54.30249678268159L61.880625,44.45262693199399L62.084179687500004,46.60934558980125L62.2198828125,44.8914129712586L62.32166015625,50.34342346506334L62.45736328125,54.384554432227375L62.593066406249996,53.06422556064811L62.66091796875,48.600662402758644L62.694843750000004,51.62410083161207L62.72876953125,52.18192029010736L62.79662109375,55.097561536188195L62.898398437500006,51.49795840985439L63.068027343749996,54.88099892986121L63.23765625,50.07687155442501L63.305507812500004,52.65131362156852L63.33943359375,55.791980839886946L63.37335937500001,55.29749918614901L63.47513671875,51.02292949671683L63.509062500000006,59.02019021977125L63.54298828125,56.5443086734268L63.88224609375,58.01149783012886L64.01794921875,60.06437280032651L64.11972656249999,61.67651924618389L64.2554296875,54.998732883841555L64.2554296875,50.99206106643615L64.42505859375,50.31506350038437L64.5268359375,52.07869340276332L64.90001953125,53.798027081873215L64.96787109375,50.33735375502967L65.1375,44.9725396036516L65.2053515625,47.008106951092515L65.34105468749999,53.83358163521973L65.57853515625,60.25271354718936L65.6124609375,64.43694584551835L65.71423828125,57.49094284766355L65.7481640625,62.34790560335752L66.32490234375,56.356304051765235L66.4266796875,40.48290794347079L66.73201171875,37.98510439523801L66.901640625,39.230838400645666L66.93556640625,42.18879441992854L66.9694921875,45.99675116506657L67.27482421875,44.3407230811319L67.5123046875,43.07345908921286L67.54623046875,43.02377963622433L67.8515625,49.81836975416891L67.9194140625,48.534240553360036L68.05511718749999,45.19212646454312L68.36044921875,44.96411906107835L68.46222656249999,40.687104383084744L68.8693359375,44.0337416770592L69.072890625,45.501593989129134L69.1407421875,37.96043133089205L69.1407421875,33.43573373594981L69.17466796875,31.846164867244056L69.20859375,34.38579684605412L69.27644531249999,45.927208752850504L69.344296875,47.02074554389813L69.48,47.302574524872455L69.71748046875001,46.91276648890687L70.29421875,44.55702024777173L70.3620703125,45.6600585585623L70.4977734375,54.8820630748058L70.6334765625,55.586741302962096L70.83703125000001,57.01036118083272L71.00666015624999,49.71990035778762L71.0405859375,48.851610428837915L71.07451171875,57.77977855236912L71.17628906249999,54.23771755140811L71.21021484375001,54.19756733197907L71.34591796875,43.30737597871686L71.41376953125,45.864067042150964L71.75302734375,45.06466622731253L71.85480468749999,48.431902889239666L71.85480468749999,50.452244886395974L71.88873046875001,46.91183163351033L71.95658203125,46.54769782191019L72.02443359375,47.16395742811699L72.02443359375,47.53371319184106L72.16013671875,48.23520796721141L72.1940625,51.063802683102594L72.29583984374999,47.47834786086787L72.601171875,47.51437793649981L72.77080078125,52.484168217147754L72.872578125,42.89635545634923L72.97435546874999,42.19039020029561L73.04220703125,43.68901864837048L73.24576171874999,45.716760121369816L73.27968750000001,32.2662496892392L73.686796875,28.689551522850024L73.85642578125,31.969144394659708L74.4331640625,37.313135790526246L74.46708984374999,33.61478952106799L74.50101562500001,38.548948296142754L74.73849609375,33.32749135019776L75.24738281249999,36.48965773471181L75.3830859375,45.80141814553892L75.48486328125,49.90913788695673L75.5187890625,52.44733908022802L75.55271484375,43.24488946308409L75.6544921875,46.357686086395574L76.0616015625,49.16135696117263L76.09552734374999,55.823158889594936L76.26515625,58.37873851820031L76.29908203125001,60.94722437208516L76.36693359374999,63.64073371647025L76.6044140625,71.01197625221506L76.70619140625,63.32797008985885L76.8758203125,63.94684628898588L77.11330078125,61.58579821768893L77.18115234375,60.66656947516903L77.21507812499999,63.426493632310724L77.65611328125,65.21069583357728L77.85966796875,70.18569231174035L78.029296875,65.90024872445686L78.13107421875,63.47650670100876L78.40248046875,68.65588003248907L78.5042578125,71.43683107130451L78.53818359374999,66.15854249698732L78.7756640625,62.50822788728557L78.87744140625,61.329355086642835L78.94529296875,63.178050748465296L79.35240234375,62.76276140956236L79.4541796875,61.95314065334725L79.55595703125,64.55262433195773L79.75951171875,62.94689816978237L79.89521484375,62.57104886173907L80.1326953125,66.3470710501599L80.33624999999999,67.65886763763628L80.4041015625,67.19514381049599L80.64158203125,63.933626665696494L80.64158203125,61.97671637881682L80.6755078125,62.13775511355236L81.2183203125,55.20323479652076L81.25224609375,55.34941776345475L81.25224609375,55.43712754361512L81.55757812499999,56.69892129976074L81.82898437499999,60.38001540164106L81.8968359375,63.628620613649204L82.643203125,61.28942786678708L82.77890624999999,57.88213755286576L82.94853515624999,57.57497802114432L83.0503125,64.59279389522042L83.1181640625,67.43664972106893L83.38957031250001,62.3419370646392L83.42349609375,63.12898988718344L83.457421875,61.949471670092535L84.23771484375,62.558856837359855L84.37341796875,61.249151992709L84.78052734375001,63.14222658443268L84.91623046875,64.97848815247876L84.98408203125,64.1211058714082L85.05193359375001,56.72736186836724L85.085859375,57.39162491384229L85.25548828125,59.10731979080772L85.32333984375,56.99171211366959L85.45904296875,60.67065946178472L85.49296875,63.67818487037188L85.90007812500001,62.25394039265534L85.96792968749999,57.75425652418119L86.00185546875001,60.73314472373849L86.47681640625,55.13660350791531L86.88392578125,49.67143487052948L87.12140625,49.90628906124567L87.257109375,45.99598278931387L87.35888671875,48.23851730287964L87.42673828125,41.59091379430882L87.528515625,46.27029521082309L87.79992187500001,40.80752482300275L88.10525390625,38.795949160890416L88.13917968749999,44.60341475128871L88.24095703125,43.6646755463926L88.30880859375,39.00427455096437L88.71591796875,39.46650085420305L88.74984375,40.33161574144856L88.885546875,46.17937473082361L88.91947265625,45.178860211297575L88.9533984375,52.303210227270185L88.98732421875,45.65544834040426L88.98732421875,41.66679120828471L89.428359375,48.720267426695955L89.5640625,45.19525791150559L89.97117187500001,45.97496757664234L90.106875,47.51595191826536L90.34435546875,46.92954759062488L90.37828125,47.56960963605019L90.6496875,47.63161835980614L91.15857421874999,51.5087533316337L91.19250000000001,56.41037825788891L91.36212890625,51.419842723996354L91.63353515625,47.69837487584624L91.7353125,47.924656836212506L92.10849609374999,50.86579823035635L92.14242187500001,51.58256550769238L92.24419921875,57.64939179329642L92.41382812500001,59.12020354546296L92.44775390625,55.079431727616125L92.58345703125,51.53868988032879L92.68523437500001,51.06559479679001L92.78701171875,52.1525895747061L92.8887890625,53.92762717921039L92.956640625,45.60456492050997L93.228046875,48.02723093543656L93.4316015625,55.80865209494468L93.49945312499999,47.679878146784546L93.60123046875,43.023928878677594L93.87263671875,47.46180711017141L93.90656249999999,46.79260861187467L94.00833984375,47.03461655078402L94.07619140625,48.341306435884434L94.34759765625,44.65539225751897L94.6529296875,40.04481812164843L94.9921875,41.45213456275235L95.29751953125,44.55916973237973L95.33144531250001,47.79997596439725L95.36537109375,43.45181846622964L95.39929687499999,44.26738682921854L95.4671484375,46.962464105248415L95.7385546875,50.71918367045561L95.942109375,51.040683046008695L96.17958984375,49.60347958996044L96.6884765625,45.80372663172707L96.72240234375,50.86065641892368L97.12951171875,50.092772527209235L97.19736328125,53.257286260755066L97.2312890625,57.673292372674425L97.33306640625001,60.324192055197656L97.3669921875,55.89874173017135L97.40091796875,52.35212130512281L97.57054687499999,55.449259053310385L97.67232421875,56.811596608069635L97.9098046875,49.18626358407349L98.0455078125,47.624564493324925L98.2490625,45.656996012866074L98.28298828125,52.181581881585004L98.35083984375,46.29732739533159L98.55439453125,42.69877003082533L98.62224609375001,37.98451480845179L98.69009765624999,42.04214904521689L98.72402343750001,44.596319526142764L98.89365234375,50.714904699570795L98.96150390624999,51.96806209850057L99.470390625,47.71408030219456L99.5382421875,55.35343084166517L99.67394531250001,54.56599212264106L100.4203125,48.68886535317435L100.556015625,47.96016132768344L100.65779296875,54.89275682175017L100.72564453125,53.16120638677607L100.92919921875,53.563560848694195L101.0309765625,57.883492948279L101.13275390625,58.88593753370738L101.5059375,59.26287082630073L101.67556640625,64.5252598138828L101.77734375,59.957063671690335L101.913046875,58.93446965314655L101.94697265625,57.1454032104258L102.15052734375,50.10281525282147L102.32015625,51.81386083100813L102.38800781249999,58.5258787630646L102.55763671875,63.68254282918916L103.3379296875,70.67986013002466L103.43970703125,73.01789030408248L103.43970703125,74.42070840851719L103.60933593749999,76.01075901713901L104.86458984375001,70.80803463396671L105.03421875000001,67.40819271919925L105.06814453125,68.65461639237445L105.10207031249999,65.1412298690961L105.13599609375001,63.86437741944965L105.169921875,63.2464260415171L105.20384765625,57.74146863939899L105.61095703125,66.85257256049888L105.712734375,65.91690934139017L105.74666015625,68.55492770669318L105.88236328125,67.86368222236811L106.08591796875,62.79469320131403L106.22162109374999,68.11956080280376L106.28947265625,70.36550421968587L106.28947265625,71.71307026981516L106.56087890625,78.64615216208621L106.83228515625,76.78511617548256L106.93406250000001,79.34479876699739L107.00191406249999,78.8636904221473L107.1376171875,75.79538560660687L107.17154296874999,72.12631522075368L107.341171875,67.89211864886336L107.4090234375,66.65182210496398L107.51080078125,69.20462056189182L107.57865234375,67.15044672613065L108.0196875,67.51105848000132L108.18931640625,72.32624935641684L108.42679687500001,74.01682187489399L108.5625,69.63949572695164L108.66427734375,67.59692123780891L108.73212890625,73.72440647761569L108.73212890625,77.40089762149975L109.07138671874999,71.04070884932393L109.10531250000001,74.63931874174216L109.20708984375,74.05997528948392L109.7159765625,69.23520703033692L109.81775390625,72.60246831827989L110.08916015625,67.8871706289591L110.1230859375,68.19469851259053L110.3944921875,69.87000630749878L110.42841796875,70.91732352877497L110.73374999999999,71.11770839847802L110.76767578125,68.71489128365272L110.8016015625,69.39700404842033L110.97123046875,72.5570546978127L111.14085937499999,71.37811758271515L111.58189453125,70.4788655432853L111.6158203125,60.321112092290264L111.819375,50.74442324273589L111.85330078125,59.19025040690444L111.8872265625,63.133357012476225L111.92115234375,69.8636755963371L112.12470703125001,67.259233908315L112.4300390625,68.00014226954556L112.769296875,69.61324749567166L112.905,69.60909910260743L113.040703125,68.56259741638709L113.1085546875,73.12686400971668L113.21033203125,72.49599357811013L113.24425781250001,68.65163955023554L113.24425781250001,66.34502713351077L113.41388671874999,66.07402613311088L113.854921875,69.86910718007647L113.95669921875,62.82332463813039L114.22810546875,64.19635669126393L114.397734375,65.1853600682177L114.46558593750001,62.38663457512823L114.49951171875,63.431336925379384L114.63521484375,59.31518291322192L114.73699218750001,61.017388076784016L114.77091796875,65.041494477774L114.940546875,61.16130560731824L115.0083984375,61.18348243623073L115.11017578124999,56.4833372086585L115.1441015625,61.58174982008366L115.24587890625,62.021904436551964L115.34765625,69.91742954958026L115.38158203124999,66.1153137872776L115.41550781250001,69.34714436597726L116.026171875,64.24777112788809L116.2297265625,63.07391700140407L116.53505859375001,68.38482620484287L116.568984375,65.17038071371721L116.90824218750001,60.174497917033705L116.94216796875,58.95030269952592L117.28142578125,57.68102264643146L117.68853515625,56.03849659702034L117.7224609375,57.60273462931846L117.95994140625,51.15286725933899L118.09564453125,51.817049388228384L118.23134765625,53.500131522316764L118.29919921875,52.8747562926162L118.333125,53.41834342058485L118.333125,53.74449569736602L119.0794921875,58.45640556576322L119.18126953125,59.68125973900085L119.24912109375,62.72018404597915L119.35089843749999,56.07067432934922L119.58837890625,53.871329422042436L119.62230468749999,53.882696539039074L119.62230468749999,53.88951680923708L119.7580078125,50.477601525738706L120.06333984375,55.95015516541784L120.4365234375,60.689025889373625L120.53830078125,61.32608209639949L120.87755859375001,63.72460739324272L120.911484375,58.78653680704946L121.01326171875,56.97030671667082L121.454296875,62.36796391234343L121.5221484375,59.50086118735359L121.75962890625,61.057237166514014L121.82748046875001,59.97664293592493L122.1328125,64.61709868794058L122.268515625,62.93865642753602L122.64169921875,60.552794524488675L122.70955078125,62.01072679110743L122.77740234375001,66.08347634914804L122.811328125,60.366784567962284L123.25236328125,60.70652891756666L123.625546875,63.26847549605223L123.86302734374999,62.36917790554472L124.13443359374999,66.76239043753495L124.3040625,62.76858986624542L124.57546875,57.124384190385626L124.81294921874999,56.53210365146106L124.84687500000001,53.0797211083522L125.18613281249999,56.616265725254394L125.5932421875,58.12723928623596L125.62716796875,58.33820523921888L125.8646484375,59.26474427678525L126.16998046875,59.15403882609537L126.23783203125001,61.71613226333547L126.30568359374999,61.454095014536065L126.9502734375,63.81328163431195L127.05205078125,65.71630737356351L127.11990234375,63.852952244311325L127.2216796875,72.8071611136626L127.32345703125,69.3963204591233L127.42523437499999,64.79899283043073L127.45916015625001,68.26223608341098L127.4930859375,71.18378204832311L127.9001953125,67.17183572021571L128.0358984375,66.20653320332552L128.34123046874998,64.85586843133355L128.40908203125,64.56037310276544L128.4430078125,62.885339836589466L128.6465625,58.190303947132776L128.68048828125,63.72908376448852L128.782265625,60.44391146003039L128.9858203125,67.20323013930815L129.08759765625,60.34154438074329L129.2572265625,68.54494647444236L129.42685546875,65.5673115219388L129.90181640625,60.07607783741763L129.9357421875,63.45377400069053L130.00359375,59.7250957788072L130.24107421875,59.378442837749475L130.953515625,66.99210137498314L130.98744140625,74.08403108486435L131.29277343750002,71.88362794181592L131.59810546875,72.4250133703959L131.9034375,73.84434165365755L131.93736328125,70.11358479412368L132.039140625,72.81472223197353L132.1069921875,73.33126945759959L132.41232421875,77.21796655053899L132.44625,72.8486217546538L132.71765625,77.82684901649682L132.78550781250001,79.09841026224898L132.88728515625,75.67737818786348L133.36224609375,76.7285254512516L133.396171875,75.08527534435234L133.49794921875,77.25218860847325L133.80328125,74.32236401731632L133.83720703125,59.33449381793412L133.97291015624998,65.7949458834396L134.10861328125,69.83236386677028L134.2782421875,68.4270910714032L134.31216796875,65.64735522061493L134.481796875,68.53267587741409L134.5496484375,70.9422287336823L134.5496484375,72.38796044744322L134.88890625,72.75908822106975L134.9567578125,76.83796467452996L134.99068359375,72.88037294409412L135.05853515625,69.92163777258472L135.2281640625,69.00216910970447L135.53349609375002,67.3565328997263L135.87275390624998,66.37442918429572L135.94060546875,67.01000024822032L136.11023437499998,72.09094997294297L136.21201171874998,69.75627665761414L136.21201171874998,68.35547266841684L136.27986328125002,70.94306656254534L136.34771484375,70.05529099586315L136.7208984375,73.01365986494706L137.02623046875,68.08492845584772L137.09408203125003,67.62881137953929L137.16193359375,64.89755391812814L137.43333984375002,64.99828814718951L137.46726562499998,67.58690537689843L137.63689453125002,66.82274482434632L137.738671875,67.4841141766961L137.77259765624999,65.5629785705972L137.87437500000001,63.44775285368236L137.90830078125,67.88784939182526L137.9422265625,67.06635346801646L138.14578125,75.10945158043084L138.17970703125002,75.04935176835106L138.21363281249998,68.85645281949009L138.6207421875,69.00444361873622L138.7564453125,66.05560932637734L138.824296875,70.49756118658053L139.095703125,78.23386459859444L139.26533203125,75.39999631390833L139.26533203125,73.69967534309664L139.2992578125,76.39947326149361L139.40103515625,70.1430739400632L139.638515625,78.39909563274918L139.7063671875,78.69973884376836L139.8420703125,72.96535873605684L139.94384765625,75.41121562682504L140.14740234375,76.23165674825532L140.5884375,73.11555445977653L140.995546875,70.05014546190284L141.0633984375,76.14135543250315L141.0633984375,79.79608141486334L141.1991015625,70.8847922011834L141.4705078125,65.34155430559522L141.67406250000002,63.00034235564824L141.84369140625,67.16960385472396L141.97939453125,69.29184740766287L142.081171875,66.23337297139874L142.48828125,60.955144036585054L144.35419921874998,80.74192528724404L144.48990234375,90.83797359732414L144.9309375,98.0507256668434L145.30412109375,103.19226974405215L145.43982421875,103.81151008315372L145.71123046875,108.38687045166161L145.74515625,107.82451572517816L145.880859375,110.18371099191451L146.2201171875,111.48212304553535L146.55937500000002,112.64523166565958L146.59330078124998,109.62636444240809L146.6272265625,109.81899944554914L146.8986328125,114.5248886314919L147.5771484375,116.47681567136324L148.39136718749998,117.53598580868804L148.59492187499998,121.9582388417853L148.62884765625,125.21212997777056L148.730625,121.17977160978153L149.0698828125,119.07353822175799L149.37521484374997,120.76712700471903L149.4769921875,122.87129601927576L149.81625000000003,126.07092366019393L149.98587890625,128.21556132067715L151.20720703125,128.16455613908317L151.5125390625,124.61781394334636L151.580390625,126.48440236938026L151.71609375000003,128.2140439351452L151.9196484375,125.60574738416204L152.02142578125,125.35765597240002L152.25890625000002,124.45002387292323L152.5303125,126.3427316029582L152.63208984374998,125.22286431453854L152.90349609375,124.76450944850144L153.03919921875,122.56464269504244L153.17490234374998,126.06093016062513L153.9551953125,128.88046998131182L154.0908984375,128.84288900607544L154.32837890625,127.61983873232569L154.46408203125,130.34835579008114L154.83726562500001,133.24199207299785L155.244375,133.15322099306348L155.7871875,134.42445955647688L156.63533203125,132.55768386346082L157.14421875,133.52173883964625L157.6191796875,135.34595214765608L157.8905859375,131.01531281218698L158.1619921875,133.76480776318027L158.365546875,130.61898407857927L158.39947265625,132.67512010672894L158.97621093749999,134.28172773786144L159.28154296875002,132.64907131804745L159.75650390624997,133.8304192897564L159.85828125,134.33757723496444L160.6046484375,136.26770702541228L161.18138671875002,136.911201755471L161.58849609375,137.7316823552684L161.6902734375,135.22730132867565L161.893828125,136.22313680722664L162.5044921875,136.27275662955526L162.57234375,136.61507539726426L163.1830078125,130.7156777898366L163.31871093750001,131.00699080442214L163.42048828125002,133.6201905827803L164.03115234375,134.65364864601855L164.16685546875001,136.36309305892541L164.4043359375,139.72330736630573L164.84537109375,139.63155668214634L165.04892578125,137.49405468011796L165.52388671875,139.90593563144222L165.93099609375,140.77380374815755L166.4398828125,141.6902579735725L166.7112890625,139.62194458540785L166.74521484375,142.07724237818687L167.49158203125,141.27659580959588L167.62728515625,142.20509280929014L168.10224609375,139.2477827532641L168.50935546875,140.5568509570103L168.54328125,140.86180742944543L168.78076171875,135.94119322686157L169.25572265625,140.75780209991393L169.45927734375002,140.14141770957937L169.69675781249998,134.74844167578252L169.764609375,138.51791544020188L170.06994140625,138.23946076061154L170.13779296874998,135.65006957933628L170.17171875,136.32558311652747L170.81630859375,137.67195377596994L170.9180859375,140.16470877322064L171.22341796875,140.22346314530034L171.664453125,140.63294743396455L172.13941406249998,141.5957891970951L172.47867187499997,138.92094614586836L173.021484375,140.1176003688824L173.39466796874999,141.66100955516592L174.00533203125,142.34863099742333L174.34458984375001,138.7150053292685L174.37851562499998,140.19284054171817L174.5820703125,140.9947899725235L174.81955078124997,141.2430466380116L174.95525390625,143.50614980181876L174.9891796875,143.7427319622756L175.02310546875,143.25306286748344L175.76947265625,141.48630139751623L175.80339843750002,141.1860732748509L175.93910156249999,142.04714322653285L176.006953125,143.18460305901945L176.31228515625,136.44957045376637L176.44798828125,140.96229931806027L177.4318359375,141.76285122172422L177.46576171875,143.1219030686956L177.77109375,143.82267716640808L177.87287109375,140.6316056893094L178.1103515625,142.00024430269713L178.449609375,142.2415714036382L178.48353515625,143.09789576141873L178.51746093749998,144.88020396430062L178.55138671875,146.6243012937976L178.721015625,146.50160055678876L178.9245703125,144.43178400706788L179.06027343749997,142.44917130661258L179.128125,140.47071334813293L179.6709375,141.95566333576875L179.87449218749998,140.23336467515477L179.90841796875,141.26434043188848L180.17982421874999,140.3642138803719L180.8244140625,142.0804501235495L181.40115234375003,142.9475142373828L182.28322265625002,143.08834541010657L183.063515625,145.43956777191067L183.50455078125,145.09376735154984L183.606328125,145.2234070755084L184.65802734374998,144.86783516774935L184.691953125,143.9921004938024L185.234765625,142.88040785875205L185.26869140625,140.00418472180775L185.60794921875,142.7688989917055L185.7097265625,138.46178155913094L185.777578125,142.36456307403907L186.15076171875,145.06806508127025L186.35431640625,145.32205554212538L186.45609375,145.54108319631774L186.591796875,145.04704650434664L187.2024609375,145.50568232200396L187.23638671875,146.23092020634556L187.37208984375,145.9375884751701L187.4738671875,144.17410309846744L187.54171874999997,143.46059417504753L188.0166796875,144.76284820672754L188.1523828125,141.14273187847186L188.52556640625002,142.66576691921122L188.62734375,143.41856285162794L189.305859375,145.59772772557045L189.577265625,143.37078917512008L189.9165234375,143.74009976739066L189.95044921875,145.08658952437747L190.32363281250002,143.71748047971826L191.10392578125,144.41334251417683L191.2735546875,146.4454052116336L191.85029296875,146.11913064794587L193.34302734374998,144.39594675257632L193.376953125,146.40668095448794L193.51265625,145.2467452563335L193.648359375,144.23764917920576L194.2590234375,145.84571893933622L194.462578125,145.7300176151007L194.49650390624998,146.0841077842175L195.92138671875,144.90122909814187L196.19279296875,145.11740790928482L196.46419921875003,145.330284814391L196.498125,143.45403032638245L197.07486328125,142.63330677560091L197.5158984375,144.1069231460288L197.6516015625,147.43277237813354L198.02478515625,146.9230128388321L198.43189453125,141.83492242432655L198.533671875,144.66580512072986L198.6015234375,140.8204236232949L198.73722656249998,140.11427115710484L199.0086328125,143.4394673462943L201.04417968750002,146.1852567960161L201.24773437500002,147.44530347292323L201.28166015624998,147.07036806132905L201.34951171875,145.44134037677117L201.8583984375,147.49617756712888L202.09587890625,148.13135482164398L202.876171875,148.2918537027748L203.011875,146.78058628428442L203.38505859375002,148.20020353718897L203.48683593750002,147.89663942005365L204.06357421874998,148.66095441701145L204.26712890625,148.8585824092245L204.7081640625,148.55086138627883L205.38667968750002,148.51160712877117L205.69201171875,147.96757793264632L206.23482421875,146.20491461428753L206.30267578125,146.6444745441862L206.6080078125,147.0636522491195L206.91333984375,148.17060610378672L207.18474609375,148.64539817040423L207.86326171874998,148.4379857053256L207.93111328125,148.52425033142L208.032890625,146.93237615518558L208.1007421875,147.16161216519455L208.30429687499998,147.85307628163065L208.71140625,145.82187449019062L208.74533203124997,145.78372645864482L208.9828125,146.53133202739292L209.08458984375,144.9869953076546L209.25421875,146.16397196551026L209.49169921875,145.84181794182695L209.55955078124998,148.25150826327516L211.289765625,147.75967197610632L211.66294921875,149.20655157124804L211.7647265625,146.9047865267156L211.93435546875,148.33176281270346L212.47716796875,149.5839574633959L212.61287109375002,149.56370637756703L212.646796875,148.98097291394689L212.7146484375,148.66262751178436L213.05390625,148.77295107124772L213.189609375,149.51016379021306L213.3253125,150.86920248030327L213.63064453125,150.5424501176126L213.6645703125,149.03299371688752L213.83419921875,150.745710560659L213.96990234375002,148.97698876416356L214.00382812499998,149.31684466104355L214.51271484375002,149.35210004635096L215.5644140625,148.88404993248898L215.9715234375,146.67756987219315L216.20900390625002,146.32868227009453L216.3786328125,148.00340435244536L216.85359375000002,149.2030572582788L217.15892578125,147.324406234466L217.66781250000003,148.580960974858L218.04099609374998,149.35477277977867L218.2784765625,149.04511164226903L218.31240234375,149.30883686761723L218.4141796875,149.1848155732821L218.617734375,147.53685103287944L219.9069140625,148.64913364505884L220.00869140625002,148.87590496053923L220.07654296875,148.89640557620493L220.1783203125,147.20933710588065L220.21224609375,148.49745344880586L220.34794921875002,148.27579044755046L221.43357421875,149.34340996502937L221.90853515625003,148.74724696236416L222.82453124999998,147.4143252965268L223.02808593749998,149.16399713722527L223.1637890625,148.7348172500525L223.774453125,149.0741033180782L223.94408203125,146.96448324772123L224.45296875,144.49029250106472L224.55474609375,145.19348151006503L224.6565234375,146.31162075683613L225.36896484375,148.9451717359303L225.7421484375,146.8889773836084L226.18318359375,149.42386871218977L226.217109375,147.17902006383113L226.5563671875,148.01218277661056L226.65814453125,147.99721661733443L226.79384765625,147.7891811258829L227.3705859375,149.66237048049538L227.4384375,150.49618562646884L227.54021484375,150.42409181366529L228.25265625,150.25510095661588L228.3205078125,151.0290377537988L228.49013671875002,150.17230909241195L228.8633203125,148.87974546468317L229.1347265625,150.49734724857595L229.2704296875,149.09918126503618L229.84716796875,150.6470656195351L230.05072265625,149.32571119520213L230.38998046875003,149.95795506730963L230.45783203125,149.0857025494497L230.66138671875,149.25661599439366L230.83101562500002,148.53658695929258L231.00064453125,149.0238774455873L231.102421875,146.68406138019006L231.61130859375,149.3741746927561L231.645234375,149.65390903631706L232.56123046875,149.86476747609544L232.83263671875002,151.7021152740203L233.17189453125002,150.95923745299748L233.545078125,151.03322406581285L234.25751953125,150.71466518218145L234.46107421874999,150.13986684424063L234.8342578125,149.8919011247648L234.86818359375,150.4516687140453L235.95380859375,152.12680637914724L235.987734375,152.38813183330583L236.1912890625,151.08747170039646L237.95542968750001,151.51991203920042L238.02328125,150.55121468305845L238.26076171875,149.8193823603099L238.3625390625,151.73276827399434L238.60001953125,151.43081336784098L239.516015625,152.67805111331558L240.22845703125,152.1671257244246L240.56771484375,153.06033985874444L241.11052734375,152.5724366718096L241.17837890625,152.11580602770908L241.24623046874999,152.82773399650108L241.415859375,152.53726382011956L242.501484375,152.08103272705483L242.67111328124997,153.14103541448927L243.044296875,152.26952061886476L243.07822265625,152.12059046710343L243.11214843750003,152.5172001994461L243.21392578125,153.06598599677034L243.75673828125,153.4985273765984L244.672734375,151.40735765074328L244.77451171875,151.5480909831724L245.45302734375002,152.3307679965536L245.65658203125,152.6358636622936L245.6905078125,152.6813284335098L246.572578125,152.09395092791607L246.81005859375,152.91475077107566L246.87791015625,153.3964385787093L247.0475390625,152.033185837264L248.16708984375,151.66053471560969L248.26886718749998,151.1820162531951L248.91345703125,152.8651821803041L248.9473828125,152.3173387104565L249.25271484375003,150.12734377168485L249.4901953125,152.0323138463693L249.59197265625,151.87954309513185L249.829453125,151.92812372041024L249.93123046875,152.4169248447797L250.5758203125,151.04255954663952L250.67759765625001,151.96783543872596L251.01685546875,151.10499243421035" style="fill: none;" fill="none"></path></g></g></g></g><g opacity="0.20000000298023224"><g><g><g><path stroke="rgb(255, 112, 67)" stroke-width="2px" d="M34.231113281249996,30.299162759699612L34.332890625,34.63019078301099L34.604296875,45.26854982387951L34.638222656249994,23.385450721041053L34.6721484375,14.44040321385151L34.875703125,13.448999633546919L35.113183593749994,31.206975757483065L35.18103515625,61.882154010447934L35.52029296875,46.82552680373192L35.65599609375,47.233578929762274L35.72384765625,50.64340019048278L36.063105468749995,29.444033509459018L36.538066406249996,27.917589977256625L36.60591796875,58.076674674044966L36.74162109375,46.76855512429029L37.01302734375,36.606289016463876L37.046953125,39.035559018904536L37.7933203125,42.24145057463002L37.89509765625,47.30576313164255L38.132578125,32.912006835368544L38.23435546875,45.14619922773406L38.3361328125,37.4684162679213L38.43791015625,53.541174931875005L38.5396875,50.965886394577964L38.878945312499994,37.573422420431285L39.1503515625,44.0470432913439L39.184277343750004,30.830529062077403L39.31998046875,44.993724705524414L39.659238281250005,54.709564105776906L39.794941406250004,51.58746789336544L40.06634765625,45.94865677518433L40.13419921875,59.67990350359206L41.0501953125,51.95713339309971L41.08412109375,38.94616286566651L41.355527343750005,55.81076765009625L41.42337890625,46.24147675381127L41.4573046875,61.122485446341514L41.7287109375,52.214228635738536L41.76263671875,57.802596330346375L41.7965625,52.38244564949791L41.966191406250005,49.0062774273313L42.2715234375,56.7847183839926L42.64470703124999,26.813062081240474L42.91611328125,46.123823611150414L43.017890625,48.833941108208506L43.458925781249995,59.71750722097403L43.6285546875,58.10753333001314L43.73033203125,30.627081147183418L43.86603515625,46.85017036739737L43.86603515625,46.85017036739737L44.4427734375,29.222313704985112L44.47669921875,37.78461511119863L44.68025390625,41.08743079049006L44.78203125,40.825963302684784L44.81595703125,47.57822747850284L44.8498828125,43.564482326196014L44.88380859375,46.72866290392864L44.917734375,35.23920960491523L45.121289062500004,47.286599930375814L45.29091796875,38.5632481381551L46.03728515625,37.823230587792665L46.105136718749996,36.08843692641875L46.17298828125,16.721173462415635L46.30869140625,33.63590850685301L46.44439453125,31.835230049169212L46.681875,44.42669389092109L46.749726562499994,51.53072506422177L46.88542968749999,35.62309995738113L46.953281249999996,46.436011551837026L46.98720703125,52.577064760791316L47.0211328125,32.967207936189055L47.1568359375,44.51460853959858L47.224687499999995,23.142206943805576L47.25861328125,18.48532018569213L47.360390624999994,29.759015832731336L47.39431640625,38.938911924646675L47.46216796875,29.953887883827775L47.53001953125,31.613172991624623L47.631796875,53.800883885811686L47.631796875,53.800883885811686L48.03890625,25.38427740250799L48.1067578125,37.88340617140588L48.649570312499996,45.0898538754237L48.785273437499995,36.98118193879387L48.887050781250004,34.104654140855104L49.12453125,11.26209414140746L49.1923828125,24.79656574781984L49.29416015625,39.32834286327389L49.3280859375,57.008786915208816L49.42986328125,19.90051838357678L49.4637890625,38.83193043272266L49.701269531250006,41.19349688122219L49.7351953125,22.46712265430358L49.90482421875,27.006850104609697L49.93875,21.71159146268937L50.10837890625,26.08867861965504L50.176230468750006,42.353960607962875L50.24408203125,40.73312235022473L50.37978515625,49.04659121403134L50.4137109375,23.252211668613285L50.51548828125,45.48687300814149L50.51548828125,45.48687300814149L50.617265625,26.385750395923168L50.92259765625,32.357827771709054L50.9565234375,41.45173637535086L51.12615234374999,34.642018729990184L51.6350390625,38.44994315115568L51.83859375,32.0738968204453L51.940371093749995,26.366201762575656L52.00822265625,15.475830364633708L52.0421484375,48.96168775348502L52.11,42.88662774361333L52.21177734375,35.525971073022305L52.27962890625,23.544501678129166L52.4492578125,42.08148421635005L52.551035156249995,29.175820960239946L52.6528125,13.607966277367353L52.82244140625,41.73348722640765L53.5348828125,38.179634814997286L53.602734375000004,43.48233711397785L53.602734375000004,43.48233711397785L53.636660156249995,32.96076399358836L53.941992187500006,46.33475131736222L54.145546875,38.81286358947611L54.38302734375,40.50076702927154L54.824062500000004,51.96846750522542L55.027617187500006,45.97403506875378L55.19724609375,49.08385767834261L55.26509765625,51.077228086915895L55.2990234375,36.81232655315068L55.63828125,31.780293932904243L55.74005859375,53.70252643669534L55.87576171875,31.818776917220532L55.9775390625,43.49311716748741L56.2489453125,33.39603726032445L56.28287109375,41.01300626464021L56.48642578125,55.28697749705647L56.5203515625,54.803645667747006L56.588203125,88.07289624957114L56.588203125,88.07289624957114L57.402421875,79.45185258529487L57.4702734375,61.75044464159082L57.50419921875,25.62736459796062L57.538125,38.99930431380531L57.91130859375,63.40009996974419L58.11486328125,54.26523318514228L58.1487890625,50.34475055163388L58.2844921875,46.959416272796005L58.352343749999996,64.97555359996942L58.759453125,56.09709550711243L58.793378906250005,71.64004164176401L58.9630078125,38.25431228065017L59.0987109375,52.76787773028694L59.1665625,45.39280349092391L59.20048828125,48.14510171132332L59.74330078125,67.06770904637365L59.811152343749995,45.951896813613445L60.2521875,65.75121759542857L60.52359375,59.93490295929159L60.52359375,59.93490295929159L60.795,39.10268442472443L60.862851562500005,61.34354881180282L61.1342578125,38.351694104812026L61.1342578125,38.351694104812026L61.507441406249995,59.9562101265077L61.609218750000004,50.09347292446448L61.6770703125,45.1690842575309L61.744921875,42.74153665470129L61.8127734375,66.62553413644095L61.880625,29.677822155962616L62.084179687500004,49.84442357651214L62.2198828125,42.3145140434446L62.32166015625,58.52143920577048L62.45736328125,60.4462508829734L62.593066406249996,51.08373225327921L62.66091796875,41.9053176659244L62.694843750000004,56.159258474892184L62.72876953125,53.01864947785032L62.79662109375,59.47102340530944L62.898398437500006,46.09855372035369L63.068027343749996,59.955559709871366L63.23765625,42.87068049127069L63.305507812500004,56.512976722283796L63.33943359375,60.50298166736452L63.37335937500001,54.55577670554209L63.47513671875,44.61107496256855L63.509062500000006,71.01608130435291L63.54298828125,52.8304863539101L63.88224609375,60.21228156518191L64.01794921875,63.143685255623L64.11972656249999,64.09473891496998L64.2554296875,44.98205334032801L64.2554296875,44.98205334032801L64.42505859375,49.29956715130672L64.5268359375,54.72413825633174L64.90001953125,56.377027600537986L64.96787109375,45.14634376476434L65.1375,36.9253183765845L65.2053515625,50.06145797225393L65.34105468749999,64.0717936614105L65.57853515625,69.8814114151438L65.6124609375,70.7132942930118L65.71423828125,47.07193835088137L65.7481640625,69.63334973689847L66.32490234375,47.3689017243768L66.4266796875,16.672813781029134L66.73201171875,34.23839907288891L66.901640625,41.09943940875715L66.93556640625,46.6257284488529L66.9694921875,51.7086862827736L67.27482421875,41.85668095522985L67.5123046875,41.17256310133433L67.54623046875,42.94926045674154L67.8515625,60.01025493108584L67.9194140625,46.60804675214669L68.05511718749999,40.17895533131775L68.36044921875,44.62210795588115L68.46222656249999,34.27158236609435L68.8693359375,49.05369761802089L69.072890625,47.703372457234025L69.1407421875,26.648687343536466L69.1407421875,26.648687343536466L69.17466796875,29.46181156418541L69.20859375,38.195244814269245L69.27644531249999,63.239326613045066L69.344296875,48.661050730469555L69.48,47.725317996333956L69.71748046875001,46.32805443495852L70.29421875,41.02340088606897L70.3620703125,47.314616024748176L70.4977734375,68.71506984917109L70.6334765625,56.64375864519654L70.83703125000001,59.14579099763863L71.00666015624999,38.784209123219966L71.0405859375,47.549175535413355L71.07451171875,71.17203073766592L71.17628906249999,48.92462604996663L71.21021484375001,54.13734200283547L71.34591796875,26.97208894882351L71.41376953125,49.69910363730213L71.75302734375,43.86556500505489L71.85480468749999,53.48275788213043L71.85480468749999,53.48275788213043L71.88873046875001,41.60121175418186L71.95658203125,46.00149710450998L72.02443359375,48.08834683742714L72.02443359375,48.08834683742714L72.16013671875,49.287450130266905L72.1940625,55.306694756939336L72.29583984374999,42.10016562751579L72.601171875,47.56842304994777L72.77080078125,59.93885363811967L72.872578125,28.514636315151364L72.97435546874999,41.13144231621516L73.04220703125,45.93696132048288L73.24576171874999,48.75837233086881L73.27968750000001,12.090484041043311L73.686796875,23.324504273266285L73.85642578125,36.88853370237419L74.4331640625,45.32912288432604L74.46708984374999,28.067270116880536L74.50101562500001,45.950186458754956L74.73849609375,25.495305931280285L75.24738281249999,41.232907311482876L75.3830859375,59.76905876177956L75.48486328125,56.070717499083415L75.5187890625,56.25464087013495L75.55271484375,29.441215037368238L75.6544921875,51.026881021362826L76.0616015625,53.36686327333818L76.09552734374999,65.81586178222841L76.26515625,62.212107961108416L76.29908203125001,64.79995315291244L76.36693359374999,67.68099773304793L76.6044140625,82.0688400558323L76.70619140625,51.80196084632455L76.8758203125,64.87516058767638L77.11330078125,58.04422611074354L77.18115234375,59.287726361389204L77.21507812499999,67.56637986802328L77.65611328125,67.88699913547714L77.85966796875,77.64818702898496L78.029296875,59.47208334353161L78.13107421875,59.84089366583663L78.40248046875,76.42494002970953L78.5042578125,75.60825762952764L78.53818359374999,58.24110963551159L78.7756640625,57.032755972732886L78.87744140625,59.56104588567872L78.94529296875,65.95109424119902L79.35240234375,62.13982740120794L79.4541796875,60.73870951902461L79.55595703125,68.45184984987348L79.75951171875,60.53830892651935L79.89521484375,62.00727489967409L80.1326953125,72.01110433279115L80.33624999999999,69.62656251885083L80.4041015625,66.49955806978556L80.64158203125,59.041350948497325L80.64158203125,59.041350948497325L80.6755078125,62.37931321565571L81.2183203125,44.801454320973306L81.25224609375,55.568692213855684L81.25224609375,55.568692213855684L81.55757812499999,58.59161193397914L81.82898437499999,65.90165655446155L81.8968359375,68.50152843166143L82.643203125,57.780638746493935L82.77890624999999,52.771202081983745L82.94853515624999,57.114238723562195L83.0503125,75.11951770633459L83.1181640625,71.70243345984174L83.38957031250001,54.69986807999457L83.42349609375,64.30956912099977L83.457421875,60.18019434445624L84.23771484375,63.472934588260784L84.37341796875,59.28459472573279L84.78052734375001,65.9818384720182L84.91623046875,67.73288050454788L84.98408203125,62.835032449802384L85.05193359375001,45.63674586380577L85.085859375,58.388019482054844L85.25548828125,61.68086210625586L85.32333984375,53.818300597962335L85.45904296875,66.18908048395745L85.49296875,68.1894729832526L85.90007812500001,60.11757367608054L85.96792968749999,51.00473072146997L86.00185546875001,65.2014770230744L86.47681640625,46.7417916841805L86.88392578125,41.47368191445079L87.12140625,50.25857034731996L87.257109375,40.13052338141611L87.35888671875,51.602319073228344L87.42673828125,31.619508531452595L87.528515625,53.28936733559452L87.79992187500001,32.61336924127218L88.10525390625,35.77858566772193L88.13917968749999,53.314613136886194L88.24095703125,42.25656673904848L88.30880859375,32.01367305782202L88.71591796875,40.15984030906111L88.74984375,41.629288072316825L88.885546875,54.95101321488619L88.91947265625,43.67808843200859L88.9533984375,62.98973525122909L88.98732421875,35.6838055101054L88.98732421875,35.6838055101054L89.428359375,59.3004817543128L89.5640625,39.907743638720035L89.97117187500001,47.144532074347495L90.106875,49.827428430699825L90.34435546875,46.04994109916416L90.37828125,48.52970270418817L90.6496875,47.72463144544005L91.15857421874999,57.32445578937505L91.19250000000001,63.76281564727172L91.36212890625,43.93403942315754L91.63353515625,42.116173103621065L91.7353125,48.26407977676189L92.10849609374999,55.277510321572095L92.14242187500001,52.657716423696414L92.24419921875,66.7496312217025L92.41382812500001,61.326421173712745L92.44775390625,49.01827400084585L92.58345703125,46.22757710939783L92.68523437500001,50.35595217148182L92.78701171875,53.78308174158025L92.8887890625,56.59018358596687L92.956640625,33.11997153245929L93.228046875,51.661229957826436L93.4316015625,67.4807838342068L93.49945312499999,35.486717224544435L93.60123046875,36.04000497651711L93.87263671875,54.11862445741217L93.90656249999999,45.78881086442959L94.00833984375,47.39762845914811L94.07619140625,50.30134126353501L94.34759765625,39.12652098997074L94.6529296875,33.128956917842686L94.9921875,43.56310922440818L95.29751953125,49.21972248682076L95.33144531250001,52.66118531242353L95.36537109375,36.929582218978226L95.39929687499999,45.49073937370187L95.4671484375,51.00508001929319L95.7385546875,56.354263018266394L95.942109375,51.52293210933833L96.17958984375,47.44767440588808L96.6884765625,40.104097194377005L96.72240234375,58.446051099718645L97.12951171875,48.94094668963757L97.19736328125,58.004056861073806L97.2312890625,64.2973015405534L97.33306640625001,64.30054157898253L97.3669921875,49.26056624263188L97.40091796875,47.03219066755L97.57054687499999,60.09496567559175L97.67232421875,58.85510294020854L97.9098046875,37.74826404807922L98.0455078125,45.28201585720208L98.2490625,42.705643292177825L98.28298828125,61.968460684663384L98.35083984375,37.47094566595149L98.55439453125,37.30093398406595L98.62224609375001,30.913131974891513L98.69009765624999,48.12860040036455L98.72402343750001,48.42757524753159L98.89365234375,59.89278245971285L98.96150390624999,53.847798196895226L99.470390625,41.33310760773551L99.5382421875,66.81245665087111L99.67394531250001,53.38483404410495L100.4203125,39.87317519897428L100.556015625,46.86710528944704L100.65779296875,65.29165006285025L100.72564453125,50.56388073431498L100.92919921875,54.16709254157138L101.0309765625,64.36339109765622L101.13275390625,60.38960441184993L101.5059375,59.82827076519078L101.67556640625,72.41884329525585L101.77734375,53.10476945840162L101.913046875,57.40057862533088L101.94697265625,54.4618035463447L102.15052734375,39.53893331641501L102.32015625,54.38042919828813L102.38800781249999,68.5939056611493L102.55763671875,71.41753892837602L103.3379296875,81.17583608127791L103.43970703125,76.52493556516923L103.43970703125,76.52493556516923L103.60933593749999,78.39583493007177L104.86458984375001,63.0039480592082L105.03421875000001,62.3084298470481L105.06814453125,70.5242519021373L105.10207031249999,59.871150084178566L105.13599609375001,61.94909874497999L105.169921875,62.31949897461827L105.20384765625,49.48403253622186L105.61095703125,80.51922844214873L105.712734375,64.51341451272708L105.74666015625,72.51195525464772L105.88236328125,66.82681399588051L106.08591796875,55.19120966973293L106.22162109374999,76.10686220503835L106.28947265625,73.73441934500907L106.28947265625,73.73441934500907L106.56087890625,89.04577500049278L106.83228515625,73.99356219557707L106.93406250000001,83.18432265426964L107.00191406249999,78.14202790487218L107.1376171875,71.19292838329619L107.17154296874999,66.62270964197393L107.341171875,61.54082379102793L107.4090234375,64.79137728911486L107.51080078125,73.03381824728358L107.57865234375,64.06918597248892L108.0196875,68.05197611080739L108.18931640625,79.54903567104007L108.42679687500001,76.5526806526098L108.5625,63.0735065050381L108.66427734375,64.5330595040948L108.73212890625,82.91563433732584L108.73212890625,82.91563433732584L109.07138671874999,61.50042569106023L109.10531250000001,80.0372335803695L109.20708984375,73.1909601110965L109.7159765625,61.99805464161646L109.81775390625,77.6533602501943L110.08916015625,60.814224094977945L110.1230859375,68.65599033803765L110.3944921875,72.38296799986115L110.42841796875,72.48829936068928L110.73374999999999,71.41828570303254L110.76767578125,65.11066561141475L110.8016015625,70.42017319557173L110.97123046875,77.29713067190129L111.14085937499999,69.60971191006882L111.58189453125,69.1299874841405L111.6158203125,45.08448191579771L111.819375,36.37938996840438L111.85330078125,71.85899115315725L111.8872265625,69.04801692083394L111.92115234375,79.95915347212842L112.12470703125001,63.35257137628189L112.4300390625,69.11150481139141L112.769296875,72.03290533486079L112.905,69.60287651301108L113.040703125,66.99284488705665L113.1085546875,79.97326389971106L113.21033203125,71.5496879307003L113.24425781250001,62.88510850842367L113.24425781250001,62.88510850842367L113.41388671874999,65.66752463251099L113.854921875,75.56172875052488L113.95669921875,52.254650825211286L114.22810546875,66.25590477096426L114.397734375,66.66886513364841L114.46558593750001,58.18854633549398L114.49951171875,64.99839045075616L114.63521484375,53.14095189498569L114.73699218750001,63.57069582212716L114.77091796875,71.07765407925895L114.940546875,55.34102230163461L115.0083984375,61.21674767959949L115.11017578124999,49.43311936730012L115.1441015625,69.22936873722146L115.24587890625,62.68213636125438L115.34765625,81.76071721912278L115.38158203124999,60.41214014382358L115.41550781250001,74.19489023402673L116.026171875,56.59871127075432L116.2297265625,61.313135811678066L116.53505859375001,76.35119001000105L116.568984375,60.34871247702871L116.90824218750001,52.68067372200842L116.94216796875,57.11400987326424L117.28142578125,55.777102566789836L117.68853515625,53.574707522903665L117.7224609375,59.94909167776562L117.95994140625,41.47806620436975L118.09564453125,52.813322581562474L118.23134765625,56.024754723449334L118.29919921875,51.936693448065355L118.333125,54.233724112537786L118.333125,54.233724112537786L119.0794921875,65.52427036835898L119.18126953125,61.518540998857304L119.24912109375,67.27857050644657L119.35089843749999,46.096409754404306L119.58837890625,50.57231206108224L119.62230468749999,53.89974721453409L119.62230468749999,53.89974721453409L119.7580078125,45.359728600491195L120.06333984375,64.1589856249365L120.4365234375,67.79733197530732L120.53830078125,62.281666406938314L120.87755859375001,67.32239533850755L120.911484375,51.37943092775954L121.01326171875,54.24596158110283L121.454296875,70.46444970585237L121.5221484375,55.20020709986885L121.75962890625,63.391801135254696L121.82748046875001,58.35575159004128L122.1328125,71.57778231596406L122.268515625,60.42099303692919L122.64169921875,56.9740016699176L122.70955078125,64.19762519103561L122.77740234375001,72.19260068620895L122.811328125,51.791746896183625L123.25236328125,61.216145441973254L123.625546875,67.1113953637806L123.86302734374999,61.02023151978342L124.13443359374999,73.35220923552036L124.3040625,56.777889009311124L124.57546875,48.658075676595985L124.81294921874999,55.6436828430742L124.84687500000001,47.90114729368892L125.18613281249999,61.92108265060763L125.5932421875,60.393699627708315L125.62716796875,58.654654168693185L125.8646484375,60.654552833134815L126.16998046875,58.98798065006058L126.23783203125001,65.55927241919562L126.30568359374999,61.06103914133696L126.9502734375,67.35206156397578L127.05205078125,68.57084598244084L127.11990234375,61.057919550433084L127.2216796875,86.23847441768952L127.32345703125,64.28005947731435L127.42523437499999,57.90300138739194L127.45916015625001,73.45710096288134L127.4930859375,75.56610099569133L127.9001953125,61.1539162280546L128.0358984375,64.75857942799023L128.34123046874998,62.829871273345574L128.40908203125,64.11713010991332L128.4430078125,60.37278993732552L128.6465625,51.147750112947776L128.68048828125,72.03725349052218L128.782265625,55.51615300334315L128.9858203125,77.34220815822482L129.08759765625,50.04901574289596L129.2572265625,80.85004961499097L129.42685546875,61.10085909318349L129.90181640625,51.83922731063585L129.9357421875,68.52031824559991L130.00359375,54.13207844598219L130.24107421875,58.85846342616293L130.953515625,78.41258918083356L130.98744140625,84.72192564968611L131.29277343750002,68.58302322724326L131.59810546875,73.23709151326595L131.9034375,75.97333407855001L131.93736328125,64.51744950482284L132.039140625,76.86642838874832L132.1069921875,74.10609029603869L132.41232421875,83.0480121899481L132.44625,66.29460456082597L132.71765625,85.29418990926139L132.78550781250001,81.00575213087723L132.88728515625,70.54583007628521L133.36224609375,78.30524634633383L133.396171875,72.62040018400347L133.49794921875,80.5025585046546L133.80328125,69.9276271305809L133.83720703125,36.852688518860816L133.97291015624998,75.48562398169783L134.10861328125,75.88849084176633L134.2782421875,66.31918187835254L134.31216796875,61.477751444432556L134.481796875,72.86065686261281L134.5496484375,74.55655801808462L134.5496484375,74.55655801808462L134.88890625,73.31577988150953L134.9567578125,82.95627935472028L134.99068359375,66.94398534844038L135.05853515625,65.48353501532058L135.2281640625,67.62296611538413L135.53349609375002,64.88807858475907L135.87275390624998,64.90127361114985L135.94060546875,67.9633568441072L136.11023437499998,79.71237456002696L136.21201171874998,66.2542666846209L136.21201171874998,66.2542666846209L136.27986328125002,74.82445740373805L136.34771484375,68.72362764583987L136.7208984375,77.45121316857296L137.02623046875,60.691831342198654L137.09408203125003,66.94463576507671L137.16193359375,60.800667726011454L137.43333984375002,65.14938949078153L137.46726562499998,71.4698312214618L137.63689453125002,65.67650399551813L137.738671875,68.47616820522076L137.77259765624999,62.681275161448866L137.87437500000001,60.274914278310135L137.90830078125,74.5479941990396L137.9422265625,65.83410958230327L138.14578125,87.17409874905239L138.17970703125002,74.9592020502314L138.21363281249998,59.567104396198644L138.6207421875,69.22642981760544L138.7564453125,61.63235788783906L138.824296875,77.1604889768853L139.095703125,89.83831971661526L139.26533203125,71.14919388687916L139.26533203125,71.14919388687916L139.2992578125,80.44917013908906L139.40103515625,60.758474957917585L139.638515625,90.78312817177819L139.7063671875,79.15070366029711L139.8420703125,64.36378857448953L139.94384765625,79.0800009629774L140.14740234375,77.46231843040071L140.5884375,68.44140102705835L140.995546875,65.45203196509233L141.0633984375,85.27817038840361L141.0633984375,85.27817038840361L141.1991015625,57.51785838066347L141.4705078125,57.026697462212994L141.67406250000002,59.488524430727765L141.84369140625,73.42349610333754L141.97939453125,72.47521273707126L142.081171875,61.645661317002535L142.48828125,53.03780063436453L144.35419921874998,110.42209716323255L144.48990234375,105.98204606244424L144.9309375,108.86985377112234L145.30412109375,110.90458585986529L145.43982421875,104.74037059180607L145.71123046875,115.24991100442341L145.74515625,106.980983635453L145.880859375,113.72250389201905L146.2201171875,113.42974112596659L146.55937500000002,114.38989459584593L146.59330078124998,105.09806360753083L146.6272265625,110.1079519502607L146.8986328125,121.58372241040607L147.5771484375,119.40470623117025L148.39136718749998,119.12474101467524L148.59492187499998,128.59161839143118L148.62884765625,130.09296668174846L148.730625,115.13123405779797L149.0698828125,115.91418813972268L149.37521484374997,123.30751017916057L149.4769921875,126.02754954111086L149.81625000000003,130.87036512157118L149.98587890625,131.432517811402L151.20720703125,128.08804836669216L151.5125390625,119.29770064974119L151.580390625,129.28428500843108L151.71609375000003,130.80850628379267L151.9196484375,121.69330255768728L152.02142578125,124.985518854757L152.25890625000002,123.088575723708L152.5303125,129.18179319801064L152.63208984374998,123.54306338190906L152.90349609375,124.07697714944581L153.03919921875,119.26484256485392L153.17490234374998,131.3053613589992L153.9551953125,133.1097797123419L154.0908984375,128.7865175432208L154.32837890625,125.78526332170111L154.46408203125,134.44113137671428L154.83726562500001,137.5824464973729L155.244375,133.02006437316197L155.7871875,136.33131740159695L156.63533203125,129.75752032393675L157.14421875,134.96782130392438L157.6191796875,138.0822721096708L157.8905859375,124.51935380898331L158.1619921875,137.88905018967026L158.365546875,125.90024855167775L158.39947265625,135.75932414895345L158.97621093749999,136.6916391845602L159.28154296875002,130.2000866883265L159.75650390624997,135.6024412473198L159.85828125,135.0983141527765L160.6046484375,139.16290171108398L161.18138671875002,137.87644385055913L161.58849609375,138.96240325496447L161.6902734375,131.47072978878649L161.893828125,137.71689002505312L162.5044921875,136.34718636304817L162.57234375,137.12855354882777L163.1830078125,121.86658137869512L163.31871093750001,131.4439603263004L163.42048828125002,137.53999025031754L164.03115234375,136.20383574087595L164.16685546875001,138.92725967828565L164.4043359375,144.7636288273762L164.84537109375,139.4939306559073L165.04892578125,134.28780167707538L165.52388671875,143.5237570584286L165.93099609375,142.07560592323054L166.4398828125,143.06493931169496L166.7112890625,136.51947450316086L166.74521484375,145.76018906735538L167.49158203125,140.07562595670936L167.62728515625,143.5978383088315L168.10224609375,134.811817669225L168.50935546875,142.52045326262967L168.54328125,141.31924213809808L168.78076171875,128.56027192298578L169.25572265625,147.98271540949247L169.45927734375002,139.21684112407755L169.69675781249998,126.65897762508723L169.764609375,144.17212608683093L170.06994140625,137.82177874122598L170.13779296874998,131.7659828074234L170.17171875,137.33885342231423L170.81630859375,139.69150976513365L170.9180859375,143.9038412690967L171.22341796875,140.31159470341993L171.664453125,141.24717386696085L172.13941406249998,143.04005184179087L172.47867187499997,134.90868156902832L173.021484375,141.91258170340336L173.39466796874999,143.97612333459122L174.00533203125,143.38006316080944L174.34458984375001,133.26456682703628L174.37851562499998,142.4095933603927L174.5820703125,142.19771411873145L174.81955078124997,141.6154316362438L174.95525390625,146.9008045475295L174.9891796875,144.09760520296086L175.02310546875,142.51855922529515L175.76947265625,138.8361591925654L175.80339843750002,140.7357310908529L175.93910156249999,143.3387481540558L176.006953125,144.89079280774934L176.31228515625,126.34702154588675L176.44798828125,147.7313926145011L177.4318359375,142.96367907722015L177.46576171875,145.16048083915268L177.77109375,144.87383831297683L177.87287109375,135.84499847366135L178.1103515625,144.0532022227787L178.449609375,142.6035620550498L178.48353515625,144.38238229808948L178.51746093749998,147.55366626862352L178.55138671875,149.24044728804304L178.721015625,146.31754945127548L178.9245703125,141.32705918248658L179.06027343749997,139.47525225592966L179.128125,137.50302641041344L179.6709375,144.18308831722243L179.87449218749998,137.64991668423383L179.90841796875,142.81080406698905L180.17982421874999,139.01402405309702L180.8244140625,144.65480448831593L181.40115234375003,144.24811040813273L182.28322265625002,143.29959216919218L183.063515625,148.9664013146169L183.50455078125,144.57506672100862L183.606328125,145.41786666144617L184.65802734374998,144.33447730611078L184.691953125,142.67849848288196L185.234765625,141.21286890617657L185.26869140625,135.68985001639123L185.60794921875,146.9159703965521L185.7097265625,132.00110541026913L185.777578125,148.21873534640127L186.15076171875,149.12331809211702L186.35431640625,145.7030412334081L186.45609375,145.8696246776063L186.591796875,144.30599146638997L187.2024609375,146.19363604848994L187.23638671875,147.31877703285798L187.37208984375,145.49759087840687L187.4738671875,141.52887503341347L187.54171874999997,142.39033078991764L188.0166796875,146.71622925424757L188.1523828125,135.71255738608835L188.52556640625002,144.95031948032027L188.62734375,144.54775675025303L189.305859375,148.8664750364842L189.577265625,140.03038134944455L189.9165234375,144.2940656557965L189.95044921875,147.10632415985773L190.32363281250002,141.66381691272943L191.10392578125,145.4571355658647L191.2735546875,149.49349925781874L191.85029296875,145.62971880241423L193.34302734374998,141.81117090952202L193.376953125,149.42278225735538L193.51265625,143.5068417091018L193.648359375,142.72400506351417L194.2590234375,148.25782357953193L194.462578125,145.5564656287474L194.49650390624998,146.61524303789272L195.92138671875,143.12691106902838L196.19279296875,145.4416761259993L196.46419921875003,145.64960017205024L196.498125,140.63964859436965L197.07486328125,141.40222144942857L197.5158984375,146.31734770167068L197.6516015625,152.42154622629062L198.02478515625,146.15837352987992L198.43189453125,134.20278680256823L198.533671875,148.91212916533485L198.6015234375,135.05235137714243L198.73722656249998,139.05504245781975L199.0086328125,148.42726163007848L201.04417968750002,150.3039409705988L201.24773437500002,149.33537348828395L201.28166015624998,146.5079649439378L201.34951171875,142.99779884993438L201.8583984375,150.57843335266543L202.09587890625,149.08412070341663L202.876171875,148.532602024471L203.011875,144.5136851565489L203.38505859375002,150.32962941654577L203.48683593750002,147.44129324435065L204.06357421874998,149.80742691244814L204.26712890625,149.1550243975441L204.7081640625,148.0892798518603L205.38667968750002,148.45272574250967L205.69201171875,147.15153413845903L206.23482421875,143.56091963674936L206.30267578125,147.30381443903423L206.6080078125,147.69241880651944L206.91333984375,149.83103688578757L207.18474609375,149.3575862703305L207.86326171874998,148.12686700770757L207.93111328125,148.6536472705616L208.032890625,144.54456489083398L208.1007421875,147.50546618020797L208.30429687499998,148.89027245628478L208.71140625,142.77507180303058L208.74533203124997,145.72650441132612L208.9828125,147.6527403805151L209.08458984375,142.67049022804713L209.25421875,147.9294369522937L209.49169921875,145.358586906302L209.55955078124998,151.86604374544748L211.289765625,147.02191754535306L211.66294921875,151.37687096396058L211.7647265625,143.452138959917L211.93435546875,150.47222724168518L212.47716796875,151.4622494394346L212.61287109375002,149.53332974882372L212.646796875,148.10687271851666L212.7146484375,148.18510940854057L213.05390625,148.93843641044276L213.189609375,150.61598286866104L213.3253125,152.90776051543864L213.63064453125,150.0523215735765L213.6645703125,146.7688091157999L213.83419921875,153.31478582631627L213.96990234375002,146.32390606942036L214.00382812499998,149.82662850636353L214.51271484375002,149.40498312431208L215.5644140625,148.181974761696L215.9715234375,143.36784978174944L216.20900390625002,145.8053508669466L216.3786328125,150.51548747597155L216.85359375000002,151.00253661702894L217.15892578125,144.50642969874687L217.66781250000003,150.4657930854459L218.04099609374998,150.5154904871597L218.2784765625,148.5806199360046L218.31240234375,149.70442470563947L218.4141796875,148.99878363177942L218.617734375,145.06490422227546L219.9069140625,150.31755756332794L220.00869140625002,149.21606193375985L220.07654296875,148.92715649970341L220.1783203125,144.6787344003943L220.21224609375,150.4296279631936L220.34794921875002,147.94329594566742L221.43357421875,150.9448392412477L221.90853515625003,147.85300245836632L222.82453124999998,145.4149427977708L223.02808593749998,151.78850489827295L223.1637890625,148.09104741929332L223.774453125,149.58303242011672L223.94408203125,143.8000531421858L224.45296875,140.77900638107994L224.55474609375,146.24826502356552L224.6565234375,147.9888296269928L225.36896484375,152.8954982045715L225.7421484375,143.80468585512557L226.18318359375,153.2262057050618L226.217109375,143.81174709129317L226.5563671875,149.26192684577967L226.65814453125,147.97476737842027L226.79384765625,147.47712788870558L227.3705859375,152.47215451241408L227.4384375,151.74690834542906L227.54021484375,150.31595109445996L228.25265625,150.00161467104175L228.3205078125,152.1899429495732L228.49013671875002,148.88721610033164L228.8633203125,146.94090002309002L229.1347265625,152.92374992441512L229.2704296875,147.0019322897265L229.84716796875,152.96889215128348L230.05072265625,147.3436795587027L230.38998046875003,150.9063208754709L230.45783203125,147.77732377265983L230.66138671875,149.51298616180958L230.83101562500002,147.45654340664095L231.00064453125,149.75481317502934L231.102421875,143.1743372820942L231.61130859375,153.40934466160516L231.645234375,150.07351055165847L232.56123046875,150.18105513576302L232.83263671875002,154.45813697090753L233.17189453125002,149.84492072146332L233.545078125,151.14420398503583L234.25751953125,150.23682685673438L234.46107421874999,149.2776693373294L234.8342578125,149.51995254555104L234.86818359375,151.29132009796606L235.95380859375,154.6395128768001L235.987734375,152.78012001454374L236.1912890625,149.1364815010324L237.95542968750001,152.16857254740634L238.02328125,149.09816864884553L238.26076171875,148.72163387618704L238.3625390625,154.60284714452098L238.60001953125,150.97788100861098L239.516015625,154.54890773152744L240.22845703125,151.4007376410882L240.56771484375,154.40016106022415L241.11052734375,151.8405818914074L241.17837890625,151.4308600615583L241.24623046874999,153.8956259496891L241.415859375,152.10155855554729L242.501484375,151.3966860874577L242.67111328124997,154.7310394456409L243.044296875,150.96224842542804L243.07822265625,151.8971952394614L243.11214843750003,153.11211479796012L243.21392578125,153.88916469275665L243.75673828125,154.14733944634048L244.672734375,148.27060306196057L244.77451171875,151.75919098181606L245.45302734375002,153.5047835166254L245.65658203125,153.09350716090358L245.6905078125,152.7495255903341L246.572578125,151.2128846695255L246.81005859375,154.145950535815L246.87791015625,154.11897029015978L247.0475390625,149.9883067250961L248.16708984375,151.1015580331282L248.26886718749998,150.4642385595732L248.91345703125,155.38993107096758L248.9473828125,151.49557350568514L249.25271484375003,146.84235136352734L249.4901953125,154.88976895839602L249.59197265625,151.65038696827568L249.829453125,152.0009946583278L249.93123046875,153.15012653133388L250.5758203125,148.98101159942928L250.67759765625001,153.3557492768556L251.01685546875,149.81072792743691" style="fill: none;" fill="none"></path></g></g></g></g></g></g><g transform="translate(58, 177)" clip-path="url(#clip_1)"><clipPath id="clip_1"><rect width="271" height="22"></rect></clipPath><g><g><line x1="0" y1="0" x2="0" y2="5" style="visibility: inherit;" fill="rgb(0, 0, 0)" stroke="rgb(204, 204, 204)" stroke-width="1px"></line><line x1="33.92578125" y1="0" x2="33.92578125" y2="5" style="visibility: inherit;" fill="rgb(0, 0, 0)" stroke="rgb(204, 204, 204)" stroke-width="1px"></line><line x1="67.8515625" y1="0" x2="67.8515625" y2="5" style="visibility: inherit;" fill="rgb(0, 0, 0)" stroke="rgb(204, 204, 204)" stroke-width="1px"></line><line x1="101.77734375" y1="0" x2="101.77734375" y2="5" style="visibility: inherit;" fill="rgb(0, 0, 0)" stroke="rgb(204, 204, 204)" stroke-width="1px"></line><line x1="135.703125" y1="0" x2="135.703125" y2="5" style="visibility: inherit;" fill="rgb(0, 0, 0)" stroke="rgb(204, 204, 204)" stroke-width="1px"></line><line x1="169.62890625" y1="0" x2="169.62890625" y2="5" style="visibility: inherit;" fill="rgb(0, 0, 0)" stroke="rgb(204, 204, 204)" stroke-width="1px"></line><line x1="203.5546875" y1="0" x2="203.5546875" y2="5" style="visibility: inherit;" fill="rgb(0, 0, 0)" stroke="rgb(204, 204, 204)" stroke-width="1px"></line><line x1="237.48046875" y1="0" x2="237.48046875" y2="5" style="visibility: inherit;" fill="rgb(0, 0, 0)" stroke="rgb(204, 204, 204)" stroke-width="1px"></line><line x1="271.40625" y1="0" x2="271.40625" y2="5" style="visibility: inherit;" fill="rgb(0, 0, 0)" stroke="rgb(204, 204, 204)" stroke-width="1px"></line></g><g transform="translate(0, 8)"><text x="0" y="0" dx="0em" dy="0.95em" style="text-anchor: middle; visibility: hidden; font-family: &quot;Helvetica Neue&quot;, sans-serif; font-size: 12px; font-weight: 200;" fill="rgb(50, 49, 63)" stroke="none" stroke-width="1px">-1k</text><text x="33.92578125" y="0" dx="0em" dy="0.95em" style="text-anchor: middle; visibility: inherit; font-family: &quot;Helvetica Neue&quot;, sans-serif; font-size: 12px; font-weight: 200;" fill="rgb(50, 49, 63)" stroke="none" stroke-width="1px">0</text><text x="67.8515625" y="0" dx="0em" dy="0.95em" style="text-anchor: middle; visibility: inherit; font-family: &quot;Helvetica Neue&quot;, sans-serif; font-size: 12px; font-weight: 200;" fill="rgb(50, 49, 63)" stroke="none" stroke-width="1px">1k</text><text x="101.77734375" y="0" dx="0em" dy="0.95em" style="text-anchor: middle; visibility: inherit; font-family: &quot;Helvetica Neue&quot;, sans-serif; font-size: 12px; font-weight: 200;" fill="rgb(50, 49, 63)" stroke="none" stroke-width="1px">2k</text><text x="135.703125" y="0" dx="0em" dy="0.95em" style="text-anchor: middle; visibility: inherit; font-family: &quot;Helvetica Neue&quot;, sans-serif; font-size: 12px; font-weight: 200;" fill="rgb(50, 49, 63)" stroke="none" stroke-width="1px">3k</text><text x="169.62890625" y="0" dx="0em" dy="0.95em" style="text-anchor: middle; visibility: inherit; font-family: &quot;Helvetica Neue&quot;, sans-serif; font-size: 12px; font-weight: 200;" fill="rgb(50, 49, 63)" stroke="none" stroke-width="1px">4k</text><text x="203.5546875" y="0" dx="0em" dy="0.95em" style="text-anchor: middle; visibility: inherit; font-family: &quot;Helvetica Neue&quot;, sans-serif; font-size: 12px; font-weight: 200;" fill="rgb(50, 49, 63)" stroke="none" stroke-width="1px">5k</text><text x="237.48046875" y="0" dx="0em" dy="0.95em" style="text-anchor: middle; visibility: inherit; font-family: &quot;Helvetica Neue&quot;, sans-serif; font-size: 12px; font-weight: 200;" fill="rgb(50, 49, 63)" stroke="none" stroke-width="1px">6k</text><text x="271.40625" y="0" dx="0em" dy="0.95em" style="text-anchor: middle; visibility: hidden; font-family: &quot;Helvetica Neue&quot;, sans-serif; font-size: 12px; font-weight: 200;" fill="rgb(50, 49, 63)" stroke="none" stroke-width="1px">7k</text></g><line x1="0" y1="0" x2="271.40625" y2="0" fill="rgb(0, 0, 0)" stroke="rgb(204, 204, 204)" stroke-width="1px"></line></g></g></g></g></svg>