<svg viewBox="0 0 330 200" xmlns="http://www.w3.org/2000/svg"><g><g><g><g><g><line x1="39.15625" y1="177.828125" x2="34.15625" y2="177.828125" style="visibility: inherit;" fill="rgb(0, 0, 0)" stroke="rgb(204, 204, 204)" stroke-width="1px"></line><line x1="39.15625" y1="158.06944444444446" x2="34.15625" y2="158.06944444444446" style="visibility: inherit;" fill="rgb(0, 0, 0)" stroke="rgb(204, 204, 204)" stroke-width="1px"></line><line x1="39.15625" y1="138.31076388888889" x2="34.15625" y2="138.31076388888889" style="visibility: inherit;" fill="rgb(0, 0, 0)" stroke="rgb(204, 204, 204)" stroke-width="1px"></line><line x1="39.15625" y1="118.55208333333334" x2="34.15625" y2="118.55208333333334" style="visibility: inherit;" fill="rgb(0, 0, 0)" stroke="rgb(204, 204, 204)" stroke-width="1px"></line><line x1="39.15625" y1="98.79340277777779" x2="34.15625" y2="98.79340277777779" style="visibility: inherit;" fill="rgb(0, 0, 0)" stroke="rgb(204, 204, 204)" stroke-width="1px"></line><line x1="39.15625" y1="79.03472222222221" x2="34.15625" y2="79.03472222222221" style="visibility: inherit;" fill="rgb(0, 0, 0)" stroke="rgb(204, 204, 204)" stroke-width="1px"></line><line x1="39.15625" y1="59.27604166666667" x2="34.15625" y2="59.27604166666667" style="visibility: inherit;" fill="rgb(0, 0, 0)" stroke="rgb(204, 204, 204)" stroke-width="1px"></line><line x1="39.15625" y1="39.517361111111114" x2="34.15625" y2="39.517361111111114" style="visibility: inherit;" fill="rgb(0, 0, 0)" stroke="rgb(204, 204, 204)" stroke-width="1px"></line><line x1="39.15625" y1="19.75868055555557" x2="34.15625" y2="19.75868055555557" style="visibility: inherit;" fill="rgb(0, 0, 0)" stroke="rgb(204, 204, 204)" stroke-width="1px"></line><line x1="39.15625" y1="0" x2="34.15625" y2="0" style="visibility: inherit;" fill="rgb(0, 0, 0)" stroke="rgb(204, 204, 204)" stroke-width="1px"></line></g><g transform="translate(29.15625, 0)"><text x="0" y="177.828125" dx="0em" dy="0.3em" style="text-anchor: end; visibility: hidden; font-family: &quot;Helvetica Neue&quot;, sans-serif; font-size: 12px; font-weight: 200;" fill="rgb(50, 49, 63)" stroke="none" stroke-width="1px">-12</text><text x="0" y="158.06944444444446" dx="0em" dy="0.3em" style="text-anchor: end; visibility: inherit; font-family: &quot;Helvetica Neue&quot;, sans-serif; font-size: 12px; font-weight: 200;" fill="rgb(50, 49, 63)" stroke="none" stroke-width="1px">-10</text><text x="0" y="138.31076388888889" dx="0em" dy="0.3em" style="text-anchor: end; visibility: hidden; font-family: &quot;Helvetica Neue&quot;, sans-serif; font-size: 12px; font-weight: 200;" fill="rgb(50, 49, 63)" stroke="none" stroke-width="1px">-8</text><text x="0" y="118.55208333333334" dx="0em" dy="0.3em" style="text-anchor: end; visibility: inherit; font-family: &quot;Helvetica Neue&quot;, sans-serif; font-size: 12px; font-weight: 200;" fill="rgb(50, 49, 63)" stroke="none" stroke-width="1px">-6</text><text x="0" y="98.79340277777779" dx="0em" dy="0.3em" style="text-anchor: end; visibility: hidden; font-family: &quot;Helvetica Neue&quot;, sans-serif; font-size: 12px; font-weight: 200;" fill="rgb(50, 49, 63)" stroke="none" stroke-width="1px">-4</text><text x="0" y="79.03472222222221" dx="0em" dy="0.3em" style="text-anchor: end; visibility: inherit; font-family: &quot;Helvetica Neue&quot;, sans-serif; font-size: 12px; font-weight: 200;" fill="rgb(50, 49, 63)" stroke="none" stroke-width="1px">-2</text><text x="0" y="59.27604166666667" dx="0em" dy="0.3em" style="text-anchor: end; visibility: hidden; font-family: &quot;Helvetica Neue&quot;, sans-serif; font-size: 12px; font-weight: 200;" fill="rgb(50, 49, 63)" stroke="none" stroke-width="1px">0</text><text x="0" y="39.517361111111114" dx="0em" dy="0.3em" style="text-anchor: end; visibility: inherit; font-family: &quot;Helvetica Neue&quot;, sans-serif; font-size: 12px; font-weight: 200;" fill="rgb(50, 49, 63)" stroke="none" stroke-width="1px">2</text><text x="0" y="19.75868055555557" dx="0em" dy="0.3em" style="text-anchor: end; visibility: hidden; font-family: &quot;Helvetica Neue&quot;, sans-serif; font-size: 12px; font-weight: 200;" fill="rgb(50, 49, 63)" stroke="none" stroke-width="1px">4</text><text x="0" y="0" dx="0em" dy="0.3em" style="text-anchor: end; visibility: hidden; font-family: &quot;Helvetica Neue&quot;, sans-serif; font-size: 12px; font-weight: 200;" fill="rgb(50, 49, 63)" stroke="none" stroke-width="1px">6</text></g><line x1="39.15625" y1="0" x2="39.15625" y2="177.828125" fill="rgb(0, 0, 0)" stroke="rgb(204, 204, 204)" stroke-width="1px"></line></g></g><g transform="translate(39, 0)" clip-path="url(#clip_0)"><clipPath id="clip_0"><rect width="290" height="177"></rect></clipPath><g><g><g><line x1="0" y1="0" x2="0" y2="177.828125" fill="rgb(0, 0, 0)" stroke="rgb(60, 60, 60)" stroke-width="1px" opacity="0.25"></line><line x1="36.35546875" y1="0" x2="36.35546875" y2="177.828125" fill="rgb(0, 0, 0)" stroke="rgb(60, 60, 60)" stroke-width="1px" opacity="0.25"></line><line x1="72.7109375" y1="0" x2="72.7109375" y2="177.828125" fill="rgb(0, 0, 0)" stroke="rgb(60, 60, 60)" stroke-width="1px" opacity="0.25"></line><line x1="109.06640625" y1="0" x2="109.06640625" y2="177.828125" fill="rgb(0, 0, 0)" stroke="rgb(60, 60, 60)" stroke-width="1px" opacity="0.25"></line><line x1="145.421875" y1="0" x2="145.421875" y2="177.828125" fill="rgb(0, 0, 0)" stroke="rgb(60, 60, 60)" stroke-width="1px" opacity="0.25"></line><line x1="181.77734375" y1="0" x2="181.77734375" y2="177.828125" fill="rgb(0, 0, 0)" stroke="rgb(60, 60, 60)" stroke-width="1px" opacity="0.25"></line><line x1="218.1328125" y1="0" x2="218.1328125" y2="177.828125" fill="rgb(0, 0, 0)" stroke="rgb(60, 60, 60)" stroke-width="1px" opacity="0.25"></line><line x1="254.48828125" y1="0" x2="254.48828125" y2="177.828125" fill="rgb(0, 0, 0)" stroke="rgb(60, 60, 60)" stroke-width="1px" opacity="0.25"></line><line x1="290.84375" y1="0" x2="290.84375" y2="177.828125" fill="rgb(0, 0, 0)" stroke="rgb(60, 60, 60)" stroke-width="1px" opacity="0.25"></line></g><g><line x1="0" y1="177.828125" x2="290.84375" y2="177.828125" fill="rgb(0, 0, 0)" stroke="rgb(60, 60, 60)" stroke-width="1px" opacity="0.25"></line><line x1="0" y1="158.06944444444446" x2="290.84375" y2="158.06944444444446" fill="rgb(0, 0, 0)" stroke="rgb(60, 60, 60)" stroke-width="1px" opacity="0.25"></line><line x1="0" y1="138.31076388888889" x2="290.84375" y2="138.31076388888889" fill="rgb(0, 0, 0)" stroke="rgb(60, 60, 60)" stroke-width="1px" opacity="0.25"></line><line x1="0" y1="118.55208333333334" x2="290.84375" y2="118.55208333333334" fill="rgb(0, 0, 0)" stroke="rgb(60, 60, 60)" stroke-width="1px" opacity="0.25"></line><line x1="0" y1="98.79340277777779" x2="290.84375" y2="98.79340277777779" fill="rgb(0, 0, 0)" stroke="rgb(60, 60, 60)" stroke-width="1px" opacity="0.25"></line><line x1="0" y1="79.03472222222221" x2="290.84375" y2="79.03472222222221" fill="rgb(0, 0, 0)" stroke="rgb(60, 60, 60)" stroke-width="1px" opacity="0.25"></line><line x1="0" y1="59.27604166666667" x2="290.84375" y2="59.27604166666667" fill="rgb(0, 0, 0)" stroke="rgb(60, 60, 60)" stroke-width="1px" opacity="0.25"></line><line x1="0" y1="39.517361111111114" x2="290.84375" y2="39.517361111111114" fill="rgb(0, 0, 0)" stroke="rgb(60, 60, 60)" stroke-width="1px" opacity="0.25"></line><line x1="0" y1="19.75868055555557" x2="290.84375" y2="19.75868055555557" fill="rgb(0, 0, 0)" stroke="rgb(60, 60, 60)" stroke-width="1px" opacity="0.25"></line><line x1="0" y1="0" x2="290.84375" y2="0" fill="rgb(0, 0, 0)" stroke="rgb(60, 60, 60)" stroke-width="1px" opacity="0.25"></line></g></g></g><g><g><line x1="0" y1="59.27604166666667" x2="290.84375" y2="59.27604166666667" fill="rgb(0, 0, 0)" stroke="rgb(153, 153, 153)" stroke-width="1.5px"></line></g></g><g><g><line x1="36.35546875" y1="0" x2="36.35546875" y2="177.828125" fill="rgb(0, 0, 0)" stroke="rgb(153, 153, 153)" stroke-width="1.5px"></line></g></g><g><g><g><g><g><path stroke="rgb(255, 112, 67)" stroke-width="2px" d="M36.682667968749996,73.29048831015825L36.791734375,76.27495047377629L37.082578125,77.7669559281463L37.11893359374999,80.90526721633519L37.1552890625,81.57637286200594L37.373421875,83.97690938802039L37.627910156249996,86.30059213414461L37.700621093749994,88.10124085176204L38.06417578125,91.23204957908142L38.20959765625,93.35196338611081L38.282308593749995,94.9186504890545L38.64586328125,96.75674411257091L39.15483984375,97.65144305863866L39.227550781249995,100.2702429259055L39.37297265625,99.9079892401992L39.66381640625,100.09724765644944L39.700171875,101.32412012061116L40.499992187500006,102.56426472941185L40.60905859375,104.80806462458688L40.863546875000004,103.78781935083857L40.97261328125,105.39573967246235L41.0816796875,103.45265397084779L41.19074609375,104.6201938273098L41.299812499999994,104.95122598892047L41.66336718749999,105.33301343356162L41.954210937499994,104.3049548743785L41.990566406250004,104.8779041465934L42.13598828125,103.79996837357426L42.49954296875,103.21738025678157L42.64496484375,98.75828124894223L42.935808593750004,101.32357229432415L43.00851953125,102.88558484115755L43.9901171875,101.47940161416723L44.02647265625,102.46549939974715L44.31731640625,102.68408052007679L44.390027343750006,102.09935538673815L44.4263828125,101.97280323979403L44.7172265625,99.12945803882508L44.753582031250005,99.56369985782256L44.7899375,98.52537592173788L44.97171484375001,99.80906156175347L45.2989140625,99.13453192356027L45.69882421875,100.05369959273995L45.98966796875,97.90570995836104L46.098734375,97.37215372395123L46.57135546875,95.70514847592345L46.7531328125,97.55216928085144L46.86219921875,96.75785012713217L47.00762109375,97.51216630558547L47.00762109375,97.85071419728301L47.6256640625,97.96545256407616L47.662019531249996,95.1340332641016L47.88015234375,94.03798221249716L47.98921875,94.08176310909728L48.025574218749995,90.55437252983326L48.061929687500005,91.9008477443355L48.09828515625,91.96834953692279L48.134640625,93.82112638957028L48.352773437500005,91.12691896409473L48.53455078125,92.34056711843027L49.33437109375,91.01766720189232L49.40708203125,90.5537762580396L49.47979296875,89.70288473395989L49.62521484375,90.1866434766229L49.77063671875,88.30411393049944L50.025124999999996,88.5716880542088L50.097835937499994,88.19313098962729L50.2432578125,87.37180668953764L50.315968749999996,86.21143475214201L50.35232421875,85.4948946938621L50.388679687499994,84.67809414996943L50.5341015625,84.84863139106709L50.6068125,85.21515723456933L50.64316796875,85.54189661228654L50.75223437499999,85.82699766159453L50.78858984375,84.69950583426726L50.86130078125,82.39625900984616L50.93401171875,83.06884899884946L51.043078124999994,83.33160362532031L51.043078124999994,83.34581896580765L51.47934375,82.65600810796523L51.5520546875,84.07634044697188L52.1337421875,81.38056529961045L52.2791640625,78.3841719322689L52.38823046875,77.95748000448503L52.64271875,78.47132812793059L52.7154296875,77.72633776176804L52.82449609375,77.02658266518978L52.860851562499995,76.42421719597458L52.96991796875,77.15630744215524L53.0062734375,74.6551196027796L53.260761718750004,73.1798114984632L53.2971171875,73.43379453352493L53.478894531250006,73.44305877654593L53.51525,73.55452729168506L53.69702734375,73.11164924953661L53.76973828125001,71.67832085938987L53.842449218750005,69.8885695709971L53.98787109375,70.57082397336885L54.0242265625,70.33096256937824L54.133292968750006,70.89401462841442L54.133292968750006,71.05968410262015L54.242359375,69.94589345284844L54.569558593749996,68.65569724908349L54.6059140625,68.67735876755607L54.78769140625,68.44616640439067L55.3330234375,66.85091638635771L55.55115625,63.492389506606045L55.66022265625,61.04657905316857L55.73293359375,63.08511014843057L55.7692890625,64.04311635083317L55.842,63.255610329193615L55.95106640625,62.19418796318982L56.02377734375,58.68023964658059L56.205554687500005,58.30308394838575L56.31462109375,61.03283651486143L56.4236875,59.25024550641474L56.60546484375,57.20825317037708L57.3689296875,53.925300770488676L57.441640625000005,53.680787006112325L57.441640625000005,53.31989962189273L57.47799609375,50.171090968340565L57.805195312500004,52.57878437619097L58.023328125000006,51.80078828666851L58.27781640625,47.28165225205038L58.750437500000004,45.87945531600377L58.968570312500006,47.08819381922845L59.15034765625,46.39496870679872L59.22305859375,42.3778044947081L59.2594140625,42.75413066190373L59.62296875,36.39672826421065L59.73203515625,39.920943878823664L59.87745703125,41.47159836157212L59.9865234375,42.06385191500283L60.2773671875,36.89156591973759L60.31372265625,37.41190169485975L60.53185546875,37.659195369709295L60.5682109375,39.935206295661374L60.640921875,37.65252951579029L60.640921875,36.04604374314056L61.513453125,35.515416395914144L61.586164062499996,34.14192095119185L61.62251953125,35.228635087255554L61.658874999999995,36.23808981208634L62.05878515625,34.58335064256039L62.276917968750006,35.1987170162364L62.3132734375,34.97483686667732L62.4586953125,32.87192367468177L62.531406249999996,31.066116536299432L62.967671875,27.25658326375884L63.00402734375,27.839097584787766L63.1858046875,25.889018856289255L63.3312265625,25.821485439868127L63.4039375,26.91243860725774L63.44029296875,27.929239919823374L64.02198046875,27.19142317983028L64.09469140624999,25.0330304500379L64.5673125,27.57593501357408L64.85815625000001,22.786013713964877L64.85815625000001,19.609244592547526L65.149,20.643769258379336L65.2217109375,22.60589382132389L65.5125546875,18.109239171594055L65.5125546875,15.055259770211023L65.91246484375,19.23840029145336L66.02153125,20.029783681495644L66.0942421875,21.59192660884213L66.166953125,22.03677072023376L66.2396640625,22.58924998263865L66.312375,23.548703357268124L66.5305078125,28.37517141374937L66.6759296875,26.51209450937438L66.78499609375,23.60133789651536L66.93041796874999,19.819619761775925L67.07583984375,27.58843184936967L67.14855078125,31.91990212954437L67.18490625,32.087820224855506L67.22126171875,34.004374333540426L67.29397265625,36.615001538636164L67.4030390625,40.32942510856037L67.58481640625,41.8696762269839L67.76659375,42.58247992737384L67.8393046875,44.63944783460903L67.87566015625,45.86640686652976L67.91201562500001,48.67835305180466L68.02108203125,51.969739146558354L68.0574375,52.14854435034519L68.09379296875,51.187423641637835L68.45734765625,50.50394053513989L68.60276953125,53.45143346553657L68.7118359375,60.39719275912675L68.8572578125,62.073247762768176L68.8572578125,62.39572820429095L69.03903515625,65.01269879140078L69.1481015625,74.38503410677353L69.54801171875,86.30336128909862L69.62072265625,91.45612437536668L69.8025,98.76954725755135L69.8752109375,102.74758673317294L70.0206328125,104.89206425909435L70.27512109375,108.845223698734L70.3114765625,110.82496294799572L70.42054296875,120.48078391572378L70.4568984375,118.06520288592239L71.07494140625,128.78522263742218L71.1840078125,129.2112589605918L71.51120703125001,137.0127119193768L71.692984375,142.23334757707292L71.72933984375,144.34213579561708L71.7656953125,141.6132223253764L72.09289453125001,146.50460376479796L72.3473828125,147.491151231691L72.38373828125,149.6501828275444L72.7109375,153.02363092621763L72.78364843749999,154.91477882152492L72.92907031249999,152.33852679965975L73.25626953125,148.46488367513996L73.36533593749999,153.59352009294142L73.8016015625,155.6434154716991L74.019734375,156.78779260132552L74.09244531249999,158.53563468014173L74.09244531249999,159.17175355698978L74.12880078125,158.07964909230128L74.16515625,157.48893241146544L74.23786718749999,157.12904536991255L74.310578125,158.64246877724622L74.456,156.53377847290852L74.71048828125001,157.0813168040589L75.32853125,155.3832982206681L75.40124218749999,155.05654664548933L75.5466640625,153.25787664579966L75.6920859375,152.34863785978723L75.91021875,148.811114164981L76.09199609375,150.26389499539368L76.1283515625,150.8590034705454L76.16470703125,150.31831124529896L76.2737734375,149.83722856140858L76.31012890625001,146.55899540150864L76.45555078125001,145.1809213794485L76.52826171875,148.5189614718817L76.89181640625,147.69328997553032L77.0008828125,147.6226236377728L77.0008828125,147.21298586157394L77.03723828125001,147.71868714719804L77.10994921875,146.22375925863327L77.18266015625001,145.5137699748813L77.18266015625001,144.73730900917883L77.32808203124999,143.9407166297634L77.36443750000001,141.62334912219708L77.47350390624999,139.8829059251756L77.800703125,137.86192719183032L77.98248046875,136.958146593223L78.091546875,136.25087458896968L78.20061328124999,137.05455298412176L78.27332421875,135.2728563447429L78.49145703125,132.28141568830742L78.52781250000001,128.316148301681L78.964078125,128.13268240170223L79.14585546875,126.53311548887946L79.7638984375,119.66265858135841L79.80025390624999,116.74317783501414L79.83660937500001,115.66200348005029L80.09109765625,112.73738821042113L80.6364296875,105.2560149712581L80.7818515625,102.09627064763816L80.89091796875,100.02727442982714L80.9272734375,97.88239572240332L80.96362890625,95.00788737577913L81.0726953125,95.18621146873267L81.5089609375,95.9556710820302L81.54531640625,95.00734730649752L81.72709375000001,94.73165255084558L81.76344921875,95.5714226929872L81.83616015625,94.12687242025639L82.0906484375,92.10811283303669L82.19971484375,93.0155935026012L82.3814921875,90.0135041166095L82.63598046875,89.57478458168595L82.70869140625,88.60323336246438L82.74504687499999,86.7149580898917L83.21766796875,88.66771334374829L83.43580078125,90.0412437431077L83.617578125,89.56025015700881L83.72664453125,88.2075269073256L84.01748828125,90.21254169758872L84.1265546875,91.21875537516371L84.16291015624999,89.27110298953802L84.4173984375,88.02202785799317L84.52646484375,88.89191211303387L84.59917578125,89.11722955396627L85.03544140625,89.31629519337926L85.14450781250001,87.928494887763L85.25357421875,89.46720271176257L85.47170703125,91.20093908155654L85.61712890625,94.50433744122734L85.87161718750001,93.17451610005321L86.08975,94.92575116548458L86.1624609375,94.02539278556353L86.41694921874999,93.91523379428851L86.41694921874999,93.79131382312578L86.45330468750001,94.51454886468306L87.03499218750001,98.54622265136804L87.07134765625,95.5465655199714L87.07134765625,93.67416029099455L87.398546875,93.84920554314353L87.689390625,96.88887658389984L87.7621015625,97.93630884972096L88.561921875,101.63730582163197L88.70734374999999,100.50058124866032L88.88912109374999,103.09777112845148L88.9981875,105.42771254472738L89.0708984375,104.27396798593155L89.36174218750001,106.98190319764029L89.39809765625,106.19133551835795L89.434453125,106.54417446803916L90.27062890625001,106.86463221027905L90.41605078125001,106.68449826788908L90.85231640625,105.84674512430566L90.99773828125001,107.03089305742637L91.07044921875,110.49634309500887L91.14316015625,109.10443132653097L91.179515625,111.57603148043708L91.36129296874999,111.84622627581821L91.43400390625,113.49966586779952L91.57942578125001,111.98906567584315L91.61578125,114.97512658670053L92.052046875,112.87860258775322L92.1247578125,112.55884186424568L92.16111328125001,110.46586704451494L92.67008984374999,110.36998432628836L93.10635546875,108.63849284782856L93.36084375,106.5396277048943L93.506265625,107.27778999274848L93.61533203125,107.25702798955501L93.68804296875,107.50949127580441L93.797109375,106.87757032079925L94.087953125,106.37347317233407L94.41515234375,108.22361468255686L94.4515078125,107.40395816022921L94.56057421875,106.95297705030634L94.63328515625001,107.26753269736352L95.06955078125,110.89905472261339L95.10590625,108.12514514324643L95.251328125,109.44541583914108L95.28768359375,108.16818125239804L95.32403906249999,110.11935816488409L95.36039453125001,110.47928411929851L95.36039453125001,110.6406655927641L95.833015625,108.94108856589453L95.9784375,111.75893112277834L96.414703125,110.72508100258153L96.560125,107.62260854395335L96.81461328124999,109.20067641891967L96.85096875,108.86258936843697L97.1418125,109.36299342929841L97.68714453125,110.45949914500163L97.7235,110.973573197428L97.90527734375,113.18834808406118L98.19612109375001,113.17244254180586L98.3051875,114.53868583848686L98.70509765624999,117.33770298036967L98.741453125,118.58828016198828L98.85051953125,116.51275768160447L99.03229687500001,118.4132089333512L99.06865234375,119.48229140689637L99.21407421875,118.46933089948759L99.32314062500001,118.69012667557504L99.43220703125,118.16492236712784L99.5412734375,119.45769874223927L99.613984375,121.84294058529517L99.90482812500001,121.04128484184997L100.1229609375,122.19934217585399L100.19567187499999,122.99894934964144L100.30473828125,123.11684791836319L100.59558203124999,121.89730212081712L100.63193749999999,122.32882339418144L100.74100390625,119.22732686197884L100.81371484375,119.13875494153311L101.10455859375,121.13905790101097L101.4317578125,121.96114228275448L101.7953125,121.79896857057233L102.12251171875,121.9665509134054L102.15886718750001,123.27515101085555L102.19522265625,123.00823052250945L102.231578125,120.9682905117422L102.3042890625,122.39156979460017L102.5951328125,122.39884363776875L102.813265625,121.45814818143704L103.06775390625,121.91540583107123L103.6130859375,119.62174774918239L103.64944140625,118.72669136386418L104.08570703125,116.86176315926957L104.15841796875,117.02340381102498L104.1947734375,117.64541658779689L104.30383984375001,116.96875214721518L104.3401953125,118.65776424759747L104.37655078125,117.86077441234528L104.558328125,117.26858015118853L104.66739453125,118.79777722347401L104.9218828125,118.65618446757239L105.0673046875,119.34586746915086L105.2854375,118.53710589578758L105.32179296874999,117.80650293160748L105.39450390625,117.95654913366732L105.61263671875,117.46029817245275L105.68534765625,117.8713513679881L105.75805859375,117.2801968084985L105.79441406250001,116.53178931355427L105.97619140625,116.90804380789038L106.04890234374999,117.60541154115182L106.594234375,117.31618915896883L106.6669453125,115.27135505501523L106.8123671875,115.55167543856095L107.6121875,113.55095330027085L107.757609375,113.89754554766819L107.86667578125001,112.20549426790453L107.93938671875,112.15973670157949L108.15751953125,110.67252770487364L108.26658593750001,110.99023908728697L108.37565234374999,110.79398940781027L108.7755625,108.4631828089644L108.95733984374999,107.91601108034985L109.06640625,108.70323790522735L109.211828125,107.78276995219184L109.24818359375,107.07192430666852L109.46631640625,107.2232330550392L109.64809375,105.96333667213224L109.72080468749999,105.92102274260291L109.90258203125,107.61968938387257L110.7387578125,106.45013860970167L110.84782421874999,107.6120810333125L110.84782421874999,108.23623982707056L111.02960156249999,107.83501484013566L112.37475390625,106.04066668378162L112.55653125,105.59573763068624L112.59288671875,107.12118566738565L112.6292421875,106.93403205895622L112.66559765625001,106.3893567039687L112.701953125,105.43296891468808L112.73830859375,104.83909445813126L113.17457421875,105.33757180260118L113.283640625,104.40093041067551L113.31999609375,103.97943779590864L113.46541796875,102.80652527187814L113.68355078124999,103.83291915726062L113.82897265624999,105.51013711097676L113.90168359375,104.39665362190905L113.90168359375,103.62191395780467L114.19252734375,102.42965858273321L114.48337109375,103.01811793468629L114.5924375,101.13101081571652L114.6651484375,99.77862893819483L114.81057031249999,101.3483656313797L114.84692578125,100.66347287827745L115.028703125,100.74767629643688L115.1014140625,100.17839735204224L115.21048046875,100.48135533520791L115.28319140625,99.8581781790011L115.7558125,99.75539371866766L115.93758984375,100.1491516447657L116.19207812500001,98.86940172868863L116.3375,98.56467129308056L116.44656640625,98.68798841430919L116.51927734375,98.40280472349629L116.51927734375,98.13442421390185L116.88283203124999,98.010575714477L116.9191875,98.16056084864091L117.02825390625,96.08857568078224L117.5735859375,95.5147935106568L117.68265234375001,95.33572853530718L117.97349609375,95.01570928242634L118.0098515625,94.76499222786656L118.3006953125,93.9400625345726L118.33705078125,93.0344516754718L118.66425,92.78193974551323L118.70060546875,92.55489526573872L118.7369609375,92.7651590851158L118.91873828125,92.68397932797598L119.10051562499999,91.57919236881821L119.57313671875,90.84525345540352L119.6094921875,91.32315934216763L119.827625,92.01283014542L119.86398046875,90.55298407179464L119.9003359375,89.15563204634266L119.93669140624999,88.42180799749673L120.15482421875001,88.75934711265208L120.4820234375,89.29639839066981L120.84557812499999,88.94823000904934L120.991,89.81097645755818L121.136421875,88.91150859347046L121.2091328125,88.78022536960545L121.31819921875001,88.89900342354889L121.3545546875,89.60187472324733L121.3545546875,89.97991485797064L121.53633203125,90.16501788604542L122.00895312499999,89.56165119179391L122.11801953125,89.17268424804988L122.40886328125,88.75320436850777L122.59064062499999,88.61142025733015L122.6633515625,88.62641926480413L122.69970703125,88.13160223835557L122.84512890625,88.06672543306459L122.9541953125,88.52649604366803L122.99055078125,88.14541058426384L123.17232812499999,88.50975187531283L123.2450390625,87.51844894642667L123.35410546874999,88.60642605277917L123.39046093750001,89.37244575240692L123.49952734374999,88.93067103337334L123.60859375,88.56312854813191L123.64494921874999,89.23481288621153L123.6813046875,89.25107605705587L124.335703125,88.53368147896353L124.55383593750001,88.45822416680032L124.88103515625001,89.29427003897413L124.917390625,89.70007820482695L125.28094531250001,89.98767914639632L125.31730078125,90.43355585239031L125.68085546875,91.02332664970906L126.11712109375,91.09201110063273L126.1534765625,90.79683223966063L126.40796484375,90.84727057627816L126.55338671874999,91.25242383467345L126.69880859375,91.00234113852825L126.77151953125001,91.40685873601886L126.807875,91.02511116621659L126.807875,90.77231058648553L127.6076953125,91.3475264497379L127.71676171874999,90.79725124912142L127.78947265625,90.39168542121192L127.89853906249999,90.65364438457559L128.15302734374998,90.70901104756159L128.18938281249999,90.71985645610867L128.18938281249999,90.70191351741154L128.3348046875,91.55441985670156L128.66200390625,91.21591633130501L129.0619140625,91.34920563192799L129.17098046875,90.83952945522115L129.53453515625,91.43023363001798L129.570890625,92.08223873714863L129.67995703125,92.43440027249345L130.152578125,92.67710999393623L130.2252890625,92.64100871198538L130.47977734375,93.17422418886984L130.55248828125002,92.55327505128322L130.87968750000002,91.78368945523145L131.025109375,92.11176637406906L131.42501953125,91.72511700515075L131.49773046875,92.04364422171784L131.57044140625,92.61410066428134L131.60679687500001,92.08637064189128L132.07941796875,91.59114952594949L132.479328125,91.20000457583083L132.73381640624999,92.32814942730064L133.02466015624998,92.06183264554763L133.2064375,91.47373237584102L133.49728125000001,91.10656822993796L133.75176953125,90.82950510422056L133.788125,90.77822577294837L134.1516796875,90.3274682530325L134.5879453125,88.91392077442376L134.62430078124999,88.2419926486428L134.8787890625,87.41872619677343L135.20598828125,86.7902474459998L135.27869921875,86.55360248105679L135.35141015624998,86.85102631797564L136.0421640625,86.00068102750615L136.15123046875001,85.45109879706365L136.22394140625,85.09791775783337L136.3330078125,84.83969218940464L136.44207421875,84.49472264437102L136.551140625,83.9336414669249L136.58749609375,83.64278020732031L136.6238515625,82.96936890264475L137.0601171875,82.4918830046363L137.2055390625,82.57024198741559L137.53273828125,82.41746043545511L137.60544921875,82.12701681418059L137.6418046875,81.89117623912992L137.8599375,81.75248614785028L137.89629296875,81.56436458977235L138.00535937499998,81.52035089484158L138.2234921875,81.13410071771128L138.33255859375,81.00726470991441L138.5143359375,80.12468202158823L138.69611328125,80.28566001940445L139.20508984375002,80.29051081375816L139.2414453125,80.46745560911222L139.31415625,80.96186608001412L139.56864453125,81.40942966421338L140.332109375,81.98041200029786L140.36846484375002,82.35896958112149L140.69566406250001,81.66304303187123L141.02286328125,80.94368359052599L141.3500625,80.50931302850852L141.38641796874998,80.583125225659L141.495484375,81.03504970951889L141.5681953125,81.43519841038925L141.89539453125,81.62508141937104L141.93175,81.26286436334598L142.22259375,80.02756522140612L142.2953046875,80.9030991426775L142.40437109375,80.75732785403743L142.91334765625,81.57893028322863L142.94970312499998,82.03968186696441L143.05876953125,82.06919264995764L143.38596875,82.58517278041006L143.42232421875,81.99175096559857L143.56774609375,82.55206393356127L143.71316796874999,82.5330018776291L143.8949453125,82.02721511025362L143.93130078125,82.45317840181603L144.113078125,82.45932040830475L144.18578906250002,82.98886875815205L144.18578906250002,83.2984395413353L144.54934375,83.95104004516395L144.6220546875,84.07679045335631L144.65841015625,84.2473138592148L144.73112109375,83.82319380338683L144.91289843750002,84.93648206862228L145.24009765625001,85.13485717131147L145.60365234374999,84.68000058792101L145.67636328125,85.06909578643483L145.85814062499998,85.6719804759126L145.96720703124998,85.15275188020672L145.96720703124998,84.82248066801908L146.03991796875002,85.22923646119021L146.11262890625,85.44112528734473L146.5125390625,86.70470832800378L146.83973828125,87.09540913337773L146.91244921875003,86.55980004395626L146.98516015625,87.28406694405956L147.27600390625,87.2993777064735L147.31235937499997,86.36109999071748L147.49413671875,86.04593561159952L147.603203125,86.89012317747304L147.63955859375,87.2745421398109L147.748625,88.43142971878801L147.78498046875,88.43198674411906L147.82133593749998,88.14968678358328L148.03946875,89.01906039749794L148.07582421875003,88.66525002555179L148.1121796875,88.67786290761507L148.5484453125,90.04885037079458L148.6938671875,89.7281171667179L148.766578125,89.85771568335362L149.057421875,90.69370183610613L149.23919921875,89.88419046012777L149.23919921875,89.38565131579766L149.2755546875,89.90210930688141L149.38462109375,90.54610112550962L149.63910937499998,90.61233174838156L149.7118203125,90.75597987023511L149.8572421875,91.82431880601754L149.96630859375,90.91901079993553L150.18444140625002,91.38347581716376L150.6570625,91.9199186127901L151.093328125,92.35979357206939L151.1660390625,91.97052620076276L151.1660390625,91.73012281681646L151.3114609375,92.06577464724909L151.6023046875,92.0649568555706L151.8204375,93.34850172358472L152.00221484375,93.40506504288612L152.14763671875,93.56302993897046L152.256703125,93.42580394554868L152.69296875,93.47504295630827L154.69251953124999,93.50602882091346L154.83794140625002,93.64752983375212L155.3105625,93.36527160996488L155.71047265625,93.29343476080142L155.85589453125,93.50124311158999L156.14673828125,93.59410830554995L156.18309375,93.6029103164598L156.328515625,93.90041036677044L156.6920703125,93.19434531327428L157.05562500000002,92.93140610599988L157.09198046875,92.6429281735753L157.1283359375,92.59765583120462L157.4191796875,92.65944997872516L158.1462890625,92.91532032830878L159.0188203125,92.4911818599802L159.23695312499999,92.06007915314646L159.27330859375002,92.42538290384047L159.38237500000002,93.24849251473195L159.7459296875,93.53144753406657L160.07312890625,93.75247915809149L160.1821953125,94.3576760641556L160.54575000000003,93.4483529756724L160.72752734375,92.73324720692193L162.03632421875,92.8522829822759L162.36352343750002,92.47610713985918L162.436234375,92.76875853341569L162.58165625,92.93830630843225L162.7997890625,92.09993477992178L162.90885546875,92.56497746638965L163.16334375000002,92.67802900085356L163.45418750000002,92.59436130264439L163.56325390625,92.67040168139759L163.85409765625,92.73762415203176L163.99951953125,93.0377338890728L164.14494140624998,93.564830100407L164.98111718750002,93.30648071337596L165.1265390625,92.57247346766769L165.38102734375002,93.18026416907828L165.52644921875,92.20633554289148L165.926359375,92.77122274419642L166.36262499999998,91.7859718886043L166.9443125,91.78275167699144L167.85319921875,92.2317417660848L168.39853125,92.49508616325234L168.9075078125,92.88102191684827L169.1983515625,92.50390748529544L169.4891953125,92.97269260892617L169.707328125,93.27738784673089L169.74368359374998,93.48675620633726L170.3617265625,93.76487736483764L170.68892578125002,93.39526209324477L171.19790234374997,93.36481601914359L171.30696874999998,93.73446315198167L172.1067890625,93.92047357030789L172.72483203125,93.2548351314086L173.16109765625,93.43262847215111L173.2701640625,93.48478784961938L173.488296875,93.08147488698756L174.1426953125,92.62912847225108L174.21540625,92.96660943693131L174.8698046875,92.78016098691084L175.0152265625,92.88337834961052L175.12429296875,93.34426668755313L175.77869140625,92.90217193952793L175.92411328125002,93.71228412906285L176.1786015625,93.60131792050574L176.65122265625,93.46757674094555L176.86935546875,93.0884596039114L177.37833203124998,92.98912030699067L177.81459765625,92.95524637586867L178.3599296875,93.3333353648139L178.6507734375,93.14943961399118L178.68712890625,92.83805590801826L179.48694921875,93.054728619854L179.63237109374998,93.66213690172653L180.14134765625,94.20973448480447L180.57761328125,93.84947168883517L180.61396875,93.81627253874242L180.86845703125,93.04879039768173L181.37743359375,92.98288831922355L181.59556640625001,92.59495150260891L181.8500546875,92.67029131289317L181.92276562499998,92.24569383447297L182.24996484375,93.0412559257046L182.32267578124998,93.12789429874792L182.35903125,93.45415541644836L183.04978515625,92.20579289664394L183.15885156250002,92.56031145696913L183.48605078125,93.32058008356601L183.958671875,93.62324713027701L184.4676484375,93.14909420068464L184.83120312499997,93.28494285032063L185.412890625,92.79794451742647L185.81280078125,92.51175371861689L186.46719921874998,93.02270540612014L186.83075390625,93.76393965343875L186.86710937499998,93.67457120759103L187.0852421875,93.57921778131545L187.33973046875,93.7552269946179L187.48515234375,93.42238742820601L187.5215078125,93.29274796026257L187.55786328124998,93.20822401457083L188.35768359375,93.38532193370493L188.3940390625,93.48420539949369L188.5394609375,94.00218629346045L188.612171875,93.10977253106023L188.93937109375,93.32292142432998L189.08479296874998,93.49843260690479L190.1391015625,93.44793876163111L190.17545703125,92.7852795424511L190.50265625,92.34423879200916L190.61172265625,92.59697725423992L190.8662109375,92.5771892211102L191.229765625,93.78999069297554L191.26612109375,94.05292870778388L191.30247656249998,93.82598293472125L191.33883203125,93.68757970786038L191.520609375,92.75703001264299L191.7387421875,92.85109075800717L191.8841640625,92.92274132292488L191.956875,93.30268743595425L192.5385625,93.7414414848874L192.75669531249997,93.11586929216259L192.79305078125,93.04238978703053L193.08389453125,92.85187326735131L193.7746484375,92.42518872654627L194.39269140625,93.4077718736236L195.33793359375,93.03773001106939L196.174109375,94.12256632394343L196.64673046874998,94.13371389711615L196.755796875,94.7067382680492L197.88281640625,94.59444875435065L197.919171875,94.24971418082336L198.500859375,93.58116340496248L198.53721484375,93.87039567097884L198.90076953125,93.84229144103578L199.00983593750001,93.5653351380264L199.082546875,93.56334814225313L199.48245703125,93.02575842615771L199.70058984375,92.80243648394364L199.80965625000002,93.37528644071006L199.955078125,93.09100986990258L200.6094765625,93.59559348341908L200.64583203125,94.05019369882265L200.79125390624998,93.51429445359923L200.90032031249999,93.41532874277854L200.97303125,93.5440850531357L201.4820078125,93.75972814230573L201.6274296875,93.74168177102412L202.02733984375,94.2143497146763L202.13640625,94.24937847984089L202.863515625,93.25865314327365L203.154359375,93.22142793581165L203.51791406249998,93.42827218264837L203.55426953125001,93.3010367578364L203.95417968750002,93.28715931117449L204.79035546875,93.13987823983645L204.9721328125,92.51700018168856L205.59017578125,92.34242773032342L207.18981640625,93.03551624725951L207.226171875,92.988579601941L207.37159375,93.33469923109328L207.517015625,93.83651093149162L208.1714140625,93.5641374555136L208.389546875,93.24325365847777L208.42590234374998,93.22275841996928L209.95283203125,92.84663583331157L210.24367578125,92.90727185172217L210.53451953125003,92.98975936218194L210.570875,92.93510186766375L211.18891796875002,92.3983166390678L211.6615390625,92.26474679967554L211.80696093749998,93.11884292456648L212.20687109374998,93.23046399756491L212.64313671875001,93.15496115879083L212.75220312500002,92.9545796586989L212.8249140625,92.92574569841402L212.97033593749998,92.86825434919305L213.26117968749998,93.35270717756943L215.4425078125,92.96489216198721L215.660640625,93.3031000116082L215.69699609375,92.55421904121842L215.76970703125,92.92946115495764L216.3150390625,93.0901781961375L216.56952734375,93.16811367657768L217.405703125,93.57527091939112L217.551125,94.0673043902051L217.95103515625001,93.345507624434L218.0601015625,93.45211430534249L218.67814453124998,93.18392665091537L218.89627734375,93.64809307481211L219.36889843749998,92.99645521275087L220.0960078125,93.02958722514374L220.42320703125,93.06378926000474L221.00489453125,93.45115651286528L221.07760546875002,93.25615324336422L221.4048046875,92.40062024647871L221.73200390625001,92.36746847983461L222.02284765625,92.96524252184983L222.74995703125,92.93624561276621L222.82266796874998,93.18790783863551L222.931734375,93.46613356317518L223.00444531250002,93.61077920371226L223.22257812499998,93.07511621827243L223.65884375000002,92.90667175222053L223.69519921875,93.05416859411037L223.9496875,93.49665685826243L224.05875390625002,93.55550897179597L224.24053125,93.36576756141385L224.49501953125,94.07229605579785L224.56773046874997,93.41820698778147L226.421859375,94.02647843813091L226.82176953125,93.32425687740027L226.9308359375,93.38027018135985L227.11261328125,93.03115567047452L227.69430078125,92.88235311694376L227.83972265625002,93.56613022536827L227.876078125,92.6381957488306L227.9487890625,92.54908357519857L228.31234375,92.67200129719615L228.45776562499998,93.42811754581221L228.60318750000002,93.71161963087452L228.93038671875,93.29159438817315L228.9667421875,92.50533269188638L229.14851953125,92.34158429980378L229.29394140625,92.57195474228654L229.330296875,92.84092156519L229.87562890625003,93.3007915683028L231.0026484375,93.2020381278921L231.43891406249998,92.61088550957811L231.69340234375,93.3088086942699L231.8751796875,93.14876567323205L232.38415625000002,92.9169349225811L232.71135546874999,92.57654807971296L233.25668750000003,93.56669581809469L233.65659765624997,93.2985072872933L233.91108593750002,93.17654807618635L233.94744140625,93.06393719465362L234.0565078125,93.16043591218356L234.274640625,93.62639816789459L235.6561484375,93.42246939105966L235.76521484375002,93.58444314401586L235.83792578125,93.24509961186922L235.9469921875,94.21402541896482L235.98334765624998,94.19694826249084L236.12876953125001,93.61517385753936L237.29214453125002,93.28058090442852L237.80112109375003,93.4608922378619L238.78271875,93.47550863383607L239.0008515625,93.72989395143294L239.1462734375,93.82114482617071L239.800671875,93.80505755974929L239.98244921875,93.19483195503999L240.52778124999998,93.06008251936504L240.63684765624998,93.40756943929952L240.7459140625,93.64842692264506L241.50937890625,93.56592996831556L241.9092890625,93.87910591081936L242.38191015625,93.43519973218139L242.418265625,93.64323349620716L242.7818203125,93.75791886088408L242.89088671875,93.98061991920699L243.03630859375,93.10276364971575L243.6543515625,92.96404851821025L243.7270625,92.632927683077L243.83612890625,92.99927291696177L244.59959375,92.86236326608336L244.6723046875,93.1987046398517L244.85408203125002,92.67376871062761L245.25399218750002,92.9357319985039L245.54483593749998,93.10760024390527L245.6902578125,93.17802986987246L246.30830078125,92.101678780642L246.52643359375,92.40494905940969L246.88998828125003,92.86200523743398L246.96269921875,93.1666266664527L247.18083203125002,93.22839509208637L247.362609375,92.87568812707183L247.54438671875002,93.81551205441492L247.653453125,93.60557142441552L248.19878515625,93.38091313650591L248.235140625,93.77939239776362L249.21673828125,93.43916294631101L249.50758203125002,94.28571235680623L249.87113671875,93.98051204475853L250.27104687500002,93.90169920026449L251.03451171875,93.5852380621716L251.25264453124998,93.2011882343528L251.6525546875,92.86899296232552L251.68891015625,93.03599610169492L252.85228515625,93.2937820628503L252.88864062500002,93.1972294375431L253.10677343749998,94.09747636219649L254.9972578125,94.89638699962502L255.06996875,93.99248291062928L255.32445703124998,93.67085822394725L255.43352343749999,93.74509054016148L255.68801171875,93.71142910110927L256.669609375,93.65382725335944L257.43307421875,93.47083428041145L257.79662890625,93.95116875905067L258.37831640625,93.3631613865789L258.45102734375,93.27326121322092L258.52373828125,93.45510601552063L258.705515625,92.9091230250667L259.868890625,92.80013017889814L260.05066796874996,93.74867325885933L260.450578125,93.59886609383729L260.48693359375,93.48060748415838L260.5232890625,93.10294199921279L260.63235546875,93.47983196092201L261.21404296875,93.48919679442245L262.195640625,93.59514426471313L262.30470703125,93.38514127849452L263.03181640625,92.34958435738761L263.24994921875,92.72576607402968L263.2863046875,93.27830163735898L264.231546875,92.58198345122322L264.48603515625,93.26500103739119L264.55874609375,92.7270600548585L264.7405234375,93.06500065433181L265.94025390625,92.7755805806748L266.04932031249996,92.8097668760875L266.74007421875,93.02983345796487L266.7764296875,93.21143517619264L267.10362890625004,93.04439206274552L267.3581171875,92.54687496832332L267.46718359375,92.87982031656762L267.72167187499997,93.03718622795816L267.83073828125,93.53940028230261L268.52149218750003,93.83305947301733L268.63055859375,93.46138563966521L268.99411328125,93.56568932049268" style="fill: none;" fill="none"></path></g></g></g></g><g opacity="0.20000000298023224"><g><g><g><path stroke="rgb(255, 112, 67)" stroke-width="2px" d="M36.682667968749996,73.29048831015825L36.791734375,78.06562777194713L37.082578125,79.1992811643415L37.11893359374999,84.59592129124535L37.1552890625,82.45256839299368L37.373421875,87.29771559664773L37.627910156249996,89.6234956400262L37.700621093749994,90.72660396827591L38.06417578125,95.84938432359033L38.20959765625,96.49978832631476L38.282308593749995,97.25447140675452L38.64586328125,99.50388172351651L39.15483984375,98.99057013044754L39.227550781249995,104.19331222524247L39.37297265625,99.36503452724881L39.66381640625,100.38100180112653L39.700171875,103.16390964554417L40.499992187500006,104.42416677003106L40.60905859375,108.17342264701924L40.863546875000004,102.25754469467533L40.97261328125,107.8075319727262L41.0816796875,100.53808935648865L41.19074609375,106.37148056096501L41.299812499999994,105.44777030994496L41.66336718749999,105.90569188694158L41.954210937499994,102.76287141980397L41.990566406250004,105.73732658889558L42.13598828125,102.18306636893087L42.49954296875,102.3434986182385L42.64496484375,92.06963520165947L42.935808593750004,105.1715080117186L43.00851953125,105.22860335061947L43.9901171875,99.37012694155177L44.02647265625,103.94464600748486L44.31731640625,103.01195219117734L44.390027343750006,101.22226770180795L44.4263828125,101.78297502133582L44.7172265625,94.86444026376638L44.753582031250005,100.21506258390016L44.7899375,96.96789002108076L44.97171484375001,101.7345900192029L45.2989140625,98.12273746708202L45.69882421875,101.43245109584596L45.98966796875,94.68372550772297L46.098734375,96.57181937247515L46.57135546875,93.20464060414169L46.7531328125,100.32270048807064L46.86219921875,95.56637139659789L47.00762109375,98.64364057323999L47.00762109375,98.35853603482246L47.6256640625,98.13756011426449L47.662019531249996,90.88690431416035L47.88015234375,92.39390563509531L47.98921875,94.14743445399735L48.025574218749995,85.26328666094278L48.061929687500005,93.92056056608757L48.09828515625,92.06960222580366L48.134640625,96.6002916685409L48.352773437500005,87.08560782588191L48.53455078125,94.16103934993347L49.33437109375,89.03331732708547L49.40708203125,89.85793984226055L49.47979296875,88.42654744784038L49.62521484375,90.91228159061737L49.77063671875,85.48031961131429L50.025124999999996,88.97304923977289L50.097835937499994,87.62529539275502L50.2432578125,86.13982023940318L50.315968749999996,84.47087684604858L50.35232421875,84.4200846064422L50.388679687499994,83.45289333413045L50.5341015625,85.10443725271357L50.6068125,85.76494599982269L50.64316796875,86.03200567886233L50.75223437499999,86.25464923555653L50.78858984375,83.00826809327637L50.86130078125,78.94138877321447L50.93401171875,84.0777339823544L51.043078124999994,83.7257355650266L51.043078124999994,83.36714197653865L51.47934375,81.62129182120164L51.5520546875,86.20683895548184L52.1337421875,77.33690257856829L52.2791640625,73.88958188125658L52.38823046875,77.31744211280925L52.64271875,79.2421003130989L52.7154296875,76.60885221252424L52.82449609375,75.97695002032238L52.860851562499995,75.52066899215181L52.96991796875,78.25444281142617L53.0062734375,70.90333784371614L53.260761718750004,70.96684934198856L53.2971171875,73.81476908611755L53.478894531250006,73.45695514107744L53.51525,73.72173006439375L53.69702734375,72.44733218631397L53.76973828125001,69.52832827416974L53.842449218750005,67.203942638408L53.98787109375,71.59420557692647L54.0242265625,69.97117046339231L54.133292968750006,71.73859271696872L54.133292968750006,71.30818831392874L54.242359375,68.27520747819088L54.569558593749996,66.72040294343606L54.6059140625,68.70985104526497L54.78769140625,68.09937785964253L55.3330234375,64.45804135930828L55.55115625,58.45459918697857L55.66022265625,57.37786337301239L55.73293359375,66.1429067913236L55.7692890625,65.48012565443705L55.842,62.074351296734264L55.95106640625,60.60205441418414L56.02377734375,53.40931717166677L56.205554687500005,57.73735040109345L56.31462109375,65.12746536457499L56.4236875,56.57635899374468L56.60546484375,54.14526466632056L57.3689296875,49.000872170656095L57.441640625000005,53.31401635954778L57.441640625000005,52.778568545563346L57.47799609375,45.447877988012294L57.805195312500004,56.19032448796659L58.023328125000006,50.63379415238482L58.27781640625,40.50294820012317L58.750437500000004,43.77615991193389L58.968570312500006,48.90130157406546L59.15034765625,45.355131038154184L59.22305859375,36.35205817657214L59.2594140625,43.318619912697216L59.62296875,26.860624667670976L59.73203515625,45.20726730074321L59.87745703125,43.79758008569479L59.9865234375,42.95223224514888L60.2773671875,29.133136926839768L60.31372265625,38.19240535754298L60.53185546875,38.03013588198357L60.5682109375,43.349222684589506L60.640921875,34.22851434598368L60.640921875,33.636315084166L61.513453125,34.719475375074495L61.586164062499996,32.08167778410845L61.62251953125,36.85870629135107L61.658874999999995,37.752271899332584L62.05878515625,32.10124188827143L62.276917968750006,36.12176657675042L62.3132734375,34.6390166423387L62.4586953125,29.71755388668842L62.531406249999996,28.357405828725945L62.967671875,21.542283354947983L63.00402734375,28.712869066331137L63.1858046875,22.96390076354146L63.3312265625,25.72018531523645L63.4039375,28.54886835834219L63.44029296875,29.454441888671766L64.02198046875,26.08469806984067L64.09469140624999,21.795441355349283L64.5673125,31.390291858878385L64.85815625000001,15.601131764550985L64.85815625000001,14.844090910421471L65.149,22.195556257127066L65.2217109375,25.549080665740718L65.5125546875,11.364257196999262L65.5125546875,10.474290668136547L65.91246484375,25.513111073316793L66.02153125,21.216858766559113L66.0942421875,23.935140999861886L66.166953125,22.704036887321223L66.2396640625,23.417968876245965L66.312375,24.987883419212352L66.5305078125,35.61487349847124L66.6759296875,23.717479152811904L66.78499609375,19.235202977226834L66.93041796874999,14.147042559666772L67.07583984375,39.241649980760286L67.14855078125,38.41710754980642L67.18490625,32.33969736782211L67.22126171875,36.879205496567835L67.29397265625,40.5309423462798L67.4030390625,45.901060463446726L67.58481640625,44.18005290461912L67.76659375,43.65168547795878L67.8393046875,47.72489969546183L67.87566015625,47.70684541441088L67.91201562500001,52.89627232971705L68.02108203125,56.906818288688854L68.0574375,52.416752156025424L68.09379296875,49.74574257857685L68.45734765625,49.47871587539299L68.60276953125,57.872672861131534L68.7118359375,70.81583169951207L68.8572578125,64.58733026823029L68.8572578125,62.87944886657513L69.03903515625,68.93815467206555L69.1481015625,88.44353707983262L69.54801171875,104.18085206258628L69.62072265625,99.1852690047688L69.8025,109.7396815808283L69.8752109375,108.71464594660533L70.0206328125,108.1087805479765L70.27512109375,114.77496285819345L70.3114765625,113.7945718218883L70.42054296875,134.96451536731587L70.4568984375,114.44183134122027L71.07494140625,144.86525226467185L71.1840078125,129.85031344534622L71.51120703125001,148.71489135755434L71.692984375,150.06430106361708L71.72933984375,147.5053181234333L71.7656953125,137.51985212001534L72.09289453125001,153.84167592393027L72.3473828125,148.97097243203058L72.38373828125,152.8887302213245L72.7109375,158.08380307422743L72.78364843749999,157.75150066448583L72.92907031249999,148.47414876686202L73.25626953125,142.6544189883603L73.36533593749999,161.2864747196436L73.8016015625,158.7182585398356L74.019734375,158.5043582957652L74.09244531249999,161.15739779836602L74.09244531249999,160.1259318722619L74.12880078125,156.44149239526854L74.16515625,156.60285739021168L74.23786718749999,156.58921480758323L74.310578125,160.91260388824674L74.456,153.37074301640192L74.71048828125001,157.90262430078454L75.32853125,152.8362703455819L75.40124218749999,154.56641928272114L75.5466640625,150.55987164626518L75.6920859375,150.98477968076864L75.91021875,143.50482862277164L76.09199609375,152.44306624101267L76.1283515625,151.751666183273L76.16470703125,149.50727290742927L76.2737734375,149.11560453557306L76.31012890625001,141.6416456616587L76.45555078125001,143.11381034635835L76.52826171875,153.52602161053153L76.89181640625,146.45478273100323L77.0008828125,147.51662413113647L77.0008828125,146.59852919727564L77.03723828125001,148.4772390756342L77.10994921875,143.98136742578612L77.18266015625001,144.4487860492534L77.18266015625001,143.57261756062508L77.32808203124999,142.74582806064024L77.36443750000001,138.14729786084757L77.47350390624999,137.2722411296434L77.800703125,134.83045909181237L77.98248046875,135.60247569531202L78.091546875,135.18996658258968L78.20061328124999,138.2600705768499L78.27332421875,132.60031138567462L78.49145703125,127.79425470365418L78.52781250000001,122.36824722174141L78.964078125,127.85748355173402L79.14585546875,124.13376511964533L79.7638984375,109.35697322007682L79.80025390624999,112.36395671549771L79.83660937500001,114.04024194760454L80.09109765625,108.3504653059774L80.6364296875,94.03395511251357L80.7818515625,97.35665416220823L80.89091796875,96.9237801031106L80.9272734375,94.66507766126759L80.96362890625,90.69612485584285L81.0726953125,95.45369760816297L81.5089609375,97.10986050197648L81.54531640625,93.58486164319847L81.72709375000001,94.31811041736769L81.76344921875,96.83107790619962L81.83616015625,91.96004701116019L82.0906484375,89.07997345220711L82.19971484375,94.376814506948L82.3814921875,85.51037003762193L82.63598046875,88.9167052793006L82.70869140625,87.14590653363203L82.74504687499999,83.88254518103267L83.21766796875,91.5968462245332L83.43580078125,92.10153934214678L83.617578125,88.83875977786052L83.72664453125,86.17844203280079L84.01748828125,93.2200638829834L84.1265546875,92.72807589152622L84.16291015624999,86.34962441109948L84.4173984375,86.14841516067584L84.52646484375,90.19673849559493L84.59917578125,89.45520571536488L85.03544140625,89.61489365249872L85.14450781250001,85.84679442933864L85.25357421875,91.7752644477619L85.47170703125,93.80154363624752L85.61712890625,99.45943498073352L85.87161718750001,91.17978408829205L86.08975,97.55260376363165L86.1624609375,92.67485521568192L86.41694921874999,93.749995307376L86.41694921874999,93.60543386638165L86.45330468750001,95.59940142701898L87.03499218750001,104.59373333139551L87.07134765625,91.04707982287638L87.07134765625,90.86555244752931L87.398546875,94.11177342136702L87.689390625,101.44838314503431L87.7621015625,99.50745724845264L88.561921875,107.18880127949846L88.70734374999999,98.79549438920286L88.88912109374999,106.99355594813824L88.9981875,108.92262466914124L89.0708984375,102.54335114773777L89.36174218750001,111.04380601520339L89.39809765625,105.00548399943445L89.434453125,107.07343289256096L90.27062890625001,107.34531882363889L90.41605078125001,106.41429735430413L90.85231640625,104.59011540893052L90.99773828125001,108.80711495710743L91.07044921875,115.6945181513826L91.14316015625,107.01656367381415L91.179515625,115.28343171129623L91.36129296874999,112.25151846888993L91.43400390625,115.97982525577149L91.57942578125001,109.72316538790861L91.61578125,119.45421795298657L92.052046875,109.73381658933229L92.1247578125,112.07920077898436L92.16111328125001,107.32640481491885L92.67008984374999,110.22616024894846L93.10635546875,106.04125563013885L93.36084375,103.39132999049293L93.506265625,108.38503342452977L93.61533203125,107.22588498476479L93.68804296875,107.8881862051785L93.797109375,105.92968888829151L94.087953125,105.61732744963633L94.41515234375,110.99882694789105L94.4515078125,106.17447337673771L94.56057421875,106.27650538542204L94.63328515625001,107.73936616794931L95.06955078125,116.34633776048818L95.10590625,103.964280774196L95.251328125,111.42582188298306L95.28768359375,106.25232937228348L95.32403906249999,113.04612353361316L95.36039453125001,111.01917305092016L95.36039453125001,110.88273780296245L95.833015625,106.39172302559018L95.9784375,115.98569495810402L96.414703125,109.17430582228634L96.560125,102.96889985601106L96.81461328124999,111.56777823136913L96.85096875,108.35545879271295L97.1418125,110.11359952059057L97.68714453125,112.10425771855645L97.7235,111.74468427606755L97.90527734375,116.51051041401095L98.19612109375001,113.1485842284229L98.3051875,116.58805078350835L98.70509765624999,121.53622869319386L98.741453125,120.46414593441618L98.85051953125,113.39947396102879L99.03229687500001,121.26388581097126L99.06865234375,121.08591511721411L99.21407421875,116.94989013837444L99.32314062500001,119.02132033970621L99.43220703125,117.37711590445704L99.5412734375,121.39686330490642L99.613984375,125.42080334987905L99.90482812500001,119.83880122668214L100.1229609375,123.93642817686L100.19567187499999,124.19836011032262L100.30473828125,123.29369577144584L100.59558203124999,120.06798342449797L100.63193749999999,122.97610530422794L100.74100390625,114.57508206367493L100.81371484375,119.0058970608645L101.10455859375,124.13951234022775L101.4317578125,123.19426885536976L101.7953125,121.55570800229907L102.12251171875,122.217924427655L102.15886718750001,125.2380511570308L102.19522265625,122.60784978999031L102.231578125,117.90838049559129L102.3042890625,124.52648871888718L102.5951328125,122.40975440252159L102.813265625,120.04710499693951L103.06775390625,122.60129230552249L103.6130859375,116.18126062634919L103.64944140625,117.38410678588681L104.08570703125,114.06437085237768L104.15841796875,117.26586478865809L104.1947734375,118.57843575295475L104.30383984375001,115.95375548634264L104.3401953125,121.1912823981709L104.37655078125,116.665289659467L104.558328125,116.38028875945342L104.66739453125,121.09157283190224L104.9218828125,118.44379533371992L105.0673046875,120.3803919715186L105.2854375,117.32396353574264L105.32179296874999,116.71059848533737L105.39450390625,118.18161843675706L105.61263671875,116.71592173063092L105.68534765625,118.48793116129107L105.75805859375,116.39346496926414L105.79441406250001,115.40917807113793L105.97619140625,117.47242554939456L106.04890234374999,118.65146314104399L106.594234375,116.88235558569431L106.6669453125,112.20410389908486L106.8123671875,115.97215601387951L107.6121875,110.54987009283569L107.757609375,114.4174339187642L107.86667578125001,109.66741734825902L107.93938671875,112.09110035209191L108.15751953125,108.44171420981488L108.26658593750001,111.46680616090694L108.37565234374999,110.49961488859522L108.7755625,104.9669729106956L108.95733984374999,107.09525348742804L109.06640625,109.88407814254364L109.211828125,106.40206802263856L109.24818359375,106.00565583838356L109.46631640625,107.45019617759519L109.64809375,104.07349209777183L109.72080468749999,105.85755184830892L109.90258203125,110.16768934577703L110.7387578125,104.6958124484453L110.84782421874999,109.35499466872878L110.84782421874999,109.17247801770768L111.02960156249999,107.23317735973332L112.37475390625,103.34914444925057L112.55653125,104.92834405104318L112.59288671875,109.40935772243473L112.6292421875,106.65330164631209L112.66559765625001,105.57234367148745L112.701953125,103.99838723076714L112.73830859375,103.94828277329603L113.17457421875,106.08528781930605L113.283640625,102.99596832278702L113.31999609375,103.34719887375832L113.46541796875,101.0471564858324L113.68355078124999,105.37250998533435L113.82897265624999,108.02596404155096L113.90168359375,102.72642838830748L113.90168359375,102.45980446164808L114.19252734375,100.64127552012602L114.48337109375,103.90080696261592L114.5924375,98.30035013726187L114.6651484375,97.75005612191227L114.81057031249999,103.70297067115703L114.84692578125,99.63613374862406L115.028703125,100.87398142367601L115.1014140625,99.32447893545032L115.21048046875,100.93579230995643L115.28319140625,98.92341244469085L115.7558125,99.60121702816751L115.93758984375,100.73978853391277L116.19207812500001,96.94977685457302L116.3375,98.10757563966844L116.44656640625,98.87296409615212L116.51927734375,97.97502918727696L116.51927734375,97.73185344951021L116.88283203124999,97.82480296533969L116.9191875,98.38553854988682L117.02825390625,92.98059792899423L117.5735859375,94.65412025546861L117.68265234375001,95.06713107228279L117.97349609375,94.53568040310509L118.0098515625,94.3889166460269L118.3006953125,92.70266799463165L118.33705078125,91.67603538682064L118.66425,92.40317185057533L118.70060546875,92.21432854607701L118.7369609375,93.0805548141814L118.91873828125,92.56220969226625L119.10051562499999,89.92201193008158L119.57313671875,89.74434508528147L119.6094921875,92.04001817231378L119.827625,93.0473363502986L119.86398046875,88.36321496135659L119.9003359375,87.05960400816465L119.93669140624999,87.32107192422782L120.15482421875001,89.2656557853851L120.4820234375,90.10197530769639L120.84557812499999,88.42597743661868L120.991,91.10509613032141L121.136421875,87.56230679733885L121.2091328125,88.58330053380794L121.31819921875001,89.07717050446404L121.3545546875,90.65618167279494L121.3545546875,90.54697506005564L121.53633203125,90.44267242815759L122.00895312499999,88.65660115041666L122.11801953125,88.58923383243382L122.40886328125,88.12398454919457L122.59064062499999,88.39874409056372L122.6633515625,88.64891777601505L122.69970703125,87.38937669868271L122.84512890625,87.96941022512813L122.9541953125,89.21615195957324L122.99055078125,87.57378239515756L123.17232812499999,89.05626381188631L123.2450390625,86.03149455309742L123.35410546874999,90.23839171230793L123.39046093750001,90.52147530184853L123.49952734374999,88.26800895482302L123.60859375,88.01181482026975L123.64494921874999,90.24233939333094L123.6813046875,89.2754708133224L124.335703125,87.457589611825L124.55383593750001,88.34503819855551L124.88103515625001,90.54833884723485L124.917390625,90.30879045360618L125.28094531250001,90.41908055875037L125.31730078125,91.10237091138131L125.68085546875,91.9079828456872L126.11712109375,91.19503777701821L126.1534765625,90.35406394820247L126.40796484375,90.9229280812045L126.55338671874999,91.86015372226635L126.69880859375,90.62721709431045L126.77151953125001,92.01363513225483L126.807875,90.45248981151316L126.807875,90.39310971688893L127.6076953125,92.21035024461648L127.71676171874999,89.97183844819665L127.78947265625,89.78333667934768L127.89853906249999,91.0465828296211L128.15302734374998,90.79206104204059L128.18938281249999,90.73612456892928L128.18938281249999,90.67499910936587L128.3348046875,92.83317936563658L128.66200390625,90.70816104321015L129.0619140625,91.54913958286247L129.17098046875,90.07501519016094L129.53453515625,92.31628989221322L129.570890625,93.06024639784462L129.67995703125,92.96264257551067L130.152578125,93.04117457610037L130.2252890625,92.58685678905911L130.47977734375,93.97404740419653L130.55248828125002,91.62185134490332L130.87968750000002,90.6293110611538L131.025109375,92.60388175232542L131.42501953125,91.14514295177328L131.49773046875,92.52143504656851L131.57044140625,93.46978532812662L131.60679687500001,91.29477560830614L132.07941796875,90.84831785203683L132.479328125,90.61328715065288L132.73381640624999,94.02036670450535L133.02466015624998,91.6623574729181L133.2064375,90.5915819712811L133.49728125000001,90.55582201108336L133.75176953125,90.41391041564444L133.788125,90.70130677604013L134.1516796875,89.65133197315865L134.5879453125,86.79359955651064L134.62430078124999,87.23410045997136L134.8787890625,86.18382651896941L135.20598828125,85.84752931983935L135.27869921875,86.19863503364225L135.35141015624998,87.29716207335393L136.0421640625,84.72516309180193L136.15123046875001,84.62672545139988L136.22394140625,84.56814619898796L136.3330078125,84.45235383676159L136.44207421875,83.9772683268206L136.551140625,83.09201970075567L136.58749609375,83.20648831791348L136.6238515625,81.95925194563138L137.0601171875,81.77565415762365L137.2055390625,82.68778046158452L137.53273828125,82.18828810751438L137.60544921875,81.69135138226879L137.6418046875,81.53741537655394L137.8599375,81.54445101093089L137.89629296875,81.28218225265543L138.00535937499998,81.45433035244544L138.2234921875,80.5547254520158L138.33255859375,80.81701069821914L138.5143359375,78.80080798909896L138.69611328125,80.52712701612877L139.20508984375002,80.29778700528873L139.2414453125,80.73287280214329L139.31415625,81.70348178636695L139.56864453125,82.08077504051228L140.332109375,82.83688550442457L140.36846484375002,82.92680595235693L140.69566406250001,80.61915320799582L141.02286328125,79.86464442850816L141.3500625,79.85775718548231L141.38641796874998,80.69384352138472L141.495484375,81.7129364353087L141.5681953125,82.03542146169477L141.89539453125,81.90990593284369L141.93175,80.7195387793084L142.22259375,78.1746165084963L142.2953046875,82.2164000245846L142.40437109375,80.53867092107733L142.91334765625,82.81133392701547L142.94970312499998,82.73080924256809L143.05876953125,82.11345882444746L143.38596875,83.35914297608865L143.42232421875,81.10161824338138L143.56774609375,83.39253338550527L143.71316796874999,82.50440879373086L143.8949453125,81.26853495919042L143.93130078125,83.09212333915961L144.113078125,82.46853341803782L144.18578906250002,83.78319128292303L144.18578906250002,83.76279571611022L144.54934375,84.92994080090689L144.6220546875,84.26541606564487L144.65841015625,84.50309896800255L144.73112109375,83.1870137196448L144.91289843750002,86.60641446647544L145.24009765625001,85.43241982534528L145.60365234374999,83.99771571283539L145.67636328125,85.65273858420551L145.85814062499998,86.57630751012928L145.96720703124998,84.37390898664792L145.96720703124998,84.32707384973764L146.03991796875002,85.8393701509469L146.11262890625,85.75895852657656L146.5125390625,88.6000828889923L146.83973828125,87.68146034143865L146.91244921875003,85.75638640982409L146.98516015625,88.37046729421449L147.27600390625,87.32234385009443L147.31235937499997,84.9536834170835L147.49413671875,85.57318904292251L147.603203125,88.15640452628334L147.63955859375,87.85117058331768L147.748625,90.16676108725369L147.78498046875,88.43282228211562L147.82133593749998,87.72623684277964L148.03946875,90.32312081836992L148.07582421875003,88.13453446763258L148.1121796875,88.69678223070999L148.5484453125,92.10533156556389L148.6938671875,89.24701736060283L148.766578125,90.05211345830726L149.057421875,91.94768106523487L149.23919921875,88.6699233961602L149.23919921875,88.63784259930253L149.2755546875,90.67679629350701L149.38462109375,91.51208885345194L149.63910937499998,90.7116776826895L149.7118203125,90.97145205301544L149.8572421875,93.4268272096912L149.96630859375,89.56104879081249L150.18444140625002,92.08017334300611L150.6570625,92.72458280622959L151.093328125,93.01960601098835L151.1660390625,91.38662514380283L151.1660390625,91.36951774089701L151.3114609375,92.569252392898L151.6023046875,92.06373016805284L151.8204375,95.27381902560592L152.00221484375,93.48991002183821L152.14763671875,93.79997728309698L152.256703125,93.21996495541599L152.69296875,93.54890147244764L154.69251953124999,93.5525076178213L154.83794140625002,93.85978135301006L155.3105625,92.94188427428404L155.71047265625,93.1856794870562L155.85589453125,93.81295563777289L156.14673828125,93.7334060964899L156.18309375,93.61611333282458L156.328515625,94.3466604422364L156.6920703125,92.13524773303006L157.05562500000002,92.53699729508824L157.09198046875,92.21021127493846L157.1283359375,92.5297473176486L157.4191796875,92.75214120000601L158.1462890625,93.29912585268417L159.0188203125,91.85497415748736L159.23695312499999,91.41342509289584L159.27330859375002,92.9733385298815L159.38237500000002,94.48315693106916L159.7459296875,93.95588006306853L160.07312890625,94.08402659412887L160.1821953125,95.26547142325175L160.54575000000003,92.08436834294763L160.72752734375,91.6605885537962L162.03632421875,93.03083664530682L162.36352343750002,91.91184337623417L162.436234375,93.20773562375042L162.58165625,93.19262797095709L162.7997890625,90.84237748715613L162.90885546875,93.26254149609142L163.16334375000002,92.84760630254945L163.45418750000002,92.46885975533061L163.56325390625,92.78446224952737L163.85409765625,92.83845785798299L163.99951953125,93.48789849463436L164.14494140624998,94.35547441740832L164.98111718750002,92.91895663282938L165.1265390625,91.47146259910531L165.38102734375002,94.09195022119415L165.52644921875,90.74544260361128L165.926359375,93.61855354615383L166.36262499999998,90.3080956052161L166.9443125,91.77792135957215L167.85319921875,92.90522689972487L168.39853125,92.89010275900364L168.9075078125,93.45992554724216L169.1983515625,91.9382358379662L169.4891953125,93.67587029437223L169.707328125,93.734430703438L169.74368359374998,93.80080874574682L170.3617265625,94.18205910258823L170.68892578125002,92.84083918585546L171.19790234374997,93.31914690799184L171.30696874999998,94.28893385123875L172.1067890625,94.19948919779725L172.72483203125,92.25637747305963L173.16109765625,93.69931848326492L173.2701640625,93.56302691582177L173.488296875,92.47650544303987L174.1426953125,91.95060885014632L174.21540625,93.47283088395166L174.8698046875,92.50048831188016L175.0152265625,93.03820439366004L175.12429296875,94.03559919446707L175.77869140625,92.2390298174901L175.92411328125002,94.92745241336524L176.1786015625,93.43486860767007L176.65122265625,93.26696497160528L176.86935546875,92.5197838983602L177.37833203124998,92.84011136160957L177.81459765625,92.90443547918565L178.3599296875,93.90046884823177L178.6507734375,92.87359598775706L178.68712890625,92.3709803490589L179.48694921875,93.37973768760762L179.63237109374998,94.57324932453534L180.14134765625,95.03113085942137L180.57761328125,93.30907749488122L180.61396875,93.76647381360331L180.86845703125,91.89756718609068L181.37743359375,92.88403520153629L181.59556640625001,92.01304627768695L181.8500546875,92.78330102831953L181.92276562499998,91.60879761684272L182.24996484375,94.23459906255206L182.32267578124998,93.25785185831288L182.35903125,93.94354709299901L183.04978515625,90.33324911693731L183.15885156250002,93.09208929745687L183.48605078125,94.46098302346137L183.958671875,94.07724770034352L184.4676484375,92.4378648062961L184.83120312499997,93.48871582477457L185.412890625,92.06744701808525L185.81280078125,92.08246752040255L186.46719921874998,93.78913293737504L186.83075390625,94.87579102441669L186.86710937499998,93.54051853881943L187.0852421875,93.4361876419021L187.33973046875,94.01924081457159L187.48515234375,92.92312807858818L187.5215078125,93.09828875834742L187.55786328124998,93.08143809603321L188.35768359375,93.65096881240606L188.3940390625,93.63253059817684L188.5394609375,94.7791576344106L188.612171875,91.77115188745988L188.93937109375,93.64264476423463L189.08479296874998,93.76169938076701L190.1391015625,93.37219799372056L190.17545703125,91.79129071368111L190.50265625,91.68267766634622L190.61172265625,92.97608494758606L190.8662109375,92.54750717141562L191.229765625,95.60919290077355L191.26612109375,94.44733572999635L191.30247656249998,93.48556427512732L191.33883203125,93.47997486756908L191.520609375,91.36120546981692L191.7387421875,92.99218187605342L191.8841640625,93.03021717030141L191.956875,93.87260660549832L192.5385625,94.39957255828712L192.75669531249997,92.17751100307537L192.79305078125,92.93217052933242L193.08389453125,92.56609848783248L193.7746484375,91.7851619153387L194.39269140625,94.8816465942396L195.33793359375,92.48266721723807L196.174109375,95.7498207932545L196.64673046874998,94.15043525687523L196.755796875,95.56627482444875L197.88281640625,94.42601448380285L197.919171875,93.73261232053241L198.500859375,92.57833724117113L198.53721484375,94.30424407000342L198.90076953125,93.80013509612117L199.00983593750001,93.1499006835123L199.082546875,93.56036764859326L199.48245703125,92.21937385201454L199.70058984375,92.46745357062254L199.80965625000002,94.23456137585971L199.955078125,92.66459501369131L200.6094765625,94.35246890369389L200.64583203125,94.73209402192798L200.79125390624998,92.71044558576412L200.90032031249999,93.2668801765475L200.97303125,93.73721951867142L201.4820078125,94.08319277606077L201.6274296875,93.71461221410168L202.02733984375,94.92335163015458L202.13640625,94.30192162758775L202.863515625,91.77256513842278L203.154359375,93.16559012461867L203.51791406249998,93.73853855290346L203.55426953125001,93.11018362061846L203.95417968750002,93.2663431411816L204.79035546875,92.91895663282938L204.9721328125,91.58268309446672L205.59017578125,92.08056905327571L207.18981640625,94.07514902266362L207.226171875,92.91817463396323L207.37159375,93.85387867482173L207.517015625,94.58922848208911L208.1714140625,93.15557724154658L208.389546875,92.76192796292403L208.42590234374998,93.1920155622065L209.95283203125,92.28245195332501L210.24367578125,92.99822587933805L210.53451953125003,93.11349062787163L210.570875,92.85311562588645L211.18891796875002,91.59313879617386L211.6615390625,92.06439204058714L211.80696093749998,94.3999871119029L212.20687109374998,93.39789560706251L212.64313671875001,93.04170690062973L212.75220312500002,92.65400740856099L212.8249140625,92.88249475798673L212.97033593749998,92.78201732536158L213.26117968749998,94.07938642013404L215.4425078125,92.38316963861385L215.660640625,93.81041178603968L215.69699609375,91.43089758563373L215.76970703125,93.4923243255665L216.3150390625,93.33125375790728L216.56952734375,93.28501689723797L217.405703125,94.18600678361125L217.551125,94.8053545964261L217.95103515625001,92.26281247577734L218.0601015625,93.61202432670527L218.67814453124998,92.78164516927468L218.89627734375,94.34434271065724L219.36889843749998,92.01899841965901L220.0960078125,93.07928524373305L220.42320703125,93.11509231229624L221.00489453125,94.03220739215612L221.07760546875002,92.96364833911261L221.4048046875,91.11732075115046L221.73200390625001,92.31774082986844L222.02284765625,93.86190358487269L222.74995703125,92.89275024914079L222.82266796874998,93.56540117743943L222.931734375,93.88347214998471L223.00444531250002,93.82774766451783L223.22257812499998,92.27162174011269L223.65884375000002,92.6540050531427L223.69519921875,93.27541385694511L223.9496875,94.16038925449052L224.05875390625002,93.64378714209629L224.24053125,93.08115544584062L224.49501953125,95.1320887973739L224.56773046874997,92.43707338575688L226.421859375,94.93888561365506L226.82176953125,92.27092453630435L226.9308359375,93.46429013729923L227.11261328125,92.50748390414648L227.69430078125,92.65914928664765L227.83972265625002,94.59179588800502L227.876078125,91.24629403402409L227.9487890625,92.41541531475055L228.31234375,92.85637788019247L228.45776562499998,94.56229191873636L228.60318750000002,94.136872758468L228.93038671875,92.6615565241211L228.9667421875,91.3259401474562L229.14851953125,92.0959617116799L229.29394140625,92.91751040601068L229.330296875,93.24437179954516L229.87562890625003,93.99059657297201L231.0026484375,93.05390796727605L231.43891406249998,91.72415658210716L231.69340234375,94.35569347130755L231.8751796875,92.90870114167532L232.38415625000002,92.56918879660466L232.71135546874999,92.06596781541076L233.25668750000003,95.05191742566726L233.65659765624997,92.89622449109125L233.91108593750002,92.99360925952593L233.94744140625,92.89502087235451L234.0565078125,93.30518398847845L234.274640625,94.32534155146115L235.6561484375,93.11657622580728L235.76521484375002,93.82740377345019L235.83792578125,92.73608431364927L235.9469921875,95.6674141296082L235.98334765624998,94.17133252777987L236.12876953125001,92.74251225011217L237.29214453125002,92.77869147476223L237.80112109375003,93.73135923801196L238.78271875,93.49743322779736L239.0008515625,94.11147192782826L239.1462734375,93.95802113827732L239.800671875,93.78092666011717L239.98244921875,92.27949354797602L240.52778124999998,92.85795836585262L240.63684765624998,93.92879981920123L240.7459140625,94.0097131476634L241.50937890625,93.44218453682132L241.9092890625,94.34886982457506L242.38191015625,92.76934046422443L242.418265625,93.95528414224586L242.7818203125,93.92994690789945L242.89088671875,94.31467150669131L243.03630859375,91.7859792454789L243.6543515625,92.75597582095199L243.7270625,92.13624643037716L243.83612890625,93.54879076778889L244.59959375,92.65699878976577L244.6723046875,93.70321670050421L244.85408203125002,91.88636481679148L245.25399218750002,93.32867693031827L245.54483593749998,93.36540261200733L245.6902578125,93.28367430882322L246.30830078125,90.48715214679638L246.52643359375,92.85985447756119L246.88998828125003,93.54758950447044L246.96269921875,93.62355880998075L247.18083203125002,93.32104773053693L247.362609375,92.34662767954998L247.54438671875002,95.22524794542956L247.653453125,93.29066047941646L248.19878515625,93.04392570464147L248.235140625,94.3771112896502L249.21673828125,92.9288187691321L249.50758203125002,95.55553647254905L249.87113671875,93.52271157668697L250.27104687500002,93.78347993352347L251.03451171875,93.11054635503226L251.25264453124998,92.62511349262464L251.6525546875,92.3707000542846L251.68891015625,93.286500810749L252.85228515625,93.68046100458336L252.88864062500002,93.05240049958229L253.10677343749998,95.44784674917659L254.9972578125,96.09475295576785L255.06996875,92.63662677713566L255.32445703124998,93.18842119392421L255.43352343749999,93.85643901448283L255.68801171875,93.660936942531L256.669609375,93.56742448173463L257.43307421875,93.1963448209895L257.79662890625,94.67167047700949L258.37831640625,92.48115032787123L258.45102734375,93.13841095318398L258.52373828125,93.72787321897017L258.705515625,92.09014853938586L259.868890625,92.6366409096453L260.05066796874996,95.1714878788011L260.450578125,93.37415534630418L260.48693359375,93.30321956964004L260.5232890625,92.53644377179444L260.63235546875,94.04516690348586L261.21404296875,93.50324404467311L262.195640625,93.75406547014913L262.30470703125,93.07013679916659L263.03181640625,90.7962489757273L263.24994921875,93.29003864899278L263.2863046875,94.10710498235292L264.231546875,91.53750617201958L264.48603515625,94.28952741664317L264.55874609375,91.92014858105945L264.7405234375,93.57191155354181L265.94025390625,92.34145047018924L266.04932031249996,92.86104631920657L266.74007421875,93.35993333078093L266.7764296875,93.48383775353432L267.10362890625004,92.79382739257481L267.3581171875,91.80059932669005L267.46718359375,93.37923833893406L267.72167187499997,93.27323509504399L267.83073828125,94.29272136381931L268.52149218750003,94.27354825908938L268.63055859375,92.90387488963702L268.99411328125,93.72214484173391" style="fill: none;" fill="none"></path></g></g></g></g></g></g><g transform="translate(39, 177)" clip-path="url(#clip_1)"><clipPath id="clip_1"><rect width="290" height="22"></rect></clipPath><g><g><line x1="0" y1="0" x2="0" y2="5" style="visibility: inherit;" fill="rgb(0, 0, 0)" stroke="rgb(204, 204, 204)" stroke-width="1px"></line><line x1="36.35546875" y1="0" x2="36.35546875" y2="5" style="visibility: inherit;" fill="rgb(0, 0, 0)" stroke="rgb(204, 204, 204)" stroke-width="1px"></line><line x1="72.7109375" y1="0" x2="72.7109375" y2="5" style="visibility: inherit;" fill="rgb(0, 0, 0)" stroke="rgb(204, 204, 204)" stroke-width="1px"></line><line x1="109.06640625" y1="0" x2="109.06640625" y2="5" style="visibility: inherit;" fill="rgb(0, 0, 0)" stroke="rgb(204, 204, 204)" stroke-width="1px"></line><line x1="145.421875" y1="0" x2="145.421875" y2="5" style="visibility: inherit;" fill="rgb(0, 0, 0)" stroke="rgb(204, 204, 204)" stroke-width="1px"></line><line x1="181.77734375" y1="0" x2="181.77734375" y2="5" style="visibility: inherit;" fill="rgb(0, 0, 0)" stroke="rgb(204, 204, 204)" stroke-width="1px"></line><line x1="218.1328125" y1="0" x2="218.1328125" y2="5" style="visibility: inherit;" fill="rgb(0, 0, 0)" stroke="rgb(204, 204, 204)" stroke-width="1px"></line><line x1="254.48828125" y1="0" x2="254.48828125" y2="5" style="visibility: inherit;" fill="rgb(0, 0, 0)" stroke="rgb(204, 204, 204)" stroke-width="1px"></line><line x1="290.84375" y1="0" x2="290.84375" y2="5" style="visibility: inherit;" fill="rgb(0, 0, 0)" stroke="rgb(204, 204, 204)" stroke-width="1px"></line></g><g transform="translate(0, 8)"><text x="0" y="0" dx="0em" dy="0.95em" style="text-anchor: middle; visibility: hidden; font-family: &quot;Helvetica Neue&quot;, sans-serif; font-size: 12px; font-weight: 200;" fill="rgb(50, 49, 63)" stroke="none" stroke-width="1px">-1k</text><text x="36.35546875" y="0" dx="0em" dy="0.95em" style="text-anchor: middle; visibility: inherit; font-family: &quot;Helvetica Neue&quot;, sans-serif; font-size: 12px; font-weight: 200;" fill="rgb(50, 49, 63)" stroke="none" stroke-width="1px">0</text><text x="72.7109375" y="0" dx="0em" dy="0.95em" style="text-anchor: middle; visibility: inherit; font-family: &quot;Helvetica Neue&quot;, sans-serif; font-size: 12px; font-weight: 200;" fill="rgb(50, 49, 63)" stroke="none" stroke-width="1px">1k</text><text x="109.06640625" y="0" dx="0em" dy="0.95em" style="text-anchor: middle; visibility: inherit; font-family: &quot;Helvetica Neue&quot;, sans-serif; font-size: 12px; font-weight: 200;" fill="rgb(50, 49, 63)" stroke="none" stroke-width="1px">2k</text><text x="145.421875" y="0" dx="0em" dy="0.95em" style="text-anchor: middle; visibility: inherit; font-family: &quot;Helvetica Neue&quot;, sans-serif; font-size: 12px; font-weight: 200;" fill="rgb(50, 49, 63)" stroke="none" stroke-width="1px">3k</text><text x="181.77734375" y="0" dx="0em" dy="0.95em" style="text-anchor: middle; visibility: inherit; font-family: &quot;Helvetica Neue&quot;, sans-serif; font-size: 12px; font-weight: 200;" fill="rgb(50, 49, 63)" stroke="none" stroke-width="1px">4k</text><text x="218.1328125" y="0" dx="0em" dy="0.95em" style="text-anchor: middle; visibility: inherit; font-family: &quot;Helvetica Neue&quot;, sans-serif; font-size: 12px; font-weight: 200;" fill="rgb(50, 49, 63)" stroke="none" stroke-width="1px">5k</text><text x="254.48828125" y="0" dx="0em" dy="0.95em" style="text-anchor: middle; visibility: inherit; font-family: &quot;Helvetica Neue&quot;, sans-serif; font-size: 12px; font-weight: 200;" fill="rgb(50, 49, 63)" stroke="none" stroke-width="1px">6k</text><text x="290.84375" y="0" dx="0em" dy="0.95em" style="text-anchor: middle; visibility: hidden; font-family: &quot;Helvetica Neue&quot;, sans-serif; font-size: 12px; font-weight: 200;" fill="rgb(50, 49, 63)" stroke="none" stroke-width="1px">7k</text></g><line x1="0" y1="0" x2="290.84375" y2="0" fill="rgb(0, 0, 0)" stroke="rgb(204, 204, 204)" stroke-width="1px"></line></g></g></g></g></svg>