<svg viewBox="0 0 330 200" xmlns="http://www.w3.org/2000/svg"><g><g><g><g><g><line x1="48.875" y1="177.828125" x2="43.875" y2="177.828125" style="visibility: inherit;" fill="rgb(0, 0, 0)" stroke="rgb(204, 204, 204)" stroke-width="1px"></line><line x1="48.875" y1="160.0453125" x2="43.875" y2="160.0453125" style="visibility: inherit;" fill="rgb(0, 0, 0)" stroke="rgb(204, 204, 204)" stroke-width="1px"></line><line x1="48.875" y1="142.2625" x2="43.875" y2="142.2625" style="visibility: inherit;" fill="rgb(0, 0, 0)" stroke="rgb(204, 204, 204)" stroke-width="1px"></line><line x1="48.875" y1="124.47968750000001" x2="43.875" y2="124.47968750000001" style="visibility: inherit;" fill="rgb(0, 0, 0)" stroke="rgb(204, 204, 204)" stroke-width="1px"></line><line x1="48.875" y1="106.69687499999999" x2="43.875" y2="106.69687499999999" style="visibility: inherit;" fill="rgb(0, 0, 0)" stroke="rgb(204, 204, 204)" stroke-width="1px"></line><line x1="48.875" y1="88.9140625" x2="43.875" y2="88.9140625" style="visibility: inherit;" fill="rgb(0, 0, 0)" stroke="rgb(204, 204, 204)" stroke-width="1px"></line><line x1="48.875" y1="71.13125000000001" x2="43.875" y2="71.13125000000001" style="visibility: inherit;" fill="rgb(0, 0, 0)" stroke="rgb(204, 204, 204)" stroke-width="1px"></line><line x1="48.875" y1="53.3484375" x2="43.875" y2="53.3484375" style="visibility: inherit;" fill="rgb(0, 0, 0)" stroke="rgb(204, 204, 204)" stroke-width="1px"></line><line x1="48.875" y1="35.56562499999998" x2="43.875" y2="35.56562499999998" style="visibility: inherit;" fill="rgb(0, 0, 0)" stroke="rgb(204, 204, 204)" stroke-width="1px"></line><line x1="48.875" y1="17.782812500000006" x2="43.875" y2="17.782812500000006" style="visibility: inherit;" fill="rgb(0, 0, 0)" stroke="rgb(204, 204, 204)" stroke-width="1px"></line><line x1="48.875" y1="0" x2="43.875" y2="0" style="visibility: inherit;" fill="rgb(0, 0, 0)" stroke="rgb(204, 204, 204)" stroke-width="1px"></line></g><g transform="translate(38.875, 0)"><text x="0" y="177.828125" dx="0em" dy="0.3em" style="text-anchor: end; visibility: hidden; font-family: &quot;Helvetica Neue&quot;, sans-serif; font-size: 12px; font-weight: 200;" fill="rgb(50, 49, 63)" stroke="none" stroke-width="1px">-0.5</text><text x="0" y="160.0453125" dx="0em" dy="0.3em" style="text-anchor: end; visibility: inherit; font-family: &quot;Helvetica Neue&quot;, sans-serif; font-size: 12px; font-weight: 200;" fill="rgb(50, 49, 63)" stroke="none" stroke-width="1px">0</text><text x="0" y="142.2625" dx="0em" dy="0.3em" style="text-anchor: end; visibility: hidden; font-family: &quot;Helvetica Neue&quot;, sans-serif; font-size: 12px; font-weight: 200;" fill="rgb(50, 49, 63)" stroke="none" stroke-width="1px">0.5</text><text x="0" y="124.47968750000001" dx="0em" dy="0.3em" style="text-anchor: end; visibility: inherit; font-family: &quot;Helvetica Neue&quot;, sans-serif; font-size: 12px; font-weight: 200;" fill="rgb(50, 49, 63)" stroke="none" stroke-width="1px">1</text><text x="0" y="106.69687499999999" dx="0em" dy="0.3em" style="text-anchor: end; visibility: hidden; font-family: &quot;Helvetica Neue&quot;, sans-serif; font-size: 12px; font-weight: 200;" fill="rgb(50, 49, 63)" stroke="none" stroke-width="1px">1.5</text><text x="0" y="88.9140625" dx="0em" dy="0.3em" style="text-anchor: end; visibility: inherit; font-family: &quot;Helvetica Neue&quot;, sans-serif; font-size: 12px; font-weight: 200;" fill="rgb(50, 49, 63)" stroke="none" stroke-width="1px">2</text><text x="0" y="71.13125000000001" dx="0em" dy="0.3em" style="text-anchor: end; visibility: hidden; font-family: &quot;Helvetica Neue&quot;, sans-serif; font-size: 12px; font-weight: 200;" fill="rgb(50, 49, 63)" stroke="none" stroke-width="1px">2.5</text><text x="0" y="53.3484375" dx="0em" dy="0.3em" style="text-anchor: end; visibility: inherit; font-family: &quot;Helvetica Neue&quot;, sans-serif; font-size: 12px; font-weight: 200;" fill="rgb(50, 49, 63)" stroke="none" stroke-width="1px">3</text><text x="0" y="35.56562499999998" dx="0em" dy="0.3em" style="text-anchor: end; visibility: hidden; font-family: &quot;Helvetica Neue&quot;, sans-serif; font-size: 12px; font-weight: 200;" fill="rgb(50, 49, 63)" stroke="none" stroke-width="1px">3.5</text><text x="0" y="17.782812500000006" dx="0em" dy="0.3em" style="text-anchor: end; visibility: inherit; font-family: &quot;Helvetica Neue&quot;, sans-serif; font-size: 12px; font-weight: 200;" fill="rgb(50, 49, 63)" stroke="none" stroke-width="1px">4</text><text x="0" y="0" dx="0em" dy="0.3em" style="text-anchor: end; visibility: hidden; font-family: &quot;Helvetica Neue&quot;, sans-serif; font-size: 12px; font-weight: 200;" fill="rgb(50, 49, 63)" stroke="none" stroke-width="1px">4.5</text></g><line x1="48.875" y1="0" x2="48.875" y2="177.828125" fill="rgb(0, 0, 0)" stroke="rgb(204, 204, 204)" stroke-width="1px"></line></g></g><g transform="translate(48, 0)" clip-path="url(#clip_0)"><clipPath id="clip_0"><rect width="281" height="177"></rect></clipPath><g><g><g><line x1="0" y1="0" x2="0" y2="177.828125" fill="rgb(0, 0, 0)" stroke="rgb(60, 60, 60)" stroke-width="1px" opacity="0.25"></line><line x1="23.427083333333332" y1="0" x2="23.427083333333332" y2="177.828125" fill="rgb(0, 0, 0)" stroke="rgb(60, 60, 60)" stroke-width="1px" opacity="0.25"></line><line x1="46.854166666666664" y1="0" x2="46.854166666666664" y2="177.828125" fill="rgb(0, 0, 0)" stroke="rgb(60, 60, 60)" stroke-width="1px" opacity="0.25"></line><line x1="70.28125" y1="0" x2="70.28125" y2="177.828125" fill="rgb(0, 0, 0)" stroke="rgb(60, 60, 60)" stroke-width="1px" opacity="0.25"></line><line x1="93.70833333333333" y1="0" x2="93.70833333333333" y2="177.828125" fill="rgb(0, 0, 0)" stroke="rgb(60, 60, 60)" stroke-width="1px" opacity="0.25"></line><line x1="117.13541666666667" y1="0" x2="117.13541666666667" y2="177.828125" fill="rgb(0, 0, 0)" stroke="rgb(60, 60, 60)" stroke-width="1px" opacity="0.25"></line><line x1="140.5625" y1="0" x2="140.5625" y2="177.828125" fill="rgb(0, 0, 0)" stroke="rgb(60, 60, 60)" stroke-width="1px" opacity="0.25"></line><line x1="163.98958333333334" y1="0" x2="163.98958333333334" y2="177.828125" fill="rgb(0, 0, 0)" stroke="rgb(60, 60, 60)" stroke-width="1px" opacity="0.25"></line><line x1="187.41666666666666" y1="0" x2="187.41666666666666" y2="177.828125" fill="rgb(0, 0, 0)" stroke="rgb(60, 60, 60)" stroke-width="1px" opacity="0.25"></line><line x1="210.84375" y1="0" x2="210.84375" y2="177.828125" fill="rgb(0, 0, 0)" stroke="rgb(60, 60, 60)" stroke-width="1px" opacity="0.25"></line><line x1="234.27083333333334" y1="0" x2="234.27083333333334" y2="177.828125" fill="rgb(0, 0, 0)" stroke="rgb(60, 60, 60)" stroke-width="1px" opacity="0.25"></line><line x1="257.69791666666663" y1="0" x2="257.69791666666663" y2="177.828125" fill="rgb(0, 0, 0)" stroke="rgb(60, 60, 60)" stroke-width="1px" opacity="0.25"></line><line x1="281.125" y1="0" x2="281.125" y2="177.828125" fill="rgb(0, 0, 0)" stroke="rgb(60, 60, 60)" stroke-width="1px" opacity="0.25"></line></g><g><line x1="0" y1="177.828125" x2="281.125" y2="177.828125" fill="rgb(0, 0, 0)" stroke="rgb(60, 60, 60)" stroke-width="1px" opacity="0.25"></line><line x1="0" y1="160.0453125" x2="281.125" y2="160.0453125" fill="rgb(0, 0, 0)" stroke="rgb(60, 60, 60)" stroke-width="1px" opacity="0.25"></line><line x1="0" y1="142.2625" x2="281.125" y2="142.2625" fill="rgb(0, 0, 0)" stroke="rgb(60, 60, 60)" stroke-width="1px" opacity="0.25"></line><line x1="0" y1="124.47968750000001" x2="281.125" y2="124.47968750000001" fill="rgb(0, 0, 0)" stroke="rgb(60, 60, 60)" stroke-width="1px" opacity="0.25"></line><line x1="0" y1="106.69687499999999" x2="281.125" y2="106.69687499999999" fill="rgb(0, 0, 0)" stroke="rgb(60, 60, 60)" stroke-width="1px" opacity="0.25"></line><line x1="0" y1="88.9140625" x2="281.125" y2="88.9140625" fill="rgb(0, 0, 0)" stroke="rgb(60, 60, 60)" stroke-width="1px" opacity="0.25"></line><line x1="0" y1="71.13125000000001" x2="281.125" y2="71.13125000000001" fill="rgb(0, 0, 0)" stroke="rgb(60, 60, 60)" stroke-width="1px" opacity="0.25"></line><line x1="0" y1="53.3484375" x2="281.125" y2="53.3484375" fill="rgb(0, 0, 0)" stroke="rgb(60, 60, 60)" stroke-width="1px" opacity="0.25"></line><line x1="0" y1="35.56562499999998" x2="281.125" y2="35.56562499999998" fill="rgb(0, 0, 0)" stroke="rgb(60, 60, 60)" stroke-width="1px" opacity="0.25"></line><line x1="0" y1="17.782812500000006" x2="281.125" y2="17.782812500000006" fill="rgb(0, 0, 0)" stroke="rgb(60, 60, 60)" stroke-width="1px" opacity="0.25"></line><line x1="0" y1="0" x2="281.125" y2="0" fill="rgb(0, 0, 0)" stroke="rgb(60, 60, 60)" stroke-width="1px" opacity="0.25"></line></g></g></g><g><g><line x1="0" y1="160.0453125" x2="281.125" y2="160.0453125" fill="rgb(0, 0, 0)" stroke="rgb(153, 153, 153)" stroke-width="1.5px"></line></g></g><g><g><line x1="23.427083333333332" y1="0" x2="23.427083333333332" y2="177.828125" fill="rgb(0, 0, 0)" stroke="rgb(153, 153, 153)" stroke-width="1.5px"></line></g></g><g><g><g><g><g><path stroke="rgb(255, 112, 67)" stroke-width="2px" d="M23.520791666666668,25.7557102046907L23.848770833333333,34.59434955017642L23.98933333333333,26.511822543323632L24.364166666666666,28.858306033616202L24.411020833333332,24.706134221034745L24.457874999999998,30.198234313108742L24.64529166666667,26.770037734991575L24.738999999999997,32.77803021150686L25.06697916666667,34.96349528201367L25.160687499999998,44.52440730377808L25.629229166666665,47.67064501005771L25.816645833333332,49.96302588772443L25.910354166666664,48.200810811523354L26.378895833333335,61.929068271792445L26.660020833333334,66.3511617246182L27.034854166666666,63.033516308624286L27.1285625,56.58322472233992L27.315979166666665,50.61049206951937L27.597104166666668,49.31698926302704L27.6908125,47.23252618988212L27.737666666666666,50.80608197378423L27.878229166666667,53.48235284293352L28.76845833333333,49.51945564463202L28.909020833333333,57.32125590175207L29.237,55.978308518346054L29.3775625,58.57150056006742L29.518124999999998,62.28762692242947L29.6586875,62.4454742523597L29.79925,64.03487579779207L30.267791666666664,65.88554989753945L30.642625,72.57009702156122L30.689479166666665,78.43274554586807L30.876895833333336,74.52164250369543L31.158020833333335,67.81108442782694L31.3454375,63.108790627582934L31.532854166666667,56.364472764882706L31.9076875,61.74844590369118L32.00139583333333,51.33225568893117L33.26645833333333,55.80430344959578L33.313312499999995,57.11826489666201L33.68814583333333,58.77717835380032L33.78185416666667,59.21025039886449L33.82870833333333,63.557218803439085L34.203541666666666,46.85647641844713L34.250395833333336,46.05350137181975L34.29725,49.25399260497923L34.53152083333333,60.96749242633804L34.90635416666667,63.54208126485301L34.953208333333336,56.20943985315192L35.46860416666667,64.79287039544384L35.8434375,66.47970862035497L35.984,62.07216257210011L36.59310416666667,58.00631714376355L36.827375,59.746782259719694L36.967937500000005,65.49512481992436L37.01479166666666,67.45747966054151L37.15535416666666,63.75760973026112L37.15535416666666,61.53768777209345L37.530187500000004,65.27667916839046L37.951875,59.90041724905181L37.998729166666664,62.359134221463336L38.27985416666667,65.53550250315011L38.42041666666666,68.45298617204038L38.46727083333333,66.32353944104912L38.514125,65.26124745739699L38.56097916666666,65.52131941606521L38.60783333333333,65.44732377493334L38.888958333333335,65.40945560970277L39.12322916666667,67.5605102854274L39.404354166666664,67.70998477055443L39.544916666666666,68.30662858583815L40.154020833333334,64.20133203863078L40.247729166666666,61.66692965357882L40.3414375,51.70633425193658L40.3414375,45.729977010951245L40.52885416666667,43.90013603256094L40.71627083333333,48.8516736736056L40.809979166666665,51.87601375282745L40.9036875,52.15275767356718L41.04425,52.962388339105644L41.13795833333334,61.2065346428534L41.325375,56.69512074493052L41.41908333333333,53.89564906866957L41.465937499999995,50.30740229434734L41.512791666666665,47.67670530704834L41.700208333333336,50.5445634542595L41.79391666666667,49.33048747501914L41.84077083333334,47.774591362906364L41.98133333333334,45.96172555472427L42.0281875,49.49894559613452L42.12189583333334,53.238780657837296L42.215604166666665,54.786388773852295L42.35616666666667,55.2209206778608L42.35616666666667,55.4816398202659L42.918416666666666,57.0244230150748L43.012125,46.10870393184237L43.76179166666667,50.398329630299884L43.94920833333333,52.18995204466849L44.08977083333333,47.770945162464784L44.41775,43.30514387213566L44.51145833333333,43.55484731628522L44.65202083333333,41.329688703024544L44.698875,46.9226482337738L44.8394375,40.46316537237317L44.88629166666667,44.48649142638533L45.21427083333333,41.93974214467818L45.261125,43.56818860127578L45.49539583333333,49.99538080217867L45.54225,55.21026218755502L45.77652083333333,50.77660133554612L45.87022916666666,51.17140455761L45.9639375,49.23540635179546L46.151354166666664,48.568800273961216L46.19820833333333,53.086634540514L46.338770833333335,53.22983232972375L46.338770833333335,53.3157510032496L46.47933333333334,61.504107062831L46.901020833333334,62.875916279443786L46.947875,68.2359003231458L47.18214583333334,75.14980661067557L47.88495833333334,76.4796542414617L48.16608333333333,75.80397056332777L48.306645833333334,73.25821438516108L48.400354166666666,69.01574164143163L48.447208333333336,70.85750679916714L48.54091666666667,65.64088743684634L48.68147916666666,61.42884608720509L48.775187499999994,55.96754947194319L49.009458333333335,59.43436303281105L49.150020833333336,62.087536871393425L49.29058333333334,60.53773340699665L49.524854166666664,66.15307669203038L49.618562499999996,68.23949624544714L50.50879166666667,76.21832985160549L50.6025,74.38670078741194L50.6025,73.28772334889581L50.64935416666667,70.5856782128573L51.071041666666666,67.02011402369504L51.35216666666667,63.294076821928996L51.35216666666667,61.05845450086936L51.49272916666667,56.088402107498325L51.68014583333333,59.305971379662296L52.28925,57.470995069792735L52.570375,53.13605127707176L52.80464583333333,46.08785217359696L52.89835416666667,53.94084458890576L52.94520833333333,52.14134287293565L53.41375,66.21963689718136L53.5543125,62.314808940848636L53.74172916666667,65.85827993182L53.88229166666667,64.20172283516918L54.257125,65.95982913623209L54.303979166666664,61.43424536973211L54.58510416666666,51.39598713690026L54.63195833333333,46.927166191482456L54.72566666666666,55.62307073548074L54.72566666666666,60.8406134618797L55.85016666666667,59.90082030168044L55.943875000000006,60.10477043730536L55.99072916666666,64.71681157703709L56.03758333333333,64.63337565782969L56.55297916666667,66.15412220074717L56.83410416666666,72.97220332839481L56.88095833333333,72.44790122013325L56.974666666666664,69.33866818369052L57.068375,68.03680520427598L57.162083333333335,78.25270419044718L57.724333333333334,74.56851809694423L57.771187499999996,68.91793199940953L58.00545833333334,68.17707654067536L58.192874999999994,72.8263516251961L58.28658333333333,75.48804233698365L58.333437499999995,72.94130205618333L58.755125,72.89878250483865L59.083104166666665,73.75789351835367L59.1768125,72.99611591383527L59.785916666666665,65.10859071871465L60.16075,68.13735706425206L60.16075,69.95461687157452L60.53558333333333,69.39500677919327L60.62929166666667,69.80481992415153L61.004125,58.74536603183486L61.004125,52.109693696444864L61.33210416666667,45.35824604949093L61.51952083333333,41.560470357958906L61.66008333333333,33.32397529537943L61.75379166666667,24.102671808334975L61.847500000000004,23.9417108949022L61.94120833333333,24.09325486129501L62.03491666666667,22.225842773651948L62.31604166666667,20.363333619675558L62.503458333333334,31.406439993704254L62.64402083333333,35.38483591611677L62.8314375,39.1200640111297L63.018854166666664,48.35935055340107L63.1125625,48.99011390671001L63.159416666666665,44.849860248952325L63.159416666666665,42.3657080542977L63.206270833333335,36.16309771638723L63.29997916666666,40.29431701899534L63.44054166666666,44.61950507701016L63.6748125,42.5907976802622L63.909083333333335,53.69650659182278L64.00279166666667,56.18178774725561L64.04964583333333,54.13255587852696L64.0965,56.63142152957141L64.23706250000001,57.07429286260616L64.28391666666667,53.981313950235915L64.33077083333333,59.617892411002686L64.33077083333333,62.99983948746275L64.7993125,63.84974590586992L64.98672916666666,59.71394152341706L65.12729166666666,55.75715377717269L65.31470833333333,49.42776817434461L65.31470833333333,45.63013681264778L65.54897916666667,49.03967830712833L65.68954166666667,53.364358568341956L66.2049375,52.14937226453506L66.29864583333334,50.53687703269175L66.53291666666667,51.6450882882324L66.62662499999999,55.535022082057424L66.81404166666667,56.82437847443032L67.14202083333333,58.350249968991335L67.188875,61.95206333698373L67.3294375,66.97926501215422L67.37629166666666,68.47645542282417L68.17281249999999,64.6165187448773L68.313375,66.96573999884804L68.7350625,74.13459377684045L68.78191666666667,71.69858256428152L68.96933333333332,63.651421943597256L69.0161875,62.508393401677765L69.06304166666666,62.28227402733289L69.48472916666667,65.46942223826957L69.81270833333333,72.74018899333427L69.8595625,75.68758573044508L70.28125,61.216481324190894L70.37495833333334,61.093852628263846L70.562375,52.016444481309065L70.98406250000001,43.23356845491875L71.124625,36.54338994928449L71.686875,33.72786437933593L71.968,43.835193381398625L71.968,49.899590782636224L72.06170833333334,60.066515926309734L72.06170833333334,66.1666710125138L72.1085625,59.95626998375235L72.15541666666667,57.492047778549065L72.249125,64.71879894541638L72.34283333333335,65.27597485486828L72.53025,67.9328645181904L72.85822916666666,56.04718903435764L73.65475,55.4913555630058L73.74845833333333,57.40640333700239L73.79531250000001,61.5364667016748L73.93587500000001,65.07748538932105L74.12329166666666,68.63785669553816L74.40441666666666,69.95464717536296L74.6386875,63.62402596049979L74.68554166666667,62.281019626101696L74.73239583333333,66.52321146222401L74.77925,70.95620022202996L74.87295833333333,60.31622784635704L74.9198125,55.12508024127055L75.10722916666667,44.20444357097608L75.20093750000001,41.381260022821806L75.52891666666666,30.835020598353594L75.66947916666666,22.97612241004805L75.81004166666666,18.778738844364284L75.81004166666666,16.260308704954014L75.85689583333333,14.073596817363295L75.95060416666666,16.538138049905882L76.0443125,21.57732247028673L76.0443125,24.60083312251524L76.23172916666667,24.213646246840653L76.27858333333333,26.28691174229985L76.41914583333333,26.60820923233635L76.84083333333332,36.335917237011216L77.07510416666666,39.58474611586789L77.21566666666666,45.87959682134664L77.35622916666667,53.047403944360454L77.4499375,60.324140360848446L77.73106250000001,51.53492770844478L77.77791666666667,54.68971003028025L78.34016666666668,55.984068771197016L78.5744375,53.21860790341714L78.94927083333333,61.71532363915216L79.37095833333333,61.63976239606005L79.4178125,56.05773913648285L79.46466666666667,62.644657419541815L79.6989375,62.02799301589688L79.79264583333332,58.366999819249884L80.21433333333333,55.62301788531005L80.49545833333333,47.09645949126636L80.682875,44.667625566848244L80.8234375,44.22472509654054L80.8234375,43.95898481435589L80.87029166666667,45.15280532286769L80.91714583333334,43.646341035939486L81.05770833333334,42.36837380330397L81.61995833333333,55.23211748123548L81.66681249999999,60.92702811283101L81.90108333333333,65.09328806651968L81.9479375,65.78029868545138L82.04164583333333,63.78165606762174L82.369625,64.74900796565535L82.5101875,65.4090077457018L82.74445833333333,66.97797086430714L83.07243749999999,70.25267808284238L83.16614583333333,69.47844228235408L83.213,69.4605401139708L83.54097916666667,70.8035044250638L83.82210416666668,73.31127923594418L84.10322916666668,64.70083665112558L84.10322916666668,59.534571100234416L84.33749999999999,56.65310477462971L84.4780625,52.00921510277726L84.85289583333333,58.1531847385677L84.99345833333334,61.15456830073073L85.0403125,56.11540510272188L85.22772916666666,60.858276349992764L85.36829166666666,63.025129865819935L85.50885416666667,59.16815919263048L85.6025625,66.47604509254029L86.1648125,76.21747206887441L86.305375,76.225156886523L86.4459375,83.54898377322853L86.7270625,82.78727401979984L86.91447916666667,76.28962801747453L87.24245833333333,71.5873291158851L87.52358333333333,67.8038446986184L87.61729166666666,73.64638892045652L87.94527083333334,69.69618450213095L87.94527083333334,67.32606185113562L87.992125,65.81595742336019L88.74179166666666,57.738556263632205L88.78864583333333,44.94257211791671L88.78864583333333,37.264981630487426L88.9760625,31.96568563404273L89.21033333333334,35.85554662241097L89.58516666666667,38.10636405881377L89.678875,44.24499061516602L90.3816875,52.55947927183914L90.70966666666666,61.841916063708126L90.89708333333333,66.96895822899464L91.13135416666667,59.35721421371055L91.27191666666667,49.07368185031504L91.36562500000001,44.52563083504492L91.74045833333332,35.01981979390891L91.7873125,28.798544020240968L91.83416666666666,25.14022522496313L92.11529166666666,29.57775412754492L92.53697916666667,35.24529977891609L92.91181250000001,49.82319963964085L93.09922916666666,65.27687587852633L93.66147916666667,69.08826633402917L93.84889583333333,71.7261046612812L93.89575,75.55188792911488L93.94260416666667,73.9916248587806L94.03631250000001,82.10516698453063L94.08316666666667,78.80718732025167L94.31743750000001,86.97832045195067L94.41114583333332,86.67389524780252L94.5985625,87.92445297540748L94.64541666666666,90.3831366819234L94.8796875,70.16355511707611L95.20766666666667,72.34718256749241L95.30137500000001,82.84442360748369L95.34822916666667,79.83555245667408L95.72306250000001,74.23621397000377L96.0041875,69.65186498154299L96.5664375,67.2173579966372L96.89441666666667,67.3376169562546L96.94127083333333,65.07577479959771L97.08183333333334,68.61841285515573L97.22239583333334,74.47061976455896L97.31610416666668,71.4657591579154L97.40981249999999,76.80418758915631L97.45666666666666,73.43457960353355L97.83149999999999,72.89428961733616L98.2531875,74.61263523465179L98.30004166666667,76.91958097377885L98.44060416666667,79.26072508847398L98.5343125,80.92588162395766L99.09656249999999,66.240314995786L99.14341666666667,64.88316270025997L99.33083333333333,66.14548532880801L99.3776875,64.4616427598444L99.42454166666667,59.427516640308355L99.47139583333333,59.73710569386651L99.47139583333333,59.92285912600144L99.9399375,58.397359553974766L100.0805,53.650089746714755L100.26791666666668,41.17041689723797L100.83016666666667,48.12084744018355L101.01758333333333,40.91951191211962L101.3455625,36.17989084592597L101.39241666666668,31.302915878123827L101.486125,23.529004228131043L101.76724999999999,27.994157834956667L102.4700625,48.3715862706957L102.51691666666666,60.230399096051315L102.56377083333334,66.50237959089247L102.7511875,65.59609399713497L103.12602083333334,54.94683432088745L103.26658333333333,40.68841925863299L103.78197916666666,33.48493221434279L103.82883333333334,23.077054597928054L103.96939583333334,12.182540158029752L104.20366666666666,-0.6600445559046477L104.25052083333334,11.15004143116343L104.39108333333334,18.551968180820126L104.4379375,21.224808095803724L104.5785,29.896688880569286L104.71906249999999,34.0074840253869L104.859625,33.44495954372161L104.95333333333333,26.671018333778846L105.32816666666666,38.71051718029145L105.60929166666666,38.7485917138026L105.703,38.268232034860006L105.8435625,42.12691852791187L106.21839583333333,48.546886188644635L106.26525,48.62578519276289L106.4058125,51.05824337209171L106.49952083333334,63.77789142760578L106.546375,65.86846229930488L106.87435416666666,59.61853378802398L107.29604166666667,49.19763416492856L107.76458333333333,44.41470467176387L108.18627083333334,30.274394912876772L108.233125,27.316465779160325L108.27997916666666,18.056807847627937L108.32683333333334,13.465316052919007L108.42054166666667,10.297530097177855L108.795375,-11.556063012831657L109.07650000000001,-15.206333106715647L109.40447916666666,0.20197415711930944L110.10729166666667,18.928131351247117L110.15414583333333,36.18352178953569L110.71639583333332,40.861602601244925L110.81010416666666,38.90770040561847L110.85695833333332,41.821032573342876L110.99752083333333,45.82695128057037L111.044375,40.97751992841742L111.09122916666666,45.16951843351231L111.3255,44.97314117908542L111.4660625,50.35554964071552L111.79404166666667,58.662064883864176L111.98145833333332,62.08435771957413L112.26258333333332,51.816322990628336L112.3094375,52.111234812958386L112.40314583333333,48.34641241790254L112.68427083333333,44.269102534123675L112.77797916666667,44.34616664616371L112.87168750000001,49.13832683633629L112.91854166666667,47.752030246680164L113.15281250000001,56.55500593735289L113.24652083333334,61.633805550655794L113.94933333333333,58.05534874351089L114.04304166666667,57.71135337591923L114.23045833333333,51.313309223596804L114.8395625,47.794305947509145L115.02697916666666,49.4648720962326L115.26124999999999,46.756468127818124L115.44866666666667,49.82594809749796L115.58922916666667,48.10520915311022L115.6829375,50.23997990740206L115.9640625,46.85186367245237L116.104625,52.510787540148L116.2451875,60.234220673424204L116.76058333333333,66.84317779975068L116.99485416666667,70.5289725946601L117.13541666666667,71.13513996405696L117.32283333333334,75.95603154512223L117.3696875,78.92630999453054L117.6508125,71.2511825166177L117.88508333333333,59.711179539682334L117.97879166666667,53.902368435336285L118.21306249999999,51.8852335784275L118.21306249999999,50.674952664282245L119.29070833333334,40.05017199415346L119.43127083333333,27.234345623245133L119.43127083333333,19.544849800700092L119.66554166666667,22.966379467030862L121.39914583333334,10.361691416132743L121.63341666666666,5.744224741952564L121.68027083333334,-4.626782254638101L121.727125,1.3675666420091375L121.77397916666666,-0.23030142316645197L122.4299375,-4.155219527379245L122.5705,12.411824709596914L122.61735416666666,23.955868366314576L122.80477083333334,34.4608664655409L123.08589583333334,25.875284520609483L123.2733125,36.25873250980575L123.36702083333334,47.30893905263781L123.36702083333334,53.93906297833702L123.74185416666666,61.16231203079809L124.1166875,61.254944952729886L124.25725,61.31864807242367L124.35095833333334,58.06008558323511L124.538375,53.65257665664271L124.58522916666666,46.746695672275536L124.8195,44.96838276255244L124.91320833333334,36.10286817293235L125.05377083333335,41.15789555752795L125.14747916666667,37.84933043536259L125.75658333333334,34.86418628672786L125.99085416666667,29.533584495961833L126.31883333333333,41.06490846310865L126.50625000000001,53.4513763554979L126.64681250000001,54.87823729771904L126.74052083333332,59.338153993836244L126.74052083333332,62.01410401150656L127.2090625,64.37145343712015L127.25591666666666,66.02319428378966L127.39647916666667,67.53526032838005L128.09929166666666,56.02778104318844L128.23985416666667,48.0302512593488L128.3335625,40.37860355391621L128.42727083333332,39.541997516837824L128.6146875,47.771330116502725L128.66154166666666,49.07927722830311L129.036375,56.07610429345807L129.08322916666665,53.036843989308124L129.50491666666667,53.1483483350369L129.55177083333334,52.259654734795845L129.598625,48.79902826891279L129.83289583333334,49.67647465971669L130.02031250000002,58.300945131227735L130.06716666666668,63.47929734423478L130.06716666666668,66.58630867203905L130.67627083333332,66.83717417330045L130.723125,68.31707986361086L131.00425,71.7790043909329L131.05110416666668,81.55182445832955L131.09795833333334,76.35250373148244L131.1448125,80.58235333778454L131.4259375,76.81460073511595L131.847625,69.51591186833858L132.31616666666667,66.14703166164443L132.50358333333332,59.405701967939635L132.691,61.06826954952773L132.78470833333333,54.05647934926685L132.92527083333334,46.04408794762574L132.972125,49.874467865061064L132.972125,52.17269581552226L133.20639583333335,42.19531201777386L133.8155,55.56807167296127L133.9560625,64.86909378358432L134.33089583333333,71.8243332987351L134.42460416666668,73.7625574127032L134.56516666666667,70.6188051656004L134.658875,64.58688274116017L134.70572916666669,61.657174158636906L134.89314583333334,47.54070337298165L134.94,51.58687329937608L134.98685416666666,51.62016633182523L135.03370833333332,56.58023438113783L135.08056249999998,48.45718892996223L135.31483333333333,52.17836169710583L135.40854166666668,52.66597967660921L135.50225,54.874650817611794L135.54910416666667,50.58279144912899L135.59595833333333,52.61489997088874L135.73652083333334,50.307921904802114L135.87708333333333,51.8702072998761L135.9239375,52.95061762397759L135.97079166666668,55.407427079470594L136.81416666666667,58.39398523926236L137.09529166666667,56.82058066582381L137.5169791666667,64.48899895790638L137.56383333333335,58.87728229787004L137.93866666666665,61.3537510772112L138.032375,66.73812582758445L138.07922916666666,66.58920294861423L138.07922916666666,66.4998492212321L138.54777083333335,63.55360961176311L139.11002083333335,65.93753362874598L139.15687499999999,64.26311699855572L139.48485416666665,66.74484295522123L139.67227083333333,61.34215681686966L139.8596875,54.23362254700048L139.95339583333333,57.21000331074583L140.00025,54.7437530707156L140.00025,53.26400292669747L140.32822916666666,43.68228854867823L140.51564583333334,57.82891426821355L141.03104166666668,59.44948721015338L141.17160416666667,58.0517378826969L141.2653125,65.86195353657203L141.405875,69.46373390549542L141.73385416666667,76.51777883079123L141.78070833333334,77.47425048295541L141.78070833333334,78.0481334742539L141.96812500000001,79.04222405413584L142.38981249999998,84.2616998641777L142.90520833333332,85.61015037292765L143.04577083333334,86.43125140097456L143.04577083333334,86.9239120178027L143.5143125,80.37656079278011L143.56116666666668,74.15302936342727L143.70172916666667,64.95641288404087L144.31083333333333,64.79119207080853L144.4045416666667,68.48481023679169L144.73252083333335,64.07798852932447L144.82622916666668,65.64386497743128L145.24791666666667,70.55306469236135L145.43533333333332,69.04320797612857L145.95072916666666,70.61569067860002L146.0444375,66.40788393213961L146.0444375,63.88319988426338L146.13814583333334,62.32613099054558L146.185,61.05700683674847L146.27870833333333,56.92417242605468L146.79410416666667,47.00940029608597L147.3095,39.15971673421495L147.63747916666668,46.946839405253144L148.01231249999998,56.99181605527079L148.24658333333332,63.734791162307715L148.62141666666665,55.667819298920435L148.94939583333334,42.566053702007196L148.99625,39.59957876209643L149.04310416666667,36.14887841256993L149.46479166666666,28.963199734464496L149.5585,26.98914455251409L150.02704166666666,30.69418780730075L150.07389583333335,29.1576518918628L150.40187500000002,35.90769547495569L150.49558333333334,36.49527485533551L150.82356249999998,51.59465986945625L150.87041666666664,57.25994471525192L150.91727083333336,62.46610169568683L151.01097916666666,61.67470970427409L151.6669375,70.33814630702385L151.90120833333333,76.69180549141912L152.04177083333335,83.39983532418103L152.13547916666667,84.57075853728824L152.27604166666666,88.6328519525145L152.41660416666667,83.64396713358249L152.55716666666666,80.27721915860229L152.60402083333332,76.29863857340366L152.650875,80.94978527970046L153.02570833333334,64.97222691087086L153.21312500000002,61.861693959880824L153.40054166666667,57.606612616746986L153.82222916666666,57.244525648039215L153.91593749999998,62.0762798606644L153.96279166666665,61.545246804612276L154.24391666666665,53.88282888761603L154.2907708333333,61.71479712057973L154.43133333333333,57.39843862938203L154.71245833333333,44.998903767987L154.85302083333332,43.97400698317523L155.08729166666666,43.99678879918716L155.3215625,42.13445542241371L155.69639583333333,41.171799593181845L155.97752083333333,50.44527193248953L156.02437500000002,55.15554711574724L156.11808333333335,60.523912151184135L156.4460625,60.365352917031316L157.43,67.98020800460331L157.47685416666667,72.14090747361752L157.5705625,71.71559133455378L157.89854166666666,76.1575017716004L158.17966666666666,63.86015985700567L158.32022916666668,61.551434137183904L158.74191666666667,58.06617787167936L158.78877083333333,52.14097826531834L158.92933333333335,51.97854268104618L159.02304166666667,46.715634363298335L159.1636041666667,44.590845807435926L159.4447291666667,29.129691672350646L159.49158333333335,22.96055490137678L159.86641666666665,16.44982614196266L159.96012499999998,11.463086283069401L160.1006875,10.374257264054762L160.75664583333332,19.530306521068184L160.80349999999999,24.767756638532973L160.9440625,45.53663302904732L161.36575,43.668587897696284L161.41260416666668,43.380017527328846L161.60002083333333,43.44391140960866L161.7874375,41.949047948558416L162.02170833333335,41.78332104691222L162.0685625,43.11410957818242L162.30283333333335,44.144432735711405L162.39654166666668,50.28914112882022L162.39654166666668,53.975966164685516L162.86508333333333,53.99011562807395L162.95879166666666,54.208337402004204L163.00564583333332,55.67135333875312L163.09935416666667,55.69308556472954L163.33362499999998,54.39277156028565L163.7553125,51.13348432232986L164.22385416666665,51.96668236583503L164.3175625,61.21515151220578L164.55183333333335,55.4450085738779L164.69239583333334,47.925082455544526L164.69239583333334,43.41312678454449L164.73925,38.54768851904947L164.78610416666666,37.05490568225906L164.8798125,33.48233401772575L165.39520833333336,41.32414848474977L165.77004166666666,34.3662400073905L165.81689583333332,36.5372212563216L165.91060416666664,40.53139508034343L166.0043125,40.712791296932465L166.19172916666665,37.03094398057067L166.37914583333333,40.8223375032878L166.426,38.379444554778104L166.66027083333333,45.32199349810608L166.80083333333334,52.3591278464194L166.8476875,54.89631358209823L166.98825,51.12526979937299L167.03510416666666,58.85024976041403L167.08195833333335,58.91283044491105L167.36308333333335,60.76921249403888L167.4099375,63.32654530182087L167.45679166666667,66.05661635353924L168.01904166666668,60.04719962391114L168.20645833333336,58.35353907503401L168.30016666666668,50.04058217679092L168.67499999999998,52.60815961494821L168.90927083333332,44.99174544951188L168.90927083333332,40.4218969502501L168.956125,44.00396255781959L169.0966875,41.56919805813263L169.23725,36.48443601523894L169.42466666666667,37.26774674144423L169.518375,41.61405105642697L169.70579166666667,41.45527278067004L169.84635416666666,43.251142503507936L170.12747916666666,47.76863363277198L170.73658333333333,44.13308992917109L171.205125,48.245815934150045L171.2988333333333,54.54599142396964L171.39254166666666,56.83604065283845L171.39254166666666,58.210070190159726L171.5799583333333,54.98176578690304L171.95479166666667,62.87675313478526L172.23591666666667,61.46977378502976L172.4701875,60.91558188095982L172.65760416666666,64.58591241118488L172.79816666666667,72.84679561869608L173.36041666666668,68.22643265435879L175.5625625,77.76326049080363L175.93739583333334,86.1323281956367L176.1248125,94.73567147360158L176.7339166666667,101.57579537633606L177.24931249999997,106.86316100659101L177.43672916666665,109.17660644949751L177.81156249999998,111.2916488799529L177.85841666666667,110.48308179739574L178.04583333333332,104.63551566146887L178.46752083333334,113.38431017692731L178.514375,108.25511274901537L178.98291666666668,106.93409508372847L179.02977083333334,108.24084052491489L179.076625,109.9313469572264L179.45145833333333,103.84358817985046L180.38854166666667,107.56393102288477L181.51304166666668,111.2712247701301L181.70045833333333,114.24403442050898L181.79416666666665,113.89404252279331L181.84102083333335,118.86965098453182L181.98158333333333,116.24017479105363L182.450125,114.92417001505834L182.8718125,116.42266002941216L183.01237500000002,118.39563595949463L183.48091666666664,114.62741727798493L183.71518749999998,116.23681741725989L185.4019375,111.1063033713197L185.82362500000002,106.84196647067638L185.91733333333335,105.0680645785318L186.10475,99.64787424916543L186.385875,104.60768654459427L186.5264375,102.99975660674995L186.85441666666665,103.5931485322608L187.22925,96.57812399312816L187.3698125,96.85579893377401L187.74464583333332,103.40778040252313L187.9320625,105.56398825742116L188.11947916666668,107.94016597626991L188.58802083333333,111.75329272230498L188.63487500000002,113.82028103622814L189.197125,116.89295457960975L189.38454166666665,113.91602072365171L189.71252083333331,120.00480371197811L189.8999375,121.32031361583324L190.41533333333334,123.76248891769916L190.97758333333334,127.59229495737893L191.72725000000003,131.08405398891236L192.89860416666667,131.79816592725138L193.60141666666667,132.87492946470988L194.257375,134.48086255347854L194.44479166666667,129.76291271794514L194.63220833333335,129.53463033228323L195.00704166666665,133.0155497305197L195.28816666666665,136.84019029461456L195.33502083333332,134.37986536561317L196.13154166666666,136.60840294421536L196.55322916666668,131.03959975889813L196.83435416666669,128.81764144063885L197.2091875,130.4664593341106L197.34975,132.03828363759243L198.38054166666666,134.67088413189603L199.1770625,135.04816328667553L199.36447916666665,130.94145160232753L199.7393125,132.53821242326362L199.879875,135.50871086991646L200.161,135.87539884590694L201.00437499999998,134.08481396991664L201.09808333333334,136.693838249124L201.94145833333334,136.45315030819293L202.128875,135.68507922116586L202.2694375,135.37338513991932L202.97225,138.71285099237681L203.11281250000002,139.51178182586742L203.30022916666667,140.9954640135897L203.62820833333336,141.19043610368567L204.2373125,142.2629947906324L204.5184375,142.1932649270051L205.17439583333334,140.63682701433322L205.73664583333334,141.07448447254075L206.064625,141.75597925212546L206.4394583333333,143.73583684542217L206.81429166666666,142.08306693690082L206.86114583333332,144.3395555713821L207.09541666666667,143.92448859879664L207.28283333333331,142.82299352404053L207.8919375,142.72644405054496L208.07935416666666,143.79029108040004L208.73531250000002,139.9143554801641L209.29756250000003,139.47383743546294L209.3444166666667,137.55694809613757L209.67239583333333,139.4123354616501L210.04722916666665,141.37030303010272L210.32835416666666,141.71771360191065L210.60947916666666,142.53464291994933L210.93745833333332,142.38537581923703L211.03116666666668,142.80584087230622L211.45285416666667,143.86757225372855L211.5465625,144.88582591971584L211.59341666666668,145.35718043967086L212.48364583333333,143.89014707631765L212.6242083333333,141.7559319546187L213.04589583333333,144.13440883474732L213.655,145.560066166101L214.17039583333334,144.92310909767633L214.31095833333333,143.52751859494856L214.7795,142.56443696524985L215.52916666666667,142.03988846484594L216.04456249999998,141.341793276854L216.8879375,143.2427907288001L217.35647916666667,144.47654632236367L217.40333333333334,143.49539174567641L217.63760416666668,142.27822940561762L217.68445833333334,142.42148814291411L218.0124375,143.27093214983137L218.19985416666665,142.95942201573786L218.24670833333332,140.8405733213373L218.29356249999998,141.41962157777985L218.996375,142.37842332216823L219.32435416666667,142.2280613344474L219.37120833333333,143.25935417531065L219.558625,143.19957142117994L219.65233333333333,144.07843099828588L220.07402083333335,140.1831977580251L220.2614375,139.59113162334333L220.40200000000002,139.52145456269722L221.62020833333332,140.1574364218583L221.6670625,140.58541267371L222.08875,139.7239339221616L222.2293125,140.2940039906114L222.41672916666667,139.68089245420452L222.55729166666666,138.86211763724242L223.02583333333334,140.9569582815367L223.0726875,143.50840125674893L223.11954166666666,145.0767299223759L223.16639583333333,145.2997949259769L223.40066666666667,144.31596468678362L223.68179166666667,145.7769272508323L223.86920833333335,147.31809665394425L223.96291666666664,147.75949275296986L224.71258333333333,148.11660312232857L224.99370833333333,147.91980622249832L225.0405625,148.51247728903138L225.41539583333332,148.89008212656702L225.69652083333332,149.07054873978154L226.30562500000002,148.35446387529407L226.6336041666667,146.50452287331242L227.1021458333333,146.46111559650313L228.32035416666668,145.53524388428636L229.398,143.16061672229233L229.7259791666667,144.15179577266372L230.00710416666666,145.46220825646935L230.14766666666665,145.74723173627774L231.60014583333333,145.53567469007982L231.647,145.81927064686843L232.39666666666668,147.08879826485264L232.44352083333334,145.85036689300327L232.9120625,144.98877645043427L233.05262499999998,145.99199491058525L233.14633333333333,146.32548094482564L233.66172916666667,147.63714589002038L233.94285416666668,148.16181269100193L234.08341666666666,147.98443808968148L234.27083333333334,148.57172763218898L235.0205,149.47631094050655L235.11420833333335,148.95674081015437L235.1610625,148.9060428611508L235.34847916666666,147.43088928920454L235.48904166666668,147.23789949528827L235.58275,145.46192862130675L236.23870833333334,145.07979426257296L236.42612499999998,143.77014999164632L236.94152083333333,146.48732188536817L237.08208333333334,146.31553925503252L238.01916666666668,141.95875528188918L238.394,137.41226319198236L238.86254166666666,139.88419251754536L238.90939583333332,142.2968917671347L239.42479166666666,144.6581971432867L240.5024375,146.64236487533017L240.73670833333333,147.6894817355893L241.53322916666664,147.23027940238995L242.610875,145.92749385991235L242.70458333333332,144.26695186284803L243.59481250000002,145.0155512347825L243.64166666666668,145.73210952878043L243.82908333333333,145.36721887908902L244.0165,147.11118789868817L244.859875,146.93537786510447L245.141,147.16534830108648L245.18785416666665,147.8794303050659L247.15572916666667,149.17761944721025L247.53056249999997,149.7961468964957L247.90539583333333,149.92618804898964L247.95225,150.19362751656536L248.74877083333334,149.93114065651605L249.12360416666667,148.4733256569848L249.357875,148.84104451630833L249.54529166666669,147.37827982757582L250.0606875,147.84814761059937L250.62293749999998,149.037771815486L250.7635,149.84772131692006L250.85720833333332,150.2935558210351L251.044625,150.7708093941905L251.41945833333332,148.8875053071274L253.24677083333336,147.3330455792796L254.23070833333333,149.05115440326043L254.51183333333333,150.11964029695605L254.5586875,151.13910158413137L254.65239583333334,150.82809429049482L255.35520833333334,151.57209701846534L255.6831875,150.49807832798655L256.7608333333333,150.26278503651946L256.85454166666665,150.24480652915256L256.94825000000003,151.47759575967083L257.4636458333334,151.54429310997406L257.60420833333336,150.15335951829005L258.4007291666667,150.73547738909525L258.68185416666665,149.788481611653L259.2909583333333,149.56234232054283L260.2280416666667,151.0044942307316L260.6497291666667,151.3930005739461L261.3056875,151.4482577695522L261.3993958333333,151.99217193760043L261.4931041666667,151.78296057719777L261.91479166666664,151.10175606028014L262.33647916666666,151.62158438611863L262.7113125,151.4051291003009L263.6483958333333,151.61086310815767L263.74210416666665,152.15223778983628L263.88266666666664,151.8921077085699L263.97637499999996,151.65768517406897L264.2575,152.27658486728888L264.81975,151.79312054494036L264.86660416666666,152.09944523454243L265.19458333333336,152.30031544107516L265.33514583333334,152.68264548568544L265.56941666666665,152.35103962220916L265.89739583333335,151.79305213360888L265.9911041666667,151.81093118921012L267.39672916666666,149.11541757012213L268.3806666666667,149.85202825799468L268.8960625,150.63527442744305L269.036625,150.41688722427745L269.2708958333333,151.44459081418697L269.6457291666666,150.90945823343029L270.0205625,150.56372664180506L270.20797916666663,151.8712673511966L270.25483333333335,151.8146080566936L270.3485416666667,152.1414815909635L270.48910416666666,151.94373012431538L270.77022916666664,152.19495083459438" style="fill: none;" fill="none"></path></g></g></g></g><g opacity="0.20000000298023224"><g><g><g><path stroke="rgb(255, 112, 67)" stroke-width="2px" d="M23.520791666666668,25.7557102046907L23.848770833333333,39.89753315746785L23.98933333333333,18.752596616744995L24.364166666666666,31.617770618200296L24.411020833333332,19.28505870252846L24.457874999999998,37.79578589648008L24.64529166666667,21.867661777138693L24.738999999999997,41.53774091899393L25.06697916666667,38.18663175627589L25.160687499999998,58.721247389167544L25.629229166666665,52.3614654250443L25.816645833333332,53.389122168719766L25.910354166666664,45.56324213519693L26.378895833333335,82.49455937668681L26.660020833333334,72.97910389900208L27.034854166666666,58.05938804522157L27.1285625,46.91051689013838L27.315979166666665,41.65290956646206L27.597104166666668,47.376932105422014L27.6908125,44.106022108346224L27.737666666666666,56.16621966734529L27.878229166666667,57.49667108282448L28.76845833333333,43.57518808767199L28.909020833333333,69.0238638676703L29.237,53.96389698833228L29.3775625,62.461277563869956L29.518124999999998,67.8618069574237L29.6586875,62.68224500492215L29.79925,66.41897665187717L30.267791666666664,68.66156002432108L30.642625,82.59691549092531L30.689479166666665,87.22671716585755L30.876895833333336,68.65498840734362L31.158020833333335,57.74524779468776L31.3454375,56.05535012930632L31.532854166666667,46.24799614474179L31.9076875,69.82440552860498L32.00139583333333,35.70797046348454L33.26645833333333,62.51237506568431L33.313312499999995,59.08920706287027L33.68814583333333,61.26554853618144L33.78185416666667,59.85985846593975L33.82870833333333,70.07767140716315L34.203541666666666,21.80536284819246L34.250395833333336,44.84903880208731L34.29725,54.05472945421934L34.53152083333333,78.53774215728045L34.90635416666667,67.40396452248096L34.953208333333336,45.210477735847235L35.46860416666667,77.6680162087083L35.8434375,69.0099659577012L35.984,55.4608434997499L36.59310416666667,51.90754900127649L36.827375,62.3574799336493L36.967937500000005,74.11763866022228L37.01479166666666,70.4010119214654L37.15535416666666,58.20780483484269L37.15535416666666,58.20780483484269L37.530187500000004,70.88516626283526L37.951875,51.83602437004447L37.998729166666664,66.04720968008041L38.27985416666667,70.30005492568016L38.42041666666666,72.8292116753757L38.46727083333333,63.12936934456229L38.514125,63.66780948191881L38.56097916666666,65.91142735406756L38.60783333333333,65.33633031323552L38.888958333333335,65.35265336185694L39.12322916666667,70.78709229901433L39.404354166666664,67.934196498245L39.544916666666666,69.20159430876375L40.154020833333334,58.0433872178197L40.247729166666666,57.865326076000926L40.3414375,36.76544114947319L40.3414375,36.76544114947319L40.52885416666667,41.15537456497552L40.71627083333333,56.2789801351726L40.809979166666665,56.41252387166024L40.9036875,52.56787355467678L41.04425,54.17683433741331L41.13795833333334,73.57275409847499L41.325375,49.92799989804625L41.41908333333333,49.69644155427815L41.465937499999995,44.925032132864004L41.512791666666665,43.73065982609987L41.700208333333336,54.84635067507624L41.79391666666667,47.509373506158596L41.84077083333334,45.44074719473721L41.98133333333334,43.242426842451096L42.0281875,54.80477565824985L42.12189583333334,58.84853325039148L42.215604166666665,57.10780094787479L42.35616666666667,55.87271853387357L42.35616666666667,55.87271853387357L42.918416666666666,59.33859780728817L43.012125,29.735125306993723L43.76179166666667,56.83276817798615L43.94920833333333,54.87738566622137L44.08977083333333,41.14243483915925L44.41775,36.606441936641914L44.51145833333333,43.92940248250963L44.65202083333333,37.99195078313349L44.698875,55.31208752989768L44.8394375,30.77394108027218L44.88629166666667,50.52148050740361L45.21427083333333,38.119618222117424L45.261125,46.01085828617215L45.49539583333333,59.63616910353302L45.54225,63.03258426561952L45.77652083333333,44.12611005753277L45.87022916666666,51.763609390705824L45.9639375,46.33140904307365L46.151354166666664,47.56889115720989L46.19820833333333,59.86338594034315L46.338770833333335,53.44462901353836L46.338770833333335,53.44462901353836L46.47933333333334,73.78664115220307L46.901020833333334,64.93363010436296L46.947875,76.27587638869882L47.18214583333334,85.52066604197024L47.88495833333334,78.4744256876409L48.16608333333333,74.79044504612683L48.306645833333334,69.43958011791109L48.400354166666666,62.65203252583741L48.447208333333336,73.62015453577042L48.54091666666667,57.815958393365136L48.68147916666666,55.11078406274318L48.775187499999994,47.775604549050314L49.009458333333335,64.63458337411284L49.150020833333336,66.06729762926697L49.29058333333334,58.21302821040153L49.524854166666664,74.57609161958099L49.618562499999996,71.36912557557226L50.50879166666667,88.18658026084303L50.6025,71.63925719112159L50.6025,71.63925719112159L50.64935416666667,66.53261050879955L51.071041666666666,61.67176773995162L51.35216666666667,57.705021019279954L51.35216666666667,57.705021019279954L51.49272916666667,48.63332351744177L51.68014583333333,64.13232528790832L52.28925,54.718530604988345L52.570375,46.633635587990284L52.80464583333333,35.51555351838468L52.89835416666667,65.720333211869L52.94520833333333,49.442090298980474L53.41375,87.33707793354988L53.5543125,56.457567006349564L53.74172916666667,71.17348641827702L53.88229166666667,61.716887190192935L54.257125,68.59698858782649L54.303979166666664,54.645869719982144L54.58510416666666,36.3385997876525L54.63195833333333,40.22393477335572L54.72566666666666,68.66692755147814L54.72566666666666,68.66692755147814L55.85016666666667,58.49113056138158L55.943875000000006,60.41069564074279L55.99072916666666,71.63487328663469L56.03758333333333,64.50822177901864L56.55297916666667,68.43524201512336L56.83410416666666,83.19932501986624L56.88095833333333,71.66144805774093L56.974666666666664,64.6748186290264L57.068375,66.08401073515415L57.162083333333335,93.57655266970396L57.724333333333334,69.04223895668984L57.771187499999996,60.442052853107455L58.00545833333334,67.06579335257412L58.192874999999994,79.8002642519772L58.28658333333333,79.480578404665L58.333437499999995,69.12119163498282L58.755125,72.83500317782163L59.083104166666665,75.0465600386262L59.1768125,71.85344950705768L59.785916666666665,53.27730292603373L60.16075,72.68050658255815L60.16075,72.68050658255815L60.53558333333333,68.55559164062142L60.62929166666667,70.41953964158893L61.004125,42.156185193359846L61.004125,42.156185193359846L61.33210416666667,35.23107457906008L61.51952083333333,35.86380682066081L61.66008333333333,20.969232701510208L61.75379166666667,10.270716577768326L61.847500000000004,23.70026952475311L61.94120833333333,24.32057081088422L62.03491666666667,19.424724642187357L62.31604166666667,17.56956988871096L62.503458333333334,47.971099554747326L62.64402083333333,41.352429799735546L62.8314375,44.72290615364909L63.018854166666664,62.21828036680817L63.1125625,49.93625893667341L63.159416666666665,38.639479762315744L63.159416666666665,38.639479762315744L63.206270833333335,26.85918220952155L63.29997916666666,46.49114597290756L63.44054166666666,51.107287164032456L63.6748125,39.54773658514023L63.909083333333335,70.35506995916366L64.00279166666667,59.90970948040486L64.04964583333333,51.05870807543397L64.0965,60.379720006138086L64.23706250000001,57.738599862158296L64.28391666666667,49.34184558168053L64.33077083333333,68.07276010215283L64.33077083333333,68.07276010215283L64.7993125,65.12460553348065L64.98672916666666,53.51023494973778L65.12729166666666,49.82197215780616L65.31470833333333,39.93368977010252L65.31470833333333,39.93368977010252L65.54897916666667,54.15399054884911L65.68954166666667,59.85137896016239L66.2049375,50.32689280882478L66.29864583333334,48.11813418492673L66.53291666666667,53.30740517154335L66.62662499999999,61.369922772794965L66.81404166666667,58.7584130629897L67.14202083333333,60.63905721083283L67.188875,67.35478338897228L67.3294375,74.52006752490998L67.37629166666666,70.7222410388291L68.17281249999999,58.82661372795701L68.313375,70.48957187980413L68.7350625,84.88787444382906L68.78191666666667,68.04456574544311L68.96933333333332,51.58068101257085L69.0161875,60.79385058879852L69.06304166666666,61.94309496581555L69.48472916666667,70.25014455467463L69.81270833333333,83.64633912593126L69.8595625,80.1086808361113L70.28125,39.50982471480964L70.37495833333334,60.90990958437324L70.562375,38.400332260876894L70.98406250000001,30.05925441533327L71.124625,26.50812219083309L71.686875,29.504576024413126L71.968,58.996186884492644L71.968,58.996186884492644L72.06170833333334,75.31690364181996L72.06170833333334,75.31690364181996L72.1085625,50.64066844061017L72.15541666666667,53.79571447074413L72.249125,75.55892569571733L72.34283333333335,66.11173871904612L72.53025,71.91819901317358L72.85822916666666,38.21867580860854L73.65475,54.65760535597802L73.74845833333333,60.27897499799728L73.79531250000001,67.73156174868346L73.93587500000001,70.38901342079043L74.12329166666666,73.97841365486384L74.40441666666666,71.92983289510012L74.6386875,54.12809413820504L74.68554166666667,60.26651012450456L74.73239583333333,72.88649921640753L74.77925,77.60568336173891L74.87295833333333,44.35626928284765L74.9198125,47.3383588336408L75.10722916666667,27.823488565534348L75.20093750000001,37.14648470059038L75.52891666666666,15.01566146165132L75.66947916666666,11.187775127589703L75.81004166666666,12.482663495838636L75.81004166666666,12.482663495838636L75.85689583333333,10.79352898597719L75.95060416666666,20.234949898719805L76.0443125,29.13609910085799L76.0443125,29.13609910085799L76.23172916666667,23.632865933328873L76.27858333333333,29.39680998548866L76.41914583333333,27.090155467391014L76.84083333333332,50.92747924402356L77.07510416666666,44.457989434152836L77.21566666666666,55.321872879564765L77.35622916666667,63.79911462888121L77.4499375,71.23924498558044L77.73106250000001,38.351108729839325L77.77791666666667,59.42188351303339L78.34016666666668,57.92560688257218L78.5744375,49.07041660174727L78.94927083333333,74.4603972427547L79.37095833333333,61.52642053142189L79.4178125,47.684704247117025L79.46466666666667,72.52503484413027L79.6989375,61.10299641042947L79.79264583333332,52.875510024279365L80.21433333333333,51.50704498440028L80.49545833333333,34.30662190020084L80.682875,41.02437468022109L80.8234375,43.560374391078966L80.8234375,43.560374391078966L80.87029166666667,46.94353608563543L80.91714583333334,41.38664460554719L81.05770833333334,40.451422954350704L81.61995833333333,74.5277329981327L81.66681249999999,69.4693940602243L81.90108333333333,71.34267799705266L81.9479375,66.81081461384893L82.04164583333333,60.78369214087725L82.369625,66.20003581270576L82.5101875,66.3990074157715L82.74445833333333,69.33141554221511L83.07243749999999,75.16473891064526L83.16614583333333,68.31708858162165L83.213,69.43368686139583L83.54097916666667,72.81795089170338L83.82210416666668,77.07294145226479L84.10322916666668,51.785172773897656L84.10322916666668,51.785172773897656L84.33749999999999,52.33090528622269L84.4780625,45.04338059499858L84.85289583333333,67.36913919225334L84.99345833333334,65.65664364397526L85.0403125,48.55666030570865L85.22772916666666,67.9725832208991L85.36829166666666,66.27541013956069L85.50885416666667,53.3827031828463L85.6025625,77.43787394240498L86.1648125,90.82961253337562L86.305375,76.23668411299586L86.4459375,94.53472410328686L86.7270625,81.64470938965678L86.91447916666667,66.5431590139866L87.24245833333333,64.53388076350093L87.52358333333333,62.12861807271838L87.61729166666666,82.41020525321365L87.94527083333334,63.77087787464261L87.94527083333334,63.77087787464261L87.992125,63.550800781697035L88.74179166666666,45.62245452404022L88.78864583333333,25.748595899343485L88.78864583333333,25.748595899343485L88.9760625,24.01674163937568L89.21033333333334,41.6903381049633L89.58516666666667,41.48259021341801L89.678875,53.45293044969439L90.3816875,65.0312122568488L90.70966666666666,75.76557125151157L90.89708333333333,74.65952147692441L91.13135416666667,47.93959819078444L91.27191666666667,33.64838330522181L91.36562500000001,37.703554312139744L91.74045833333332,20.76110323220493L91.7873125,19.46663035973907L91.83416666666666,19.652747032046335L92.11529166666666,36.23404748141766L92.53697916666667,43.74661825597286L92.91181250000001,71.69004943072797L93.09922916666666,88.45739023685455L93.66147916666667,74.80535201728344L93.84889583333333,75.68286215215922L93.89575,81.29056283086538L93.94260416666667,71.65123025327921L94.03631250000001,94.27548017315566L94.08316666666667,73.86021782383322L94.31743750000001,99.23502014949918L94.41114583333332,86.21725744158029L94.5985625,89.8002895668149L94.64541666666666,94.07116224169731L94.8796875,39.83418276980521L95.20766666666667,75.62262374311685L95.30137500000001,98.59028516747058L95.34822916666667,75.3222457304597L95.72306250000001,65.83720623999834L96.0041875,62.77534149885177L96.5664375,63.565597519278526L96.89441666666667,67.51800539568067L96.94127083333333,61.683011564612386L97.08183333333334,73.93236993849278L97.22239583333334,83.24893012866379L97.31610416666668,66.95846824795008L97.40981249999999,84.81183023601771L97.45666666666666,68.38016762509942L97.83149999999999,72.08385463804007L98.2531875,77.19015366062523L98.30004166666667,80.37999958246947L98.44060416666667,82.77244126051664L98.5343125,83.42361642718315L99.09656249999999,44.21196505352853L99.14341666666667,62.847434256970885L99.33083333333333,68.03896927163005L99.3776875,61.93587890639901L99.42454166666667,51.876327461004266L99.47139583333333,60.20148927420378L99.47139583333333,60.20148927420378L99.9399375,56.109110195934775L100.0805,46.52918503582478L100.26791666666668,22.4509076230228L100.83016666666667,58.546493254601955L101.01758333333333,30.117508620023727L101.3455625,29.070459246635437L101.39241666666668,23.98745342642067L101.486125,11.868136753141897L101.76724999999999,34.691888245195145L102.4700625,78.93772892430424L102.51691666666666,78.01861833408475L102.56377083333334,75.9103503331542L102.7511875,64.23666560649872L103.12602083333334,38.97294480651615L103.26658333333333,19.300796665251255L103.78197916666666,22.67970164790748L103.82883333333334,7.465238173306005L103.96939583333334,-4.159231501817686L104.20366666666666,-19.923921626806276L104.25052083333334,28.865170411765575L104.39108333333334,29.654858305305225L104.4379375,25.234067968279106L104.5785,42.904510057717545L104.71906249999999,40.17367674261331L104.859625,32.60117282122374L104.95333333333333,16.51010651886463L105.32816666666666,56.769765450060376L105.60929166666666,38.805703514069336L105.703,37.54769251644612L105.8435625,47.91494826748968L106.21839583333333,58.17683767974377L106.26525,48.74413369894026L106.4058125,54.70693064108491L106.49952083333334,82.8573635108769L106.546375,69.00431860685349L106.87435416666666,50.243641021102675L107.29604166666667,33.56628473028539L107.76458333333333,37.240310432016855L108.18627083333334,9.063930274546152L108.233125,22.879572078585625L108.27997916666666,4.167320950329298L108.32683333333334,6.578078360855585L108.42054166666667,5.5458511635661125L108.795375,-44.336452677845955L109.07650000000001,-17.259610034525394L109.40447916666666,23.314435052871687L110.10729166666667,47.01736714243887L110.15414583333333,62.06660744696855L110.71639583333332,47.878723818808794L110.81010416666666,35.9768471121788L110.85695833333332,46.19103082492947L110.99752083333333,51.83582934141158L111.044375,33.703372900187986L111.09122916666666,51.45751619115471L111.3255,44.678575297445065L111.4660625,58.42916233316065L111.79404166666667,71.12183774858714L111.98145833333332,67.21779697313904L112.26258333333332,36.41427089720966L112.3094375,52.553602546453476L112.40314583333333,42.699178825318796L112.68427083333333,38.15313770845532L112.77797916666667,44.46176281422376L112.87168750000001,56.32656712159515L112.91854166666667,45.672585362195974L113.15281250000001,69.75946947336196L113.24652083333334,69.25200497061014L113.94933333333333,52.68766353279352L114.04304166666667,57.19536032453179L114.23045833333333,41.716242995113134L114.8395625,42.51580103337764L115.02697916666666,51.97072131931782L115.26124999999999,42.693862175196415L115.44866666666667,54.43016805201769L115.58922916666667,45.52410073652865L115.6829375,53.44213603883982L115.9640625,41.76968932002782L116.104625,60.9991733416915L116.2451875,71.81937037333846L116.76058333333333,76.75661348924041L116.99485416666667,76.05766478702425L117.13541666666667,72.04439101815224L117.32283333333334,83.18736891672016L117.3696875,83.381727668643L117.6508125,59.73849129974842L117.88508333333333,42.40117507427931L117.97879166666667,45.18915177881718L118.21306249999999,48.85953129306435L118.21306249999999,48.85953129306435L119.29070833333334,24.113000988960266L119.43127083333333,8.010606066882616L119.43127083333333,8.010606066882616L119.66554166666667,28.098673966527002L121.39914583333334,-8.545340660214407L121.68027083333334,-20.1832927495241L121.727125,10.359089986979967L121.77397916666666,-2.6271035209298077L121.82083333333334,-9.106802655756468L121.8676875,4.879548558592802L122.4299375,-9.91296622902155L122.5705,37.26239106506111L122.61735416666666,41.27193385139108L122.80477083333334,50.21836361438035L123.08589583333334,12.99691160321234L123.2733125,51.83390449360013L123.36702083333334,63.8842488668859L123.36702083333334,63.8842488668859L123.74185416666666,71.99718560948968L124.1166875,61.393894335627564L124.25725,61.41420275196434L124.35095833333334,53.17224184945225L124.538375,47.041313266754145L124.58522916666666,36.38787419572472L124.8195,42.30091339796783L124.91320833333334,22.80459628850221L125.05377083333335,48.74043663442134L125.14747916666667,32.88648275211452L125.75658333333334,30.38647006377576L125.99085416666667,21.537681809812767L126.31883333333333,58.36189441382885L126.50625000000001,72.03107819408179L126.64681250000001,57.01852871105075L126.74052083333332,66.02802903801204L126.74052083333332,66.02802903801204L127.2090625,67.90747757554054L127.25591666666666,68.50080555379391L127.39647916666667,69.80335939526559L128.09929166666666,38.76656211540103L128.23985416666667,36.033956583589315L128.3335625,28.901131995767372L128.42727083333332,38.287088461220264L128.6146875,60.11532901600003L128.66154166666666,51.04119789600372L129.036375,66.57134489119052L129.08322916666665,48.477953533083195L129.50491666666667,53.31560485363006L129.55177083333334,50.92661433443426L129.598625,43.60808857008814L129.83289583333334,50.99264424592256L130.02031250000002,71.2376508384943L130.06716666666668,71.24682566374541L130.06716666666668,71.24682566374541L130.67627083333332,67.21347242519259L130.723125,70.53693839907646L131.00425,76.971891181916L131.05110416666668,96.21105455942451L131.09795833333334,68.55352264121176L131.1448125,86.92712774723769L131.4259375,71.1629718311131L131.847625,58.567878568172446L132.31616666666667,61.09371135160326L132.50358333333332,49.293707427382486L132.691,63.56212092190981L132.78470833333333,43.53879404887559L132.92527083333334,34.02550084516406L132.972125,55.620037741214034L132.972125,55.620037741214034L133.20639583333335,27.229236321151262L133.8155,75.62721115574242L133.9560625,78.82062694951891L134.33089583333333,82.2571925714612L134.42460416666668,76.66989358365537L134.56516666666667,65.90317679494619L134.658875,55.53899910449981L134.70572916666669,57.26261128485203L134.89314583333334,26.36599719449876L134.94,57.65612818896771L134.98685416666666,51.670105880498895L135.03370833333332,64.02033645510674L135.08056249999998,36.27262075319888L135.31483333333333,57.76012084782123L135.40854166666668,53.39740664586425L135.50225,58.18765752911567L135.54910416666667,44.14500239640475L135.59595833333333,55.663062753528365L135.73652083333334,46.847454805672186L135.87708333333333,54.21363539248705L135.9239375,54.571233110129825L135.97079166666668,59.0926412627101L136.81416666666667,62.87382247895003L137.09529166666667,54.46047380566597L137.5169791666667,75.99162639603018L137.56383333333335,50.45970730781555L137.93866666666665,65.06845424622297L138.032375,74.81468795314431L138.07922916666666,66.3658186301589L138.07922916666666,66.3658186301589L138.54777083333335,59.134250197559595L139.11002083333335,69.51341965422034L139.15687499999999,61.75149205327034L139.48485416666665,70.46743189021946L139.67227083333333,53.23812760934233L139.8596875,43.57082114219665L139.95339583333333,61.674574456363914L140.00025,51.04437771067023L140.00025,51.04437771067023L140.32822916666666,29.309716981649416L140.51564583333334,79.04885284751653L141.03104166666668,61.88034662306309L141.17160416666667,55.955113891512156L141.2653125,77.57727701738476L141.405875,74.86640445888042L141.73385416666667,87.09884621873498L141.78070833333334,78.90895796120166L141.78070833333334,78.90895796120166L141.96812500000001,80.53335992395877L142.38981249999998,92.09091357924045L142.90520833333332,87.6328261360526L143.04577083333334,87.6629029430449L143.04577083333334,87.6629029430449L143.5143125,70.55553395524622L143.56116666666668,64.81773221939802L143.70172916666667,51.16148816496134L144.31083333333333,64.54336085096001L144.4045416666667,74.02523748576641L144.73252083333335,57.46775596812368L144.82622916666668,67.99267964959144L145.24791666666667,77.91686426475644L145.43533333333332,66.77842290177942L145.95072916666666,72.9744147323072L146.0444375,60.09617381244898L146.0444375,60.09617381244898L146.13814583333334,59.990527649968854L146.185,59.15332060605287L146.27870833333333,50.72492081001401L146.79410416666667,32.13724210113287L147.3095,27.385191391408426L147.63747916666668,58.6275234118104L148.01231249999998,72.05928103029727L148.24658333333332,73.8492538228631L148.62141666666665,43.56736150383949L148.94939583333334,22.913405306637287L148.99625,35.149866352230305L149.04310416666667,30.972827888280136L149.46479166666666,18.184681717306376L149.5585,24.028061779588455L150.02704166666666,36.25175268948078L150.07389583333335,26.852848018705828L150.40187500000002,46.032760849595064L150.49558333333334,37.37664392590523L150.82356249999998,74.2437373906374L150.87041666666664,65.75787198394538L150.91727083333336,70.27533716633916L151.01097916666666,60.48762171715498L151.6669375,83.33330121114851L151.90120833333333,86.22229426801205L152.04177083333335,93.46188007332385L152.13547916666667,86.3271433569491L152.27604166666666,94.72599207535386L152.41660416666667,76.16063990518451L152.55716666666666,75.22709719613194L152.60402083333332,70.33076769560576L152.650875,87.92650533914566L153.02570833333334,41.005889357626444L153.21312500000002,57.19589453339576L153.40054166666667,51.22399060204624L153.82222916666666,56.70139519497752L153.91593749999998,69.32391117960215L153.96279166666665,60.74869722053408L154.24391666666665,42.38920201212167L154.2907708333333,73.4627494700253L154.43133333333333,50.92390089258551L154.71245833333333,26.399601475894457L154.85302083333332,42.436661805957556L155.08729166666666,44.030961523205036L155.3215625,39.340955357253534L155.69639583333333,39.72781584933401L155.97752083333333,64.35548044145106L156.02437500000002,62.22095989063382L156.11808333333335,68.57645970433951L156.4460625,60.12751406580209L157.43,79.40249063596129L157.47685416666667,78.3819566771388L157.5705625,71.07761712595821L157.89854166666666,82.82036742717027L158.17966666666666,45.414146985113604L158.32022916666668,58.08834555745125L158.74191666666667,52.838293473422524L158.78877083333333,43.25317885577678L158.92933333333335,51.73488930463792L159.02304166666667,38.821271886676556L159.1636041666667,41.403662973642355L159.4447291666667,5.9379604697227535L159.49158333333335,13.706849744915957L159.86641666666665,6.683733002841478L159.96012499999998,3.982976494729513L160.1006875,8.74101373553276L160.75664583333332,33.264380406588316L160.80349999999999,32.623931814730184L160.9440625,76.68994761481882L161.36575,40.86652020066978L161.41260416666668,42.94716197177766L161.60002083333333,43.539752233028395L161.7874375,39.706752756983036L162.02170833333335,41.53473069444297L162.0685625,45.11029237508774L162.30283333333335,45.68991747200491L162.39654166666668,59.50620371848345L162.39654166666668,59.50620371848345L162.86508333333333,54.011339823156604L162.95879166666666,54.5356700628996L163.00564583333332,57.865877243876454L163.09935416666667,55.72568390369416L163.33362499999998,52.44230055361986L163.7553125,46.244553465396166L164.22385416666665,53.216479431092736L164.3175625,75.08785523176194L164.55183333333335,46.789794166386145L164.69239583333334,36.645193278044445L164.69239583333334,36.645193278044445L164.73925,31.24953112080695L164.78610416666666,34.81573142707347L164.8798125,28.123476520925777L165.39520833333336,53.086870185285804L165.77004166666666,23.929377291351557L165.81689583333332,39.79369312971832L165.91060416666664,46.522655816376215L166.0043125,40.98488562181592L166.19172916666665,31.50817300602793L166.37914583333333,46.509427787363535L166.426,34.715105132013576L166.66027083333333,55.735816913098105L166.80083333333334,62.91482936888933L166.8476875,58.70209218561649L166.98825,45.46870412528514L167.03510416666666,70.43771970197558L167.08195833333335,59.00670147165657L167.36308333333335,63.55378556773066L167.4099375,67.16254451349378L167.45679166666667,70.15172293111682L168.01904166666668,51.033074529469005L168.20645833333336,55.813048251718286L168.30016666666668,37.57114682942628L168.67499999999998,56.459525772184136L168.90927083333332,33.56712420135736L168.90927083333332,33.56712420135736L168.956125,49.377060969173925L169.0966875,37.91705130860211L169.23725,28.857292950898426L169.42466666666667,38.44271283075213L169.518375,48.133507528901106L169.70579166666667,41.21710536703469L169.84635416666666,45.944947087764746L170.12747916666666,54.54487032666803L170.73658333333333,38.67977437376976L171.205125,54.414904941618445L171.2988333333333,63.996254658699044L171.39254166666666,60.271114496141664L171.39254166666666,60.271114496141664L171.5799583333333,50.13930918201804L171.95479166666667,74.71923415660858L172.23591666666667,59.35930476039648L172.4701875,60.0842940248549L172.65760416666666,70.09140820652247L172.79816666666667,85.23812042996288L173.36041666666668,61.29588820785284L175.5625625,92.06850224547088L175.93739583333334,98.6859297528863L176.1248125,107.64068639054894L176.7339166666667,111.83598123043775L177.24931249999997,114.79420945197344L177.43672916666665,112.64677461385726L177.81156249999998,114.46421252563596L177.85841666666667,109.27023117356002L178.04583333333332,95.86416645757855L178.46752083333334,126.50750195011497L178.514375,100.56131660714745L178.98291666666668,104.95256858579815L179.02977083333334,110.2009586866945L179.076625,112.4671066056937L179.45145833333333,94.71195001378656L180.38854166666667,113.14444528743626L181.51304166666668,116.83216539099811L181.70045833333333,118.70324889607727L181.79416666666665,113.36905467621982L181.84102083333335,126.33306367713959L181.98158333333333,112.29596050083637L182.450125,112.9501628510654L182.8718125,118.67039505094289L183.01237500000002,121.35509985461832L183.48091666666664,108.97508925572038L183.71518749999998,118.65091762617232L185.4019375,103.41053230240941L185.82362500000002,100.4454611197114L185.91733333333335,102.40721174031496L186.10475,91.51758875511587L186.385875,112.04740498773754L186.5264375,100.58786169998348L186.85441666666665,104.48323642052709L187.22925,86.05558718442917L187.3698125,97.27231134474277L187.74464583333332,113.23575260564685L187.9320625,108.79830003976822L188.11947916666668,111.50443255454302L188.58802083333333,117.47298284135758L188.63487500000002,116.92076350711287L189.197125,121.50196489468217L189.38454166666665,109.45061993971467L189.71252083333331,129.13797819446773L189.8999375,123.29357847161592L190.41533333333334,127.42575187049806L190.97758333333334,133.33700401689856L191.72725000000003,136.3216925362125L192.89860416666667,132.86933383475989L193.60141666666667,134.49007477089762L194.257375,136.88976218663157L194.44479166666667,122.68598796464502L194.63220833333335,129.19220675379037L195.00704166666665,138.23692882787435L195.28816666666665,142.5771511407569L195.33502083333332,130.68937797211112L196.13154166666666,139.95120931211858L196.55322916666668,122.68639498092233L196.83435416666669,125.48470396324993L197.2091875,132.93968617431818L197.34975,134.39602009281515L198.38054166666666,138.61978487335145L199.1770625,135.61408201884478L199.36447916666665,124.78138407580553L199.7393125,134.93335365466774L199.879875,139.9644585398957L200.161,136.4254308098927L201.00437499999998,131.39893665593118L201.09808333333334,140.60737466793506L201.94145833333334,136.09211839679628L202.128875,134.5329725906253L202.2694375,134.90584401804955L202.97225,143.72204977106304L203.11281250000002,140.71017807610332L203.30022916666667,143.2209872951731L203.62820833333336,141.4828942388296L204.2373125,143.87183282105252L204.5184375,142.08867013156413L205.17439583333334,138.30217014532536L205.73664583333334,141.73097065985203L206.064625,142.77822142150254L206.4394583333333,146.70562323536723L206.81429166666666,139.60391207411885L206.86114583333332,147.72428852310404L207.09541666666667,143.30188813991845L207.28283333333331,141.17075091190637L207.8919375,142.58161984030158L208.07935416666666,145.38606162518263L208.73531250000002,134.1004520798102L209.29756250000003,138.81306036841124L209.3444166666667,134.6816140871495L209.67239583333333,142.19541650991886L210.04722916666665,144.30725438278168L210.32835416666666,142.2388294596225L210.60947916666666,143.76003689700738L210.93745833333332,142.16147516816855L211.03116666666668,143.43653845191002L211.45285416666667,145.46016932586207L211.5465625,146.4132064186968L211.59341666666668,146.06421221960335L212.48364583333333,141.68959703128786L212.6242083333333,138.55460927207022L213.04589583333333,147.70212415494024L213.655,147.69855216313152L214.17039583333334,143.96767349503935L214.31095833333333,141.4341328408569L214.7795,141.11981452070177L215.52916666666667,141.25306571424008L216.04456249999998,140.29465049486606L216.8879375,146.09428690671922L217.35647916666667,146.32717971270904L217.40333333333334,142.02365988064557L217.63760416666668,140.45248589552938L217.68445833333334,142.63637624885888L218.0124375,144.54509816020726L218.19985416666665,142.49215681459754L218.24670833333332,137.6623002797365L218.29356249999998,142.28819396244361L218.996375,143.8166259387508L219.32435416666667,142.00251835286616L219.37120833333333,144.80629343660547L219.558625,143.10989728998393L219.65233333333333,145.39672036394478L220.07402083333335,134.3403478976339L220.2614375,138.70303242132067L220.40200000000002,139.4169389717281L221.62020833333332,141.11140921059996L221.6670625,141.22737705148757L222.08875,138.43171579483896L222.2293125,141.14910909328609L222.41672916666667,138.76122514959425L222.55729166666666,137.63395541179926L223.02583333333334,144.09921924797817L223.0726875,147.33556571956723L223.11954166666666,147.4292229208164L223.16639583333333,145.63439243137836L223.40066666666667,142.84021932799368L223.68179166666667,147.96837109690532L223.86920833333335,149.62985075861215L223.96291666666664,148.42158690150828L224.71258333333333,148.65226867636665L224.99370833333333,147.62461087275295L225.0405625,149.401483888831L225.41539583333332,149.4564893828705L225.69652083333332,149.3412486596033L226.30562500000002,147.28033657856287L226.6336041666667,143.72961137034L227.1021458333333,146.39600468128918L228.32035416666668,144.14643631596118L229.398,139.59867597930133L229.7259791666667,145.63856434822083L230.00710416666666,147.4278269821778L230.14766666666665,146.17476695599035L231.60014583333333,145.2183391207829L231.647,146.24466458205134L232.39666666666668,148.99308969182894L232.44352083333334,143.99271983522922L232.9120625,143.69639078658074L233.05262499999998,147.49682260081173L233.14633333333333,146.8257099961862L233.66172916666667,149.60464330781252L233.94285416666668,148.94881289247422L234.08341666666666,147.71837618770078L234.27083333333334,149.45266194595024L235.0205,150.83318590298296L235.11420833333335,148.1773856146261L235.1610625,148.82999593764544L235.34847916666666,145.21815893128513L235.48904166666668,146.94841480441391L235.58275,142.79797231033444L236.23870833333334,144.50659272447228L236.42612499999998,141.80568358525633L236.94152083333333,150.56307972595096L237.08208333333334,146.057865309529L238.01916666666668,135.4235793221742L238.394,130.59252505712212L238.86254166666666,143.59208650588988L238.90939583333332,145.9159406415187L239.42479166666666,148.20015520751477L240.5024375,149.61861647339538L240.73670833333333,149.26015702597797L241.53322916666664,146.5414759025909L242.610875,143.97331554619595L242.70458333333332,141.77613886725157L243.59481250000002,146.13845029268413L243.64166666666668,146.80694696977736L243.82908333333333,144.81988290455192L244.0165,149.7271414280869L244.859875,146.6716628147289L245.141,147.5103039550595L245.18785416666665,148.95055331103504L247.15572916666667,151.12490316042675L247.53056249999997,150.7239380704239L247.90539583333333,150.12124977773055L247.95225,150.59478671792894L248.74877083333334,149.53741036644206L249.12360416666667,146.28660315768792L249.357875,149.39262280529366L249.54529166666669,145.18413279447705L250.0606875,148.55294928513467L250.62293749999998,150.82220812281594L250.7635,151.06264556907118L250.85720833333332,150.9623075772077L251.044625,151.48668975392357L251.41945833333332,146.06254917653277L253.24677083333336,145.00135598750785L254.23070833333333,151.62831763923168L254.51183333333333,151.72236913749947L254.5586875,152.66829351489432L254.65239583333334,150.36158335004L255.35520833333334,152.68810111042112L255.6831875,148.88705029226838L256.7608333333333,149.90984509931877L256.85454166666665,150.21783876810224L256.94825000000003,153.32677960544825L257.4636458333334,151.64433913542888L257.60420833333336,148.06695913076402L258.4007291666667,151.6086541953031L258.68185416666665,148.36798794548957L259.2909583333333,149.22313338387758L260.2280416666667,153.16772209601476L260.6497291666667,151.97576008876786L261.3056875,151.53114356296138L261.3993958333333,152.80804318967276L261.4931041666667,151.46914353659378L261.91479166666664,150.0799492849037L262.33647916666666,152.4013268748764L262.7113125,151.0804461715743L263.6483958333333,151.91946411994286L263.74210416666665,152.96429981235414L263.88266666666664,151.50191258667036L263.97637499999996,151.3060513723176L264.2575,153.2049344071187L264.81975,151.06792406141759L264.86660416666666,152.5589322689455L265.19458333333336,152.60162075087428L265.33514583333334,153.25614055260084L265.56941666666665,151.8536308269948L265.89739583333335,150.95607090070843L265.9911041666667,151.837749772612L267.39672916666666,145.07214714149012L268.3806666666667,150.95694428980352L268.8960625,151.81014368161559L269.036625,150.089306419529L269.2708958333333,152.9861461990513L269.6457291666666,150.10675936229526L270.0205625,150.0451292543672L270.20797916666663,153.83257841528393L270.25483333333335,151.7296191149391L270.3485416666667,152.63179189236834L270.48910416666666,151.6471029243432L270.77022916666664,152.57178190001287" style="fill: none;" fill="none"></path></g></g></g></g></g></g><g transform="translate(48, 177)" clip-path="url(#clip_1)"><clipPath id="clip_1"><rect width="281" height="22"></rect></clipPath><g><g><line x1="0" y1="0" x2="0" y2="5" style="visibility: inherit;" fill="rgb(0, 0, 0)" stroke="rgb(204, 204, 204)" stroke-width="1px"></line><line x1="23.427083333333332" y1="0" x2="23.427083333333332" y2="5" style="visibility: inherit;" fill="rgb(0, 0, 0)" stroke="rgb(204, 204, 204)" stroke-width="1px"></line><line x1="46.854166666666664" y1="0" x2="46.854166666666664" y2="5" style="visibility: inherit;" fill="rgb(0, 0, 0)" stroke="rgb(204, 204, 204)" stroke-width="1px"></line><line x1="70.28125" y1="0" x2="70.28125" y2="5" style="visibility: inherit;" fill="rgb(0, 0, 0)" stroke="rgb(204, 204, 204)" stroke-width="1px"></line><line x1="93.70833333333333" y1="0" x2="93.70833333333333" y2="5" style="visibility: inherit;" fill="rgb(0, 0, 0)" stroke="rgb(204, 204, 204)" stroke-width="1px"></line><line x1="117.13541666666667" y1="0" x2="117.13541666666667" y2="5" style="visibility: inherit;" fill="rgb(0, 0, 0)" stroke="rgb(204, 204, 204)" stroke-width="1px"></line><line x1="140.5625" y1="0" x2="140.5625" y2="5" style="visibility: inherit;" fill="rgb(0, 0, 0)" stroke="rgb(204, 204, 204)" stroke-width="1px"></line><line x1="163.98958333333334" y1="0" x2="163.98958333333334" y2="5" style="visibility: inherit;" fill="rgb(0, 0, 0)" stroke="rgb(204, 204, 204)" stroke-width="1px"></line><line x1="187.41666666666666" y1="0" x2="187.41666666666666" y2="5" style="visibility: inherit;" fill="rgb(0, 0, 0)" stroke="rgb(204, 204, 204)" stroke-width="1px"></line><line x1="210.84375" y1="0" x2="210.84375" y2="5" style="visibility: inherit;" fill="rgb(0, 0, 0)" stroke="rgb(204, 204, 204)" stroke-width="1px"></line><line x1="234.27083333333334" y1="0" x2="234.27083333333334" y2="5" style="visibility: inherit;" fill="rgb(0, 0, 0)" stroke="rgb(204, 204, 204)" stroke-width="1px"></line><line x1="257.69791666666663" y1="0" x2="257.69791666666663" y2="5" style="visibility: inherit;" fill="rgb(0, 0, 0)" stroke="rgb(204, 204, 204)" stroke-width="1px"></line><line x1="281.125" y1="0" x2="281.125" y2="5" style="visibility: inherit;" fill="rgb(0, 0, 0)" stroke="rgb(204, 204, 204)" stroke-width="1px"></line></g><g transform="translate(0, 8)"><text x="0" y="0" dx="0em" dy="0.95em" style="text-anchor: middle; visibility: hidden; font-family: &quot;Helvetica Neue&quot;, sans-serif; font-size: 12px; font-weight: 200;" fill="rgb(50, 49, 63)" stroke="none" stroke-width="1px">-500</text><text x="23.427083333333332" y="0" dx="0em" dy="0.95em" style="text-anchor: middle; visibility: inherit; font-family: &quot;Helvetica Neue&quot;, sans-serif; font-size: 12px; font-weight: 200;" fill="rgb(50, 49, 63)" stroke="none" stroke-width="1px">0</text><text x="46.854166666666664" y="0" dx="0em" dy="0.95em" style="text-anchor: middle; visibility: inherit; font-family: &quot;Helvetica Neue&quot;, sans-serif; font-size: 12px; font-weight: 200;" fill="rgb(50, 49, 63)" stroke="none" stroke-width="1px">500</text><text x="70.28125" y="0" dx="0em" dy="0.95em" style="text-anchor: middle; visibility: inherit; font-family: &quot;Helvetica Neue&quot;, sans-serif; font-size: 12px; font-weight: 200;" fill="rgb(50, 49, 63)" stroke="none" stroke-width="1px">1k</text><text x="93.70833333333333" y="0" dx="0em" dy="0.95em" style="text-anchor: middle; visibility: inherit; font-family: &quot;Helvetica Neue&quot;, sans-serif; font-size: 12px; font-weight: 200;" fill="rgb(50, 49, 63)" stroke="none" stroke-width="1px">1.5k</text><text x="117.13541666666667" y="0" dx="0em" dy="0.95em" style="text-anchor: middle; visibility: inherit; font-family: &quot;Helvetica Neue&quot;, sans-serif; font-size: 12px; font-weight: 200;" fill="rgb(50, 49, 63)" stroke="none" stroke-width="1px">2k</text><text x="140.5625" y="0" dx="0em" dy="0.95em" style="text-anchor: middle; visibility: inherit; font-family: &quot;Helvetica Neue&quot;, sans-serif; font-size: 12px; font-weight: 200;" fill="rgb(50, 49, 63)" stroke="none" stroke-width="1px">2.5k</text><text x="163.98958333333334" y="0" dx="0em" dy="0.95em" style="text-anchor: middle; visibility: inherit; font-family: &quot;Helvetica Neue&quot;, sans-serif; font-size: 12px; font-weight: 200;" fill="rgb(50, 49, 63)" stroke="none" stroke-width="1px">3k</text><text x="187.41666666666666" y="0" dx="0em" dy="0.95em" style="text-anchor: middle; visibility: inherit; font-family: &quot;Helvetica Neue&quot;, sans-serif; font-size: 12px; font-weight: 200;" fill="rgb(50, 49, 63)" stroke="none" stroke-width="1px">3.5k</text><text x="210.84375" y="0" dx="0em" dy="0.95em" style="text-anchor: middle; visibility: inherit; font-family: &quot;Helvetica Neue&quot;, sans-serif; font-size: 12px; font-weight: 200;" fill="rgb(50, 49, 63)" stroke="none" stroke-width="1px">4k</text><text x="234.27083333333334" y="0" dx="0em" dy="0.95em" style="text-anchor: middle; visibility: inherit; font-family: &quot;Helvetica Neue&quot;, sans-serif; font-size: 12px; font-weight: 200;" fill="rgb(50, 49, 63)" stroke="none" stroke-width="1px">4.5k</text><text x="257.69791666666663" y="0" dx="0em" dy="0.95em" style="text-anchor: middle; visibility: inherit; font-family: &quot;Helvetica Neue&quot;, sans-serif; font-size: 12px; font-weight: 200;" fill="rgb(50, 49, 63)" stroke="none" stroke-width="1px">5k</text><text x="281.125" y="0" dx="0em" dy="0.95em" style="text-anchor: middle; visibility: hidden; font-family: &quot;Helvetica Neue&quot;, sans-serif; font-size: 12px; font-weight: 200;" fill="rgb(50, 49, 63)" stroke="none" stroke-width="1px">5.5k</text></g><line x1="0" y1="0" x2="281.125" y2="0" fill="rgb(0, 0, 0)" stroke="rgb(204, 204, 204)" stroke-width="1px"></line></g></g></g></g></svg>