<svg viewBox="0 0 330 200" xmlns="http://www.w3.org/2000/svg"><g><g><g><g><g><line x1="58.59375" y1="177.828125" x2="53.59375" y2="177.828125" style="visibility: inherit;" fill="rgb(0, 0, 0)" stroke="rgb(204, 204, 204)" stroke-width="1px"></line><line x1="58.59375" y1="158.06944444444446" x2="53.59375" y2="158.06944444444446" style="visibility: inherit;" fill="rgb(0, 0, 0)" stroke="rgb(204, 204, 204)" stroke-width="1px"></line><line x1="58.59375" y1="138.31076388888889" x2="53.59375" y2="138.31076388888889" style="visibility: inherit;" fill="rgb(0, 0, 0)" stroke="rgb(204, 204, 204)" stroke-width="1px"></line><line x1="58.59375" y1="118.55208333333333" x2="53.59375" y2="118.55208333333333" style="visibility: inherit;" fill="rgb(0, 0, 0)" stroke="rgb(204, 204, 204)" stroke-width="1px"></line><line x1="58.59375" y1="98.79340277777777" x2="53.59375" y2="98.79340277777777" style="visibility: inherit;" fill="rgb(0, 0, 0)" stroke="rgb(204, 204, 204)" stroke-width="1px"></line><line x1="58.59375" y1="79.03472222222221" x2="53.59375" y2="79.03472222222221" style="visibility: inherit;" fill="rgb(0, 0, 0)" stroke="rgb(204, 204, 204)" stroke-width="1px"></line><line x1="58.59375" y1="59.27604166666667" x2="53.59375" y2="59.27604166666667" style="visibility: inherit;" fill="rgb(0, 0, 0)" stroke="rgb(204, 204, 204)" stroke-width="1px"></line><line x1="58.59375" y1="39.51736111111114" x2="53.59375" y2="39.51736111111114" style="visibility: inherit;" fill="rgb(0, 0, 0)" stroke="rgb(204, 204, 204)" stroke-width="1px"></line><line x1="58.59375" y1="19.75868055555557" x2="53.59375" y2="19.75868055555557" style="visibility: inherit;" fill="rgb(0, 0, 0)" stroke="rgb(204, 204, 204)" stroke-width="1px"></line><line x1="58.59375" y1="0" x2="53.59375" y2="0" style="visibility: inherit;" fill="rgb(0, 0, 0)" stroke="rgb(204, 204, 204)" stroke-width="1px"></line></g><g transform="translate(48.59375, 0)"><text x="0" y="177.828125" dx="0em" dy="0.3em" style="text-anchor: end; visibility: hidden; font-family: &quot;Helvetica Neue&quot;, sans-serif; font-size: 12px; font-weight: 200;" fill="rgb(50, 49, 63)" stroke="none" stroke-width="1px">-0.05</text><text x="0" y="158.06944444444446" dx="0em" dy="0.3em" style="text-anchor: end; visibility: inherit; font-family: &quot;Helvetica Neue&quot;, sans-serif; font-size: 12px; font-weight: 200;" fill="rgb(50, 49, 63)" stroke="none" stroke-width="1px">0</text><text x="0" y="138.31076388888889" dx="0em" dy="0.3em" style="text-anchor: end; visibility: hidden; font-family: &quot;Helvetica Neue&quot;, sans-serif; font-size: 12px; font-weight: 200;" fill="rgb(50, 49, 63)" stroke="none" stroke-width="1px">0.05</text><text x="0" y="118.55208333333333" dx="0em" dy="0.3em" style="text-anchor: end; visibility: inherit; font-family: &quot;Helvetica Neue&quot;, sans-serif; font-size: 12px; font-weight: 200;" fill="rgb(50, 49, 63)" stroke="none" stroke-width="1px">0.1</text><text x="0" y="98.79340277777777" dx="0em" dy="0.3em" style="text-anchor: end; visibility: hidden; font-family: &quot;Helvetica Neue&quot;, sans-serif; font-size: 12px; font-weight: 200;" fill="rgb(50, 49, 63)" stroke="none" stroke-width="1px">0.15</text><text x="0" y="79.03472222222221" dx="0em" dy="0.3em" style="text-anchor: end; visibility: inherit; font-family: &quot;Helvetica Neue&quot;, sans-serif; font-size: 12px; font-weight: 200;" fill="rgb(50, 49, 63)" stroke="none" stroke-width="1px">0.2</text><text x="0" y="59.27604166666667" dx="0em" dy="0.3em" style="text-anchor: end; visibility: hidden; font-family: &quot;Helvetica Neue&quot;, sans-serif; font-size: 12px; font-weight: 200;" fill="rgb(50, 49, 63)" stroke="none" stroke-width="1px">0.25</text><text x="0" y="39.51736111111114" dx="0em" dy="0.3em" style="text-anchor: end; visibility: inherit; font-family: &quot;Helvetica Neue&quot;, sans-serif; font-size: 12px; font-weight: 200;" fill="rgb(50, 49, 63)" stroke="none" stroke-width="1px">0.3</text><text x="0" y="19.75868055555557" dx="0em" dy="0.3em" style="text-anchor: end; visibility: hidden; font-family: &quot;Helvetica Neue&quot;, sans-serif; font-size: 12px; font-weight: 200;" fill="rgb(50, 49, 63)" stroke="none" stroke-width="1px">0.35</text><text x="0" y="0" dx="0em" dy="0.3em" style="text-anchor: end; visibility: hidden; font-family: &quot;Helvetica Neue&quot;, sans-serif; font-size: 12px; font-weight: 200;" fill="rgb(50, 49, 63)" stroke="none" stroke-width="1px">0.4</text></g><line x1="58.59375" y1="0" x2="58.59375" y2="177.828125" fill="rgb(0, 0, 0)" stroke="rgb(204, 204, 204)" stroke-width="1px"></line></g></g><g transform="translate(58, 0)" clip-path="url(#clip_0)"><clipPath id="clip_0"><rect width="271" height="177"></rect></clipPath><g><g><g><line x1="0" y1="0" x2="0" y2="177.828125" fill="rgb(0, 0, 0)" stroke="rgb(60, 60, 60)" stroke-width="1px" opacity="0.25"></line><line x1="33.92578125" y1="0" x2="33.92578125" y2="177.828125" fill="rgb(0, 0, 0)" stroke="rgb(60, 60, 60)" stroke-width="1px" opacity="0.25"></line><line x1="67.8515625" y1="0" x2="67.8515625" y2="177.828125" fill="rgb(0, 0, 0)" stroke="rgb(60, 60, 60)" stroke-width="1px" opacity="0.25"></line><line x1="101.77734375" y1="0" x2="101.77734375" y2="177.828125" fill="rgb(0, 0, 0)" stroke="rgb(60, 60, 60)" stroke-width="1px" opacity="0.25"></line><line x1="135.703125" y1="0" x2="135.703125" y2="177.828125" fill="rgb(0, 0, 0)" stroke="rgb(60, 60, 60)" stroke-width="1px" opacity="0.25"></line><line x1="169.62890625" y1="0" x2="169.62890625" y2="177.828125" fill="rgb(0, 0, 0)" stroke="rgb(60, 60, 60)" stroke-width="1px" opacity="0.25"></line><line x1="203.5546875" y1="0" x2="203.5546875" y2="177.828125" fill="rgb(0, 0, 0)" stroke="rgb(60, 60, 60)" stroke-width="1px" opacity="0.25"></line><line x1="237.48046875" y1="0" x2="237.48046875" y2="177.828125" fill="rgb(0, 0, 0)" stroke="rgb(60, 60, 60)" stroke-width="1px" opacity="0.25"></line><line x1="271.40625" y1="0" x2="271.40625" y2="177.828125" fill="rgb(0, 0, 0)" stroke="rgb(60, 60, 60)" stroke-width="1px" opacity="0.25"></line></g><g><line x1="0" y1="177.828125" x2="271.40625" y2="177.828125" fill="rgb(0, 0, 0)" stroke="rgb(60, 60, 60)" stroke-width="1px" opacity="0.25"></line><line x1="0" y1="158.06944444444446" x2="271.40625" y2="158.06944444444446" fill="rgb(0, 0, 0)" stroke="rgb(60, 60, 60)" stroke-width="1px" opacity="0.25"></line><line x1="0" y1="138.31076388888889" x2="271.40625" y2="138.31076388888889" fill="rgb(0, 0, 0)" stroke="rgb(60, 60, 60)" stroke-width="1px" opacity="0.25"></line><line x1="0" y1="118.55208333333333" x2="271.40625" y2="118.55208333333333" fill="rgb(0, 0, 0)" stroke="rgb(60, 60, 60)" stroke-width="1px" opacity="0.25"></line><line x1="0" y1="98.79340277777777" x2="271.40625" y2="98.79340277777777" fill="rgb(0, 0, 0)" stroke="rgb(60, 60, 60)" stroke-width="1px" opacity="0.25"></line><line x1="0" y1="79.03472222222221" x2="271.40625" y2="79.03472222222221" fill="rgb(0, 0, 0)" stroke="rgb(60, 60, 60)" stroke-width="1px" opacity="0.25"></line><line x1="0" y1="59.27604166666667" x2="271.40625" y2="59.27604166666667" fill="rgb(0, 0, 0)" stroke="rgb(60, 60, 60)" stroke-width="1px" opacity="0.25"></line><line x1="0" y1="39.51736111111114" x2="271.40625" y2="39.51736111111114" fill="rgb(0, 0, 0)" stroke="rgb(60, 60, 60)" stroke-width="1px" opacity="0.25"></line><line x1="0" y1="19.75868055555557" x2="271.40625" y2="19.75868055555557" fill="rgb(0, 0, 0)" stroke="rgb(60, 60, 60)" stroke-width="1px" opacity="0.25"></line><line x1="0" y1="0" x2="271.40625" y2="0" fill="rgb(0, 0, 0)" stroke="rgb(60, 60, 60)" stroke-width="1px" opacity="0.25"></line></g></g></g><g><g><line x1="0" y1="158.06944444444446" x2="271.40625" y2="158.06944444444446" fill="rgb(0, 0, 0)" stroke="rgb(153, 153, 153)" stroke-width="1.5px"></line></g></g><g><g><line x1="33.92578125" y1="0" x2="33.92578125" y2="177.828125" fill="rgb(0, 0, 0)" stroke="rgb(153, 153, 153)" stroke-width="1.5px"></line></g></g><g><g><g><g><g><path stroke="rgb(255, 112, 67)" stroke-width="2px" d="M34.231113281249996,4.378213796350707L34.332890625,9.013632790547689L34.604296875,12.77611154106674L34.638222656249994,11.179110825393565L34.6721484375,8.994856206426448L34.875703125,11.057127413033697L35.113183593749994,7.2719049169869265L35.18103515625,12.40722816843413L35.52029296875,13.057086726401565L35.65599609375,13.00873257283692L35.72384765625,13.229744308448346L36.063105468749995,14.047838442482373L36.538066406249996,15.118470793810928L36.60591796875,18.863242778929873L36.74162109375,19.450768926295325L37.01302734375,16.68235809812029L37.046953125,14.711366668349598L37.7933203125,14.882145695495979L37.89509765625,18.096562984604446L38.132578125,17.625304830320317L38.23435546875,17.571441979548467L38.3361328125,17.157198347277983L38.43791015625,18.05835381694476L38.5396875,18.6010352373369L38.878945312499994,18.98027075952345L39.1503515625,16.464088307293764L39.184277343750004,16.742409687868957L39.31998046875,18.642228090317985L39.659238281250005,19.75661390667898L39.794941406250004,20.460322030363358L40.06634765625,19.676977622036787L40.13419921875,22.111823833897347L41.0501953125,24.040635298968283L41.08412109375,22.73027751791102L41.355527343750005,25.628318691007536L41.42337890625,23.57381286017076L41.4573046875,25.753022268491662L41.7287109375,27.067779038973242L41.76263671875,25.545312962378546L41.7965625,25.412013802864095L41.966191406250005,25.842439314600796L42.2715234375,26.28920345661632L42.64470703124999,25.31022342418072L42.91611328125,25.15593558422694L43.017890625,28.973060428647102L43.458925781249995,31.758062677983048L43.6285546875,31.74528856520027L43.73033203125,29.990012089287575L43.86603515625,30.145265282949453L43.86603515625,30.238417199145232L44.4427734375,28.290436254383593L44.47669921875,29.762113967407913L44.68025390625,30.225634733576584L44.78203125,31.43467915671866L44.81595703125,32.48704728835901L44.8498828125,32.40432419077334L44.88380859375,31.768200604294265L44.917734375,31.299969541766245L45.121289062500004,31.33968812605687L45.29091796875,32.11506258451516L46.03728515625,33.16711145691221L46.105136718749996,33.44514109970419L46.17298828125,31.101869717675157L46.30869140625,32.391513510060946L46.44439453125,32.76926917899738L46.681875,33.803920553374184L46.749726562499994,37.381505620892284L46.88542968749999,36.48962362122131L46.953281249999996,36.35501916597576L46.98720703125,37.578206626251415L47.0211328125,36.9728518274311L47.1568359375,37.51437866040038L47.224687499999995,35.777210858551456L47.25861328125,34.273653328173054L47.360390624999994,33.91080124487641L47.39431640625,35.996533606808356L47.46216796875,36.26253197088832L47.53001953125,36.42590436940719L47.631796875,39.69236109394035L47.631796875,41.65223512866021L48.03890625,38.711335940401625L48.1067578125,38.72734660475902L48.649570312499996,40.3131376697786L48.785273437499995,41.13871049134272L48.887050781250004,40.113650533381445L49.12453125,39.52491515902415L49.1923828125,39.30282833460279L49.29416015625,40.04332335859522L49.3280859375,43.35913434194515L49.42986328125,41.968638109897825L49.4637890625,43.967088865711816L49.701269531250006,45.02403338069851L49.7351953125,44.20861444454141L49.90482421875,43.024632463671594L49.93875,42.18942023927042L50.10837890625,42.29492145877853L50.176230468750006,44.204587465137905L50.24408203125,44.97462248126641L50.37978515625,47.507527235236296L50.4137109375,46.34636127602914L50.51548828125,46.5017860794178L50.51548828125,46.59504096145102L50.617265625,45.969609071421644L50.92259765625,46.8184137047312L50.9565234375,48.72899134446402L51.12615234374999,47.58076482160422L51.6350390625,49.05185581208386L51.83859375,49.46298393343889L51.940371093749995,48.20766710456218L52.00822265625,48.71073463149801L52.0421484375,51.90271576430493L52.11,50.96738667350665L52.21177734375,51.737198397553584L52.27962890625,50.070639975970295L52.4492578125,51.948149835182406L52.551035156249995,51.80970192218943L52.6528125,50.983776649095034L52.82244140625,53.24131444517549L53.5348828125,55.9937354694234L53.602734375000004,58.290115739215366L53.602734375000004,59.667943901090524L53.636660156249995,59.98176260210859L53.941992187500006,60.18509787921947L54.145546875,61.31227614826199L54.38302734375,62.385570016000756L54.824062500000004,65.91997195890028L55.027617187500006,66.03891272581737L55.19724609375,68.19809403221413L55.26509765625,69.797206809574L55.2990234375,69.10329804199156L55.63828125,69.21999335795307L55.74005859375,71.72226256303455L55.87576171875,70.84784086821954L55.9775390625,70.84329247069445L56.2489453125,71.2422965063097L56.28287109375,70.79059329722311L56.48642578125,73.69113265265747L56.5203515625,74.88228107424743L56.588203125,79.22346867013444L56.588203125,81.82818122766662L57.402421875,83.46522563650225L57.4702734375,82.93592855778742L57.50419921875,79.51842436556298L57.538125,78.78884512771566L57.91130859375,81.31025666784387L58.11486328125,81.23051814809128L58.1487890625,80.09581909406329L58.2844921875,80.6147979099408L58.352343749999996,81.9711217626661L58.759453125,82.3978855210216L58.793378906250005,84.13299805917868L58.9630078125,82.26867127670131L59.0987109375,82.4439064637436L59.1665625,81.07973294737785L59.20048828125,81.00318323765904L59.74330078125,82.77569284745546L59.811152343749995,82.55969301073183L60.2521875,85.03855867592881L60.52359375,85.50274561878743L60.52359375,85.78125778450259L60.795,84.80526175343208L60.862851562500005,84.15053731935814L61.1342578125,83.25986145305193L61.1342578125,82.72545593326822L61.507441406249995,82.98545149033919L61.609218750000004,82.95274684517973L61.6770703125,82.54336121960947L61.744921875,82.11115480756443L61.8127734375,84.54503505530369L61.880625,82.78638028700101L62.084179687500004,83.43567408109077L62.2198828125,82.80296585186275L62.32166015625,84.27704331689614L62.45736328125,85.09718452168629L62.593066406249996,84.58635098790667L62.66091796875,82.79620587428404L62.694843750000004,83.40450928237699L62.72876953125,84.15716490970054L62.79662109375,84.81735177279943L62.898398437500006,83.94548806049619L63.068027343749996,85.62434673672499L63.23765625,84.75657469740526L63.305507812500004,85.49649835685832L63.33943359375,86.54197691528465L63.37335937500001,86.25351982391457L63.47513671875,84.76971654188414L63.509062500000006,87.1406524946382L63.54298828125,87.07453083325302L63.88224609375,87.83146736209417L64.01794921875,87.50954957938092L64.11972656249999,87.5345012200197L64.2554296875,85.97682537624164L64.2554296875,85.04221986997479L64.42505859375,84.59928165440935L64.5268359375,85.47790811394593L64.90001953125,85.62612781022288L64.96787109375,85.21645055577072L65.1375,84.32687541364577L65.2053515625,84.46510289620727L65.34105468749999,85.67393638577053L65.57853515625,87.88428765757143L65.6124609375,88.83982624726782L65.71423828125,86.71476338592213L65.7481640625,87.57118606051364L66.32490234375,86.43314714478126L66.4266796875,82.93428934835397L66.73201171875,82.79255337425869L66.901640625,82.59905420007256L66.93556640625,83.66460915690993L66.9694921875,85.04711663777763L67.27482421875,85.20577444839559L67.5123046875,84.96081847134414L67.54623046875,84.73707473739064L67.8515625,85.82852692462616L67.9194140625,85.75691422407397L68.05511718749999,85.26990315120163L68.36044921875,85.9140176679238L68.46222656249999,84.61679099996817L68.8693359375,84.9674069767193L69.072890625,85.27590328796019L69.1407421875,84.03521222035242L69.1407421875,83.29079757978775L69.17466796875,82.55413320993537L69.20859375,83.97730316673973L69.27644531249999,86.42965086531133L69.344296875,87.02181953039991L69.48,87.13705649922295L69.71748046875001,86.6906965484553L70.29421875,86.94098309182792L70.3620703125,87.19448250658513L70.4977734375,89.42871537739688L70.6334765625,90.24386492191876L70.83703125000001,90.66955149959998L71.00666015624999,89.15534240967584L71.0405859375,89.3863400504483L71.07451171875,91.13689739402425L71.17628906249999,90.43030175728376L71.21021484375001,91.06554770690863L71.34591796875,88.23140094475049L71.41376953125,89.58890061012731L71.75302734375,90.45736539737148L71.85480468749999,90.86030120005664L71.85480468749999,91.10206268166775L71.88873046875001,90.03505901481873L71.95658203125,89.96532969839076L72.02443359375,90.71323087910831L72.02443359375,91.16197158753884L72.16013671875,91.33834893640717L72.1940625,92.61437776344125L72.29583984374999,91.79672058425939L72.601171875,92.25944413544295L72.77080078125,94.32259837601848L72.872578125,92.95728971296941L72.97435546874999,92.61443368592829L73.04220703125,93.04711850549826L73.24576171874999,94.06392099813914L73.27968750000001,91.10053619317324L73.686796875,90.4674411561085L73.85642578125,92.19259553349808L74.4331640625,93.2800655960349L74.46708984374999,93.9769095812822L74.50101562500001,95.71641975524534L74.73849609375,94.80862413500253L75.24738281249999,95.42022394774891L75.3830859375,98.46536742804568L75.48486328125,100.63837024357457L75.5187890625,102.04311338291656L75.55271484375,99.66980285150132L75.6544921875,100.34557299411686L76.0616015625,100.91322682644264L76.09552734374999,102.92590935800341L76.26515625,103.32797524976388L76.29908203125001,103.13112111883288L76.36693359374999,104.0656497766391L76.6044140625,106.66785038475089L76.70619140625,103.54130189020603L76.8758203125,104.42199416998693L77.11330078125,103.99188856020108L77.18115234375,103.6007322848991L77.21507812499999,104.86446611814465L77.65611328125,104.09599966789774L77.85966796875,105.93878738494843L78.029296875,106.03138755035677L78.13107421875,105.05614359603194L78.40248046875,106.68763660578782L78.5042578125,106.27178561468898L78.53818359374999,105.58626354379443L78.7756640625,104.49788767453657L78.87744140625,104.17101692103488L78.94529296875,105.6885130806438L79.35240234375,105.56779688006007L79.4541796875,105.49913582894423L79.55595703125,106.29041938880349L79.75951171875,105.09411918866529L79.89521484375,104.71979673925773L80.1326953125,105.14627856654499L80.33624999999999,105.33967134991994L80.4041015625,104.21686300296413L80.64158203125,103.87335110641482L80.64158203125,103.66724396848525L80.6755078125,104.01326657699023L81.2183203125,101.85075463891741L81.25224609375,101.83003728140821L81.25224609375,101.81760686690268L81.55757812499999,102.43500339893298L81.82898437499999,103.5360331805101L81.8968359375,103.964366765777L82.643203125,104.10653085452898L82.77890624999999,102.92236485327004L82.94853515624999,103.87448199239205L83.0503125,103.66678954388298L83.1181640625,104.68470032780064L83.38957031250001,102.59524475550037L83.42349609375,103.74689393052688L83.457421875,102.10487932432564L84.23771484375,102.25691125502675L84.37341796875,102.80891853448047L84.78052734375001,103.56419240775152L84.91623046875,104.45846297767064L84.98408203125,104.28650137104869L85.05193359375001,102.78181755968401L85.085859375,102.7264443694179L85.25548828125,102.60890354739375L85.32333984375,102.91226166266749L85.45904296875,104.93317748598388L85.49296875,105.60096113130727L85.90007812500001,103.11194294216402L85.96792968749999,102.74947197922369L86.00185546875001,103.6923414599612L86.47681640625,101.61234664120894L86.88392578125,101.33617648542761L87.12140625,100.26791344159845L87.257109375,98.63081389701436L87.35888671875,99.43490338736085L87.42673828125,97.14457518030027L87.528515625,98.66530743805527L87.79992187500001,96.74549764633949L88.10525390625,96.78898889950877L88.13917968749999,98.55057467718932L88.24095703125,98.77224300552581L88.30880859375,98.14327325795595L88.71591796875,97.71327372064727L88.74984375,98.23924906032605L88.885546875,101.39736481125713L88.91947265625,101.13666616440815L88.9533984375,101.89394669966501L88.98732421875,99.10807916480927L88.98732421875,97.43655864389582L89.428359375,100.06802374839889L89.5640625,98.93399799771173L89.97117187500001,98.98640263534325L90.106875,99.91822996179967L90.34435546875,99.14941690959293L90.37828125,100.27994901116017L90.6496875,101.1091186798797L91.15857421874999,100.91224788551314L91.19250000000001,103.2438381400443L91.36212890625,101.93172470562578L91.63353515625,100.0400551920939L91.7353125,98.85882604497854L92.10849609374999,101.13875867506938L92.14242187500001,101.08797681023988L92.24419921875,101.95723036268541L92.41382812500001,100.87046050085141L92.44775390625,102.02476885615562L92.58345703125,101.16609894991846L92.68523437500001,101.27750421810374L92.78701171875,101.04631159428692L92.8887890625,101.68541872953568L92.956640625,100.41033172274415L93.228046875,100.34475395024356L93.4316015625,102.61554970821729L93.49945312499999,100.46939610579206L93.60123046875,98.38251759107565L93.87263671875,99.80597369312305L93.90656249999999,99.9355795794984L94.00833984375,99.08664854535355L94.07619140625,98.69416106866139L94.34759765625,96.74885161602631L94.6529296875,95.01624778837443L94.9921875,95.93474470087179L95.29751953125,97.34046397065096L95.33144531250001,99.17430416273227L95.36537109375,96.7937287588463L95.39929687499999,94.94093949941075L95.4671484375,96.06239325400058L95.7385546875,98.27025626300956L95.942109375,97.38736064888052L96.17958984375,97.2341910657208L96.6884765625,97.55455346504706L96.72240234375,98.12038970628463L97.12951171875,96.12699568905052L97.19736328125,97.96522558396957L97.2312890625,99.13626808482285L97.33306640625001,100.88663545169491L97.3669921875,98.68864221412277L97.40091796875,96.67320069734919L97.57054687499999,98.378139356992L97.67232421875,100.56260169997759L97.9098046875,97.23025034399133L98.0455078125,97.71894557937597L98.2490625,96.57554600846042L98.28298828125,98.00574594443964L98.35083984375,95.7631249863097L98.55439453125,96.5338015116334L98.62224609375001,94.06474806286377L98.69009765624999,95.94442249363154L98.72402343750001,95.79161214748481L98.89365234375,97.44965075819037L98.96150390624999,96.39520820921665L99.470390625,95.10797194218574L99.5382421875,95.8347125866734L99.67394531250001,96.19406926528285L100.4203125,95.12319385467207L100.556015625,94.88069635960733L100.65779296875,97.91584163630968L100.72564453125,98.10694167176861L100.92919921875,98.39435513532976L101.0309765625,100.45398788676586L101.13275390625,100.63587802957882L101.5059375,99.17862834428914L101.67556640625,100.65562193099426L101.77734375,98.15774625484076L101.913046875,99.40733702083119L101.94697265625,98.9893740289888L102.15052734375,96.68881703730314L102.32015625,97.15612004281282L102.38800781249999,101.1050705147987L102.55763671875,102.4506488246146L103.3379296875,102.92174571973953L103.43970703125,102.54941385471548L103.43970703125,102.32601473570102L103.60933593749999,103.18538940822059L104.86458984375001,103.04226025123549L105.03421875000001,103.0802377160141L105.06814453125,103.27544081235423L105.10207031249999,101.82488106371328L105.13599609375001,101.15580157331776L105.169921875,102.10559610055842L105.20384765625,99.74399460959278L105.61095703125,103.6862862876939L105.712734375,103.50677317730741L105.74666015625,105.16503780470585L105.88236328125,104.06150733471027L106.08591796875,102.33372245330679L106.22162109374999,103.47967160072035L106.28947265625,103.63144938411642L106.28947265625,103.7225160541541L106.56087890625,105.65877723151881L106.83228515625,105.45416522032019L106.93406250000001,105.50742784270244L107.00191406249999,106.65918659367156L107.1376171875,105.37420608291654L107.17154296874999,104.2107085202844L107.341171875,101.92807535852756L107.4090234375,101.7889000147875L107.51080078125,101.96450259549859L107.57865234375,102.28668746207057L108.0196875,102.67890874420445L108.18931640625,104.56202853992487L108.42679687500001,103.56596348180483L108.5625,101.17319187510145L108.66427734375,100.49156425149454L108.73212890625,104.20632208362946L108.73212890625,106.4351767829104L109.07138671874999,104.59766371186835L109.10531250000001,105.38910059298169L109.20708984375,104.37047679075654L109.7159765625,102.50433329895404L109.81775390625,102.84326352267459L110.08916015625,101.64238959057525L110.1230859375,101.93308398195808L110.3944921875,102.35579232304019L110.42841796875,102.50563759864767L110.73374999999999,103.77813197099674L110.76767578125,103.07104675078496L110.8016015625,104.13505723182489L110.97123046875,105.7745916592162L111.14085937499999,104.99083706516346L111.58189453125,104.16776385042726L111.6158203125,100.6347873221771L111.819375,97.94332490280885L111.85330078125,102.05694716919832L111.8872265625,102.21057111997196L111.92115234375,103.57459598365534L112.12470703125001,104.11674153738419L112.4300390625,102.6547139310332L112.769296875,102.1870292312498L112.905,103.72158146019184L113.040703125,103.84318768517086L113.1085546875,104.40802164070189L113.21033203125,104.8969715795874L113.24425781250001,105.49929704675334L113.24425781250001,105.8606923270529L113.41388671874999,105.77350152642198L113.854921875,103.92935205979215L113.95669921875,101.68761672466833L114.22810546875,102.81396045826115L114.397734375,103.10390207718157L114.46558593750001,102.67572085535565L114.49951171875,102.40928209993365L114.63521484375,102.78764840964351L114.73699218750001,101.77279982142805L114.77091796875,102.43710965973366L114.940546875,101.77080389592223L115.0083984375,102.51571838630473L115.11017578124999,100.61311615595991L115.1441015625,102.20158116655746L115.24587890625,102.26761907354644L115.34765625,104.02607061466632L115.38158203124999,102.88709297362932L115.41550781250001,105.61569463453736L116.026171875,104.81449601599968L116.2297265625,103.51416430436544L116.53505859375001,105.74775828702863L116.568984375,104.21298770659669L116.90824218750001,103.14014906062452L116.94216796875,101.51808049644954L117.28142578125,101.50731037204024L117.68853515625,102.54741481003728L117.7224609375,103.67824100310975L117.95994140625,101.3395377744889L118.09564453125,101.50839265425606L118.23134765625,102.01855437484478L118.29919921875,100.601844308811L118.333125,101.14611989208977L118.333125,101.47268524205704L119.0794921875,103.04174379842094L119.18126953125,103.49279498062498L119.24912109375,105.09428412170391L119.35089843749999,102.53500971044807L119.58837890625,101.11176318397051L119.62230468749999,100.39360042059874L119.62230468749999,99.96270276257567L119.7580078125,100.40320520237424L120.06333984375,103.0888978481081L120.4365234375,104.68756591186312L120.53830078125,104.02690320728453L120.87755859375001,103.89752522146642L120.911484375,103.42289739115269L121.01326171875,102.07814478410222L121.454296875,102.15599303347962L121.5221484375,102.40555060464665L121.75962890625,103.19351870386251L121.82748046875001,101.58177323647077L122.1328125,102.55183607501759L122.268515625,103.89048594614981L122.64169921875,102.14139644904606L122.70955078125,103.0504377122525L122.77740234375001,104.25207493435829L122.811328125,103.60401750568442L123.25236328125,103.62803134143356L123.625546875,103.54284549210966L123.86302734374999,103.58883610075748L124.13443359374999,104.13763742106114L124.3040625,102.41215259618235L124.57546875,100.57966803185148L124.81294921874999,100.47918084473942L124.84687500000001,100.90626932579035L125.18613281249999,100.82165099300764L125.5932421875,101.59851037764575L125.62716796875,102.10610727960781L125.8646484375,103.19886610322808L126.16998046875,103.79546163966096L126.23783203125001,105.2693407651673L126.30568359374999,104.98095730229889L126.9502734375,103.94653191934827L127.05205078125,104.50227150192674L127.11990234375,103.35025658604988L127.2216796875,106.25646854089526L127.32345703125,105.46887480579908L127.42523437499999,104.23563152312761L127.45916015625001,102.987937458413L127.4930859375,105.9545151929484L127.9001953125,105.83379474618427L128.0358984375,104.0786516649743L128.34123046874998,103.44257142245095L128.40908203125,103.23199730599516L128.4430078125,102.60899876106868L128.6465625,102.85171152332877L128.68048828125,103.42645399222116L128.782265625,102.42796910205256L128.9858203125,103.15936915445754L129.08759765625,101.62240661097292L129.2572265625,104.21351209317778L129.42685546875,102.89442612160659L129.90181640625,101.04176439062736L129.9357421875,102.59159214368718L130.00359375,101.53544250653276L130.24107421875,102.30465397924834L130.953515625,104.14013873816587L130.98744140625,105.89818144848249L131.29277343750002,105.45083671661233L131.59810546875,105.66382319756225L131.9034375,107.02612866662086L131.93736328125,105.56228346357365L132.039140625,106.50197531415625L132.1069921875,106.63388208689949L132.41232421875,107.73016288959498L132.44625,106.11111458515236L132.71765625,107.39314841638488L132.78550781250001,107.04633738452814L132.88728515625,107.69726945360773L133.36224609375,108.55131612542766L133.396171875,106.54699148252539L133.49794921875,107.76475149459931L133.80328125,106.02698097252555L133.83720703125,101.2810334806978L133.97291015624998,103.21588740068543L134.10861328125,105.27733033248838L134.2782421875,105.74779951606625L134.31216796875,105.51744308276965L134.481796875,104.60915819478429L134.5496484375,106.09194565315316L134.5496484375,106.98161812817449L134.88890625,106.2386836270548L134.9567578125,108.0482653640617L134.99068359375,107.79718381148201L135.05853515625,106.86810918331783L135.2281640625,106.50316803091152L135.53349609375002,104.84947567277514L135.87275390624998,104.76911568875298L135.94060546875,104.79482685620862L136.11023437499998,105.98534111189015L136.21201171874998,106.73047266879976L136.21201171874998,107.17755160294554L136.27986328125002,107.92515602440932L136.34771484375,107.88897477472437L136.7208984375,105.94775323583784L137.02623046875,104.65417422221894L137.09408203125003,104.64606276066844L137.16193359375,102.65737310959611L137.43333984375002,102.15572896680794L137.46726562499998,103.81365670705608L137.63689453125002,103.6816801776922L137.738671875,104.29724372259561L137.77259765624999,104.80158735860458L137.87437500000001,104.62435715161537L137.90830078125,105.03980541543164L137.9422265625,105.64107279104921L138.14578125,107.71267007915105L138.17970703125002,109.02262832474467L138.21363281249998,106.25302401790407L138.6207421875,105.21554855872986L138.7564453125,104.25017797918993L138.824296875,105.02917931270065L139.095703125,106.51189258040532L139.26533203125,107.42542214793804L139.26533203125,107.97353988845768L139.2992578125,108.90902377669951L139.40103515625,106.78620899546111L139.638515625,108.6697357326219L139.7063671875,108.5384746490434L139.8420703125,106.63824478453488L139.94384765625,106.19396101952083L140.14740234375,107.56320990671509L140.5884375,107.17890049952477L140.995546875,106.68236222275851L141.0633984375,108.44206906237788L141.0633984375,109.49789316614952L141.1991015625,105.28657018331644L141.4705078125,104.8063475105111L141.67406250000002,102.6489633882476L141.84369140625,105.66837312988042L141.97939453125,106.94975543649124L142.081171875,105.79230020385162L142.48828125,102.86266938346664L144.35419921874998,111.78117987491677L144.48990234375,114.68407384007469L144.9309375,118.55098988774742L145.30412109375,120.89414135348132L145.43982421875,120.23561646720235L145.71123046875,122.65120802629272L145.74515625,122.45094813072814L145.880859375,123.89672490176787L146.2201171875,124.53408426490432L146.55937500000002,124.884735889686L146.59330078124998,124.27970461314838L146.6272265625,122.65822708458921L146.8986328125,124.14128809076944L147.5771484375,124.5660426459356L148.39136718749998,125.28097451916864L148.59492187499998,127.03520973356153L148.62884765625,128.46914254413497L148.730625,128.4196112184578L149.0698828125,128.1362115197939L149.37521484374997,127.1732236726263L149.4769921875,127.83924373615027L149.81625000000003,128.45080690971542L149.98587890625,128.79038780834028L151.20720703125,128.19541872248996L151.5125390625,127.45359961211088L151.580390625,128.7454583532816L151.71609375000003,128.99636230686374L151.9196484375,128.23862006225295L152.02142578125,127.79513704267507L152.25890625000002,127.80413064230981L152.5303125,128.79100250850985L152.63208984374998,128.76912108176387L152.90349609375,129.16174128799946L153.03919921875,128.34494903702293L153.17490234374998,129.07136007318482L153.9551953125,129.5257438366786L154.0908984375,130.02953484393873L154.32837890625,128.58256866835603L154.46408203125,128.80085155033152L154.83726562500001,130.75827738123152L155.244375,130.91906920496334L155.7871875,130.91948563125456L156.63533203125,130.61006511374927L157.14421875,130.74680832373787L157.6191796875,131.42036101857684L157.8905859375,130.65866305178818L158.1619921875,131.31743299422925L158.365546875,131.3908329414407L158.39947265625,131.7770916304321L158.97621093749999,131.1540113784835L159.28154296875002,131.66557673265828L159.75650390624997,131.10035284530545L159.85828125,130.06134954875895L160.6046484375,131.94363917262237L161.18138671875002,131.62750217540093L161.58849609375,132.29917052935048L161.6902734375,131.14163391889258L161.893828125,131.88571074923962L162.5044921875,132.99791346646583L162.57234375,133.20429976212657L163.1830078125,131.5676518813018L163.31871093750001,131.31062792091532L163.42048828125002,131.99204410715032L164.03115234375,131.7971376973246L164.16685546875001,132.39582174150937L164.4043359375,133.61347731186476L164.84537109375,133.0859793366917L165.04892578125,133.02669104912533L165.52388671875,133.97876321231226L165.93099609375,133.8371721462142L166.4398828125,134.4698080489103L166.7112890625,134.04065142732122L166.74521484375,134.95705081251228L167.49158203125,133.85682278344544L167.62728515625,134.7732380776608L168.10224609375,133.43882447725642L168.50935546875,134.44322519976808L168.54328125,133.51624169755164L168.78076171875,131.461008055917L169.25572265625,133.29273812579723L169.45927734375002,133.89555254536148L169.69675781249998,131.2421167872783L169.764609375,133.38967107128593L170.06994140625,133.0683076401293L170.13779296874998,133.11203246134954L170.17171875,133.29551978872283L170.81630859375,133.53353966230787L170.9180859375,133.78455302445084L171.22341796875,132.8350517498011L171.664453125,134.01769267310445L172.13941406249998,134.5726022088889L172.47867187499997,133.38548169312725L173.021484375,134.17476144443413L173.39466796874999,133.63725304738128L174.00533203125,133.84200132296746L174.34458984375001,132.49198368897464L174.37851562499998,133.25272912472286L174.5820703125,133.23944179768904L174.81955078124997,134.4569146216122L174.95525390625,134.94672815438562L174.9891796875,135.30646964693852L175.02310546875,134.50699383090807L175.76947265625,133.66285093901496L175.80339843750002,134.68870493686958L175.93910156249999,134.44593883758057L176.006953125,135.30454061193012L176.31228515625,133.61809810672514L176.44798828125,135.03323674719786L177.4318359375,135.53018843302132L177.46576171875,136.17045686113903L177.77109375,135.9208761441377L177.87287109375,134.985127581014L178.1103515625,134.1576993122322L178.449609375,134.05214933386307L178.48353515625,135.17250123446783L178.51746093749998,136.21795607611273L178.55138671875,135.9976222944314L178.721015625,136.7303104159488L178.9245703125,135.35243249794036L179.06027343749997,134.9405961877301L179.128125,135.01568382299695L179.6709375,135.46821493230604L179.87449218749998,134.8907124825512L179.90841796875,134.47856550547192L180.17982421874999,134.46585283602735L180.8244140625,134.65845580849242L181.40115234375003,135.9040907485932L182.28322265625002,135.8187972001175L183.063515625,136.01131500081857L183.50455078125,136.50347296192356L183.606328125,136.13804582612389L184.65802734374998,136.01640396636026L184.691953125,135.7567702069782L185.234765625,135.4413997640734L185.26869140625,134.80009559208344L185.60794921875,135.27056664097614L185.7097265625,133.3359525585148L185.777578125,134.52052119032464L186.15076171875,135.67267481974233L186.35431640625,136.29287340770463L186.45609375,135.80799423231073L186.591796875,135.19763903360473L187.2024609375,136.18459074602322L187.23638671875,136.44515774525019L187.37208984375,136.8420786004725L187.4738671875,135.44744515728232L187.54171874999997,134.67776389166812L188.0166796875,136.17950953221546L188.1523828125,134.6549766232933L188.52556640625002,135.64875749774177L188.62734375,136.47961567172348L189.305859375,135.87538380456746L189.577265625,134.9870287644561L189.9165234375,135.53399268350387L189.95044921875,136.2385615750253L190.32363281250002,135.52890495548246L191.10392578125,136.6612496130749L191.2735546875,136.67283703106108L191.85029296875,136.0720756687354L193.34302734374998,135.86511439383813L193.376953125,135.84681309134857L193.51265625,135.90226747105675L193.648359375,135.44113662598707L194.2590234375,136.4688604926764L194.462578125,136.74912400673895L194.49650390624998,136.69956786006995L195.92138671875,136.47873732113896L196.19279296875,136.9173413669949L196.46419921875003,135.77205376290715L196.498125,135.47412996889133L197.07486328125,135.9602949603043L197.5158984375,136.91997408901835L197.6516015625,136.7233663082047L198.02478515625,136.93039165343427L198.43189453125,135.1599572779157L198.533671875,136.85197085480485L198.6015234375,135.85340531691062L198.73722656249998,133.84836099201513L199.0086328125,135.88729324155327L201.04417968750002,136.6668370254529L201.24773437500002,137.44362008261297L201.28166015624998,137.5072296073874L201.34951171875,136.72085171358907L201.8583984375,137.21983770521422L202.09587890625,137.15824731757408L202.876171875,136.9855556296952L203.011875,136.60081850199288L203.38505859375002,136.5858938851914L203.48683593750002,136.8827913553725L204.06357421874998,136.73043050042634L204.26712890625,136.05322264104856L204.7081640625,136.41527776311037L205.38667968750002,137.5543885719523L205.69201171875,137.23100442979953L206.23482421875,136.4504836277257L206.30267578125,137.24877200122802L206.6080078125,137.54618938496304L206.91333984375,137.6416172096798L207.18474609375,137.69144314871784L207.86326171874998,136.7984499132428L207.93111328125,136.64832957087674L208.032890625,137.30363595486992L208.1007421875,137.84538072648516L208.30429687499998,136.82849221442157L208.71140625,136.58512953020087L208.74533203124997,136.17853022972994L208.9828125,136.028280376524L209.08458984375,135.67479587955714L209.25421875,136.0702658923068L209.49169921875,136.7755907092658L209.55955078124998,136.85515716094113L211.289765625,137.0366317928558L211.66294921875,137.35030016965518L211.7647265625,137.2632523162198L211.93435546875,137.27309417530338L212.47716796875,137.432745096443L212.61287109375002,136.7127541964337L212.646796875,136.7019325864076L212.7146484375,137.48582377557264L213.05390625,137.7035634336372L213.189609375,138.17902927518512L213.3253125,138.67159913165992L213.63064453125,138.44687331346555L213.6645703125,138.17937772122585L213.83419921875,138.8486094278697L213.96990234375002,137.5537632579294L214.00382812499998,137.74764590739582L214.51271484375002,139.0720618734128L215.5644140625,138.24957371798604L215.9715234375,137.01770960467485L216.20900390625002,136.2913922461391L216.3786328125,137.0655743085357L216.85359375000002,137.47920710016405L217.15892578125,137.31935825682567L217.66781250000003,137.6938248019298L218.04099609374998,138.0820249316538L218.2784765625,138.54361961466654L218.31240234375,138.9397388013925L218.4141796875,138.36659761557874L218.617734375,138.0367388310426L219.9069140625,137.63171398712723L220.00869140625002,137.66963217343672L220.07654296875,137.74314823751868L220.1783203125,137.16594799973285L220.21224609375,138.1158904941008L220.34794921875002,137.43021607490135L221.43357421875,138.54827754608095L221.90853515625003,138.16087505204717L222.82453124999998,136.81740807771212L223.02808593749998,137.465071440364L223.1637890625,137.83789698835466L223.774453125,137.29709538648115L223.94408203125,136.928813656035L224.45296875,137.3136046114285L224.55474609375,137.69324504727356L224.6565234375,137.75054590085395L225.36896484375,137.84356101774347L225.7421484375,137.1832858355069L226.18318359375,138.23622704369583L226.217109375,138.1099133527311L226.5563671875,137.40110824425338L226.65814453125,137.51055517943294L226.79384765625,137.98280563203738L227.3705859375,137.78229646059776L227.4384375,137.99440701640722L227.54021484375,138.27233002451928L228.25265625,138.64580299200173L228.3205078125,139.01991396158454L228.49013671875002,138.89774305799233L228.8633203125,138.19836386187507L229.1347265625,138.14818311123315L229.2704296875,137.3075693450831L229.84716796875,137.79475857086877L230.05072265625,137.46685749960142L230.38998046875003,137.42059864166075L230.45783203125,138.0237691982247L230.66138671875,138.4394209994093L230.83101562500002,138.16324465692998L231.00064453125,138.40976531397212L231.102421875,136.82683922235918L231.61130859375,138.59609362494012L231.645234375,136.940553519413L232.56123046875,137.87227453383744L232.83263671875002,138.28875722870163L233.17189453125002,138.72434802214428L233.545078125,138.61184108848613L234.25751953125,136.90652922021286L234.46107421874999,136.80620263312753L234.8342578125,137.82497962695265L234.86818359375,137.8328783456958L235.95380859375,139.0535710503056L235.987734375,138.07191699876256L236.1912890625,138.18425389129987L237.95542968750001,138.60839590113056L238.02328125,138.36361133998548L238.26076171875,138.00323018095193L238.3625390625,138.403311397631L238.60001953125,138.11311896574315L239.516015625,138.64344433761022L240.22845703125,139.36613612934778L240.56771484375,139.33011024378385L241.11052734375,139.17700348743966L241.17837890625,139.77450617654998L241.24623046874999,140.25768950079913L241.415859375,140.3590753500261L242.501484375,139.67369445208135L242.67111328124997,139.57800657778162L243.044296875,139.0615734735815L243.07822265625,139.32391772717241L243.11214843750003,139.571814738481L243.21392578125,140.1091969600618L243.75673828125,140.45296284942256L244.672734375,140.25579164118955L244.77451171875,139.883997624163L245.45302734375002,139.9024240158865L245.65658203125,140.32527821617953L245.6905078125,140.25078557669698L246.572578125,140.10852915705698L246.81005859375,140.15437563612227L246.87791015625,140.31526850485758L247.0475390625,140.0922999815353L248.16708984375,140.30562095913788L248.26886718749998,138.80927353044285L248.91345703125,139.4065833089811L248.9473828125,139.28270317356248L249.25271484375003,138.97800870795948L249.4901953125,139.71225352269187L249.59197265625,140.0056097348914L249.829453125,139.72863530878413L249.93123046875,139.81664032672398L250.5758203125,138.7689524677924L250.67759765625001,139.22368671023992L251.01685546875,138.9568096572524" style="fill: none;" fill="none"></path></g></g></g></g><g opacity="0.20000000298023224"><g><g><g><path stroke="rgb(255, 112, 67)" stroke-width="2px" d="M34.231113281249996,4.378213796350707L34.332890625,11.79488418706589L34.604296875,16.388091141564985L34.638222656249994,9.301037983761887L34.6721484375,6.1430933759030495L34.875703125,13.909990909405877L35.113183593749994,1.8589761840800634L35.18103515625,19.89457876814737L35.52029296875,14.015501870877245L35.65599609375,12.936932290179868L35.72384765625,13.559257351689865L36.063105468749995,15.27052761138313L36.538066406249996,16.72092352041767L36.60591796875,24.473064358449676L36.74162109375,20.33136753241223L37.01302734375,12.531694353661635L37.046953125,11.755713581211069L37.7933203125,15.138270875439048L37.89509765625,22.917699234146227L38.132578125,16.9184606737561L38.23435546875,17.490650657357435L38.3361328125,16.535846529735466L38.43791015625,19.410069229702174L38.5396875,19.415050939346372L38.878945312499994,19.549121347359517L39.1503515625,12.689825359318007L39.184277343750004,17.159891046583652L39.31998046875,21.49195277732281L39.659238281250005,21.428191604713618L39.794941406250004,21.51588382696113L40.06634765625,18.50196126931243L40.13419921875,25.764092667235275L41.0501953125,26.933852266313295L41.08412109375,20.7647409401834L41.355527343750005,29.975380326103846L41.42337890625,20.492054166893183L41.4573046875,29.021836347257107L41.7287109375,29.039914182490804L41.76263671875,23.26161385596626L41.7965625,25.21206506403786L41.966191406250005,26.488077581342736L42.2715234375,26.95934966910218L42.64470703124999,23.841753376233925L42.91611328125,24.92450382436317L43.017890625,34.69874769428537L43.458925781249995,35.93556605155271L43.6285546875,31.726127396027266L43.73033203125,27.3570973755171L43.86603515625,30.378145073437025L43.86603515625,30.378145073437025L44.4427734375,25.368464837264696L44.47669921875,31.96963053693375L44.68025390625,30.9209158828275L44.78203125,33.248245791428616L44.81595703125,34.0655994858179L44.8498828125,32.28023954439496L44.88380859375,30.814015224575996L44.917734375,30.597622947974344L45.121289062500004,31.399266002492766L45.29091796875,33.27812427220246L46.03728515625,34.74518476550779L46.105136718749996,33.862185563892126L46.17298828125,27.586962644631683L46.30869140625,34.3259791986396L46.44439453125,33.335902682402065L46.681875,35.35589761493935L46.749726562499994,42.74788322216938L46.88542968749999,35.15180062171487L46.953281249999996,36.15311248310738L46.98720703125,39.41298781666492L47.0211328125,36.06481962920063L47.1568359375,38.32666890985439L47.224687499999995,33.17145915577811L47.25861328125,32.01831703260541L47.360390624999994,33.36652311993143L47.39431640625,39.1251321497063L47.46216796875,36.661529517008205L47.53001953125,36.67096296718552L47.631796875,44.59204618074L47.631796875,44.59204618074L48.03890625,34.29998715801372L48.1067578125,38.751362601295114L48.649570312499996,42.691824267307936L48.785273437499995,42.37706972368889L48.887050781250004,38.57606059643959L49.12453125,38.641812097488184L49.1923828125,38.96969809797076L49.29416015625,41.15406589458388L49.3280859375,48.33285081697008L49.42986328125,39.88289376182689L49.4637890625,46.9647649994327L49.701269531250006,46.60945015317864L49.7351953125,42.98548604030577L49.90482421875,41.24865949236684L49.93875,40.936601902668684L50.10837890625,42.45317328804069L50.176230468750006,47.069086474676936L50.24408203125,46.12967500545912L50.37978515625,51.3068843661911L50.4137109375,44.604612337218384L50.51548828125,46.73492328450084L50.51548828125,46.73492328450084L50.617265625,45.03146123637757L50.92259765625,48.09162065469556L50.9565234375,51.59485780406331L51.12615234374999,45.858425037314504L51.6350390625,51.25849229780337L51.83859375,50.07967611547147L51.940371093749995,46.32469186124703L52.00822265625,49.46533592190181L52.0421484375,56.69068746351533L52.11,49.56439303730926L52.21177734375,52.89191598362393L52.27962890625,47.570802343595375L52.4492578125,54.764414624000594L52.551035156249995,51.60203005269997L52.6528125,49.744888739453415L52.82244140625,56.627621139296224L53.5348828125,60.12236700579524L53.602734375000004,61.73468614390329L53.602734375000004,61.73468614390329L53.636660156249995,60.452490653635735L53.941992187500006,60.490100794885734L54.145546875,63.00304355182581L54.38302734375,63.9955108176089L54.824062500000004,71.22157487324958L55.027617187500006,66.21732387619302L55.19724609375,71.4368659918093L55.26509765625,72.1958759756138L55.2990234375,68.06243489061794L55.63828125,69.39503633189534L55.74005859375,75.47566637065677L55.87576171875,69.536208325997L55.9775390625,70.83646987440686L56.2489453125,71.84080255973257L56.28287109375,70.11303848359321L56.48642578125,78.04194168580905L56.5203515625,76.66900370663241L56.588203125,85.7352500639649L56.588203125,85.7352500639649L57.402421875,85.92079224975573L57.4702734375,82.14198293971519L57.50419921875,74.39216807722633L57.538125,77.6944762709447L57.91130859375,85.09237397803615L58.11486328125,81.11091036846241L58.1487890625,78.39377051302128L58.2844921875,81.39326613375711L58.352343749999996,84.00560754175402L58.759453125,83.0380311585549L58.793378906250005,86.73566686641425L58.9630078125,79.47218110298532L59.0987109375,82.70675924430705L59.1665625,79.0334726728292L59.20048828125,80.8883586730808L59.74330078125,85.43445726215012L59.811152343749995,82.23569325564638L60.2521875,88.75685717372433L60.52359375,86.19902603307533L60.52359375,86.19902603307533L60.795,83.34126770682633L60.862851562500005,83.16845066824722L61.1342578125,81.92384765359263L61.1342578125,81.92384765359263L61.507441406249995,83.37544482594565L61.609218750000004,82.90368987744054L61.6770703125,81.9292827812541L61.744921875,81.46284518949687L61.8127734375,88.19585542691252L61.880625,80.14839813454698L62.084179687500004,84.40961477222542L62.2198828125,81.85390350802079L62.32166015625,86.48815951444624L62.45736328125,86.32739632887146L62.593066406249996,83.82010068723726L62.66091796875,80.11098820385007L62.694843750000004,84.31696439451642L62.72876953125,85.28614835068583L62.79662109375,85.80763206744776L62.898398437500006,82.63769249204134L63.068027343749996,88.14263475106823L63.23765625,83.45491663842566L63.305507812500004,86.60638384603791L63.33943359375,88.11019475292414L63.37335937500001,85.82083418685943L63.47513671875,82.54401161883854L63.509062500000006,90.69705642376923L63.54298828125,86.97534834117525L63.88224609375,88.96687215535592L64.01794921875,87.02667290531099L64.11972656249999,87.57192868097789L64.2554296875,83.64031161057453L64.2554296875,83.64031161057453L64.42505859375,83.93487433106122L64.5268359375,86.79584780325078L64.90001953125,85.84845735463833L64.96787109375,84.60193467409246L65.1375,82.99251270045838L65.2053515625,84.67244412004948L65.34105468749999,87.48718662011541L65.57853515625,91.1998145652728L65.6124609375,90.27313413181238L65.71423828125,83.52716909390358L65.7481640625,88.85582007240092L66.32490234375,84.72608877118265L66.4266796875,77.68600265371303L66.73201171875,82.57994941311578L66.901640625,82.30880543879337L66.93556640625,85.262941592166L66.9694921875,87.12087785907917L67.27482421875,85.4437611643225L67.5123046875,84.59338450576698L67.54623046875,84.4014591364604L67.8515625,87.46570520547944L67.9194140625,85.64949517324567L68.05511718749999,84.5393865418931L68.36044921875,86.88018944300711L68.46222656249999,82.67095099803475L68.8693359375,85.49333094184598L69.072890625,85.73864775482153L69.1407421875,82.17417561894077L69.1407421875,82.17417561894077L69.17466796875,81.44913665515682L69.20859375,86.11205810194629L69.27644531249999,90.10817241316869L69.344296875,87.91007252803281L69.48,87.3099119524575L69.71748046875001,86.02115662230388L70.29421875,87.31641290688681L70.3620703125,87.57473162872097L70.4977734375,92.78006468361451L70.6334765625,91.4665892387016L70.83703125000001,91.30808136612178L71.00666015624999,86.88402877478964L71.0405859375,89.73283651160698L71.07451171875,93.7627334093882L71.17628906249999,89.37040830217303L71.21021484375001,92.01841663134596L71.34591796875,83.9801808015133L71.41376953125,91.62515010819254L71.75302734375,91.76006257823772L71.85480468749999,91.46470490408441L71.85480468749999,91.46470490408441L71.88873046875001,88.43455351454517L71.95658203125,89.86073572374882L72.02443359375,91.83508265018465L72.02443359375,91.83508265018465L72.16013671875,91.6029149597097L72.1940625,94.52842100399236L72.29583984374999,90.5702348154866L72.601171875,92.9535294622183L72.77080078125,97.41732973688178L72.872578125,90.90932671839579L72.97435546874999,92.1001496453666L73.04220703125,93.69614573485322L73.24576171874999,95.58912473710048L73.27968750000001,86.65545898572438L73.686796875,89.51779860051143L73.85642578125,94.7803270995824L74.4331640625,94.91127068984012L74.46708984374999,95.02217555915317L74.50101562500001,98.32568501619002L74.73849609375,93.44693070463838L75.24738281249999,96.33762366686844L75.3830859375,103.03308264849088L75.48486328125,103.89787446686792L75.5187890625,104.15022809192953L75.55271484375,96.10983705437846L75.6544921875,101.35922820804021L76.0616015625,101.7647075749313L76.09552734374999,105.9449331553446L76.26515625,103.93107408740454L76.29908203125001,102.8358399224364L76.36693359374999,105.46744276334843L76.6044140625,110.5711512969186L76.70619140625,98.85147914838873L76.8758203125,105.74303258965827L77.11330078125,103.34673014552229L77.18115234375,103.01399787194615L77.21507812499999,106.76006686801298L77.65611328125,102.94329999252741L77.85966796875,108.70296896052443L78.029296875,106.17028779846927L78.13107421875,103.59327766454469L78.40248046875,109.13487612042164L78.5042578125,105.64800912804074L78.53818359374999,104.5579804374526L78.7756640625,102.86532387064977L78.87744140625,103.68071079078234L78.94529296875,107.9647573200572L79.35240234375,105.38672257918452L79.4541796875,105.39614425227047L79.55595703125,107.47734472859239L79.75951171875,103.29966888845794L79.89521484375,104.15831306514642L80.1326953125,105.78600130747591L80.33624999999999,105.62976052498239L80.4041015625,102.5326504825304L80.64158203125,103.35808326159088L80.64158203125,103.35808326159088L80.6755078125,104.5323004897477L81.2183203125,98.60698673180823L81.25224609375,101.79896124514441L81.25224609375,101.79896124514441L81.55757812499999,103.36109819697838L81.82898437499999,105.18757785287582L81.8968359375,104.60686714367735L82.643203125,104.31977698765697L82.77890624999999,101.1461158513816L82.94853515624999,105.30265770107509L83.0503125,103.35525087111941L83.1181640625,106.21156650367712L83.38957031250001,99.46106139705L83.42349609375,105.47436769306661L83.457421875,99.6418574150238L84.23771484375,102.48495915107844L84.37341796875,103.63692945366105L84.78052734375001,104.69710321765808L84.91623046875,105.7998688325493L84.98408203125,104.02855896111579L85.05193359375001,100.52479184263697L85.085859375,102.64338458401876L85.25548828125,102.43259231435756L85.32333984375,103.36729883557807L85.45904296875,107.96455122095844L85.49296875,106.60263659929237L85.90007812500001,99.37841565844914L85.96792968749999,102.20576553481321L86.00185546875001,105.10664568106748L86.47681640625,98.49235441308056L86.88392578125,100.92192125175563L87.12140625,98.66551887585472L87.257109375,96.1751645801382L87.35888671875,100.64103762288062L87.42673828125,93.70908286970936L87.528515625,100.94640582468776L87.79992187500001,93.86578295876583L88.10525390625,96.85422577926269L88.13917968749999,101.19295334371014L88.24095703125,99.10474549803055L88.30880859375,97.19981863660118L88.71591796875,97.06827441468423L88.74984375,99.02821206984422L88.885546875,106.13453843765376L88.91947265625,100.7456181941347L88.9533984375,103.02986750255029L88.98732421875,94.92927786252565L88.98732421875,94.92927786252565L89.428359375,104.01522140515348L89.5640625,97.23295937168102L89.97117187500001,99.06500959179054L90.106875,101.31597095148432L90.34435546875,97.99619733128284L90.37828125,101.97574716351099L90.6496875,102.35287318295903L91.15857421874999,100.61694169396328L91.19250000000001,106.74122352184108L91.36212890625,99.96355455399802L91.63353515625,97.2025509217961L91.7353125,97.08698232430552L92.10849609374999,104.55865762020565L92.14242187500001,101.01180401299564L92.24419921875,103.2611106913537L92.41382812500001,99.24030570810041L92.44775390625,103.75623138911195L92.58345703125,99.87809409056274L92.68523437500001,101.44461212038166L92.78701171875,100.69952265856168L92.8887890625,102.64407943240886L92.956640625,98.49770121255683L93.228046875,100.2463872914927L93.4316015625,106.02174334517784L93.49945312499999,97.25016570215425L93.60123046875,95.25219981900106L93.87263671875,101.94115784619419L93.90656249999999,100.12998840906141L94.00833984375,97.81325199413632L94.07619140625,98.10542985362312L94.34759765625,93.83088743707373L94.6529296875,92.41734204689662L94.9921875,97.31249006961784L95.29751953125,99.44904287531973L95.33144531250001,101.92506445085424L95.36537109375,93.22286565301734L95.39929687499999,92.1617556102574L95.4671484375,97.74457388588539L95.7385546875,101.58205077652303L95.942109375,96.06301722768696L96.17958984375,97.0044366909812L96.6884765625,98.03509706403648L96.72240234375,98.96914406814096L97.12951171875,93.13690466319936L97.19736328125,100.7225704263482L97.2312890625,100.89283183610274L97.33306640625001,103.512186502003L97.3669921875,95.39165235776456L97.40091796875,93.65003842218883L97.57054687499999,100.93554734645619L97.67232421875,103.839295214456L97.9098046875,92.23172331001197L98.0455078125,98.45198843245291L98.2490625,94.86044665208708L98.28298828125,100.15104584840851L98.35083984375,92.39919354911481L98.55439453125,97.68981629961895L98.62224609375001,90.36116788970928L98.69009765624999,98.76393413978319L98.72402343750001,95.56239662826476L98.89365234375,99.93670867424873L98.96150390624999,94.81354438575606L99.470390625,93.17711754163935L99.5382421875,96.92482355340488L99.67394531250001,96.73310428319706L100.4203125,93.5168807387559L100.556015625,94.51695011701023L100.65779296875,102.4685595513632L100.72564453125,98.39359172495703L100.92919921875,98.82547533067151L101.0309765625,103.54343701392L101.13275390625,100.90871324379825L101.5059375,96.99275381635462L101.67556640625,102.87111231105196L101.77734375,94.41093274061052L101.913046875,101.28172316981687L101.94697265625,98.36242954122524L102.15052734375,93.23798154977462L102.32015625,97.85707455107736L102.38800781249999,107.0284962227775L102.55763671875,104.46901628933848L103.3379296875,103.62839106242691L103.43970703125,101.99091605717938L103.43970703125,101.99091605717938L103.60933593749999,104.47445141699993L104.86458984375001,102.82756651575781L105.03421875000001,103.13720391318203L105.06814453125,103.56824545686445L105.10207031249999,99.64904144075183L105.13599609375001,100.1521823377245L105.169921875,103.5302878914194L105.20384765625,96.20159237314431L105.61095703125,109.59972380484558L105.712734375,103.23750351172768L105.74666015625,107.65243474580349L105.88236328125,102.40621162971689L106.08591796875,99.74204513120155L106.22162109374999,105.19859532184071L106.28947265625,103.85911605921058L106.28947265625,103.85911605921058L106.56087890625,108.56316899756591L106.83228515625,105.14724720352226L106.93406250000001,105.58732177627584L107.00191406249999,108.38682472012525L107.1376171875,103.44673531678401L107.17154296874999,102.46546217633619L107.341171875,98.50412561589232L107.4090234375,101.58013699917744L107.51080078125,102.2279064665652L107.57865234375,102.76996476192855L108.0196875,103.26724066740523L108.18931640625,107.3867082335055L108.42679687500001,102.07186589462476L108.5625,97.5840344650464L108.66427734375,99.46912281608417L108.73212890625,109.77845883183183L108.73212890625,109.77845883183183L109.07138671874999,101.84139410530528L109.10531250000001,106.57625591465168L109.20708984375,102.84254108741881L109.7159765625,99.70511806125029L109.81775390625,103.35165885825538L110.08916015625,99.8410786924263L110.1230859375,102.3691255690323L110.3944921875,102.98985483466338L110.42841796875,102.73040551205891L110.73374999999999,105.68687352952031L110.76767578125,102.0104189204673L110.8016015625,105.7310729533848L110.97123046875,108.23389330030315L111.14085937499999,103.81520517408435L111.58189453125,102.93315402832297L111.6158203125,95.3353225298019L111.819375,93.90613127375643L111.85330078125,108.2273805687825L111.8872265625,102.44100704613246L111.92115234375,105.62063327918037L112.12470703125001,104.92995986797743L112.4300390625,100.46167252150676L112.769296875,101.48550218157472L112.905,106.02340980360492L113.040703125,104.02559702263939L113.1085546875,105.25527257399841L113.21033203125,105.63039648791569L113.24425781250001,106.40278524750224L113.24425781250001,106.40278524750224L113.41388671874999,105.64271532547556L113.854921875,101.16312785984742L113.95669921875,98.32501372198264L114.22810546875,104.50347605865036L114.397734375,103.5388145055622L114.46558593750001,102.0334490226168L114.49951171875,102.00962396680067L114.63521484375,103.3551978742083L114.73699218750001,100.25052693910484L114.77091796875,103.43357441719209L114.940546875,100.77134525020503L115.0083984375,103.63309012187852L115.11017578124999,97.75921281044268L115.1441015625,104.58427868245377L115.24587890625,102.36667593402996L115.34765625,106.66374792634613L115.38158203124999,101.1786265120738L115.41550781250001,109.70859712589947L116.026171875,103.61269808819311L116.2297265625,101.56366673691406L116.53505859375001,109.09814926102345L116.568984375,101.91083183594876L116.90824218750001,101.53089109166629L116.94216796875,99.08497765018708L117.28142578125,101.49115518542628L117.68853515625,104.10757146703287L117.7224609375,105.37448029271846L117.95994140625,97.83148293155764L118.09564453125,101.76167497390675L118.23134765625,102.78379695572787L118.29919921875,98.47677920976034L118.333125,101.96253326700794L118.333125,101.96253326700794L119.0794921875,105.3953316329668L119.18126953125,104.16937175393106L119.24912109375,107.4965178333223L119.35089843749999,98.69609809356432L119.58837890625,98.97689339425416L119.62230468749999,99.3163562755411L119.62230468749999,99.3163562755411L119.7580078125,101.06395886207207L120.06333984375,107.11743681670892L120.4365234375,107.08556800749568L120.53830078125,103.03590915041666L120.87755859375001,103.70345824273925L120.911484375,102.71095564568209L121.01326171875,100.06101587352654L121.454296875,102.2727654075457L121.5221484375,102.77988696139721L121.75962890625,104.3754708526863L121.82748046875001,99.16415503538317L122.1328125,104.00693033283784L122.268515625,105.89846075284814L122.64169921875,99.5177622033904L122.70955078125,104.41399960706218L122.77740234375001,106.05453076751697L122.811328125,102.63193136267365L123.25236328125,103.66405209505724L123.625546875,103.41506671812387L123.86302734374999,103.65782201372915L124.13443359374999,104.96083940151667L124.3040625,99.82392535886417L124.57546875,97.8309411853552L124.81294921874999,100.32845006407135L124.84687500000001,101.54690204736673L125.18613281249999,100.69472349383352L125.5932421875,102.76379945460295L125.62716796875,102.86750263255091L125.8646484375,104.83800433865852L126.16998046875,104.69035494431026L126.23783203125001,107.48015945342681L126.30568359374999,104.54838210799628L126.9502734375,102.3948938449224L127.05205078125,105.33588087579443L127.11990234375,101.62223421223463L127.2216796875,110.6157864731633L127.32345703125,104.28748420315485L127.42523437499999,102.38576659912037L127.45916015625001,101.11639636134109L127.4930859375,110.40438179475152L127.9001953125,105.65271407603805L128.0358984375,101.44593704315938L128.34123046874998,102.48845105866592L128.40908203125,102.91613613131146L128.4430078125,101.67450094367896L128.6465625,103.21578066671889L128.68048828125,104.28856769555973L128.782265625,100.93024176679967L128.9858203125,104.25646923306502L129.08759765625,99.31696279574601L129.2572265625,108.10017031648508L129.42685546875,100.91579716424977L129.90181640625,98.26277179415857L129.9357421875,104.91633377327688L130.00359375,99.95121805080109L130.24107421875,103.45847118832172L130.953515625,106.8933658765422L130.98744140625,108.53524551395742L131.29277343750002,104.77981961880707L131.59810546875,105.98330291898715L131.9034375,109.06958687020881L131.93736328125,103.3665156590028L132.039140625,107.91151309003018L132.1069921875,106.83174224601439L132.41232421875,109.37458409363819L132.44625,103.68254212848844L132.71765625,109.31619916323366L132.78550781250001,106.52612083674305L132.88728515625,108.67366755722712L133.36224609375,109.83238613315754L133.396171875,103.54050451817199L133.49794921875,109.5913915127102L133.80328125,103.42032518941497L133.83720703125,94.16211224295614L133.97291015624998,106.11816828066691L134.10861328125,108.36949473019277L134.2782421875,106.45350329143307L134.31216796875,105.17190843282475L134.481796875,103.24673086280625L134.5496484375,108.31612684070652L134.5496484375,108.31612684070652L134.88890625,105.12428187537526L134.9567578125,110.76263796957211L134.99068359375,107.42056148261247L135.05853515625,105.47449724107153L135.2281640625,105.95575630230209L135.53349609375002,102.36893713557058L135.87275390624998,104.64857571271973L135.94060546875,104.83339360739208L136.11023437499998,107.77111249541244L136.21201171874998,107.84817000416419L136.21201171874998,107.84817000416419L136.27986328125002,109.046562656605L136.34771484375,107.83470290019696L136.7208984375,103.03592092750802L137.02623046875,102.71380570179059L137.09408203125003,104.63389556834268L137.16193359375,99.67433863298761L137.43333984375002,101.4032627526257L137.46726562499998,106.30054831742828L137.63689453125002,103.4837153836464L137.738671875,105.22058903995074L137.77259765624999,105.55810281261803L137.87437500000001,104.35851184113159L137.90830078125,105.66297781115605L137.9422265625,106.54297385447555L138.14578125,110.82006601130384L138.17970703125002,110.98756569313507L138.21363281249998,102.0986175576432L138.6207421875,103.65933536996859L138.7564453125,102.80212210988006L138.824296875,106.1976813129667L139.095703125,108.73596248196232L139.26533203125,108.79571649923714L139.26533203125,108.79571649923714L139.2992578125,110.31224960906225L139.40103515625,103.60198682360353L139.638515625,111.49502583836309L139.7063671875,108.34158302367561L139.8420703125,103.78789998777212L139.94384765625,105.52753537199979L140.14740234375,109.61708323750646L140.5884375,106.60243638873928L140.995546875,105.93755480760916L141.0633984375,111.08162932180696L141.0633984375,111.08162932180696L141.1991015625,98.96958570906686L141.4705078125,104.08601350130307L141.67406250000002,99.41288720485238L141.84369140625,110.19748774232964L141.97939453125,108.87182889640746L142.081171875,104.05611735489221L142.48828125,98.46822315288915L144.35419921874998,125.15894561209198L144.48990234375,119.03841478781155L144.9309375,124.35136395925656L145.30412109375,124.40886855208211L145.43982421875,119.24782913778391L145.71123046875,126.27459536492825L145.74515625,122.1505582873813L145.880859375,126.06539005832747L146.2201171875,125.49012330960896L146.55937500000002,125.41071332685857L146.59330078124998,123.37215769834197L146.6272265625,120.22601079175043L146.8986328125,126.36587960003979L147.5771484375,125.20317447868487L148.39136718749998,126.35337232901819L148.59492187499998,129.66656255515085L148.62884765625,130.62004175999513L148.730625,128.34531422994203L149.0698828125,127.71111197179805L149.37521484374997,125.72874190187495L149.4769921875,128.8382738314362L149.81625000000003,129.36815167006313L149.98587890625,129.29975915627762L151.20720703125,127.3029650937145L151.5125390625,126.34087094654225L151.580390625,130.68324646503768L151.71609375000003,129.37271823723697L151.9196484375,127.10200669533677L152.02142578125,127.12991251330823L152.25890625000002,127.81762104176192L152.5303125,130.27131030780987L152.63208984374998,128.73629894164495L152.90349609375,129.75067159735286L153.03919921875,127.11976066055811L153.17490234374998,130.16097662742766L153.9551953125,130.2073194819192L154.0908984375,130.78522135482893L154.32837890625,126.41211940498195L154.46408203125,129.1282758732947L154.83726562500001,133.69441612758158L155.244375,131.16025694056103L155.7871875,130.92011027069142L156.63533203125,130.14593433749138L157.14421875,130.9519231387207L157.6191796875,132.43069006083533L157.8905859375,129.5161161016052L158.1619921875,132.3055879078909L158.365546875,131.5009328622578L158.39947265625,132.35647966391923L158.97621093749999,130.2193910005606L159.28154296875002,132.4329247639204L159.75650390624997,130.25251701427624L159.85828125,128.5028446039392L160.6046484375,134.7670736084175L161.18138671875002,131.1532966795688L161.58849609375,133.3066730602748L161.6902734375,129.40532900320574L161.893828125,133.00182599476022L162.5044921875,134.66621754230516L162.57234375,133.51387920561763L163.1830078125,129.11268006006463L163.31871093750001,130.92509198033562L163.42048828125002,133.0141683865028L164.03115234375,131.504778082586L164.16685546875001,133.29384780778653L164.4043359375,135.43996066739783L164.84537109375,132.29473237393216L165.04892578125,132.93775861777573L165.52388671875,135.40687145709268L165.93099609375,133.62478554706712L166.4398828125,135.41876190295443L166.7112890625,133.3969164949376L166.74521484375,136.33164989029885L167.49158203125,132.20648073984518L167.62728515625,136.14786101898386L168.10224609375,131.43720407664983L168.50935546875,135.94982628353563L168.54328125,132.12576644422694L168.78076171875,128.37815759346512L169.25572265625,136.04033323061756L169.45927734375002,134.79977417470784L169.69675781249998,127.26196315015356L169.764609375,136.61100249729742L170.06994140625,132.58626249339432L170.13779296874998,133.17761969317993L170.17171875,133.5707507797827L170.81630859375,133.89056947268546L170.9180859375,134.1610730676653L171.22341796875,131.41079983782643L171.664453125,135.79165405805946L172.13941406249998,135.4049665125656L172.47867187499997,131.60480091948477L173.021484375,135.35868107139441L173.39466796874999,132.830990451802L174.00533203125,134.14912373634678L174.34458984375001,130.4669572379854L174.37851562499998,134.39384727834516L174.5820703125,133.21951080713836L174.81955078124997,136.28312385749695L174.95525390625,135.68144845354578L174.9891796875,135.8460818857679L175.02310546875,133.3077801068624L175.76947265625,132.3966366011753L175.80339843750002,136.2274859336515L175.93910156249999,134.081789688647L176.006953125,136.59244327345448L176.31228515625,131.08843434891767L176.44798828125,137.1559447079069L177.4318359375,136.27561596175656L177.46576171875,137.13085950331555L177.77109375,135.54650506863578L177.87287109375,133.5815047363285L178.1103515625,132.9165569090595L178.449609375,133.8938243663094L178.48353515625,136.85302908537494L178.51746093749998,137.7861383385801L178.55138671875,135.66712162190944L178.721015625,137.82934259822488L178.9245703125,133.28561562092767L179.06027343749997,134.32284172241472L179.128125,135.12831527589717L179.6709375,136.1470115962697L179.87449218749998,134.02445880791896L179.90841796875,133.860345039853L180.17982421874999,134.44678383186044L180.8244140625,134.94736026719005L181.40115234375003,137.77254315874436L182.28322265625002,135.69085687740397L183.063515625,136.30009170187014L183.50455078125,137.24170990358107L183.606328125,135.58990512242437L184.65802734374998,135.8339411767148L184.691953125,135.3673195679051L185.234765625,134.96834409971618L185.26869140625,133.83813933409854L185.60794921875,135.97627321431517L185.7097265625,130.43403143482283L185.777578125,136.29737413803943L186.15076171875,137.40090526386888L186.35431640625,137.22317128964804L186.45609375,135.0806754692199L186.591796875,134.28210623554577L187.2024609375,137.66501831465092L187.23638671875,136.8360082440906L187.37208984375,137.43745988330596L187.4738671875,133.35549499249706L187.54171874999997,133.5232419932468L188.0166796875,138.4321279930365L188.1523828125,132.36817725991003L188.52556640625002,137.1394288094145L188.62734375,137.72590293269604L189.305859375,134.96903600383342L189.577265625,133.6544962042891L189.9165234375,136.3544385620755L189.95044921875,137.29541491230742L190.32363281250002,134.46442002616823L191.10392578125,138.3597665994635L191.2735546875,136.6902181580404L191.85029296875,135.1709336252469L193.34302734374998,135.55467248149216L193.376953125,135.8193611376143L193.51265625,135.98544904061902L193.648359375,134.74944035838254L194.2590234375,138.01044629271038L194.462578125,137.16951927783276L194.49650390624998,136.62523364006645L195.92138671875,136.14749151274253L196.19279296875,137.5752474357788L196.46419921875003,134.0541223567755L196.498125,135.0272442778676L197.07486328125,136.68954244742378L197.5158984375,138.35949278208943L197.6516015625,136.4284546369842L198.02478515625,137.24092967127865L198.43189453125,132.50430571463787L198.533671875,139.38999122013854L198.6015234375,134.35555701006928L198.73722656249998,130.84079450467186L199.0086328125,138.94569161586048L201.04417968750002,137.83615270130232L201.24773437500002,138.60879466835306L201.28166015624998,137.60264389454903L201.34951171875,135.5412848728916L201.8583984375,137.96831669265197L202.09587890625,137.06586173611385L202.876171875,136.72651809787686L203.011875,136.02371281043935L203.38505859375002,136.56350695998924L203.48683593750002,137.32813756064408L204.06357421874998,136.5018892180071L204.26712890625,135.03741085198192L204.7081640625,136.95836044620307L205.38667968750002,139.2630547852152L205.69201171875,136.74592821657035L206.23482421875,135.27970242461498L206.30267578125,138.44620456148147L206.6080078125,137.9923154605656L206.91333984375,137.78475894675486L207.18474609375,137.76618205727493L207.86326171874998,135.45896006003022L207.93111328125,136.42314905732766L208.032890625,138.2865955308597L208.1007421875,138.65799788390802L208.30429687499998,135.3031594463262L208.71140625,136.2200855038698L208.74533203124997,135.56863127902358L208.9828125,135.8029055967151L209.08458984375,135.14456913410686L209.25421875,136.66347091143123L209.49169921875,137.8335779347043L209.55955078124998,136.97450683845415L211.289765625,137.30884374072775L211.66294921875,137.82080273485434L211.7647265625,137.1326805360667L211.93435546875,137.2878569639288L212.47716796875,137.67222147815238L212.61287109375002,135.63276784641977L212.646796875,136.6857001713684L212.7146484375,138.66166055932018L213.05390625,138.03017292073412L213.189609375,138.89222803750698L213.3253125,139.4104539163721L213.63064453125,138.109784586174L213.6645703125,137.7781343328663L213.83419921875,139.85245698783547L213.96990234375002,135.611494003019L214.00382812499998,138.0384698815954L214.51271484375002,141.05868582243824L215.5644140625,137.0158414848459L215.9715234375,135.16991343470806L216.20900390625002,135.2019162083355L216.3786328125,138.22684740213055L216.85359375000002,138.0996562876066L217.15892578125,137.07958499181808L217.66781250000003,138.25552461958594L218.04099609374998,138.66432512623982L218.2784765625,139.23601163918568L218.31240234375,139.53391758148143L218.4141796875,137.5068858368581L218.617734375,137.54195065423846L219.9069140625,137.02417672125415L220.00869140625002,137.72650945290096L220.07654296875,137.85342233364162L220.1783203125,136.30014764305412L220.21224609375,139.54080423565273L220.34794921875002,136.4017044461022L221.43357421875,140.22536975285038L221.90853515625003,137.57977131099648L222.82453124999998,134.80220761620956L223.02808593749998,138.43656648434182L223.1637890625,138.39713531034067L223.774453125,136.48589298367085L223.94408203125,136.3763910603658L224.45296875,137.89079104451878L224.55474609375,138.26270570104114L224.6565234375,137.83649718122453L225.36896484375,137.9830836930778L225.7421484375,136.192873062152L226.18318359375,139.81563885597927L226.217109375,137.92044281628398L226.5563671875,136.33790058153681L226.65814453125,137.67472558220226L226.79384765625,138.69118131094405L227.3705859375,137.48153270343835L227.4384375,138.3125728501214L227.54021484375,138.68921453668736L228.25265625,139.2060124432254L228.3205078125,139.58108041595875L228.49013671875002,138.714486702604L228.8633203125,137.1492950676992L229.1347265625,138.07291198527025L229.2704296875,136.04664869585798L229.84716796875,138.5255424095473L230.05072265625,136.9750058927004L230.38998046875003,137.35121035474975L230.45783203125,138.9285250330706L230.66138671875,139.06289870118619L230.83101562500002,137.74898014321096L231.00064453125,138.77954629953535L231.102421875,134.4524500849398L231.61130859375,141.2499752288115L231.645234375,134.45724336112227L232.56123046875,139.26985605547412L232.83263671875002,138.9134812709979L233.17189453125002,139.3777342123083L233.545078125,138.4430806879989L234.25751953125,134.34856141780296L234.46107421874999,136.6557127524995L234.8342578125,139.35314511769036L234.86818359375,137.84472642381053L235.95380859375,140.88461010722028L235.987734375,136.599435921448L236.1912890625,138.35275923010585L237.95542968750001,139.2446089158766L238.02328125,137.9964344982679L238.26076171875,137.46265844240162L238.3625390625,139.00343322264962L238.60001953125,137.6778303179114L239.516015625,139.43893239541083L240.22845703125,140.45017381695408L240.56771484375,139.27607141543803L241.11052734375,138.94734335292338L241.17837890625,140.6707602102154L241.24623046874999,140.98246448717288L241.415859375,140.5111541238665L242.501484375,138.6456231051642L242.67111328124997,139.43447476633202L243.044296875,138.28692381728132L243.07822265625,139.7174341075588L243.11214843750003,139.94366025544394L243.21392578125,140.91527029243298L243.75673828125,140.96861168346368L244.672734375,139.96003482884004L244.77451171875,139.32630659862318L245.45302734375002,139.93006360347175L245.65658203125,140.95955951661907L245.6905078125,140.13904661747318L246.572578125,139.89514452759693L246.81005859375,140.22314535472026L246.87791015625,140.55660780796057L247.0475390625,139.75784719655186L248.16708984375,140.62560242554173L248.26886718749998,136.5647523874003L248.91345703125,140.30254797678856L248.9473828125,139.0968829704345L249.25271484375003,138.5209670095549L249.4901953125,140.81362074479046L249.59197265625,140.44564405319073L249.829453125,139.3131736696232L249.93123046875,139.94864785363382L250.5758203125,137.19742067939498L250.67759765625001,139.90578807391122L251.01685546875,138.55649407777108" style="fill: none;" fill="none"></path></g></g></g></g></g></g><g transform="translate(58, 177)" clip-path="url(#clip_1)"><clipPath id="clip_1"><rect width="271" height="22"></rect></clipPath><g><g><line x1="0" y1="0" x2="0" y2="5" style="visibility: inherit;" fill="rgb(0, 0, 0)" stroke="rgb(204, 204, 204)" stroke-width="1px"></line><line x1="33.92578125" y1="0" x2="33.92578125" y2="5" style="visibility: inherit;" fill="rgb(0, 0, 0)" stroke="rgb(204, 204, 204)" stroke-width="1px"></line><line x1="67.8515625" y1="0" x2="67.8515625" y2="5" style="visibility: inherit;" fill="rgb(0, 0, 0)" stroke="rgb(204, 204, 204)" stroke-width="1px"></line><line x1="101.77734375" y1="0" x2="101.77734375" y2="5" style="visibility: inherit;" fill="rgb(0, 0, 0)" stroke="rgb(204, 204, 204)" stroke-width="1px"></line><line x1="135.703125" y1="0" x2="135.703125" y2="5" style="visibility: inherit;" fill="rgb(0, 0, 0)" stroke="rgb(204, 204, 204)" stroke-width="1px"></line><line x1="169.62890625" y1="0" x2="169.62890625" y2="5" style="visibility: inherit;" fill="rgb(0, 0, 0)" stroke="rgb(204, 204, 204)" stroke-width="1px"></line><line x1="203.5546875" y1="0" x2="203.5546875" y2="5" style="visibility: inherit;" fill="rgb(0, 0, 0)" stroke="rgb(204, 204, 204)" stroke-width="1px"></line><line x1="237.48046875" y1="0" x2="237.48046875" y2="5" style="visibility: inherit;" fill="rgb(0, 0, 0)" stroke="rgb(204, 204, 204)" stroke-width="1px"></line><line x1="271.40625" y1="0" x2="271.40625" y2="5" style="visibility: inherit;" fill="rgb(0, 0, 0)" stroke="rgb(204, 204, 204)" stroke-width="1px"></line></g><g transform="translate(0, 8)"><text x="0" y="0" dx="0em" dy="0.95em" style="text-anchor: middle; visibility: hidden; font-family: &quot;Helvetica Neue&quot;, sans-serif; font-size: 12px; font-weight: 200;" fill="rgb(50, 49, 63)" stroke="none" stroke-width="1px">-1k</text><text x="33.92578125" y="0" dx="0em" dy="0.95em" style="text-anchor: middle; visibility: inherit; font-family: &quot;Helvetica Neue&quot;, sans-serif; font-size: 12px; font-weight: 200;" fill="rgb(50, 49, 63)" stroke="none" stroke-width="1px">0</text><text x="67.8515625" y="0" dx="0em" dy="0.95em" style="text-anchor: middle; visibility: inherit; font-family: &quot;Helvetica Neue&quot;, sans-serif; font-size: 12px; font-weight: 200;" fill="rgb(50, 49, 63)" stroke="none" stroke-width="1px">1k</text><text x="101.77734375" y="0" dx="0em" dy="0.95em" style="text-anchor: middle; visibility: inherit; font-family: &quot;Helvetica Neue&quot;, sans-serif; font-size: 12px; font-weight: 200;" fill="rgb(50, 49, 63)" stroke="none" stroke-width="1px">2k</text><text x="135.703125" y="0" dx="0em" dy="0.95em" style="text-anchor: middle; visibility: inherit; font-family: &quot;Helvetica Neue&quot;, sans-serif; font-size: 12px; font-weight: 200;" fill="rgb(50, 49, 63)" stroke="none" stroke-width="1px">3k</text><text x="169.62890625" y="0" dx="0em" dy="0.95em" style="text-anchor: middle; visibility: inherit; font-family: &quot;Helvetica Neue&quot;, sans-serif; font-size: 12px; font-weight: 200;" fill="rgb(50, 49, 63)" stroke="none" stroke-width="1px">4k</text><text x="203.5546875" y="0" dx="0em" dy="0.95em" style="text-anchor: middle; visibility: inherit; font-family: &quot;Helvetica Neue&quot;, sans-serif; font-size: 12px; font-weight: 200;" fill="rgb(50, 49, 63)" stroke="none" stroke-width="1px">5k</text><text x="237.48046875" y="0" dx="0em" dy="0.95em" style="text-anchor: middle; visibility: inherit; font-family: &quot;Helvetica Neue&quot;, sans-serif; font-size: 12px; font-weight: 200;" fill="rgb(50, 49, 63)" stroke="none" stroke-width="1px">6k</text><text x="271.40625" y="0" dx="0em" dy="0.95em" style="text-anchor: middle; visibility: hidden; font-family: &quot;Helvetica Neue&quot;, sans-serif; font-size: 12px; font-weight: 200;" fill="rgb(50, 49, 63)" stroke="none" stroke-width="1px">7k</text></g><line x1="0" y1="0" x2="271.40625" y2="0" fill="rgb(0, 0, 0)" stroke="rgb(204, 204, 204)" stroke-width="1px"></line></g></g></g></g></svg>