<svg viewBox="0 0 330 200" xmlns="http://www.w3.org/2000/svg"><g><g><g><g><g><line x1="29.4375" y1="177.828125" x2="24.4375" y2="177.828125" style="visibility: inherit;" fill="rgb(0, 0, 0)" stroke="rgb(204, 204, 204)" stroke-width="1px"></line><line x1="29.4375" y1="163.00911458333334" x2="24.4375" y2="163.00911458333334" style="visibility: inherit;" fill="rgb(0, 0, 0)" stroke="rgb(204, 204, 204)" stroke-width="1px"></line><line x1="29.4375" y1="148.19010416666666" x2="24.4375" y2="148.19010416666666" style="visibility: inherit;" fill="rgb(0, 0, 0)" stroke="rgb(204, 204, 204)" stroke-width="1px"></line><line x1="29.4375" y1="133.37109375" x2="24.4375" y2="133.37109375" style="visibility: inherit;" fill="rgb(0, 0, 0)" stroke="rgb(204, 204, 204)" stroke-width="1px"></line><line x1="29.4375" y1="118.55208333333334" x2="24.4375" y2="118.55208333333334" style="visibility: inherit;" fill="rgb(0, 0, 0)" stroke="rgb(204, 204, 204)" stroke-width="1px"></line><line x1="29.4375" y1="103.73307291666666" x2="24.4375" y2="103.73307291666666" style="visibility: inherit;" fill="rgb(0, 0, 0)" stroke="rgb(204, 204, 204)" stroke-width="1px"></line><line x1="29.4375" y1="88.9140625" x2="24.4375" y2="88.9140625" style="visibility: inherit;" fill="rgb(0, 0, 0)" stroke="rgb(204, 204, 204)" stroke-width="1px"></line><line x1="29.4375" y1="74.09505208333333" x2="24.4375" y2="74.09505208333333" style="visibility: inherit;" fill="rgb(0, 0, 0)" stroke="rgb(204, 204, 204)" stroke-width="1px"></line><line x1="29.4375" y1="59.27604166666667" x2="24.4375" y2="59.27604166666667" style="visibility: inherit;" fill="rgb(0, 0, 0)" stroke="rgb(204, 204, 204)" stroke-width="1px"></line><line x1="29.4375" y1="44.45703125" x2="24.4375" y2="44.45703125" style="visibility: inherit;" fill="rgb(0, 0, 0)" stroke="rgb(204, 204, 204)" stroke-width="1px"></line><line x1="29.4375" y1="29.638020833333314" x2="24.4375" y2="29.638020833333314" style="visibility: inherit;" fill="rgb(0, 0, 0)" stroke="rgb(204, 204, 204)" stroke-width="1px"></line><line x1="29.4375" y1="14.819010416666686" x2="24.4375" y2="14.819010416666686" style="visibility: inherit;" fill="rgb(0, 0, 0)" stroke="rgb(204, 204, 204)" stroke-width="1px"></line><line x1="29.4375" y1="0" x2="24.4375" y2="0" style="visibility: inherit;" fill="rgb(0, 0, 0)" stroke="rgb(204, 204, 204)" stroke-width="1px"></line></g><g transform="translate(19.4375, 0)"><text x="0" y="177.828125" dx="0em" dy="0.3em" style="text-anchor: end; visibility: hidden; font-family: &quot;Helvetica Neue&quot;, sans-serif; font-size: 12px; font-weight: 200;" fill="rgb(50, 49, 63)" stroke="none" stroke-width="1px">-1</text><text x="0" y="163.00911458333334" dx="0em" dy="0.3em" style="text-anchor: end; visibility: inherit; font-family: &quot;Helvetica Neue&quot;, sans-serif; font-size: 12px; font-weight: 200;" fill="rgb(50, 49, 63)" stroke="none" stroke-width="1px">0</text><text x="0" y="148.19010416666666" dx="0em" dy="0.3em" style="text-anchor: end; visibility: hidden; font-family: &quot;Helvetica Neue&quot;, sans-serif; font-size: 12px; font-weight: 200;" fill="rgb(50, 49, 63)" stroke="none" stroke-width="1px">1</text><text x="0" y="133.37109375" dx="0em" dy="0.3em" style="text-anchor: end; visibility: inherit; font-family: &quot;Helvetica Neue&quot;, sans-serif; font-size: 12px; font-weight: 200;" fill="rgb(50, 49, 63)" stroke="none" stroke-width="1px">2</text><text x="0" y="118.55208333333334" dx="0em" dy="0.3em" style="text-anchor: end; visibility: hidden; font-family: &quot;Helvetica Neue&quot;, sans-serif; font-size: 12px; font-weight: 200;" fill="rgb(50, 49, 63)" stroke="none" stroke-width="1px">3</text><text x="0" y="103.73307291666666" dx="0em" dy="0.3em" style="text-anchor: end; visibility: inherit; font-family: &quot;Helvetica Neue&quot;, sans-serif; font-size: 12px; font-weight: 200;" fill="rgb(50, 49, 63)" stroke="none" stroke-width="1px">4</text><text x="0" y="88.9140625" dx="0em" dy="0.3em" style="text-anchor: end; visibility: hidden; font-family: &quot;Helvetica Neue&quot;, sans-serif; font-size: 12px; font-weight: 200;" fill="rgb(50, 49, 63)" stroke="none" stroke-width="1px">5</text><text x="0" y="74.09505208333333" dx="0em" dy="0.3em" style="text-anchor: end; visibility: inherit; font-family: &quot;Helvetica Neue&quot;, sans-serif; font-size: 12px; font-weight: 200;" fill="rgb(50, 49, 63)" stroke="none" stroke-width="1px">6</text><text x="0" y="59.27604166666667" dx="0em" dy="0.3em" style="text-anchor: end; visibility: hidden; font-family: &quot;Helvetica Neue&quot;, sans-serif; font-size: 12px; font-weight: 200;" fill="rgb(50, 49, 63)" stroke="none" stroke-width="1px">7</text><text x="0" y="44.45703125" dx="0em" dy="0.3em" style="text-anchor: end; visibility: inherit; font-family: &quot;Helvetica Neue&quot;, sans-serif; font-size: 12px; font-weight: 200;" fill="rgb(50, 49, 63)" stroke="none" stroke-width="1px">8</text><text x="0" y="29.638020833333314" dx="0em" dy="0.3em" style="text-anchor: end; visibility: hidden; font-family: &quot;Helvetica Neue&quot;, sans-serif; font-size: 12px; font-weight: 200;" fill="rgb(50, 49, 63)" stroke="none" stroke-width="1px">9</text><text x="0" y="14.819010416666686" dx="0em" dy="0.3em" style="text-anchor: end; visibility: inherit; font-family: &quot;Helvetica Neue&quot;, sans-serif; font-size: 12px; font-weight: 200;" fill="rgb(50, 49, 63)" stroke="none" stroke-width="1px">10</text><text x="0" y="0" dx="0em" dy="0.3em" style="text-anchor: end; visibility: hidden; font-family: &quot;Helvetica Neue&quot;, sans-serif; font-size: 12px; font-weight: 200;" fill="rgb(50, 49, 63)" stroke="none" stroke-width="1px">11</text></g><line x1="29.4375" y1="0" x2="29.4375" y2="177.828125" fill="rgb(0, 0, 0)" stroke="rgb(204, 204, 204)" stroke-width="1px"></line></g></g><g transform="translate(29, 0)" clip-path="url(#clip_0)"><clipPath id="clip_0"><rect width="300" height="177"></rect></clipPath><g><g><g><line x1="0" y1="0" x2="0" y2="177.828125" fill="rgb(0, 0, 0)" stroke="rgb(60, 60, 60)" stroke-width="1px" opacity="0.25"></line><line x1="37.5703125" y1="0" x2="37.5703125" y2="177.828125" fill="rgb(0, 0, 0)" stroke="rgb(60, 60, 60)" stroke-width="1px" opacity="0.25"></line><line x1="75.140625" y1="0" x2="75.140625" y2="177.828125" fill="rgb(0, 0, 0)" stroke="rgb(60, 60, 60)" stroke-width="1px" opacity="0.25"></line><line x1="112.7109375" y1="0" x2="112.7109375" y2="177.828125" fill="rgb(0, 0, 0)" stroke="rgb(60, 60, 60)" stroke-width="1px" opacity="0.25"></line><line x1="150.28125" y1="0" x2="150.28125" y2="177.828125" fill="rgb(0, 0, 0)" stroke="rgb(60, 60, 60)" stroke-width="1px" opacity="0.25"></line><line x1="187.8515625" y1="0" x2="187.8515625" y2="177.828125" fill="rgb(0, 0, 0)" stroke="rgb(60, 60, 60)" stroke-width="1px" opacity="0.25"></line><line x1="225.421875" y1="0" x2="225.421875" y2="177.828125" fill="rgb(0, 0, 0)" stroke="rgb(60, 60, 60)" stroke-width="1px" opacity="0.25"></line><line x1="262.9921875" y1="0" x2="262.9921875" y2="177.828125" fill="rgb(0, 0, 0)" stroke="rgb(60, 60, 60)" stroke-width="1px" opacity="0.25"></line><line x1="300.5625" y1="0" x2="300.5625" y2="177.828125" fill="rgb(0, 0, 0)" stroke="rgb(60, 60, 60)" stroke-width="1px" opacity="0.25"></line></g><g><line x1="0" y1="177.828125" x2="300.5625" y2="177.828125" fill="rgb(0, 0, 0)" stroke="rgb(60, 60, 60)" stroke-width="1px" opacity="0.25"></line><line x1="0" y1="163.00911458333334" x2="300.5625" y2="163.00911458333334" fill="rgb(0, 0, 0)" stroke="rgb(60, 60, 60)" stroke-width="1px" opacity="0.25"></line><line x1="0" y1="148.19010416666666" x2="300.5625" y2="148.19010416666666" fill="rgb(0, 0, 0)" stroke="rgb(60, 60, 60)" stroke-width="1px" opacity="0.25"></line><line x1="0" y1="133.37109375" x2="300.5625" y2="133.37109375" fill="rgb(0, 0, 0)" stroke="rgb(60, 60, 60)" stroke-width="1px" opacity="0.25"></line><line x1="0" y1="118.55208333333334" x2="300.5625" y2="118.55208333333334" fill="rgb(0, 0, 0)" stroke="rgb(60, 60, 60)" stroke-width="1px" opacity="0.25"></line><line x1="0" y1="103.73307291666666" x2="300.5625" y2="103.73307291666666" fill="rgb(0, 0, 0)" stroke="rgb(60, 60, 60)" stroke-width="1px" opacity="0.25"></line><line x1="0" y1="88.9140625" x2="300.5625" y2="88.9140625" fill="rgb(0, 0, 0)" stroke="rgb(60, 60, 60)" stroke-width="1px" opacity="0.25"></line><line x1="0" y1="74.09505208333333" x2="300.5625" y2="74.09505208333333" fill="rgb(0, 0, 0)" stroke="rgb(60, 60, 60)" stroke-width="1px" opacity="0.25"></line><line x1="0" y1="59.27604166666667" x2="300.5625" y2="59.27604166666667" fill="rgb(0, 0, 0)" stroke="rgb(60, 60, 60)" stroke-width="1px" opacity="0.25"></line><line x1="0" y1="44.45703125" x2="300.5625" y2="44.45703125" fill="rgb(0, 0, 0)" stroke="rgb(60, 60, 60)" stroke-width="1px" opacity="0.25"></line><line x1="0" y1="29.638020833333314" x2="300.5625" y2="29.638020833333314" fill="rgb(0, 0, 0)" stroke="rgb(60, 60, 60)" stroke-width="1px" opacity="0.25"></line><line x1="0" y1="14.819010416666686" x2="300.5625" y2="14.819010416666686" fill="rgb(0, 0, 0)" stroke="rgb(60, 60, 60)" stroke-width="1px" opacity="0.25"></line><line x1="0" y1="0" x2="300.5625" y2="0" fill="rgb(0, 0, 0)" stroke="rgb(60, 60, 60)" stroke-width="1px" opacity="0.25"></line></g></g></g><g><g><line x1="0" y1="163.00911458333334" x2="300.5625" y2="163.00911458333334" fill="rgb(0, 0, 0)" stroke="rgb(153, 153, 153)" stroke-width="1.5px"></line></g></g><g><g><line x1="37.5703125" y1="0" x2="37.5703125" y2="177.828125" fill="rgb(0, 0, 0)" stroke="rgb(153, 153, 153)" stroke-width="1.5px"></line></g></g><g><g><g><g><g><path stroke="rgb(255, 112, 67)" stroke-width="2px" d="M37.9084453125,126.58594161830842L38.02115625,121.13180646746574L38.32171875,114.49508282978114L38.3592890625,112.58580840135214L38.396859375,109.72849396681066L38.62228125,105.79446805231304L38.8852734375,102.13234639988963L38.9604140625,99.86676994402183L39.336117187499994,96.72211751017083L39.4863984375,94.20548052325836L39.561539062499996,91.54276603967307L39.9372421875,90.83916520600322L40.4632265625,84.79627263132768L40.5383671875,79.5988983893214L40.6886484375,78.49145573831774L40.9892109375,77.73402543415878L41.026781250000006,76.83866115736922L41.853328125000004,75.41855812641268L41.9660390625,74.3674098489983L42.229031250000006,72.64794787422292L42.3417421875,73.87511143929777L42.45445312499999,76.30437905252127L42.5671640625,73.95385044564757L42.679874999999996,69.4131229158127L43.055578125,67.36586694507679L43.356140624999995,69.14742737830434L43.3937109375,68.59554490256461L43.5439921875,68.28607527618097L43.919695312500004,66.58788383366354L44.0699765625,67.6451174606355L44.3705390625,66.03087880594377L44.445679687500004,66.58401710104096L45.460078124999995,69.60933322016389L45.497648437500004,67.4879884448069L45.7982109375,65.21272877525517L45.873351562500005,63.09769637690718L45.910921875,63.46311865957267L46.211484375,62.95259749279607L46.249054687500006,63.485388422520984L46.286625,64.93237935617995L46.4744765625,64.78024629013714L46.812609375,64.63267101170656L47.2258828125,62.68531925019248L47.526445312499995,59.96661145810842L47.63915625,61.236638379176696L48.1275703125,62.41920975329717L48.315421875,67.36447487481406L48.428132812499996,65.2922014809658L48.578414062499995,64.12337795347446L48.578414062499995,63.52178869242266L49.217109375,61.26919024244722L49.2546796875,60.53084641827397L49.480101562499996,59.65868668337461L49.5928125,63.54134204435634L49.630382812499995,63.02096771616675L49.667953125000004,62.7424124101932L49.7055234375,62.84712370232556L49.74309375,65.90502497824559L49.968515625,66.10279997997999L50.156367187499995,64.30483098415637L50.9829140625,61.530371724842524L51.0580546875,58.88590623569198L51.1331953125,59.16707268932487L51.2834765625,61.93869535845931L51.4337578125,62.121079415166875L51.696749999999994,61.36953192407955L51.771890625,61.042166787614846L51.922171875,61.667626629708465L51.9973125,62.68891368261275L52.0348828125,62.733810585943615L52.072453124999996,60.55337508998778L52.222734374999995,61.748054736748145L52.297875,63.49518465979584L52.3354453125,62.882293513816734L52.44815625,64.30104371541866L52.4857265625,64.60125880644199L52.5608671875,63.861579124860825L52.636007812500004,60.915548303067396L52.748718749999995,61.33491023655121L52.748718749999995,61.70580295140773L53.1995625,62.438753951083996L53.274703124999995,61.585264247750075L53.875828125,64.3769272017051L54.026109375,62.87337658043121L54.1388203125,61.96538404267281L54.4018125,63.326806857285405L54.476953125,61.5681011142418L54.589664062500006,61.605990543688435L54.627234375,59.13458781052138L54.739945312500005,60.6923980148147L54.777515625,62.34603034073176L55.0405078125,63.77349951235888L55.078078125,60.856459619314094L55.265929687500005,58.62955178670721L55.3035,60.137843167648526L55.4913515625,62.82298282709668L55.5664921875,63.033317277890134L55.641632812500006,64.0044526485473L55.791914062500005,60.412579902184206L55.829484375,61.351893603705705L55.942195312500004,59.75772742797136L55.942195312500004,58.96165431883453L56.05490625,61.60011859295676L56.393039062499994,61.524713234451866L56.430609375,61.399361301768295L56.6184609375,62.004622001285426L57.182015625,62.78104409406687L57.4074375,66.42306017575723L57.5201484375,63.954553117045165L57.595289062499994,65.1786090799302L57.632859375,63.6672229405123L57.708,63.08855943645308L57.820710937499996,66.11564498602512L57.8958515625,64.5624516350577L58.083703125,63.59417550370394L58.1964140625,67.03939505456069L58.309125,66.40038296429225L58.496976562499995,64.09385489134735L59.285953125000006,64.94161960209655L59.36109375,65.86531066532085L59.36109375,66.61960772157798L59.398664062499996,67.41683264115107L59.736796875,66.93516599931512L59.962218750000005,64.96947093932744L60.2252109375,65.81785139443824L60.713625,63.915353448454624L60.939046875,63.93192057039188L61.1268984375,65.03176281263936L61.2020390625,66.3339144050708L61.23960937499999,66.99102299842023L61.615312499999995,69.82727558473417L61.7280234375,68.68622194762827L61.8783046875,68.96580567331593L61.991015624999996,67.74274454462419L62.291578124999994,65.28830591160788L62.3291484375,66.5045985943699L62.554570312500005,67.11239086041594L62.592140625,65.4399356195812L62.667281249999995,67.43831210083671L62.667281249999995,68.92043759597483L63.568968749999996,69.84828616483892L63.644109375,73.75165272834234L63.6816796875,74.69085149565734L63.719249999999995,76.16072251657285L64.1325234375,74.75494230643693L64.35794531250001,73.74223737754892L64.395515625,75.6901820039062L64.545796875,76.83481893278012L64.6209375,77.89132732751081L65.07178125,81.69003830563292L65.10935156250001,85.75152698781847L65.297203125,86.5420082638766L65.447484375,86.98476174752547L65.522625,84.1237656724292L65.5601953125,88.5225254109604L66.1613203125,87.61835690033055L66.2364609375,87.66473768467675L66.724875,95.67352786996943L67.0254375,93.23450015737006L67.0254375,92.04534466467334L67.32600000000001,92.72298778088113L67.401140625,92.75279811739654L67.70170312500001,93.97278428233503L67.70170312500001,94.95017287849488L68.1149765625,98.79001292009117L68.2276875,99.35227309566119L68.302828125,100.55797581663556L68.37796875000001,102.98453727612393L68.453109375,108.75447924608685L68.52825,105.48319959098913L68.75367187500001,105.77254048186433L68.903953125,106.79372673562403L69.0166640625,106.55518231614174L69.1669453125,104.46992096721375L69.3172265625,108.00420433483072L69.3923671875,109.8019567439549L69.42993750000001,109.89781792407291L69.4675078125,108.76594686152572L69.5426484375,108.83323554655135L69.655359375,110.41179958508543L69.8432109375,112.01554429832278L70.0310625,111.97328484661288L70.10620312500001,114.0264510702505L70.1437734375,113.9284180520573L70.18134375000001,120.01197980964275L70.2940546875,117.39844868480618L70.331625,119.38963082496994L70.3691953125,117.1581152444214L70.7448984375,115.41756845194382L70.8951796875,118.38200728800862L71.007890625,115.74181357993862L71.158171875,118.47687777439265L71.158171875,120.35536789134846L71.3460234375,117.54724063007953L71.45873437499999,116.27495582568002L71.8720078125,118.15603187978678L71.9471484375,117.58438962579018L72.13499999999999,117.03871864679603L72.210140625,116.47778340403624L72.360421875,116.07344839520388L72.6234140625,119.10276927466968L72.660984375,119.15930836423703L72.7736953125,120.90160491319676L72.811265625,121.70849391608246L73.44996093750001,124.48625872828846L73.56267187499999,125.44031408259244L73.9008046875,127.11925637632493L74.08865625,124.29010328162144L74.12622656250001,128.82831136763153L74.163796875,134.03551165147906L74.50192968750001,132.251500287459L74.764921875,134.19345344221438L74.80249218750001,130.8616763169021L75.140625,131.25162599942786L75.21576562499999,128.45801370965464L75.366046875,128.6993169772249L75.7041796875,129.34995657417406L75.816890625,132.6499951182846L76.26773437499999,135.63209867912542L76.49315625,132.97819376948286L76.56829687499999,133.78140165386284L76.56829687499999,134.50282295891753L76.60586718750001,132.81830216506586L76.6434375,132.04480951588033L76.718578125,130.8707658919087L76.79371875,132.47103052341038L76.944,131.54700849393365L77.2069921875,135.69817617443567L77.8456875,133.0087247979583L77.920828125,132.2163251981303L78.07110937499999,130.16420472074043L78.221390625,128.86217095859442L78.44681250000001,125.35089891398506L78.6346640625,123.54478787056343L78.67223437499999,126.0942488766267L78.70980468750001,128.3721542435569L78.822515625,128.96633675859465L78.8600859375,125.15977072318054L79.01036718750001,119.30473246782813L79.0855078125,115.16769420495507L79.46121093750001,114.41079911425238L79.573921875,111.89961592679934L79.573921875,110.80823220730254L79.6114921875,110.79346192344784L79.6866328125,109.39990917895094L79.76177343750001,103.99213396094555L79.76177343750001,101.2219593614279L79.91205468749999,102.45554081514113L79.949625,105.16260997999488L80.0623359375,105.26849845515459L80.40046875,98.69290215104878L80.5883203125,94.77475227612294L80.70103125,91.21833384130221L80.8137421875,84.93585631381762L80.8888828125,82.43697003452753L81.1143046875,73.87796354897088L81.151875,67.65470690244791L81.60271875000001,56.47467277128116L81.79057031250001,43.00074157274929L82.429265625,32.43283171250724L82.4668359375,18.79068863368613L82.50440625,12.44170194552288L82.76739843749999,14.129268265878864L83.330953125,1.4806571963125919L83.481234375,-1.281635576723346L89.041640625,-4.880758832309539L89.30463281249999,1.4317404893554055L89.30463281249999,5.639761385869008L89.342203125,7.99048967016796L89.94332812500001,9.972795816380113L89.9808984375,12.828311941296846L89.9808984375,14.990747119250472L90.31903125,17.2715312869922L90.61959374999999,21.997693873340438L90.69473437500001,22.633468446271365L91.52128125,25.200881943386833L91.6715625,32.051230477461445L91.8594140625,32.914325920543604L91.97212499999999,37.049172905763896L92.04726562500001,35.49479735752797L92.347828125,40.31837146546954L92.3853984375,43.538753609010655L92.42296875,43.76447953093992L93.28708593750001,45.01032049815228L93.4373671875,47.20978498524647L93.8882109375,49.37166232381995L94.0384921875,50.253592553077524L94.1136328125,54.577456718586916L94.1887734375,54.899194180510264L94.22634375,54.934913560474996L94.4141953125,55.25359143697723L94.4893359375,53.89062911997341L94.63961718750001,53.13039365597626L94.6771875,51.71272164645629L95.12803125,57.79846440019905L95.203171875,55.2877712354821L95.2407421875,57.27917973483177L95.7667265625,50.895641789046365L96.2175703125,58.283554678782295L96.4805625,59.23107856002916L96.63084375,59.10942895454647L96.74355468750001,60.21908999453473L96.8186953125,63.47661081485245L96.93140625000001,68.43011251285051L97.23196875000001,69.17558293607458L97.5701015625,73.1557890891033L97.607671875,72.24744272692983L97.7203828125,74.94509967295717L97.79552343750001,73.123521602174L98.24636718750001,72.38253925900877L98.28393750000001,74.81578105386826L98.43421875,75.98521826285163L98.4717890625,78.88773631275518L98.509359375,77.02756010475254L98.54692968750001,77.80361087013777L98.54692968750001,78.52965825779931L99.03534375000001,79.72772427886942L99.185625,78.91584916158646L99.63646875,83.05529507444777L99.78675000000001,82.27361800738063L100.04974218749999,81.23880543813836L100.08731250000001,83.98590410230993L100.38787500000001,82.49482131537859L100.9514296875,89.23100891135373L100.989,88.35182118717178L101.1768515625,93.24088682415095L101.4774140625,91.77509077299838L101.590125,94.94441604038599L102.0033984375,95.4717405259839L102.04096875,95.96926876675475L102.15367968749999,98.8485261210584L102.34153125,94.42843036554953L102.3791015625,96.66494649148603L102.5293828125,97.6424239677486L102.64209375,97.6490677159407L102.7548046875,99.93242143336207L102.867515625,98.91132326817475L102.94265625000001,100.35971000231879L103.24321875000001,101.45500917496827L103.468640625,100.44401268047619L103.54378125,96.57817541315671L103.65649218749999,96.90542924158483L103.95705468749999,99.58191826543833L103.994625,99.08395867482797L104.1073359375,99.40039085012262L104.1824765625,103.9203323925232L104.48303906250001,105.73349514408082L104.821171875,103.35139530829493L105.19687499999999,103.6131156224424L105.53500781250001,102.62110128904865L105.572578125,102.1596314541329L105.6101484375,104.39988942994152L105.64771875,101.47439400262718L105.722859375,104.46675789847225L106.023421875,105.10333305842231L106.24884374999999,105.01368054782779L106.5118359375,101.06029576680321L107.075390625,99.82238748990252L107.1129609375,100.47138380700004L107.5638046875,101.2710540047903L107.63894531250001,101.02439707800463L107.67651562500001,101.04206702630549L107.7892265625,103.1805529195815L107.826796875,102.29870509100456L107.8643671875,101.57916930611431L108.05221875,101.60257117527027L108.1649296875,106.00349874319016L108.42792187500001,104.52869391851452L108.578203125,101.59844682313698L108.803625,98.79458047492919L108.84119531249999,100.04168965941837L108.9163359375,100.7948139269223L109.14175781249999,99.10190208161295L109.2168984375,98.49085352016144L109.2920390625,100.02525608952435L109.329609375,99.95694417833641L109.5174609375,98.6772425626478L109.5926015625,98.92874863573479L110.15615625,99.87078451561074L110.23129687500001,99.46660067804936L110.381578125,98.53729280507535L111.208125,98.95305641696434L111.35840625,98.60522385014443L111.4711171875,98.31424766549478L111.54625781249999,99.98660006708309L111.7716796875,98.92260059244278L111.88439062500001,100.33960201656923L111.99710156249999,97.27068836082681L112.410375,99.35082328621345L112.5982265625,100.00146652939199L112.7109375,100.40236706246304L112.86121875,100.73766868586956L112.8987890625,100.4932318457998L113.12421093750001,102.61662812617148L113.3120625,104.68886862498556L113.387203125,103.80654780399026L113.5750546875,102.8397173938526L114.439171875,102.91235171699762L114.5518828125,103.57426635167542L114.5518828125,104.07149873917228L114.739734375,106.1408946000979L116.1298359375,106.88887790231084L116.3176875,108.89733305953845L116.3552578125,108.41073627178612L116.392828125,108.82312269352721L116.4303984375,111.42965480790245L116.46796875,109.65709206127549L116.5055390625,108.60567586680804L116.9563828125,109.13757414009504L117.06909375000001,108.58208317465385L117.1066640625,110.65411770896692L117.2569453125,111.32697860595036L117.48236718749999,112.000169597992L117.6326484375,111.40339510441542L117.7077890625,110.44391156825355L117.7077890625,109.94804892719546L118.0083515625,112.61997088398492L118.3089140625,112.2919038980064L118.421625,112.26914372027561L118.496765625,114.38877439636377L118.647046875,111.99578954709602L118.6846171875,112.38446747285444L118.87246875000001,112.76529535763851L118.947609375,112.18482179883158L119.0603203125,114.65241335534375L119.1354609375,114.67059696264062L119.62387500000001,112.91227803208625L119.8117265625,113.129574332604L120.07471875,114.11726971803259L120.22500000000001,112.8617617061028L120.33771093749999,113.47807515160972L120.41285156250001,112.78046585816186L120.41285156250001,112.4358571182323L120.7885546875,112.82023496653929L120.826125,113.25959742949185L120.93883593749999,111.68637588626609L121.502390625,110.57917572959146L121.6151015625,111.41017690839695L121.9156640625,110.93501943722761L121.953234375,111.8675805709038L122.253796875,111.5072378523662L122.2913671875,111.40418274633673L122.6295,111.7799133795952L122.6670703125,111.5293829677575L122.704640625,113.21768443786542L122.8924921875,112.10896012884442L123.08034375,113.1584384824707L123.56875781250001,113.68170911039157L123.606328125,114.8164240500991L123.83175,116.13673635537414L123.86932031250001,114.6331851708789L123.906890625,114.55177169186271L123.9444609375,114.8588480329557L124.1698828125,115.06918810339035L124.508015625,114.07096021578965L124.88371875,114.7279485224312L125.03399999999999,114.29496713108573L125.18428125,114.79753815594864L125.259421875,113.65158249738943L125.37213281250001,115.10052798993269L125.40970312500001,115.25953034196424L125.40970312500001,115.41746245528734L125.5975546875,115.51368726452972L126.08596874999999,115.68411054210335L126.1986796875,115.55355967753015L126.4992421875,115.61793641451726L126.68709375,115.41629566050804L126.762234375,115.85243593643946L126.7998046875,115.59446913619345L126.9500859375,115.76628287406467L127.062796875,115.9724253770016L127.1003671875,115.20516355373277L127.28821875,115.5783178524195L127.363359375,117.56096309717609L127.4760703125,117.74341673083771L127.51364062500001,118.31600842507282L127.62635156249999,117.45066008844933L127.7390625,117.98572641203678L127.7766328125,117.98101327249334L127.814203125,117.59007275633371L128.49046875,116.98296983981542L128.71589062500001,116.32134030179827L129.0540234375,116.44001263131686L129.09159375,117.34704232675327L129.46729687500002,118.64758118232088L129.5048671875,119.50329860802987L129.8805703125,118.41569520536959L130.3314140625,119.85391925029296L130.368984375,119.23744702352985L130.6319765625,119.82237723676704L130.7822578125,122.4168656152984L130.93253906249998,122.38685373584433L131.0076796875,121.17844553661348L131.04525,120.63322690934639L131.04525,120.3651682099841L131.871796875,121.58314585379614L131.9845078125,121.07525754213444L132.05964843750002,121.6219262917247L132.17235937499998,122.70220950853269L132.4353515625,123.14128895865741L132.472921875,122.31236853671689L132.472921875,121.87134846693348L132.623203125,121.64629190626385L132.9613359375,122.08014801246509L133.374609375,122.24571450513156L133.4873203125,121.78189085103006L133.8630234375,123.40145985614419L133.90059375,124.68177047445073L134.0133046875,123.07321355908331L134.50171875,124.08242492304772L134.576859375,123.64484533822456L134.8398515625,123.15893892564924L134.91499218750002,123.0327016299827L135.253125,122.6882423012473L135.40340625000002,122.65815947807438L135.8166796875,123.4845993102984L135.8918203125,122.6629204284487L135.9669609375,124.04931782608755L136.00453125,124.44132147349731L136.4929453125,124.91141303823083L136.90621875,124.17795812542154L137.1692109375,124.01025820931244L137.46977343749998,125.48121148816018L137.657625,124.32257138622563L137.9581875,124.58829622576293L138.22117968749998,123.82117129344039L138.25875,123.45013323959685L138.634453125,123.63504958746022L139.085296875,124.73655264907391L139.1228671875,124.71220018565643L139.385859375,125.7653111160794L139.7239921875,126.48963396557664L139.7991328125,126.32594766564763L139.8742734375,125.9142739956186L140.588109375,125.462335684723L140.7008203125,126.49276976875544L140.7759609375,126.35960609545558L140.888671875,126.2069042681222L141.0013828125,125.8711398281295L141.11409375,126.05998150905802L141.1516640625,126.48414802591503L141.189234375,127.21129558805922L141.640078125,127.58015226890225L141.790359375,127.57645128559815L142.1284921875,127.26526011710413L142.20363281250002,127.72723326097955L142.241203125,127.5899883686912L142.466625,127.38913044732283L142.5041953125,127.06211994330965L142.61690625,127.11568737633058L142.842328125,128.15866124035634L142.9550390625,128.18126580805608L143.142890625,127.39650569175302L143.3307421875,127.5560245609658L143.8567265625,127.75770709269506L143.894296875,128.05133673734423L143.9694375,128.32307148798975L144.2324296875,128.22467928250435L145.02140624999998,128.82569999493046L145.05897656250002,128.61165914235642L145.397109375,128.95608296447872L145.7352421875,129.2828975076211L146.073375,129.90887173790134L146.11094531249998,129.55850034795242L146.22365625,129.7057791305604L146.298796875,129.18247018462057L146.63692968750001,130.1482839047748L146.6745,129.95012655478249L146.9750625,130.81051896100658L147.050203125,130.82924908152472L147.1629140625,130.3111638984407L147.6888984375,130.2690396326825L147.72646875,129.7460873333938L147.8391796875,129.92422621647478L148.1773125,130.0116858250894L148.2148828125,130.81349975555625L148.36516406249999,130.95140979576797L148.5154453125,131.8534315355938L148.703296875,131.78712190856467L148.74086718750002,130.93613855915225L148.92871875,131.21837668668405L149.00385937500002,131.05894085919564L149.00385937500002,130.9951114273908L149.3795625,131.5505897471165L149.454703125,132.0735533904347L149.49227343750002,132.0217249655761L149.5674140625,132.24431917775897L149.75526562500002,131.32314955244993L150.0933984375,131.52872475490295L150.4691015625,131.78458476616137L150.54424218749998,132.474044402447L150.73209375,132.6783308016797L150.8448046875,132.71354535945L150.8448046875,132.76965346869474L150.9199453125,132.98024039578425L150.9950859375,133.03087339194806L151.408359375,132.8210499897382L151.7464921875,132.59894040960756L151.8216328125,132.61859124221616L151.8967734375,132.83349558341928L152.19733593750001,132.738269733658L152.23490625,132.4709159695728L152.4227578125,132.72616343132398L152.53546874999998,133.4126516230061L152.5730390625,133.15588463043596L152.68575,133.13660759247597L152.72332031250002,132.6079003376052L152.760890625,132.9993831847977L152.9863125,132.69613801796464L153.0238828125,132.651864173666L153.06145312499999,133.22429144857398L153.512296875,132.81639929872597L153.66257812499998,132.63765576252945L153.73771875,132.46829019473756L154.03828124999998,132.5694115974462L154.22613281250003,132.60773387509323L154.22613281250003,132.65620250353854L154.263703125,132.51341257800445L154.3764140625,131.955852712923L154.63940624999998,132.64587851794087L154.71454687500002,132.29104449285978L154.864828125,132.38987614870416L154.9775390625,132.558054822894L155.2029609375,132.77832237723197L155.691375,132.72103379175698L156.14221874999998,132.26967387761556L156.217359375,133.26002330290305L156.217359375,133.87998804362334L156.367640625,132.95173501791587L156.668203125,133.21725639849373L156.89362500000001,132.5747846116839L157.0814765625,131.9593910464526L157.23175781249998,132.95333721509363L157.34446874999998,133.05862423193923L157.7953125,132.32515394051853L159.8616796875,132.34722037629277L160.01196093750002,132.51344324123954L160.50037500000002,133.29708867217855L160.9136484375,132.85991510902795L161.0639296875,133.4210882819491L161.3644921875,132.70995421827618L161.4020625,132.78439702575378L161.55234375,132.4322868494042L161.92804687499998,132.62196286826918L162.30375,132.94521085903799L162.3413203125,132.4062392246371L162.378890625,132.07275149961185L162.679453125,131.49491384122692L163.43085937499998,131.509151302366L164.332546875,131.65724524538032L164.55796875,132.11328399686207L164.5955390625,132.32331378092283L164.70825000000002,132.70172131432045L165.083953125,132.26502121362853L165.4220859375,132.8803120197034L165.53479687499998,132.45116929942924L165.9105,132.9145914629423L166.0983515625,132.28117279228508L167.4508828125,132.69948119133875L167.78901562500002,132.36240967860917L167.86415625,132.77158294829886L168.0144375,132.54844299806055L168.23985937499998,133.12251720502215L168.3525703125,133.19548611198408L168.6155625,133.24007018270817L168.91612500000002,132.98794522588585L169.0288359375,133.20526800830496L169.32939843749998,132.3873808810373L169.4796796875,132.5932569632983L169.6299609375,131.86173892833625L170.49407812500002,131.90062705914875L170.644359375,132.4996660896333L170.90735156250003,132.3815576605663L171.0576328125,133.16485583209487L171.47090625,132.6536513360003L171.92174999999997,133.28362219041793L172.522875,133.6783955377586L173.4621328125,133.74037892563626L174.02568749999998,133.45048898201279L174.55167187499998,133.40480471421932L174.852234375,133.42630747599446L175.152796875,133.38738451362477L175.37821875,132.89329662597672L175.41578906249998,133.2007542948514L176.054484375,133.63662080395756L176.3926171875,134.54192669342828L176.9186015625,133.43142641102793L177.03131249999998,134.15751620701764L177.857859375,134.11072719015766L178.4965546875,133.6835912791476L178.9473984375,133.73420777851604L179.060109375,133.67560999689556L179.28553125000002,133.02424422983165L179.961796875,133.4926601562679L180.0369375,133.4207304986336L180.71320312499998,133.38266747377423L180.863484375,133.6257667455501L180.9761953125,132.8482081294612L181.6524609375,132.34727160486912L181.8027421875,133.05179893578838L182.065734375,132.72321204357792L182.5541484375,132.457910120319L182.7795703125,131.83847552527828L183.30555468749998,132.01729721706516L183.7563984375,132.03989410193108L184.31995312499998,132.79962824911928L184.620515625,133.0831552872795L184.6580859375,132.5914609233879L185.48463281250002,132.70532748688814L185.6349140625,133.01363298424815L186.1608984375,132.82218275618794L186.6117421875,132.98312833027387L186.6493125,132.8737086938799L186.91230468749998,133.88638576899353L187.4382890625,133.4571816438996L187.6637109375,132.91063804092386L187.926703125,133.1933338094247L188.00184374999998,133.3581688292668L188.3399765625,132.79396683637873L188.4151171875,133.40521671050533L188.4526875,133.07094893335548L189.16652343750002,132.52008009788938L189.27923437500002,132.50055032399823L189.61736718749998,132.55883643285947L190.10578124999998,132.67501349850406L190.63176562499999,132.62624125666764L191.00746875,132.77955580346193L191.60859374999998,133.41358068597015L192.0218671875,132.59085337986068L192.69813281249998,132.58356187655735L193.0738359375,132.25394139797515L193.11140625,132.0142563270193L193.33682812499998,132.79424080160726L193.5998203125,132.71877854783816L193.7501015625,132.38748746570636L193.787671875,133.3280319319319L193.82524218749998,133.82696748961416L194.6517890625,133.37360450961833L194.689359375,133.11951239683418L194.839640625,133.18849376953554L194.91478124999998,133.3571069779634L195.2529140625,133.39116314791977L195.40319531249997,133.91319494789843L196.49273437500003,134.10009271044385L196.5303046875,133.22379445839238L196.8684375,132.8441654422381L196.98114843750002,133.51890988296262L197.244140625,132.76611180665688L197.61984375,132.5906952590998L197.6574140625,133.43945685993913L197.694984375,134.00521983369214L197.7325546875,133.93255031852337L197.92040624999998,133.48878235952603L198.145828125,132.7862439456277L198.296109375,133.10629536842214L198.37125,132.81653412971343L198.972375,133.1087583679191L199.197796875,133.50642979207774L199.2353671875,132.97855386697137L199.5359296875,132.8200516499602L200.249765625,132.75593302061299L200.8884609375,132.2659309868622L201.8652890625,133.51463805083336L202.72940624999998,133.36206049016457L203.21782031249998,133.83050616830394L203.33053125,134.34899125744784L204.4952109375,134.24026621965L204.53278125,134.0410599520674L205.13390625,133.72050336192274L205.1714765625,133.25544023701684L205.5471796875,133.68151283848763L205.659890625,133.69608475674528L205.73503125,133.36827420352006L206.1483046875,132.65624166821303L206.37372656250002,132.9873104306749L206.48643750000002,133.03091240451883L206.63671875,133.1873986462448L207.31298437499998,133.20141274023217L207.3505546875,132.82623662027618L207.5008359375,132.522961211043L207.613546875,133.5156901658599L207.6886875,132.75372474577176L208.214671875,132.91537417234667L208.364953125,133.55922835463795L208.7782265625,133.3153553006471L208.89093749999998,133.22315332712753L209.64234375,133.6820081745904L209.94290625,133.45765631238052L210.318609375,133.67692323616302L210.3561796875,134.55430185420755L210.769453125,133.89285837932493L211.6335703125,134.01701976663807L211.821421875,133.84449870297476L212.4601171875,134.40552281267196L214.11321093749999,133.40772240068563L214.15078125,133.06287898544102L214.3010625,133.0678051231223L214.45134375,133.40901747732119L215.127609375,132.19369265668843L215.35303125000002,131.74154300356855L215.3906015625,132.33528999357395L216.96855468750002,132.38199100267275L217.2691171875,132.18995147419798L217.5696796875,132.63481889922122L217.60725,132.45836295614856L218.2459453125,132.7034674404376L218.734359375,132.9713991262379L218.88464062499997,133.2186823080448L219.29791406249998,133.32115406560706L219.7487578125,133.27285295884494L219.86146875,133.54797917011044L219.93660937500002,133.70558939865822L220.086890625,133.88940233409363L220.38745312499998,133.29499370147263L222.64167187500001,133.65735125527962L222.86709375,133.11118911881456L222.9046640625,133.12306495179757L222.97980468749998,132.58449609703834L223.543359375,132.76209503885318L223.8063515625,133.27102037896194L224.67046875000003,132.8139839252103L224.82075,132.95173601465038L225.2340234375,132.36226630912688L225.346734375,133.65622877390564L225.9854296875,133.51573566532957L226.21085156249998,133.00807220923002L226.69926562499998,132.89546710538127L227.450671875,132.93676393824174L227.78880468749998,132.44584393509638L228.3899296875,132.7890751337513L228.46507031250002,132.57804546235033L228.80320312499998,132.23209393657066L229.1413359375,132.39747712370843L229.44189843750002,132.93537165536736L230.1933046875,132.86707313893788L230.26844531249998,133.44555443088842L230.38115624999998,133.4796455689284L230.45629687500002,132.72974916451253L230.68171875,133.05248367380943L231.1325625,133.44753101386237L231.1701328125,133.47171251687473L231.43312500000002,133.87660585203855L231.54583593750002,133.98562855152244L231.7336875,133.57708019578726L231.9966796875,132.75785613644683L232.0718203125,132.18907622971275L233.98790624999998,133.0864443192197L234.4011796875,133.29009781796117L234.513890625,132.79822106782126L234.7017421875,132.4400908765606L235.3028671875,132.27014424966742L235.4531484375,132.1292002252259L235.49071874999998,132.04624491665868L235.56585937499997,132.15850943391985L235.9415625,133.02535057361453L236.09184374999998,132.6553594161055L236.24212500000002,132.01642883577836L236.58025781249998,131.47432707317506L236.617828125,132.00839750335317L236.8056796875,132.3279607193611L236.9559609375,133.1021587273146L236.99353125,132.85507175424686L237.5570859375,132.73428610287004L238.72176562500002,133.03905237831808L239.17260937499998,132.81757256359737L239.4356015625,132.66272275480162L239.623453125,133.1248304406754L240.1494375,133.03757523134064L240.4875703125,132.0809902216576L241.051125,132.60140988447762L241.4643984375,133.53221830998706L241.727390625,133.4074989854287L241.76496093749998,133.293730913415L241.87767187499998,133.16912234106528L242.10309375,133.4178658888223L243.53076562500002,132.72509850703568L243.6434765625,132.92767319118713L243.7186171875,132.91882016183376L243.831328125,132.6729023677892L243.86889843749998,132.63047353773533L244.0191796875,133.18515858647257L245.2214296875,133.04430866274453L245.7474140625,132.5526411060982L246.7618125,133.1092557095931L246.98723437499999,133.37787009416198L247.13751562500002,133.87067502235774L247.81378125,132.90112809573355L248.0016328125,132.42923497809318L248.56518749999998,132.94485017947363L248.6778984375,132.7726639274528L248.790609375,132.03428948380176L249.57958593749998,132.5169456115571L249.992859375,133.2983605160539L250.4812734375,133.69059995055542L250.51884375,133.28378357248215L250.894546875,132.78098402437095L251.0072578125,132.914521995782L251.15753906249998,133.04826352016082L251.796234375,132.41687721843093L251.871375,132.45694574205322L251.9840859375,132.37796368753357L252.77306249999998,132.33367371418345L252.84820312500003,132.33418327162622L253.0360546875,133.17249736330385L253.44932812500002,132.80792073046055L253.74989062499998,133.3439730111478L253.900171875,133.07237744875061L254.53886718750002,132.32919862248883L254.76428906249998,132.24078163730135L255.1399921875,132.49712882649123L255.2151328125,133.64082192519538L255.44055468750003,133.2761556744182L255.62840625,132.48560546139998L255.8162578125,132.74395409653658L255.92896875000002,131.9357281658356L256.4925234375,132.5440814324327L256.53009375,132.5086565049355L257.5444921875,132.15360015050757L257.8450546875,131.74498936359794L258.2207578125,132.66273905828425L258.63403125,132.330822128275L259.42300781250003,132.36434678229827L259.64842968749997,131.90666827592634L260.061703125,131.7211355537924L260.0992734375,131.94666004776474L261.3015234375,131.90435453662982L261.33909375,131.93304645154205L261.564515625,131.9671556024998L263.518171875,132.2849408306479L263.5933125,132.62932703501778L263.85630468749997,132.6017604610729L263.969015625,132.20961656854496L264.2320078125,132.9719709395028L265.24640625,132.7235014506374L266.0353828125,132.62440644387567L266.4110859375,131.95012308791775L267.0122109375,132.31340341400403L267.0873515625,132.83734892262797L267.1624921875,132.6032702736285L267.35034375,132.02914582750063L268.55259374999997,131.80223668092506L268.74044531249996,132.66984279661784L269.15371875,132.22635025544113L269.1912890625,131.89966866195587L269.228859375,132.41420130572948L269.3415703125,132.60654108845034L269.9426953125,133.17268863343898L270.95709375,132.60186902882378L271.0698046875,132.82469037047062L271.8212109375,133.1489438154188L272.0466328125,132.8335348718099L272.084203125,133.14988215749605L273.06103125,132.93431998234078L273.3240234375,133.14883511602534L273.3991640625,133.30105927900763L273.587015625,132.98670736863986L274.8268359375,133.19223425033306L274.93954687499996,133.84181111990728L275.6533828125,133.88887002829304L275.690953125,132.83677111325815L276.02908593750004,132.6264316045234L276.292078125,133.06237956129448L276.4047890625,133.02397309922438L276.66778125,133.54713658663093L276.7804921875,133.02239742518438L277.494328125,132.6746167013753L277.6070390625,132.96912779292217L277.9827421875,132.94755392450543" style="fill: none;" fill="none"></path></g></g></g></g><g opacity="0.20000000298023224"><g><g><g><path stroke="rgb(255, 112, 67)" stroke-width="2px" d="M37.9084453125,126.58594161830842L38.02115625,117.85932537696013L38.32171875,108.12382813760391L38.3592890625,110.34050167351961L38.396859375,105.99798424107334L38.62228125,100.35229396323362L38.8852734375,96.89545384297767L38.9604140625,96.5635377218326L39.336117187499994,92.08436598752937L39.4863984375,90.46856789663434L39.561539062499996,87.57284493868549L39.9372421875,89.78759292016426L40.4632265625,75.7516648620367L40.5383671875,71.81301922351122L40.6886484375,76.8315935190767L40.9892109375,76.59841417645414L41.026781250000006,75.4959936303397L41.853328125000004,73.28876414398353L41.9660390625,72.790847564737L42.229031250000006,70.06891207769513L42.3417421875,75.71578948634367L42.45445312499999,79.94820053627093L42.5671640625,70.42810394242406L42.679874999999996,62.602085410306856L43.055578125,64.29499753999214L43.356140624999995,71.81976043060422L43.3937109375,67.767722601071L43.5439921875,67.82187131171425L43.919695312500004,64.04059823416173L44.0699765625,69.23096731677651L44.3705390625,63.609521359205246L44.445679687500004,67.4137244336307L45.460078124999995,74.1473070376863L45.497648437500004,64.305971433719L45.7982109375,61.79983936871092L45.873351562500005,59.9251478339235L45.910921875,64.01125207791726L46.211484375,62.18681574737032L46.249054687500006,64.2845748141408L46.286625,67.10286575183272L46.4744765625,64.55204669137795L46.812609375,64.41130809423824L47.2258828125,59.764291609327L47.526445312499995,55.88854977115989L47.63915625,63.141678760449096L48.1275703125,64.19306681429346L48.315421875,74.7823725566268L48.428132812499996,62.183791390309736L48.578414062499995,62.37014266227682L48.578414062499995,62.61940480085711L49.217109375,57.890292567511395L49.2546796875,59.4233306820194L49.480101562499996,58.350447081029415L49.5928125,69.36532508581877L49.630382812499995,62.24040622388323L49.667953125000004,62.32457945123315L49.7055234375,63.00419064052403L49.74309375,70.49187689212461L49.968515625,66.39946248258154L50.156367187499995,61.60787749042113L50.9829140625,57.36868283587198L51.0580546875,54.91920800196628L51.1331953125,59.58882236977418L51.2834765625,66.09612936216097L51.4337578125,62.39465550022821L51.696749999999994,60.242210687448576L51.771890625,60.551119082917765L51.922171875,62.605816392848894L51.9973125,64.22084426196913L52.0348828125,62.80115594093998L52.072453124999996,57.282721846054L52.222734374999995,63.540074206888676L52.297875,66.11587954436739L52.3354453125,61.96295679484804L52.44815625,66.42916901782155L52.4857265625,65.051581442977L52.5608671875,62.75205960248907L52.636007812500004,56.496502070377275L52.748718749999995,61.96395313677688L52.748718749999995,62.26214202369253L53.1995625,63.538180450598404L53.274703124999995,60.30502969274919L53.875828125,68.56442163263758L54.026109375,60.618050648520395L54.1388203125,60.60339523603518L54.4018125,65.36894107920428L54.476953125,58.93004249967635L54.589664062500006,61.66282468785842L54.627234375,55.4274837107708L54.739945312500005,63.029113321254655L54.777515625,64.82647882960737L55.0405078125,65.91470326979955L55.078078125,56.480899779746935L55.265929687500005,55.2891900377969L55.3035,62.40028023906052L55.4913515625,66.85069231626888L55.5664921875,63.34881895408034L55.641632812500006,65.46115570453306L55.791914062500005,55.02477078263958L55.829484375,62.7608641559879L55.942195312500004,57.366478164369866L55.942195312500004,57.76754465512931L56.05490625,65.55781500414014L56.393039062499994,61.41160519669454L56.430609375,61.21133340274294L56.6184609375,62.912513050561145L57.182015625,63.94567723323901L57.4074375,71.8860842982928L57.5201484375,60.25179252897699L57.595289062499994,67.01469302425782L57.632859375,61.40014373138547L57.708,62.22056418036421L57.820710937499996,70.65627331038316L57.8958515625,62.23266160860658L58.083703125,62.14176130667329L58.1964140625,72.20722438084583L58.309125,65.44186482888956L58.496976562499995,60.63406278192997L59.285953125000006,66.21326666822036L59.36109375,67.25084726015727L59.36109375,67.75105330596368L59.398664062499996,68.61267002051075L59.736796875,66.21266603656113L59.962218750000005,62.02092834934592L60.2252109375,67.09042207710445L60.713625,61.06160652947922L60.939046875,63.95677125329773L61.1268984375,66.68152617601056L61.2020390625,68.28714179371794L61.23960937499999,67.97668588844438L61.615312499999995,74.0816544642051L61.7280234375,66.97464149196942L61.8783046875,69.38518126184742L61.991015624999996,65.90815285158654L62.291578124999994,61.606647962083414L62.3291484375,68.32903761851291L62.554570312500005,68.024079259485L62.592140625,62.93125275832911L62.667281249999995,70.43587682271998L62.667281249999995,71.14362583868206L63.568968749999996,71.24005901813507L63.644109375,79.60670257359743L63.6816796875,76.09964964662989L63.719249999999995,78.36552904794614L64.1325234375,72.64627199123304L64.35794531250001,72.22317998421688L64.395515625,78.6120989434421L64.545796875,78.551774326091L64.6209375,79.47608991960685L65.07178125,87.3881047728161L65.10935156250001,91.8437600110968L65.297203125,87.72773017796378L65.447484375,87.64889197299878L65.522625,79.83227155978481L65.5601953125,95.1206650187572L66.1613203125,86.26210413438578L66.2364609375,87.73430886119604L66.724875,107.68671314790845L67.0254375,89.57595858847102L67.0254375,90.26161142562827L67.32600000000001,93.7394524551928L67.401140625,92.7975136221697L67.70170312500001,95.80276352974275L67.70170312500001,96.41625577273467L68.1149765625,104.54977298248559L68.2276875,100.19566335901618L68.302828125,102.36652989809713L68.37796875000001,106.62437946535647L68.453109375,117.40939220103124L68.52825,100.57628010834256L68.75367187500001,106.2065518181771L68.903953125,108.32550611626357L69.0166640625,106.19736568691829L69.1669453125,101.34202894382179L69.3172265625,113.30562938625613L69.3923671875,112.49858535764119L69.42993750000001,110.04160969424993L69.4675078125,107.06814026770493L69.5426484375,108.9341685740898L69.655359375,112.77964564288655L69.8432109375,114.42116136817882L70.0310625,111.90989566904804L70.10620312500001,117.10620040570697L70.1437734375,113.78136852476746L70.18134375000001,129.13732244602093L70.2940546875,113.47815199755132L70.331625,122.37640403521559L70.3691953125,113.8108418735986L70.7448984375,112.80674826322743L70.8951796875,122.82866554210582L71.007890625,111.78152301783362L71.158171875,122.57947406607369L71.158171875,123.17310306678215L71.3460234375,113.33504973817617L71.45873437499999,114.36652861908078L71.8720078125,120.97764596094689L71.9471484375,116.72692624479532L72.13499999999999,116.22021217830479L72.210140625,115.63638053989658L72.360421875,115.46694588195533L72.6234140625,123.6467505938684L72.660984375,119.24411699858805L72.7736953125,123.51504973663637L72.811265625,122.91882742041102L73.44996093750001,128.65290594659746L73.56267187499999,126.87139711404839L73.9008046875,129.63766981692365L74.08865625,120.04637363956621L74.12622656250001,135.6356234966467L74.163796875,141.84631207725033L74.50192968750001,129.57548324142894L74.764921875,137.1063831743474L74.80249218750001,125.8640106289337L75.140625,131.83655052321652L75.21576562499999,124.26759527499476L75.366046875,129.06127187858024L75.7041796875,130.3259159695978L75.816890625,137.6000529344504L76.26773437499999,140.10525402038667L76.49315625,128.99733640501896L76.56829687499999,134.9862134804328L76.56829687499999,135.58495491649956L76.60586718750001,130.29152097428837L76.6434375,130.88457054210207L76.718578125,129.10970045595118L76.79371875,134.87142747066292L76.944,130.16097544971853L77.2069921875,141.92492769518867L77.8456875,128.9745477332423L77.920828125,131.02772579838833L78.07110937499999,127.08602400465557L78.221390625,126.90912031537542L78.44681250000001,120.08399084707102L78.6346640625,120.83562130543092L78.67223437499999,129.91844038572162L78.70980468750001,131.7890122939522L78.822515625,129.8576105311513L78.8600859375,119.44992167005935L79.01036718750001,110.52217508479953L79.0855078125,108.96213681064546L79.46121093750001,113.27545647819838L79.573921875,108.13284114561975L79.573921875,109.17115662805736L79.6114921875,110.77130649766573L79.6866328125,107.30958006220558L79.76177343750001,95.88047113393745L79.76177343750001,97.06669746215144L79.91205468749999,104.30591299571097L79.949625,109.22321372727552L80.0623359375,105.4273311678941L80.40046875,88.8295076948901L80.5883203125,88.89752746373415L80.70103125,85.88370618907113L80.8137421875,75.51214002259076L80.8888828125,78.6886406155924L81.1143046875,61.03945382063587L81.151875,58.319821932663515L81.60271875000001,39.70462157453102L81.79057031250001,22.78984477495152L82.429265625,16.580966922144114L82.4668359375,-1.6725259845455582L82.50440625,2.918221913278103L82.76739843749999,16.660617746412754L83.330953125,-17.49225940803686L89.041640625,-2.4548310550550525L89.30463281249999,10.90048947185278L89.30463281249999,11.951792730639397L89.342203125,11.516582096616446L89.94332812500001,12.946255035698414L89.9808984375,17.111586128671945L89.9808984375,18.234399886180938L90.31903125,20.692707538604736L90.61959374999999,29.086937752862752L90.69473437500001,23.5871303056677L91.52128125,29.052002189060033L91.6715625,42.326753278573335L91.8594140625,34.20896908516687L91.97212499999999,43.251443383594335L92.04726562500001,33.16323403517407L92.347828125,47.55373262738186L92.3853984375,48.36932682432234L92.42296875,44.103068413833796L93.28708593750001,46.879081948970736L93.4373671875,50.508981715887785L93.8882109375,52.614478331680104L94.0384921875,51.576487896963954L94.1136328125,61.063252966850996L94.1887734375,55.38180037339528L94.22634375,54.988492630422115L94.4141953125,55.731608251730606L94.4893359375,51.84618564446767L94.63961718750001,51.99004045998056L94.6771875,49.58621363217634L95.12803125,66.92707853081326L95.203171875,51.52173148840666L95.2407421875,60.266292483856276L95.7667265625,41.32033487036824L96.2175703125,69.36542401338617L96.4805625,60.65236438189943L96.63084375,58.92695454632242L96.74355468750001,61.88358155451715L96.8186953125,68.36289204532902L96.93140625000001,75.86036505984764L97.23196875000001,70.29378857091069L97.5701015625,79.12609831864636L97.607671875,70.88492318366964L97.7203828125,78.99158509199818L97.79552343750001,70.39115449599922L98.24636718750001,71.27106574426095L98.28393750000001,78.46564374615748L98.43421875,77.73937407632668L98.4717890625,83.24151338761051L98.509359375,74.23729579274853L98.54692968750001,78.96768701821566L98.54692968750001,79.61872933929165L99.03534375000001,81.52482331047456L99.185625,77.69803648566206L99.63646875,89.26446394373974L99.78675000000001,81.10110240677993L100.04974218749999,79.68658658427496L100.08731250000001,88.10655209856729L100.38787500000001,80.25819713498156L100.9514296875,99.33529030531645L100.989,87.03303960089882L101.1768515625,100.5744852796197L101.4774140625,89.57639669626951L101.590125,99.6984039414674L102.0033984375,96.26272725438079L102.04096875,96.715561127911L102.15367968749999,103.16741215251386L102.34153125,87.79828673228621L102.3791015625,100.0197206803908L102.5293828125,99.10864018214247L102.64209375,97.65903333822885L102.7548046875,103.3574520094941L102.867515625,97.37967602039376L102.94265625000001,102.53229010353485L103.24321875000001,103.09795793394247L103.468640625,98.92751793873808L103.54378125,90.7794195121775L103.65649218749999,97.39630998422703L103.95705468749999,103.5966518012186L103.994625,98.33701928891242L104.1073359375,99.87503911306462L104.1824765625,110.70024470612407L104.48303906250001,108.45323927141726L104.821171875,99.77824555461606L105.19687499999999,104.00569609366357L105.53500781250001,101.13307978895804L105.572578125,101.46742670175931L105.6101484375,107.76027639365444L105.64771875,97.08615086165568L105.722859375,108.95530374223986L106.023421875,106.05819579834738L106.24884374999999,104.87920178193599L106.5118359375,95.13021859526634L107.075390625,97.9655250745515L107.1129609375,101.44487828264633L107.5638046875,102.47055930147567L107.63894531250001,100.65441168782613L107.67651562500001,101.06857194875678L107.7892265625,106.38828175949553L107.826796875,100.97593334813914L107.8643671875,100.49986562877893L108.05221875,101.63767397900423L108.1649296875,112.60489009507L108.42792187500001,102.31648668150106L108.578203125,97.20307618007064L108.803625,94.58878095261753L108.84119531249999,101.91235343615213L108.9163359375,101.9245003281782L109.14175781249999,96.56253431364894L109.2168984375,97.57428067798415L109.2920390625,102.3268599435687L109.329609375,99.85447631155452L109.5174609375,96.75769013911486L109.5926015625,99.30600774536529L110.15615625,101.28383833542466L110.23129687500001,98.8603249217073L110.381578125,97.14333099561432L111.208125,99.57670183479786L111.35840625,98.08347499991456L111.4711171875,97.87778338852027L111.54625781249999,102.49512866946557L111.7716796875,97.32660138048232L111.88439062500001,102.46510415275893L111.99710156249999,92.66731787721315L112.410375,102.47102567429343L112.5982265625,100.9774313941598L112.7109375,101.0037178620696L112.86121875,101.2406211209794L112.8987890625,100.12657658569515L113.12421093750001,105.80172254672894L113.3120625,107.7972293732067L113.387203125,102.48306657249728L113.5750546875,101.38947177864611L114.439171875,103.02130320171514L114.5518828125,104.56713830369213L114.5518828125,104.81734732041755L114.739734375,109.24498839148632L116.1298359375,108.01085285563022L116.3176875,111.91001579537988L116.3552578125,107.68084109015763L116.392828125,109.44170232613882L116.4303984375,115.33945297946534L116.46796875,106.99824794133505L116.5055390625,107.02855157510689L116.9563828125,109.93542155002555L117.06909375000001,107.74884672649205L117.1066640625,113.76216951043656L117.2569453125,112.33626995142549L117.48236718749999,113.00995608605444L117.6326484375,110.5082333640506L117.7077890625,109.00468626401076L117.7077890625,109.20425496560833L118.0083515625,116.6278538191691L118.3089140625,111.79980341903865L118.421625,112.23500345367938L118.496765625,117.568220410496L118.647046875,108.4063122731944L118.6846171875,112.9674843614921L118.87246875000001,113.3365371848146L118.947609375,111.31411146062115L119.0603203125,118.35380069011202L119.1354609375,114.69787237358591L119.62387500000001,110.2747996362547L119.8117265625,113.4555187833806L120.07471875,115.59881279617548L120.22500000000001,110.9784996882081L120.33771093749999,114.40254531987011L120.41285156250001,111.73405191799006L120.41285156250001,111.91894400833795L120.7885546875,113.39680173899978L120.826125,113.91864112392068L120.93883593749999,109.32654357142746L121.502390625,108.91837549457946L121.6151015625,112.65667867660522L121.9156640625,110.22228323047361L121.953234375,113.26642227141807L122.253796875,110.9667237745598L122.2913671875,111.24960008729249L122.6295,112.34350932948291L122.6670703125,111.15358735000095L122.704640625,115.75013664302728L122.8924921875,110.44587366531292L123.08034375,114.7326560129101L123.56875781250001,114.46661505227289L123.606328125,116.51849645966044L123.83175,118.11720481328666L123.86932031250001,112.37785839413604L123.906890625,114.4296514733384L123.9444609375,115.31946254459521L124.1698828125,115.38469820904234L124.508015625,112.5736183843886L124.88371875,115.71343098239353L125.03399999999999,113.6454950440675L125.18428125,115.551394693243L125.259421875,111.9326490095506L125.37213281250001,117.27394622874758L125.40970312500001,115.49803387001157L125.40970312500001,115.654360625272L125.5975546875,115.65802447839329L126.08596874999999,115.93974545846382L126.1986796875,115.35773338067034L126.4992421875,115.71450151999792L126.68709375,115.11383452949426L126.762234375,116.50664635033658L126.7998046875,115.20751893582442L126.9500859375,116.02400348087153L127.062796875,116.28163913140693L127.1003671875,114.05427081882954L127.28821875,116.13804930044958L127.363359375,120.53493096431097L127.4760703125,118.01709718133012L127.51364062500001,119.17489596642554L127.62635156249999,116.15263758351406L127.7390625,118.78832589741796L127.7766328125,117.97394356317818L127.814203125,117.00366198209426L128.49046875,116.07231546503803L128.71589062500001,115.32889599477252L129.0540234375,116.61802112559477L129.09159375,118.70758686990789L129.46729687500002,120.59838946567228L129.5048671875,120.78687474659333L129.8805703125,116.78429010137916L130.3314140625,122.01125531767806L130.368984375,118.31273868338516L130.6319765625,120.69977255662283L130.7822578125,126.30859818309546L130.93253906249998,122.3418359166632L131.0076796875,119.36583323776722L131.04525,119.81539896844575L131.04525,119.96308016094068L131.871796875,123.41011231951416L131.9845078125,120.31342507464191L132.05964843750002,122.44192941611013L132.17235937499998,124.32263433374465L132.4353515625,123.79990813384453L132.472921875,121.06898790380606L132.472921875,121.20981836225837L132.623203125,121.30870706525943L132.9613359375,122.73093217176697L133.374609375,122.49406424413124L133.4873203125,121.08615536987782L133.8630234375,125.83081336381534L133.90059375,126.60223640191057L134.0133046875,120.66037818603218L134.50171875,125.59624196899435L134.576859375,122.9884759609898L134.8398515625,122.43007930678627L134.91499218750002,122.84334568648288L135.253125,122.17155330814421L135.40340625000002,122.61303524331501L135.8166796875,124.72425905863443L135.8918203125,121.43040210567415L135.9669609375,126.12891392254582L136.00453125,125.02932694461197L136.4929453125,125.61655038533112L136.90621875,123.07777575620761L137.1692109375,123.75870833514878L137.46977343749998,127.6876414064318L137.657625,122.58461123332381L137.9581875,124.98688348506889L138.22117968749998,122.67048389495662L138.25875,122.89357615883151L138.634453125,123.91242410925528L139.085296875,126.38880724149445L139.1228671875,124.67567149053016L139.385859375,127.34497751171389L139.7239921875,127.57611823982248L139.7991328125,126.08041821575412L139.8742734375,125.29676349057505L140.588109375,124.78442821837962L140.7008203125,128.0384208948041L140.7759609375,126.15986058550575L140.888671875,125.97785152712217L141.0013828125,125.36749316814044L141.11409375,126.34324403045079L141.1516640625,127.12039780120054L141.189234375,128.30201693127552L141.640078125,128.13343729016682L141.790359375,127.570899810642L142.1284921875,126.7984733643631L142.20363281250002,128.42019297679266L142.241203125,127.38412103025863L142.466625,127.0878435652703L142.5041953125,126.57160418728986L142.61690625,127.19603852586201L142.842328125,129.72312203639498L142.9550390625,128.21517265960574L143.142890625,126.21936551729837L143.3307421875,127.79530286478499L143.8567265625,128.06023089028895L143.894296875,128.49178120431802L143.9694375,128.73067361395806L144.2324296875,128.07709097427627L145.02140624999998,129.72723106356958L145.05897656250002,128.29059786349535L145.397109375,129.47271869766215L145.7352421875,129.77311932233474L146.073375,130.84783308332166L146.11094531249998,129.03294326302907L146.22365625,129.92669730447233L146.298796875,128.3975067657108L146.63692968750001,131.59700448500612L146.6745,129.652890529794L146.9750625,132.10110757034272L147.050203125,130.85734426230192L147.1629140625,129.53403612381467L147.6888984375,130.2058532340452L147.72646875,128.96165888446072L147.8391796875,130.1914345410963L148.1773125,130.14287523801127L148.2148828125,132.01622065125653L148.36516406249999,131.15827485608557L148.5154453125,133.20646414533257L148.703296875,131.68765746802092L148.74086718750002,129.65966353503367L148.92871875,131.6417338779817L149.00385937500002,130.81978711796305L149.00385937500002,130.89936727968356L149.3795625,132.38380722670504L149.454703125,132.857998855412L149.49227343750002,131.94398232828826L149.5674140625,132.57821049603322L149.75526562500002,129.94139511448643L150.0933984375,131.83708755858243L150.4691015625,132.16837478304902L150.54424218749998,133.50823385687545L150.73209375,132.9847604005287L150.8448046875,132.76636719610542L150.8448046875,132.85381563256183L150.9199453125,133.29612078641853L150.9950859375,133.10682288619378L151.408359375,132.50631488642344L151.7464921875,132.26577603941163L151.8216328125,132.64806749112904L151.8967734375,133.15585209522396L152.19733593750001,132.59543095901608L152.23490625,132.069885323445L152.4227578125,133.10903462395072L152.53546874999998,134.44238391052932L152.5730390625,132.77073414158076L152.68575,133.10769203553596L152.72332031250002,131.81483945529908L152.760890625,133.58660745558637L152.9863125,132.24127026771507L153.0238828125,132.58545340721807L153.06145312499999,134.08293236093596L153.512296875,132.2045610739539L153.66257812499998,132.36954045823464L153.73771875,132.21424184304973L154.03828124999998,132.72109370150915L154.22613281250003,132.66521729156375L154.22613281250003,132.72890544620654L154.263703125,132.29922768970332L154.3764140625,131.11951291530082L154.63940624999998,133.68091722546768L154.71454687500002,131.75879345523813L154.864828125,132.53812363247076L154.9775390625,132.8103228341788L155.2029609375,133.1087237087389L155.691375,132.6351009135445L156.14221874999998,131.5926340064034L156.217359375,134.74554744083434L156.217359375,134.80993515470374L156.367640625,131.55935547935465L156.668203125,133.6155384693605L156.89362500000001,131.61107693146914L157.0814765625,131.0363006986057L157.23175781249998,134.44425646805513L157.34446874999998,133.21655475720763L157.7953125,131.22494850338748L159.8616796875,132.3803200299541L160.01196093750002,132.76277753865966L160.50037500000002,134.47255681858707L160.9136484375,132.20415476430207L161.0639296875,134.26284804133076L161.3644921875,131.64325312276682L161.4020625,132.89606123697013L161.55234375,131.90412158487985L161.92804687499998,132.90647689656666L162.30375,133.43008284519118L162.3413203125,131.59778177303573L162.378890625,131.572519912074L162.679453125,130.62815735364953L163.43085937499998,131.5305074940746L164.332546875,131.87938615990183L164.55796875,132.79734212408462L164.5955390625,132.63835845701396L164.70825000000002,133.26933261441687L165.083953125,131.6099710625907L165.4220859375,133.80324822881568L165.53479687499998,131.80745521901795L165.9105,133.6097247082119L166.0983515625,131.33104478629926L167.4508828125,133.32694378991923L167.78901562500002,131.85680240951478L167.86415625,133.3853428528334L168.0144375,132.2137330727031L168.23985937499998,133.98362851546455L168.3525703125,133.30493947242698L168.6155625,133.30694628879428L168.91612500000002,132.60975779065242L169.0288359375,133.53125218193355L169.32939843749998,131.16055019013584L169.4796796875,132.90207108668983L169.6299609375,130.76446187589318L170.49407812500002,131.95895925536752L170.644359375,133.39822463536012L170.90735156250003,132.20439501696578L171.0576328125,134.33980308938771L171.47090625,131.88684459185848L171.92174999999997,134.22857847204432L172.522875,134.27055555876967L173.4621328125,133.83335400745273L174.02568749999998,133.01565406657755L174.55167187499998,133.33627831252912L174.852234375,133.45856161865714L175.152796875,133.32900007007024L175.37821875,132.15216479450464L175.41578906249998,133.6619407981634L176.054484375,134.29042056761682L176.3926171875,135.89988552763435L176.9186015625,131.76567598742744L177.03131249999998,135.24665090100217L177.857859375,134.0405436648677L178.4965546875,133.0428874126325L178.9473984375,133.81013252756867L179.060109375,133.58771332446486L179.28553125000002,132.04719557923576L179.961796875,134.19528404592228L180.0369375,133.31283601218215L180.71320312499998,133.3255729364852L180.863484375,133.99041565321386L180.9761953125,131.68187020532787L181.6524609375,131.595866817981L181.8027421875,134.10858993216726L182.065734375,132.23033170526227L182.5541484375,132.0599572354307L182.7795703125,130.90932363271713L183.30555468749998,132.28552975474545L183.7563984375,132.07378942923L184.31995312499998,133.9392294699016L184.620515625,133.50844584451988L184.6580859375,131.85391937755048L185.48463281250002,132.8761273321385L185.6349140625,133.47609123028815L186.1608984375,132.53500741409758L186.6117421875,133.2245466914028L186.6493125,132.70957923928896L186.91230468749998,135.40540138166398L187.4382890625,132.81337545625865L187.6637109375,132.09082263646027L187.926703125,133.61737746217597L188.00184374999998,133.6054213590299L188.3399765625,131.94766384704658L188.4151171875,134.32209152169526L188.4526875,132.5695472676307L189.16652343750002,131.69377684469023L189.27923437500002,132.4712556631615L189.61736718749998,132.64626559615135L190.10578124999998,132.84927909697095L190.63176562499999,132.553082893913L191.00746875,133.0095276236534L191.60859374999998,134.3646180097324L192.0218671875,131.35676242069653L192.69813281249998,132.5726246216024L193.0738359375,131.7595106801018L193.11140625,131.6547287205855L193.33682812499998,133.96421751348925L193.5998203125,132.60558516718447L193.7501015625,131.89055084250867L193.787671875,134.73884863127023L193.82524218749998,134.57537082613754L194.6517890625,132.69356003962457L194.689359375,132.7383742276579L194.839640625,133.29196582858762L194.91478124999998,133.61002679060522L195.2529140625,133.44224740285426L195.40319531249997,134.69624264786643L196.49273437500003,134.38043935426202L196.5303046875,131.90934708031514L196.8684375,132.27472191800675L196.98114843750002,134.53102654404938L197.244140625,131.63691469219825L197.61984375,132.32757043776414L197.6574140625,134.7125992611982L197.694984375,134.85386429432157L197.7325546875,133.82354604577023L197.92040624999998,132.82313042103002L198.145828125,131.7324363247802L198.296109375,133.5863725026138L198.37125,132.38189227165034L198.972375,133.54709472522762L199.197796875,134.10293692831573L199.2353671875,132.18673997931182L199.5359296875,132.5822983244434L200.249765625,132.65975507659218L200.8884609375,131.53092793623605L201.8652890625,135.38769864679006L202.72940624999998,133.13319414916137L203.21782031249998,134.53317468551296L203.33053125,135.12671889116365L204.4952109375,134.07717866295326L204.53278125,133.74225055069354L205.13390625,133.23966847670576L205.1714765625,132.55784554965794L205.5471796875,134.32062174069387L205.659890625,133.71794263413176L205.73503125,132.8765583736822L206.1483046875,131.5881928652525L206.37372656250002,133.48391357436776L206.48643750000002,133.09631536528468L206.63671875,133.4221280088338L207.31298437499998,133.22243388121328L207.3505546875,132.2634724403421L207.5008359375,132.06804809719324L207.613546875,135.00478359808523L207.6886875,131.61077661563954L208.214671875,133.15784831220904L208.364953125,134.52500962807488L208.7782265625,132.94954571966082L208.89093749999998,133.0848503668482L209.64234375,134.37029044578475L209.94290625,133.12112851906568L210.318609375,134.00582362183678L210.3561796875,135.87036978127435L210.769453125,132.900693167001L211.6335703125,134.2032618476078L211.821421875,133.58571710747975L212.4601171875,135.2470589772177L214.11321093749999,131.91102178270617L214.15078125,132.5456138625741L214.3010625,133.07519432964423L214.45134375,133.92083600861952L215.127609375,130.3707054257393L215.35303125000002,131.0633185238888L215.3906015625,133.225910478582L216.96855468750002,132.45204251632094L217.2691171875,131.9018921814859L217.5696796875,133.302120036756L217.60725,132.19367904153964L218.2459453125,133.0711241668711L218.734359375,133.37329665493843L218.88464062499997,133.58960708075512L219.29791406249998,133.47486170195043L219.7487578125,133.20040129870176L219.86146875,133.96066848700866L219.93660937500002,133.94200474147993L220.086890625,134.1651217372467L220.38745312499998,132.40338075254112L222.64167187500001,134.20088758599013L222.86709375,132.291945914117L222.9046640625,133.1408787012721L222.97980468749998,131.77664281489947L223.543359375,133.02849345157543L223.8063515625,134.03440838912502L224.67046875000003,132.12842924458286L224.82075,133.1583641488105L225.2340234375,131.47806175084165L225.346734375,135.59717247107375L225.9854296875,133.3049960024655L226.21085156249998,132.2465770250807L226.69926562499998,132.72655944960812L227.450671875,132.99870918753246L227.78880468749998,131.70946393037835L228.3899296875,133.3039219317337L228.46507031250002,132.26150095524886L228.80320312499998,131.71316664790115L229.1413359375,132.6455519044151L229.44189843750002,133.74221345285576L230.1933046875,132.76462536429366L230.26844531249998,134.31327636881423L230.38115624999998,133.53078227598843L230.45629687500002,131.60490455788872L230.68171875,133.5365854377548L231.1325625,134.04010202394176L231.1701328125,133.50798477139324L231.43312500000002,134.48394585478428L231.54583593750002,134.14916260074824L231.7336875,132.96425766218454L231.9966796875,131.52902004743615L232.0718203125,131.33590636961162L233.98790624999998,134.43249645348016L234.4011796875,133.59557806607336L234.513890625,132.0604059426114L234.7017421875,131.90289558966955L235.3028671875,132.0152243093277L235.4531484375,131.91778418856362L235.49071874999998,131.92181195380786L235.56585937499997,132.32690620981157L235.9415625,134.32561228315654L236.09184374999998,132.10037267984202L236.24212500000002,131.05803296528757L236.58025781249998,130.66117442927012L236.617828125,132.80950314862034L236.8056796875,132.80730554337302L236.9559609375,134.26345573924482L236.99353125,132.48444129464528L237.5570859375,132.55310762580484L238.72176562500002,133.49620179149014L239.17260937499998,132.48535284151635L239.4356015625,132.43044804160795L239.623453125,133.81799196948606L240.1494375,132.9066924173385L240.4875703125,130.64611270713308L241.051125,133.3820393787076L241.4643984375,134.92843094825122L241.727390625,133.22041999859115L241.76496093749998,133.12307880539447L241.87767187499998,132.9822094825407L242.10309375,133.7909812104578L243.53076562500002,131.68594743435582L243.6434765625,133.2315352174143L243.7186171875,132.90554061780372L243.831328125,132.30402567672232L243.86889843749998,132.56683029265454L244.0191796875,134.01718615957844L245.2214296875,132.8330337771525L245.7474140625,131.81513977112868L246.7618125,133.94417761483538L246.98723437499999,133.78079167101532L247.13751562500002,134.6098824146514L247.81378125,131.44680770579726L248.0016328125,131.72139530163258L248.56518749999998,133.71827298154432L248.6778984375,132.51438454942158L248.790609375,130.92672781832516L249.57958593749998,133.24092980319014L249.992859375,134.47048287279904L250.4812734375,134.27895910230774L250.51884375,132.67355900537223L250.894546875,132.02678470220417L251.0072578125,133.1148289528986L251.15753906249998,133.248875806729L251.796234375,131.46979776583612L251.871375,132.51704852748662L251.9840859375,132.25949060575417L252.77306249999998,132.26723875415823L252.84820312500003,132.33494760779044L253.0360546875,134.42996850082028L253.44932812500002,132.26105578119555L253.74989062499998,134.14805143217865L253.900171875,132.66498410515487L254.53886718750002,131.21443038309613L254.76428906249998,132.10815615952015L255.1399921875,132.881649610276L255.2151328125,135.3563615732516L255.44055468750003,132.72915629825243L255.62840625,131.29978014187267L255.8162578125,133.13147704924145L255.92896875000002,130.7233892697841L256.4925234375,133.45661133232835L256.53009375,132.45551911368966L257.5444921875,131.6210156188657L257.8450546875,131.13207318323353L258.2207578125,134.03936360031366L258.63403125,131.83294673326114L259.42300781250003,132.41463376333317L259.64842968749997,131.22015051636845L260.061703125,131.44283647059152L260.0992734375,132.28494678872326L261.3015234375,131.8408962699274L261.33909375,131.97608432391038L261.564515625,132.01831932893643L263.518171875,132.7616186728701L263.5933125,133.1459063415726L263.85630468749997,132.5604106001556L263.969015625,131.62140072975308L264.2320078125,134.11550249593955L265.24640625,132.35079721733928L266.0353828125,132.4757639337331L266.4110859375,130.93869805398086L267.0122109375,132.85832390313348L267.0873515625,133.62326718556386L267.1624921875,132.25215230012932L267.35034375,131.1679591583088L268.55259374999997,131.4618729610617L268.74044531249996,133.97125197015703L269.15371875,131.56111144367605L269.1912890625,131.40964627172798L269.228859375,133.18600027138987L269.3415703125,132.89505076253167L269.9426953125,134.02190995092195L270.95709375,131.745639621901L271.0698046875,133.15892238294086L271.8212109375,133.63532398284104L272.0466328125,132.36042145639658L272.084203125,133.62440308602527L273.06103125,132.61097671960792L273.3240234375,133.4706078165521L273.3991640625,133.52939552348107L273.587015625,132.5151795030882L274.8268359375,133.50052457287285L274.93954687499996,134.81617642426863L275.6533828125,133.9594583908717L275.690953125,131.25862274070582L276.02908593750004,132.31092234142125L276.292078125,133.71630149645108L276.4047890625,132.96636340611926L276.66778125,134.33188181774068L276.7804921875,132.2352886830146L277.494328125,132.15294561566165L277.6070390625,133.41089443024248L277.9827421875,132.9151931218803" style="fill: none;" fill="none"></path></g></g></g></g></g></g><g transform="translate(29, 177)" clip-path="url(#clip_1)"><clipPath id="clip_1"><rect width="300" height="22"></rect></clipPath><g><g><line x1="0" y1="0" x2="0" y2="5" style="visibility: inherit;" fill="rgb(0, 0, 0)" stroke="rgb(204, 204, 204)" stroke-width="1px"></line><line x1="37.5703125" y1="0" x2="37.5703125" y2="5" style="visibility: inherit;" fill="rgb(0, 0, 0)" stroke="rgb(204, 204, 204)" stroke-width="1px"></line><line x1="75.140625" y1="0" x2="75.140625" y2="5" style="visibility: inherit;" fill="rgb(0, 0, 0)" stroke="rgb(204, 204, 204)" stroke-width="1px"></line><line x1="112.7109375" y1="0" x2="112.7109375" y2="5" style="visibility: inherit;" fill="rgb(0, 0, 0)" stroke="rgb(204, 204, 204)" stroke-width="1px"></line><line x1="150.28125" y1="0" x2="150.28125" y2="5" style="visibility: inherit;" fill="rgb(0, 0, 0)" stroke="rgb(204, 204, 204)" stroke-width="1px"></line><line x1="187.8515625" y1="0" x2="187.8515625" y2="5" style="visibility: inherit;" fill="rgb(0, 0, 0)" stroke="rgb(204, 204, 204)" stroke-width="1px"></line><line x1="225.421875" y1="0" x2="225.421875" y2="5" style="visibility: inherit;" fill="rgb(0, 0, 0)" stroke="rgb(204, 204, 204)" stroke-width="1px"></line><line x1="262.9921875" y1="0" x2="262.9921875" y2="5" style="visibility: inherit;" fill="rgb(0, 0, 0)" stroke="rgb(204, 204, 204)" stroke-width="1px"></line><line x1="300.5625" y1="0" x2="300.5625" y2="5" style="visibility: inherit;" fill="rgb(0, 0, 0)" stroke="rgb(204, 204, 204)" stroke-width="1px"></line></g><g transform="translate(0, 8)"><text x="0" y="0" dx="0em" dy="0.95em" style="text-anchor: middle; visibility: hidden; font-family: &quot;Helvetica Neue&quot;, sans-serif; font-size: 12px; font-weight: 200;" fill="rgb(50, 49, 63)" stroke="none" stroke-width="1px">-1k</text><text x="37.5703125" y="0" dx="0em" dy="0.95em" style="text-anchor: middle; visibility: inherit; font-family: &quot;Helvetica Neue&quot;, sans-serif; font-size: 12px; font-weight: 200;" fill="rgb(50, 49, 63)" stroke="none" stroke-width="1px">0</text><text x="75.140625" y="0" dx="0em" dy="0.95em" style="text-anchor: middle; visibility: inherit; font-family: &quot;Helvetica Neue&quot;, sans-serif; font-size: 12px; font-weight: 200;" fill="rgb(50, 49, 63)" stroke="none" stroke-width="1px">1k</text><text x="112.7109375" y="0" dx="0em" dy="0.95em" style="text-anchor: middle; visibility: inherit; font-family: &quot;Helvetica Neue&quot;, sans-serif; font-size: 12px; font-weight: 200;" fill="rgb(50, 49, 63)" stroke="none" stroke-width="1px">2k</text><text x="150.28125" y="0" dx="0em" dy="0.95em" style="text-anchor: middle; visibility: inherit; font-family: &quot;Helvetica Neue&quot;, sans-serif; font-size: 12px; font-weight: 200;" fill="rgb(50, 49, 63)" stroke="none" stroke-width="1px">3k</text><text x="187.8515625" y="0" dx="0em" dy="0.95em" style="text-anchor: middle; visibility: inherit; font-family: &quot;Helvetica Neue&quot;, sans-serif; font-size: 12px; font-weight: 200;" fill="rgb(50, 49, 63)" stroke="none" stroke-width="1px">4k</text><text x="225.421875" y="0" dx="0em" dy="0.95em" style="text-anchor: middle; visibility: inherit; font-family: &quot;Helvetica Neue&quot;, sans-serif; font-size: 12px; font-weight: 200;" fill="rgb(50, 49, 63)" stroke="none" stroke-width="1px">5k</text><text x="262.9921875" y="0" dx="0em" dy="0.95em" style="text-anchor: middle; visibility: inherit; font-family: &quot;Helvetica Neue&quot;, sans-serif; font-size: 12px; font-weight: 200;" fill="rgb(50, 49, 63)" stroke="none" stroke-width="1px">6k</text><text x="300.5625" y="0" dx="0em" dy="0.95em" style="text-anchor: middle; visibility: hidden; font-family: &quot;Helvetica Neue&quot;, sans-serif; font-size: 12px; font-weight: 200;" fill="rgb(50, 49, 63)" stroke="none" stroke-width="1px">7k</text></g><line x1="0" y1="0" x2="300.5625" y2="0" fill="rgb(0, 0, 0)" stroke="rgb(204, 204, 204)" stroke-width="1px"></line></g></g></g></g></svg>